<?xml version="1.0" encoding="utf-8"?>
<!-- Generator: Adobe Illustrator 19.1.0, SVG Export Plug-In . SVG Version: 6.00 Build 0)  -->
<svg version="1.1" id="Layer_1" xmlns="http://www.w3.org/2000/svg" xmlns:xlink="http://www.w3.org/1999/xlink" x="0px" y="0px"
	 viewBox="77 362.9 750 158.2" style="enable-background:new 77 362.9 750 158.2;" xml:space="preserve">
<style type="text/css">
	.st0{enable-background:new    ;}
	.st1{fill:#373737;}
	.st2{opacity:0.2;fill:#373737;enable-background:new    ;}
	.st3{fill:none;stroke:#373737;stroke-width:0.25;stroke-miterlimit:10;}
	.st4{fill:none;stroke:#000000;stroke-width:0.25;stroke-linejoin:round;stroke-miterlimit:10;}
	.st5{font-family:'SourceSansPro-Regular';}
	.st6{font-size:10px;}
	.st7{font-family:'CrimsonText-Roman';}
	.st8{font-size:15px;}
	.st9{font-family:'CrimsonText-Italic';}
	.st10{opacity:0.2;fill:#373737;}
	.st11{font-family:'SourceSansPro-Light';}
	.st12{font-size:12px;}
	.st13{font-family:'SourceSansPro-Bold';}
</style>
<text transform="matrix(1 0 0 1 546.36 -407.5542)" class="st1 st7 st8">Overall</text>
<text transform="matrix(1 0 0 1 589.66 -407.5542)" class="st7 st8" style="fill:#A478D6;"> </text>
<text transform="matrix(1 0 0 1 593.06 -407.5542)" class="st1 st9 st8">sex distribution</text>
<g>
	<text transform="matrix(1 0 0 1 -213.64 -407.5542)" class="st1 st7 st8">Overall </text>
	<text transform="matrix(1 0 0 1 -166.94 -407.5542)" class="st1 st9 st8">weight distribution</text>
	<g>
		<g>
			<text transform="matrix(1 0 0 1 -213.3519 -346.7329)" class="st1 st5" style="font-size:18px;">9548</text>
		</g>
		<text transform="matrix(1 0 0 1 -213.3519 -298.568)" class="st1 st11 st12">reports</text>
		<text transform="matrix(1 0 0 1 -213.3519 -284.568)" class="st1 st11 st12">with </text>
		<text transform="matrix(1 0 0 1 -186.9519 -284.568)" class="st1 st5 st12">weight</text>
	</g>
</g>
<text transform="matrix(1 0 0 1 166.36 -407.5542)" class="st1 st7 st8">Overall</text>
<text transform="matrix(1 0 0 1 209.66 -407.5542)" class="st7 st8" style="fill:#A478D6;"> </text>
<text transform="matrix(1 0 0 1 213.06 -407.5542)" class="st1 st9 st8">age distribution</text>
<g>
	<text transform="matrix(1 0 0 1 166.445 -347.7329)" class="st1 st5" style="font-size:18px;">969</text>
	<g>
		<text transform="matrix(1 0 0 1 166.445 -298.568)" class="st1 st11 st12">reports</text>
		<text transform="matrix(1 0 0 1 166.445 -284.568)" class="st1 st11 st12">with </text>
		<text transform="matrix(1 0 0 1 192.845 -284.568)" class="st1 st5 st12">age</text>
	</g>
</g>
<g>
	<text transform="matrix(1 0 0 1 546.36 -347.7329)" class="st1 st5" style="font-size:18px;">9683</text>
</g>
<g>
	<text transform="matrix(1 0 0 1 546.36 -298.568)" class="st1 st11 st12">reports</text>
	<text transform="matrix(1 0 0 1 546.36 -284.568)" class="st1 st11 st12">with</text>
	<text transform="matrix(1 0 0 1 569.76 -284.568)" class="st1 st5 st12"> sex</text>
</g>
<text transform="matrix(1 0 0 1 637.8141 -319.5994)" class="st1 st5" style="font-size:11px;">male 8348</text>
<g>
	<text transform="matrix(1 0 0 1 628.0465 -300.5719)" class="st1 st5" style="font-size:11px;">female 1335</text>
</g>
<g>
	<g>
		<g>
			<rect x="546.4" y="-325" class="st1" width="61.8" height="6"/>
		</g>
	</g>
</g>
<rect x="608.2" y="-325" class="st2" width="4.3" height="6"/>
<g>
	<line class="st3" x1="-105.8" y1="-295.2" x2="140.4" y2="-295.2"/>
</g>
<g>
	<g>
		<text transform="matrix(1 0 0 1 -107.3651 -284.4324)" class="st1 st5" style="font-size:8px;">1 </text>
	</g>
</g>
<g>
	<g>
		<text transform="matrix(1 0 0 1 -87.4129 -284.4324)" class="st1 st5" style="font-size:8px;">18 </text>
	</g>
</g>
<g>
	<g>
		<text transform="matrix(1 0 0 1 -65.787 -284.4324)" class="st1 st5" style="font-size:8px;">35 </text>
	</g>
</g>
<g>
	<g>
		<text transform="matrix(1 0 0 1 -43.3651 -284.4324)" class="st1 st5" style="font-size:8px;">52 </text>
	</g>
</g>
<g>
	<g>
		<text transform="matrix(1 0 0 1 -21.3417 -284.4324)" class="st1 st5" style="font-size:8px;">69 </text>
	</g>
</g>
<g>
	<g>
		<text transform="matrix(1 0 0 1 0.6823 -284.4324)" class="st1 st5" style="font-size:8px;">86 </text>
	</g>
</g>
<g>
	<g>
		<text transform="matrix(1 0 0 1 20.3693 -284.4324)" class="st1 st5" style="font-size:8px;">103 </text>
	</g>
</g>
<g>
	<g>
		<text transform="matrix(1 0 0 1 42.3932 -284.4324)" class="st1 st5" style="font-size:8px;">120 </text>
	</g>
</g>
<g>
	<g>
		<text transform="matrix(1 0 0 1 64.4171 -284.4324)" class="st1 st5" style="font-size:8px;">137 </text>
	</g>
</g>
<g>
	<g>
		<text transform="matrix(1 0 0 1 86.4406 -284.4324)" class="st1 st5" style="font-size:8px;">154 </text>
	</g>
</g>
<g>
	<g>
		<text transform="matrix(1 0 0 1 108.4645 -284.4324)" class="st1 st5" style="font-size:8px;">171 </text>
	</g>
</g>
<g>
	<g>
		<text transform="matrix(1 0 0 1 130.4884 -284.4324)" class="st1 st5" style="font-size:8px;">188 </text>
	</g>
</g>
<g>
	<line class="st3" x1="265.1" y1="-295.6" x2="520" y2="-295.6"/>
</g>
<g>
	<g>
		<text transform="matrix(1 0 0 1 263.1647 -284.7633)" class="st1 st5" style="font-size:8px;">14 </text>
	</g>
</g>
<g>
	<g>
		<text transform="matrix(1 0 0 1 301.6266 -284.7633)" class="st1 st5" style="font-size:8px;">22 </text>
	</g>
</g>
<g>
	<g>
		<text transform="matrix(1 0 0 1 340.0885 -284.7633)" class="st1 st5" style="font-size:8px;">30 </text>
	</g>
</g>
<g>
	<g>
		<text transform="matrix(1 0 0 1 378.5504 -284.7633)" class="st1 st5" style="font-size:8px;">38 </text>
	</g>
</g>
<g>
	<g>
		<text transform="matrix(1 0 0 1 417.0118 -284.7633)" class="st1 st5" style="font-size:8px;">46 </text>
	</g>
</g>
<g>
	<g>
		<text transform="matrix(1 0 0 1 455.4738 -284.7633)" class="st1 st5" style="font-size:8px;">54 </text>
	</g>
</g>
<g>
	<g>
		<text transform="matrix(1 0 0 1 493.9357 -284.7633)" class="st1 st5" style="font-size:8px;">62 </text>
	</g>
</g>
<rect x="-152.8" y="-324.8" class="st2" width="5.3" height="5.6"/>
<rect x="-213.6" y="-324.8" class="st1" width="60.9" height="5.6"/>
<g>
	<g>
		<g>
			<g>
				<rect x="166.4" y="-325.5" class="st1" width="6.1" height="6"/>
			</g>
		</g>
	</g>
</g>
<rect x="172.6" y="-325.5" class="st2" width="59.4" height="6"/>
<g>
	<g>
		<g>
			<g>
				<path class="st1" d="M852.9-319H697.5v-6h155.4V-319z M722-300.5h-24.5v-6H722V-300.5z"/>
			</g>
		</g>
	</g>
</g>
<g>
	<path class="st4" d="M-111.1-353.3h2.7 M-111.1-325.3h2.7 M-111.1-297.7h2.7"/>
</g>
<g>
	<g>
		<text transform="matrix(1 0 0 1 -119.7616 -294.5037)" class="st1 st5" style="font-size:8px;">0 </text>
	</g>
</g>
<g>
	<g>
		<text transform="matrix(1 0 0 1 -128.66 -322.2908)" class="st1 st5" style="font-size:8px;">500 </text>
	</g>
</g>
<g>
	<g>
		<text transform="matrix(1 0 0 1 -133.1092 -350.0768)" class="st1 st5" style="font-size:8px;">1000 </text>
	</g>
</g>
<g>
	<g>
		<path class="st1" d="M139.2-299.5h1v0.6h-1V-299.5z M133.2-299.5h1v0.6h-1V-299.5z M129.2-299.5h1v0.6h-1V-299.5z M112.2-299.5h1
			v0.6h-1V-299.5z M108.2-299.5h1v0.6h-1V-299.5z M105.2-299.5h1v0.6h-1V-299.5z M100.2-299.5h1v0.6h-1V-299.5z M95.2-299.5h1v0.6
			h-1V-299.5z M94.2-299.5h1v0.6h-1V-299.5z M89.2-299.5h1v0.6h-1V-299.5z M84.2-299.5h1v0.6h-1V-299.5z M83.2-299.5h1v0.6h-1
			V-299.5z M78.2-299.5h1v0.6h-1V-299.5z M72.2-299.5h1v0.6h-1V-299.5z M70.2-299.5h1v0.6h-1V-299.5z M69.2-299.5h1v0.6h-1V-299.5z
			 M67.2-299.5h1v0.6h-1V-299.5z M64.2-299.5h1v0.6h-1V-299.5z M63.2-299.5h1v0.6h-1V-299.5z M62.2-299.5h1v0.6h-1V-299.5z
			 M60.2-299.5h1v0.6h-1V-299.5z M59.2-299.5h1v0.6h-1V-299.5z M58.2-299.5h1v0.6h-1V-299.5z M54.2-300.5h1v1.6h-1V-300.5z
			 M53.2-299.5h1v0.6h-1V-299.5z M52.2-299.5h1v0.6h-1V-299.5z M50.2-299.5h1v0.6h-1V-299.5z M49.2-300.5h1v1.6h-1V-300.5z
			 M48.2-299.5h1v0.6h-1V-299.5z M47.2-299.5h1v0.6h-1V-299.5z M45.2-299.5h1v0.6h-1V-299.5z M44.2-299.5h1v0.6h-1V-299.5z
			 M43.2-303.5h1v4.6h-1V-303.5z M42.2-299.5h1v0.6h-1V-299.5z M40.2-299.5h1v0.6h-1V-299.5z M39.2-299.5h1v0.6h-1V-299.5z
			 M38.2-302.5h1v3.6h-1V-302.5z M37.2-299.5h1v0.6h-1V-299.5z M35.2-300.5h1v1.6h-1V-300.5z M33.2-299.5h1v0.6h-1V-299.5z
			 M32.2-303.5h1v4.6h-1V-303.5z M30.2-299.5h1v0.6h-1V-299.5z M29.2-302.5h1v3.6h-1V-302.5z M27.2-306.5h1v7.6h-1V-306.5z
			 M25.2-299.5h1v0.6h-1V-299.5z M24.2-300.5h1v1.6h-1V-300.5z M23.2-299.5h1v0.6h-1V-299.5z M22.2-299.5h1v0.6h-1V-299.5z
			 M20.2-306.5h1v7.6h-1V-306.5z M19.2-299.5h1v0.6h-1V-299.5z M18.2-300.5h1v1.6h-1V-300.5z M17.2-299.5h1v0.6h-1V-299.5z
			 M15.2-318.5h1v19.6h-1V-318.5z M14.2-301.5h1v2.6h-1V-301.5z M13.2-299.5h1v0.6h-1V-299.5z M12.2-304.5h1v5.6h-1V-304.5z
			 M10.2-299.5h1v0.6h-1V-299.5z M9.2-312.5h1v13.6h-1V-312.5z M8.2-301.5h1v2.6h-1V-301.5z M7.2-311.5h1v12.6h-1V-311.5z
			 M5.2-300.5h1v1.6h-1V-300.5z M4.2-322.5h1v23.6h-1V-322.5z M3.2-299.5h1v0.6h-1V-299.5z M2.2-303.5h1v4.6h-1V-303.5z M0.2-317.5
			h1v18.6h-1V-317.5z M-0.8-300.5h1v1.6h-1V-300.5z M-1.8-324.5h1v25.6h-1V-324.5z M-2.8-301.5h1v2.6h-1V-301.5z M-4.8-324.5h1v25.6
			h-1V-324.5z M-5.8-300.5h1v1.6h-1V-300.5z M-6.8-331.5h1v32.6h-1V-331.5z M-7.8-301.5h1v2.6h-1V-301.5z M-9.8-300.5h1v1.6h-1
			V-300.5z M-10.8-328.5h1v29.6h-1V-328.5z M-11.8-300.5h1v1.6h-1V-300.5z M-12.8-343.5h1v44.6h-1V-343.5z M-14.8-301.5h1v2.6h-1
			V-301.5z M-15.8-322.5h1v23.6h-1V-322.5z M-16.8-305.5h1v6.6h-1V-305.5z M-17.8-331.5h1v32.6h-1V-331.5z M-19.8-301.5h1v2.6h-1
			V-301.5z M-20.8-300.5h1v1.6h-1V-300.5z M-21.8-323.5h1v24.6h-1V-323.5z M-22.8-304.5h1v5.6h-1V-304.5z M-24.8-323.5h1v24.6h-1
			V-323.5z M-25.8-302.5h1v3.6h-1V-302.5z M-26.8-317.5h1v18.6h-1V-317.5z M-27.8-301.5h1v2.6h-1V-301.5z M-29.8-302.5h1v3.6h-1
			V-302.5z M-30.8-316.5h1v17.6h-1V-316.5z M-31.8-300.5h1v1.6h-1V-300.5z M-32.8-306.5h1v7.6h-1V-306.5z M-34.8-300.5h1v1.6h-1
			V-300.5z M-35.8-307.5h1v8.6h-1V-307.5z M-36.8-300.5h1v1.6h-1V-300.5z M-37.8-302.5h1v3.6h-1V-302.5z M-38.8-299.5h1v0.6h-1
			V-299.5z M-40.8-299.5h1v0.6h-1V-299.5z M-41.8-301.5h1v2.6h-1V-301.5z M-42.8-299.5h1v0.6h-1V-299.5z M-43.8-300.5h1v1.6h-1
			V-300.5z M-45.8-299.5h1v0.6h-1V-299.5z M-46.8-299.5h1v0.6h-1V-299.5z M-47.8-299.5h1v0.6h-1V-299.5z M-48.8-299.5h1v0.6h-1
			V-299.5z M-52.8-299.5h1v0.6h-1V-299.5z M-55.8-299.5h1v0.6h-1V-299.5z M-57.8-299.5h1v0.6h-1V-299.5z M-58.8-299.5h1v0.6h-1
			V-299.5z M-61.8-299.5h1v0.6h-1V-299.5z M-63.8-299.5h1v0.6h-1V-299.5z M-68.8-299.5h1v0.6h-1V-299.5z M-72.8-299.5h1v0.6h-1
			V-299.5z M-77.8-299.5h1v0.6h-1V-299.5z M-78.8-299.5h1v0.6h-1V-299.5z M-80.8-299.5h1v0.6h-1V-299.5z M-81.8-299.5h1v0.6h-1
			V-299.5z M-82.8-299.5h1v0.6h-1V-299.5z M-83.8-300.5h1v1.6h-1V-300.5z M-85.8-299.5h1v0.6h-1V-299.5z M-86.8-299.5h1v0.6h-1
			V-299.5z M-87.8-299.5h1v0.6h-1V-299.5z M-90.8-299.5h1v0.6h-1V-299.5z M-91.8-299.5h1v0.6h-1V-299.5z M-92.8-299.5h1v0.6h-1
			V-299.5z M-95.8-299.5h1v0.6h-1V-299.5z"/>
	</g>
</g>
<g>
	<path class="st1" d="M518-299.5h2v0.6h-2V-299.5z M513-299.5h2v0.6h-2V-299.5z M481-299.5h2v0.6h-2V-299.5z M457.5-299.5h2v0.6h-2
		V-299.5z M453-299.5h2v0.6h-2V-299.5z M448-299.5h2v0.6h-2V-299.5z M444-299.5h2v0.6h-2V-299.5z M434-300.5h2v1.6h-2V-300.5z
		 M430-299.5h2v0.6h-2V-299.5z M420-299.5h2v0.6h-2V-299.5z M416-301.5h2v2.6h-2V-301.5z M411-300.5h2v1.6h-2V-300.5z M406.5-301.5
		h2v2.6h-2V-301.5z M402-300.5h2v1.6h-2V-300.5z M397-301.5h2v2.6h-2V-301.5z M393-300.5h2v1.6h-2V-300.5z M388-301.5h2v2.6h-2
		V-301.5z M383-300.5h2v1.6h-2V-300.5z M379-301.5h2v2.6h-2V-301.5z M374-302.5h2v3.6h-2V-302.5z M369-301.5h2v2.6h-2V-301.5z
		 M365-301.5h2v2.6h-2V-301.5z M360-303.5h2v4.6h-2V-303.5z M355.5-304.5h2v5.6h-2V-304.5z M351-308.5h2v9.6h-2V-308.5z M346-303.5
		h2v4.6h-2V-303.5z M341.5-306.5h2v7.6h-2V-306.5z M337-308.5h2v9.6h-2V-308.5z M332-312.5h2v13.6h-2V-312.5z M328-312.5h2v13.6h-2
		V-312.5z M323-313.5h2v14.6h-2V-313.5z M318-317.5h2v18.6h-2V-317.5z M314-323.5h2v24.6h-2V-323.5z M309-325.5h2v26.6h-2V-325.5z
		 M304-343.5h2v44.6h-2V-343.5z M300-342.5h2v43.6h-2V-342.5z M295-347.5h2v48.6h-2V-347.5z M290.5-318.5h2v19.6h-2V-318.5z
		 M286-308.5h2v9.6h-2V-308.5z M281-304.5h2v5.6h-2V-304.5z M276.5-302.5h2v3.6h-2V-302.5z"/>
</g>
<g>
	<path class="st4" d="M263.2-353.3h2 M263.2-334.3h2 M263.2-316.3h2 M263.2-297.7h2"/>
</g>
<g>
	<g>
		<text transform="matrix(1 0 0 1 254.0587 -294.5065)" class="st1 st5" style="font-size:8px;">0 </text>
	</g>
</g>
<g>
	<g>
		<text transform="matrix(1 0 0 1 249.6095 -313.0309)" class="st1 st5" style="font-size:8px;">50 </text>
	</g>
</g>
<g>
	<g>
		<text transform="matrix(1 0 0 1 245.1603 -331.5553)" class="st1 st5" style="font-size:8px;">100 </text>
	</g>
</g>
<g>
	<g>
		<text transform="matrix(1 0 0 1 245.1603 -350.0797)" class="st1 st5" style="font-size:8px;">150 </text>
	</g>
</g>
<g>
	<g>
		<text transform="matrix(1 0 0 1 695.4781 -284.4324)" class="st1 st5" style="font-size:8px;">0 </text>
	</g>
</g>
<g>
	<g>
		<text transform="matrix(1 0 0 1 726.6588 -284.4324)" class="st1 st5" style="font-size:8px;">2000 </text>
	</g>
</g>
<g>
	<g>
		<text transform="matrix(1 0 0 1 763.8405 -284.4324)" class="st1 st5" style="font-size:8px;">4000 </text>
	</g>
</g>
<g>
	<g>
		<text transform="matrix(1 0 0 1 801.0221 -284.4324)" class="st1 st5" style="font-size:8px;">6000 </text>
	</g>
</g>
<g>
	<g>
		<text transform="matrix(1 0 0 1 838.2037 -284.4324)" class="st1 st5" style="font-size:8px;">8000 </text>
	</g>
</g>
<g>
	<g>
		<text transform="matrix(1 0 0 1 873.3854 -284.4324)" class="st1 st5" style="font-size:8px;">10000 </text>
	</g>
</g>
<g>
	<g>
		<g>
			<g>
				<g>
					<path class="st1" d="M768.3,487H591.5v-4.7h176.8V487z M619.4,501.6h-27.9v-4.7h27.9V501.6z"/>
				</g>
			</g>
		</g>
	</g>
	<g>
		<g>
			<text transform="matrix(1 0 0 1 589.9354 514.162)" class="st1 st5 st6">0 </text>
		</g>
	</g>
	<g>
		<g>
			<text transform="matrix(1 0 0 1 628.5563 514.162)" class="st1 st5 st6">2000 </text>
		</g>
	</g>
	<g>
		<g>
			<text transform="matrix(1 0 0 1 671.8638 514.162)" class="st1 st5 st6">4000 </text>
		</g>
	</g>
	<g>
		<g>
			<text transform="matrix(1 0 0 1 715.1702 514.162)" class="st1 st5 st6">6000 </text>
		</g>
	</g>
	<g>
		<g>
			<text transform="matrix(1 0 0 1 758.4776 514.162)" class="st1 st5 st6">8000 </text>
		</g>
	</g>
	<g>
		<g>
			<text transform="matrix(1 0 0 1 800.2222 514.162)" class="st1 st5 st6">10000 </text>
		</g>
	</g>
</g>
<g>
	<g>
		<g>
			<line class="st3" x1="354.1" y1="504.4" x2="554.4" y2="504.4"/>
		</g>
		<g>
			<g>
				<text transform="matrix(1 0 0 1 352.5965 513.913)" class="st1 st5 st6">14 </text>
			</g>
		</g>
		<g>
			<g>
				<text transform="matrix(1 0 0 1 443.2561 513.913)" class="st1 st5 st6">38 </text>
			</g>
		</g>
		<g>
			<g>
				<text transform="matrix(1 0 0 1 533.9168 513.913)" class="st1 st5 st6">62 </text>
			</g>
		</g>
		<g>
			<path class="st1" d="M552.9,501.4h1.6v0.5h-1.6V501.4z M548.9,501.4h1.6v0.5h-1.6V501.4z M523.8,501.4h1.6v0.5h-1.6V501.4z
				 M505.3,501.4h1.6v0.5h-1.6V501.4z M501.8,501.4h1.6v0.5h-1.6V501.4z M497.9,501.4h1.6v0.5h-1.6V501.4z M494.7,501.4h1.6v0.5
				h-1.6V501.4z M486.9,500.6h1.6v1.2h-1.6V500.6z M483.7,501.4h1.6v0.5h-1.6V501.4z M475.9,501.4h1.6v0.5h-1.6V501.4z M472.7,499.8
				h1.6v2h-1.6V499.8z M468.8,500.6h1.6v1.2h-1.6V500.6z M465.3,499.8h1.6v2h-1.6V499.8z M461.7,500.6h1.6v1.2h-1.6V500.6z
				 M457.8,499.8h1.6v2h-1.6V499.8z M454.6,500.6h1.6v1.2h-1.6V500.6z M450.7,499.8h1.6v2h-1.6V499.8z M446.8,500.6h1.6v1.2h-1.6
				V500.6z M443.6,499.8h1.6v2h-1.6V499.8z M439.7,499h1.6v2.8h-1.6V499z M435.8,499.8h1.6v2h-1.6V499.8z M432.6,499.8h1.6v2h-1.6
				V499.8z M428.7,498.2h1.6v3.6h-1.6V498.2z M425.2,497.4h1.6v4.4h-1.6V497.4z M421.6,494.3h1.6v7.5h-1.6V494.3z M417.7,498.2h1.6
				v3.6h-1.6V498.2z M414.2,495.9h1.6v6h-1.6V495.9z M410.6,494.3h1.6v7.5h-1.6V494.3z M406.7,491.1h1.6v10.7h-1.6V491.1z
				 M403.6,491.1h1.6v10.7h-1.6V491.1z M399.6,490.4h1.6v11.5h-1.6V490.4z M395.7,487.2h1.6v14.6h-1.6V487.2z M392.6,482.5h1.6v19.3
				h-1.6V482.5z M388.6,480.9h1.6v20.9h-1.6V480.9z M384.7,466.8h1.6v35h-1.6V466.8z M381.6,467.6h1.6v34.2h-1.6V467.6z
				 M377.6,463.6h1.6v38.2h-1.6V463.6z M374.1,486.4h1.6v15.4h-1.6V486.4z M370.6,494.3h1.6v7.5h-1.6V494.3z M366.6,497.4h1.6v4.4
				h-1.6V497.4z M363.1,499h1.6v2.8h-1.6V499z"/>
		</g>
		<g>
			<path class="st4" d="M352.6,459.1h1.6 M352.6,474h1.6 M352.6,488.1h1.6 M352.6,502.7h1.6"/>
		</g>
		<g>
			<g>
				<text transform="matrix(1 0 0 1 341.4417 505.2577)" class="st1 st5 st6">0 </text>
			</g>
		</g>
		<g>
			<g>
				<text transform="matrix(1 0 0 1 334.45 461.5937)" class="st1 st5 st6">150 </text>
			</g>
		</g>
	</g>
</g>
<g>
	<g>
		<g>
			<line class="st3" x1="102.5" y1="503.6" x2="295.9" y2="503.6"/>
		</g>
		<g>
			<g>
				<text transform="matrix(1 0 0 1 101.2274 514.213)" class="st1 st5 st6">1 </text>
			</g>
		</g>
		<g>
			<g>
				<text transform="matrix(1 0 0 1 186.1225 514.213)" class="st1 st5 st6">86 </text>
			</g>
		</g>
		<g>
			<g>
				<text transform="matrix(1 0 0 1 288.1122 514.213)" class="st1 st5 st6">188 </text>
			</g>
		</g>
		<g>
			<path class="st4" d="M98.3,458h2.1 M98.3,480h2.1 M98.3,501.7h2.1"/>
		</g>
		<g>
			<g>
				<text transform="matrix(1 0 0 1 87.4872 504.1999)" class="st1 st5 st6">0 </text>
			</g>
		</g>
		<g>
			<g>
				<text transform="matrix(1 0 0 1 76.9999 460.5349)" class="st1 st5 st6">1000 </text>
			</g>
		</g>
		<g>
			<g>
				<path class="st1" d="M294.9,500.2h0.8v0.5h-0.8V500.2z M290.2,500.2h0.8v0.5h-0.8V500.2z M287.1,500.2h0.8v0.5h-0.8V500.2z
					 M273.7,500.2h0.8v0.5h-0.8V500.2z M270.6,500.2h0.8v0.5h-0.8V500.2z M268.2,500.2h0.8v0.5h-0.8V500.2z M264.3,500.2h0.8v0.5
					h-0.8V500.2z M260.4,500.2h0.8v0.5h-0.8V500.2z M259.6,500.2h0.8v0.5h-0.8V500.2z M255.7,500.2h0.8v0.5h-0.8V500.2z
					 M251.7,500.2h0.8v0.5h-0.8V500.2z M250.9,500.2h0.8v0.5h-0.8V500.2z M247,500.2h0.8v0.5H247V500.2z M242.3,500.2h0.8v0.5h-0.8
					V500.2z M240.7,500.2h0.8v0.5h-0.8V500.2z M239.9,500.2h0.8v0.5h-0.8V500.2z M238.4,500.2h0.8v0.5h-0.8V500.2z M236,500.2h0.8
					v0.5H236V500.2z M235.2,500.2h0.8v0.5h-0.8V500.2z M234.4,500.2h0.8v0.5h-0.8V500.2z M232.9,500.2h0.8v0.5h-0.8V500.2z
					 M232.1,500.2h0.8v0.5h-0.8V500.2z M231.3,500.2h0.8v0.5h-0.8V500.2z M228.2,499.4h0.8v1.2h-0.8V499.4z M227.4,500.2h0.8v0.5
					h-0.8V500.2z M226.6,500.2h0.8v0.5h-0.8V500.2z M225,500.2h0.8v0.5H225V500.2z M224.2,499.4h0.8v1.2h-0.8V499.4z M223.4,500.2
					h0.8v0.5h-0.8V500.2z M222.7,500.2h0.8v0.5h-0.8V500.2z M221.1,500.2h0.8v0.5h-0.8V500.2z M220.3,500.2h0.8v0.5h-0.8V500.2z
					 M219.5,497.1h0.8v3.6h-0.8V497.1z M218.7,500.2h0.8v0.5h-0.8V500.2z M217.2,500.2h0.8v0.5h-0.8V500.2z M216.4,500.2h0.8v0.5
					h-0.8V500.2z M215.6,497.9h0.8v2.8h-0.8V497.9z M214.8,500.2h0.8v0.5h-0.8V500.2z M213.2,499.4h0.8v1.2h-0.8V499.4z
					 M211.7,500.2h0.8v0.5h-0.8V500.2z M210.9,497.1h0.8v3.6h-0.8V497.1z M209.3,500.2h0.8v0.5h-0.8V500.2z M208.5,497.9h0.8v2.8
					h-0.8V497.9z M206.9,494.7h0.8v6h-0.8V494.7z M205.4,500.2h0.8v0.5h-0.8V500.2z M204.6,499.4h0.8v1.2h-0.8V499.4z M203.8,500.2
					h0.8v0.5h-0.8V500.2z M203,500.2h0.8v0.5H203V500.2z M201.4,494.7h0.8v6h-0.8V494.7z M200.7,500.2h0.8v0.5h-0.8V500.2z
					 M199.9,499.4h0.8v1.2h-0.8V499.4z M199.1,500.2h0.8v0.5h-0.8V500.2z M197.5,485.3h0.8v15.4h-0.8V485.3z M196.7,498.7h0.8v2
					h-0.8V498.7z M195.9,500.2h0.8v0.5h-0.8V500.2z M195.2,496.3h0.8v4.4h-0.8V496.3z M193.6,500.2h0.8v0.5h-0.8V500.2z M192.8,490
					h0.8v10.7h-0.8V490z M192,498.7h0.8v2H192V498.7z M191.2,490.8h0.8v9.9h-0.8V490.8z M189.7,499.4h0.8v1.2h-0.8V499.4z
					 M188.9,482.2h0.8v18.5h-0.8V482.2z M188.1,500.2h0.8v0.5h-0.8V500.2z M187.3,497.1h0.8v3.6h-0.8V497.1z M185.7,486.1h0.8v14.6
					h-0.8V486.1z M184.9,499.4h0.8v1.2h-0.8V499.4z M184.2,480.6h0.8v20.1h-0.8V480.6z M183.4,498.7h0.8v2h-0.8V498.7z M181.8,480.6
					h0.8v20.1h-0.8V480.6z M181,499.4h0.8v1.2H181V499.4z M180.2,475.1h0.8v25.6h-0.8V475.1z M179.4,498.7h0.8v2h-0.8V498.7z
					 M177.9,499.4h0.8v1.2h-0.8V499.4z M177.1,477.4h0.8v23.2h-0.8V477.4z M176.3,499.4h0.8v1.2h-0.8V499.4z M175.5,465.7h0.8v35
					h-0.8V465.7z M173.9,498.7h0.8v2h-0.8V498.7z M173.2,482.2h0.8v18.5h-0.8V482.2z M172.4,495.5h0.8v5.2h-0.8V495.5z M171.6,475.1
					h0.8v25.6h-0.8V475.1z M170,498.7h0.8v2H170V498.7z M169.2,499.4h0.8v1.2h-0.8V499.4z M168.4,481.4h0.8v19.3h-0.8V481.4z
					 M167.7,496.3h0.8v4.4h-0.8V496.3z M166.1,481.4h0.8v19.3h-0.8V481.4z M165.3,497.9h0.8v2.8h-0.8V497.9z M164.5,486.1h0.8v14.6
					h-0.8V486.1z M163.7,498.7h0.8v2h-0.8V498.7z M162.2,497.9h0.8v2.8h-0.8V497.9z M161.4,486.9h0.8v13.8h-0.8V486.9z M160.6,499.4
					h0.8v1.2h-0.8V499.4z M159.8,494.7h0.8v6h-0.8V494.7z M158.2,499.4h0.8v1.2h-0.8V499.4z M157.4,493.9h0.8v6.7h-0.8V493.9z
					 M156.7,499.4h0.8v1.2h-0.8V499.4z M155.9,497.9h0.8v2.8h-0.8V497.9z M155.1,500.2h0.8v0.5h-0.8V500.2z M153.5,500.2h0.8v0.5
					h-0.8V500.2z M152.7,498.7h0.8v2h-0.8V498.7z M151.9,500.2h0.8v0.5h-0.8V500.2z M151.2,499.4h0.8v1.2h-0.8V499.4z M149.6,500.2
					h0.8v0.5h-0.8V500.2z M148.8,500.2h0.8v0.5h-0.8V500.2z M148,500.2h0.8v0.5H148V500.2z M147.2,500.2h0.8v0.5h-0.8V500.2z
					 M144.1,500.2h0.8v0.5h-0.8V500.2z M141.7,500.2h0.8v0.5h-0.8V500.2z M140.2,500.2h0.8v0.5h-0.8V500.2z M139.4,500.2h0.8v0.5
					h-0.8V500.2z M137,500.2h0.8v0.5H137V500.2z M135.4,500.2h0.8v0.5h-0.8V500.2z M131.5,500.2h0.8v0.5h-0.8V500.2z M128.4,500.2
					h0.8v0.5h-0.8V500.2z M124.4,500.2h0.8v0.5h-0.8V500.2z M123.7,500.2h0.8v0.5h-0.8V500.2z M122.1,500.2h0.8v0.5h-0.8V500.2z
					 M121.3,500.2h0.8v0.5h-0.8V500.2z M120.5,500.2h0.8v0.5h-0.8V500.2z M119.7,499.4h0.8v1.2h-0.8V499.4z M118.2,500.2h0.8v0.5
					h-0.8V500.2z M117.4,500.2h0.8v0.5h-0.8V500.2z M116.6,500.2h0.8v0.5h-0.8V500.2z M114.2,500.2h0.8v0.5h-0.8V500.2z
					 M113.4,500.2h0.8v0.5h-0.8V500.2z M112.7,500.2h0.8v0.5h-0.8V500.2z M110.3,500.2h0.8v0.5h-0.8V500.2z"/>
			</g>
		</g>
	</g>
</g>
<g>
	<g>
		<text transform="matrix(1 0 0 1 77.3044 387.4739)"><tspan x="0" y="0" class="st1 st7 st8">9548 reports with </tspan><tspan x="107.7" y="0" class="st1 st9 st8">weight</tspan></text>
	</g>
	<g>
		<rect x="288.4" y="381.8" class="st10" width="4.4" height="5.6"/>
		<rect x="238.1" y="381.8" class="st1" width="50.3" height="5.6"/>
	</g>
	<g>
		<text transform="matrix(1 0 0 1 77.3044 410.9775)"><tspan x="0" y="0" class="st1 st11 st12">average weight </tspan><tspan x="84.9" y="0" class="st1 st13 st12">72 kg</tspan></text>
	</g>
</g>
<g>
	<g>
		<text transform="matrix(1 0 0 1 334.2002 387.4739)"><tspan x="0" y="0" class="st1 st7 st8">969 reports with </tspan><tspan x="100.6" y="0" class="st1 st9 st8">age</tspan></text>
	</g>
	<g>
		<g>
			<g>
				<g>
					<g>
						<rect x="494.2" y="381.6" class="st1" width="5.1" height="6"/>
					</g>
				</g>
			</g>
		</g>
		<rect x="499.4" y="381.6" class="st10" width="49.6" height="6"/>
	</g>
	<g>
		<text transform="matrix(1 0 0 1 334.6668 410.9779)"><tspan x="0" y="0" class="st1 st11 st12">average age </tspan><tspan x="68" y="0" class="st1 st13 st12">23 years</tspan></text>
	</g>
</g>
<g>
	<g>
		<text transform="matrix(1 0 0 1 591.3334 387.4739)"><tspan x="0" y="0" class="st1 st7 st8">9683 reports with </tspan><tspan x="107.7" y="0" class="st1 st9 st8">sex</tspan></text>
	</g>
	<g>
		<g>
			<g>
				<g>
					<rect x="741" y="381.5" class="st1" width="61.8" height="6"/>
				</g>
			</g>
		</g>
		<rect x="802.9" y="381.5" class="st10" width="4.3" height="6"/>
	</g>
	<g>
		<text transform="matrix(1 0 0 1 591.3336 410.9775)"><tspan x="0" y="0" class="st1 st13 st12">8348</tspan><tspan x="27.7" y="0" class="st1 st11 st12"> males </tspan><tspan x="66" y="0" class="st1 st13 st12">1335 </tspan><tspan x="96.8" y="0" class="st1 st11 st12">females</tspan></text>
	</g>
</g>
</svg>
