<?xml version="1.0" encoding="utf-8"?>
<!-- Generator: Adobe Illustrator 19.1.0, SVG Export Plug-In . SVG Version: 6.00 Build 0)  -->

<svg version="1.1" id="Layer_1" xmlns="http://www.w3.org/2000/svg" xmlns:xlink="http://www.w3.org/1999/xlink" x="0px" y="0px"
	 viewBox="77 362.9 750 158.2" enable-background="new 77 362.9 750 158.2" xml:space="preserve">

	 <defs>
  <style type="text/css">@import url(https://fonts.googleapis.com/css?family=Crimson+Text);</style>
  <style type="text/css">@import url(https://fonts.googleapis.com/css?family=Source+Sans+Pro:300,400,700);</style>
</defs>


<g>
	<g>
		<g>
			<g>
				<g>
					<path fill="#373737" d="M768.3,487H591.5v-4.7h176.8V487z M619.4,501.6h-27.9v-4.7h27.9V501.6z"/>
				</g>
			</g>
		</g>
	</g>
	<g>
		<g>
			<text transform="matrix(1 0 0 1 589.9354 514.162)" fill="#373737" font-family="'Source Sans Pro', sans-serif" font-weight="400" font-size="10px">0 </text>
		</g>
	</g>
	<g>
		<g>
			<text transform="matrix(1 0 0 1 628.5563 514.162)" fill="#373737" font-family="'Source Sans Pro', sans-serif" font-weight="400" font-size="10px">2000 </text>
		</g>
	</g>
	<g>
		<g>
			<text transform="matrix(1 0 0 1 671.8638 514.162)" fill="#373737" font-family="'Source Sans Pro', sans-serif" font-weight="400" font-size="10px">4000 </text>
		</g>
	</g>
	<g>
		<g>
			<text transform="matrix(1 0 0 1 715.1702 514.162)" fill="#373737" font-family="'Source Sans Pro', sans-serif" font-weight="400" font-size="10px">6000 </text>
		</g>
	</g>
	<g>
		<g>
			<text transform="matrix(1 0 0 1 758.4776 514.162)" fill="#373737" font-family="'Source Sans Pro', sans-serif" font-weight="400" font-size="10px">8000 </text>
		</g>
	</g>
	<g>
		<g>
			<text transform="matrix(1 0 0 1 800.2222 514.162)" fill="#373737" font-family="'Source Sans Pro', sans-serif" font-weight="400" font-size="10px">10000 </text>
		</g>
	</g>
</g>
<g>
	<g>
		<g>
			<line fill="none" stroke="#373737" stroke-width="0.25" stroke-miterlimit="10" x1="354.1" y1="504.4" x2="554.4" y2="504.4"/>
		</g>
		<g>
			<g>
				<text transform="matrix(1 0 0 1 352.5965 513.913)" fill="#373737" font-family="'Source Sans Pro', sans-serif" font-weight="400" font-size="10px">14 </text>
			</g>
		</g>
		<g>
			<g>
				<text transform="matrix(1 0 0 1 443.2561 513.913)" fill="#373737" font-family="'Source Sans Pro', sans-serif" font-weight="400" font-size="10px">38 </text>
			</g>
		</g>
		<g>
			<g>
				<text transform="matrix(1 0 0 1 533.9168 513.913)" fill="#373737" font-family="'Source Sans Pro', sans-serif" font-weight="400" font-size="10px">62 </text>
			</g>
		</g>
		<g>
			<path fill="#373737" d="M552.9,501.4h1.6v0.5h-1.6V501.4z M548.9,501.4h1.6v0.5h-1.6V501.4z M523.8,501.4h1.6v0.5h-1.6V501.4z
				 M505.3,501.4h1.6v0.5h-1.6V501.4z M501.8,501.4h1.6v0.5h-1.6V501.4z M497.9,501.4h1.6v0.5h-1.6V501.4z M494.7,501.4h1.6v0.5
				h-1.6V501.4z M486.9,500.6h1.6v1.2h-1.6V500.6z M483.7,501.4h1.6v0.5h-1.6V501.4z M475.9,501.4h1.6v0.5h-1.6V501.4z M472.7,499.8
				h1.6v2h-1.6V499.8z M468.8,500.6h1.6v1.2h-1.6V500.6z M465.3,499.8h1.6v2h-1.6V499.8z M461.7,500.6h1.6v1.2h-1.6V500.6z
				 M457.8,499.8h1.6v2h-1.6V499.8z M454.6,500.6h1.6v1.2h-1.6V500.6z M450.7,499.8h1.6v2h-1.6V499.8z M446.8,500.6h1.6v1.2h-1.6
				V500.6z M443.6,499.8h1.6v2h-1.6V499.8z M439.7,499h1.6v2.8h-1.6V499z M435.8,499.8h1.6v2h-1.6V499.8z M432.6,499.8h1.6v2h-1.6
				V499.8z M428.7,498.2h1.6v3.6h-1.6V498.2z M425.2,497.4h1.6v4.4h-1.6V497.4z M421.6,494.3h1.6v7.5h-1.6V494.3z M417.7,498.2h1.6
				v3.6h-1.6V498.2z M414.2,495.9h1.6v6h-1.6V495.9z M410.6,494.3h1.6v7.5h-1.6V494.3z M406.7,491.1h1.6v10.7h-1.6V491.1z
				 M403.6,491.1h1.6v10.7h-1.6V491.1z M399.6,490.4h1.6v11.5h-1.6V490.4z M395.7,487.2h1.6v14.6h-1.6V487.2z M392.6,482.5h1.6v19.3
				h-1.6V482.5z M388.6,480.9h1.6v20.9h-1.6V480.9z M384.7,466.8h1.6v35h-1.6V466.8z M381.6,467.6h1.6v34.2h-1.6V467.6z
				 M377.6,463.6h1.6v38.2h-1.6V463.6z M374.1,486.4h1.6v15.4h-1.6V486.4z M370.6,494.3h1.6v7.5h-1.6V494.3z M366.6,497.4h1.6v4.4
				h-1.6V497.4z M363.1,499h1.6v2.8h-1.6V499z"/>
		</g>
		<g>
			<path fill="none" stroke="#000000" stroke-width="0.25" stroke-linejoin="round" stroke-miterlimit="10" d="M352.6,459.1h1.6
				 M352.6,474h1.6 M352.6,488.1h1.6 M352.6,502.7h1.6"/>
		</g>
		<g>
			<g>
				<text transform="matrix(1 0 0 1 341.4417 505.2577)" fill="#373737" font-family="'Source Sans Pro', sans-serif" font-weight="400" font-size="10px">0 </text>
			</g>
		</g>
		<g>
			<g>
				<text transform="matrix(1 0 0 1 334.45 461.5937)" fill="#373737" font-family="'Source Sans Pro', sans-serif" font-weight="400" font-size="10px">150 </text>
			</g>
		</g>
	</g>
</g>
<g>
	<g>
		<g>
			<line fill="none" stroke="#373737" stroke-width="0.25" stroke-miterlimit="10" x1="102.5" y1="503.6" x2="295.9" y2="503.6"/>
		</g>
		<g>
			<g>
				<text transform="matrix(1 0 0 1 101.2274 514.213)" fill="#373737" font-family="'Source Sans Pro', sans-serif" font-weight="400" font-size="10px">1 </text>
			</g>
		</g>
		<g>
			<g>
				<text transform="matrix(1 0 0 1 186.1225 514.213)" fill="#373737" font-family="'Source Sans Pro', sans-serif" font-weight="400" font-size="10px">86 </text>
			</g>
		</g>
		<g>
			<g>
				<text transform="matrix(1 0 0 1 288.1122 514.213)" fill="#373737" font-family="'Source Sans Pro', sans-serif" font-weight="400" font-size="10px">188 </text>
			</g>
		</g>
		<g>
			<path fill="none" stroke="#000000" stroke-width="0.25" stroke-linejoin="round" stroke-miterlimit="10" d="M98.3,458h2.1
				 M98.3,480h2.1 M98.3,501.7h2.1"/>
		</g>
		<g>
			<g>
				<text transform="matrix(1 0 0 1 87.4872 504.1999)" fill="#373737" font-family="'Source Sans Pro', sans-serif" font-weight="400" font-size="10px">0 </text>
			</g>
		</g>
		<g>
			<g>
				<text transform="matrix(1 0 0 1 76.9999 460.5349)" fill="#373737" font-family="'Source Sans Pro', sans-serif" font-weight="400" font-size="10px">1000 </text>
			</g>
		</g>
		<g>
			<g>
				<path fill="#373737" d="M294.9,500.2h0.8v0.5h-0.8V500.2z M290.2,500.2h0.8v0.5h-0.8V500.2z M287.1,500.2h0.8v0.5h-0.8V500.2z
					 M273.7,500.2h0.8v0.5h-0.8V500.2z M270.6,500.2h0.8v0.5h-0.8V500.2z M268.2,500.2h0.8v0.5h-0.8V500.2z M264.3,500.2h0.8v0.5
					h-0.8V500.2z M260.4,500.2h0.8v0.5h-0.8V500.2z M259.6,500.2h0.8v0.5h-0.8V500.2z M255.7,500.2h0.8v0.5h-0.8V500.2z
					 M251.7,500.2h0.8v0.5h-0.8V500.2z M250.9,500.2h0.8v0.5h-0.8V500.2z M247,500.2h0.8v0.5H247V500.2z M242.3,500.2h0.8v0.5h-0.8
					V500.2z M240.7,500.2h0.8v0.5h-0.8V500.2z M239.9,500.2h0.8v0.5h-0.8V500.2z M238.4,500.2h0.8v0.5h-0.8V500.2z M236,500.2h0.8
					v0.5H236V500.2z M235.2,500.2h0.8v0.5h-0.8V500.2z M234.4,500.2h0.8v0.5h-0.8V500.2z M232.9,500.2h0.8v0.5h-0.8V500.2z
					 M232.1,500.2h0.8v0.5h-0.8V500.2z M231.3,500.2h0.8v0.5h-0.8V500.2z M228.2,499.4h0.8v1.2h-0.8V499.4z M227.4,500.2h0.8v0.5
					h-0.8V500.2z M226.6,500.2h0.8v0.5h-0.8V500.2z M225,500.2h0.8v0.5H225V500.2z M224.2,499.4h0.8v1.2h-0.8V499.4z M223.4,500.2
					h0.8v0.5h-0.8V500.2z M222.7,500.2h0.8v0.5h-0.8V500.2z M221.1,500.2h0.8v0.5h-0.8V500.2z M220.3,500.2h0.8v0.5h-0.8V500.2z
					 M219.5,497.1h0.8v3.6h-0.8V497.1z M218.7,500.2h0.8v0.5h-0.8V500.2z M217.2,500.2h0.8v0.5h-0.8V500.2z M216.4,500.2h0.8v0.5
					h-0.8V500.2z M215.6,497.9h0.8v2.8h-0.8V497.9z M214.8,500.2h0.8v0.5h-0.8V500.2z M213.2,499.4h0.8v1.2h-0.8V499.4z
					 M211.7,500.2h0.8v0.5h-0.8V500.2z M210.9,497.1h0.8v3.6h-0.8V497.1z M209.3,500.2h0.8v0.5h-0.8V500.2z M208.5,497.9h0.8v2.8
					h-0.8V497.9z M206.9,494.7h0.8v6h-0.8V494.7z M205.4,500.2h0.8v0.5h-0.8V500.2z M204.6,499.4h0.8v1.2h-0.8V499.4z M203.8,500.2
					h0.8v0.5h-0.8V500.2z M203,500.2h0.8v0.5H203V500.2z M201.4,494.7h0.8v6h-0.8V494.7z M200.7,500.2h0.8v0.5h-0.8V500.2z
					 M199.9,499.4h0.8v1.2h-0.8V499.4z M199.1,500.2h0.8v0.5h-0.8V500.2z M197.5,485.3h0.8v15.4h-0.8V485.3z M196.7,498.7h0.8v2
					h-0.8V498.7z M195.9,500.2h0.8v0.5h-0.8V500.2z M195.2,496.3h0.8v4.4h-0.8V496.3z M193.6,500.2h0.8v0.5h-0.8V500.2z M192.8,490
					h0.8v10.7h-0.8V490z M192,498.7h0.8v2H192V498.7z M191.2,490.8h0.8v9.9h-0.8V490.8z M189.7,499.4h0.8v1.2h-0.8V499.4z
					 M188.9,482.2h0.8v18.5h-0.8V482.2z M188.1,500.2h0.8v0.5h-0.8V500.2z M187.3,497.1h0.8v3.6h-0.8V497.1z M185.7,486.1h0.8v14.6
					h-0.8V486.1z M184.9,499.4h0.8v1.2h-0.8V499.4z M184.2,480.6h0.8v20.1h-0.8V480.6z M183.4,498.7h0.8v2h-0.8V498.7z M181.8,480.6
					h0.8v20.1h-0.8V480.6z M181,499.4h0.8v1.2H181V499.4z M180.2,475.1h0.8v25.6h-0.8V475.1z M179.4,498.7h0.8v2h-0.8V498.7z
					 M177.9,499.4h0.8v1.2h-0.8V499.4z M177.1,477.4h0.8v23.2h-0.8V477.4z M176.3,499.4h0.8v1.2h-0.8V499.4z M175.5,465.7h0.8v35
					h-0.8V465.7z M173.9,498.7h0.8v2h-0.8V498.7z M173.2,482.2h0.8v18.5h-0.8V482.2z M172.4,495.5h0.8v5.2h-0.8V495.5z M171.6,475.1
					h0.8v25.6h-0.8V475.1z M170,498.7h0.8v2H170V498.7z M169.2,499.4h0.8v1.2h-0.8V499.4z M168.4,481.4h0.8v19.3h-0.8V481.4z
					 M167.7,496.3h0.8v4.4h-0.8V496.3z M166.1,481.4h0.8v19.3h-0.8V481.4z M165.3,497.9h0.8v2.8h-0.8V497.9z M164.5,486.1h0.8v14.6
					h-0.8V486.1z M163.7,498.7h0.8v2h-0.8V498.7z M162.2,497.9h0.8v2.8h-0.8V497.9z M161.4,486.9h0.8v13.8h-0.8V486.9z M160.6,499.4
					h0.8v1.2h-0.8V499.4z M159.8,494.7h0.8v6h-0.8V494.7z M158.2,499.4h0.8v1.2h-0.8V499.4z M157.4,493.9h0.8v6.7h-0.8V493.9z
					 M156.7,499.4h0.8v1.2h-0.8V499.4z M155.9,497.9h0.8v2.8h-0.8V497.9z M155.1,500.2h0.8v0.5h-0.8V500.2z M153.5,500.2h0.8v0.5
					h-0.8V500.2z M152.7,498.7h0.8v2h-0.8V498.7z M151.9,500.2h0.8v0.5h-0.8V500.2z M151.2,499.4h0.8v1.2h-0.8V499.4z M149.6,500.2
					h0.8v0.5h-0.8V500.2z M148.8,500.2h0.8v0.5h-0.8V500.2z M148,500.2h0.8v0.5H148V500.2z M147.2,500.2h0.8v0.5h-0.8V500.2z
					 M144.1,500.2h0.8v0.5h-0.8V500.2z M141.7,500.2h0.8v0.5h-0.8V500.2z M140.2,500.2h0.8v0.5h-0.8V500.2z M139.4,500.2h0.8v0.5
					h-0.8V500.2z M137,500.2h0.8v0.5H137V500.2z M135.4,500.2h0.8v0.5h-0.8V500.2z M131.5,500.2h0.8v0.5h-0.8V500.2z M128.4,500.2
					h0.8v0.5h-0.8V500.2z M124.4,500.2h0.8v0.5h-0.8V500.2z M123.7,500.2h0.8v0.5h-0.8V500.2z M122.1,500.2h0.8v0.5h-0.8V500.2z
					 M121.3,500.2h0.8v0.5h-0.8V500.2z M120.5,500.2h0.8v0.5h-0.8V500.2z M119.7,499.4h0.8v1.2h-0.8V499.4z M118.2,500.2h0.8v0.5
					h-0.8V500.2z M117.4,500.2h0.8v0.5h-0.8V500.2z M116.6,500.2h0.8v0.5h-0.8V500.2z M114.2,500.2h0.8v0.5h-0.8V500.2z
					 M113.4,500.2h0.8v0.5h-0.8V500.2z M112.7,500.2h0.8v0.5h-0.8V500.2z M110.3,500.2h0.8v0.5h-0.8V500.2z"/>
			</g>
		</g>
	</g>
</g>
<g>
	<g>
		<text transform="matrix(1 0 0 1 77.3044 387.4739)"><tspan x="0" y="0" fill="#373737" font-family="'Crimson Text', serif" font-size="15px">9548 reports with </tspan><tspan x="107.2" y="0" fill="#373737" font-family="'Crimson Text', serif"  font-style="italic" font-size="15px">weight</tspan></text>
	</g>
	<g>
		<rect x="288.4" y="381.8" opacity="0.2" fill="#373737" width="4.4" height="5.6"/>
		<rect x="238.1" y="381.8" fill="#373737" width="50.3" height="5.6"/>
	</g>
	<g>
		<text transform="matrix(1 0 0 1 77.3044 410.9775)"><tspan x="0" y="0" fill="#373737" font-family="'Source Sans Pro', sans-serif" font-weight="300"  font-size="12px">average weight </tspan><tspan x="84.7" y="0" fill="#373737" font-family="'Source Sans Pro', sans-serif" font-weight="700" font-size="12px">72 kg</tspan></text>
	</g>
</g>
<g>
	<g>
		<text transform="matrix(1 0 0 1 334.2002 387.4739)"><tspan x="0" y="0" fill="#373737" font-family="'Crimson Text', serif" font-size="15px">969 reports with </tspan><tspan x="100.5" y="0" fill="#373737" font-family="'Crimson Text', serif"  font-style="italic" font-size="15px">age</tspan></text>
	</g>
	<g>
		<g>
			<g>
				<g>
					<g>
						<rect x="494.2" y="381.6" fill="#373737" width="5.1" height="6"/>
					</g>
				</g>
			</g>
		</g>
		<rect x="499.4" y="381.6" opacity="0.2" fill="#373737" width="49.6" height="6"/>
	</g>
	<g>
		<text transform="matrix(1 0 0 1 334.6668 410.9779)"><tspan x="0" y="0" fill="#373737" font-family="'Source Sans Pro', sans-serif" font-weight="300"  font-size="12px">average age </tspan><tspan x="67.8" y="0" fill="#373737" font-family="'Source Sans Pro', sans-serif" font-weight="700" font-size="12px">23 years</tspan></text>
	</g>
</g>
<g>
	<g>
		<text transform="matrix(1 0 0 1 591.3334 387.4739)"><tspan x="0" y="0" fill="#373737" font-family="'Crimson Text', serif" font-size="15px">9683 reports with </tspan><tspan x="108.2" y="0" fill="#373737" font-family="'Crimson Text', serif"  font-style="italic" font-size="15px">sex</tspan></text>
	</g>
	<g>
		<g>
			<g>
				<g>
					<rect x="741" y="381.5" fill="#373737" width="61.8" height="6"/>
				</g>
			</g>
		</g>
		<rect x="802.9" y="381.5" opacity="0.2" fill="#373737" width="4.3" height="6"/>
	</g>
	<g>
		<text transform="matrix(1 0 0 1 591.3336 410.9775)"><tspan x="0" y="0" fill="#373737" font-family="'Source Sans Pro', sans-serif" font-weight="700" font-size="12px">8348</tspan><tspan x="27.7" y="0" fill="#373737" font-family="'Source Sans Pro', sans-serif" font-weight="300"  font-size="12px"> males </tspan><tspan x="65.9" y="0" fill="#373737" font-family="'Source Sans Pro', sans-serif" font-weight="700" font-size="12px">1335 </tspan><tspan x="96.6" y="0" fill="#373737" font-family="'Source Sans Pro', sans-serif" font-weight="300"  font-size="12px">females</tspan></text>
	</g>
</g>
</svg>
