<svg id="Layer_1" data-name="Layer 1" xmlns="http://www.w3.org/2000/svg" viewBox="0 0 750.09 141.96"><title>small-overall_NEW</title><path d="M691.13,107.8H514.33v-4.7h176.8v4.7Zm-148.9,34.6h-27.9v-4.7h27.9v4.7Z" transform="translate(0 -16.24)" fill="#373737"/><text transform="translate(512.94 138.68)" font-size="10" fill="#373737" font-family="Source Sans Pro" style="isolation:isolate">0 </text><text transform="translate(551.56 138.68)" font-size="10" fill="#373737" font-family="Source Sans Pro" style="isolation:isolate">2000 </text><text transform="translate(594.86 138.68)" font-size="10" fill="#373737" font-family="Source Sans Pro" style="isolation:isolate">4000 </text><text transform="translate(638.17 138.68)" font-size="10" fill="#373737" font-family="Source Sans Pro" style="isolation:isolate">6000 </text><text transform="translate(681.48 138.68)" font-size="10" fill="#373737" font-family="Source Sans Pro" style="isolation:isolate">8000 </text><text transform="translate(723.22 138.68)" font-size="10" fill="#373737" font-family="Source Sans Pro" style="isolation:isolate">10000 </text><line x1="277.1" y1="128.96" x2="477.4" y2="128.96" fill="none" stroke="#373737" stroke-miterlimit="10" stroke-width="0.25"/><text transform="translate(275.6 138.43)" font-size="10" fill="#373737" font-family="Source Sans Pro" style="isolation:isolate">14 </text><text transform="translate(366.26 138.43)" font-size="10" fill="#373737" font-family="Source Sans Pro" style="isolation:isolate">38 </text><text transform="translate(456.92 138.43)" font-size="10" fill="#373737" font-family="Source Sans Pro" style="isolation:isolate">62 </text><path d="M475.9,142.2h1.6v0.5h-1.6v-0.5Zm-4,0h1.6v0.5h-1.6v-0.5Zm-25.1,0h1.6v0.5h-1.6v-0.5Zm-18.5,0h1.6v0.5h-1.6v-0.5Zm-3.5,0h1.6v0.5h-1.6v-0.5Zm-3.9,0h1.6v0.5h-1.6v-0.5Zm-3.2,0h1.6v0.5h-1.6v-0.5Zm-7.8-.8h1.6v1.2h-1.6v-1.2Zm-3.2.8h1.6v0.5h-1.6v-0.5Zm-7.8,0h1.6v0.5h-1.6v-0.5Zm-3.2-1.6h1.6v2h-1.6v-2Zm-3.9.8h1.6v1.2h-1.6v-1.2Zm-3.5-.8h1.6v2h-1.6v-2Zm-3.6.8h1.6v1.2h-1.6v-1.2Zm-3.9-.8h1.6v2h-1.6v-2Zm-3.2.8h1.6v1.2h-1.6v-1.2Zm-3.9-.8h1.6v2h-1.6v-2Zm-3.9.8h1.6v1.2h-1.6v-1.2Zm-3.2-.8h1.6v2h-1.6v-2Zm-3.9-.8h1.6v2.8h-1.6v-2.8Zm-3.9.8h1.6v2h-1.6v-2Zm-3.2,0h1.6v2h-1.6v-2Zm-3.9-1.6h1.6v3.6h-1.6V139Zm-3.5-.8h1.6v4.4h-1.6v-4.4Zm-3.6-3.1h1.6v7.5h-1.6v-7.5Zm-3.9,3.9h1.6v3.6h-1.6V139Zm-3.5-2.3h1.6v6h-1.6v-6Zm-3.6-1.6h1.6v7.5h-1.6v-7.5Zm-3.9-3.2h1.6v10.7h-1.6V131.9Zm-3.1,0h1.6v10.7h-1.6V131.9Zm-4-.7h1.6v11.5h-1.6V131.2Zm-3.9-3.2h1.6v14.6h-1.6V128Zm-3.1-4.7h1.6v19.3h-1.6V123.3Zm-4-1.6h1.6v20.9h-1.6V121.7Zm-3.9-14.1h1.6v35h-1.6v-35Zm-3.1.8h1.6v34.2h-1.6V108.4Zm-4-4h1.6v38.2h-1.6V104.4Zm-3.5,22.8h1.6v15.4h-1.6V127.2Zm-3.5,7.9h1.6v7.5h-1.6v-7.5Zm-4,3.1h1.6v4.4h-1.6v-4.4Zm-3.5,1.6h1.6v2.8h-1.6v-2.8Z" transform="translate(0 -16.24)" fill="#373737"/><path d="M275.6,99.9h1.6m-1.6,14.9h1.6m-1.6,14.1h1.6m-1.6,14.6h1.6" transform="translate(0 -16.24)" fill="none" stroke="#000" stroke-linejoin="round" stroke-width="0.25"/><text transform="translate(264.44 129.77)" font-size="10" fill="#373737" font-family="Source Sans Pro" style="isolation:isolate">0 </text><text transform="translate(257.45 86.11)" font-size="10" fill="#373737" font-family="Source Sans Pro" style="isolation:isolate">150 </text><line x1="25.5" y1="128.16" x2="218.9" y2="128.16" fill="none" stroke="#373737" stroke-miterlimit="10" stroke-width="0.25"/><text transform="translate(24.23 138.73)" font-size="10" fill="#373737" font-family="Source Sans Pro" style="isolation:isolate">1 </text><text transform="translate(109.12 138.73)" font-size="10" fill="#373737" font-family="Source Sans Pro" style="isolation:isolate">86 </text><text transform="translate(211.11 138.73)" font-size="10" fill="#373737" font-family="Source Sans Pro" style="isolation:isolate">188 </text><path d="M21.3,98.8h2.1m-2.1,22h2.1m-2.1,21.7h2.1" transform="translate(0 -16.24)" fill="none" stroke="#000" stroke-linejoin="round" stroke-width="0.25"/><text transform="translate(10.49 128.72)" font-size="10" fill="#373737" font-family="Source Sans Pro" style="isolation:isolate">0 </text><text transform="translate(0 85.05)" font-size="10" fill="#373737" font-family="Source Sans Pro" style="isolation:isolate">1000 </text><path d="M217.9,141h0.8v0.5h-0.8V141Zm-4.7,0H214v0.5h-0.8V141Zm-3.1,0h0.8v0.5h-0.8V141Zm-13.4,0h0.8v0.5h-0.8V141Zm-3.1,0h0.8v0.5h-0.8V141Zm-2.4,0H192v0.5h-0.8V141Zm-3.9,0h0.8v0.5h-0.8V141Zm-3.9,0h0.8v0.5h-0.8V141Zm-0.8,0h0.8v0.5h-0.8V141Zm-3.9,0h0.8v0.5h-0.8V141Zm-4,0h0.8v0.5h-0.8V141Zm-0.8,0h0.8v0.5h-0.8V141Zm-3.9,0h0.8v0.5H170V141Zm-4.7,0h0.8v0.5h-0.8V141Zm-1.6,0h0.8v0.5h-0.8V141Zm-0.8,0h0.8v0.5h-0.8V141Zm-1.5,0h0.8v0.5h-0.8V141Zm-2.4,0h0.8v0.5H159V141Zm-0.8,0H159v0.5h-0.8V141Zm-0.8,0h0.8v0.5h-0.8V141Zm-1.5,0h0.8v0.5h-0.8V141Zm-0.8,0h0.8v0.5h-0.8V141Zm-0.8,0h0.8v0.5h-0.8V141Zm-3.1-.8H152v1.2h-0.8v-1.2Zm-0.8.8h0.8v0.5h-0.8V141Zm-0.8,0h0.8v0.5h-0.8V141Zm-1.6,0h0.8v0.5H148V141Zm-0.8-.8H148v1.2h-0.8v-1.2Zm-0.8.8h0.8v0.5h-0.8V141Zm-0.7,0h0.8v0.5h-0.8V141Zm-1.6,0h0.8v0.5h-0.8V141Zm-0.8,0h0.8v0.5h-0.8V141Zm-0.8-3.1h0.8v3.6h-0.8v-3.6Zm-0.8,3.1h0.8v0.5h-0.8V141Zm-1.5,0H141v0.5h-0.8V141Zm-0.8,0h0.8v0.5h-0.8V141Zm-0.8-2.3h0.8v2.8h-0.8v-2.8Zm-0.8,2.3h0.8v0.5h-0.8V141Zm-1.6-.8H137v1.2h-0.8v-1.2Zm-1.5.8h0.8v0.5h-0.8V141Zm-0.8-3.1h0.8v3.6h-0.8v-3.6Zm-1.6,3.1h0.8v0.5h-0.8V141Zm-0.8-2.3h0.8v2.8h-0.8v-2.8Zm-1.6-3.2h0.8v6h-0.8v-6Zm-1.5,5.5h0.8v0.5h-0.8V141Zm-0.8-.8h0.8v1.2h-0.8v-1.2Zm-0.8.8h0.8v0.5h-0.8V141Zm-0.8,0h0.8v0.5H126V141Zm-1.6-5.5h0.8v6h-0.8v-6Zm-0.7,5.5h0.8v0.5h-0.8V141Zm-0.8-.8h0.8v1.2h-0.8v-1.2Zm-0.8.8h0.8v0.5h-0.8V141Zm-1.6-14.9h0.8v15.4h-0.8V126.1Zm-0.8,13.4h0.8v2h-0.8v-2Zm-0.8,1.5h0.8v0.5h-0.8V141Zm-0.7-3.9H119v4.4h-0.8v-4.4Zm-1.6,3.9h0.8v0.5h-0.8V141Zm-0.8-10.2h0.8v10.7h-0.8V130.8Zm-0.8,8.7h0.8v2H115v-2Zm-0.8-7.9H115v9.9h-0.8v-9.9Zm-1.5,8.6h0.8v1.2h-0.8v-1.2ZM111.9,123h0.8v18.5h-0.8V123Zm-0.8,18h0.8v0.5h-0.8V141Zm-0.8-3.1h0.8v3.6h-0.8v-3.6Zm-1.6-11h0.8v14.6h-0.8V126.9Zm-0.8,13.3h0.8v1.2h-0.8v-1.2Zm-0.7-18.8H108v20.1h-0.8V121.4Zm-0.8,18.1h0.8v2h-0.8v-2Zm-1.6-18.1h0.8v20.1h-0.8V121.4ZM104,140.2h0.8v1.2H104v-1.2Zm-0.8-24.3H104v25.6h-0.8V115.9Zm-0.8,23.6h0.8v2h-0.8v-2Zm-1.5.7h0.8v1.2h-0.8v-1.2Zm-0.8-22h0.8v23.2h-0.8V118.2Zm-0.8,22h0.8v1.2H99.3v-1.2Zm-0.8-33.7h0.8v35H98.5v-35Zm-1.6,33h0.8v2H96.9v-2ZM96.2,123H97v18.5H96.2V123Zm-0.8,13.3h0.8v5.2H95.4v-5.2Zm-0.8-20.4h0.8v25.6H94.6V115.9ZM93,139.5h0.8v2H93v-2Zm-0.8.7H93v1.2H92.2v-1.2Zm-0.8-18h0.8v19.3H91.4V122.2Zm-0.7,14.9h0.8v4.4H90.7v-4.4Zm-1.6-14.9h0.8v19.3H89.1V122.2Zm-0.8,16.5h0.8v2.8H88.3v-2.8Zm-0.8-11.8h0.8v14.6H87.5V126.9Zm-0.8,12.6h0.8v2H86.7v-2Zm-1.5-.8H86v2.8H85.2v-2.8Zm-0.8-11h0.8v13.8H84.4V127.7Zm-0.8,12.5h0.8v1.2H83.6v-1.2Zm-0.8-4.7h0.8v6H82.8v-6Zm-1.6,4.7H82v1.2H81.2v-1.2Zm-0.8-5.5h0.8v6.7H80.4v-6.7Zm-0.7,5.5h0.8v1.2H79.7v-1.2Zm-0.8-1.5h0.8v2.8H78.9v-2.8ZM78.1,141h0.8v0.5H78.1V141Zm-1.6,0h0.8v0.5H76.5V141Zm-0.8-1.5h0.8v2H75.7v-2ZM74.9,141h0.8v0.5H74.9V141Zm-0.7-.8H75v1.2H74.2v-1.2Zm-1.6.8h0.8v0.5H72.6V141Zm-0.8,0h0.8v0.5H71.8V141ZM71,141h0.8v0.5H71V141Zm-0.8,0H71v0.5H70.2V141Zm-3.1,0h0.8v0.5H67.1V141Zm-2.4,0h0.8v0.5H64.7V141Zm-1.5,0H64v0.5H63.2V141Zm-0.8,0h0.8v0.5H62.4V141ZM60,141h0.8v0.5H60V141Zm-1.6,0h0.8v0.5H58.4V141Zm-3.9,0h0.8v0.5H54.5V141Zm-3.1,0h0.8v0.5H51.4V141Zm-4,0h0.8v0.5H47.4V141Zm-0.7,0h0.8v0.5H46.7V141Zm-1.6,0h0.8v0.5H45.1V141Zm-0.8,0h0.8v0.5H44.3V141Zm-0.8,0h0.8v0.5H43.5V141Zm-0.8-.8h0.8v1.2H42.7v-1.2Zm-1.5.8H42v0.5H41.2V141Zm-0.8,0h0.8v0.5H40.4V141Zm-0.8,0h0.8v0.5H39.6V141Zm-2.4,0H38v0.5H37.2V141Zm-0.8,0h0.8v0.5H36.4V141Zm-0.7,0h0.8v0.5H35.7V141Zm-2.4,0h0.8v0.5H33.3V141Z" transform="translate(0 -16.24)" fill="#373737"/><text transform="translate(0.3 11.99)" font-size="15" fill="#373737" font-family="Crimson Text" style="isolation:isolate">9548 reports with </text><text transform="translate(107.5 11.99)" font-size="15" fill="#373737" font-family="Crimson Text" font-style="italic" style="isolation:isolate">weight</text><rect x="211.4" y="6.36" width="4.4" height="5.6" fill="#373737" opacity="0.2" style="isolation:isolate"/><rect x="161.1" y="6.36" width="50.3" height="5.6" fill="#373737"/><text transform="translate(0.3 35.49)" font-size="12" fill="#373737" font-family="Source Sans Pro" style="isolation:isolate">ave<tspan x="16.99" y="0">r</tspan><tspan x="20.52" y="0">a</tspan><tspan x="26.51" y="0">g</tspan><tspan x="32.22" y="0">e weight </tspan></text><text transform="translate(85 35.49)" font-size="12" fill="#373737" font-family="Source Sans Pro" font-weight="700" style="isolation:isolate">72 <tspan x="15.17" y="0">k</tspan><tspan x="21.62" y="0">g</tspan></text><text transform="translate(257.2 11.99)" font-size="15" fill="#373737" font-family="Crimson Text" style="isolation:isolate">969 reports with </text><text transform="translate(357.7 11.99)" font-size="15" fill="#373737" font-family="Crimson Text" font-style="italic" style="isolation:isolate">age</text><rect x="417.2" y="6.16" width="5.1" height="6" fill="#373737"/><rect x="422.4" y="6.16" width="49.6" height="6" fill="#373737" opacity="0.2" style="isolation:isolate"/><text transform="translate(257.67 35.49)" font-size="12" fill="#373737" font-family="Source Sans Pro" style="isolation:isolate">ave<tspan x="16.99" y="0">r</tspan><tspan x="20.52" y="0">a</tspan><tspan x="26.51" y="0">g</tspan><tspan x="32.22" y="0">e a</tspan><tspan x="46.39" y="0">g</tspan><tspan x="52.1" y="0">e </tspan></text><text transform="translate(325.47 35.49)" font-size="12" fill="#373737" font-family="Source Sans Pro" font-weight="700" style="isolation:isolate">23 <tspan x="15.17" y="0">y</tspan><tspan x="21.32" y="0">e</tspan><tspan x="27.41" y="0">a</tspan><tspan x="33.82" y="0">r</tspan><tspan x="38.47" y="0">s</tspan></text><text transform="translate(514.33 11.99)" font-size="15" fill="#373737" font-family="Crimson Text" style="isolation:isolate">9683 reports with </text><text transform="translate(622.53 11.99)" font-size="15" fill="#373737" font-family="Crimson Text" font-style="italic" style="isolation:isolate">sex</text><rect x="664" y="6.06" width="61.8" height="6" fill="#373737"/><rect x="725.9" y="6.06" width="4.3" height="6" fill="#373737" opacity="0.2" style="isolation:isolate"/><text transform="translate(514.33 35.49)" font-size="12" fill="#373737" font-family="Source Sans Pro" font-weight="700" style="isolation:isolate">8348</text><text transform="translate(542.03 35.49)" font-size="12" fill="#373737" font-family="Source Sans Pro" style="isolation:isolate;white-space:pre"> males </text><text transform="translate(580.23 35.49)" font-size="12" fill="#373737" font-family="Source Sans Pro" font-weight="700" style="isolation:isolate">1335 </text><text transform="translate(610.93 35.49)" font-size="12" fill="#373737" font-family="Source Sans Pro" style="isolation:isolate">f<tspan x="3.04" y="0">emales</tspan></text><text transform="translate(514.33 79.56)" font-size="12" fill="#373737" font-family="Source Sans Pro" style="isolation:isolate">males </text><text transform="translate(514.33 114.96)" font-size="12" fill="#373737" font-family="Source Sans Pro" style="isolation:isolate">f<tspan x="3.04" y="0">emales</tspan></text></svg>