<?xml version="1.0" encoding="utf-8"?>
<!-- Generator: Adobe Illustrator 16.0.4, SVG Export Plug-In . SVG Version: 6.00 Build 0)  -->
<!DOCTYPE svg PUBLIC "-//W3C//DTD SVG 1.1//EN" "http://www.w3.org/Graphics/SVG/1.1/DTD/svg11.dtd">
<svg version="1.1"
	 id="Layer_1" xmlns:a3="http://ns.adobe.com/AdobeSVGViewerExtensions/3.0/" xmlns:text="http://xmlns.graougraou.com/svg/text/" a3:scriptImplementation="Adobe"
	 xmlns="http://www.w3.org/2000/svg" xmlns:xlink="http://www.w3.org/1999/xlink" x="0px" y="0px" width="1140px" height="308.5px"
	 viewBox="0 0 1140 308.5" enable-background="new 0 0 1140 308.5" xml:space="preserve">
<g>
	<text transform="matrix(1 0 0 1 0 70.0776)" fill="#FC1325" font-family="'CrimsonText-Roman'" font-size="97.2594">heart rate</text>
	<text transform="matrix(1 0 0 1 365.9575 37.6899)" fill="#FC1325" font-family="'CrimsonText-Roman'" font-size="56.7023">65 </text>
</g>
<g>
	<text transform="matrix(1 0 0 1 490.0757 67.5186)" fill="#FC1325" font-family="'CrimsonText-Roman'" font-size="59.8285">dry mouth</text>
	<text transform="matrix(1 0 0 1 737.2773 47.1475)" fill="#FC1325" font-family="'CrimsonText-Roman'" font-size="34.8801">42</text>
</g>
<g>
	<text transform="matrix(1 0 0 1 827.9629 65.4551)" fill="#FC1325" font-family="'CrimsonText-Roman'" font-size="44.1429">extended release</text>
	<text transform="matrix(1 0 0 1 1109.8916 50.3057)" fill="#FC1325" font-family="'CrimsonText-Roman'" font-size="25.7353">31 </text>
</g>
<g>
	<g>
		<text transform="matrix(1 0 0 1 0 130.0781)" fill="#FC1325" font-family="'CrimsonText-Roman'" font-size="33.6856">wide awake</text>
		<text transform="matrix(1 0 0 1 153.459 118.4121)" fill="#FC1325" font-family="'CrimsonText-Roman'" font-size="19.6388">25 </text>
	</g>
	<g>
		<text transform="matrix(1 0 0 1 204.584 129.3906)" fill="#FC1325" font-family="'CrimsonText-Roman'" font-size="28.4571">blood pressure</text>
		<text transform="matrix(1 0 0 1 367.4883 119.4648)" fill="#FC1325" font-family="'CrimsonText-Roman'" font-size="16.5905">20 </text>
	</g>
	<g>
		<text transform="matrix(1 0 0 1 415.0312 128.8906)" fill="#FC1325" font-family="'CrimsonText-Roman'" font-size="28.4571">stay awake</text>
		<text transform="matrix(1 0 0 1 534.1133 118.9648)" fill="#FC1325" font-family="'CrimsonText-Roman'" font-size="16.5905">20 </text>
	</g>
	<g>
		<text transform="matrix(1 0 0 1 581.6553 128.4395)" fill="#FC1325" font-family="'CrimsonText-Roman'" font-size="28.4571">heart attack</text>
		<text transform="matrix(1 0 0 1 711.7402 118.9648)" fill="#FC1325" font-family="'CrimsonText-Roman'" font-size="16.5905">19</text>
	</g>
	<g>
		<text transform="matrix(1 0 0 1 761.9375 128.4395)" fill="#FC1325" font-family="'CrimsonText-Roman'" font-size="28.4571">pay attention</text>
		<text transform="matrix(1 0 0 1 908.5859 118.9648)" fill="#FC1325" font-family="'CrimsonText-Roman'" font-size="16.5905">19 </text>
	</g>
	<g>
		<text transform="matrix(1 0 0 1 956.127 127.752)" fill="#FC1325" font-family="'CrimsonText-Roman'" font-size="23.2285">amphetamine salts</text>
		<text transform="matrix(1 0 0 1 1124.1699 120.0166)" fill="#FC1325" font-family="'CrimsonText-Roman'" font-size="13.5423">16 </text>
	</g>
</g>
<g>
	<g>
		<text transform="matrix(1 0 0 1 0 193.6387)" fill="#FC1325" font-family="'CrimsonText-Roman'" font-size="23.2285">higher doses</text>
		<text transform="matrix(1 0 0 1 113.3516 185.9033)" fill="#FC1325" font-family="'CrimsonText-Roman'" font-size="13.5423">16 </text>
	</g>
	<g>
		<text transform="matrix(1 0 0 1 199.4712 193.6387)" fill="#FC1325" font-family="'CrimsonText-Roman'" font-size="23.2285">heart beat</text>
		<text transform="matrix(1 0 0 1 289.5732 185.9033)" fill="#FC1325" font-family="'CrimsonText-Roman'" font-size="13.5423">15 </text>
	</g>
	<g>
		<text transform="matrix(1 0 0 1 375.7061 192.9492)" fill="#FC1325" font-family="'CrimsonText-Roman'" font-size="18">computer screen</text>
		<text transform="matrix(1 0 0 1 492.4756 186.957)" fill="#FC1325" font-family="'CrimsonText-Roman'" font-size="10.494">14 </text>
	</g>
	<g>
		<text transform="matrix(1 0 0 1 575.0117 192.9492)" fill="#FC1325" font-family="'CrimsonText-Roman'" font-size="18">amphetamine psychosis</text>
		<text transform="matrix(1 0 0 1 741.2637 186.957)" fill="#FC1325" font-family="'CrimsonText-Roman'" font-size="10.494">14 </text>
	</g>
	<g>
		<text transform="matrix(1 0 0 1 823.835 193.4941)" fill="#FC1325" font-family="'CrimsonText-Roman'" font-size="18">video games</text>
		<text transform="matrix(1 0 0 1 910.2129 186.3008)" fill="#FC1325" font-family="'CrimsonText-Roman'" font-size="12.5928">14 </text>
	</g>
	<g>
		<text transform="matrix(1 0 0 1 995.1973 195.9453)" fill="#FC1325" font-family="'CrimsonText-Roman'" font-size="18">prescribed adderall</text>
		<text transform="matrix(1 0 0 1 1127.7539 189.9531)" fill="#FC1325" font-family="'CrimsonText-Roman'" font-size="10.494">14 </text>
	</g>
</g>
<g>
	<g>
		<text transform="matrix(1 0 0 1 0 247.9492)" fill="#FC1325" font-family="'CrimsonText-Roman'" font-size="18">daily basis</text>
		<text transform="matrix(1 0 0 1 70.875 241.957)" fill="#FC1325" font-family="'CrimsonText-Roman'" font-size="10.494">13 </text>
	</g>
	<g>
		<text transform="matrix(1 0 0 1 130.3481 247.9492)" fill="#FC1325" font-family="'CrimsonText-Roman'" font-size="18">adderall makes</text>
		<text transform="matrix(1 0 0 1 233.8652 241.957)" fill="#FC1325" font-family="'CrimsonText-Roman'" font-size="10.494">13 </text>
	</g>
	<g>
		<text transform="matrix(1 0 0 1 293.3379 247.9492)" fill="#FC1325" font-family="'CrimsonText-Roman'" font-size="18">spring break</text>
		<text transform="matrix(1 0 0 1 381.1055 241.957)" fill="#FC1325" font-family="'CrimsonText-Roman'" font-size="10.494">13 </text>
	</g>
	<g>
		<text transform="matrix(1 0 0 1 440.5786 247.9492)" fill="#FC1325" font-family="'CrimsonText-Roman'" font-size="18">english class</text>
		<text transform="matrix(1 0 0 1 526.395 241.957)" fill="#FC1325" font-family="'CrimsonText-Roman'" font-size="10.494">13 </text>
	</g>
	<g>
		<text transform="matrix(1 0 0 1 585.8682 247.9492)" fill="#FC1325" font-family="'CrimsonText-Roman'" font-size="18">baking soda</text>
		<text transform="matrix(1 0 0 1 668.8721 241.957)" fill="#FC1325" font-family="'CrimsonText-Roman'" font-size="10.494">12 </text>
	</g>
	<g>
		<text transform="matrix(1 0 0 1 728.334 247.9492)" fill="#FC1325" font-family="'CrimsonText-Roman'" font-size="18">gas station</text>
		<text transform="matrix(1 0 0 1 802.4609 241.957)" fill="#FC1325" font-family="'CrimsonText-Roman'" font-size="10.494">12 </text>
	</g>
	<g>
		<text transform="matrix(1 0 0 1 861.9229 247.9492)" fill="#FC1325" font-family="'CrimsonText-Roman'" font-size="18">period class</text>
		<text transform="matrix(1 0 0 1 943.1855 241.957)" fill="#FC1325" font-family="'CrimsonText-Roman'" font-size="10.494">12 </text>
	</g>
	<g>
		<text transform="matrix(1 0 0 1 1002.6475 247.9492)" fill="#FC1325" font-family="'CrimsonText-Roman'" font-size="18">tingling sensation</text>
		<text transform="matrix(1 0 0 1 1127.7334 241.957)" fill="#FC1325" font-family="'CrimsonText-Roman'" font-size="10.494">12 </text>
	</g>
</g>
<g>
	<g>
		<text transform="matrix(1 0 0 1 821.2285 300.4492)" fill="#FC1325" font-family="'CrimsonText-Roman'" font-size="18">adderall prescription</text>
		<text transform="matrix(1 0 0 1 966.459 294.459)" fill="#FC1325" font-family="'CrimsonText-Roman'" font-size="10.494">11 </text>
	</g>
	<g>
		<text transform="matrix(1 0 0 1 1031.5107 300.4492)" fill="#FC1325" font-family="'CrimsonText-Roman'" font-size="18">jaw clenching</text>
		<text transform="matrix(1 0 0 1 1127.7334 294.459)" fill="#FC1325" font-family="'CrimsonText-Roman'" font-size="10.494">11 </text>
	</g>
	<g>
		<text transform="matrix(1 0 0 1 0 300.4492)" fill="#FC1325" font-family="'CrimsonText-Roman'" font-size="18">30mg adderall</text>
		<text transform="matrix(1 0 0 1 98.8594 294.459)" fill="#FC1325" font-family="'CrimsonText-Roman'" font-size="10.494">11 </text>
	</g>
	<g>
		<text transform="matrix(1 0 0 1 163.4727 300.4492)" fill="#FC1325" font-family="'CrimsonText-Roman'" font-size="18">mountain dew</text>
		<text transform="matrix(1 0 0 1 265.584 294.459)" fill="#FC1325" font-family="'CrimsonText-Roman'" font-size="10.494">11 </text>
	</g>
	<g>
		<text transform="matrix(1 0 0 1 330.1982 300.4492)" fill="#FC1325" font-family="'CrimsonText-Roman'" font-size="18">orange juice</text>
		<text transform="matrix(1 0 0 1 415.416 294.459)" fill="#FC1325" font-family="'CrimsonText-Roman'" font-size="10.494">11 </text>
	</g>
	<g>
		<text transform="matrix(1 0 0 1 480.0288 300.4492)" fill="#FC1325" font-family="'CrimsonText-Roman'" font-size="18">paying attention</text>
		<text transform="matrix(1 0 0 1 595.3945 294.459)" fill="#FC1325" font-family="'CrimsonText-Roman'" font-size="10.494">11 </text>
	</g>
	<g>
		<text transform="matrix(1 0 0 1 660.0068 300.4492)" fill="#FC1325" font-family="'CrimsonText-Roman'" font-size="18">cotton mouth</text>
		<text transform="matrix(1 0 0 1 756.6152 294.459)" fill="#FC1325" font-family="'CrimsonText-Roman'" font-size="10.494">11 </text>
	</g>
</g>
</svg>
