<svg version="1.0"
	 id="Layer_1" a3:scriptImplementation="Adobe" xmlns:text="http://xmlns.graougraou.com/svg/text/" xmlns:a3="http://ns.adobe.com/AdobeSVGViewerExtensions/3.0/"
	 xmlns="http://www.w3.org/2000/svg" xmlns:xlink="http://www.w3.org/1999/xlink" x="0px" y="0px" width="1140px" height="196px"
	 viewBox="0 0 1140 196" enable-background="new 0 0 1140 196" xml:space="preserve">

	<text transform="matrix(1 0 0 1 0 50.4961)" fill="#FC1325" font-family="'CrimsonText-Roman'" font-size="64.8396">heart rate</text>
<text transform="matrix(1 0 0 1 243.9717 28.9043)" fill="#FC1325" font-family="'CrimsonText-Roman'" font-size="37.8015">65 </text>
<text transform="matrix(1 0 0 1 311.5264 51.0439)" fill="#FC1325" font-family="'CrimsonText-Roman'" font-size="39.8857">dry mouth</text>
<text transform="matrix(1 0 0 1 476.3281 37.4629)" fill="#FC1325" font-family="'CrimsonText-Roman'" font-size="23.2534">42</text>
<text transform="matrix(1 0 0 1 530.5137 50.3105)" fill="#FC1325" font-family="'CrimsonText-Roman'" font-size="29.4286">extended release</text>
<text transform="matrix(1 0 0 1 718.4658 40.2109)" fill="#FC1325" font-family="'CrimsonText-Roman'" font-size="17.1569">31 </text>
<text transform="matrix(1 0 0 1 761.8672 50.8213)" fill="#FC1325" font-family="'CrimsonText-Roman'" font-size="22.4571">wide awake</text>
<text transform="matrix(1 0 0 1 864.1738 43.0439)" fill="#FC1325" font-family="'CrimsonText-Roman'" font-size="13.0925">25 </text>
<text transform="matrix(1 0 0 1 902.8213 50.5762)" fill="#FC1325" font-family="'CrimsonText-Roman'" font-size="18.9714">blood pressure</text>
<text transform="matrix(1 0 0 1 1011.4238 43.959)" fill="#FC1325" font-family="'CrimsonText-Roman'" font-size="11.0603">20 </text>
<text transform="matrix(1 0 0 1 1047.6836 50.0767)" fill="#FC1325" font-family="'CrimsonText-Roman'" font-size="18.9714">stay awake</text>
<text transform="matrix(1 0 0 1 1127.0713 43.459)" fill="#FC1325" font-family="'CrimsonText-Roman'" font-size="11.0603">20 </text>
<g>
	<text transform="matrix(1 0 0 1 0 90.585)" fill="#FC1325" font-family="'CrimsonText-Roman'" font-size="18.9714">heart attack</text>
	<text transform="matrix(1 0 0 1 86.7236 84.2686)" fill="#FC1325" font-family="'CrimsonText-Roman'" font-size="11.0603">19</text>
	<text transform="matrix(1 0 0 1 97.1792 90.585)" fill="#FC1325" font-family="'CrimsonText-Roman'" font-size="18.9714"> </text>
</g>
<text transform="matrix(1 0 0 1 136.3716 90.585)" fill="#FC1325" font-family="'CrimsonText-Roman'" font-size="18.9714">pay attention</text>
<text transform="matrix(1 0 0 1 234.1372 84.2686)" fill="#FC1325" font-family="'CrimsonText-Roman'" font-size="11.0603">19 </text>
<text transform="matrix(1 0 0 1 282.0151 90.3418)" fill="#FC1325" font-family="'CrimsonText-Roman'" font-size="15.4857">amphetamine salts</text>
<text transform="matrix(1 0 0 1 394.0439 85.1846)" fill="#FC1325" font-family="'CrimsonText-Roman'" font-size="9.0282">16 </text>
<text transform="matrix(1 0 0 1 439.5474 90.3418)" fill="#FC1325" font-family="'CrimsonText-Roman'" font-size="15.4857">higher doses</text>
<text transform="matrix(1 0 0 1 515.1152 85.1846)" fill="#FC1325" font-family="'CrimsonText-Roman'" font-size="9.0282">16 </text>
<text transform="matrix(1 0 0 1 560.6187 90.3418)" fill="#FC1325" font-family="'CrimsonText-Roman'" font-size="15.4857">heart beat</text>
<text transform="matrix(1 0 0 1 620.6865 85.1846)" fill="#FC1325" font-family="'CrimsonText-Roman'" font-size="9.0282">15 </text>
<text transform="matrix(1 0 0 1 666.1982 90.0957)" fill="#FC1325" font-family="'CrimsonText-Roman'" font-size="12">computer screen</text>
<text transform="matrix(1 0 0 1 744.0449 86.1006)" fill="#FC1325" font-family="'CrimsonText-Roman'" font-size="6.996">14 </text>
<text transform="matrix(1 0 0 1 787.1592 90.0957)" fill="#FC1325" font-family="'CrimsonText-Roman'" font-size="12">amphetamine psychosis</text>
<text transform="matrix(1 0 0 1 897.9941 86.1006)" fill="#FC1325" font-family="'CrimsonText-Roman'" font-size="6.996">14 </text>
<text transform="matrix(1 0 0 1 941.1318 90.1621)" fill="#FC1325" font-family="'CrimsonText-Roman'" font-size="12">video games</text>
<text transform="matrix(1 0 0 1 998.7168 85.3672)" fill="#FC1325" font-family="'CrimsonText-Roman'" font-size="8.3952">14 </text>
<text transform="matrix(1 0 0 1 1043.4648 90.0957)" fill="#FC1325" font-family="'CrimsonText-Roman'" font-size="12">prescribed adderall</text>
<text transform="matrix(1 0 0 1 1131.8359 86.1006)" fill="#FC1325" font-family="'CrimsonText-Roman'" font-size="6.996">14 </text>
<text transform="matrix(1 0 0 1 0 129.0957)" fill="#FC1325" font-family="'CrimsonText-Roman'" font-size="12">daily basis</text>
<text transform="matrix(1 0 0 1 47.25 125.1006)" fill="#FC1325" font-family="'CrimsonText-Roman'" font-size="6.996">13 </text>
<text transform="matrix(1 0 0 1 141.1841 129.0957)" fill="#FC1325" font-family="'CrimsonText-Roman'" font-size="12">adderall makes</text>
<text transform="matrix(1 0 0 1 210.1953 125.1006)" fill="#FC1325" font-family="'CrimsonText-Roman'" font-size="6.996">13 </text>
<text transform="matrix(1 0 0 1 304.1299 129.0957)" fill="#FC1325" font-family="'CrimsonText-Roman'" font-size="12">spring break</text>
<text transform="matrix(1 0 0 1 362.6416 125.1006)" fill="#FC1325" font-family="'CrimsonText-Roman'" font-size="6.996">13 </text>
<text transform="matrix(1 0 0 1 456.5757 129.0957)" fill="#FC1325" font-family="'CrimsonText-Roman'" font-size="12">english class</text>
<text transform="matrix(1 0 0 1 513.7866 125.1006)" fill="#FC1325" font-family="'CrimsonText-Roman'" font-size="6.996">13 </text>
<text transform="matrix(1 0 0 1 607.7197 129.0957)" fill="#FC1325" font-family="'CrimsonText-Roman'" font-size="12">baking soda</text>
<text transform="matrix(1 0 0 1 663.0557 125.1006)" fill="#FC1325" font-family="'CrimsonText-Roman'" font-size="6.996">12 </text>
<text transform="matrix(1 0 0 1 756.9834 129.0957)" fill="#FC1325" font-family="'CrimsonText-Roman'" font-size="12">gas station</text>
<text transform="matrix(1 0 0 1 806.4014 125.1006)" fill="#FC1325" font-family="'CrimsonText-Roman'" font-size="6.996">12 </text>
<text transform="matrix(1 0 0 1 900.3291 129.0957)" fill="#FC1325" font-family="'CrimsonText-Roman'" font-size="12">period class</text>
<text transform="matrix(1 0 0 1 954.5039 125.1006)" fill="#FC1325" font-family="'CrimsonText-Roman'" font-size="6.996">12 </text>
<text transform="matrix(1 0 0 1 1048.4316 129.0957)" fill="#FC1325" font-family="'CrimsonText-Roman'" font-size="12">tingling sensation</text>
<text transform="matrix(1 0 0 1 1131.8223 125.1006)" fill="#FC1325" font-family="'CrimsonText-Roman'" font-size="6.996">12 </text>
<text transform="matrix(1 0 0 1 864.1523 167.5957)" fill="#FC1325" font-family="'CrimsonText-Roman'" font-size="12">adderall prescription</text>
<text transform="matrix(1 0 0 1 960.9727 163.6016)" fill="#FC1325" font-family="'CrimsonText-Roman'" font-size="6.996">11 </text>
<text transform="matrix(1 0 0 1 1067.6738 167.5957)" fill="#FC1325" font-family="'CrimsonText-Roman'" font-size="12">jaw clenching</text>
<text transform="matrix(1 0 0 1 1131.8223 163.6016)" fill="#FC1325" font-family="'CrimsonText-Roman'" font-size="6.996">11 </text>
<text transform="matrix(1 0 0 1 0 167.5957)" fill="#FC1325" font-family="'CrimsonText-Roman'" font-size="12">30mg adderall</text>
<text transform="matrix(1 0 0 1 65.9062 163.6016)" fill="#FC1325" font-family="'CrimsonText-Roman'" font-size="6.996">11 </text>
<text transform="matrix(1 0 0 1 172.3149 167.5957)" fill="#FC1325" font-family="'CrimsonText-Roman'" font-size="12">mountain dew</text>
<text transform="matrix(1 0 0 1 240.3892 163.6016)" fill="#FC1325" font-family="'CrimsonText-Roman'" font-size="6.996">11 </text>
<text transform="matrix(1 0 0 1 346.7974 167.5957)" fill="#FC1325" font-family="'CrimsonText-Roman'" font-size="12">orange juice</text>
<text transform="matrix(1 0 0 1 403.6094 163.6016)" fill="#FC1325" font-family="'CrimsonText-Roman'" font-size="6.996">11 </text>
<text transform="matrix(1 0 0 1 510.0186 167.5957)" fill="#FC1325" font-family="'CrimsonText-Roman'" font-size="12">paying attention</text>
<text transform="matrix(1 0 0 1 586.9287 163.6016)" fill="#FC1325" font-family="'CrimsonText-Roman'" font-size="6.996">11 </text>
<text transform="matrix(1 0 0 1 693.3369 167.5957)" fill="#FC1325" font-family="'CrimsonText-Roman'" font-size="12">cotton mouth</text>
<text transform="matrix(1 0 0 1 757.7432 163.6016)" fill="#FC1325" font-family="'CrimsonText-Roman'" font-size="6.996">11 </text>
</svg>
