<?xml version="1.0" encoding="utf-8"?>
<!-- Generator: Adobe Illustrator 16.0.4, SVG Export Plug-In . SVG Version: 6.00 Build 0)  -->
<!DOCTYPE svg PUBLIC "-//W3C//DTD SVG 1.1//EN" "http://www.w3.org/Graphics/SVG/1.1/DTD/svg11.dtd">
<svg version="1.1"
	 id="Layer_1" xmlns:a3="http://ns.adobe.com/AdobeSVGViewerExtensions/3.0/" xmlns:text="http://xmlns.graougraou.com/svg/text/" a3:scriptImplementation="Adobe"
	 xmlns="http://www.w3.org/2000/svg" xmlns:xlink="http://www.w3.org/1999/xlink" x="0px" y="0px" width="1140px" height="372.75px"
	 viewBox="0 0 1140 372.75" enable-background="new 0 0 1140 372.75" xml:space="preserve">
<g>
	<g>
		<text transform="matrix(1 0 0 1 1.5439 51.2646)" fill="#FC1325" font-family="'CrimsonText-Roman'" font-size="63.399">jaw clenching</text>
		<text transform="matrix(1 0 0 1 340.4551 30.1523)" fill="#FC1325" font-family="'CrimsonText-Roman'" font-size="36.9616">25 </text>
	</g>
	<g>
		<text transform="matrix(1 0 0 1 398.5859 52)" fill="#FC1325" font-family="'CrimsonText-Roman'" font-size="53.9665">bird shaman</text>
		<text transform="matrix(1 0 0 1 659.5645 34.0293)" fill="#FC1325" font-family="'CrimsonText-Roman'" font-size="31.4625">22 </text>
	</g>
	<g>
		<text transform="matrix(1 0 0 1 720.2285 52.5996)" fill="#FC1325" font-family="'CrimsonText-Roman'" font-size="53.9665">research chemicals</text>
		<text transform="matrix(1 0 0 1 1112.2227 21.5146)" fill="#FC1325" font-family="'CrimsonText-Roman'" font-size="31.4625">21 </text>
	</g>
</g>
<g>
	<g>
		<text transform="matrix(1 0 0 1 0 133.0654)" fill="#FC1325" font-family="'CrimsonText-Roman'" font-size="54.6">gas station</text>
		<text transform="matrix(1 0 0 1 224.8525 109.4365)" fill="#FC1325" font-family="'CrimsonText-Roman'" font-size="31.8318">20 </text>
	</g>
	<g>
		<text transform="matrix(1 0 0 1 320.1021 133.0654)" fill="#FC1325" font-family="'CrimsonText-Roman'" font-size="44.1429">muscle tension</text>
		<text transform="matrix(1 0 0 1 576.9824 109.4365)" fill="#FC1325" font-family="'CrimsonText-Roman'" font-size="25.7354">15 </text>
	</g>
	<g>
		<text transform="matrix(1 0 0 1 665.1299 133.0518)" fill="#FC1325" font-family="'CrimsonText-Roman'" font-size="38.9143">orange juice</text>
		<text transform="matrix(1 0 0 1 849.3633 120.0947)" fill="#FC1325" font-family="'CrimsonText-Roman'" font-size="22.687">14 </text>
	</g>
	<g>
		<text transform="matrix(1 0 0 1 934.4785 133.0654)" fill="#FC1325" font-family="'CrimsonText-Roman'" font-size="33.6856">white powder</text>
		<text transform="matrix(1 0 0 1 1117.6426 121.8477)" fill="#FC1325" font-family="'CrimsonText-Roman'" font-size="19.6388">12 </text>
	</g>
</g>
<g>
	<g>
		<text transform="matrix(1 0 0 1 0 200.1875)" fill="#FC1325" font-family="'CrimsonText-Roman'" font-size="28.4571">blah blah</text>
		<text transform="matrix(1 0 0 1 101.0156 190.7119)" fill="#FC1325" font-family="'CrimsonText-Roman'" font-size="16.5905">10 </text>
	</g>
	<g>
		<text transform="matrix(1 0 0 1 182.5288 200.1885)" fill="#FC1325" font-family="'CrimsonText-Roman'" font-size="28.4571">higher doses</text>
		<text transform="matrix(1 0 0 1 321.395 190.7119)" fill="#FC1325" font-family="'CrimsonText-Roman'" font-size="16.5905">10 </text>
	</g>
	<g>
		<text transform="matrix(1 0 0 1 402.9082 199.9883)" fill="#FC1325" font-family="'CrimsonText-Roman'" font-size="28.4571">low doses</text>
		<text transform="matrix(1 0 0 1 510.7061 190.5117)" fill="#FC1325" font-family="'CrimsonText-Roman'" font-size="16.5905">9 </text>
	</g>
	<g>
		<text transform="matrix(1 0 0 1 584.377 200.5479)" fill="#FC1325" font-family="'CrimsonText-Roman'" font-size="23.2285">empathogenic qualities</text>
		<text transform="matrix(1 0 0 1 792.8213 192.8115)" fill="#FC1325" font-family="'CrimsonText-Roman'" font-size="13.5423">8 </text>
	</g>
	<g>
		<text transform="matrix(1 0 0 1 864.3701 200.5479)" fill="#FC1325" font-family="'CrimsonText-Roman'" font-size="23.2285">heart rate</text>
		<text transform="matrix(1 0 0 1 951.7715 192.8115)" fill="#FC1325" font-family="'CrimsonText-Roman'" font-size="13.5423">8 </text>
	</g>
	<g>
		<text transform="matrix(1 0 0 1 1023.3203 200.5479)" fill="#FC1325" font-family="'CrimsonText-Roman'" font-size="23.2285">motor skills</text>
		<text transform="matrix(1 0 0 1 1130.5703 192.8115)" fill="#FC1325" font-family="'CrimsonText-Roman'" font-size="13.5423">8 </text>
	</g>
</g>
<g>
	<g>
		<text transform="matrix(1 0 0 1 0 258.6768)" fill="#FC1325" font-family="'CrimsonText-Roman'" font-size="23.2285">paying attention</text>
		<text transform="matrix(1 0 0 1 148.875 250.9404)" fill="#FC1325" font-family="'CrimsonText-Roman'" font-size="13.5423">8 </text>
	</g>
	<g>
		<text transform="matrix(1 0 0 1 239.1367 258.6768)" fill="#FC1325" font-family="'CrimsonText-Roman'" font-size="23.2285">fully dilated</text>
		<text transform="matrix(1 0 0 1 345.3887 247.6064)" fill="#FC1325" font-family="'CrimsonText-Roman'" font-size="13.5423">7 </text>
	</g>
	<g>
		<text transform="matrix(1 0 0 1 435.6362 258.8096)" fill="#FC1325" font-family="'CrimsonText-Roman'" font-size="23.2285">holy shit</text>
		<text transform="matrix(1 0 0 1 513.8062 251.0732)" fill="#FC1325" font-family="'CrimsonText-Roman'" font-size="13.5423">7 </text>
	</g>
	<g>
		<text transform="matrix(1 0 0 1 604.0547 258.0312)" fill="#FC1325" font-family="'CrimsonText-Roman'" font-size="23.2285">chewing gum</text>
		<text transform="matrix(1 0 0 1 726.6621 250.2949)" fill="#FC1325" font-family="'CrimsonText-Roman'" font-size="13.5423">7 </text>
	</g>
	<g>
		<text transform="matrix(1 0 0 1 816.9092 258.251)" fill="#FC1325" font-family="'CrimsonText-Roman'" font-size="23.2285">lower doses</text>
		<text transform="matrix(1 0 0 1 923.2754 250.5156)" fill="#FC1325" font-family="'CrimsonText-Roman'" font-size="13.5423">7 </text>
	</g>
	<g>
		<text transform="matrix(1 0 0 1 1013.5234 258.251)" fill="#FC1325" font-family="'CrimsonText-Roman'" font-size="23.2285">nitrous oxide</text>
		<text transform="matrix(1 0 0 1 1133.6123 250.5156)" fill="#FC1325" font-family="'CrimsonText-Roman'" font-size="13.5423">7</text>
	</g>
</g>
<g>
	<g>
		<text transform="matrix(1 0 0 1 0.5669 312.4551)" fill="#FC1325" font-family="'CrimsonText-Roman'" font-size="23.2285">joshua tree</text>
		<text transform="matrix(1 0 0 1 99.4692 304.7188)" fill="#FC1325" font-family="'CrimsonText-Roman'" font-size="13.5423">7</text>
		<text transform="matrix(1 0 0 1 105.8569 312.4551)" fill="#FC1325" font-family="'CrimsonText-Roman'" font-size="23.2285"> </text>
	</g>
	<g>
		<text transform="matrix(1 0 0 1 190.4419 312.4551)" fill="#FC1325" font-family="'CrimsonText-Roman'" font-size="23.2285">blood pressure</text>
		<text transform="matrix(1 0 0 1 323.4165 304.7188)" fill="#FC1325" font-family="'CrimsonText-Roman'" font-size="13.5423">7</text>
		<text transform="matrix(1 0 0 1 329.8032 312.4551)" fill="#FC1325" font-family="'CrimsonText-Roman'" font-size="23.2285"> </text>
	</g>
	<g>
		<text transform="matrix(1 0 0 1 414.3877 313.1963)" fill="#FC1325" font-family="'CrimsonText-Roman'" font-size="18">coffee shop</text>
		<text transform="matrix(1 0 0 1 493.7705 307.2021)" fill="#FC1325" font-family="'CrimsonText-Roman'" font-size="10.494">6</text>
	</g>
	<g>
		<text transform="matrix(1 0 0 1 578.1201 313.1992)" fill="#FC1325" font-family="'CrimsonText-Roman'" font-size="18">lost control</text>
		<text transform="matrix(1 0 0 1 658.5576 307.2051)" fill="#FC1325" font-family="'CrimsonText-Roman'" font-size="10.494">l6</text>
	</g>
	<g>
		<text transform="matrix(1 0 0 1 745.4805 313.1992)" fill="#FC1325" font-family="'CrimsonText-Roman'" font-size="18">gel cap</text>
		<text transform="matrix(1 0 0 1 793.3457 307.2051)" fill="#FC1325" font-family="'CrimsonText-Roman'" font-size="10.494">6</text>
	</g>
	<g>
		<text transform="matrix(1 0 0 1 877.6953 313.1992)" fill="#FC1325" font-family="'CrimsonText-Roman'" font-size="18">dpt freebase</text>
		<text transform="matrix(1 0 0 1 962.123 307.2051)" fill="#FC1325" font-family="'CrimsonText-Roman'" font-size="10.494">6</text>
	</g>
	<g>
		<text transform="matrix(1 0 0 1 1046.4727 313.1992)" fill="#FC1325" font-family="'CrimsonText-Roman'" font-size="18">medical tent</text>
		<text transform="matrix(1 0 0 1 1132.6934 307.2051)" fill="#FC1325" font-family="'CrimsonText-Roman'" font-size="10.494">6 </text>
	</g>
</g>
<g>
	<g>
		<text transform="matrix(1 0 0 1 1.5439 364.9199)" fill="#FC1325" font-family="'CrimsonText-Roman'" font-size="18">salvia divinorum</text>
		<text transform="matrix(1 0 0 1 119.7568 358.9258)" fill="#FC1325" font-family="'CrimsonText-Roman'" font-size="10.494">6 </text>
	</g>
	<g>
		<text transform="matrix(1 0 0 1 175.3945 364.9199)" fill="#FC1325" font-family="'CrimsonText-Roman'" font-size="18">stomach discomfort</text>
		<text transform="matrix(1 0 0 1 314.5254 358.9258)" fill="#FC1325" font-family="'CrimsonText-Roman'" font-size="10.494">6</text>
	</g>
	<g>
		<text transform="matrix(1 0 0 1 371.8428 364.9199)" fill="#FC1325" font-family="'CrimsonText-Roman'" font-size="18">stay awake</text>
		<text transform="matrix(1 0 0 1 447.165 358.9258)" fill="#FC1325" font-family="'CrimsonText-Roman'" font-size="10.494">6 </text>
	</g>
	<g>
		<text transform="matrix(1 0 0 1 502.8032 365.2529)" fill="#FC1325" font-family="'CrimsonText-Roman'" font-size="18">attention span</text>
		<text transform="matrix(1 0 0 1 603.4375 359.2588)" fill="#FC1325" font-family="'CrimsonText-Roman'" font-size="10.494">5</text>
		<text transform="matrix(1 0 0 1 608.4082 365.2529)" fill="#FC1325" font-family="'CrimsonText-Roman'" font-size="18"> </text>
	</g>
</g>
</svg>
