<?xml version="1.0" encoding="utf-8"?>
<!-- Generator: Adobe Illustrator 16.0.4, SVG Export Plug-In . SVG Version: 6.00 Build 0)  -->
<!DOCTYPE svg PUBLIC "-//W3C//DTD SVG 1.1//EN" "http://www.w3.org/Graphics/SVG/1.1/DTD/svg11.dtd">
<svg version="1.1"
	 id="Layer_1" xmlns:a3="http://ns.adobe.com/AdobeSVGViewerExtensions/3.0/" xmlns:text="http://xmlns.graougraou.com/svg/text/" a3:scriptImplementation="Adobe"
	 xmlns="http://www.w3.org/2000/svg" xmlns:xlink="http://www.w3.org/1999/xlink" x="0px" y="0px" width="1140px"
	 height="358.577px" viewBox="0 0 1140 358.577" enable-background="new 0 0 1140 358.577" xml:space="preserve">
<g>
	<text transform="matrix(1 0 0 1 0 42.0728)" fill="#A478D6" font-family="'CrimsonText-Roman'" font-size="54.6">don jorge</text>
	<text transform="matrix(1 0 0 1 203.2041 23.8911)" fill="#A478D6" font-family="'CrimsonText-Roman'" font-size="31.8318">17</text>
</g>
<g>
	<text transform="matrix(1 0 0 1 255.0459 42.0728)" fill="#A478D6" font-family="'CrimsonText-Roman'" font-size="54.6">santo daime</text>
	<text transform="matrix(1 0 0 1 510.8223 23.8911)" fill="#A478D6" font-family="'CrimsonText-Roman'" font-size="31.8318">17 </text>
</g>
<g>
	<text transform="matrix(1 0 0 1 569.7827 42.0728)" fill="#A478D6" font-family="'CrimsonText-Roman'" font-size="54.6">mimosa hostilis</text>
	<text transform="matrix(1 0 0 1 903.0889 23.8911)" fill="#A478D6" font-family="'CrimsonText-Roman'" font-size="31.8318">16 </text>
</g>
<g>
	<text transform="matrix(1 0 0 1 962.0801 42.0732)" fill="#A478D6" font-family="'CrimsonText-Roman'" font-size="38.9143">syrian rue</text>
	<text transform="matrix(1 0 0 1 1113.4805 28.9658)" fill="#A478D6" font-family="'CrimsonText-Roman'" font-size="22.687">12 </text>
</g>
<g>
	<text transform="matrix(1 0 0 1 0 115.3779)" fill="#A478D6" font-family="'CrimsonText-Roman'" font-size="33.6856">drinking ayahuasca</text>
	<text transform="matrix(1 0 0 1 251.8857 103.2598)" fill="#A478D6" font-family="'CrimsonText-Roman'" font-size="19.6388">11 </text>
</g>
<g>
	<text transform="matrix(1 0 0 1 341.2554 114.3789)" fill="#A478D6" font-family="'CrimsonText-Roman'" font-size="33.6856">ego death</text>
	<text transform="matrix(1 0 0 1 467.478 103.3105)" fill="#A478D6" font-family="'CrimsonText-Roman'" font-size="19.6388">11 </text>
</g>
<g>
	<text transform="matrix(1 0 0 1 556.8477 114.4785)" fill="#A478D6" font-family="'CrimsonText-Roman'" font-size="33.6856">wood stove</text>
	<text transform="matrix(1 0 0 1 707.709 103.2598)" fill="#A478D6" font-family="'CrimsonText-Roman'" font-size="19.6388">11 </text>
</g>
<g>
	<text transform="matrix(1 0 0 1 797.0781 113.8848)" fill="#A478D6" font-family="'CrimsonText-Roman'" font-size="28.4571">martial arts</text>
	<text transform="matrix(1 0 0 1 923.9395 104.4082)" fill="#A478D6" font-family="'CrimsonText-Roman'" font-size="16.5905">9</text>
</g>
<g>
	<text transform="matrix(1 0 0 1 998.1953 113.8848)" fill="#A478D6" font-family="'CrimsonText-Roman'" font-size="28.4571">solar plexus</text>
	<text transform="matrix(1 0 0 1 1128.4482 104.4082)" fill="#A478D6" font-family="'CrimsonText-Roman'" font-size="16.5905">9 </text>
</g>
<g>
	<text transform="matrix(1 0 0 1 0 171.293)" fill="#A478D6" font-family="'CrimsonText-Roman'" font-size="23.2285">ayahuasca ceremony</text>
	<text transform="matrix(1 0 0 1 184.6055 163.5586)" fill="#A478D6" font-family="'CrimsonText-Roman'" font-size="13.5423">8 </text>
</g>
<g>
	<text transform="matrix(1 0 0 1 254.4033 175.1602)" fill="#A478D6" font-family="'CrimsonText-Roman'" font-size="23.2285">higher dimensional</text>
	<text transform="matrix(1 0 0 1 429.8867 167.4258)" fill="#A478D6" font-family="'CrimsonText-Roman'" font-size="13.5423">8 </text>
</g>
<g>
	<text transform="matrix(1 0 0 1 499.6851 175.1602)" fill="#A478D6" font-family="'CrimsonText-Roman'" font-size="23.2285">peganum harmala</text>
	<text transform="matrix(1 0 0 1 662.0352 167.4258)" fill="#A478D6" font-family="'CrimsonText-Roman'" font-size="13.5423">8 </text>
</g>
<g>
	<text transform="matrix(1 0 0 1 974.4834 175.125)" fill="#A478D6" font-family="'CrimsonText-Roman'" font-size="23.2285">ayahuasca session</text>
	<text transform="matrix(1 0 0 1 1133.6123 167.3887)" fill="#A478D6" font-family="'CrimsonText-Roman'" font-size="13.5423">7</text>
</g>
<g>
	<text transform="matrix(1 0 0 1 731.834 175.1992)" fill="#A478D6" font-family="'CrimsonText-Roman'" font-size="23.2285">banisteriopsis caapi</text>
	<text transform="matrix(1 0 0 1 907.7266 167.4639)" fill="#A478D6" font-family="'CrimsonText-Roman'" font-size="13.5423">7</text>
</g>
<g>
	<text transform="matrix(1 0 0 1 0 232.541)" fill="#A478D6" font-family="'CrimsonText-Roman'" font-size="23.2285">dark brown</text>
	<text transform="matrix(1 0 0 1 106.4111 224.8057)" fill="#A478D6" font-family="'CrimsonText-Roman'" font-size="13.5423">7</text>
	<text transform="matrix(1 0 0 1 112.7988 232.541)" fill="#A478D6" font-family="'CrimsonText-Roman'" font-size="23.2285"> </text>
</g>
<g>
	<text transform="matrix(1 0 0 1 208.8516 233.8301)" fill="#A478D6" font-family="'CrimsonText-Roman'" font-size="23.2285">plant spirits</text>
	
		<text transform="matrix(0.583 0 0 0.583 316.1929 226.0947)" fill="#A478D6" font-family="'CrimsonText-Roman'" font-size="23.2285">7 </text>
</g>
<g>
	<text transform="matrix(1 0 0 1 416.4668 232.541)" fill="#A478D6" font-family="'CrimsonText-Roman'" font-size="23.2285">terence mckenna</text>
	<text transform="matrix(1 0 0 1 570.7402 224.8057)" fill="#A478D6" font-family="'CrimsonText-Roman'" font-size="13.5423">7 </text>
</g>
<g>
	<text transform="matrix(1 0 0 1 671.0137 231.9482)" fill="#A478D6" font-family="'CrimsonText-Roman'" font-size="18">ayahuasca brew</text>
	<text transform="matrix(1 0 0 1 780.5078 225.9541)" fill="#A478D6" font-family="'CrimsonText-Roman'" font-size="10.494">6</text>
</g>
<g>
	<text transform="matrix(1 0 0 1 876.3262 234.9453)" fill="#A478D6" font-family="'CrimsonText-Roman'" font-size="18">black hole</text>
	<text transform="matrix(1 0 0 1 947.0605 228.9512)" fill="#A478D6" font-family="'CrimsonText-Roman'" font-size="10.494">6 </text>
</g>
<g>
	<text transform="matrix(1 0 0 1 1045.2246 234.9453)" fill="#A478D6" font-family="'CrimsonText-Roman'" font-size="18">carrier wave</text>
	<text transform="matrix(1 0 0 1 1132.6934 228.9512)" fill="#A478D6" font-family="'CrimsonText-Roman'" font-size="10.494">6 </text>
</g>
<g>
	<text transform="matrix(1 0 0 1 0 285.0225)" fill="#A478D6" font-family="'CrimsonText-Roman'" font-size="18">dimensional space</text>
	<text transform="matrix(1 0 0 1 127.459 279.0273)" fill="#A478D6" font-family="'CrimsonText-Roman'" font-size="10.494">6 </text>
</g>
<g>
	<text transform="matrix(1 0 0 1 226.3071 285.0225)" fill="#A478D6" font-family="'CrimsonText-Roman'" font-size="18">divine presence</text>
	<text transform="matrix(1 0 0 1 335.6079 279.0273)" fill="#A478D6" font-family="'CrimsonText-Roman'" font-size="10.494">6</text>
</g>
<g>
	<text transform="matrix(1 0 0 1 432.1084 285.0225)" fill="#A478D6" font-family="'CrimsonText-Roman'" font-size="18">mojo jojo</text>
	<text transform="matrix(1 0 0 1 498.6055 279.0273)" fill="#A478D6" font-family="'CrimsonText-Roman'" font-size="10.494">6</text>
</g>
<g>
	<text transform="matrix(1 0 0 1 595.1074 285.0225)" fill="#A478D6" font-family="'CrimsonText-Roman'" font-size="18">mother earth</text>
	<text transform="matrix(1 0 0 1 687.9775 279.0264)" fill="#A478D6" font-family="'CrimsonText-Roman'" font-size="10.494">6</text>
</g>
<g>
	<text transform="matrix(1 0 0 1 784.4785 285.0225)" fill="#A478D6" font-family="'CrimsonText-Roman'" font-size="18">young russian</text>
	<text transform="matrix(1 0 0 1 882.5117 279.0273)" fill="#A478D6" font-family="'CrimsonText-Roman'" font-size="10.494">6 </text>
</g>
<g>
	<text transform="matrix(1 0 0 1 981.3594 285.0225)" fill="#A478D6" font-family="'CrimsonText-Roman'" font-size="18">ayahuasca ceremonies</text>
	<text transform="matrix(1 0 0 1 1135.0293 279.0273)" fill="#A478D6" font-family="'CrimsonText-Roman'" font-size="10.494">5</text>
</g>
<g>
	<text transform="matrix(1 0 0 1 0 341.0225)" fill="#A478D6" font-family="'CrimsonText-Roman'" font-size="18">brown liquid</text>
	<text transform="matrix(1 0 0 1 91.1768 335.0273)" fill="#A478D6" font-family="'CrimsonText-Roman'" font-size="10.494">5</text>
</g>
<g>
	<text transform="matrix(1 0 0 1 225.0156 341.0225)" fill="#A478D6" font-family="'CrimsonText-Roman'" font-size="18">drink ayahuasca</text>
	<text transform="matrix(1 0 0 1 337.0059 335.0273)" fill="#A478D6" font-family="'CrimsonText-Roman'" font-size="10.494">5</text>
</g>
<g>
	<text transform="matrix(1 0 0 1 470.8447 341.0225)" fill="#A478D6" font-family="'CrimsonText-Roman'" font-size="18">geometric grid</text>
	<text transform="matrix(1 0 0 1 573.8701 335.0273)" fill="#A478D6" font-family="'CrimsonText-Roman'" font-size="10.494">5</text>
</g>
<g>
	<text transform="matrix(1 0 0 1 707.709 341.0225)" fill="#A478D6" font-family="'CrimsonText-Roman'" font-size="18">geometric shapes</text>
	<text transform="matrix(1 0 0 1 828.1709 335.0273)" fill="#A478D6" font-family="'CrimsonText-Roman'" font-size="10.494">5 </text>
</g>
</svg>
