<?xml version="1.0" encoding="utf-8"?>
<!-- Generator: Adobe Illustrator 15.0.0, SVG Export Plug-In . SVG Version: 6.00 Build 0)  -->
<!DOCTYPE svg PUBLIC "-//W3C//DTD SVG 1.1//EN" "http://www.w3.org/Graphics/SVG/1.1/DTD/svg11.dtd">
<svg version="1.1"
	 id="Layer_1" a3:scriptImplementation="Adobe" xmlns:text="http://xmlns.graougraou.com/svg/text/" xmlns:a3="http://ns.adobe.com/AdobeSVGViewerExtensions/3.0/"
	 xmlns="http://www.w3.org/2000/svg" xmlns:xlink="http://www.w3.org/1999/xlink" x="0px" y="0px" width="1140px" height="196px"
	 viewBox="0 0 1140 196" enable-background="new 0 0 1140 196" xml:space="preserve">
<text transform="matrix(1 0 0 1 0 45.0215)" fill="#A478D6" font-family="'CrimsonText-Roman'" font-size="36.4">don jorge</text>
<text transform="matrix(1 0 0 1 135.4692 32.8999)" fill="#A478D6" font-family="'CrimsonText-Roman'" font-size="21.2212">17</text>
<text transform="matrix(1 0 0 1 221.6978 45.0215)" fill="#A478D6" font-family="'CrimsonText-Roman'" font-size="36.4">santo daime</text>
<text transform="matrix(1 0 0 1 392.2158 32.8999)" fill="#A478D6" font-family="'CrimsonText-Roman'" font-size="21.2212">17 </text>
<text transform="matrix(1 0 0 1 475.0508 45.0215)" fill="#A478D6" font-family="'CrimsonText-Roman'" font-size="36.4">mimosa hostilis</text>
<text transform="matrix(1 0 0 1 697.2549 32.8999)" fill="#A478D6" font-family="'CrimsonText-Roman'" font-size="21.2212">16 </text>
<text transform="matrix(1 0 0 1 780.1094 45.0776)" fill="#A478D6" font-family="'CrimsonText-Roman'" font-size="25.9429">syrian rue</text>
<text transform="matrix(1 0 0 1 881.043 36.3389)" fill="#A478D6" font-family="'CrimsonText-Roman'" font-size="15.1247">12 </text>
<text transform="matrix(1 0 0 1 956.7715 45.4302)" fill="#A478D6" font-family="'CrimsonText-Roman'" font-size="22.4571">drinking ayahuasca</text>
<text transform="matrix(1 0 0 1 1124.6953 37.3516)" fill="#A478D6" font-family="'CrimsonText-Roman'" font-size="13.0925">11 </text>
<text transform="matrix(1 0 0 1 0 83.7437)" fill="#A478D6" font-family="'CrimsonText-Roman'" font-size="22.4571">ego death</text>
<text transform="matrix(1 0 0 1 84.1484 76.3657)" fill="#A478D6" font-family="'CrimsonText-Roman'" font-size="13.0925">11 </text>
<text transform="matrix(1 0 0 1 160.9419 83.8438)" fill="#A478D6" font-family="'CrimsonText-Roman'" font-size="22.4571">wood stove</text>
<text transform="matrix(1 0 0 1 261.5166 76.3657)" fill="#A478D6" font-family="'CrimsonText-Roman'" font-size="13.0925">11 </text>
<text transform="matrix(1 0 0 1 338.3105 83.6953)" fill="#A478D6" font-family="'CrimsonText-Roman'" font-size="18.9714">martial arts</text>
<text transform="matrix(1 0 0 1 422.8848 77.3779)" fill="#A478D6" font-family="'CrimsonText-Roman'" font-size="11.0603">9</text>
<text transform="matrix(1 0 0 1 428.1128 83.6953)" fill="#A478D6" font-family="'CrimsonText-Roman'" font-size="18.9714"> </text>
<text transform="matrix(1 0 0 1 493.8452 83.6953)" fill="#A478D6" font-family="'CrimsonText-Roman'" font-size="18.9714">solar plexus</text>
<text transform="matrix(1 0 0 1 580.6807 77.3779)" fill="#A478D6" font-family="'CrimsonText-Roman'" font-size="11.0603">9 </text>
<text transform="matrix(1 0 0 1 649.8701 83.5479)" fill="#A478D6" font-family="'CrimsonText-Roman'" font-size="15.4857">ayahuasca ceremony</text>
<text transform="matrix(1 0 0 1 772.9404 78.3916)" fill="#A478D6" font-family="'CrimsonText-Roman'" font-size="9.0282">8 </text>
<text transform="matrix(1 0 0 1 840.7158 83.5479)" fill="#A478D6" font-family="'CrimsonText-Roman'" font-size="15.4857">higher dimensional</text>
<text transform="matrix(1 0 0 1 957.7051 78.3916)" fill="#A478D6" font-family="'CrimsonText-Roman'" font-size="9.0282">8 </text>
<text transform="matrix(1 0 0 1 1025.4805 83.5479)" fill="#A478D6" font-family="'CrimsonText-Roman'" font-size="15.4857">peganum harmala</text>
<text transform="matrix(1 0 0 1 1133.7139 78.3916)" fill="#A478D6" font-family="'CrimsonText-Roman'" font-size="9.0282">8 </text>
<text transform="matrix(1 0 0 1 187.3965 123.4971)" fill="#A478D6" font-family="'CrimsonText-Roman'" font-size="15.4857">ayahuasca session</text>
<text transform="matrix(1 0 0 1 293.4824 118.3389)" fill="#A478D6" font-family="'CrimsonText-Roman'" font-size="9.0282">7</text>
<text transform="matrix(1 0 0 1 0 123.5703)" fill="#A478D6" font-family="'CrimsonText-Roman'" font-size="15.4857">banisteriopsis caapi</text>
<text transform="matrix(1 0 0 1 117.2617 118.4131)" fill="#A478D6" font-family="'CrimsonText-Roman'" font-size="9.0282">7</text>
<text transform="matrix(1 0 0 1 363.6177 123.5703)" fill="#A478D6" font-family="'CrimsonText-Roman'" font-size="15.4857">dark brown</text>
<text transform="matrix(1 0 0 1 434.5586 118.4131)" fill="#A478D6" font-family="'CrimsonText-Roman'" font-size="9.0282">7</text>
<text transform="matrix(1 0 0 1 438.8169 123.5703)" fill="#A478D6" font-family="'CrimsonText-Roman'" font-size="15.4857"> </text>
<text transform="matrix(1 0 0 1 504.6934 123.5703)" fill="#A478D6" font-family="'CrimsonText-Roman'" font-size="15.4857">plant spirits7 </text>
<text transform="matrix(1 0 0 1 649.4346 123.5703)" fill="#A478D6" font-family="'CrimsonText-Roman'" font-size="15.4857">terence mckenna</text>
<text transform="matrix(1 0 0 1 752.2842 118.4131)" fill="#A478D6" font-family="'CrimsonText-Roman'" font-size="9.0282">7 </text>
<text transform="matrix(1 0 0 1 820.9756 123.4219)" fill="#A478D6" font-family="'CrimsonText-Roman'" font-size="12">ayahuasca brew</text>
<text transform="matrix(1 0 0 1 893.9717 119.4258)" fill="#A478D6" font-family="'CrimsonText-Roman'" font-size="6.996">6</text>
<text transform="matrix(1 0 0 1 897.2783 123.4219)" fill="#A478D6" font-family="'CrimsonText-Roman'" font-size="12"> </text>
<text transform="matrix(1 0 0 1 962.376 123.4219)" fill="#A478D6" font-family="'CrimsonText-Roman'" font-size="12">black hole</text>
<text transform="matrix(1 0 0 1 1009.5322 119.4258)" fill="#A478D6" font-family="'CrimsonText-Roman'" font-size="6.996">6 </text>
<text transform="matrix(1 0 0 1 1076.8164 123.4219)" fill="#A478D6" font-family="'CrimsonText-Roman'" font-size="12">carrier wave</text>
<text transform="matrix(1 0 0 1 1135.1289 119.4258)" fill="#A478D6" font-family="'CrimsonText-Roman'" font-size="6.996">6 </text>
<text transform="matrix(1 0 0 1 0 161.4961)" fill="#A478D6" font-family="'CrimsonText-Roman'" font-size="12">dimensional space</text>
<text transform="matrix(1 0 0 1 84.9727 157.499)" fill="#A478D6" font-family="'CrimsonText-Roman'" font-size="6.996">6 </text>
<text transform="matrix(1 0 0 1 130.6494 161.4961)" fill="#A478D6" font-family="'CrimsonText-Roman'" font-size="12">divine presence</text>
<text transform="matrix(1 0 0 1 203.5166 157.499)" fill="#A478D6" font-family="'CrimsonText-Roman'" font-size="6.996">6</text>
<text transform="matrix(1 0 0 1 250.313 161.4961)" fill="#A478D6" font-family="'CrimsonText-Roman'" font-size="12">mojo jojo</text>
<text transform="matrix(1 0 0 1 294.6445 157.499)" fill="#A478D6" font-family="'CrimsonText-Roman'" font-size="6.996">6</text>
<text transform="matrix(1 0 0 1 341.4409 161.4961)" fill="#A478D6" font-family="'CrimsonText-Roman'" font-size="12">mother earth</text>
<text transform="matrix(1 0 0 1 403.1982 157.499)" fill="#A478D6" font-family="'CrimsonText-Roman'" font-size="6.996">6</text>
<text transform="matrix(1 0 0 1 449.9946 161.4961)" fill="#A478D6" font-family="'CrimsonText-Roman'" font-size="12">young russian</text>
<text transform="matrix(1 0 0 1 515.3496 157.499)" fill="#A478D6" font-family="'CrimsonText-Roman'" font-size="6.996">6 </text>
<text transform="matrix(1 0 0 1 561.0273 161.4961)" fill="#A478D6" font-family="'CrimsonText-Roman'" font-size="12">ayahuasca ceremonies</text>
<text transform="matrix(1 0 0 1 663.4736 157.499)" fill="#A478D6" font-family="'CrimsonText-Roman'" font-size="6.996">5</text>
<text transform="matrix(1 0 0 1 666.7871 161.4961)" fill="#A478D6" font-family="'CrimsonText-Roman'" font-size="12"> </text>
<text transform="matrix(1 0 0 1 710.2764 161.4961)" fill="#A478D6" font-family="'CrimsonText-Roman'" font-size="12">brown liquid</text>
<text transform="matrix(1 0 0 1 771.0615 157.499)" fill="#A478D6" font-family="'CrimsonText-Roman'" font-size="6.996">5</text>
<text transform="matrix(1 0 0 1 774.375 161.4961)" fill="#A478D6" font-family="'CrimsonText-Roman'" font-size="12"> </text>
<text transform="matrix(1 0 0 1 817.8643 161.4961)" fill="#A478D6" font-family="'CrimsonText-Roman'" font-size="12">drink ayahuasca</text>
<text transform="matrix(1 0 0 1 892.5244 157.499)" fill="#A478D6" font-family="'CrimsonText-Roman'" font-size="6.996">5</text>
<text transform="matrix(1 0 0 1 895.8379 161.4961)" fill="#A478D6" font-family="'CrimsonText-Roman'" font-size="12"> </text>
<text transform="matrix(1 0 0 1 939.3271 161.4961)" fill="#A478D6" font-family="'CrimsonText-Roman'" font-size="12">geometric grid</text>
<text transform="matrix(1 0 0 1 1008.0107 157.499)" fill="#A478D6" font-family="'CrimsonText-Roman'" font-size="6.996">5</text>
<text transform="matrix(1 0 0 1 1011.3242 161.4961)" fill="#A478D6" font-family="'CrimsonText-Roman'" font-size="12"> </text>
<text transform="matrix(1 0 0 1 1054.8135 161.4961)" fill="#A478D6" font-family="'CrimsonText-Roman'" font-size="12">geometric shapes</text>
<text transform="matrix(1 0 0 1 1135.1211 157.499)" fill="#A478D6" font-family="'CrimsonText-Roman'" font-size="6.996">5 </text>
</svg>
