<?xml version="1.0" encoding="utf-8"?>
<!-- Generator: Adobe Illustrator 16.0.4, SVG Export Plug-In . SVG Version: 6.00 Build 0)  -->
<!DOCTYPE svg PUBLIC "-//W3C//DTD SVG 1.1//EN" "http://www.w3.org/Graphics/SVG/1.1/DTD/svg11.dtd">
<svg version="1.1"
	 id="Layer_1" a3:scriptImplementation="Adobe" xmlns:a3="http://ns.adobe.com/AdobeSVGViewerExtensions/3.0/" xmlns:text="http://xmlns.graougraou.com/svg/text/"
	 xmlns="http://www.w3.org/2000/svg" xmlns:xlink="http://www.w3.org/1999/xlink" x="0px" y="0px" width="1140px" height="196px"
	 viewBox="14.588 173.829 1140 196" enable-background="new 14.588 173.829 1140 196" xml:space="preserve">
<text transform="matrix(1 0 0 1 14.5879 229.7268)" fill="#FC1325" font-family="'CrimsonText-Roman'" font-size="64.8396">heart rate</text>
<text transform="matrix(0.583 0 0 0.583 258.5596 208.135)" fill="#FC1325" font-family="'CrimsonText-Roman'" font-size="64.8396">65 </text>
<text transform="matrix(1 0 0 1 326.1143 227.9749)" fill="#FC1325" font-family="'CrimsonText-Roman'" font-size="39.8857">dry mouth</text>
<text transform="matrix(0.583 0 0 0.583 490.9155 214.6936)" fill="#FC1325" font-family="'CrimsonText-Roman'" font-size="39.8857">42</text>
<text transform="matrix(1 0 0 1 512.8516 227.9749)" fill="#FC1325" font-family="'CrimsonText-Roman'" font-size="39.8857"> </text>
<text transform="matrix(1 0 0 1 545.1016 227.2415)" fill="#FC1325" font-family="'CrimsonText-Roman'" font-size="29.4286">extended release</text>
<text transform="matrix(0.583 0 0 0.583 733.0537 217.4417)" fill="#FC1325" font-family="'CrimsonText-Roman'" font-size="29.4286">31 </text>
<text transform="matrix(1 0 0 1 776.4551 226.7522)" fill="#FC1325" font-family="'CrimsonText-Roman'" font-size="22.4571">wide awake</text>
<text transform="matrix(0.583 0 0 0.583 878.7617 219.2742)" fill="#FC1325" font-family="'CrimsonText-Roman'" font-size="22.4571">25 </text>
<text transform="matrix(1 0 0 1 917.4092 226.5071)" fill="#FC1325" font-family="'CrimsonText-Roman'" font-size="18.9714">blood pressure</text>
<text transform="matrix(0.583 0 0 0.583 1026.0127 220.1897)" fill="#FC1325" font-family="'CrimsonText-Roman'" font-size="18.9714">20 </text>
<text transform="matrix(1 0 0 1 1062.2715 226.5071)" fill="#FC1325" font-family="'CrimsonText-Roman'" font-size="18.9714">stay awake</text>
<text transform="matrix(0.583 0 0 0.583 1141.6592 220.1897)" fill="#FC1325" font-family="'CrimsonText-Roman'" font-size="18.9714">20 </text>
<g>
	<text transform="matrix(1 0 0 1 14.5879 270.3167)" fill="#FC1325" font-family="'CrimsonText-Roman'" font-size="18.9714">heart attack</text>
	
		<text transform="matrix(0.583 0 0 0.583 101.3115 263.9993)" fill="#FC1325" font-family="'CrimsonText-Roman'" font-size="18.9714">19</text>
	<text transform="matrix(1 0 0 1 111.7671 270.3167)" fill="#FC1325" font-family="'CrimsonText-Roman'" font-size="18.9714"> </text>
</g>
<text transform="matrix(1 0 0 1 150.9595 270.3167)" fill="#FC1325" font-family="'CrimsonText-Roman'" font-size="18.9714">pay attention</text>
<text transform="matrix(0.583 0 0 0.583 248.7251 263.9993)" fill="#FC1325" font-family="'CrimsonText-Roman'" font-size="18.9714">19 </text>
<text transform="matrix(1 0 0 1 296.603 270.0725)" fill="#FC1325" font-family="'CrimsonText-Roman'" font-size="15.4857">amphetamine salts</text>
<text transform="matrix(0.583 0 0 0.583 408.6323 264.9153)" fill="#FC1325" font-family="'CrimsonText-Roman'" font-size="15.4857">16 </text>
<text transform="matrix(1 0 0 1 454.1353 270.0725)" fill="#FC1325" font-family="'CrimsonText-Roman'" font-size="15.4857">higher doses</text>
<text transform="matrix(0.583 0 0 0.583 529.7036 264.9153)" fill="#FC1325" font-family="'CrimsonText-Roman'" font-size="15.4857">16 </text>
<text transform="matrix(1 0 0 1 575.2065 270.0725)" fill="#FC1325" font-family="'CrimsonText-Roman'" font-size="15.4857">heart beat</text>
<text transform="matrix(0.583 0 0 0.583 635.2744 264.9153)" fill="#FC1325" font-family="'CrimsonText-Roman'" font-size="15.4857">15 </text>
<text transform="matrix(1 0 0 1 680.7861 269.8274)" fill="#FC1325" font-family="'CrimsonText-Roman'" font-size="12">computer screen</text>
<text transform="matrix(0.583 0 0 0.583 758.6338 265.8313)" fill="#FC1325" font-family="'CrimsonText-Roman'" font-size="12">14 </text>
<text transform="matrix(1 0 0 1 801.7471 269.8274)" fill="#FC1325" font-family="'CrimsonText-Roman'" font-size="12">amphetamine psychosis</text>
<text transform="matrix(0.583 0 0 0.583 912.583 265.8313)" fill="#FC1325" font-family="'CrimsonText-Roman'" font-size="12">14 </text>
<text transform="matrix(1 0 0 1 955.7197 269.8938)" fill="#FC1325" font-family="'CrimsonText-Roman'" font-size="12">video games</text>
<text transform="matrix(0.583 0 0 0.583 1013.3057 265.0984)" fill="#FC1325" font-family="'CrimsonText-Roman'" font-size="14.4">14 </text>
<text transform="matrix(1 0 0 1 1058.0527 269.8274)" fill="#FC1325" font-family="'CrimsonText-Roman'" font-size="12">prescribed adderall</text>
<text transform="matrix(0.583 0 0 0.583 1146.4238 265.8313)" fill="#FC1325" font-family="'CrimsonText-Roman'" font-size="12">14 </text>
<text transform="matrix(1 0 0 1 14.5879 308.8274)" fill="#FC1325" font-family="'CrimsonText-Roman'" font-size="12">daily basis</text>
<text transform="matrix(0.583 0 0 0.583 61.8379 304.8313)" fill="#FC1325" font-family="'CrimsonText-Roman'" font-size="12">13 </text>
<text transform="matrix(1 0 0 1 155.772 308.8274)" fill="#FC1325" font-family="'CrimsonText-Roman'" font-size="12">adderall makes</text>
<text transform="matrix(0.583 0 0 0.583 224.7837 304.8313)" fill="#FC1325" font-family="'CrimsonText-Roman'" font-size="12">13 </text>
<text transform="matrix(1 0 0 1 318.7178 308.8274)" fill="#FC1325" font-family="'CrimsonText-Roman'" font-size="12">spring break</text>
<text transform="matrix(0.583 0 0 0.583 377.2295 304.8313)" fill="#FC1325" font-family="'CrimsonText-Roman'" font-size="12">13 </text>
<text transform="matrix(1 0 0 1 471.1636 308.8274)" fill="#FC1325" font-family="'CrimsonText-Roman'" font-size="12">english class</text>
<text transform="matrix(0.583 0 0 0.583 528.3745 304.8313)" fill="#FC1325" font-family="'CrimsonText-Roman'" font-size="12">13 </text>
<text transform="matrix(1 0 0 1 622.3076 308.8274)" fill="#FC1325" font-family="'CrimsonText-Roman'" font-size="12">baking soda</text>
<text transform="matrix(0.583 0 0 0.583 677.6436 304.8313)" fill="#FC1325" font-family="'CrimsonText-Roman'" font-size="12">12 </text>
<text transform="matrix(1 0 0 1 771.5713 308.8274)" fill="#FC1325" font-family="'CrimsonText-Roman'" font-size="12">gas station</text>
<text transform="matrix(0.583 0 0 0.583 820.9893 304.8313)" fill="#FC1325" font-family="'CrimsonText-Roman'" font-size="12">12 </text>
<text transform="matrix(1 0 0 1 914.917 308.8274)" fill="#FC1325" font-family="'CrimsonText-Roman'" font-size="12">period class</text>
<text transform="matrix(0.583 0 0 0.583 969.0928 304.8313)" fill="#FC1325" font-family="'CrimsonText-Roman'" font-size="12">12 </text>
<text transform="matrix(1 0 0 1 1063.0195 308.8274)" fill="#FC1325" font-family="'CrimsonText-Roman'" font-size="12">tingling sensation</text>
<text transform="matrix(0.583 0 0 0.583 1146.4102 304.8313)" fill="#FC1325" font-family="'CrimsonText-Roman'" font-size="12">12 </text>
<text transform="matrix(1 0 0 1 878.7402 347.3274)" fill="#FC1325" font-family="'CrimsonText-Roman'" font-size="12">adderall prescription</text>
<text transform="matrix(0.583 0 0 0.583 975.5605 343.3313)" fill="#FC1325" font-family="'CrimsonText-Roman'" font-size="12">11 </text>
<text transform="matrix(1 0 0 1 1082.2617 347.3274)" fill="#FC1325" font-family="'CrimsonText-Roman'" font-size="12">jaw clenching</text>
<text transform="matrix(0.583 0 0 0.583 1146.4102 343.3313)" fill="#FC1325" font-family="'CrimsonText-Roman'" font-size="12">11 </text>
<text transform="matrix(1 0 0 1 14.5879 347.3274)" fill="#FC1325" font-family="'CrimsonText-Roman'" font-size="12">30mg adderall</text>
<text transform="matrix(0.583 0 0 0.583 80.4941 343.3313)" fill="#FC1325" font-family="'CrimsonText-Roman'" font-size="12">11 </text>
<text transform="matrix(1 0 0 1 186.9028 347.3274)" fill="#FC1325" font-family="'CrimsonText-Roman'" font-size="12">mountain dew</text>
<text transform="matrix(0.583 0 0 0.583 254.9771 343.3313)" fill="#FC1325" font-family="'CrimsonText-Roman'" font-size="12">11 </text>
<text transform="matrix(1 0 0 1 361.3853 347.3274)" fill="#FC1325" font-family="'CrimsonText-Roman'" font-size="12">orange juice</text>
<text transform="matrix(0.583 0 0 0.583 418.1978 343.3313)" fill="#FC1325" font-family="'CrimsonText-Roman'" font-size="12">11 </text>
<text transform="matrix(1 0 0 1 524.6064 347.3274)" fill="#FC1325" font-family="'CrimsonText-Roman'" font-size="12">paying attention</text>
<text transform="matrix(0.583 0 0 0.583 601.5166 343.3313)" fill="#FC1325" font-family="'CrimsonText-Roman'" font-size="12">11 </text>
<text transform="matrix(1 0 0 1 707.9248 347.3274)" fill="#FC1325" font-family="'CrimsonText-Roman'" font-size="12">cotton mouth</text>
<text transform="matrix(0.583 0 0 0.583 772.3311 343.3313)" fill="#FC1325" font-family="'CrimsonText-Roman'" font-size="12">11 </text>
</svg>
