<?xml version="1.0" encoding="utf-8"?>
<!-- Generator: Adobe Illustrator 16.0.4, SVG Export Plug-In . SVG Version: 6.00 Build 0)  -->
<!DOCTYPE svg PUBLIC "-//W3C//DTD SVG 1.1//EN" "http://www.w3.org/Graphics/SVG/1.1/DTD/svg11.dtd">
<svg version="1.1"
	 id="Layer_1" xmlns:a3="http://ns.adobe.com/AdobeSVGViewerExtensions/3.0/" xmlns:text="http://xmlns.graougraou.com/svg/text/" a3:scriptImplementation="Adobe"
	 xmlns="http://www.w3.org/2000/svg" xmlns:xlink="http://www.w3.org/1999/xlink" x="0px" y="0px" width="1140px" height="210px"
	 viewBox="14.588 300.33 1140 210" enable-background="new 14.588 300.33 1140 210" xml:space="preserve">
<text transform="matrix(1 0 0 1 14.5879 354.8296)" fill="#3CEEED" font-family="'CrimsonText-Roman'" font-size="46.8571">nitrous oxide</text>
<text transform="matrix(0.583 0 0 0.583 256.8354 339.2261)" fill="#3CEEED" font-family="'CrimsonText-Roman'" font-size="46.8571">29 </text>
<text transform="matrix(1 0 0 1 367.4409 354.8296)" fill="#3CEEED" font-family="'CrimsonText-Roman'" font-size="36.4">dance floor</text>
<text transform="matrix(0.583 0 0 0.583 526.6553 342.7085)" fill="#3CEEED" font-family="'CrimsonText-Roman'" font-size="36.4">22 </text>
<text transform="matrix(1 0 0 1 630.1348 354.8296)" fill="#3CEEED" font-family="'CrimsonText-Roman'" font-size="22.4571">white powder</text>
<text transform="matrix(0.583 0 0 0.583 752.2451 347.3516)" fill="#3CEEED" font-family="'CrimsonText-Roman'" font-size="22.4571">14 </text>
<text transform="matrix(1 0 0 1 846.1963 354.8296)" fill="#3CEEED" font-family="'CrimsonText-Roman'" font-size="18.9714">higher doses</text>
<text transform="matrix(0.583 0 0 0.583 938.7744 348.5122)" fill="#3CEEED" font-family="'CrimsonText-Roman'" font-size="18.9714">13 </text>
<text transform="matrix(1 0 0 1 1030.3867 354.1768)" fill="#3CEEED" font-family="'CrimsonText-Roman'" font-size="15.4857">geometric patterns</text>
<text transform="matrix(0.583 0 0 0.583 1144.0342 349.02)" fill="#3CEEED" font-family="'CrimsonText-Roman'" font-size="15.4857">10 </text>
<text transform="matrix(1 0 0 1 14.5879 395.8296)" fill="#3CEEED" font-family="'CrimsonText-Roman'" font-size="15.4857">ketamine hcl</text>
<text transform="matrix(0.583 0 0 0.583 92.0166 390.6729)" fill="#3CEEED" font-family="'CrimsonText-Roman'" font-size="15.4857">10 </text>
<text transform="matrix(1 0 0 1 154.1514 395.8296)" fill="#3CEEED" font-family="'CrimsonText-Roman'" font-size="15.4857">mini noodle</text>
<text transform="matrix(0.583 0 0 0.583 227.5117 390.6729)" fill="#3CEEED" font-family="'CrimsonText-Roman'" font-size="15.4857">10 </text>
<text transform="matrix(1 0 0 1 289.646 395.8296)" fill="#3CEEED" font-family="'CrimsonText-Roman'" font-size="15.4857">orange juice</text>
<text transform="matrix(0.583 0 0 0.583 362.9609 390.6729)" fill="#3CEEED" font-family="'CrimsonText-Roman'" font-size="15.4857">10 </text>
<text transform="matrix(1 0 0 1 425.0957 395.8296)" fill="#3CEEED" font-family="'CrimsonText-Roman'" font-size="15.4857">slow motion</text>
<text transform="matrix(0.583 0 0 0.583 501.1479 390.6729)" fill="#3CEEED" font-family="'CrimsonText-Roman'" font-size="15.4857">10 </text>
<text transform="matrix(1 0 0 1 563.2827 395.8296)" fill="#3CEEED" font-family="'CrimsonText-Roman'" font-size="12">blotter acid</text>
<text transform="matrix(0.583 0 0 0.583 616.2627 391.8335)" fill="#3CEEED" font-family="'CrimsonText-Roman'" font-size="12">9 </text>
<text transform="matrix(1 0 0 1 672.7148 395.8296)" fill="#3CEEED" font-family="'CrimsonText-Roman'" font-size="12">ego death</text>
<text transform="matrix(0.583 0 0 0.583 717.6797 391.8335)" fill="#3CEEED" font-family="'CrimsonText-Roman'" font-size="12">9 </text>
<text transform="matrix(1 0 0 1 774.1318 395.8296)" fill="#3CEEED" font-family="'CrimsonText-Roman'" font-size="12">low doses</text>
<text transform="matrix(0.583 0 0 0.583 819.5889 391.8335)" fill="#3CEEED" font-family="'CrimsonText-Roman'" font-size="12">9 </text>
<text transform="matrix(1 0 0 1 876.042 395.8296)" fill="#3CEEED" font-family="'CrimsonText-Roman'" font-size="12">clear headed</text>
<text transform="matrix(0.583 0 0 0.583 933.7568 391.8335)" fill="#3CEEED" font-family="'CrimsonText-Roman'" font-size="12">8 </text>
<text transform="matrix(1 0 0 1 990.21 395.8296)" fill="#3CEEED" font-family="'CrimsonText-Roman'" font-size="12">large lines</text>
<text transform="matrix(0.583 0 0 0.583 1037.542 391.8335)" fill="#3CEEED" font-family="'CrimsonText-Roman'" font-size="12">8 </text>
<text transform="matrix(1 0 0 1 1093.9941 395.8296)" fill="#3CEEED" font-family="'CrimsonText-Roman'" font-size="12">panic attack</text>
<text transform="matrix(0.583 0 0 0.583 1149.7168 391.8335)" fill="#3CEEED" font-family="'CrimsonText-Roman'" font-size="12">8 </text>
<text transform="matrix(1 0 0 1 14.5879 434.8296)" fill="#3CEEED" font-family="'CrimsonText-Roman'" font-size="12">roller coaster</text>
<text transform="matrix(0.583 0 0 0.583 76.1348 430.8335)" fill="#3CEEED" font-family="'CrimsonText-Roman'" font-size="12">8</text>
<text transform="matrix(1 0 0 1 79.4414 434.8296)" fill="#3CEEED" font-family="'CrimsonText-Roman'" font-size="12"> </text>
<text transform="matrix(1 0 0 1 131.3115 434.8296)" fill="#3CEEED" font-family="'CrimsonText-Roman'" font-size="12">black hole</text>
<text transform="matrix(0.583 0 0 0.583 178.4678 430.8335)" fill="#3CEEED" font-family="'CrimsonText-Roman'" font-size="12">7 </text>
<text transform="matrix(1 0 0 1 232.5181 434.8296)" fill="#3CEEED" font-family="'CrimsonText-Roman'" font-size="12">entire universe</text>
<text transform="matrix(0.583 0 0 0.583 303.0181 430.8335)" fill="#3CEEED" font-family="'CrimsonText-Roman'" font-size="12">7 </text>
<text transform="matrix(1 0 0 1 357.0688 434.8296)" fill="#3CEEED" font-family="'CrimsonText-Roman'" font-size="12">fine powder</text>
<text transform="matrix(0.583 0 0 0.583 413.7173 430.8335)" fill="#3CEEED" font-family="'CrimsonText-Roman'" font-size="12">7 </text>
<text transform="matrix(1 0 0 1 467.7676 434.8296)" fill="#3CEEED" font-family="'CrimsonText-Roman'" font-size="12">fourth dimension</text>
<text transform="matrix(0.583 0 0 0.583 549.8105 430.8335)" fill="#3CEEED" font-family="'CrimsonText-Roman'" font-size="12">7 </text>
<text transform="matrix(1 0 0 1 603.8613 434.8296)" fill="#3CEEED" font-family="'CrimsonText-Roman'" font-size="12">glow sticks</text>
<text transform="matrix(0.583 0 0 0.583 655.4238 430.8335)" fill="#3CEEED" font-family="'CrimsonText-Roman'" font-size="12">7 </text>
<text transform="matrix(1 0 0 1 709.4736 434.8296)" fill="#3CEEED" font-family="'CrimsonText-Roman'" font-size="12">holy shit</text>
<text transform="matrix(0.583 0 0 0.583 749.8574 430.8335)" fill="#3CEEED" font-family="'CrimsonText-Roman'" font-size="12">7 </text>
<text transform="matrix(1 0 0 1 803.9072 434.8296)" fill="#3CEEED" font-family="'CrimsonText-Roman'" font-size="12">intramuscular injection</text>
<text transform="matrix(0.583 0 0 0.583 913.2549 430.8335)" fill="#3CEEED" font-family="'CrimsonText-Roman'" font-size="12">7 </text>
<text transform="matrix(1 0 0 1 967.3057 434.8296)" fill="#3CEEED" font-family="'CrimsonText-Roman'" font-size="12">liquid ketamine</text>
<text transform="matrix(0.583 0 0 0.583 1040.2666 430.8335)" fill="#3CEEED" font-family="'CrimsonText-Roman'" font-size="12">7 </text>
<text transform="matrix(1 0 0 1 1094.3174 434.8296)" fill="#3CEEED" font-family="'CrimsonText-Roman'" font-size="12">motor skills</text>
<text transform="matrix(0.583 0 0 0.583 1149.7236 430.8335)" fill="#3CEEED" font-family="'CrimsonText-Roman'" font-size="12">7 </text>
<text transform="matrix(1 0 0 1 14.5879 473.8296)" fill="#3CEEED" font-family="'CrimsonText-Roman'" font-size="12">mp3 player</text>
<text transform="matrix(0.583 0 0 0.583 67.0176 469.8335)" fill="#3CEEED" font-family="'CrimsonText-Roman'" font-size="12">7</text>
<text transform="matrix(1 0 0 1 70.3174 473.8296)" fill="#3CEEED" font-family="'CrimsonText-Roman'" font-size="12"> </text>
<text transform="matrix(1 0 0 1 107.0068 473.8296)" fill="#3CEEED" font-family="'CrimsonText-Roman'" font-size="12">pink floyd</text>
<text transform="matrix(0.583 0 0 0.583 154.5972 469.8335)" fill="#3CEEED" font-family="'CrimsonText-Roman'" font-size="12">7 </text>
<text transform="matrix(1 0 0 1 190.4194 473.8296)" fill="#3CEEED" font-family="'CrimsonText-Roman'" font-size="12">powder form</text>
<text transform="matrix(0.583 0 0 0.583 252.3179 469.8335)" fill="#3CEEED" font-family="'CrimsonText-Roman'" font-size="12">7</text>
<text transform="matrix(1 0 0 1 255.6177 473.8296)" fill="#3CEEED" font-family="'CrimsonText-Roman'" font-size="12"> </text>
<text transform="matrix(1 0 0 1 290.6079 473.8296)" fill="#3CEEED" font-family="'CrimsonText-Roman'" font-size="12">sensory input</text>
<text transform="matrix(0.583 0 0 0.583 354.1001 469.8335)" fill="#3CEEED" font-family="'CrimsonText-Roman'" font-size="12">7</text>
<text transform="matrix(1 0 0 1 357.3999 473.8296)" fill="#3CEEED" font-family="'CrimsonText-Roman'" font-size="12"> </text>
<text transform="matrix(1 0 0 1 395.6011 473.8296)" fill="#3CEEED" font-family="'CrimsonText-Roman'" font-size="12">sensory overload</text>
<text transform="matrix(0.583 0 0 0.583 474.7964 469.8335)" fill="#3CEEED" font-family="'CrimsonText-Roman'" font-size="12">7 </text>
</svg>
