<?xml version="1.0" encoding="utf-8"?>
<!-- Generator: Adobe Illustrator 16.0.4, SVG Export Plug-In . SVG Version: 6.00 Build 0)  -->
<!DOCTYPE svg PUBLIC "-//W3C//DTD SVG 1.1//EN" "http://www.w3.org/Graphics/SVG/1.1/DTD/svg11.dtd">
<svg version="1.1"
	 id="Layer_1" xmlns:a3="http://ns.adobe.com/AdobeSVGViewerExtensions/3.0/" xmlns:text="http://xmlns.graougraou.com/svg/text/" a3:scriptImplementation="Adobe"
	 xmlns="http://www.w3.org/2000/svg" xmlns:xlink="http://www.w3.org/1999/xlink" x="0px" y="0px" width="1140px" height="210px"
	 viewBox="0 0 1140 210" enable-background="new 0 0 1140 210" xml:space="preserve">
<text transform="matrix(1 0 0 1 3.5786 35.875)" fill="#FC1325" font-family="'CrimsonText-Roman'" font-size="46.8571">jaw clenching</text>
<text transform="matrix(1 0 0 1 254.0625 20.2715)" fill="#FC1325" font-family="'CrimsonText-Roman'" font-size="27.3177">25 </text>
<text transform="matrix(1 0 0 1 334.269 35.5791)" fill="#FC1325" font-family="'CrimsonText-Roman'" font-size="39.8857">bird shaman</text>
<text transform="matrix(1 0 0 1 527.1543 22.2969)" fill="#FC1325" font-family="'CrimsonText-Roman'" font-size="23.2534">22 </text>
<text transform="matrix(1 0 0 1 602.583 35.5791)" fill="#FC1325" font-family="'CrimsonText-Roman'" font-size="39.8857">research chemicals</text>
<text transform="matrix(1 0 0 1 892.2988 22.2969)" fill="#FC1325" font-family="'CrimsonText-Roman'" font-size="23.2534">21 </text>
<text transform="matrix(1 0 0 1 967.7275 35.5791)" fill="#FC1325" font-family="'CrimsonText-Roman'" font-size="36.4">gas station</text>
<text transform="matrix(1 0 0 1 1117.6289 23.458)" fill="#FC1325" font-family="'CrimsonText-Roman'" font-size="21.2212">20 </text>
<text transform="matrix(1 0 0 1 2.4355 79.6592)" fill="#FC1325" font-family="'CrimsonText-Roman'" font-size="29.4286">muscle tension</text>
<text transform="matrix(1 0 0 1 173.6895 69.8594)" fill="#FC1325" font-family="'CrimsonText-Roman'" font-size="17.1569">15 </text>
<text transform="matrix(1 0 0 1 315.0132 79.5107)" fill="#FC1325" font-family="'CrimsonText-Roman'" font-size="25.9429">orange juice</text>
<text transform="matrix(1 0 0 1 437.8359 70.8721)" fill="#FC1325" font-family="'CrimsonText-Roman'" font-size="15.1247">14 </text>
<text transform="matrix(1 0 0 1 576.7383 79.3633)" fill="#FC1325" font-family="'CrimsonText-Roman'" font-size="22.4571">white powder</text>
<text transform="matrix(1 0 0 1 698.8477 71.8848)" fill="#FC1325" font-family="'CrimsonText-Roman'" font-size="13.0925">12 </text>
<text transform="matrix(1 0 0 1 835.4043 79.2148)" fill="#FC1325" font-family="'CrimsonText-Roman'" font-size="18.9714">blah blah</text>
<text transform="matrix(1 0 0 1 902.748 72.8975)" fill="#FC1325" font-family="'CrimsonText-Roman'" font-size="11.0603">10 </text>
<text transform="matrix(1 0 0 1 1036.9287 79.2148)" fill="#FC1325" font-family="'CrimsonText-Roman'" font-size="18.9714">higher doses</text>
<text transform="matrix(1 0 0 1 1129.5059 72.8975)" fill="#FC1325" font-family="'CrimsonText-Roman'" font-size="11.0603">10 </text>
<text transform="matrix(1 0 0 1 2.4355 120.3369)" fill="#FC1325" font-family="'CrimsonText-Roman'" font-size="18.9714">low doses</text>
<text transform="matrix(1 0 0 1 74.3008 114.0195)" fill="#FC1325" font-family="'CrimsonText-Roman'" font-size="11.0603">9 </text>
<text transform="matrix(1 0 0 1 145.4004 119.9727)" fill="#FC1325" font-family="'CrimsonText-Roman'" font-size="15.4857">empathogenic qualities</text>
<text transform="matrix(1 0 0 1 284.3633 114.8154)" fill="#FC1325" font-family="'CrimsonText-Roman'" font-size="9.0282">8 </text>
<text transform="matrix(1 0 0 1 354.0479 119.9727)" fill="#FC1325" font-family="'CrimsonText-Roman'" font-size="15.4857">heart rate</text>
<text transform="matrix(1 0 0 1 412.3154 114.8154)" fill="#FC1325" font-family="'CrimsonText-Roman'" font-size="9.0282">8 </text>
<text transform="matrix(1 0 0 1 482.0005 119.9727)" fill="#FC1325" font-family="'CrimsonText-Roman'" font-size="15.4857">motor skills</text>
<text transform="matrix(1 0 0 1 553.501 114.8154)" fill="#FC1325" font-family="'CrimsonText-Roman'" font-size="9.0282">8 </text>
<text transform="matrix(1 0 0 1 623.1855 119.9727)" fill="#FC1325" font-family="'CrimsonText-Roman'" font-size="15.4857">paying attention</text>
<text transform="matrix(1 0 0 1 722.4355 114.8154)" fill="#FC1325" font-family="'CrimsonText-Roman'" font-size="9.0282">8 </text>
<text transform="matrix(1 0 0 1 792.1201 119.9727)" fill="#FC1325" font-family="'CrimsonText-Roman'" font-size="15.4857">fully dilated</text>
<text transform="matrix(1 0 0 1 862.9551 114.8154)" fill="#FC1325" font-family="'CrimsonText-Roman'" font-size="9.0282">7 </text>
<text transform="matrix(1 0 0 1 932.6309 119.9727)" fill="#FC1325" font-family="'CrimsonText-Roman'" font-size="15.4857">holy shit</text>
<text transform="matrix(1 0 0 1 984.7441 114.8154)" fill="#FC1325" font-family="'CrimsonText-Roman'" font-size="9.0282">7 </text>
<text transform="matrix(1 0 0 1 1054.4199 119.9727)" fill="#FC1325" font-family="'CrimsonText-Roman'" font-size="15.4857">chewing gum</text>
<text transform="matrix(1 0 0 1 1136.1582 114.8154)" fill="#FC1325" font-family="'CrimsonText-Roman'" font-size="9.0282">7 </text>
<text transform="matrix(1 0 0 1 2.4355 155.0537)" fill="#FC1325" font-family="'CrimsonText-Roman'" font-size="15.4857">lower doses</text>
<text transform="matrix(1 0 0 1 73.3462 149.8965)" fill="#FC1325" font-family="'CrimsonText-Roman'" font-size="9.0282">7 </text>
<text transform="matrix(1 0 0 1 144.8555 155.0537)" fill="#FC1325" font-family="'CrimsonText-Roman'" font-size="15.4857">nitrous oxide</text>
<text transform="matrix(1 0 0 1 224.915 149.8965)" fill="#FC1325" font-family="'CrimsonText-Roman'" font-size="9.0282">7</text>
<text transform="matrix(1 0 0 1 229.1738 155.0537)" fill="#FC1325" font-family="'CrimsonText-Roman'" font-size="15.4857"> </text>
<text transform="matrix(1 0 0 1 298.2471 154.877)" fill="#FC1325" font-family="'CrimsonText-Roman'" font-size="15.4857">joshua tree</text>
<text transform="matrix(1 0 0 1 364.1821 149.7197)" fill="#FC1325" font-family="'CrimsonText-Roman'" font-size="9.0282">7</text>
<text transform="matrix(1 0 0 1 368.4404 154.877)" fill="#FC1325" font-family="'CrimsonText-Roman'" font-size="15.4857"> </text>
<text transform="matrix(1 0 0 1 437.1353 154.877)" fill="#FC1325" font-family="'CrimsonText-Roman'" font-size="15.4857">blood pressure</text>
<text transform="matrix(1 0 0 1 525.7852 149.7197)" fill="#FC1325" font-family="'CrimsonText-Roman'" font-size="9.0282">7</text>
<text transform="matrix(1 0 0 1 530.043 154.877)" fill="#FC1325" font-family="'CrimsonText-Roman'" font-size="15.4857"> </text>
<text transform="matrix(1 0 0 1 598.7383 154.7285)" fill="#FC1325" font-family="'CrimsonText-Roman'" font-size="12">coffee shop</text>
<text transform="matrix(1 0 0 1 651.6602 150.7324)" fill="#FC1325" font-family="'CrimsonText-Roman'" font-size="6.996">6</text>
<text transform="matrix(1 0 0 1 654.9668 154.7285)" fill="#FC1325" font-family="'CrimsonText-Roman'" font-size="12"> </text>
<text transform="matrix(1 0 0 1 722.8818 154.7285)" fill="#FC1325" font-family="'CrimsonText-Roman'" font-size="12">lost control</text>
<text transform="matrix(1 0 0 1 776.5068 150.7324)" fill="#FC1325" font-family="'CrimsonText-Roman'" font-size="6.996">l6</text>
<text transform="matrix(1 0 0 1 781.5283 154.7285)" fill="#FC1325" font-family="'CrimsonText-Roman'" font-size="12"> </text>
<text transform="matrix(1 0 0 1 849.4443 154.7285)" fill="#FC1325" font-family="'CrimsonText-Roman'" font-size="12">gel cap</text>
<text transform="matrix(1 0 0 1 881.3545 150.7324)" fill="#FC1325" font-family="'CrimsonText-Roman'" font-size="6.996">6</text>
<text transform="matrix(1 0 0 1 884.6611 154.7285)" fill="#FC1325" font-family="'CrimsonText-Roman'" font-size="12"> </text>
<text transform="matrix(1 0 0 1 952.5762 154.7285)" fill="#FC1325" font-family="'CrimsonText-Roman'" font-size="12">dpt freebase</text>
<text transform="matrix(1 0 0 1 1008.8613 150.7324)" fill="#FC1325" font-family="'CrimsonText-Roman'" font-size="6.996">6</text>
<text transform="matrix(1 0 0 1 1012.168 154.7285)" fill="#FC1325" font-family="'CrimsonText-Roman'" font-size="12"> </text>
<text transform="matrix(1 0 0 1 1080.084 154.7285)" fill="#FC1325" font-family="'CrimsonText-Roman'" font-size="12">medical tent</text>
<text transform="matrix(1 0 0 1 1137.5645 150.7324)" fill="#FC1325" font-family="'CrimsonText-Roman'" font-size="6.996">6 </text>
<text transform="matrix(1 0 0 1 2.4355 189.7285)" fill="#FC1325" font-family="'CrimsonText-Roman'" font-size="12">salvia divinorum</text>
<text transform="matrix(1 0 0 1 81.2441 185.7324)" fill="#FC1325" font-family="'CrimsonText-Roman'" font-size="6.996">6 </text>
<text transform="matrix(1 0 0 1 139.583 189.7285)" fill="#FC1325" font-family="'CrimsonText-Roman'" font-size="12">stomach discomfort</text>
<text transform="matrix(1 0 0 1 232.3369 185.7324)" fill="#FC1325" font-family="'CrimsonText-Roman'" font-size="6.996">6</text>
<text transform="matrix(1 0 0 1 235.6436 189.7285)" fill="#FC1325" font-family="'CrimsonText-Roman'" font-size="12"> </text>
<text transform="matrix(1 0 0 1 288.7949 189.7285)" fill="#FC1325" font-family="'CrimsonText-Roman'" font-size="12">stay awake</text>
<text transform="matrix(1 0 0 1 339.0098 185.7324)" fill="#FC1325" font-family="'CrimsonText-Roman'" font-size="6.996">6 </text>
<text transform="matrix(1 0 0 1 382.3486 189.7285)" fill="#FC1325" font-family="'CrimsonText-Roman'" font-size="12">attention span</text>
<text transform="matrix(1 0 0 1 449.4385 185.7324)" fill="#FC1325" font-family="'CrimsonText-Roman'" font-size="6.996">5</text>
<text transform="matrix(1 0 0 1 452.752 189.7285)" fill="#FC1325" font-family="'CrimsonText-Roman'" font-size="12"> </text>
</svg>
