<?xml version="1.0" encoding="utf-8"?>
<!-- Generator: Adobe Illustrator 16.0.4, SVG Export Plug-In . SVG Version: 6.00 Build 0)  -->
<!DOCTYPE svg PUBLIC "-//W3C//DTD SVG 1.1//EN" "http://www.w3.org/Graphics/SVG/1.1/DTD/svg11.dtd">
<svg version="1.1"
	 id="Layer_1" a3:scriptImplementation="Adobe" xmlns:a3="http://ns.adobe.com/AdobeSVGViewerExtensions/3.0/" xmlns:text="http://xmlns.graougraou.com/svg/text/"
	 xmlns="http://www.w3.org/2000/svg" xmlns:xlink="http://www.w3.org/1999/xlink" x="0px" y="0px" width="1140px" height="196px"
	 viewBox="14.588 307.329 1140 196" enable-background="new 14.588 307.329 1140 196" xml:space="preserve">
<text transform="matrix(1 0 0 1 14.5879 362.3293)" fill="#FC1325" font-family="'CrimsonText-Roman'" font-size="43.3714">heart attack</text>
<text transform="matrix(0.583 0 0 0.583 212.8511 347.8865)" fill="#FC1325" font-family="'CrimsonText-Roman'" font-size="43.3714">26 </text>
<text transform="matrix(1 0 0 1 333.4595 362.3293)" fill="#FC1325" font-family="'CrimsonText-Roman'" font-size="43.3714">heart rate</text>
<text transform="matrix(0.583 0 0 0.583 496.6528 347.8865)" fill="#FC1325" font-family="'CrimsonText-Roman'" font-size="43.3714">25 </text>
<text transform="matrix(1 0 0 1 622.3789 361.4924)" fill="#FC1325" font-family="'CrimsonText-Roman'" font-size="39.8857">crystal meth</text>
<text transform="matrix(0.583 0 0 0.583 812.8096 348.2112)" fill="#FC1325" font-family="'CrimsonText-Roman'" font-size="39.8857">23 </text>
<text transform="matrix(1 0 0 1 910.5039 361.4924)" fill="#FC1325" font-family="'CrimsonText-Roman'" font-size="39.8857">white powder</text>
<text transform="matrix(0.583 0 0 0.583 1127.3828 348.2112)" fill="#FC1325" font-family="'CrimsonText-Roman'" font-size="39.8857">23 </text>
<text transform="matrix(1 0 0 1 14.5879 403.1536)" fill="#FC1325" font-family="'CrimsonText-Roman'" font-size="29.4286">addictive personality</text>
<text transform="matrix(0.583 0 0 0.583 252.2578 393.3538)" fill="#FC1325" font-family="'CrimsonText-Roman'" font-size="29.4286">18 </text>
<text transform="matrix(1 0 0 1 359.2104 403.3293)" fill="#FC1325" font-family="'CrimsonText-Roman'" font-size="25.9429">fat line</text>
<text transform="matrix(0.583 0 0 0.583 429.1348 394.6902)" fill="#FC1325" font-family="'CrimsonText-Roman'" font-size="25.9429">15</text>
<text transform="matrix(1 0 0 1 443.4468 403.3293)" fill="#FC1325" font-family="'CrimsonText-Roman'" font-size="25.9429"> </text>
<text transform="matrix(1 0 0 1 536.146 403.1536)" fill="#FC1325" font-family="'CrimsonText-Roman'" font-size="22.4571">san diego</text>
<text transform="matrix(0.583 0 0 0.583 618.0361 395.6755)" fill="#FC1325" font-family="'CrimsonText-Roman'" font-size="22.4571">14 </text>
<text transform="matrix(1 0 0 1 720.2119 403.1536)" fill="#FC1325" font-family="'CrimsonText-Roman'" font-size="18.9714">coke user</text>
<text transform="matrix(0.583 0 0 0.583 789.7998 396.8362)" fill="#FC1325" font-family="'CrimsonText-Roman'" font-size="18.9714">12 </text>
<text transform="matrix(1 0 0 1 889.625 403.3293)" fill="#FC1325" font-family="'CrimsonText-Roman'" font-size="18.9714">regular basis</text>
<text transform="matrix(0.583 0 0 0.583 982.1289 397.012)" fill="#FC1325" font-family="'CrimsonText-Roman'" font-size="18.9714">11 </text>
<text transform="matrix(1 0 0 1 1081.9551 403.1536)" fill="#FC1325" font-family="'CrimsonText-Roman'" font-size="15.4857">coke habit</text>
<text transform="matrix(0.583 0 0 0.583 1144.0342 397.9968)" fill="#FC1325" font-family="'CrimsonText-Roman'" font-size="15.4857">10 </text>
<text transform="matrix(1 0 0 1 14.5879 442.2278)" fill="#FC1325" font-family="'CrimsonText-Roman'" font-size="15.4857">razor blade</text>
<text transform="matrix(0.583 0 0 0.583 81.6729 437.0715)" fill="#FC1325" font-family="'CrimsonText-Roman'" font-size="15.4857">9 </text>
<text transform="matrix(1 0 0 1 137.1138 442.2278)" fill="#FC1325" font-family="'CrimsonText-Roman'" font-size="15.4857">sized line</text>
<text transform="matrix(0.583 0 0 0.583 192.9316 437.0715)" fill="#FC1325" font-family="'CrimsonText-Roman'" font-size="15.4857">9 </text>
<text transform="matrix(1 0 0 1 248.3721 442.2278)" fill="#FC1325" font-family="'CrimsonText-Roman'" font-size="15.4857">special occasions</text>
<text transform="matrix(0.583 0 0 0.583 349.0894 437.0715)" fill="#FC1325" font-family="'CrimsonText-Roman'" font-size="15.4857">9 </text>
<text transform="matrix(1 0 0 1 404.5303 442.2278)" fill="#FC1325" font-family="'CrimsonText-Roman'" font-size="15.4857">story short</text>
<text transform="matrix(0.583 0 0 0.583 470.1479 437.0715)" fill="#FC1325" font-family="'CrimsonText-Roman'" font-size="15.4857">9 </text>
<text transform="matrix(1 0 0 1 525.5884 442.2395)" fill="#FC1325" font-family="'CrimsonText-Roman'" font-size="12">cocaine user</text>
<text transform="matrix(0.583 0 0 0.583 583.0107 438.2434)" fill="#FC1325" font-family="'CrimsonText-Roman'" font-size="12">8 </text>
<text transform="matrix(1 0 0 1 637.0361 442.2395)" fill="#FC1325" font-family="'CrimsonText-Roman'" font-size="12">cold turkey</text>
<text transform="matrix(0.583 0 0 0.583 689.5713 438.2434)" fill="#FC1325" font-family="'CrimsonText-Roman'" font-size="12">8</text>
<text transform="matrix(1 0 0 1 692.8779 442.2395)" fill="#FC1325" font-family="'CrimsonText-Roman'" font-size="12"> </text>
<text transform="matrix(1 0 0 1 744.7158 442.2395)" fill="#FC1325" font-family="'CrimsonText-Roman'" font-size="12">crack cocaine</text>
<text transform="matrix(0.583 0 0 0.583 807.0947 438.2434)" fill="#FC1325" font-family="'CrimsonText-Roman'" font-size="12">8</text>
<text transform="matrix(1 0 0 1 810.4014 442.2395)" fill="#FC1325" font-family="'CrimsonText-Roman'" font-size="12"> </text>
<text transform="matrix(1 0 0 1 862.2393 442.2395)" fill="#FC1325" font-family="'CrimsonText-Roman'" font-size="12">credit card</text>
<text transform="matrix(0.583 0 0 0.583 911.7979 438.2434)" fill="#FC1325" font-family="'CrimsonText-Roman'" font-size="12">8 </text>
<text transform="matrix(1 0 0 1 965.8242 442.2395)" fill="#FC1325" font-family="'CrimsonText-Roman'" font-size="12">daily basis</text>
<text transform="matrix(0.583 0 0 0.583 1013.0742 438.2434)" fill="#FC1325" font-family="'CrimsonText-Roman'" font-size="12">8 </text>
<text transform="matrix(1 0 0 1 1067.0996 442.2395)" fill="#FC1325" font-family="'CrimsonText-Roman'" font-size="12">extreme euphoria</text>
<text transform="matrix(0.583 0 0 0.583 1149.7168 438.2434)" fill="#FC1325" font-family="'CrimsonText-Roman'" font-size="12">8 </text>
<text transform="matrix(1 0 0 1 14.5879 480.8293)" fill="#FC1325" font-family="'CrimsonText-Roman'" font-size="12">grocery store</text>
<text transform="matrix(0.583 0 0 0.583 76.1699 476.8333)" fill="#FC1325" font-family="'CrimsonText-Roman'" font-size="12">8</text>
<text transform="matrix(1 0 0 1 79.4766 480.8293)" fill="#FC1325" font-family="'CrimsonText-Roman'" font-size="12"> </text>
<text transform="matrix(1 0 0 1 143.3374 480.8293)" fill="#FC1325" font-family="'CrimsonText-Roman'" font-size="12">heart beat</text>
<text transform="matrix(0.583 0 0 0.583 189.8843 476.8333)" fill="#FC1325" font-family="'CrimsonText-Roman'" font-size="12">8</text>
<text transform="matrix(1 0 0 1 193.1909 480.8293)" fill="#FC1325" font-family="'CrimsonText-Roman'" font-size="12"> </text>
<text transform="matrix(1 0 0 1 257.0518 480.8293)" fill="#FC1325" font-family="'CrimsonText-Roman'" font-size="12">meth addict</text>
<text transform="matrix(0.583 0 0 0.583 312.2236 476.8333)" fill="#FC1325" font-family="'CrimsonText-Roman'" font-size="12">8</text>
<text transform="matrix(1 0 0 1 315.5303 480.8293)" fill="#FC1325" font-family="'CrimsonText-Roman'" font-size="12"> </text>
<text transform="matrix(1 0 0 1 379.3911 480.8293)" fill="#FC1325" font-family="'CrimsonText-Roman'" font-size="12">older brother</text>
<text transform="matrix(0.583 0 0 0.583 441.9692 476.8333)" fill="#FC1325" font-family="'CrimsonText-Roman'" font-size="12">8</text>
<text transform="matrix(1 0 0 1 445.2759 480.8293)" fill="#FC1325" font-family="'CrimsonText-Roman'" font-size="12"> </text>
<text transform="matrix(1 0 0 1 509.1367 480.8293)" fill="#FC1325" font-family="'CrimsonText-Roman'" font-size="12">shooting coke</text>
<text transform="matrix(0.583 0 0 0.583 574.5156 476.8333)" fill="#FC1325" font-family="'CrimsonText-Roman'" font-size="12">8 </text>
<text transform="matrix(1 0 0 1 640.5645 480.8293)" fill="#FC1325" font-family="'CrimsonText-Roman'" font-size="12">thank god</text>
<text transform="matrix(0.583 0 0 0.583 687.627 476.8333)" fill="#FC1325" font-family="'CrimsonText-Roman'" font-size="12">8 </text>
<text transform="matrix(1 0 0 1 753.6748 480.8293)" fill="#FC1325" font-family="'CrimsonText-Roman'" font-size="12">baking soda</text>
<text transform="matrix(0.583 0 0 0.583 809.0107 476.8333)" fill="#FC1325" font-family="'CrimsonText-Roman'" font-size="12">7 </text>
<text transform="matrix(1 0 0 1 875.0527 480.8293)" fill="#FC1325" font-family="'CrimsonText-Roman'" font-size="12">cocaine hcl</text>
<text transform="matrix(0.583 0 0 0.583 926.6152 476.8333)" fill="#FC1325" font-family="'CrimsonText-Roman'" font-size="12">7 </text>
<text transform="matrix(1 0 0 1 992.6572 480.8293)" fill="#FC1325" font-family="'CrimsonText-Roman'" font-size="12">dry mouth</text>
<text transform="matrix(0.583 0 0 0.583 1042.2393 476.8333)" fill="#FC1325" font-family="'CrimsonText-Roman'" font-size="12">7</text>
<text transform="matrix(1 0 0 1 1045.5381 480.8293)" fill="#FC1325" font-family="'CrimsonText-Roman'" font-size="12"> </text>
<text transform="matrix(1 0 0 1 1109.3994 480.8293)" fill="#FC1325" font-family="'CrimsonText-Roman'" font-size="12">las vegas</text>
<text transform="matrix(0.583 0 0 0.583 1149.7236 476.8333)" fill="#FC1325" font-family="'CrimsonText-Roman'" font-size="12">7 </text>
</svg>
