<?xml version="1.0" encoding="utf-8"?>
<!-- Generator: Adobe Illustrator 16.0.4, SVG Export Plug-In . SVG Version: 6.00 Build 0)  -->
<!DOCTYPE svg PUBLIC "-//W3C//DTD SVG 1.1//EN" "http://www.w3.org/Graphics/SVG/1.1/DTD/svg11.dtd">
<svg version="1.1"
	 id="Layer_1" a3:scriptImplementation="Adobe" xmlns:a3="http://ns.adobe.com/AdobeSVGViewerExtensions/3.0/" xmlns:text="http://xmlns.graougraou.com/svg/text/"
	 xmlns="http://www.w3.org/2000/svg" xmlns:xlink="http://www.w3.org/1999/xlink" x="0px" y="0px" width="1140px" height="210px"
	 viewBox="14.588 300.329 1140 210" enable-background="new 14.588 300.329 1140 210" xml:space="preserve">
<text transform="matrix(1 0 0 1 14.5879 348.3572)" fill="#3CEEED" font-family="'CrimsonText-Roman'" font-size="64.8396">cough syrup</text>
<text transform="matrix(0.583 0 0 0.583 323.9692 326.7654)" fill="#3CEEED" font-family="'CrimsonText-Roman'" font-size="64.8396">196 </text>
<text transform="matrix(1 0 0 1 420.6177 348.3572)" fill="#3CEEED" font-family="'CrimsonText-Roman'" font-size="32.9143">chlorpheniramine maleate</text>
<text transform="matrix(0.583 0 0 0.583 758.2471 337.3967)" fill="#3CEEED" font-family="'CrimsonText-Roman'" font-size="32.9143">73 </text>
<text transform="matrix(1 0 0 1 815.2715 348.3572)" fill="#3CEEED" font-family="'CrimsonText-Roman'" font-size="25.9429">brand warnings</text>
<text transform="matrix(0.583 0 0 0.583 974.7793 339.718)" fill="#3CEEED" font-family="'CrimsonText-Roman'" font-size="25.9429">63 </text>
<text transform="matrix(1 0 0 1 14.5879 392.1418)" fill="#3CEEED" font-family="'CrimsonText-Roman'" font-size="25.9429">erowid warning</text>
<text transform="matrix(0.583 0 0 0.583 177.1108 383.5027)" fill="#3CEEED" font-family="'CrimsonText-Roman'" font-size="25.9429">61 </text>
<text transform="matrix(1 0 0 1 272.665 392.1418)" fill="#3CEEED" font-family="'CrimsonText-Roman'" font-size="25.9429">contains cpm</text>
<text transform="matrix(0.583 0 0 0.583 407.2183 383.5027)" fill="#3CEEED" font-family="'CrimsonText-Roman'" font-size="25.9429">60 </text>
<text transform="matrix(1 0 0 1 493.5625 392.1418)" fill="#3CEEED" font-family="'CrimsonText-Roman'" font-size="25.9429">coricidin contains</text>
<text transform="matrix(0.583 0 0 0.583 674.5039 383.5027)" fill="#3CEEED" font-family="'CrimsonText-Roman'" font-size="25.9429">60 </text>
<text transform="matrix(1 0 0 1 731.2178 392.1418)" fill="#3CEEED" font-family="'CrimsonText-Roman'" font-size="25.9429">maximum strength</text>
<text transform="matrix(0.583 0 0 0.583 925.0039 383.5027)" fill="#3CEEED" font-family="'CrimsonText-Roman'" font-size="25.9429">55 </text>
<text transform="matrix(1 0 0 1 1007.5273 392.1418)" fill="#3CEEED" font-family="'CrimsonText-Roman'" font-size="22.4571">strength cough</text>
<text transform="matrix(0.583 0 0 0.583 1139.3096 384.6638)" fill="#3CEEED" font-family="'CrimsonText-Roman'" font-size="22.4571">46 </text>
<text transform="matrix(1 0 0 1 14.5879 432.8196)" fill="#3CEEED" font-family="'CrimsonText-Roman'" font-size="18.9714">3rd plateau</text>
<text transform="matrix(0.583 0 0 0.583 97.2173 426.5022)" fill="#3CEEED" font-family="'CrimsonText-Roman'" font-size="18.9714">36 </text>
<text transform="matrix(1 0 0 1 181.1616 431.9329)" fill="#3CEEED" font-family="'CrimsonText-Roman'" font-size="15.4857">2nd plateau</text>
<text transform="matrix(0.583 0 0 0.583 251.0591 426.7766)" fill="#3CEEED" font-family="'CrimsonText-Roman'" font-size="15.4857">34 </text>
<text transform="matrix(1 0 0 1 332.6079 432.9329)" fill="#3CEEED" font-family="'CrimsonText-Roman'" font-size="15.4857">coricidin cough</text>
<text transform="matrix(0.583 0 0 0.583 426.5503 427.7766)" fill="#3CEEED" font-family="'CrimsonText-Roman'" font-size="15.4857">31 </text>
<text transform="matrix(1 0 0 1 508.1177 432.9329)" fill="#3CEEED" font-family="'CrimsonText-Roman'" font-size="15.4857">cough medicine</text>
<text transform="matrix(0.583 0 0 0.583 603.5127 427.7766)" fill="#3CEEED" font-family="'CrimsonText-Roman'" font-size="15.4857">31 </text>
<text transform="matrix(1 0 0 1 685.0791 432.9329)" fill="#3CEEED" font-family="'CrimsonText-Roman'" font-size="15.4857">robitussin maximum</text>
<text transform="matrix(0.583 0 0 0.583 810.9609 427.7766)" fill="#3CEEED" font-family="'CrimsonText-Roman'" font-size="15.4857">31 </text>
<text transform="matrix(1 0 0 1 892.5283 432.9329)" fill="#3CEEED" font-family="'CrimsonText-Roman'" font-size="15.4857">double vision</text>
<text transform="matrix(0.583 0 0 0.583 973.8271 427.7766)" fill="#3CEEED" font-family="'CrimsonText-Roman'" font-size="15.4857">29 </text>
<text transform="matrix(1 0 0 1 1055.3857 432.8196)" fill="#3CEEED" font-family="'CrimsonText-Roman'" font-size="15.4857">blood pressure</text>
<text transform="matrix(0.583 0 0 0.583 1144.0352 427.6633)" fill="#3CEEED" font-family="'CrimsonText-Roman'" font-size="15.4857">28 </text>
<text transform="matrix(1 0 0 1 14.5879 467.5364)" fill="#3CEEED" font-family="'CrimsonText-Roman'" font-size="15.4857">pure dxm</text>
<text transform="matrix(0.583 0 0 0.583 72.5229 462.3801)" fill="#3CEEED" font-family="'CrimsonText-Roman'" font-size="15.4857">26 </text>
<text transform="matrix(1 0 0 1 152.7598 467.5364)" fill="#3CEEED" font-family="'CrimsonText-Roman'" font-size="12">dxm powder</text>
<text transform="matrix(0.583 0 0 0.583 211.998 463.5403)" fill="#3CEEED" font-family="'CrimsonText-Roman'" font-size="12">24 </text>
<text transform="matrix(1 0 0 1 289.8452 467.7297)" fill="#3CEEED" font-family="'CrimsonText-Roman'" font-size="12">active ingredient</text>
<text transform="matrix(0.583 0 0 0.583 368.5015 463.7336)" fill="#3CEEED" font-family="'CrimsonText-Roman'" font-size="12">23 </text>
<text transform="matrix(1 0 0 1 446.3696 467.7297)" fill="#3CEEED" font-family="'CrimsonText-Roman'" font-size="12">dxm faq</text>
<text transform="matrix(0.583 0 0 0.583 483.9399 463.7336)" fill="#3CEEED" font-family="'CrimsonText-Roman'" font-size="12">21 </text>
<text transform="matrix(1 0 0 1 561.8013 467.7297)" fill="#3CEEED" font-family="'CrimsonText-Roman'" font-size="12">term memory</text>
<text transform="matrix(0.583 0 0 0.583 626.5713 463.7336)" fill="#3CEEED" font-family="'CrimsonText-Roman'" font-size="12">20 </text>
<text transform="matrix(1 0 0 1 704.4316 467.5354)" fill="#3CEEED" font-family="'CrimsonText-Roman'" font-size="12">thank god</text>
<text transform="matrix(0.583 0 0 0.583 751.4941 463.5393)" fill="#3CEEED" font-family="'CrimsonText-Roman'" font-size="12">20 </text>
<text transform="matrix(1 0 0 1 829.3564 467.5354)" fill="#3CEEED" font-family="'CrimsonText-Roman'" font-size="12">4oz bottle</text>
<text transform="matrix(0.583 0 0 0.583 875.6807 463.5393)" fill="#3CEEED" font-family="'CrimsonText-Roman'" font-size="12">19 </text>
<text transform="matrix(1 0 0 1 953.541 467.7297)" fill="#3CEEED" font-family="'CrimsonText-Roman'" font-size="12">brain damage</text>
<text transform="matrix(0.583 0 0 0.583 1016.7051 463.7336)" fill="#3CEEED" font-family="'CrimsonText-Roman'" font-size="12">19 </text>
<text transform="matrix(1 0 0 1 1094.5664 467.5364)" fill="#3CEEED" font-family="'CrimsonText-Roman'" font-size="12">4th plateau</text>
<text transform="matrix(0.583 0 0 0.583 1146.4102 463.5403)" fill="#3CEEED" font-family="'CrimsonText-Roman'" font-size="12">18 </text>
<text transform="matrix(1 0 0 1 14.5879 502.2102)" fill="#3CEEED" font-family="'CrimsonText-Roman'" font-size="12">8oz bottle</text>
<text transform="matrix(0.583 0 0 0.583 60.9355 498.2141)" fill="#3CEEED" font-family="'CrimsonText-Roman'" font-size="12">17 </text>
<text transform="matrix(1 0 0 1 130.1025 502.2112)" fill="#3CEEED" font-family="'CrimsonText-Roman'" font-size="12">gel caps</text>
<text transform="matrix(0.583 0 0 0.583 166.2197 498.2151)" fill="#3CEEED" font-family="'CrimsonText-Roman'" font-size="12">17 </text>
<text transform="matrix(1 0 0 1 235.3872 502.2102)" fill="#3CEEED" font-family="'CrimsonText-Roman'" font-size="12">heart rate</text>
<text transform="matrix(0.583 0 0 0.583 280.5396 498.2141)" fill="#3CEEED" font-family="'CrimsonText-Roman'" font-size="12">17 </text>
<text transform="matrix(1 0 0 1 349.707 502.2102)" fill="#3CEEED" font-family="'CrimsonText-Roman'" font-size="12">false positive</text>
<text transform="matrix(0.583 0 0 0.583 410.0352 498.2141)" fill="#3CEEED" font-family="'CrimsonText-Roman'" font-size="12">16 </text>
<text transform="matrix(1 0 0 1 479.209 502.2112)" fill="#3CEEED" font-family="'CrimsonText-Roman'" font-size="12">fourth plateau</text>
<text transform="matrix(0.583 0 0 0.583 545.4199 498.2151)" fill="#3CEEED" font-family="'CrimsonText-Roman'" font-size="12">15 </text>
<text transform="matrix(1 0 0 1 1027.0664 348.3567)" fill="#3CEEED" font-family="'CrimsonText-Roman'" font-size="25.9429">dxm brand</text>
<text transform="matrix(0.583 0 0 0.583 1136.8926 339.7175)" fill="#3CEEED" font-family="'CrimsonText-Roman'" font-size="25.9429">63 </text>
</svg>
