<?xml version="1.0" encoding="utf-8"?>
<!-- Generator: Adobe Illustrator 16.0.4, SVG Export Plug-In . SVG Version: 6.00 Build 0)  -->
<!DOCTYPE svg PUBLIC "-//W3C//DTD SVG 1.1//EN" "http://www.w3.org/Graphics/SVG/1.1/DTD/svg11.dtd">
<svg version="1.1"
	 id="Layer_1" xmlns:a3="http://ns.adobe.com/AdobeSVGViewerExtensions/3.0/" xmlns:text="http://xmlns.graougraou.com/svg/text/" a3:scriptImplementation="Adobe"
	 xmlns="http://www.w3.org/2000/svg" xmlns:xlink="http://www.w3.org/1999/xlink" x="0px" y="0px" width="1140px" height="323.5px"
	 viewBox="0 0 1140 323.5" enable-background="new 0 0 1140 323.5" xml:space="preserve">
<g>
	<text transform="matrix(1 0 0 1 0 47.1475)" fill="#FC1325" font-family="'CrimsonText-Roman'" font-size="65.0571">heart attack</text>
	<text transform="matrix(1 0 0 1 297.395 25.4839)" fill="#FC1325" font-family="'CrimsonText-Roman'" font-size="37.9282">26 </text>
</g>
<g>
	<text transform="matrix(1 0 0 1 433.0586 47.1475)" fill="#FC1325" font-family="'CrimsonText-Roman'" font-size="65.0571">heart rate</text>
	<text transform="matrix(1 0 0 1 677.8477 25.4839)" fill="#FC1325" font-family="'CrimsonText-Roman'" font-size="37.9282">25 </text>
</g>
<g>
	<text transform="matrix(1 0 0 1 817.8477 45.8667)" fill="#FC1325" font-family="'CrimsonText-Roman'" font-size="59.8285">crystal meth</text>
	<text transform="matrix(1 0 0 1 1103.4941 25.9448)" fill="#FC1325" font-family="'CrimsonText-Roman'" font-size="34.8801">23 </text>
</g>
<g>
	<text transform="matrix(1 0 0 1 0 128.5703)" fill="#FC1325" font-family="'CrimsonText-Roman'" font-size="59.8285">white powder</text>
	<text transform="matrix(1 0 0 1 325.3184 108.6484)" fill="#FC1325" font-family="'CrimsonText-Roman'" font-size="34.8801">23 </text>
</g>
<g>
	<text transform="matrix(1 0 0 1 401.6172 128.5703)" fill="#FC1325" font-family="'CrimsonText-Roman'" font-size="44.1429">addictive personality</text>
	<text transform="matrix(1 0 0 1 758.1221 113.8711)" fill="#FC1325" font-family="'CrimsonText-Roman'" font-size="25.7353">18 </text>
</g>
<g>
	<text transform="matrix(1 0 0 1 823.6973 128.3027)" fill="#FC1325" font-family="'CrimsonText-Roman'" font-size="38.9143">fat line</text>
	<text transform="matrix(1 0 0 1 928.584 115.3438)" fill="#FC1325" font-family="'CrimsonText-Roman'" font-size="22.687">15</text>
</g>
<g>
	<text transform="matrix(1 0 0 1 994.2471 127.6836)" fill="#FC1325" font-family="'CrimsonText-Roman'" font-size="33.6856">san diego</text>
	<text transform="matrix(1 0 0 1 1117.082 116.4668)" fill="#FC1325" font-family="'CrimsonText-Roman'" font-size="19.6388">14 </text>
</g>
<g>
	<text transform="matrix(1 0 0 1 0 189.5684)" fill="#FC1325" font-family="'CrimsonText-Roman'" font-size="28.4571">coke user</text>
	<text transform="matrix(1 0 0 1 104.3809 180.0918)" fill="#FC1325" font-family="'CrimsonText-Roman'" font-size="16.5905">12 </text>
</g>
<g>
	<text transform="matrix(1 0 0 1 170.0332 189.7441)" fill="#FC1325" font-family="'CrimsonText-Roman'" font-size="28.4571">regular basis</text>
	<text transform="matrix(1 0 0 1 308.791 180.2676)" fill="#FC1325" font-family="'CrimsonText-Roman'" font-size="16.5905">11 </text>
</g>
<g>
	<text transform="matrix(1 0 0 1 374.4443 189.123)" fill="#FC1325" font-family="'CrimsonText-Roman'" font-size="23.2285">coke habit</text>
	<text transform="matrix(1 0 0 1 467.5635 181.3877)" fill="#FC1325" font-family="'CrimsonText-Roman'" font-size="13.5423">10 </text>
</g>
<g>
	<text transform="matrix(1 0 0 1 529.6523 189.123)" fill="#FC1325" font-family="'CrimsonText-Roman'" font-size="23.2285">razor blade</text>
	<text transform="matrix(1 0 0 1 630.2793 181.3887)" fill="#FC1325" font-family="'CrimsonText-Roman'" font-size="13.5423">9 </text>
</g>
<g>
	<text transform="matrix(1 0 0 1 685.9678 189.123)" fill="#FC1325" font-family="'CrimsonText-Roman'" font-size="23.2285">sized line</text>
	<text transform="matrix(1 0 0 1 769.6943 181.3887)" fill="#FC1325" font-family="'CrimsonText-Roman'" font-size="13.5423">9 </text>
</g>
<g>
	<text transform="matrix(1 0 0 1 825.3828 189.123)" fill="#FC1325" font-family="'CrimsonText-Roman'" font-size="23.2285">special occasions</text>
	<text transform="matrix(1 0 0 1 976.458 181.3887)" fill="#FC1325" font-family="'CrimsonText-Roman'" font-size="13.5423">9 </text>
</g>
<g>
	<text transform="matrix(1 0 0 1 1032.1445 189.123)" fill="#FC1325" font-family="'CrimsonText-Roman'" font-size="23.2285">story short</text>
	<text transform="matrix(1 0 0 1 1130.5703 181.3887)" fill="#FC1325" font-family="'CrimsonText-Roman'" font-size="13.5423">9 </text>
</g>
<g>
	<text transform="matrix(1 0 0 1 -4.882812e-04 247.248)" fill="#FC1325" font-family="'CrimsonText-Roman'" font-size="18">cocaine user</text>
	<text transform="matrix(1 0 0 1 86.1338 241.2559)" fill="#FC1325" font-family="'CrimsonText-Roman'" font-size="10.494">8 </text>
</g>
<g>
	<text transform="matrix(1 0 0 1 149.0459 247.248)" fill="#FC1325" font-family="'CrimsonText-Roman'" font-size="18">cold turkey</text>
	<text transform="matrix(1 0 0 1 227.8501 241.2559)" fill="#FC1325" font-family="'CrimsonText-Roman'" font-size="10.494">8</text>
	<text transform="matrix(1 0 0 1 232.8091 247.248)" fill="#FC1325" font-family="'CrimsonText-Roman'" font-size="18"> </text>
</g>
<g>
	<text transform="matrix(1 0 0 1 292.4404 247.248)" fill="#FC1325" font-family="'CrimsonText-Roman'" font-size="18">crack cocaine</text>
	<text transform="matrix(1 0 0 1 386.0088 241.2559)" fill="#FC1325" font-family="'CrimsonText-Roman'" font-size="10.494">8</text>
	<text transform="matrix(1 0 0 1 390.9678 247.248)" fill="#FC1325" font-family="'CrimsonText-Roman'" font-size="18"> </text>
</g>
<g>
	<text transform="matrix(1 0 0 1 450.5991 247.248)" fill="#FC1325" font-family="'CrimsonText-Roman'" font-size="18">credit card</text>
	<text transform="matrix(1 0 0 1 524.937 241.2559)" fill="#FC1325" font-family="'CrimsonText-Roman'" font-size="10.494">8 </text>
</g>
<g>
	<text transform="matrix(1 0 0 1 587.8496 247.248)" fill="#FC1325" font-family="'CrimsonText-Roman'" font-size="18">daily basis</text>
	<text transform="matrix(1 0 0 1 658.7246 241.2559)" fill="#FC1325" font-family="'CrimsonText-Roman'" font-size="10.494">8 </text>
</g>
<g>
	<text transform="matrix(1 0 0 1 721.6377 246.8477)" fill="#FC1325" font-family="'CrimsonText-Roman'" font-size="18">extreme euphoria</text>
	<text transform="matrix(1 0 0 1 845.5654 240.8555)" fill="#FC1325" font-family="'CrimsonText-Roman'" font-size="10.494">8 </text>
</g>
<g>
	<text transform="matrix(1 0 0 1 908.4785 246.2529)" fill="#FC1325" font-family="'CrimsonText-Roman'" font-size="18">grocery store</text>
	<text transform="matrix(1 0 0 1 1000.6289 240.2598)" fill="#FC1325" font-family="'CrimsonText-Roman'" font-size="10.494">8</text>
	<text transform="matrix(1 0 0 1 983.5918 246.2529)" fill="#FC1325" font-family="'CrimsonText-Roman'" font-size="18"> </text>
</g>
<g>
	<text transform="matrix(1 0 0 1 1061.1943 246.2529)" fill="#FC1325" font-family="'CrimsonText-Roman'" font-size="18">heart beat</text>
	<text transform="matrix(1 0 0 1 1131.0146 240.2588)" fill="#FC1325" font-family="'CrimsonText-Roman'" font-size="10.494">8</text>
	<text transform="matrix(1 0 0 1 1135.9746 246.2529)" fill="#FC1325" font-family="'CrimsonText-Roman'" font-size="18"> </text>
</g>
<g>
	<text transform="matrix(1 0 0 1 0 297.3555)" fill="#FC1325" font-family="'CrimsonText-Roman'" font-size="18">meth addict</text>
	<text transform="matrix(1 0 0 1 82.7578 291.3613)" fill="#FC1325" font-family="'CrimsonText-Roman'" font-size="10.494">8</text>
	<text transform="matrix(1 0 0 1 87.7178 297.3555)" fill="#FC1325" font-family="'CrimsonText-Roman'" font-size="18"> </text>
</g>
<g>
	<text transform="matrix(1 0 0 1 154.0366 297.3555)" fill="#FC1325" font-family="'CrimsonText-Roman'" font-size="18">older brother</text>
	<text transform="matrix(1 0 0 1 247.9028 291.3613)" fill="#FC1325" font-family="'CrimsonText-Roman'" font-size="10.494">8</text>
	<text transform="matrix(1 0 0 1 252.8638 297.3555)" fill="#FC1325" font-family="'CrimsonText-Roman'" font-size="18"> </text>
</g>
<g>
	<text transform="matrix(1 0 0 1 319.1826 297.3555)" fill="#FC1325" font-family="'CrimsonText-Roman'" font-size="18">shooting coke</text>
	<text transform="matrix(1 0 0 1 417.251 291.3613)" fill="#FC1325" font-family="'CrimsonText-Roman'" font-size="10.494">8 </text>
</g>
<g>
	<text transform="matrix(1 0 0 1 486.8511 297.3555)" fill="#FC1325" font-family="'CrimsonText-Roman'" font-size="18">thank god</text>
	<text transform="matrix(1 0 0 1 557.4468 291.3613)" fill="#FC1325" font-family="'CrimsonText-Roman'" font-size="10.494">8 </text>
</g>
<g>
	<text transform="matrix(1 0 0 1 627.0469 297.3555)" fill="#FC1325" font-family="'CrimsonText-Roman'" font-size="18">baking soda</text>
	<text transform="matrix(1 0 0 1 710.0508 291.3613)" fill="#FC1325" font-family="'CrimsonText-Roman'" font-size="10.494">7 </text>
</g>
<g>
	<text transform="matrix(1 0 0 1 779.6416 297.3555)" fill="#FC1325" font-family="'CrimsonText-Roman'" font-size="18">cocaine hcl</text>
	<text transform="matrix(1 0 0 1 856.9873 291.3613)" fill="#FC1325" font-family="'CrimsonText-Roman'" font-size="10.494">7 </text>
</g>
<g>
	<text transform="matrix(1 0 0 1 926.5771 297.3555)" fill="#FC1325" font-family="'CrimsonText-Roman'" font-size="18">dry mouth</text>
	<text transform="matrix(1 0 0 1 1000.9502 291.3613)" fill="#FC1325" font-family="'CrimsonText-Roman'" font-size="10.494">7</text>
	<text transform="matrix(1 0 0 1 1005.8984 297.3555)" fill="#FC1325" font-family="'CrimsonText-Roman'" font-size="18"> </text>
</g>
<g>
	<text transform="matrix(1 0 0 1 1072.2168 297.3555)" fill="#FC1325" font-family="'CrimsonText-Roman'" font-size="18">las vegas</text>
	<text transform="matrix(1 0 0 1 1132.7031 291.3613)" fill="#FC1325" font-family="'CrimsonText-Roman'" font-size="10.494">7 </text>
</g>
</svg>
