<?xml version="1.0" encoding="utf-8"?>
<!-- Generator: Adobe Illustrator 16.0.4, SVG Export Plug-In . SVG Version: 6.00 Build 0)  -->
<!DOCTYPE svg PUBLIC "-//W3C//DTD SVG 1.1//EN" "http://www.w3.org/Graphics/SVG/1.1/DTD/svg11.dtd">
<svg version="1.1"
	 id="Layer_1" a3:scriptImplementation="Adobe" xmlns:a3="http://ns.adobe.com/AdobeSVGViewerExtensions/3.0/" xmlns:text="http://xmlns.graougraou.com/svg/text/"
	 xmlns="http://www.w3.org/2000/svg" xmlns:xlink="http://www.w3.org/1999/xlink" x="0px" y="0px" width="1140px" height="196px"
	 viewBox="0 0 1140 196" style="enable-background:new 0 0 1140 196" xml:space="preserve">

<text transform="matrix(1 0 0 1 0.1001 33.3291)" fill="#FC1325" font-family="'CrimsonText-Roman'" font-size="43.3714">heart attack</text>
<text transform="matrix(1 0 0 1 198.3633 18.8867)" fill="#FC1325" font-family="'CrimsonText-Roman'" font-size="25.2855">26 </text>
<text transform="matrix(1 0 0 1 318.9717 33.3291)" fill="#FC1325" font-family="'CrimsonText-Roman'" font-size="43.3714">heart rate</text>
<text transform="matrix(1 0 0 1 482.1646 18.8867)" fill="#FC1325" font-family="'CrimsonText-Roman'" font-size="25.2855">25 </text>
<text transform="matrix(1 0 0 1 607.8906 32.4922)" fill="#FC1325" font-family="'CrimsonText-Roman'" font-size="39.8857">crystal meth</text>
<text transform="matrix(1 0 0 1 798.3213 19.2109)" fill="#FC1325" font-family="'CrimsonText-Roman'" font-size="23.2534">23 </text>
<text transform="matrix(1 0 0 1 896.0156 32.4922)" fill="#FC1325" font-family="'CrimsonText-Roman'" font-size="39.8857">white powder</text>
<text transform="matrix(1 0 0 1 1112.8945 19.2109)" fill="#FC1325" font-family="'CrimsonText-Roman'" font-size="23.2534">23 </text>
<text transform="matrix(1 0 0 1 0.1001 74.1533)" fill="#FC1325" font-family="'CrimsonText-Roman'" font-size="29.4286">addictive personality</text>
<text transform="matrix(1 0 0 1 237.77 64.3535)" fill="#FC1325" font-family="'CrimsonText-Roman'" font-size="17.1569">18 </text>
<text transform="matrix(1 0 0 1 344.7227 74.3291)" fill="#FC1325" font-family="'CrimsonText-Roman'" font-size="25.9429">fat line</text>
<text transform="matrix(1 0 0 1 414.647 65.6895)" fill="#FC1325" font-family="'CrimsonText-Roman'" font-size="15.1247">15</text>
<text transform="matrix(1 0 0 1 428.959 74.3291)" fill="#FC1325" font-family="'CrimsonText-Roman'" font-size="25.9429"> </text>
<text transform="matrix(1 0 0 1 521.6582 74.1533)" fill="#FC1325" font-family="'CrimsonText-Roman'" font-size="22.4571">san diego</text>
<text transform="matrix(1 0 0 1 603.5479 66.6758)" fill="#FC1325" font-family="'CrimsonText-Roman'" font-size="13.0925">14 </text>
<text transform="matrix(1 0 0 1 705.7236 74.1533)" fill="#FC1325" font-family="'CrimsonText-Roman'" font-size="18.9714">coke user</text>
<text transform="matrix(1 0 0 1 775.3115 67.8359)" fill="#FC1325" font-family="'CrimsonText-Roman'" font-size="11.0603">12 </text>
<text transform="matrix(1 0 0 1 875.1367 74.3291)" fill="#FC1325" font-family="'CrimsonText-Roman'" font-size="18.9714">regular basis</text>
<text transform="matrix(1 0 0 1 967.6416 68.0117)" fill="#FC1325" font-family="'CrimsonText-Roman'" font-size="11.0603">11 </text>
<text transform="matrix(1 0 0 1 1067.4668 74.1533)" fill="#FC1325" font-family="'CrimsonText-Roman'" font-size="15.4857">coke habit</text>
<text transform="matrix(1 0 0 1 1129.5459 68.9961)" fill="#FC1325" font-family="'CrimsonText-Roman'" font-size="9.0282">10 </text>
<text transform="matrix(1 0 0 1 0.1001 113.2275)" fill="#FC1325" font-family="'CrimsonText-Roman'" font-size="15.4857">razor blade</text>
<text transform="matrix(1 0 0 1 67.1851 108.0713)" fill="#FC1325" font-family="'CrimsonText-Roman'" font-size="9.0282">9 </text>
<text transform="matrix(1 0 0 1 122.626 113.2275)" fill="#FC1325" font-family="'CrimsonText-Roman'" font-size="15.4857">sized line</text>
<text transform="matrix(1 0 0 1 178.4438 108.0713)" fill="#FC1325" font-family="'CrimsonText-Roman'" font-size="9.0282">9 </text>
<text transform="matrix(1 0 0 1 233.8843 113.2275)" fill="#FC1325" font-family="'CrimsonText-Roman'" font-size="15.4857">special occasions</text>
<text transform="matrix(1 0 0 1 334.6011 108.0713)" fill="#FC1325" font-family="'CrimsonText-Roman'" font-size="9.0282">9 </text>
<text transform="matrix(1 0 0 1 390.0425 113.2275)" fill="#FC1325" font-family="'CrimsonText-Roman'" font-size="15.4857">story short</text>
<text transform="matrix(1 0 0 1 455.6597 108.0713)" fill="#FC1325" font-family="'CrimsonText-Roman'" font-size="9.0282">9 </text>
<text transform="matrix(1 0 0 1 511.1006 113.2393)" fill="#FC1325" font-family="'CrimsonText-Roman'" font-size="12">cocaine user</text>
<text transform="matrix(1 0 0 1 568.5229 109.2441)" fill="#FC1325" font-family="'CrimsonText-Roman'" font-size="6.996">8 </text>
<text transform="matrix(1 0 0 1 622.5479 113.2393)" fill="#FC1325" font-family="'CrimsonText-Roman'" font-size="12">cold turkey</text>
<text transform="matrix(1 0 0 1 675.084 109.2441)" fill="#FC1325" font-family="'CrimsonText-Roman'" font-size="6.996">8</text>
<text transform="matrix(1 0 0 1 678.3896 113.2393)" fill="#FC1325" font-family="'CrimsonText-Roman'" font-size="12"> </text>
<text transform="matrix(1 0 0 1 730.2275 113.2393)" fill="#FC1325" font-family="'CrimsonText-Roman'" font-size="12">crack cocaine</text>
<text transform="matrix(1 0 0 1 792.6064 109.2441)" fill="#FC1325" font-family="'CrimsonText-Roman'" font-size="6.996">8</text>
<text transform="matrix(1 0 0 1 795.9131 113.2393)" fill="#FC1325" font-family="'CrimsonText-Roman'" font-size="12"> </text>
<text transform="matrix(1 0 0 1 847.751 113.2393)" fill="#FC1325" font-family="'CrimsonText-Roman'" font-size="12">credit card</text>
<text transform="matrix(1 0 0 1 897.3096 109.2441)" fill="#FC1325" font-family="'CrimsonText-Roman'" font-size="6.996">8 </text>
<text transform="matrix(1 0 0 1 951.3359 113.2393)" fill="#FC1325" font-family="'CrimsonText-Roman'" font-size="12">daily basis</text>
<text transform="matrix(1 0 0 1 998.5859 109.2441)" fill="#FC1325" font-family="'CrimsonText-Roman'" font-size="6.996">8 </text>
<text transform="matrix(1 0 0 1 1052.6113 113.2393)" fill="#FC1325" font-family="'CrimsonText-Roman'" font-size="12">extreme euphoria</text>
<text transform="matrix(1 0 0 1 1135.2295 109.2441)" fill="#FC1325" font-family="'CrimsonText-Roman'" font-size="6.996">8 </text>
<text transform="matrix(1 0 0 1 0.1001 151.8291)" fill="#FC1325" font-family="'CrimsonText-Roman'" font-size="12">grocery store</text>
<text transform="matrix(1 0 0 1 61.6821 147.833)" fill="#FC1325" font-family="'CrimsonText-Roman'" font-size="6.996">8</text>
<text transform="matrix(1 0 0 1 64.9888 151.8291)" fill="#FC1325" font-family="'CrimsonText-Roman'" font-size="12"> </text>
<text transform="matrix(1 0 0 1 128.8496 151.8291)" fill="#FC1325" font-family="'CrimsonText-Roman'" font-size="12">heart beat</text>
<text transform="matrix(1 0 0 1 175.3965 147.833)" fill="#FC1325" font-family="'CrimsonText-Roman'" font-size="6.996">8</text>
<text transform="matrix(1 0 0 1 178.7031 151.8291)" fill="#FC1325" font-family="'CrimsonText-Roman'" font-size="12"> </text>
<text transform="matrix(1 0 0 1 242.564 151.8291)" fill="#FC1325" font-family="'CrimsonText-Roman'" font-size="12">meth addict</text>
<text transform="matrix(1 0 0 1 297.7358 147.833)" fill="#FC1325" font-family="'CrimsonText-Roman'" font-size="6.996">8</text>
<text transform="matrix(1 0 0 1 301.0425 151.8291)" fill="#FC1325" font-family="'CrimsonText-Roman'" font-size="12"> </text>
<text transform="matrix(1 0 0 1 364.9033 151.8291)" fill="#FC1325" font-family="'CrimsonText-Roman'" font-size="12">older brother</text>
<text transform="matrix(1 0 0 1 427.481 147.833)" fill="#FC1325" font-family="'CrimsonText-Roman'" font-size="6.996">8</text>
<text transform="matrix(1 0 0 1 430.7881 151.8291)" fill="#FC1325" font-family="'CrimsonText-Roman'" font-size="12"> </text>
<text transform="matrix(1 0 0 1 494.6489 151.8291)" fill="#FC1325" font-family="'CrimsonText-Roman'" font-size="12">shooting coke</text>
<text transform="matrix(1 0 0 1 560.0278 147.833)" fill="#FC1325" font-family="'CrimsonText-Roman'" font-size="6.996">8 </text>
<text transform="matrix(1 0 0 1 626.0762 151.8291)" fill="#FC1325" font-family="'CrimsonText-Roman'" font-size="12">thank god</text>
<text transform="matrix(1 0 0 1 673.1396 147.833)" fill="#FC1325" font-family="'CrimsonText-Roman'" font-size="6.996">8 </text>
<text transform="matrix(1 0 0 1 739.1865 151.8291)" fill="#FC1325" font-family="'CrimsonText-Roman'" font-size="12">baking soda</text>
<text transform="matrix(1 0 0 1 794.5225 147.833)" fill="#FC1325" font-family="'CrimsonText-Roman'" font-size="6.996">7 </text>
<text transform="matrix(1 0 0 1 860.5645 151.8291)" fill="#FC1325" font-family="'CrimsonText-Roman'" font-size="12">cocaine hcl</text>
<text transform="matrix(1 0 0 1 912.1279 147.833)" fill="#FC1325" font-family="'CrimsonText-Roman'" font-size="6.996">7 </text>
<text transform="matrix(1 0 0 1 978.1689 151.8291)" fill="#FC1325" font-family="'CrimsonText-Roman'" font-size="12">dry mouth</text>
<text transform="matrix(1 0 0 1 1027.751 147.833)" fill="#FC1325" font-family="'CrimsonText-Roman'" font-size="6.996">7</text>
<text transform="matrix(1 0 0 1 1031.0498 151.8291)" fill="#FC1325" font-family="'CrimsonText-Roman'" font-size="12"> </text>
<text transform="matrix(1 0 0 1 1094.9111 151.8291)" fill="#FC1325" font-family="'CrimsonText-Roman'" font-size="12">las vegas</text>
<text transform="matrix(1 0 0 1 1135.2354 147.833)" fill="#FC1325" font-family="'CrimsonText-Roman'" font-size="6.996">7 </text>
</svg>
