<?xml version="1.0" encoding="utf-8"?>
<!-- Generator: Adobe Illustrator 16.0.4, SVG Export Plug-In . SVG Version: 6.00 Build 0)  -->
<!DOCTYPE svg PUBLIC "-//W3C//DTD SVG 1.1//EN" "http://www.w3.org/Graphics/SVG/1.1/DTD/svg11.dtd">
<svg version="1.1"
	 id="Layer_1" xmlns:a3="http://ns.adobe.com/AdobeSVGViewerExtensions/3.0/" xmlns:text="http://xmlns.graougraou.com/svg/text/" a3:scriptImplementation="Adobe"
	 xmlns="http://www.w3.org/2000/svg" xmlns:xlink="http://www.w3.org/1999/xlink" x="0px" y="0px" width="1140px"
	 height="391.497px" viewBox="272 225.393 1140 391.497" enable-background="new 272 225.393 1140 391.497" xml:space="preserve">
<g>
	<text transform="matrix(1 0 0 1 272 290.4974)" fill="#A478D6" font-family="'CrimsonText-Roman'" font-size="85.7833">glass pipe</text>
	<text transform="matrix(1 0 0 1 591.6768 261.931)" fill="#A478D6" font-family="'CrimsonText-Roman'" font-size="50.0117">50 </text>
</g>
<g>
	<text transform="matrix(1 0 0 1 658.8633 291.3627)" fill="#A478D6" font-family="'CrimsonText-Roman'" font-size="62.3032">syrian rue</text>
	<text transform="matrix(1 0 0 1 901.2607 270.6156)" fill="#A478D6" font-family="'CrimsonText-Roman'" font-size="36.3227">39 </text>
</g>
<g>
	<text transform="matrix(1 0 0 1 959.4326 290.6957)" fill="#A478D6" font-family="'CrimsonText-Roman'" font-size="57.296">geometric patterns</text>
	<text transform="matrix(1 0 0 1 1379.9209 271.6156)" fill="#A478D6" font-family="'CrimsonText-Roman'" font-size="33.4036">36 </text>
</g>
<g>
	<text transform="matrix(1 0 0 1 272 371.6332)" fill="#A478D6" font-family="'CrimsonText-Roman'" font-size="44.1429">mimosa hostilis</text>
	<text transform="matrix(1 0 0 1 541.4707 356.932)" fill="#A478D6" font-family="'CrimsonText-Roman'" font-size="25.7354">26 </text>
</g>
<g>
	<text transform="matrix(1 0 0 1 625.5566 371.6332)" fill="#A478D6" font-family="'CrimsonText-Roman'" font-size="38.9143">dmt space</text>
	<text transform="matrix(1 0 0 1 776.3506 358.6722)" fill="#A478D6" font-family="'CrimsonText-Roman'" font-size="22.687">23 </text>
</g>
<g>
	<text transform="matrix(1 0 0 1 856.8945 371.6302)" fill="#A478D6" font-family="'CrimsonText-Roman'" font-size="38.9143">root bark</text>
	<text transform="matrix(1 0 0 1 999.0605 358.6722)" fill="#A478D6" font-family="'CrimsonText-Roman'" font-size="22.687">23 </text>
</g>
<g>
	<text transform="matrix(1 0 0 1 1079.6045 368.1449)" fill="#A478D6" font-family="'CrimsonText-Roman'" font-size="28.4571">dmt crystals</text>
	<text transform="matrix(1 0 0 1 1212.5801 358.6722)" fill="#A478D6" font-family="'CrimsonText-Roman'" font-size="16.5905">19 </text>
</g>
<g>
	<text transform="matrix(1 0 0 1 1285.9756 368.1449)" fill="#A478D6" font-family="'CrimsonText-Roman'" font-size="28.4571">ego death</text>
	<text transform="matrix(1 0 0 1 1392.6064 358.6722)" fill="#A478D6" font-family="'CrimsonText-Roman'" font-size="16.5905">19 </text>
</g>
<g>
	<text transform="matrix(1 0 0 1 272 438.6058)" fill="#A478D6" font-family="'CrimsonText-Roman'" font-size="28.4571">terence mckenna</text>
	<text transform="matrix(1 0 0 1 461 429.1332)" fill="#A478D6" font-family="'CrimsonText-Roman'" font-size="16.5905">19 </text>
</g>
<g>
	<text transform="matrix(1 0 0 1 539.439 438.6195)" fill="#A478D6" font-family="'CrimsonText-Roman'" font-size="28.4571">deep breath</text>
	<text transform="matrix(1 0 0 1 669.3013 429.1429)" fill="#A478D6" font-family="'CrimsonText-Roman'" font-size="16.5905">18 </text>
</g>
<g>
	<text transform="matrix(1 0 0 1 747.7402 438.6195)" fill="#A478D6" font-family="'CrimsonText-Roman'" font-size="28.4571">spirit molecule</text>
	<text transform="matrix(1 0 0 1 912.3975 429.1429)" fill="#A478D6" font-family="'CrimsonText-Roman'" font-size="16.5905">18 </text>
</g>
<g>
	<text transform="matrix(1 0 0 1 990.8359 438.6195)" fill="#A478D6" font-family="'CrimsonText-Roman'" font-size="28.4571">geometric shapes</text>
	<text transform="matrix(1 0 0 1 1181.2803 429.1429)" fill="#A478D6" font-family="'CrimsonText-Roman'" font-size="16.5905">17 </text>
</g>
<g>
	<text transform="matrix(1 0 0 1 1259.7021 437.473)" fill="#A478D6" font-family="'CrimsonText-Roman'" font-size="23.2285">entire universe</text>
	<text transform="matrix(1 0 0 1 1396.1699 429.7377)" fill="#A478D6" font-family="'CrimsonText-Roman'" font-size="13.5423">16 </text>
</g>
<g>
	<text transform="matrix(1 0 0 1 272 497.6703)" fill="#A478D6" font-family="'CrimsonText-Roman'" font-size="23.2285">nitrous oxide</text>
	<text transform="matrix(1 0 0 1 392.0889 489.9349)" fill="#A478D6" font-family="'CrimsonText-Roman'" font-size="13.5423">16 </text>
</g>
<g>
	<text transform="matrix(1 0 0 1 488.9443 497.6703)" fill="#A478D6" font-family="'CrimsonText-Roman'" font-size="23.2285">hostilis root</text>
	<text transform="matrix(1 0 0 1 597.9189 489.9349)" fill="#A478D6" font-family="'CrimsonText-Roman'" font-size="13.5423">15 </text>
</g>
<g>
	<text transform="matrix(1 0 0 1 694.7876 497.6703)" fill="#A478D6" font-family="'CrimsonText-Roman'" font-size="23.2285">machine elves</text>
	<text transform="matrix(1 0 0 1 821.6372 489.9349)" fill="#A478D6" font-family="'CrimsonText-Roman'" font-size="13.5423">14 </text>
</g>
<g>
	<text transform="matrix(1 0 0 1 918.4668 500.6176)" fill="#A478D6" font-family="'CrimsonText-Roman'" font-size="18">deep breaths</text>
	<text transform="matrix(1 0 0 1 1006.9199 494.6234)" fill="#A478D6" font-family="'CrimsonText-Roman'" font-size="10.494">13 </text>
</g>
<g>
	<text transform="matrix(1 0 0 1 1100.2227 500.7172)" fill="#A478D6" font-family="'CrimsonText-Roman'" font-size="18">synthetic dmt</text>
	<text transform="matrix(1 0 0 1 1196.1641 494.723)" fill="#A478D6" font-family="'CrimsonText-Roman'" font-size="10.494">13 </text>
</g>
<g>
	<text transform="matrix(1 0 0 1 1289.4668 500.6683)" fill="#A478D6" font-family="'CrimsonText-Roman'" font-size="18">dmt hyperspace</text>
	<text transform="matrix(1 0 0 1 1399.7334 494.6732)" fill="#A478D6" font-family="'CrimsonText-Roman'" font-size="10.494">12 </text>
</g>
<g>
	<text transform="matrix(1 0 0 1 272 555.8363)" fill="#A478D6" font-family="'CrimsonText-Roman'" font-size="18">heart rate</text>
	<text transform="matrix(1 0 0 1 339.7285 549.8422)" fill="#A478D6" font-family="'CrimsonText-Roman'" font-size="10.494">12 </text>
</g>
<g>
	<text transform="matrix(1 0 0 1 437.5342 555.8363)" fill="#A478D6" font-family="'CrimsonText-Roman'" font-size="18">roller coaster</text>
	<text transform="matrix(1 0 0 1 529.8545 549.8422)" fill="#A478D6" font-family="'CrimsonText-Roman'" font-size="10.494">12 </text>
</g>
<g>
	<text transform="matrix(1 0 0 1 627.6602 555.8363)" fill="#A478D6" font-family="'CrimsonText-Roman'" font-size="18">white crystals</text>
	<text transform="matrix(1 0 0 1 723.4785 549.8422)" fill="#A478D6" font-family="'CrimsonText-Roman'" font-size="10.494">12 </text>
</g>
<g>
	<text transform="matrix(1 0 0 1 821.2842 558.8344)" fill="#A478D6" font-family="'CrimsonText-Roman'" font-size="18">alex grey</text>
	<text transform="matrix(1 0 0 1 883.4756 552.8392)" fill="#A478D6" font-family="'CrimsonText-Roman'" font-size="10.494">11 </text>
</g>
<g>
	<text transform="matrix(1 0 0 1 981.2822 558.8344)" fill="#A478D6" font-family="'CrimsonText-Roman'" font-size="18">black hole</text>
	<text transform="matrix(1 0 0 1 1052.0166 552.8392)" fill="#A478D6" font-family="'CrimsonText-Roman'" font-size="10.494">11 </text>
</g>
<g>
	<text transform="matrix(1 0 0 1 1149.8232 558.8344)" fill="#A478D6" font-family="'CrimsonText-Roman'" font-size="18">dmt freebase</text>
	<text transform="matrix(1 0 0 1 1239.3311 552.8392)" fill="#A478D6" font-family="'CrimsonText-Roman'" font-size="10.494">11 </text>
</g>
<g>
	<text transform="matrix(1 0 0 1 1337.1367 558.8334)" fill="#A478D6" font-family="'CrimsonText-Roman'" font-size="18">dmt pipe</text>
	<text transform="matrix(1 0 0 1 1399.7324 552.8383)" fill="#A478D6" font-family="'CrimsonText-Roman'" font-size="10.494">11 </text>
</g>
<g>
	<text transform="matrix(1 0 0 1 272 609.89)" fill="#A478D6" font-family="'CrimsonText-Roman'" font-size="18">harmala alkaloids</text>
	<text transform="matrix(1 0 0 1 393.9551 603.8939)" fill="#A478D6" font-family="'CrimsonText-Roman'" font-size="10.494">11 </text>
</g>
<g>
	<text transform="matrix(1 0 0 1 443.4385 609.89)" fill="#A478D6" font-family="'CrimsonText-Roman'" font-size="18">higher consciousness</text>
	<text transform="matrix(1 0 0 1 591.2705 603.8939)" fill="#A478D6" font-family="'CrimsonText-Roman'" font-size="10.494">11 </text>
</g>
<g>
	<text transform="matrix(1 0 0 1 650.9863 609.89)" fill="#A478D6" font-family="'CrimsonText-Roman'" font-size="18">holy shit</text>
	<text transform="matrix(1 0 0 1 711.5576 603.8939)" fill="#A478D6" font-family="'CrimsonText-Roman'" font-size="10.494">11 </text>
</g>
<g>
	<text transform="matrix(1 0 0 1 780.8066 609.89)" fill="#A478D6" font-family="'CrimsonText-Roman'" font-size="18">human brain</text>
	<text transform="matrix(1 0 0 1 871.4395 603.8939)" fill="#A478D6" font-family="'CrimsonText-Roman'" font-size="10.494">11 </text>
</g>
</svg>
