<?xml version="1.0" encoding="utf-8"?>
<!-- Generator: Adobe Illustrator 16.0.4, SVG Export Plug-In . SVG Version: 6.00 Build 0)  -->
<!DOCTYPE svg PUBLIC "-//W3C//DTD SVG 1.1//EN" "http://www.w3.org/Graphics/SVG/1.1/DTD/svg11.dtd">
<svg version="1.1"
	 id="Layer_1" a3:scriptImplementation="Adobe" xmlns:text="http://xmlns.graougraou.com/svg/text/" xmlns:a3="http://ns.adobe.com/AdobeSVGViewerExtensions/3.0/"
	 xmlns="http://www.w3.org/2000/svg" xmlns:xlink="http://www.w3.org/1999/xlink" x="0px" y="0px" width="1140px" height="196px"
	 viewBox="0 0 1140 196" enable-background="new 0 0 1140 196" xml:space="preserve">
<g>
	<text transform="matrix(1 0 0 1 0 45.0229)" fill="#A478D6" font-family="'CrimsonText-Roman'" font-size="64.8396">glass pipe</text>
	<text transform="matrix(1 0 0 1 241.6289 23.4302)" fill="#A478D6" font-family="'CrimsonText-Roman'" font-size="37.8015">50 </text>
</g>
<g>
	<text transform="matrix(1 0 0 1 331.2534 44.8496)" fill="#A478D6" font-family="'CrimsonText-Roman'" font-size="43.3714">syrian rue</text>
	<text transform="matrix(1 0 0 1 499.9951 30.4062)" fill="#A478D6" font-family="'CrimsonText-Roman'" font-size="25.2855">39 </text>
</g>
<g>
	<text transform="matrix(1 0 0 1 574.9766 44.4604)" fill="#A478D6" font-family="'CrimsonText-Roman'" font-size="39.8857">geometric patterns</text>
	<text transform="matrix(1 0 0 1 867.6934 31.1782)" fill="#A478D6" font-family="'CrimsonText-Roman'" font-size="23.2534">36 </text>
</g>
<g>
	<text transform="matrix(1 0 0 1 940.2979 44.4937)" fill="#A478D6" font-family="'CrimsonText-Roman'" font-size="29.4286">mimosa hostilis</text>
	<text transform="matrix(1 0 0 1 1119.9443 34.6929)" fill="#A478D6" font-family="'CrimsonText-Roman'" font-size="17.1569">26 </text>
</g>
<g>
	<text transform="matrix(1 0 0 1 0 88.7998)" fill="#A478D6" font-family="'CrimsonText-Roman'" font-size="25.9429">dmt space</text>
	<text transform="matrix(1 0 0 1 100.5288 80.1592)" fill="#A478D6" font-family="'CrimsonText-Roman'" font-size="15.1247">23 </text>
</g>
<g>
	<text transform="matrix(1 0 0 1 150.0371 88.7979)" fill="#A478D6" font-family="'CrimsonText-Roman'" font-size="25.9429">root bark</text>
	<text transform="matrix(1 0 0 1 244.814 80.1592)" fill="#A478D6" font-family="'CrimsonText-Roman'" font-size="15.1247">23 </text>
</g>
<g>
	<text transform="matrix(1 0 0 1 294.3223 88.7979)" fill="#A478D6" font-family="'CrimsonText-Roman'" font-size="18.9714">dmt crystals</text>
	<text transform="matrix(1 0 0 1 382.9727 82.4824)" fill="#A478D6" font-family="'CrimsonText-Roman'" font-size="11.0603">19 </text>
</g>
<g>
	<text transform="matrix(1 0 0 1 427.7148 88.7979)" fill="#A478D6" font-family="'CrimsonText-Roman'" font-size="18.9714">ego death</text>
	<text transform="matrix(1 0 0 1 498.8018 82.4824)" fill="#A478D6" font-family="'CrimsonText-Roman'" font-size="11.0603">19 </text>
</g>
<g>
	<text transform="matrix(1 0 0 1 543.5444 88.7979)" fill="#A478D6" font-family="'CrimsonText-Roman'" font-size="18.9714">terence mckenna</text>
	<text transform="matrix(1 0 0 1 669.5449 82.4824)" fill="#A478D6" font-family="'CrimsonText-Roman'" font-size="11.0603">19 </text>
</g>
<g>
	<text transform="matrix(1 0 0 1 714.2881 88.8125)" fill="#A478D6" font-family="'CrimsonText-Roman'" font-size="18.9714">deep breath</text>
	<text transform="matrix(1 0 0 1 800.8633 82.4941)" fill="#A478D6" font-family="'CrimsonText-Roman'" font-size="11.0603">18 </text>
</g>
<g>
	<text transform="matrix(1 0 0 1 845.6055 88.8125)" fill="#A478D6" font-family="'CrimsonText-Roman'" font-size="18.9714">spirit molecule</text>
	<text transform="matrix(1 0 0 1 955.377 82.4941)" fill="#A478D6" font-family="'CrimsonText-Roman'" font-size="11.0603">18 </text>
</g>
<g>
	<text transform="matrix(1 0 0 1 1000.1191 88.8125)" fill="#A478D6" font-family="'CrimsonText-Roman'" font-size="18.9714">geometric shapes</text>
	<text transform="matrix(1 0 0 1 1127.082 82.4941)" fill="#A478D6" font-family="'CrimsonText-Roman'" font-size="11.0603">17 </text>
</g>
<g>
	<text transform="matrix(1 0 0 1 0 129.3066)" fill="#A478D6" font-family="'CrimsonText-Roman'" font-size="15.4857">entire universe</text>
	<text transform="matrix(1 0 0 1 90.9785 124.1494)" fill="#A478D6" font-family="'CrimsonText-Roman'" font-size="9.0282">16 </text>
</g>
<g>
	<text transform="matrix(1 0 0 1 140.8032 129.3066)" fill="#A478D6" font-family="'CrimsonText-Roman'" font-size="15.4857">nitrous oxide</text>
	<text transform="matrix(1 0 0 1 220.8628 124.1494)" fill="#A478D6" font-family="'CrimsonText-Roman'" font-size="9.0282">16 </text>
</g>
<g>
	<text transform="matrix(1 0 0 1 270.6875 129.3066)" fill="#A478D6" font-family="'CrimsonText-Roman'" font-size="15.4857">hostilis root</text>
	<text transform="matrix(1 0 0 1 343.3369 124.1494)" fill="#A478D6" font-family="'CrimsonText-Roman'" font-size="9.0282">15 </text>
</g>
<g>
	<text transform="matrix(1 0 0 1 393.1709 129.3066)" fill="#A478D6" font-family="'CrimsonText-Roman'" font-size="15.4857">machine elves</text>
	<text transform="matrix(1 0 0 1 477.7373 124.1494)" fill="#A478D6" font-family="'CrimsonText-Roman'" font-size="9.0282">14 </text>
</g>
<g>
	<text transform="matrix(1 0 0 1 527.5444 129.8174)" fill="#A478D6" font-family="'CrimsonText-Roman'" font-size="12">deep breaths</text>
	<text transform="matrix(1 0 0 1 586.5137 125.8203)" fill="#A478D6" font-family="'CrimsonText-Roman'" font-size="6.996">13 </text>
</g>
<g>
	<text transform="matrix(1 0 0 1 633.9688 129.917)" fill="#A478D6" font-family="'CrimsonText-Roman'" font-size="12">synthetic dmt</text>
	<text transform="matrix(1 0 0 1 697.9297 125.9199)" fill="#A478D6" font-family="'CrimsonText-Roman'" font-size="6.996">13 </text>
</g>
<g>
	<text transform="matrix(1 0 0 1 745.3867 129.8174)" fill="#A478D6" font-family="'CrimsonText-Roman'" font-size="12">dmt hyperspace</text>
	<text transform="matrix(1 0 0 1 818.8975 125.8203)" fill="#A478D6" font-family="'CrimsonText-Roman'" font-size="6.996">12 </text>
</g>
<g>
	<text transform="matrix(1 0 0 1 866.3457 129.917)" fill="#A478D6" font-family="'CrimsonText-Roman'" font-size="12">heart rate</text>
	<text transform="matrix(1 0 0 1 911.498 125.9199)" fill="#A478D6" font-family="'CrimsonText-Roman'" font-size="6.996">12 </text>
</g>
<g>
	<text transform="matrix(1 0 0 1 958.9473 129.917)" fill="#A478D6" font-family="'CrimsonText-Roman'" font-size="12">roller coaster</text>
	<text transform="matrix(1 0 0 1 1020.4941 125.9199)" fill="#A478D6" font-family="'CrimsonText-Roman'" font-size="6.996">12 </text>
</g>
<g>
	<text transform="matrix(1 0 0 1 1067.9434 129.917)" fill="#A478D6" font-family="'CrimsonText-Roman'" font-size="12">white crystals</text>
	<text transform="matrix(1 0 0 1 1131.8223 125.9199)" fill="#A478D6" font-family="'CrimsonText-Roman'" font-size="6.996">12 </text>
</g>
<g>
	<text transform="matrix(1 0 0 1 0 163.998)" fill="#A478D6" font-family="'CrimsonText-Roman'" font-size="12">alex grey</text>
	<text transform="matrix(1 0 0 1 41.4609 160.001)" fill="#A478D6" font-family="'CrimsonText-Roman'" font-size="6.996">11 </text>
</g>
<g>
	<text transform="matrix(1 0 0 1 135.9097 163.998)" fill="#A478D6" font-family="'CrimsonText-Roman'" font-size="12">black hole</text>
	<text transform="matrix(1 0 0 1 183.0659 160.001)" fill="#A478D6" font-family="'CrimsonText-Roman'" font-size="6.996">11 </text>
</g>
<g>
	<text transform="matrix(1 0 0 1 277.5142 163.998)" fill="#A478D6" font-family="'CrimsonText-Roman'" font-size="12">dmt freebase</text>
	<text transform="matrix(1 0 0 1 337.186 160.001)" fill="#A478D6" font-family="'CrimsonText-Roman'" font-size="6.996">11 </text>
</g>
<g>
	<text transform="matrix(1 0 0 1 431.6348 163.998)" fill="#A478D6" font-family="'CrimsonText-Roman'" font-size="12">dmt pipe</text>
	<text transform="matrix(1 0 0 1 473.3652 160.001)" fill="#A478D6" font-family="'CrimsonText-Roman'" font-size="6.996">11 </text>
</g>
<g>
	<text transform="matrix(1 0 0 1 567.814 164)" fill="#A478D6" font-family="'CrimsonText-Roman'" font-size="12">harmala alkaloids</text>
	<text transform="matrix(1 0 0 1 649.1182 160.0029)" fill="#A478D6" font-family="'CrimsonText-Roman'" font-size="6.996">11 </text>
</g>
<g>
	<text transform="matrix(1 0 0 1 743.5664 164)" fill="#A478D6" font-family="'CrimsonText-Roman'" font-size="12">higher consciousness</text>
	<text transform="matrix(1 0 0 1 842.1211 160.0029)" fill="#A478D6" font-family="'CrimsonText-Roman'" font-size="6.996">11 </text>
</g>
<g>
	<text transform="matrix(1 0 0 1 936.5703 164)" fill="#A478D6" font-family="'CrimsonText-Roman'" font-size="12">holy shit</text>
	<text transform="matrix(1 0 0 1 976.9512 160.0029)" fill="#A478D6" font-family="'CrimsonText-Roman'" font-size="6.996">11 </text>
</g>
<g>
	<text transform="matrix(1 0 0 1 1071.4004 164)" fill="#A478D6" font-family="'CrimsonText-Roman'" font-size="12">human brain</text>
	<text transform="matrix(1 0 0 1 1131.8223 160.0029)" fill="#A478D6" font-family="'CrimsonText-Roman'" font-size="6.996">11 </text>
</g>
</svg>
