<?xml version="1.0" encoding="utf-8"?>
<!-- Generator: Adobe Illustrator 16.0.4, SVG Export Plug-In . SVG Version: 6.00 Build 0)  -->
<!DOCTYPE svg PUBLIC "-//W3C//DTD SVG 1.1//EN" "http://www.w3.org/Graphics/SVG/1.1/DTD/svg11.dtd">
<svg version="1.1"
	 id="Layer_1" xmlns:a3="http://ns.adobe.com/AdobeSVGViewerExtensions/3.0/" xmlns:text="http://xmlns.graougraou.com/svg/text/" a3:scriptImplementation="Adobe"
	 xmlns="http://www.w3.org/2000/svg" xmlns:xlink="http://www.w3.org/1999/xlink" x="0px" y="0px" width="1140px" height="397.5px"
	 viewBox="0 0 1140 397.5" enable-background="new 0 0 1140 397.5" xml:space="preserve">
<g>
	<text transform="matrix(1 0 0 1 0 71.3125)" fill="#3CEEED" font-family="'CrimsonText-Roman'" font-size="97.2594">cough syrup</text>
	<text transform="matrix(1 0 0 1 464.0713 38.9253)" fill="#3CEEED" font-family="'CrimsonText-Roman'" font-size="56.7023">196 </text>
</g>
<g>
	<text transform="matrix(1 0 0 1 606.6104 71.3125)" fill="#3CEEED" font-family="'CrimsonText-Roman'" font-size="49.3714">chlorpheniramine maleate</text>
	<text transform="matrix(1 0 0 1 1113.0537 54.8711)" fill="#3CEEED" font-family="'CrimsonText-Roman'" font-size="28.7835">73 </text>
</g>
<g>
	<text transform="matrix(1 0 0 1 0 140.3604)" fill="#3CEEED" font-family="'CrimsonText-Roman'" font-size="38.9143">brand warnings</text>
	<text transform="matrix(1 0 0 1 239.2617 127.4004)" fill="#3CEEED" font-family="'CrimsonText-Roman'" font-size="22.687">63 </text>
</g>
<g>
	<text transform="matrix(1 0 0 1 579.9268 140.3594)" fill="#3CEEED" font-family="'CrimsonText-Roman'" font-size="38.9143">erowid warning</text>
	<text transform="matrix(1 0 0 1 823.7109 127.3984)" fill="#3CEEED" font-family="'CrimsonText-Roman'" font-size="22.687">61 </text>
</g>
<g>
	<text transform="matrix(1 0 0 1 911.6504 140.3594)" fill="#3CEEED" font-family="'CrimsonText-Roman'" font-size="38.9143">contains cpm</text>
	<text transform="matrix(1 0 0 1 1113.4805 127.3984)" fill="#3CEEED" font-family="'CrimsonText-Roman'" font-size="22.687">60 </text>
</g>
<g>
	<text transform="matrix(1 0 0 1 0 210)" fill="#3CEEED" font-family="'CrimsonText-Roman'" font-size="38.9143">coricidin contains</text>
	<text transform="matrix(1 0 0 1 271.4121 197.04)" fill="#3CEEED" font-family="'CrimsonText-Roman'" font-size="22.687">60 </text>
</g>
<g>
	<text transform="matrix(1 0 0 1 351.5586 210)" fill="#3CEEED" font-family="'CrimsonText-Roman'" font-size="38.9143">maximum strength</text>
	<text transform="matrix(1 0 0 1 642.2373 197.04)" fill="#3CEEED" font-family="'CrimsonText-Roman'" font-size="22.687">55 </text>
</g>
<g>
	<text transform="matrix(1 0 0 1 722.4277 210.1006)" fill="#3CEEED" font-family="'CrimsonText-Roman'" font-size="33.6856">strength cough</text>
	<text transform="matrix(1 0 0 1 920.1016 198.8828)" fill="#3CEEED" font-family="'CrimsonText-Roman'" font-size="19.6388">46 </text>
</g>
<g>
	<text transform="matrix(1 0 0 1 996.6465 210.1006)" fill="#3CEEED" font-family="'CrimsonText-Roman'" font-size="28.4571">3rd plateau</text>
	<text transform="matrix(1 0 0 1 1120.5898 200.625)" fill="#3CEEED" font-family="'CrimsonText-Roman'" font-size="16.5905">36 </text>
</g>
<g>
	<text transform="matrix(1 0 0 1 0 271.5)" fill="#3CEEED" font-family="'CrimsonText-Roman'" font-size="23.2285">2nd plateau</text>
	<text transform="matrix(1 0 0 1 104.8462 263.7666)" fill="#3CEEED" font-family="'CrimsonText-Roman'" font-size="13.5423">34 </text>
</g>
<g>
	<text transform="matrix(1 0 0 1 163.1421 271.5)" fill="#3CEEED" font-family="'CrimsonText-Roman'" font-size="23.2285">coricidin cough</text>
	<text transform="matrix(1 0 0 1 304.0552 263.7656)" fill="#3CEEED" font-family="'CrimsonText-Roman'" font-size="13.5423">31 </text>
</g>
<g>
	<text transform="matrix(1 0 0 1 362.3779 271.5)" fill="#3CEEED" font-family="'CrimsonText-Roman'" font-size="23.2285">cough medicine</text>
	<text transform="matrix(1 0 0 1 505.4702 263.7656)" fill="#3CEEED" font-family="'CrimsonText-Roman'" font-size="13.5423">31 </text>
</g>
<g>
	<text transform="matrix(1 0 0 1 563.793 271.5)" fill="#3CEEED" font-family="'CrimsonText-Roman'" font-size="23.2285">robitussin maximum</text>
	<text transform="matrix(1 0 0 1 752.6162 263.7656)" fill="#3CEEED" font-family="'CrimsonText-Roman'" font-size="13.5423">31 </text>
</g>
<g>
	<text transform="matrix(1 0 0 1 810.9385 271.5)" fill="#3CEEED" font-family="'CrimsonText-Roman'" font-size="23.2285">double vision</text>
	<text transform="matrix(1 0 0 1 932.8867 263.7656)" fill="#3CEEED" font-family="'CrimsonText-Roman'" font-size="13.5423">29 </text>
</g>
<g>
	<text transform="matrix(1 0 0 1 991.1953 271.6338)" fill="#3CEEED" font-family="'CrimsonText-Roman'" font-size="23.2285">blood pressure</text>
	<text transform="matrix(1 0 0 1 1124.1699 263.8994)" fill="#3CEEED" font-family="'CrimsonText-Roman'" font-size="13.5423">28 </text>
</g>
<g>
	<text transform="matrix(1 0 0 1 0 328.4902)" fill="#3CEEED" font-family="'CrimsonText-Roman'" font-size="23.2285">pure dxm</text>
	<text transform="matrix(1 0 0 1 86.9019 320.7559)" fill="#3CEEED" font-family="'CrimsonText-Roman'" font-size="13.5423">26 </text>
</g>
<g>
	<text transform="matrix(1 0 0 1 153.5342 328.1465)" fill="#3CEEED" font-family="'CrimsonText-Roman'" font-size="18">dxm powder</text>
	<text transform="matrix(1 0 0 1 242.3916 322.1543)" fill="#3CEEED" font-family="'CrimsonText-Roman'" font-size="10.494">24 </text>
</g>
<g>
	<text transform="matrix(1 0 0 1 305.4395 328.1406)" fill="#3CEEED" font-family="'CrimsonText-Roman'" font-size="18">active ingredient</text>
	<text transform="matrix(1 0 0 1 424.0469 323.5078)" fill="#3CEEED" font-family="'CrimsonText-Roman'" font-size="10.494">23 </text>
</g>
<g>
	<text transform="matrix(1 0 0 1 487.126 328.1406)" fill="#3CEEED" font-family="'CrimsonText-Roman'" font-size="18">dxm faq</text>
	<text transform="matrix(1 0 0 1 543.481 322.1465)" fill="#3CEEED" font-family="'CrimsonText-Roman'" font-size="10.494">21 </text>
</g>
<g>
	<text transform="matrix(1 0 0 1 606.5488 325.1436)" fill="#3CEEED" font-family="'CrimsonText-Roman'" font-size="18">term memory</text>
	<text transform="matrix(1 0 0 1 703.7051 319.1484)" fill="#3CEEED" font-family="'CrimsonText-Roman'" font-size="10.494">20 </text>
</g>
<g>
	<text transform="matrix(1 0 0 1 766.7734 326.5059)" fill="#3CEEED" font-family="'CrimsonText-Roman'" font-size="18">thank god</text>
	<text transform="matrix(1 0 0 1 837.3672 320.5117)" fill="#3CEEED" font-family="'CrimsonText-Roman'" font-size="10.494">20 </text>
</g>
<g>
	<text transform="matrix(1 0 0 1 900.4355 326.5059)" fill="#3CEEED" font-family="'CrimsonText-Roman'" font-size="18">4oz bottle</text>
	<text transform="matrix(1 0 0 1 969.9199 320.5117)" fill="#3CEEED" font-family="'CrimsonText-Roman'" font-size="10.494">19 </text>
</g>
<g>
	<text transform="matrix(1 0 0 1 1032.9873 327.9922)" fill="#3CEEED" font-family="'CrimsonText-Roman'" font-size="18">brain damage</text>
	<text transform="matrix(1 0 0 1 1127.7334 322.2969)" fill="#3CEEED" font-family="'CrimsonText-Roman'" font-size="10.494">19 </text>
</g>
<g>
	<g>
		<text transform="matrix(1 0 0 1 1049.9678 392.9131)" fill="#3CEEED" font-family="'CrimsonText-Roman'" font-size="18">4th plateau</text>
	</g>
	<text transform="matrix(1 0 0 1 1127.7334 386.9189)" fill="#3CEEED" font-family="'CrimsonText-Roman'" font-size="10.494">18 </text>
</g>
<g>
	<text transform="matrix(1 0 0 1 0 389.916)" fill="#3CEEED" font-family="'CrimsonText-Roman'" font-size="18">8oz bottle</text>
	<text transform="matrix(1 0 0 1 69.5215 383.9219)" fill="#3CEEED" font-family="'CrimsonText-Roman'" font-size="10.494">17 </text>
</g>
<g>
	<text transform="matrix(1 0 0 1 202.6772 389.916)" fill="#3CEEED" font-family="'CrimsonText-Roman'" font-size="18">gel caps</text>
	<text transform="matrix(1 0 0 1 256.853 383.9219)" fill="#3CEEED" font-family="'CrimsonText-Roman'" font-size="10.494">17 </text>
</g>
<g>
	<text transform="matrix(1 0 0 1 390.0093 389.916)" fill="#3CEEED" font-family="'CrimsonText-Roman'" font-size="18">heart rate</text>
	<text transform="matrix(1 0 0 1 459.4058 385.2832)" fill="#3CEEED" font-family="'CrimsonText-Roman'" font-size="10.494">17 </text>
</g>
<g>
	<text transform="matrix(1 0 0 1 592.5615 389.916)" fill="#3CEEED" font-family="'CrimsonText-Roman'" font-size="18">false positive</text>
	<text transform="matrix(1 0 0 1 683.9277 385.2832)" fill="#3CEEED" font-family="'CrimsonText-Roman'" font-size="10.494">16 </text>
</g>
<g>
	<text transform="matrix(1 0 0 1 817.0938 389.916)" fill="#3CEEED" font-family="'CrimsonText-Roman'" font-size="18">fourth plateau</text>
	<text transform="matrix(1 0 0 1 917.5078 385.4609)" fill="#3CEEED" font-family="'CrimsonText-Roman'" font-size="9.8822">15 </text>
</g>
<g>
	<text transform="matrix(1 0 0 1 327.2246 140.3594)" fill="#3CEEED" font-family="'CrimsonText-Roman'" font-size="38.9143">dxm brand</text>
	<text transform="matrix(1 0 0 1 491.9639 127.3994)" fill="#3CEEED" font-family="'CrimsonText-Roman'" font-size="22.687">63 </text>
</g>
</svg>
