<?xml version="1.0" encoding="utf-8"?>
<!-- Generator: Adobe Illustrator 16.0.4, SVG Export Plug-In . SVG Version: 6.00 Build 0)  -->
<!DOCTYPE svg PUBLIC "-//W3C//DTD SVG 1.1//EN" "http://www.w3.org/Graphics/SVG/1.1/DTD/svg11.dtd">
<svg version="1.1"
	 id="Layer_1" a3:scriptImplementation="Adobe" xmlns:text="http://xmlns.graougraou.com/svg/text/" xmlns:a3="http://ns.adobe.com/AdobeSVGViewerExtensions/3.0/"
	 xmlns="http://www.w3.org/2000/svg" xmlns:xlink="http://www.w3.org/1999/xlink" x="0px" y="0px" width="1140px" height="210px"
	 viewBox="0 0 1140 210" enable-background="new 0 0 1140 210" xml:space="preserve">
<text transform="matrix(1 0 0 1 0 52.0576)" fill="#3CEEED" font-family="'CrimsonText-Roman'" font-size="64.8396">cough syrup</text>
<text transform="matrix(1 0 0 1 309.3809 30.4658)" fill="#3CEEED" font-family="'CrimsonText-Roman'" font-size="37.8015">196 </text>
<text transform="matrix(1 0 0 1 406.0298 52.0576)" fill="#3CEEED" font-family="'CrimsonText-Roman'" font-size="32.9143">chlorpheniramine maleate</text>
<text transform="matrix(1 0 0 1 743.6592 41.0967)" fill="#3CEEED" font-family="'CrimsonText-Roman'" font-size="19.189">73 </text>
<text transform="matrix(1 0 0 1 800.6836 52.0576)" fill="#3CEEED" font-family="'CrimsonText-Roman'" font-size="25.9429">brand warnings</text>
<text transform="matrix(1 0 0 1 960.1914 43.418)" fill="#3CEEED" font-family="'CrimsonText-Roman'" font-size="15.1247">63 </text>
<text transform="matrix(1 0 0 1 0 95.8418)" fill="#3CEEED" font-family="'CrimsonText-Roman'" font-size="25.9429">erowid warning</text>
<text transform="matrix(1 0 0 1 162.5225 87.2021)" fill="#3CEEED" font-family="'CrimsonText-Roman'" font-size="15.1247">61 </text>
<text transform="matrix(1 0 0 1 258.0771 95.8418)" fill="#3CEEED" font-family="'CrimsonText-Roman'" font-size="25.9429">contains cpm</text>
<text transform="matrix(1 0 0 1 392.6299 87.2021)" fill="#3CEEED" font-family="'CrimsonText-Roman'" font-size="15.1247">60 </text>
<text transform="matrix(1 0 0 1 478.9746 95.8418)" fill="#3CEEED" font-family="'CrimsonText-Roman'" font-size="25.9429">coricidin contains</text>
<text transform="matrix(1 0 0 1 659.916 87.2021)" fill="#3CEEED" font-family="'CrimsonText-Roman'" font-size="15.1247">60 </text>
<text transform="matrix(1 0 0 1 716.6299 95.8418)" fill="#3CEEED" font-family="'CrimsonText-Roman'" font-size="25.9429">maximum strength</text>
<text transform="matrix(1 0 0 1 910.416 87.2021)" fill="#3CEEED" font-family="'CrimsonText-Roman'" font-size="15.1247">55 </text>
<text transform="matrix(1 0 0 1 992.9395 95.8418)" fill="#3CEEED" font-family="'CrimsonText-Roman'" font-size="22.4571">strength cough</text>
<text transform="matrix(1 0 0 1 1124.7217 88.3633)" fill="#3CEEED" font-family="'CrimsonText-Roman'" font-size="13.0925">46 </text>
<text transform="matrix(1 0 0 1 0 136.5195)" fill="#3CEEED" font-family="'CrimsonText-Roman'" font-size="18.9714">3rd plateau</text>
<text transform="matrix(1 0 0 1 82.6289 130.2021)" fill="#3CEEED" font-family="'CrimsonText-Roman'" font-size="11.0603">36 </text>
<text transform="matrix(1 0 0 1 166.5737 136.5322)" fill="#3CEEED" font-family="'CrimsonText-Roman'" font-size="15.4857">2nd plateau</text>
<text transform="matrix(1 0 0 1 236.4712 131.377)" fill="#3CEEED" font-family="'CrimsonText-Roman'" font-size="9.0282">34 </text>
<text transform="matrix(1 0 0 1 318.02 136.6328)" fill="#3CEEED" font-family="'CrimsonText-Roman'" font-size="15.4857">coricidin cough</text>
<text transform="matrix(1 0 0 1 411.9619 131.4766)" fill="#3CEEED" font-family="'CrimsonText-Roman'" font-size="9.0282">31 </text>
<text transform="matrix(1 0 0 1 493.5298 136.6328)" fill="#3CEEED" font-family="'CrimsonText-Roman'" font-size="15.4857">cough medicine</text>
<text transform="matrix(1 0 0 1 588.9248 131.4766)" fill="#3CEEED" font-family="'CrimsonText-Roman'" font-size="9.0282">31 </text>
<text transform="matrix(1 0 0 1 670.4912 136.6328)" fill="#3CEEED" font-family="'CrimsonText-Roman'" font-size="15.4857">robitussin maximum</text>
<text transform="matrix(1 0 0 1 796.373 131.4766)" fill="#3CEEED" font-family="'CrimsonText-Roman'" font-size="9.0282">31 </text>
<text transform="matrix(1 0 0 1 877.9404 136.6328)" fill="#3CEEED" font-family="'CrimsonText-Roman'" font-size="15.4857">double vision</text>
<text transform="matrix(1 0 0 1 959.2393 131.4766)" fill="#3CEEED" font-family="'CrimsonText-Roman'" font-size="9.0282">29 </text>
<text transform="matrix(1 0 0 1 1040.7979 136.5195)" fill="#3CEEED" font-family="'CrimsonText-Roman'" font-size="15.4857">blood pressure</text>
<text transform="matrix(1 0 0 1 1129.4473 131.3633)" fill="#3CEEED" font-family="'CrimsonText-Roman'" font-size="9.0282">28 </text>
<text transform="matrix(1 0 0 1 0 171.0361)" fill="#3CEEED" font-family="'CrimsonText-Roman'" font-size="15.4857">pure dxm</text>
<text transform="matrix(1 0 0 1 57.9346 165.8799)" fill="#3CEEED" font-family="'CrimsonText-Roman'" font-size="9.0282">26 </text>
<text transform="matrix(1 0 0 1 138.1719 171.1357)" fill="#3CEEED" font-family="'CrimsonText-Roman'" font-size="12">dxm powder</text>
<text transform="matrix(1 0 0 1 197.4102 167.1406)" fill="#3CEEED" font-family="'CrimsonText-Roman'" font-size="6.996">24 </text>
<text transform="matrix(1 0 0 1 275.2573 171.1299)" fill="#3CEEED" font-family="'CrimsonText-Roman'" font-size="12">active ingredient</text>
<text transform="matrix(1 0 0 1 353.9136 167.1328)" fill="#3CEEED" font-family="'CrimsonText-Roman'" font-size="6.996">23 </text>
<text transform="matrix(1 0 0 1 431.7817 171.1299)" fill="#3CEEED" font-family="'CrimsonText-Roman'" font-size="12">dxm faq</text>
<text transform="matrix(1 0 0 1 469.3516 167.1328)" fill="#3CEEED" font-family="'CrimsonText-Roman'" font-size="6.996">21 </text>
<text transform="matrix(1 0 0 1 547.2134 171.1299)" fill="#3CEEED" font-family="'CrimsonText-Roman'" font-size="12">term memory</text>
<text transform="matrix(1 0 0 1 611.9834 167.1328)" fill="#3CEEED" font-family="'CrimsonText-Roman'" font-size="6.996">20 </text>
<text transform="matrix(1 0 0 1 689.8438 171.2354)" fill="#3CEEED" font-family="'CrimsonText-Roman'" font-size="12">thank god</text>
<text transform="matrix(1 0 0 1 736.9062 167.2393)" fill="#3CEEED" font-family="'CrimsonText-Roman'" font-size="6.996">20 </text>
<text transform="matrix(1 0 0 1 814.7686 171.2354)" fill="#3CEEED" font-family="'CrimsonText-Roman'" font-size="12">4oz bottle</text>
<text transform="matrix(1 0 0 1 861.0918 167.2393)" fill="#3CEEED" font-family="'CrimsonText-Roman'" font-size="6.996">19 </text>
<text transform="matrix(1 0 0 1 938.9531 171.2295)" fill="#3CEEED" font-family="'CrimsonText-Roman'" font-size="12">brain damage</text>
<text transform="matrix(1 0 0 1 1002.1172 167.4326)" fill="#3CEEED" font-family="'CrimsonText-Roman'" font-size="6.996">19 </text>
<text transform="matrix(1 0 0 1 1079.9785 171.2363)" fill="#3CEEED" font-family="'CrimsonText-Roman'" font-size="12">4th plateau</text>
<text transform="matrix(1 0 0 1 1131.8223 167.2402)" fill="#3CEEED" font-family="'CrimsonText-Roman'" font-size="6.996">18 </text>
<text transform="matrix(1 0 0 1 0 205.9102)" fill="#3CEEED" font-family="'CrimsonText-Roman'" font-size="12">8oz bottle</text>
<text transform="matrix(1 0 0 1 46.3477 201.915)" fill="#3CEEED" font-family="'CrimsonText-Roman'" font-size="6.996">17 </text>
<text transform="matrix(1 0 0 1 115.5146 205.9111)" fill="#3CEEED" font-family="'CrimsonText-Roman'" font-size="12">gel caps</text>
<text transform="matrix(1 0 0 1 151.6318 201.915)" fill="#3CEEED" font-family="'CrimsonText-Roman'" font-size="6.996">17 </text>
<text transform="matrix(1 0 0 1 220.7993 205.9102)" fill="#3CEEED" font-family="'CrimsonText-Roman'" font-size="12">heart rate</text>
<text transform="matrix(1 0 0 1 265.9512 201.915)" fill="#3CEEED" font-family="'CrimsonText-Roman'" font-size="6.996">17 </text>
<text transform="matrix(1 0 0 1 335.1191 205.9102)" fill="#3CEEED" font-family="'CrimsonText-Roman'" font-size="12">false positive</text>
<text transform="matrix(1 0 0 1 395.4473 201.915)" fill="#3CEEED" font-family="'CrimsonText-Roman'" font-size="6.996">16 </text>
<text transform="matrix(1 0 0 1 464.6211 205.9111)" fill="#3CEEED" font-family="'CrimsonText-Roman'" font-size="12">fourth plateau</text>
<text transform="matrix(1 0 0 1 530.832 201.915)" fill="#3CEEED" font-family="'CrimsonText-Roman'" font-size="6.996">15 </text>
<text transform="matrix(1 0 0 1 1012.4785 52.0566)" fill="#3CEEED" font-family="'CrimsonText-Roman'" font-size="25.9429">dxm brand</text>
<text transform="matrix(1 0 0 1 1122.3047 43.417)" fill="#3CEEED" font-family="'CrimsonText-Roman'" font-size="15.1247">63 </text>
</svg>
