<?xml version="1.0" encoding="utf-8"?>
<!-- Generator: Adobe Illustrator 16.0.4, SVG Export Plug-In . SVG Version: 6.00 Build 0)  -->
<!DOCTYPE svg PUBLIC "-//W3C//DTD SVG 1.1//EN" "http://www.w3.org/Graphics/SVG/1.1/DTD/svg11.dtd">
<svg version="1.1"
	 id="Layer_1" xmlns:a3="http://ns.adobe.com/AdobeSVGViewerExtensions/3.0/" xmlns:text="http://xmlns.graougraou.com/svg/text/" a3:scriptImplementation="Adobe"
	 xmlns="http://www.w3.org/2000/svg" xmlns:xlink="http://www.w3.org/1999/xlink" x="0px" y="0px" width="1140px"
	 height="318.167px" viewBox="0 0 1140 318.167" enable-background="new 0 0 1140 318.167" xml:space="preserve">
<g>
	<text transform="matrix(1 0 0 1 0 61.5659)" fill="#3CEEED" font-family="'CrimsonText-Roman'" font-size="80.7429">withdrawal symptoms</text>
	<text transform="matrix(1 0 0 1 701.0596 34.6772)" fill="#3CEEED" font-family="'CrimsonText-Roman'" font-size="47.0732">35 </text>
</g>
<g>
	<text transform="matrix(1 0 0 1 790.2256 61.5659)" fill="#3CEEED" font-family="'CrimsonText-Roman'" font-size="54.6">blood pressure</text>
	<text transform="matrix(1 0 0 1 1102.79 43.3843)" fill="#3CEEED" font-family="'CrimsonText-Roman'" font-size="31.8318">22 </text>
</g>
<g>
	<text transform="matrix(1 0 0 1 0 132.4785)" fill="#3CEEED" font-family="'CrimsonText-Roman'" font-size="33.6856">orange juice</text>
	<text transform="matrix(1 0 0 1 159.4805 121.2598)" fill="#3CEEED" font-family="'CrimsonText-Roman'" font-size="19.6388">14 </text>
</g>
<g>
	<text transform="matrix(1 0 0 1 269.918 132.2188)" fill="#3CEEED" font-family="'CrimsonText-Roman'" font-size="33.6856">auditory hallucinations</text>
	<text transform="matrix(1 0 0 1 572.5615 121)" fill="#3CEEED" font-family="'CrimsonText-Roman'" font-size="19.6388">13 </text>
</g>
<g>
	<text transform="matrix(1 0 0 1 683.0566 132.6094)" fill="#3CEEED" font-family="'CrimsonText-Roman'" font-size="33.6856">dopamine rebound</text>
	<text transform="matrix(1 0 0 1 932.6719 121.3906)" fill="#3CEEED" font-family="'CrimsonText-Roman'" font-size="19.6388">13 </text>
</g>
<g>
	<text transform="matrix(1 0 0 1 1043.168 132.8691)" fill="#3CEEED" font-family="'CrimsonText-Roman'" font-size="23.2285">heart rate</text>
	<text transform="matrix(1 0 0 1 1130.5713 125.1309)" fill="#3CEEED" font-family="'CrimsonText-Roman'" font-size="13.5423">9 </text>
</g>
<g>
	<text transform="matrix(1 0 0 1 0 186.6836)" fill="#3CEEED" font-family="'CrimsonText-Roman'" font-size="23.2285">muscle tension</text>
	<text transform="matrix(1 0 0 1 135.1748 178.9473)" fill="#3CEEED" font-family="'CrimsonText-Roman'" font-size="13.5423">9</text>
</g>
<g>
	<text transform="matrix(1 0 0 1 179.0908 186.6836)" fill="#3CEEED" font-family="'CrimsonText-Roman'" font-size="23.2285">panic attacks</text>
	<text transform="matrix(1 0 0 1 295.0967 178.9473)" fill="#3CEEED" font-family="'CrimsonText-Roman'" font-size="13.5423">9</text>
</g>
<g>
	<text transform="matrix(1 0 0 1 339.0127 186.6836)" fill="#3CEEED" font-family="'CrimsonText-Roman'" font-size="23.2285">stay awake</text>
	<text transform="matrix(1 0 0 1 436.2139 178.9473)" fill="#3CEEED" font-family="'CrimsonText-Roman'" font-size="13.5423">9 </text>
</g>
<g>
	<text transform="matrix(1 0 0 1 483.1597 188.416)" fill="#3CEEED" font-family="'CrimsonText-Roman'" font-size="23.2285">daily basis</text>
	<text transform="matrix(1 0 0 1 574.6211 180.6787)" fill="#3CEEED" font-family="'CrimsonText-Roman'" font-size="13.5423">8 </text>
</g>
<g>
	<text transform="matrix(1 0 0 1 621.5664 186.6836)" fill="#3CEEED" font-family="'CrimsonText-Roman'" font-size="23.2285">drinking alcohol</text>
	<text transform="matrix(1 0 0 1 770.8281 178.9473)" fill="#3CEEED" font-family="'CrimsonText-Roman'" font-size="13.5423">l8 </text>
</g>
<g>
	<text transform="matrix(1 0 0 1 821.0928 186.2402)" fill="#3CEEED" font-family="'CrimsonText-Roman'" font-size="18">bottle cap</text>
	<text transform="matrix(1 0 0 1 889.4014 180.25)" fill="#3CEEED" font-family="'CrimsonText-Roman'" font-size="10.494">7 </text>
</g>
<g>
	<text transform="matrix(1 0 0 1 934.2139 186.2402)" fill="#3CEEED" font-family="'CrimsonText-Roman'" font-size="18">higher doses</text>
	<text transform="matrix(1 0 0 1 1022.0518 180.25)" fill="#3CEEED" font-family="'CrimsonText-Roman'" font-size="10.494">7</text>
</g>
<g>
	<text transform="matrix(1 0 0 1 1064.5176 187.0752)" fill="#3CEEED" font-family="'CrimsonText-Roman'" font-size="18">low doses</text>
	<text transform="matrix(1 0 0 1 1132.7031 181.0801)" fill="#3CEEED" font-family="'CrimsonText-Roman'" font-size="10.494">7 </text>
</g>
<g>
	<text transform="matrix(1 0 0 1 0 249.7402)" fill="#3CEEED" font-family="'CrimsonText-Roman'" font-size="18">pure ghb</text>
	<text transform="matrix(1 0 0 1 62.7539 243.7461)" fill="#3CEEED" font-family="'CrimsonText-Roman'" font-size="10.494">7 </text>
</g>
<g>
	<text transform="matrix(1 0 0 1 92.7979 249.7402)" fill="#3CEEED" font-family="'CrimsonText-Roman'" font-size="18">rem center</text>
	<text transform="matrix(1 0 0 1 169.1045 243.7461)" fill="#3CEEED" font-family="'CrimsonText-Roman'" font-size="10.494">7 </text>
</g>
<g>
	<text transform="matrix(1 0 0 1 199.1484 249.7402)" fill="#3CEEED" font-family="'CrimsonText-Roman'" font-size="18">dance floor</text>
	<text transform="matrix(1 0 0 1 277.8809 243.7461)" fill="#3CEEED" font-family="'CrimsonText-Roman'" font-size="10.494">6 </text>
</g>
<g>
	<text transform="matrix(1 0 0 1 307.9351 249.7402)" fill="#3CEEED" font-family="'CrimsonText-Roman'" font-size="18">fruit juice</text>
	<text transform="matrix(1 0 0 1 376.0581 245.1064)" fill="#3CEEED" font-family="'CrimsonText-Roman'" font-size="10.494">6 </text>
</g>
<g>
	<text transform="matrix(1 0 0 1 406.1123 249.7402)" fill="#3CEEED" font-family="'CrimsonText-Roman'" font-size="18">mood lift</text>
	<text transform="matrix(1 0 0 1 470.8164 243.7461)" fill="#3CEEED" font-family="'CrimsonText-Roman'" font-size="10.494">6 </text>
</g>
<g>
	<text transform="matrix(1 0 0 1 500.8701 249.7402)" fill="#3CEEED" font-family="'CrimsonText-Roman'" font-size="18">thank god</text>
	<text transform="matrix(1 0 0 1 571.4648 243.7461)" fill="#3CEEED" font-family="'CrimsonText-Roman'" font-size="10.494">6</text>
</g>
<g>
	<text transform="matrix(1 0 0 1 599.1719 249.3262)" fill="#3CEEED" font-family="'CrimsonText-Roman'" font-size="18">wide awake</text>
	<text transform="matrix(1 0 0 1 681.1729 243.3301)" fill="#3CEEED" font-family="'CrimsonText-Roman'" font-size="10.494">6 </text>
</g>
<g>
	<text transform="matrix(1 0 0 1 711.2275 249.3262)" fill="#3CEEED" font-family="'CrimsonText-Roman'" font-size="18">clear headed</text>
	<text transform="matrix(1 0 0 1 797.7998 243.3301)" fill="#3CEEED" font-family="'CrimsonText-Roman'" font-size="10.494">5</text>
</g>
<g>
	<text transform="matrix(1 0 0 1 825.5186 249.7402)" fill="#3CEEED" font-family="'CrimsonText-Roman'" font-size="18">clear liquid</text>
	<text transform="matrix(1 0 0 1 903.0381 243.7461)" fill="#3CEEED" font-family="'CrimsonText-Roman'" font-size="10.494">5</text>
</g>
<g>
	<text transform="matrix(1 0 0 1 930.7568 249.3262)" fill="#3CEEED" font-family="'CrimsonText-Roman'" font-size="18">cold turkey</text>
	<text transform="matrix(1 0 0 1 1009.5596 243.3301)" fill="#3CEEED" font-family="'CrimsonText-Roman'" font-size="10.494">5 </text>
</g>
<g>
	<text transform="matrix(1 0 0 1 1039.624 250.9922)" fill="#3CEEED" font-family="'CrimsonText-Roman'" font-size="18">drink alcohol</text>
	<text transform="matrix(1 0 0 1 1132.6826 244.999)" fill="#3CEEED" font-family="'CrimsonText-Roman'" font-size="10.494">5 </text>
</g>
<g>
	<text transform="matrix(1 0 0 1 0 307.9922)" fill="#3CEEED" font-family="'CrimsonText-Roman'" font-size="18">ghb addiction</text>
	<text transform="matrix(1 0 0 1 95.957 301.9961)" fill="#3CEEED" font-family="'CrimsonText-Roman'" font-size="10.494">5</text>
</g>
<g>
	<text transform="matrix(1 0 0 1 134.7744 307.9922)" fill="#3CEEED" font-family="'CrimsonText-Roman'" font-size="18">ghb intoxication</text>
	<text transform="matrix(1 0 0 1 250.2295 301.999)" fill="#3CEEED" font-family="'CrimsonText-Roman'" font-size="10.494">5 </text>
</g>
<g>
	<text transform="matrix(1 0 0 1 549.8525 307.9922)" fill="#3CEEED" font-family="'CrimsonText-Roman'" font-size="18">jaw clenching</text>
	<text transform="matrix(1 0 0 1 646.0742 301.998)" fill="#3CEEED" font-family="'CrimsonText-Roman'" font-size="10.494">5</text>
</g>
<g>
	<text transform="matrix(1 0 0 1 291.3936 307.9922)" fill="#3CEEED" font-family="'CrimsonText-Roman'" font-size="18">large amounts</text>
	<text transform="matrix(1 0 0 1 390.7627 301.998)" fill="#3CEEED" font-family="'CrimsonText-Roman'" font-size="10.494">5 </text>
</g>
<g>
	<text transform="matrix(1 0 0 1 431.9258 307.9922)" fill="#3CEEED" font-family="'CrimsonText-Roman'" font-size="18">large doses</text>
	<text transform="matrix(1 0 0 1 508.25 301.998)" fill="#3CEEED" font-family="'CrimsonText-Roman'" font-size="10.494">5 </text>
</g>
</svg>
