<?xml version="1.0" encoding="utf-8"?>
<!-- Generator: Adobe Illustrator 16.0.4, SVG Export Plug-In . SVG Version: 6.00 Build 0)  -->
<!DOCTYPE svg PUBLIC "-//W3C//DTD SVG 1.1//EN" "http://www.w3.org/Graphics/SVG/1.1/DTD/svg11.dtd">
<svg version="1.1"
	 id="Layer_1" xmlns:a3="http://ns.adobe.com/AdobeSVGViewerExtensions/3.0/" xmlns:text="http://xmlns.graougraou.com/svg/text/" a3:scriptImplementation="Adobe"
	 xmlns="http://www.w3.org/2000/svg" xmlns:xlink="http://www.w3.org/1999/xlink" x="0px" y="0px" width="1140px" height="210px"
	 viewBox="0 0 1140 210" enable-background="new 0 0 1140 210" xml:space="preserve">
<text transform="matrix(1 0 0 1 0 54.7129)" fill="#3CEEED" font-family="'CrimsonText-Roman'" font-size="53.8286">withdrawal symptoms</text>
<text transform="matrix(1 0 0 1 467.373 36.7871)" fill="#3CEEED" font-family="'CrimsonText-Roman'" font-size="31.3821">35 </text>
<text transform="matrix(1 0 0 1 525.4575 54.7129)" fill="#3CEEED" font-family="'CrimsonText-Roman'" font-size="36.4">blood pressure</text>
<text transform="matrix(1 0 0 1 733.834 42.5918)" fill="#3CEEED" font-family="'CrimsonText-Roman'" font-size="21.2212">22 </text>
<text transform="matrix(1 0 0 1 779.9795 54.7129)" fill="#3CEEED" font-family="'CrimsonText-Roman'" font-size="22.4571">orange juice</text>
<text transform="matrix(1 0 0 1 886.2998 47.2344)" fill="#3CEEED" font-family="'CrimsonText-Roman'" font-size="13.0925">14 </text>
<text transform="matrix(1 0 0 1 922.9189 54.7129)" fill="#3CEEED" font-family="'CrimsonText-Roman'" font-size="22.4571">auditory hallucinations</text>
<text transform="matrix(1 0 0 1 1124.6816 47.2344)" fill="#3CEEED" font-family="'CrimsonText-Roman'" font-size="13.0925">13 </text>
<text transform="matrix(1 0 0 1 0 95.7129)" fill="#3CEEED" font-family="'CrimsonText-Roman'" font-size="22.4571">dopamine rebound</text>
<text transform="matrix(1 0 0 1 166.4102 88.2344)" fill="#3CEEED" font-family="'CrimsonText-Roman'" font-size="13.0925">13 </text>
<text transform="matrix(1 0 0 1 214.9707 95.7129)" fill="#3CEEED" font-family="'CrimsonText-Roman'" font-size="15.4857">heart rate</text>
<text transform="matrix(1 0 0 1 273.2393 90.5547)" fill="#3CEEED" font-family="'CrimsonText-Roman'" font-size="9.0282">9 </text>
<text transform="matrix(1 0 0 1 312.7676 95.7129)" fill="#3CEEED" font-family="'CrimsonText-Roman'" font-size="15.4857">muscle tension</text>
<text transform="matrix(1 0 0 1 402.8838 90.5547)" fill="#3CEEED" font-family="'CrimsonText-Roman'" font-size="9.0282">9</text>
<text transform="matrix(1 0 0 1 443.8569 95.7129)" fill="#3CEEED" font-family="'CrimsonText-Roman'" font-size="15.4857">panic attacks</text>
<text transform="matrix(1 0 0 1 521.1943 90.5547)" fill="#3CEEED" font-family="'CrimsonText-Roman'" font-size="9.0282">9</text>
<text transform="matrix(1 0 0 1 562.167 95.7129)" fill="#3CEEED" font-family="'CrimsonText-Roman'" font-size="15.4857">stay awake</text>
<text transform="matrix(1 0 0 1 626.9678 90.5547)" fill="#3CEEED" font-family="'CrimsonText-Roman'" font-size="9.0282">9 </text>
<text transform="matrix(1 0 0 1 666.4961 97.4453)" fill="#3CEEED" font-family="'CrimsonText-Roman'" font-size="15.4857">daily basis</text>
<text transform="matrix(1 0 0 1 727.4707 92.2871)" fill="#3CEEED" font-family="'CrimsonText-Roman'" font-size="9.0282">8 </text>
<text transform="matrix(1 0 0 1 766.999 95.7129)" fill="#3CEEED" font-family="'CrimsonText-Roman'" font-size="15.4857">drinking alcohol</text>
<text transform="matrix(1 0 0 1 866.5068 90.5547)" fill="#3CEEED" font-family="'CrimsonText-Roman'" font-size="9.0282">l8 </text>
<text transform="matrix(1 0 0 1 908.249 95.7129)" fill="#3CEEED" font-family="'CrimsonText-Roman'" font-size="12">bottle cap</text>
<text transform="matrix(1 0 0 1 953.7881 91.7188)" fill="#3CEEED" font-family="'CrimsonText-Roman'" font-size="6.996">7 </text>
<text transform="matrix(1 0 0 1 991.8955 95.7129)" fill="#3CEEED" font-family="'CrimsonText-Roman'" font-size="12">higher doses</text>
<text transform="matrix(1 0 0 1 1050.4541 91.7188)" fill="#3CEEED" font-family="'CrimsonText-Roman'" font-size="6.996">7</text>
<text transform="matrix(1 0 0 1 1089.6787 96.5479)" fill="#3CEEED" font-family="'CrimsonText-Roman'" font-size="12">low doses</text>
<text transform="matrix(1 0 0 1 1135.1357 92.5508)" fill="#3CEEED" font-family="'CrimsonText-Roman'" font-size="6.996">7 </text>
<text transform="matrix(1 0 0 1 2.4316 134.2129)" fill="#3CEEED" font-family="'CrimsonText-Roman'" font-size="12">pure ghb</text>
<text transform="matrix(1 0 0 1 44.2676 130.2168)" fill="#3CEEED" font-family="'CrimsonText-Roman'" font-size="6.996">7 </text>
<text transform="matrix(1 0 0 1 77.6885 134.2129)" fill="#3CEEED" font-family="'CrimsonText-Roman'" font-size="12">rem center</text>
<text transform="matrix(1 0 0 1 128.5596 130.2168)" fill="#3CEEED" font-family="'CrimsonText-Roman'" font-size="6.996">7 </text>
<text transform="matrix(1 0 0 1 164.4121 134.2129)" fill="#3CEEED" font-family="'CrimsonText-Roman'" font-size="12">dance floor</text>
<text transform="matrix(1 0 0 1 216.9004 130.2168)" fill="#3CEEED" font-family="'CrimsonText-Roman'" font-size="6.996">6 </text>
<text transform="matrix(1 0 0 1 252.7593 134.2129)" fill="#3CEEED" font-family="'CrimsonText-Roman'" font-size="12">fruit juice</text>
<text transform="matrix(1 0 0 1 298.0986 130.2168)" fill="#3CEEED" font-family="'CrimsonText-Roman'" font-size="6.996">6 </text>
<text transform="matrix(1 0 0 1 333.9585 134.2129)" fill="#3CEEED" font-family="'CrimsonText-Roman'" font-size="12">mood lift</text>
<text transform="matrix(1 0 0 1 377.0947 130.2168)" fill="#3CEEED" font-family="'CrimsonText-Roman'" font-size="6.996">6 </text>
<text transform="matrix(1 0 0 1 412.9546 134.2129)" fill="#3CEEED" font-family="'CrimsonText-Roman'" font-size="12">thank god</text>
<text transform="matrix(1 0 0 1 460.0176 130.2168)" fill="#3CEEED" font-family="'CrimsonText-Roman'" font-size="6.996">6</text>
<text transform="matrix(1 0 0 1 496.9956 133.7988)" fill="#3CEEED" font-family="'CrimsonText-Roman'" font-size="12">wide awake</text>
<text transform="matrix(1 0 0 1 551.6631 129.8008)" fill="#3CEEED" font-family="'CrimsonText-Roman'" font-size="6.996">6 </text>
<text transform="matrix(1 0 0 1 587.5225 133.7988)" fill="#3CEEED" font-family="'CrimsonText-Roman'" font-size="12">clear headed</text>
<text transform="matrix(1 0 0 1 645.2373 129.8008)" fill="#3CEEED" font-family="'CrimsonText-Roman'" font-size="6.996">5</text>
<text transform="matrix(1 0 0 1 682.2236 134.2129)" fill="#3CEEED" font-family="'CrimsonText-Roman'" font-size="12">clear liquid</text>
<text transform="matrix(1 0 0 1 733.9033 130.2168)" fill="#3CEEED" font-family="'CrimsonText-Roman'" font-size="6.996">5</text>
<text transform="matrix(1 0 0 1 770.8877 133.7988)" fill="#3CEEED" font-family="'CrimsonText-Roman'" font-size="12">cold turkey</text>
<text transform="matrix(1 0 0 1 823.4229 129.8008)" fill="#3CEEED" font-family="'CrimsonText-Roman'" font-size="6.996">5 </text>
<text transform="matrix(1 0 0 1 859.2891 135.4648)" fill="#3CEEED" font-family="'CrimsonText-Roman'" font-size="12">drink alcohol</text>
<text transform="matrix(1 0 0 1 921.3281 131.4697)" fill="#3CEEED" font-family="'CrimsonText-Roman'" font-size="6.996">5 </text>
<text transform="matrix(1 0 0 1 957.1943 133.7988)" fill="#3CEEED" font-family="'CrimsonText-Roman'" font-size="12">ghb addiction</text>
<text transform="matrix(1 0 0 1 1021.166 129.8008)" fill="#3CEEED" font-family="'CrimsonText-Roman'" font-size="6.996">5</text>
<text transform="matrix(1 0 0 1 1058.1523 135.4648)" fill="#3CEEED" font-family="'CrimsonText-Roman'" font-size="12">ghb intoxication</text>
<text transform="matrix(1 0 0 1 1135.1221 131.4697)" fill="#3CEEED" font-family="'CrimsonText-Roman'" font-size="6.996">5 </text>
<text transform="matrix(1 0 0 1 202.645 173.2129)" fill="#3CEEED" font-family="'CrimsonText-Roman'" font-size="12">jaw clenching</text>
<text transform="matrix(1 0 0 1 266.793 169.2168)" fill="#3CEEED" font-family="'CrimsonText-Roman'" font-size="6.996">5</text>
<text transform="matrix(1 0 0 1 0 173.2129)" fill="#3CEEED" font-family="'CrimsonText-Roman'" font-size="12">large amounts</text>
<text transform="matrix(1 0 0 1 66.2461 169.2168)" fill="#3CEEED" font-family="'CrimsonText-Roman'" font-size="6.996">5 </text>
<text transform="matrix(1 0 0 1 108.8579 173.2129)" fill="#3CEEED" font-family="'CrimsonText-Roman'" font-size="12">large doses</text>
<text transform="matrix(1 0 0 1 159.7407 169.2168)" fill="#3CEEED" font-family="'CrimsonText-Roman'" font-size="6.996">5 </text>
</svg>
