<?xml version="1.0" encoding="utf-8"?>
<!-- Generator: Adobe Illustrator 16.0.4, SVG Export Plug-In . SVG Version: 6.00 Build 0)  -->
<!DOCTYPE svg PUBLIC "-//W3C//DTD SVG 1.1//EN" "http://www.w3.org/Graphics/SVG/1.1/DTD/svg11.dtd">
<svg version="1.1"
	 id="Layer_1" xmlns:a3="http://ns.adobe.com/AdobeSVGViewerExtensions/3.0/" xmlns:text="http://xmlns.graougraou.com/svg/text/" a3:scriptImplementation="Adobe"
	 xmlns="http://www.w3.org/2000/svg" xmlns:xlink="http://www.w3.org/1999/xlink" x="0px" y="0px" width="1140px"
	 height="390.082px" viewBox="0 0 1140 390.082" enable-background="new 0 0 1140 390.082" xml:space="preserve">
<g>
	<text transform="matrix(1 0 0 1 0 58.1904)" fill="#A478D6" font-family="'CrimsonText-Roman'" font-size="81.7145">woodrose seeds</text>
	<text transform="matrix(1 0 0 1 497.4683 30.978)" fill="#A478D6" font-family="'CrimsonText-Roman'" font-size="47.6395">170 </text>
</g>
<g>
	<text transform="matrix(1 0 0 1 591.334 59.6636)" fill="#A478D6" font-family="'CrimsonText-Roman'" font-size="81.7145">baby woodrose</text>
	<text transform="matrix(1 0 0 1 1072.8418 32.4521)" fill="#A478D6" font-family="'CrimsonText-Roman'" font-size="47.6395">145 </text>
</g>
<g>
	<text transform="matrix(1 0 0 1 0 158.8296)" fill="#A478D6" font-family="'CrimsonText-Roman'" font-size="81.7145">hawaiian baby</text>
	<text transform="matrix(1 0 0 1 464.082 137.7964)" fill="#A478D6" font-family="'CrimsonText-Roman'" font-size="47.6395">126 </text>
</g>
<g>
	<text transform="matrix(1 0 0 1 621.5234 158.8296)" fill="#A478D6" font-family="'CrimsonText-Roman'" font-size="54.6">hbwr seeds</text>
	<text transform="matrix(1 0 0 1 864.918 144.7769)" fill="#A478D6" font-family="'CrimsonText-Roman'" font-size="31.8318">69 </text>
</g>
<g>
	<text transform="matrix(1 0 0 1 981.3643 158.8296)" fill="#A478D6" font-family="'CrimsonText-Roman'" font-size="33.6856">hbw seeds</text>
	<text transform="matrix(1 0 0 1 1117.0244 150.1597)" fill="#A478D6" font-family="'CrimsonText-Roman'" font-size="19.6387">38 </text>
</g>
<g>
	<text transform="matrix(1 0 0 1 0 231.2144)" fill="#A478D6" font-family="'CrimsonText-Roman'" font-size="28.4571">coffee grinder</text>
	<text transform="matrix(1 0 0 1 155.043 221.7388)" fill="#A478D6" font-family="'CrimsonText-Roman'" font-size="16.5905">27 </text>
</g>
<g>
	<text transform="matrix(1 0 0 1 221.6582 230.9722)" fill="#A478D6" font-family="'CrimsonText-Roman'" font-size="23.2285">orange juice</text>
	<text transform="matrix(1 0 0 1 331.6328 223.2358)" fill="#A478D6" font-family="'CrimsonText-Roman'" font-size="13.5422">24 </text>
</g>
<g>
	<text transform="matrix(1 0 0 1 394.6753 234.8403)" fill="#A478D6" font-family="'CrimsonText-Roman'" font-size="23.2285">seed mush</text>
	<text transform="matrix(1 0 0 1 488.8369 227.104)" fill="#A478D6" font-family="'CrimsonText-Roman'" font-size="13.5422">24 </text>
</g>
<g>
	<text transform="matrix(1 0 0 1 551.8794 234.8403)" fill="#A478D6" font-family="'CrimsonText-Roman'" font-size="23.2285">glory seeds</text>
	<text transform="matrix(1 0 0 1 651.0781 227.104)" fill="#A478D6" font-family="'CrimsonText-Roman'" font-size="13.5422">22 </text>
</g>
<g>
	<text transform="matrix(1 0 0 1 714.1465 234.8403)" fill="#A478D6" font-family="'CrimsonText-Roman'" font-size="23.2285">syrian rue</text>
	<text transform="matrix(1 0 0 1 804.5195 227.104)" fill="#A478D6" font-family="'CrimsonText-Roman'" font-size="13.5422">22 </text>
</g>
<g>
	<text transform="matrix(1 0 0 1 867.5879 234.8403)" fill="#A478D6" font-family="'CrimsonText-Roman'" font-size="23.2285">seed matter</text>
	<text transform="matrix(1 0 0 1 972.0703 227.104)" fill="#A478D6" font-family="'CrimsonText-Roman'" font-size="13.5422">18 </text>
</g>
<g>
	<text transform="matrix(1 0 0 1 1035.1387 234.397)" fill="#A478D6" font-family="'CrimsonText-Roman'" font-size="18">fuzzy coating</text>
	<text transform="matrix(1 0 0 1 1127.7227 228.4019)" fill="#A478D6" font-family="'CrimsonText-Roman'" font-size="10.494">15 </text>
</g>
<g>
	<text transform="matrix(1 0 0 1 0 295.606)" fill="#A478D6" font-family="'CrimsonText-Roman'" font-size="18">pink floyd</text>
	<text transform="matrix(1 0 0 1 73.541 290.9702)" fill="#A478D6" font-family="'CrimsonText-Roman'" font-size="10.494">14 </text>
</g>
<g>
	<text transform="matrix(1 0 0 1 113.6787 296.603)" fill="#A478D6" font-family="'CrimsonText-Roman'" font-size="18">salvia divinorum</text>
	<text transform="matrix(0.583 0 0 0.583 231.8916 290.6089)" fill="#A478D6" font-family="'CrimsonText-Roman'" font-size="18">14</text>
	<text transform="matrix(1 0 0 1 241.791 296.603)" fill="#A478D6" font-family="'CrimsonText-Roman'" font-size="18"> </text>
</g>
<g>
	<text transform="matrix(1 0 0 1 273.708 295.606)" fill="#A478D6" font-family="'CrimsonText-Roman'" font-size="18">coffee filter</text>
	<text transform="matrix(1 0 0 1 353.7065 289.6108)" fill="#A478D6" font-family="'CrimsonText-Roman'" font-size="10.494">13 </text>
</g>
<g>
	<text transform="matrix(1 0 0 1 393.875 295.606)" fill="#A478D6" font-family="'CrimsonText-Roman'" font-size="18">wood rose</text>
	<text transform="matrix(1 0 0 1 466.9819 289.6108)" fill="#A478D6" font-family="'CrimsonText-Roman'" font-size="10.494">13 </text>
</g>
<g>
	<text transform="matrix(1 0 0 1 507.1514 296.4302)" fill="#A478D6" font-family="'CrimsonText-Roman'" font-size="18">hawaiian woodrose</text>
	<text transform="matrix(1 0 0 1 643.7861 290.436)" fill="#A478D6" font-family="'CrimsonText-Roman'" font-size="10.494">12 </text>
</g>
<g>
	<text transform="matrix(1 0 0 1 683.9434 298.603)" fill="#A478D6" font-family="'CrimsonText-Roman'" font-size="18">crushed seeds</text>
	<text transform="matrix(1 0 0 1 779.2539 292.6089)" fill="#A478D6" font-family="'CrimsonText-Roman'" font-size="10.494">11 </text>
</g>
<g>
	<text transform="matrix(1 0 0 1 944.7363 298.603)" fill="#A478D6" font-family="'CrimsonText-Roman'" font-size="18">ice cream</text>
	<text transform="matrix(1 0 0 1 1011.0225 292.6089)" fill="#A478D6" font-family="'CrimsonText-Roman'" font-size="10.494">11 </text>
</g>
<g>
	<text transform="matrix(1 0 0 1 819.4121 298.603)" fill="#A478D6" font-family="'CrimsonText-Roman'" font-size="18">lysergic acid</text>
	<text transform="matrix(1 0 0 1 904.5781 292.6089)" fill="#A478D6" font-family="'CrimsonText-Roman'" font-size="10.494">11 </text>
</g>
<g>
	<text transform="matrix(1 0 0 1 1051.1807 299.6011)" fill="#A478D6" font-family="'CrimsonText-Roman'" font-size="18">baby wood</text>
	<text transform="matrix(1 0 0 1 1127.7334 293.6069)" fill="#A478D6" font-family="'CrimsonText-Roman'" font-size="10.494">10 </text>
</g>
<g>
	<text transform="matrix(1 0 0 1 0 372.0015)" fill="#A478D6" font-family="'CrimsonText-Roman'" font-size="18">lemon juice</text>
	<text transform="matrix(1 0 0 1 81.2466 366.0073)" fill="#A478D6" font-family="'CrimsonText-Roman'" font-size="10.494">10 </text>
</g>
<g>
	<text transform="matrix(1 0 0 1 114.1909 372.0015)" fill="#A478D6" font-family="'CrimsonText-Roman'" font-size="18">outer coating</text>
	<text transform="matrix(1 0 0 1 207.6724 366.0073)" fill="#A478D6" font-family="'CrimsonText-Roman'" font-size="10.494">10 </text>
</g>
<g>
	<text transform="matrix(1 0 0 1 240.6162 372.0015)" fill="#A478D6" font-family="'CrimsonText-Roman'" font-size="18">apple juice</text>
	<text transform="matrix(1 0 0 1 314.6914 366.0073)" fill="#A478D6" font-family="'CrimsonText-Roman'" font-size="10.494">9</text>
	<text transform="matrix(1 0 0 1 319.6504 372.0015)" fill="#A478D6" font-family="'CrimsonText-Roman'" font-size="18"> </text>
</g>
<g>
	<text transform="matrix(1 0 0 1 344.3535 372.0015)" fill="#A478D6" font-family="'CrimsonText-Roman'" font-size="18">auditory hallucinations</text>
	<text transform="matrix(1 0 0 1 506.0723 366.0073)" fill="#A478D6" font-family="'CrimsonText-Roman'" font-size="10.494">9 </text>
</g>
<g>
	<text transform="matrix(1 0 0 1 534.0566 371.2261)" fill="#A478D6" font-family="'CrimsonText-Roman'" font-size="18">cyanogenic glycosides</text>
	<text transform="matrix(1 0 0 1 686.8633 365.2319)" fill="#A478D6" font-family="'CrimsonText-Roman'" font-size="10.494">9 </text>
</g>
<g>
	<text transform="matrix(1 0 0 1 714.8467 372.0015)" fill="#A478D6" font-family="'CrimsonText-Roman'" font-size="18">hawaiian strain</text>
	<text transform="matrix(1 0 0 1 822.6182 366.0073)" fill="#A478D6" font-family="'CrimsonText-Roman'" font-size="10.494">9</text>
	<text transform="matrix(1 0 0 1 827.5781 372.0015)" fill="#A478D6" font-family="'CrimsonText-Roman'" font-size="18"> </text>
</g>
<g>
	<text transform="matrix(1 0 0 1 852.2803 372.0015)" fill="#A478D6" font-family="'CrimsonText-Roman'" font-size="18">rose seeds</text>
	<text transform="matrix(1 0 0 1 922.2949 366.0073)" fill="#A478D6" font-family="'CrimsonText-Roman'" font-size="10.494">9</text>
	<text transform="matrix(1 0 0 1 927.2539 372.0015)" fill="#A478D6" font-family="'CrimsonText-Roman'" font-size="18"> </text>
</g>
<g>
	<text transform="matrix(1 0 0 1 951.9551 372.0015)" fill="#A478D6" font-family="'CrimsonText-Roman'" font-size="18">shot glass</text>
	<text transform="matrix(1 0 0 1 1018.8936 366.0073)" fill="#A478D6" font-family="'CrimsonText-Roman'" font-size="10.494">9</text>
	<text transform="matrix(1 0 0 1 1023.8535 372.0015)" fill="#A478D6" font-family="'CrimsonText-Roman'" font-size="18"> </text>
</g>
<g>
	<text transform="matrix(1 0 0 1 1048.5557 372.0015)" fill="#A478D6" font-family="'CrimsonText-Roman'" font-size="18">dark brown</text>
	<text transform="matrix(1 0 0 1 1131.0156 366.0073)" fill="#A478D6" font-family="'CrimsonText-Roman'" font-size="10.494">8</text>
	<text transform="matrix(1 0 0 1 1135.9746 372.0015)" fill="#A478D6" font-family="'CrimsonText-Roman'" font-size="18"> </text>
</g>
</svg>
