<?xml version="1.0" encoding="utf-8"?>
<!-- Generator: Adobe Illustrator 16.0.4, SVG Export Plug-In . SVG Version: 6.00 Build 0)  -->
<!DOCTYPE svg PUBLIC "-//W3C//DTD SVG 1.1//EN" "http://www.w3.org/Graphics/SVG/1.1/DTD/svg11.dtd">
<svg version="1.1"
	 id="Layer_1" a3:scriptImplementation="Adobe" xmlns:text="http://xmlns.graougraou.com/svg/text/" xmlns:a3="http://ns.adobe.com/AdobeSVGViewerExtensions/3.0/"
	 xmlns="http://www.w3.org/2000/svg" xmlns:xlink="http://www.w3.org/1999/xlink" x="0px" y="0px" width="1140px"
	 height="249.163px" viewBox="7.294 0 1140 249.163" enable-background="new 7.294 0 1140 249.163" xml:space="preserve">
<text transform="matrix(1 0 0 1 7.2939 51.8999)" fill="#A478D6" font-family="'CrimsonText-Roman'" font-size="64.8396">woodrose seeds</text>
<text transform="matrix(0.583 0 0 0.583 402.0303 30.3081)" fill="#A478D6" font-family="'CrimsonText-Roman'" font-size="64.8396">170 </text>
<text transform="matrix(1 0 0 1 703.2041 51.8999)" fill="#A478D6" font-family="'CrimsonText-Roman'" font-size="64.8396">baby woodrose</text>
<text transform="matrix(0.583 0 0 0.583 1085.2764 30.3081)" fill="#A478D6" font-family="'CrimsonText-Roman'" font-size="64.8396">145 </text>
<text transform="matrix(1 0 0 1 7.2939 117)" fill="#A478D6" font-family="'CrimsonText-Roman'" font-size="64.8396">hawaiian baby</text>
<text transform="matrix(0.583 0 0 0.583 369.3574 95.4082)" fill="#A478D6" font-family="'CrimsonText-Roman'" font-size="64.8396">126 </text>
<text transform="matrix(1 0 0 1 488.502 116.7998)" fill="#A478D6" font-family="'CrimsonText-Roman'" font-size="36.4">hbwr seeds</text>
<text transform="matrix(0.583 0 0 0.583 646.5791 104.6787)" fill="#A478D6" font-family="'CrimsonText-Roman'" font-size="36.4">69 </text>
<text transform="matrix(1 0 0 1 728.4746 116.7998)" fill="#A478D6" font-family="'CrimsonText-Roman'" font-size="22.4571">hbw seeds</text>
<text transform="matrix(0.583 0 0 0.583 817.667 109.3213)" fill="#A478D6" font-family="'CrimsonText-Roman'" font-size="22.4571">38 </text>
<text transform="matrix(1 0 0 1 890.0742 116.7998)" fill="#A478D6" font-family="'CrimsonText-Roman'" font-size="18.9714">coffee grinder</text>
<text transform="matrix(0.583 0 0 0.583 993.4355 110.4824)" fill="#A478D6" font-family="'CrimsonText-Roman'" font-size="18.9714">27 </text>
<text transform="matrix(1 0 0 1 1063.4424 117)" fill="#A478D6" font-family="'CrimsonText-Roman'" font-size="15.4857">orange juice</text>
<text transform="matrix(0.583 0 0 0.583 1136.7578 111.8428)" fill="#A478D6" font-family="'CrimsonText-Roman'" font-size="15.4857">24 </text>
<text transform="matrix(1 0 0 1 7.2939 157.6001)" fill="#A478D6" font-family="'CrimsonText-Roman'" font-size="15.4857">seed mush</text>
<text transform="matrix(0.583 0 0 0.583 70.0684 152.4429)" fill="#A478D6" font-family="'CrimsonText-Roman'" font-size="15.4857">24 </text>
<text transform="matrix(1 0 0 1 125.3613 157.6001)" fill="#A478D6" font-family="'CrimsonText-Roman'" font-size="15.4857">glory seeds</text>
<text transform="matrix(0.583 0 0 0.583 191.4932 152.4429)" fill="#A478D6" font-family="'CrimsonText-Roman'" font-size="15.4857">22 </text>
<text transform="matrix(1 0 0 1 246.8032 157.6001)" fill="#A478D6" font-family="'CrimsonText-Roman'" font-size="15.4857">syrian rue</text>
<text transform="matrix(0.583 0 0 0.583 307.0522 152.4429)" fill="#A478D6" font-family="'CrimsonText-Roman'" font-size="15.4857">22 </text>
<text transform="matrix(1 0 0 1 362.3628 157.6001)" fill="#A478D6" font-family="'CrimsonText-Roman'" font-size="15.4857">seed matter</text>
<text transform="matrix(0.583 0 0 0.583 432.0181 152.4429)" fill="#A478D6" font-family="'CrimsonText-Roman'" font-size="15.4857">18 </text>
<text transform="matrix(1 0 0 1 487.3281 157.6001)" fill="#A478D6" font-family="'CrimsonText-Roman'" font-size="12">fuzzy coating</text>
<text transform="matrix(0.583 0 0 0.583 549.0508 153.604)" fill="#A478D6" font-family="'CrimsonText-Roman'" font-size="12">15 </text>
<text transform="matrix(1 0 0 1 601.9932 157.6001)" fill="#A478D6" font-family="'CrimsonText-Roman'" font-size="12">pink floyd</text>
<text transform="matrix(0.583 0 0 0.583 649.583 153.604)" fill="#A478D6" font-family="'CrimsonText-Roman'" font-size="12">14 </text>
<text transform="matrix(1 0 0 1 702.5029 157.6001)" fill="#A478D6" font-family="'CrimsonText-Roman'" font-size="12">salvia divinorum14 </text>
<text transform="matrix(1 0 0 1 840.0732 157.6001)" fill="#A478D6" font-family="'CrimsonText-Roman'" font-size="12">coffee filter</text>
<text transform="matrix(0.583 0 0 0.583 893.4053 153.604)" fill="#A478D6" font-family="'CrimsonText-Roman'" font-size="12">13 </text>
<text transform="matrix(1 0 0 1 946.3467 157.6001)" fill="#A478D6" font-family="'CrimsonText-Roman'" font-size="12">wood rose</text>
<text transform="matrix(0.583 0 0 0.583 995.085 153.604)" fill="#A478D6" font-family="'CrimsonText-Roman'" font-size="12">13 </text>
<text transform="matrix(1 0 0 1 1048.0264 158.4238)" fill="#A478D6" font-family="'CrimsonText-Roman'" font-size="12">hawaiian woodrose</text>
<text transform="matrix(0.583 0 0 0.583 1139.1162 154.4277)" fill="#A478D6" font-family="'CrimsonText-Roman'" font-size="12">12 </text>
<text transform="matrix(1 0 0 1 7.2939 192)" fill="#A478D6" font-family="'CrimsonText-Roman'" font-size="12">crushed seeds</text>
<text transform="matrix(0.583 0 0 0.583 70.833 188.0039)" fill="#A478D6" font-family="'CrimsonText-Roman'" font-size="12">11 </text>
<text transform="matrix(1 0 0 1 139.5239 192)" fill="#A478D6" font-family="'CrimsonText-Roman'" font-size="12">ice cream</text>
<text transform="matrix(0.583 0 0 0.583 183.7153 188.0039)" fill="#A478D6" font-family="'CrimsonText-Roman'" font-size="12">11 </text>
<text transform="matrix(1 0 0 1 252.4067 192)" fill="#A478D6" font-family="'CrimsonText-Roman'" font-size="12">lysergic acid</text>
<text transform="matrix(0.583 0 0 0.583 309.1841 188.0039)" fill="#A478D6" font-family="'CrimsonText-Roman'" font-size="12">11 </text>
<text transform="matrix(1 0 0 1 377.875 192)" fill="#A478D6" font-family="'CrimsonText-Roman'" font-size="12">baby wood</text>
<text transform="matrix(0.583 0 0 0.583 428.9102 188.0039)" fill="#A478D6" font-family="'CrimsonText-Roman'" font-size="12">10 </text>
<text transform="matrix(1 0 0 1 497.6016 192)" fill="#A478D6" font-family="'CrimsonText-Roman'" font-size="12">lemon juice</text>
<text transform="matrix(0.583 0 0 0.583 551.7656 188.0039)" fill="#A478D6" font-family="'CrimsonText-Roman'" font-size="12">10 </text>
<text transform="matrix(1 0 0 1 620.457 192)" fill="#A478D6" font-family="'CrimsonText-Roman'" font-size="12">outer coating</text>
<text transform="matrix(0.583 0 0 0.583 682.7773 188.0039)" fill="#A478D6" font-family="'CrimsonText-Roman'" font-size="12">10 </text>
<text transform="matrix(1 0 0 1 751.4688 192)" fill="#A478D6" font-family="'CrimsonText-Roman'" font-size="12">apple juice</text>
<text transform="matrix(0.583 0 0 0.583 800.8516 188.0039)" fill="#A478D6" font-family="'CrimsonText-Roman'" font-size="12">9</text>
<text transform="matrix(1 0 0 1 804.1582 192)" fill="#A478D6" font-family="'CrimsonText-Roman'" font-size="12"> </text>
<text transform="matrix(1 0 0 1 867.3545 192)" fill="#A478D6" font-family="'CrimsonText-Roman'" font-size="12">auditory hallucinations</text>
<text transform="matrix(0.583 0 0 0.583 975.167 188.0039)" fill="#A478D6" font-family="'CrimsonText-Roman'" font-size="12">9 </text>
<text transform="matrix(1 0 0 1 1040.5518 191.2241)" fill="#A478D6" font-family="'CrimsonText-Roman'" font-size="12">cyanogenic glycosides</text>
<text transform="matrix(0.583 0 0 0.583 1142.4229 187.228)" fill="#A478D6" font-family="'CrimsonText-Roman'" font-size="12">9 </text>
<text transform="matrix(1 0 0 1 7.2939 227)" fill="#A478D6" font-family="'CrimsonText-Roman'" font-size="12">hawaiian strain</text>
<text transform="matrix(0.583 0 0 0.583 79.1416 223.0039)" fill="#A478D6" font-family="'CrimsonText-Roman'" font-size="12">9</text>
<text transform="matrix(1 0 0 1 82.4482 227)" fill="#A478D6" font-family="'CrimsonText-Roman'" font-size="12"> </text>
<text transform="matrix(1 0 0 1 121.333 227)" fill="#A478D6" font-family="'CrimsonText-Roman'" font-size="12">rose seeds</text>
<text transform="matrix(0.583 0 0 0.583 168.0088 223.0039)" fill="#A478D6" font-family="'CrimsonText-Roman'" font-size="12">9</text>
<text transform="matrix(1 0 0 1 171.3154 227)" fill="#A478D6" font-family="'CrimsonText-Roman'" font-size="12"> </text>
<text transform="matrix(1 0 0 1 209.8438 227)" fill="#A478D6" font-family="'CrimsonText-Roman'" font-size="12">shot glass</text>
<text transform="matrix(0.583 0 0 0.583 254.4688 223.0039)" fill="#A478D6" font-family="'CrimsonText-Roman'" font-size="12">9</text>
<text transform="matrix(1 0 0 1 257.7754 227)" fill="#A478D6" font-family="'CrimsonText-Roman'" font-size="12"> </text>
<text transform="matrix(1 0 0 1 295.1084 227)" fill="#A478D6" font-family="'CrimsonText-Roman'" font-size="12">dark brown</text>
<text transform="matrix(0.583 0 0 0.583 350.0811 223.0039)" fill="#A478D6" font-family="'CrimsonText-Roman'" font-size="12">8</text>
<text transform="matrix(1 0 0 1 353.3877 227)" fill="#A478D6" font-family="'CrimsonText-Roman'" font-size="12"> </text>
</svg>
