<?xml version="1.0" encoding="utf-8"?>
<!-- Generator: Adobe Illustrator 16.0.4, SVG Export Plug-In . SVG Version: 6.00 Build 0)  -->
<!DOCTYPE svg PUBLIC "-//W3C//DTD SVG 1.1//EN" "http://www.w3.org/Graphics/SVG/1.1/DTD/svg11.dtd">
<svg version="1.1"
	 id="Layer_1" xmlns:a3="http://ns.adobe.com/AdobeSVGViewerExtensions/3.0/" xmlns:text="http://xmlns.graougraou.com/svg/text/" a3:scriptImplementation="Adobe"
	 xmlns="http://www.w3.org/2000/svg" xmlns:xlink="http://www.w3.org/1999/xlink" x="0px" y="0px" width="1140px" height="283.89px"
	 viewBox="272 315.89 1140 283.89" enable-background="new 272 315.89 1140 283.89" xml:space="preserve">
<g>
	<text transform="matrix(1 0 0 1 272 381.3905)" fill="#3CEEED" font-family="'CrimsonText-Roman'" font-size="70.2857">nitrous oxide</text>
	<text transform="matrix(1 0 0 1 635.3706 357.9852)" fill="#3CEEED" font-family="'CrimsonText-Roman'" font-size="40.9765">29 </text>
</g>
<g>
	<text transform="matrix(1 0 0 1 712.7163 381.059)" fill="#3CEEED" font-family="'CrimsonText-Roman'" font-size="54.6">dance floor</text>
	<text transform="matrix(1 0 0 1 951.5381 362.8783)" fill="#3CEEED" font-family="'CrimsonText-Roman'" font-size="31.8318">22 </text>
</g>
<g>
	<text transform="matrix(1 0 0 1 1018.1934 381.2845)" fill="#3CEEED" font-family="'CrimsonText-Roman'" font-size="33.6856">white powder</text>
	<text transform="matrix(1 0 0 1 1201.3604 370.0677)" fill="#3CEEED" font-family="'CrimsonText-Roman'" font-size="19.6387">14 </text>
</g>
<g>
	<text transform="matrix(1 0 0 1 1253.7246 381.2845)" fill="#3CEEED" font-family="'CrimsonText-Roman'" font-size="28.4571">higher doses</text>
	<text transform="matrix(1 0 0 1 1392.5908 371.809)" fill="#3CEEED" font-family="'CrimsonText-Roman'" font-size="16.5905">13 </text>
</g>
<g>
	<text transform="matrix(1 0 0 1 272 455.39)" fill="#3CEEED" font-family="'CrimsonText-Roman'" font-size="23.2285">geometric patterns</text>
	<text transform="matrix(1 0 0 1 442.4717 447.6556)" fill="#3CEEED" font-family="'CrimsonText-Roman'" font-size="13.5422">10 </text>
</g>
<g>
	<text transform="matrix(1 0 0 1 487.1206 455.392)" fill="#3CEEED" font-family="'CrimsonText-Roman'" font-size="23.2285">ketamine hcl</text>
	<text transform="matrix(1 0 0 1 603.2646 447.6556)" fill="#3CEEED" font-family="'CrimsonText-Roman'" font-size="13.5422">10 </text>
</g>
<g>
	<text transform="matrix(1 0 0 1 647.9136 455.392)" fill="#3CEEED" font-family="'CrimsonText-Roman'" font-size="23.2285">mini noodle</text>
	<text transform="matrix(1 0 0 1 757.9541 447.6556)" fill="#3CEEED" font-family="'CrimsonText-Roman'" font-size="13.5422">10 </text>
</g>
<g>
	<text transform="matrix(1 0 0 1 802.603 455.392)" fill="#3CEEED" font-family="'CrimsonText-Roman'" font-size="23.2285">orange juice</text>
	<text transform="matrix(1 0 0 1 913.9648 449.4125)" fill="#3CEEED" font-family="'CrimsonText-Roman'" font-size="13.5422">10 </text>
</g>
<g>
	<text transform="matrix(1 0 0 1 958.6152 455.392)" fill="#3CEEED" font-family="'CrimsonText-Roman'" font-size="23.2285">slow motion</text>
	<text transform="matrix(1 0 0 1 1072.6914 447.6556)" fill="#3CEEED" font-family="'CrimsonText-Roman'" font-size="13.5422">10 </text>
</g>
<g>
	<text transform="matrix(1 0 0 1 1117.3408 454.9476)" fill="#3CEEED" font-family="'CrimsonText-Roman'" font-size="18">blotter acid</text>
	<text transform="matrix(1 0 0 1 1196.8125 448.9535)" fill="#3CEEED" font-family="'CrimsonText-Roman'" font-size="10.494">9 </text>
</g>
<g>
	<text transform="matrix(1 0 0 1 1232.9375 454.9476)" fill="#3CEEED" font-family="'CrimsonText-Roman'" font-size="18">ego death</text>
	<text transform="matrix(1 0 0 1 1300.3848 448.9535)" fill="#3CEEED" font-family="'CrimsonText-Roman'" font-size="10.494">9 </text>
</g>
<g>
	<text transform="matrix(1 0 0 1 1336.5098 454.9476)" fill="#3CEEED" font-family="'CrimsonText-Roman'" font-size="18">low doses</text>
	<text transform="matrix(1 0 0 1 1404.6934 448.9535)" fill="#3CEEED" font-family="'CrimsonText-Roman'" font-size="10.494">9 </text>
</g>
<g>
	<text transform="matrix(1 0 0 1 272 518.2474)" fill="#3CEEED" font-family="'CrimsonText-Roman'" font-size="18">clear headed</text>
	<text transform="matrix(1 0 0 1 358.5713 512.2533)" fill="#3CEEED" font-family="'CrimsonText-Roman'" font-size="10.494">8 </text>
</g>
<g>
	<text transform="matrix(1 0 0 1 390.3799 518.2474)" fill="#3CEEED" font-family="'CrimsonText-Roman'" font-size="18">large lines</text>
	<text transform="matrix(1 0 0 1 461.5225 513.6146)" fill="#3CEEED" font-family="'CrimsonText-Roman'" font-size="10.494">8 </text>
	<text transform="matrix(1 0 0 1 461.5225 513.6146)" fill="#3CEEED" font-family="'CrimsonText-Roman'" font-size="10.494">8 </text>
</g>
<g>
	<text transform="matrix(1 0 0 1 578.5225 513.6146)" fill="#3CEEED" font-family="'CrimsonText-Roman'" font-size="10.494">8 </text>
	<text transform="matrix(1 0 0 1 493.3311 518.2474)" fill="#3CEEED" font-family="'CrimsonText-Roman'" font-size="18">panic attack</text>
</g>
<g>
	<text transform="matrix(1 0 0 1 601.4873 517.2455)" fill="#3CEEED" font-family="'CrimsonText-Roman'" font-size="18">roller coaster</text>
	<text transform="matrix(1 0 0 1 693.8081 511.2513)" fill="#3CEEED" font-family="'CrimsonText-Roman'" font-size="10.494">8</text>
</g>
<g>
	<text transform="matrix(1 0 0 1 723.2695 517.2455)" fill="#3CEEED" font-family="'CrimsonText-Roman'" font-size="18">black hole</text>
	<text transform="matrix(1 0 0 1 794.0039 511.2513)" fill="#3CEEED" font-family="'CrimsonText-Roman'" font-size="10.494">7 </text>
</g>
<g>
	<text transform="matrix(1 0 0 1 825.8027 517.2455)" fill="#3CEEED" font-family="'CrimsonText-Roman'" font-size="18">entire universe</text>
	<text transform="matrix(1 0 0 1 931.5527 511.2513)" fill="#3CEEED" font-family="'CrimsonText-Roman'" font-size="10.494">7 </text>
</g>
<g>
	<text transform="matrix(1 0 0 1 963.3516 517.2455)" fill="#3CEEED" font-family="'CrimsonText-Roman'" font-size="18">fine powder</text>
	<text transform="matrix(1 0 0 1 1048.3232 511.2513)" fill="#3CEEED" font-family="'CrimsonText-Roman'" font-size="10.494">7 </text>
</g>
<g>
	<text transform="matrix(1 0 0 1 1080.1221 517.2455)" fill="#3CEEED" font-family="'CrimsonText-Roman'" font-size="18">fourth dimension</text>
	<text transform="matrix(1 0 0 1 1203.1865 511.2513)" fill="#3CEEED" font-family="'CrimsonText-Roman'" font-size="10.494">7 </text>
</g>
<g>
	<text transform="matrix(1 0 0 1 1234.9854 517.2455)" fill="#3CEEED" font-family="'CrimsonText-Roman'" font-size="18">glow sticks</text>
	<text transform="matrix(1 0 0 1 1312.3301 511.2513)" fill="#3CEEED" font-family="'CrimsonText-Roman'" font-size="10.494">7 </text>
</g>
<g>
	<text transform="matrix(1 0 0 1 1344.1279 517.2455)" fill="#3CEEED" font-family="'CrimsonText-Roman'" font-size="18">holy shit</text>
	<text transform="matrix(1 0 0 1 1404.7031 511.2513)" fill="#3CEEED" font-family="'CrimsonText-Roman'" font-size="10.494">7 </text>
</g>
<g>
	<g>
		<text transform="matrix(1 0 0 1 272 582.39)" fill="#3CEEED" font-family="'CrimsonText-Roman'" font-size="18">intramuscular injection</text>
	</g>
	<text transform="matrix(1 0 0 1 436.0234 576.3959)" fill="#3CEEED" font-family="'CrimsonText-Roman'" font-size="10.494">7 </text>
</g>
<g>
	<text transform="matrix(1 0 0 1 482.6328 582.39)" fill="#3CEEED" font-family="'CrimsonText-Roman'" font-size="18">liquid ketamine</text>
	<text transform="matrix(1 0 0 1 592.0742 576.3959)" fill="#3CEEED" font-family="'CrimsonText-Roman'" font-size="10.494">7 </text>
</g>
<g>
	<text transform="matrix(1 0 0 1 638.6826 582.39)" fill="#3CEEED" font-family="'CrimsonText-Roman'" font-size="18">motor skills</text>
	<text transform="matrix(1 0 0 1 721.791 576.3959)" fill="#3CEEED" font-family="'CrimsonText-Roman'" font-size="10.494">7 </text>
</g>
<g>
	<text transform="matrix(1 0 0 1 768.4004 582.3871)" fill="#3CEEED" font-family="'CrimsonText-Roman'" font-size="18">mp3 player</text>
	<text transform="matrix(1 0 0 1 847.0449 576.3939)" fill="#3CEEED" font-family="'CrimsonText-Roman'" font-size="10.494">7</text>
</g>
<g>
	<text transform="matrix(1 0 0 1 891.3086 582.3871)" fill="#3CEEED" font-family="'CrimsonText-Roman'" font-size="18">pink floyd</text>
	<text transform="matrix(1 0 0 1 962.6934 576.3939)" fill="#3CEEED" font-family="'CrimsonText-Roman'" font-size="10.494">7 </text>
</g>
<g>
	<text transform="matrix(1 0 0 1 1009.3018 582.3871)" fill="#3CEEED" font-family="'CrimsonText-Roman'" font-size="18">powder form</text>
	<text transform="matrix(1 0 0 1 1102.1504 576.3939)" fill="#3CEEED" font-family="'CrimsonText-Roman'" font-size="10.494">7</text>
</g>
<g>
	<text transform="matrix(1 0 0 1 1146.4121 582.3871)" fill="#3CEEED" font-family="'CrimsonText-Roman'" font-size="18">sensory input</text>
	<text transform="matrix(1 0 0 1 1241.6504 576.3939)" fill="#3CEEED" font-family="'CrimsonText-Roman'" font-size="10.494">7</text>
</g>
<g>
	<text transform="matrix(1 0 0 1 1285.9121 582.3871)" fill="#3CEEED" font-family="'CrimsonText-Roman'" font-size="18">sensory overload</text>
	<text transform="matrix(1 0 0 1 1404.7031 576.3939)" fill="#3CEEED" font-family="'CrimsonText-Roman'" font-size="10.494">7 </text>
</g>
</svg>
