<?xml version="1.0" encoding="utf-8"?>
<!-- Generator: Adobe Illustrator 16.0.4, SVG Export Plug-In . SVG Version: 6.00 Build 0)  -->
<!DOCTYPE svg PUBLIC "-//W3C//DTD SVG 1.1//EN" "http://www.w3.org/Graphics/SVG/1.1/DTD/svg11.dtd">
<svg version="1.1"
	 id="Layer_1" xmlns:a3="http://ns.adobe.com/AdobeSVGViewerExtensions/3.0/" xmlns:text="http://xmlns.graougraou.com/svg/text/" a3:scriptImplementation="Adobe"
	 xmlns="http://www.w3.org/2000/svg" xmlns:xlink="http://www.w3.org/1999/xlink" x="0px" y="0px" width="1140px"
	 height="358.969px" viewBox="272 292.39 1140 358.969" enable-background="new 272 292.39 1140 358.969" xml:space="preserve">
<g>
	<text transform="matrix(1 0 0 1 272 363.4237)" fill="#3CEEED" font-family="'CrimsonText-Roman'" font-size="78.907">kratom tea</text>
	<text transform="matrix(1 0 0 1 604.8105 337.1473)" fill="#3CEEED" font-family="'CrimsonText-Roman'" font-size="46.0028">41 </text>
</g>
<g>
	<text transform="matrix(1 0 0 1 670.4771 364.1864)" fill="#3CEEED" font-family="'CrimsonText-Roman'" font-size="53.3585">kratom powder</text>
	<text transform="matrix(1 0 0 1 994.2754 346.4188)" fill="#3CEEED" font-family="'CrimsonText-Roman'" font-size="31.108">28 </text>
</g>
<g>
	<text transform="matrix(1 0 0 1 1047.6211 363.7528)" fill="#3CEEED" font-family="'CrimsonText-Roman'" font-size="48.2488">powdered kratom</text>
	<text transform="matrix(1 0 0 1 1384.0908 347.6854)" fill="#3CEEED" font-family="'CrimsonText-Roman'" font-size="28.1291">25 </text>
</g>
<g>
	<text transform="matrix(1 0 0 1 272 431.891)" fill="#3CEEED" font-family="'CrimsonText-Roman'" font-size="43.1392">online vendor</text>
	<text transform="matrix(1 0 0 1 509.0977 417.5248)" fill="#3CEEED" font-family="'CrimsonText-Roman'" font-size="25.1501">24 </text>
</g>
<g>
	<text transform="matrix(1 0 0 1 549.2686 431.891)" fill="#3CEEED" font-family="'CrimsonText-Roman'" font-size="44.1429">kratom leaf</text>
	<text transform="matrix(1 0 0 1 749.7139 417.1908)" fill="#3CEEED" font-family="'CrimsonText-Roman'" font-size="25.7353">22 </text>
</g>
<g>
	<text transform="matrix(1 0 0 1 790.6182 431.4467)" fill="#3CEEED" font-family="'CrimsonText-Roman'" font-size="38.9143">kratom extract</text>
	<text transform="matrix(1 0 0 1 1014.2598 418.4877)" fill="#3CEEED" font-family="'CrimsonText-Roman'" font-size="22.6871">21 </text>
</g>
<g>
	<text transform="matrix(1 0 0 1 1052.6016 431.4467)" fill="#3CEEED" font-family="'CrimsonText-Roman'" font-size="38.9143">withdrawal symptoms</text>
	<text transform="matrix(1 0 0 1 1390.4805 418.4877)" fill="#3CEEED" font-family="'CrimsonText-Roman'" font-size="22.6871">21 </text>
</g>
<g>
	<text transform="matrix(1 0 0 1 272 496.2806)" fill="#3CEEED" font-family="'CrimsonText-Roman'" font-size="33.6856">higher doses</text>
	<text transform="matrix(1 0 0 1 436.3809 485.0629)" fill="#3CEEED" font-family="'CrimsonText-Roman'" font-size="19.6387">19 </text>
</g>
<g>
	<text transform="matrix(1 0 0 1 492.7402 496.2806)" fill="#3CEEED" font-family="'CrimsonText-Roman'" font-size="33.6856">heart rate</text>
	<text transform="matrix(1 0 0 1 619.4893 485.0629)" fill="#3CEEED" font-family="'CrimsonText-Roman'" font-size="19.6387">18 </text>
</g>
<g>
	<text transform="matrix(1 0 0 1 675.8486 496.8177)" fill="#3CEEED" font-family="'CrimsonText-Roman'" font-size="33.6856">mild euphoria</text>
	<text transform="matrix(1 0 0 1 860.5928 485.601)" fill="#3CEEED" font-family="'CrimsonText-Roman'" font-size="19.6387">17 </text>
</g>
<g>
	<text transform="matrix(1 0 0 1 916.9336 496.556)" fill="#3CEEED" font-family="'CrimsonText-Roman'" font-size="28.4571">blue lotus</text>
	<text transform="matrix(1 0 0 1 1024.6758 487.0804)" fill="#3CEEED" font-family="'CrimsonText-Roman'" font-size="16.5905">16 </text>
</g>
<g>
	<text transform="matrix(1 0 0 1 1077.4717 496.556)" fill="#3CEEED" font-family="'CrimsonText-Roman'" font-size="28.4571">low doses</text>
	<text transform="matrix(1 0 0 1 1185.2695 487.0804)" fill="#3CEEED" font-family="'CrimsonText-Roman'" font-size="16.5905">16 </text>
</g>
<g>
	<text transform="matrix(1 0 0 1 1238.0664 496.556)" fill="#3CEEED" font-family="'CrimsonText-Roman'" font-size="28.4571">plant material</text>
	<text transform="matrix(1 0 0 1 1392.6064 487.0804)" fill="#3CEEED" font-family="'CrimsonText-Roman'" font-size="16.5905">16 </text>
</g>
<g>
	<text transform="matrix(1 0 0 1 272.0005 564.3666)" fill="#3CEEED" font-family="'CrimsonText-Roman'" font-size="28.4571">green tea</text>
	<text transform="matrix(1 0 0 1 373.5176 554.891)" fill="#3CEEED" font-family="'CrimsonText-Roman'" font-size="16.5905">15 </text>
</g>
<g>
	<text transform="matrix(1 0 0 1 399.1763 564.1039)" fill="#3CEEED" font-family="'CrimsonText-Roman'" font-size="28.4571">mitragyna speciosa</text>
	<text transform="matrix(1 0 0 1 609.6865 554.6283)" fill="#3CEEED" font-family="'CrimsonText-Roman'" font-size="16.5905">15 </text>
</g>
<g>
	<text transform="matrix(1 0 0 1 635.3442 563.6595)" fill="#3CEEED" font-family="'CrimsonText-Roman'" font-size="23.2285">dried leaf</text>
	<text transform="matrix(1 0 0 1 719.4341 555.9261)" fill="#3CEEED" font-family="'CrimsonText-Roman'" font-size="13.5422">14 </text>
</g>
<g>
	<text transform="matrix(1 0 0 1 741.4868 563.6595)" fill="#3CEEED" font-family="'CrimsonText-Roman'" font-size="23.2285">pink floyd</text>
	<text transform="matrix(1 0 0 1 833.6079 555.9261)" fill="#3CEEED" font-family="'CrimsonText-Roman'" font-size="13.5422">14 </text>
</g>
<g>
	<text transform="matrix(1 0 0 1 855.6602 563.6595)" fill="#3CEEED" font-family="'CrimsonText-Roman'" font-size="23.2285">salvia divinorum</text>
	<text transform="matrix(1 0 0 1 1008.2109 555.9261)" fill="#3CEEED" font-family="'CrimsonText-Roman'" font-size="13.5422">14 </text>
</g>
<g>
	<text transform="matrix(1 0 0 1 1030.2637 563.8021)" fill="#3CEEED" font-family="'CrimsonText-Roman'" font-size="23.2285">opiate withdrawal</text>
	<text transform="matrix(1 0 0 1 1194.5195 556.0677)" fill="#3CEEED" font-family="'CrimsonText-Roman'" font-size="13.5422">13 </text>
</g>
<g>
	<text transform="matrix(1 0 0 1 1216.6123 564.4115)" fill="#3CEEED" font-family="'CrimsonText-Roman'" font-size="23.2285">stomach discomfort</text>
	<text transform="matrix(1 0 0 1 1396.1562 556.6771)" fill="#3CEEED" font-family="'CrimsonText-Roman'" font-size="13.5422">13 </text>
</g>
<g>
	<text transform="matrix(1 0 0 1 272 628.6693)" fill="#3CEEED" font-family="'CrimsonText-Roman'" font-size="23.2285">15x extract</text>
	<text transform="matrix(1 0 0 1 371.7651 620.9349)" fill="#3CEEED" font-family="'CrimsonText-Roman'" font-size="13.5422">12 </text>
</g>
<g>
	<text transform="matrix(1 0 0 1 399.9526 628.6693)" fill="#3CEEED" font-family="'CrimsonText-Roman'" font-size="23.2285">pain relief</text>
	<text transform="matrix(1 0 0 1 491.5049 620.9349)" fill="#3CEEED" font-family="'CrimsonText-Roman'" font-size="13.5422">12 </text>
</g>
<g>
	<text transform="matrix(1 0 0 1 519.6929 628.6693)" fill="#3CEEED" font-family="'CrimsonText-Roman'" font-size="23.2285">powdered leaf</text>
	<text transform="matrix(1 0 0 1 647.2466 620.9349)" fill="#3CEEED" font-family="'CrimsonText-Roman'" font-size="13.5422">12 </text>
</g>
<g>
	<text transform="matrix(1 0 0 1 675.4336 628.225)" fill="#3CEEED" font-family="'CrimsonText-Roman'" font-size="18">coffee filter</text>
	<text transform="matrix(1 0 0 1 755.4321 622.2318)" fill="#3CEEED" font-family="'CrimsonText-Roman'" font-size="10.494">11 </text>
</g>
<g>
	<text transform="matrix(1 0 0 1 780.0552 627.7982)" fill="#3CEEED" font-family="'CrimsonText-Roman'" font-size="18">crushed leaf</text>
	<text transform="matrix(1 0 0 1 863.5869 621.8051)" fill="#3CEEED" font-family="'CrimsonText-Roman'" font-size="10.494">11 </text>
</g>
<g>
	<text transform="matrix(1 0 0 1 888.21 627.7982)" fill="#3CEEED" font-family="'CrimsonText-Roman'" font-size="18">lemon juice</text>
	<text transform="matrix(1 0 0 1 969.4561 621.8051)" fill="#3CEEED" font-family="'CrimsonText-Roman'" font-size="10.494">11 </text>
</g>
<g>
	<text transform="matrix(1 0 0 1 994.0801 627.7982)" fill="#3CEEED" font-family="'CrimsonText-Roman'" font-size="18">poppy tea</text>
	<text transform="matrix(1 0 0 1 1062.5117 621.8051)" fill="#3CEEED" font-family="'CrimsonText-Roman'" font-size="10.494">11 </text>
</g>
<g>
	<text transform="matrix(1 0 0 1 1087.1348 628.2162)" fill="#3CEEED" font-family="'CrimsonText-Roman'" font-size="18">kratom resin</text>
	<text transform="matrix(1 0 0 1 1177.3633 622.223)" fill="#3CEEED" font-family="'CrimsonText-Roman'" font-size="10.494">10 </text>
</g>
<g>
	<text transform="matrix(1 0 0 1 1201.9883 628.2396)" fill="#3CEEED" font-family="'CrimsonText-Roman'" font-size="18">coffee grinder</text>
	<text transform="matrix(1 0 0 1 1300.0566 622.2455)" fill="#3CEEED" font-family="'CrimsonText-Roman'" font-size="10.494">9 </text>
</g>
<g>
	<text transform="matrix(1 0 0 1 1319.7207 628.2396)" fill="#3CEEED" font-family="'CrimsonText-Roman'" font-size="18">fine powder</text>
	<text transform="matrix(1 0 0 1 1404.6934 622.2455)" fill="#3CEEED" font-family="'CrimsonText-Roman'" font-size="10.494">9 </text>
</g>
</svg>
