<?xml version="1.0" encoding="utf-8"?>
<!-- Generator: Adobe Illustrator 16.0.4, SVG Export Plug-In . SVG Version: 6.00 Build 0)  -->
<!DOCTYPE svg PUBLIC "-//W3C//DTD SVG 1.1//EN" "http://www.w3.org/Graphics/SVG/1.1/DTD/svg11.dtd">
<svg version="1.1"
	 id="Layer_1" xmlns:a3="http://ns.adobe.com/AdobeSVGViewerExtensions/3.0/" xmlns:text="http://xmlns.graougraou.com/svg/text/" a3:scriptImplementation="Adobe"
	 xmlns="http://www.w3.org/2000/svg" xmlns:xlink="http://www.w3.org/1999/xlink" x="0px" y="0px" width="1140px" height="256.5px"
	 viewBox="14.588 300.33 1140 256.5" enable-background="new 14.588 300.33 1140 256.5" xml:space="preserve">
<g>
	<text transform="matrix(1 0 0 1 14.5879 354.8296)" fill="#3CEEED" font-family="'CrimsonText-Roman'" font-size="53.8286">kratom tea</text>
	
		<text transform="matrix(0.583 0 0 0.583 241.6245 336.9048)" fill="#3CEEED" font-family="'CrimsonText-Roman'" font-size="53.8286">41 </text>
</g>
<g>
	<text transform="matrix(1 0 0 1 343.8804 354.8296)" fill="#3CEEED" font-family="'CrimsonText-Roman'" font-size="36.4">kratom powder</text>
	<text transform="matrix(0.583 0 0 0.583 564.769 342.7085)" fill="#3CEEED" font-family="'CrimsonText-Roman'" font-size="36.4">28 </text>
</g>
<g>
	<text transform="matrix(1 0 0 1 655.209 354.8296)" fill="#3CEEED" font-family="'CrimsonText-Roman'" font-size="32.9143">powdered kratom</text>
	
		<text transform="matrix(0.583 0 0 0.583 884.7412 343.8691)" fill="#3CEEED" font-family="'CrimsonText-Roman'" font-size="32.9143">25 </text>
</g>
<g>
	<text transform="matrix(1 0 0 1 972.8242 354.8296)" fill="#3CEEED" font-family="'CrimsonText-Roman'" font-size="29.4286">online vendor</text>
	
		<text transform="matrix(0.583 0 0 0.583 1134.5664 345.0298)" fill="#3CEEED" font-family="'CrimsonText-Roman'" font-size="29.4286">24 </text>
</g>
<g>
	<text transform="matrix(1 0 0 1 14.5879 395.8296)" fill="#3CEEED" font-family="'CrimsonText-Roman'" font-size="29.4286">kratom leaf</text>
	
		<text transform="matrix(0.583 0 0 0.583 145.5508 386.0298)" fill="#3CEEED" font-family="'CrimsonText-Roman'" font-size="29.4286">22 </text>
</g>
<g>
	<text transform="matrix(1 0 0 1 208.8311 395.8296)" fill="#3CEEED" font-family="'CrimsonText-Roman'" font-size="25.9429">kratom extract</text>
	
		<text transform="matrix(0.583 0 0 0.583 357.9263 387.1904)" fill="#3CEEED" font-family="'CrimsonText-Roman'" font-size="25.9429">21 </text>
</g>
<g>
	<text transform="matrix(1 0 0 1 418.8311 395.8296)" fill="#3CEEED" font-family="'CrimsonText-Roman'" font-size="25.9429">withdrawal symptoms</text>
	
		<text transform="matrix(0.583 0 0 0.583 644.083 387.1904)" fill="#3CEEED" font-family="'CrimsonText-Roman'" font-size="25.9429">21 </text>
</g>
<g>
	<text transform="matrix(1 0 0 1 704.9873 395.8296)" fill="#3CEEED" font-family="'CrimsonText-Roman'" font-size="22.4571">higher doses</text>
	
		<text transform="matrix(0.583 0 0 0.583 814.5752 388.3516)" fill="#3CEEED" font-family="'CrimsonText-Roman'" font-size="22.4571">19 </text>
</g>
<g>
	<text transform="matrix(1 0 0 1 873.1045 395.8296)" fill="#3CEEED" font-family="'CrimsonText-Roman'" font-size="22.4571">heart rate</text>
	
		<text transform="matrix(0.583 0 0 0.583 957.6035 388.3516)" fill="#3CEEED" font-family="'CrimsonText-Roman'" font-size="22.4571">18 </text>
</g>
<g>
	<text transform="matrix(1 0 0 1 1016.1328 395.3672)" fill="#3CEEED" font-family="'CrimsonText-Roman'" font-size="22.4571">mild euphoria</text>
	
		<text transform="matrix(0.583 0 0 0.583 1139.2959 387.8892)" fill="#3CEEED" font-family="'CrimsonText-Roman'" font-size="22.4571">17 </text>
</g>
<g>
	<text transform="matrix(1 0 0 1 14.5879 434.8296)" fill="#3CEEED" font-family="'CrimsonText-Roman'" font-size="18.9714">blue lotus</text>
	<text transform="matrix(0.583 0 0 0.583 86.416 428.5132)" fill="#3CEEED" font-family="'CrimsonText-Roman'" font-size="18.9714">16 </text>
</g>
<g>
	<text transform="matrix(1 0 0 1 152.1753 434.8296)" fill="#3CEEED" font-family="'CrimsonText-Roman'" font-size="18.9714">low doses</text>
	
		<text transform="matrix(0.583 0 0 0.583 224.0405 428.5132)" fill="#3CEEED" font-family="'CrimsonText-Roman'" font-size="18.9714">16 </text>
</g>
<g>
	<text transform="matrix(1 0 0 1 289.7998 434.8296)" fill="#3CEEED" font-family="'CrimsonText-Roman'" font-size="18.9714">plant material</text>
	
		<text transform="matrix(0.583 0 0 0.583 392.8271 428.5132)" fill="#3CEEED" font-family="'CrimsonText-Roman'" font-size="18.9714">16 </text>
</g>
<g>
	<text transform="matrix(1 0 0 1 458.5864 434.8296)" fill="#3CEEED" font-family="'CrimsonText-Roman'" font-size="18.9714">green tea</text>
	
		<text transform="matrix(0.583 0 0 0.583 526.2651 428.5132)" fill="#3CEEED" font-family="'CrimsonText-Roman'" font-size="18.9714">15 </text>
</g>
<g>
	<text transform="matrix(1 0 0 1 592.0361 434.8296)" fill="#3CEEED" font-family="'CrimsonText-Roman'" font-size="18.9714">mitragyna speciosa</text>
	
		<text transform="matrix(0.583 0 0 0.583 732.376 428.5132)" fill="#3CEEED" font-family="'CrimsonText-Roman'" font-size="18.9714">15 </text>
</g>
<g>
	<text transform="matrix(1 0 0 1 798.1455 434.8296)" fill="#3CEEED" font-family="'CrimsonText-Roman'" font-size="15.4857">dried leaf</text>
	
		<text transform="matrix(0.583 0 0 0.583 854.2051 429.6733)" fill="#3CEEED" font-family="'CrimsonText-Roman'" font-size="15.4857">14 </text>
</g>
<g>
	<text transform="matrix(1 0 0 1 917.5713 434.8296)" fill="#3CEEED" font-family="'CrimsonText-Roman'" font-size="15.4857">pink floyd</text>
	
		<text transform="matrix(0.583 0 0 0.583 978.9854 429.6733)" fill="#3CEEED" font-family="'CrimsonText-Roman'" font-size="15.4857">14 </text>
</g>
<g>
	<text transform="matrix(1 0 0 1 1042.3516 434.8296)" fill="#3CEEED" font-family="'CrimsonText-Roman'" font-size="15.4857">salvia divinorum</text>
	
		<text transform="matrix(0.583 0 0 0.583 1144.0518 429.6733)" fill="#3CEEED" font-family="'CrimsonText-Roman'" font-size="15.4857">14 </text>
</g>
<g>
	<text transform="matrix(1 0 0 1 14.5879 473.8296)" fill="#3CEEED" font-family="'CrimsonText-Roman'" font-size="15.4857">opiate withdrawal</text>
	
		<text transform="matrix(0.583 0 0 0.583 124.0918 468.6733)" fill="#3CEEED" font-family="'CrimsonText-Roman'" font-size="15.4857">13 </text>
</g>
<g>
	<text transform="matrix(1 0 0 1 185.1436 473.8296)" fill="#3CEEED" font-family="'CrimsonText-Roman'" font-size="15.4857">stomach discomfort</text>
	
		<text transform="matrix(0.583 0 0 0.583 304.8403 468.6733)" fill="#3CEEED" font-family="'CrimsonText-Roman'" font-size="15.4857">13 </text>
</g>
<g>
	<text transform="matrix(1 0 0 1 365.8921 473.8296)" fill="#3CEEED" font-family="'CrimsonText-Roman'" font-size="15.4857">15x extract</text>
	
		<text transform="matrix(0.583 0 0 0.583 432.4023 468.6733)" fill="#3CEEED" font-family="'CrimsonText-Roman'" font-size="15.4857">12 </text>
</g>
<g>
	<text transform="matrix(1 0 0 1 493.4458 473.8296)" fill="#3CEEED" font-family="'CrimsonText-Roman'" font-size="15.4857">pain relief</text>
	
		<text transform="matrix(0.583 0 0 0.583 554.481 468.6733)" fill="#3CEEED" font-family="'CrimsonText-Roman'" font-size="15.4857">12 </text>
</g>
<g>
	<text transform="matrix(1 0 0 1 615.5244 473.8296)" fill="#3CEEED" font-family="'CrimsonText-Roman'" font-size="15.4857">powdered leaf</text>
	
		<text transform="matrix(0.583 0 0 0.583 700.5596 468.6733)" fill="#3CEEED" font-family="'CrimsonText-Roman'" font-size="15.4857">12 </text>
</g>
<g>
	<text transform="matrix(1 0 0 1 761.6035 473.8296)" fill="#3CEEED" font-family="'CrimsonText-Roman'" font-size="12">coffee filter</text>
	<text transform="matrix(0.583 0 0 0.583 814.9355 469.8335)" fill="#3CEEED" font-family="'CrimsonText-Roman'" font-size="12">11 </text>
</g>
<g>
	<text transform="matrix(1 0 0 1 873.6025 473.8296)" fill="#3CEEED" font-family="'CrimsonText-Roman'" font-size="12">crushed leaf</text>
	<text transform="matrix(0.583 0 0 0.583 929.29 469.8335)" fill="#3CEEED" font-family="'CrimsonText-Roman'" font-size="12">11 </text>
</g>
<g>
	<text transform="matrix(1 0 0 1 987.958 473.8296)" fill="#3CEEED" font-family="'CrimsonText-Roman'" font-size="12">lemon juice</text>
	<text transform="matrix(0.583 0 0 0.583 1042.1221 469.8335)" fill="#3CEEED" font-family="'CrimsonText-Roman'" font-size="12">11 </text>
</g>
<g>
	<text transform="matrix(1 0 0 1 1100.7891 473.8296)" fill="#3CEEED" font-family="'CrimsonText-Roman'" font-size="12">poppy tea</text>
	<text transform="matrix(0.583 0 0 0.583 1146.4102 469.8335)" fill="#3CEEED" font-family="'CrimsonText-Roman'" font-size="12">11 </text>
</g>
<g>
	<text transform="matrix(1 0 0 1 14.5884 512.8296)" fill="#3CEEED" font-family="'CrimsonText-Roman'" font-size="12">kratom resin</text>
	<text transform="matrix(0.583 0 0 0.583 74.7407 508.8335)" fill="#3CEEED" font-family="'CrimsonText-Roman'" font-size="12">10 </text>
</g>
<g>
	<text transform="matrix(1 0 0 1 115.9297 512.8521)" fill="#3CEEED" font-family="'CrimsonText-Roman'" font-size="12">coffee grinder</text>
	<text transform="matrix(0.583 0 0 0.583 181.3086 508.856)" fill="#3CEEED" font-family="'CrimsonText-Roman'" font-size="12">9 </text>
</g>
<g>
	<text transform="matrix(1 0 0 1 234.146 512.8521)" fill="#3CEEED" font-family="'CrimsonText-Roman'" font-size="12">fine powder</text>
	<text transform="matrix(0.583 0 0 0.583 290.7944 508.856)" fill="#3CEEED" font-family="'CrimsonText-Roman'" font-size="12">9 </text>
</g>
</svg>
