<?xml version="1.0" encoding="utf-8"?>
<!-- Generator: Adobe Illustrator 16.0.4, SVG Export Plug-In . SVG Version: 6.00 Build 0)  -->
<!DOCTYPE svg PUBLIC "-//W3C//DTD SVG 1.1//EN" "http://www.w3.org/Graphics/SVG/1.1/DTD/svg11.dtd">
<svg version="1.1"
	 id="Layer_1" xmlns:text="http://xmlns.graougraou.com/svg/text/" xmlns:a3="http://ns.adobe.com/AdobeSVGViewerExtensions/3.0/" a3:scriptImplementation="Adobe"
	 xmlns="http://www.w3.org/2000/svg" xmlns:xlink="http://www.w3.org/1999/xlink" x="0px" y="0px" width="1140px" height="249.16px"
	 viewBox="7.294 0 1140 249.16" enable-background="new 7.294 0 1140 249.16" xml:space="preserve">
<text transform="matrix(1 0 0 1 7.2939 51.7485)" fill="#A478D6" font-family="'CrimsonText-Roman'" font-size="64.8396">pink floyd</text>
<text transform="matrix(0.583 0 0 0.583 264.436 30.1567)" fill="#A478D6" font-family="'CrimsonText-Roman'" font-size="64.8396">74</text>
<text transform="matrix(1 0 0 1 300.0596 51.7485)" fill="#A478D6" font-family="'CrimsonText-Roman'" font-size="64.8396"> </text>
<text transform="matrix(1 0 0 1 332.8457 51.7485)" fill="#A478D6" font-family="'CrimsonText-Roman'" font-size="46.8571">microgram dosages</text>
<text transform="matrix(0.583 0 0 0.583 686.1963 36.145)" fill="#A478D6" font-family="'CrimsonText-Roman'" font-size="46.8571">60</text>
<text transform="matrix(1 0 0 1 712.0195 51.7485)" fill="#A478D6" font-family="'CrimsonText-Roman'" font-size="46.8571"> </text>
<text transform="matrix(1 0 0 1 740.7842 51.7485)" fill="#A478D6" font-family="'CrimsonText-Roman'" font-size="39.8857">cell phone</text>
<text transform="matrix(0.583 0 0 0.583 900.0928 38.4668)" fill="#A478D6" font-family="'CrimsonText-Roman'" font-size="39.8857">53 </text>
<text transform="matrix(1 0 0 1 945.6064 51.4253)" fill="#A478D6" font-family="'CrimsonText-Roman'" font-size="39.8857">dance floor</text>
<text transform="matrix(0.583 0 0 0.583 1120.0674 38.1431)" fill="#A478D6" font-family="'CrimsonText-Roman'" font-size="39.8857">53 </text>
<text transform="matrix(1 0 0 1 7.2939 103.23)" fill="#A478D6" font-family="'CrimsonText-Roman'" font-size="36.4">sugar cubes</text>
<text transform="matrix(0.583 0 0 0.583 170.5254 91.1089)" fill="#A478D6" font-family="'CrimsonText-Roman'" font-size="36.4">52 </text>
<text transform="matrix(1 0 0 1 235.9849 103.23)" fill="#A478D6" font-family="'CrimsonText-Roman'" font-size="36.4">nitrous oxide</text>
<text transform="matrix(0.583 0 0 0.583 424.1704 91.1089)" fill="#A478D6" font-family="'CrimsonText-Roman'" font-size="36.4">51 </text>
<text transform="matrix(1 0 0 1 489.6299 102.9526)" fill="#A478D6" font-family="'CrimsonText-Roman'" font-size="29.4286">holy shit</text>
<text transform="matrix(0.583 0 0 0.583 588.6641 93.1528)" fill="#A478D6" font-family="'CrimsonText-Roman'" font-size="29.4286">45 </text>
<text transform="matrix(1 0 0 1 649.335 102.9521)" fill="#A478D6" font-family="'CrimsonText-Roman'" font-size="29.4286">fractal patterns</text>
<text transform="matrix(0.583 0 0 0.583 821.7676 93.1523)" fill="#A478D6" font-family="'CrimsonText-Roman'" font-size="29.4286">43 </text>
<text transform="matrix(1 0 0 1 882.4385 102.9634)" fill="#A478D6" font-family="'CrimsonText-Roman'" font-size="25.9429">thank god</text>
<text transform="matrix(0.583 0 0 0.583 984.1836 94.3242)" fill="#A478D6" font-family="'CrimsonText-Roman'" font-size="25.9429">41 </text>
<text transform="matrix(1 0 0 1 1042.4658 102.9629)" fill="#A478D6" font-family="'CrimsonText-Roman'" font-size="25.9429">las vegas</text>
<text transform="matrix(0.583 0 0 0.583 1129.6436 94.3237)" fill="#A478D6" font-family="'CrimsonText-Roman'" font-size="25.9429">40 </text>
<text transform="matrix(1 0 0 1 7.2939 143.5986)" fill="#A478D6" font-family="'CrimsonText-Roman'" font-size="22.4571">blotter acid</text>
<text transform="matrix(0.583 0 0 0.583 106.4429 136.1206)" fill="#A478D6" font-family="'CrimsonText-Roman'" font-size="22.4571">39 </text>
<text transform="matrix(1 0 0 1 178.418 143.5986)" fill="#A478D6" font-family="'CrimsonText-Roman'" font-size="22.4571">blotter paper</text>
<text transform="matrix(0.583 0 0 0.583 292.0635 136.1206)" fill="#A478D6" font-family="'CrimsonText-Roman'" font-size="22.4571">39 </text>
<text transform="matrix(1 0 0 1 364.0825 143.5986)" fill="#A478D6" font-family="'CrimsonText-Roman'" font-size="22.4571">video games</text>
<text transform="matrix(0.583 0 0 0.583 471.8501 136.1206)" fill="#A478D6" font-family="'CrimsonText-Roman'" font-size="22.4571">39 </text>
<text transform="matrix(1 0 0 1 543.8257 143.7466)" fill="#A478D6" font-family="'CrimsonText-Roman'" font-size="22.4571">laughing hysterically</text>
<text transform="matrix(0.583 0 0 0.583 724.3154 136.269)" fill="#A478D6" font-family="'CrimsonText-Roman'" font-size="22.4571">36 </text>
<text transform="matrix(1 0 0 1 796.29 143.4507)" fill="#A478D6" font-family="'CrimsonText-Roman'" font-size="15.4857">gas station</text>
<text transform="matrix(0.583 0 0 0.583 860.0635 138.2939)" fill="#A478D6" font-family="'CrimsonText-Roman'" font-size="15.4857">32 </text>
<text transform="matrix(1 0 0 1 927.3135 143.4507)" fill="#A478D6" font-family="'CrimsonText-Roman'" font-size="15.4857">video game</text>
<text transform="matrix(0.583 0 0 0.583 996.1982 138.2939)" fill="#A478D6" font-family="'CrimsonText-Roman'" font-size="15.4857">32 </text>
<text transform="matrix(1 0 0 1 1063.417 143.4512)" fill="#A478D6" font-family="'CrimsonText-Roman'" font-size="15.4857">orange juice</text>
<text transform="matrix(0.583 0 0 0.583 1136.7324 138.2944)" fill="#A478D6" font-family="'CrimsonText-Roman'" font-size="15.4857">31 </text>
<text transform="matrix(1 0 0 1 7.2939 177.8223)" fill="#A478D6" font-family="'CrimsonText-Roman'" font-size="15.4857">strong acid</text>
<text transform="matrix(0.583 0 0 0.583 73.8799 172.6655)" fill="#A478D6" font-family="'CrimsonText-Roman'" font-size="15.4857">30 </text>
<text transform="matrix(1 0 0 1 141.5952 177.8223)" fill="#A478D6" font-family="'CrimsonText-Roman'" font-size="12">detailed information</text>
<text transform="matrix(0.583 0 0 0.583 237.7124 173.8262)" fill="#A478D6" font-family="'CrimsonText-Roman'" font-size="12">29 </text>
<text transform="matrix(1 0 0 1 303.043 177.6748)" fill="#A478D6" font-family="'CrimsonText-Roman'" font-size="12">measured microgram</text>
<text transform="matrix(0.583 0 0 0.583 402.7227 173.6787)" fill="#A478D6" font-family="'CrimsonText-Roman'" font-size="12">29 </text>
<text transform="matrix(1 0 0 1 468.0532 177.7651)" fill="#A478D6" font-family="'CrimsonText-Roman'" font-size="12">peripheral vision</text>
<text transform="matrix(0.583 0 0 0.583 547.5884 173.769)" fill="#A478D6" font-family="'CrimsonText-Roman'" font-size="12">29 </text>
<text transform="matrix(1 0 0 1 612.9189 177.7651)" fill="#A478D6" font-family="'CrimsonText-Roman'" font-size="12">quantitative measurements</text>
<text transform="matrix(0.583 0 0 0.583 739.6221 173.769)" fill="#A478D6" font-family="'CrimsonText-Roman'" font-size="12">29 </text>
<text transform="matrix(1 0 0 1 804.9541 177.7651)" fill="#A478D6" font-family="'CrimsonText-Roman'" font-size="12">sugar cube</text>
<text transform="matrix(0.583 0 0 0.583 854.5596 173.769)" fill="#A478D6" font-family="'CrimsonText-Roman'" font-size="12">29 </text>
<text transform="matrix(1 0 0 1 919.8896 177.7651)" fill="#A478D6" font-family="'CrimsonText-Roman'" font-size="12">auditory hallucinations</text>
<text transform="matrix(0.583 0 0 0.583 1027.7021 173.769)" fill="#A478D6" font-family="'CrimsonText-Roman'" font-size="12">28 </text>
<text transform="matrix(1 0 0 1 1093.0322 177.6743)" fill="#A478D6" font-family="'CrimsonText-Roman'" font-size="12">ego death</text>
<text transform="matrix(0.583 0 0 0.583 1137.9971 173.6782)" fill="#A478D6" font-family="'CrimsonText-Roman'" font-size="12">28</text>
<text transform="matrix(1 0 0 1 1144.6104 177.6743)" fill="#A478D6" font-family="'CrimsonText-Roman'" font-size="12"> </text>
<text transform="matrix(1 0 0 1 160.3677 210.5405)" fill="#A478D6" font-family="'CrimsonText-Roman'" font-size="12">geometric patterns</text>
<text transform="matrix(0.583 0 0 0.583 248.4341 206.5444)" fill="#A478D6" font-family="'CrimsonText-Roman'" font-size="12">28 </text>
<text transform="matrix(1 0 0 1 7.2939 210.5405)" fill="#A478D6" font-family="'CrimsonText-Roman'" font-size="12">computer screen</text>
<text transform="matrix(0.583 0 0 0.583 85.1416 206.5444)" fill="#A478D6" font-family="'CrimsonText-Roman'" font-size="12">27 </text>
<text transform="matrix(1 0 0 1 323.667 210.54)" fill="#A478D6" font-family="'CrimsonText-Roman'" font-size="12">fresh air</text>
<text transform="matrix(0.583 0 0 0.583 362.3506 206.5439)" fill="#A478D6" font-family="'CrimsonText-Roman'" font-size="12">27 </text>
<text transform="matrix(1 0 0 1 437.5767 210.54)" fill="#A478D6" font-family="'CrimsonText-Roman'" font-size="12">dropped acid</text>
<text transform="matrix(0.583 0 0 0.583 498.0337 206.5439)" fill="#A478D6" font-family="'CrimsonText-Roman'" font-size="12">26 </text>
<text transform="matrix(1 0 0 1 573.2666 210.1577)" fill="#A478D6" font-family="'CrimsonText-Roman'" font-size="12">heart rate</text>
<text transform="matrix(0.583 0 0 0.583 618.4189 206.1616)" fill="#A478D6" font-family="'CrimsonText-Roman'" font-size="12">26 </text>
</svg>
