<?xml version="1.0" encoding="utf-8"?>
<!-- Generator: Adobe Illustrator 16.0.4, SVG Export Plug-In . SVG Version: 6.00 Build 0)  -->
<!DOCTYPE svg PUBLIC "-//W3C//DTD SVG 1.1//EN" "http://www.w3.org/Graphics/SVG/1.1/DTD/svg11.dtd">
<svg version="1.1"
	 id="Layer_1" xmlns:a3="http://ns.adobe.com/AdobeSVGViewerExtensions/3.0/" xmlns:text="http://xmlns.graougraou.com/svg/text/" a3:scriptImplementation="Adobe"
	 xmlns="http://www.w3.org/2000/svg" xmlns:xlink="http://www.w3.org/1999/xlink" x="0px" y="0px" width="1140px"
	 height="428.891px" viewBox="272 296.73 1140 428.891" enable-background="new 272 296.73 1140 428.891" xml:space="preserve">
<g>
	<text transform="matrix(1 0 0 1 272 367.2303)" fill="#A478D6" font-family="'CrimsonText-Roman'" font-size="97.2594">pink floyd</text>
	<text transform="matrix(1 0 0 1 657.7129 334.8436)" fill="#A478D6" font-family="'CrimsonText-Roman'" font-size="56.7022">74</text>
</g>
<g>
	<text transform="matrix(1 0 0 1 843.2383 365.9408)" fill="#A478D6" font-family="'CrimsonText-Roman'" font-size="70.2857">microgram dosages</text>
	<text transform="matrix(1 0 0 1 1373.2646 342.5365)" fill="#A478D6" font-family="'CrimsonText-Roman'" font-size="40.9765">60</text>
</g>
<g>
	<text transform="matrix(1 0 0 1 272 449.2328)" fill="#A478D6" font-family="'CrimsonText-Roman'" font-size="59.8285">cell phone</text>
	<text transform="matrix(1 0 0 1 510.9629 429.3099)" fill="#A478D6" font-family="'CrimsonText-Roman'" font-size="34.88">53 </text>
</g>
<g>
	<text transform="matrix(1 0 0 1 689.5908 449.2338)" fill="#A478D6" font-family="'CrimsonText-Roman'" font-size="59.8285">dance floor</text>
	<text transform="matrix(1 0 0 1 951.2842 429.3099)" fill="#A478D6" font-family="'CrimsonText-Roman'" font-size="34.88">53 </text>
</g>
<g>
	<text transform="matrix(1 0 0 1 1129.9121 449.2328)" fill="#A478D6" font-family="'CrimsonText-Roman'" font-size="54.6">sugar cubes</text>
	<text transform="matrix(1 0 0 1 1374.7598 431.0511)" fill="#A478D6" font-family="'CrimsonText-Roman'" font-size="31.8318">52 </text>
</g>
<g>
	<text transform="matrix(1 0 0 1 272 514.6205)" fill="#A478D6" font-family="'CrimsonText-Roman'" font-size="54.6">nitrous oxide</text>
	<text transform="matrix(1 0 0 1 554.2778 496.4388)" fill="#A478D6" font-family="'CrimsonText-Roman'" font-size="31.8318">51 </text>
</g>
<g>
	<text transform="matrix(1 0 0 1 649.1499 514.6205)" fill="#A478D6" font-family="'CrimsonText-Roman'" font-size="44.1429">holy shit</text>
	<text transform="matrix(1 0 0 1 798.8794 503.2592)" fill="#A478D6" font-family="'CrimsonText-Roman'" font-size="25.7353">45 </text>
</g>
<g>
	<text transform="matrix(1 0 0 1 886.5684 514.6205)" fill="#A478D6" font-family="'CrimsonText-Roman'" font-size="44.1429">fractal patterns</text>
	<text transform="matrix(1 0 0 1 1145.2188 499.9193)" fill="#A478D6" font-family="'CrimsonText-Roman'" font-size="25.7353">43 </text>
</g>
<g>
	<text transform="matrix(1 0 0 1 1232.9072 514.1869)" fill="#A478D6" font-family="'CrimsonText-Roman'" font-size="38.9143">thank god</text>
	<text transform="matrix(1 0 0 1 1385.5244 501.2279)" fill="#A478D6" font-family="'CrimsonText-Roman'" font-size="22.6871">41 </text>
</g>
<g>
	<text transform="matrix(1 0 0 1 272 582.2299)" fill="#A478D6" font-family="'CrimsonText-Roman'" font-size="38.9143">las vegas</text>
	<text transform="matrix(1 0 0 1 402.7666 569.2719)" fill="#A478D6" font-family="'CrimsonText-Roman'" font-size="22.6871">40 </text>
</g>
<g>
	<text transform="matrix(1 0 0 1 464.0449 581.4896)" fill="#A478D6" font-family="'CrimsonText-Roman'" font-size="33.6856">blotter acid</text>
	<text transform="matrix(1 0 0 1 612.769 570.2719)" fill="#A478D6" font-family="'CrimsonText-Roman'" font-size="19.6387">39 </text>
</g>
<g>
	<text transform="matrix(1 0 0 1 670.5474 581.4896)" fill="#A478D6" font-family="'CrimsonText-Roman'" font-size="33.6856">blotter paper</text>
	<text transform="matrix(1 0 0 1 841.0166 570.2719)" fill="#A478D6" font-family="'CrimsonText-Roman'" font-size="19.6387">39 </text>
</g>
<g>
	<text transform="matrix(1 0 0 1 898.8604 581.4896)" fill="#A478D6" font-family="'CrimsonText-Roman'" font-size="33.6856">video games</text>
	<text transform="matrix(1 0 0 1 1060.5117 570.2719)" fill="#A478D6" font-family="'CrimsonText-Roman'" font-size="19.6387">39 </text>
</g>
<g>
	<text transform="matrix(1 0 0 1 1118.29 580.6371)" fill="#A478D6" font-family="'CrimsonText-Roman'" font-size="33.6856">laughing hysterically</text>
	<text transform="matrix(1 0 0 1 1389.0244 569.4213)" fill="#A478D6" font-family="'CrimsonText-Roman'" font-size="19.6387">36 </text>
</g>
<g>
	<text transform="matrix(1 0 0 1 272 646.6205)" fill="#A478D6" font-family="'CrimsonText-Roman'" font-size="23.2285">gas station</text>
	<text transform="matrix(1 0 0 1 367.6611 638.8842)" fill="#A478D6" font-family="'CrimsonText-Roman'" font-size="13.5422">32 </text>
</g>
<g>
	<text transform="matrix(1 0 0 1 419.873 646.6205)" fill="#A478D6" font-family="'CrimsonText-Roman'" font-size="23.2285">video game</text>
	<text transform="matrix(1 0 0 1 523.1992 638.8842)" fill="#A478D6" font-family="'CrimsonText-Roman'" font-size="13.5422">32 </text>
</g>
<g>
	<text transform="matrix(1 0 0 1 575.3662 646.6205)" fill="#A478D6" font-family="'CrimsonText-Roman'" font-size="23.2285">orange juice</text>
	<text transform="matrix(1 0 0 1 685.3398 638.8861)" fill="#A478D6" font-family="'CrimsonText-Roman'" font-size="13.5422">31 </text>
</g>
<g>
	<text transform="matrix(1 0 0 1 737.5073 646.6195)" fill="#A478D6" font-family="'CrimsonText-Roman'" font-size="23.2285">strong acid</text>
	<text transform="matrix(1 0 0 1 837.3872 638.8861)" fill="#A478D6" font-family="'CrimsonText-Roman'" font-size="13.5422">30 </text>
</g>
<g>
	<text transform="matrix(1 0 0 1 889.5537 646.1752)" fill="#A478D6" font-family="'CrimsonText-Roman'" font-size="18">detailed information</text>
	<text transform="matrix(1 0 0 1 1033.7295 640.182)" fill="#A478D6" font-family="'CrimsonText-Roman'" font-size="10.494">29 </text>
</g>
<g>
	<text transform="matrix(1 0 0 1 1082.3203 647.0287)" fill="#A478D6" font-family="'CrimsonText-Roman'" font-size="18">measured microgram</text>
	<text transform="matrix(1 0 0 1 1231.8398 641.0345)" fill="#A478D6" font-family="'CrimsonText-Roman'" font-size="10.494">29 </text>
</g>
<g>
	<text transform="matrix(1 0 0 1 1280.4307 646.5394)" fill="#A478D6" font-family="'CrimsonText-Roman'" font-size="18">peripheral vision</text>
	<text transform="matrix(1 0 0 1 1399.7324 640.5453)" fill="#A478D6" font-family="'CrimsonText-Roman'" font-size="10.494">29 </text>
</g>
<g>
	<text transform="matrix(1 0 0 1 272 696.5394)" fill="#A478D6" font-family="'CrimsonText-Roman'" font-size="18">quantitative measurements</text>
	<text transform="matrix(1 0 0 1 462.0547 690.5453)" fill="#A478D6" font-family="'CrimsonText-Roman'" font-size="10.494">29 </text>
</g>
<g>
	<text transform="matrix(1 0 0 1 483.2773 696.5394)" fill="#A478D6" font-family="'CrimsonText-Roman'" font-size="18">sugar cube</text>
	<text transform="matrix(1 0 0 1 557.6875 690.5453)" fill="#A478D6" font-family="'CrimsonText-Roman'" font-size="10.494">29 </text>
</g>
<g>
	<text transform="matrix(1 0 0 1 578.9102 696.5394)" fill="#A478D6" font-family="'CrimsonText-Roman'" font-size="18">auditory hallucinations</text>
	<text transform="matrix(1 0 0 1 740.627 690.5453)" fill="#A478D6" font-family="'CrimsonText-Roman'" font-size="10.494">28 </text>
</g>
<g>
	<text transform="matrix(1 0 0 1 761.8486 696.4486)" fill="#A478D6" font-family="'CrimsonText-Roman'" font-size="18">ego death</text>
	<text transform="matrix(1 0 0 1 829.2969 690.4545)" fill="#A478D6" font-family="'CrimsonText-Roman'" font-size="10.494">28</text>
</g>
<g>
	<text transform="matrix(1 0 0 1 986.1582 696.7338)" fill="#A478D6" font-family="'CrimsonText-Roman'" font-size="18">geometric patterns</text>
	<text transform="matrix(1 0 0 1 1118.2578 690.7396)" fill="#A478D6" font-family="'CrimsonText-Roman'" font-size="10.494">28 </text>
</g>
<g>
	<text transform="matrix(1 0 0 1 848.1729 696.7338)" fill="#A478D6" font-family="'CrimsonText-Roman'" font-size="18">computer screen</text>
	<text transform="matrix(1 0 0 1 964.9453 690.7396)" fill="#A478D6" font-family="'CrimsonText-Roman'" font-size="10.494">27 </text>
</g>
<g>
	<text transform="matrix(1 0 0 1 1139.4805 696.7338)" fill="#A478D6" font-family="'CrimsonText-Roman'" font-size="18">fresh air</text>
	<text transform="matrix(1 0 0 1 1197.5059 690.7396)" fill="#A478D6" font-family="'CrimsonText-Roman'" font-size="10.494">27 </text>
</g>
<g>
	<text transform="matrix(1 0 0 1 1218.7188 696.7338)" fill="#A478D6" font-family="'CrimsonText-Roman'" font-size="18">dropped acid</text>
	<text transform="matrix(1 0 0 1 1310.7793 692.1)" fill="#A478D6" font-family="'CrimsonText-Roman'" font-size="10.494">26 </text>
</g>
<g>
	<text transform="matrix(1 0 0 1 1332.0039 696.351)" fill="#A478D6" font-family="'CrimsonText-Roman'" font-size="18">heart rate</text>
	<text transform="matrix(1 0 0 1 1399.7334 690.3568)" fill="#A478D6" font-family="'CrimsonText-Roman'" font-size="10.494">26 </text>
</g>
</svg>
