<?xml version="1.0" encoding="utf-8"?>
<!-- Generator: Adobe Illustrator 16.0.4, SVG Export Plug-In . SVG Version: 6.00 Build 0)  -->
<!DOCTYPE svg PUBLIC "-//W3C//DTD SVG 1.1//EN" "http://www.w3.org/Graphics/SVG/1.1/DTD/svg11.dtd">
<svg version="1.1"
	 id="Layer_1" xmlns:a3="http://ns.adobe.com/AdobeSVGViewerExtensions/3.0/" xmlns:text="http://xmlns.graougraou.com/svg/text/" a3:scriptImplementation="Adobe"
	 xmlns="http://www.w3.org/2000/svg" xmlns:xlink="http://www.w3.org/1999/xlink" x="0px" y="0px" width="1140px" height="352.89px"
	 viewBox="272 322.89 1140 352.89" enable-background="new 272 322.89 1140 352.89" xml:space="preserve">
<g>
	<text transform="matrix(1 0 0 1 272 393.3905)" fill="#A478D6" font-family="'CrimsonText-Roman'" font-size="97.2594">dance floor</text>
	<text transform="matrix(1 0 0 1 697.415 361.0023)" fill="#A478D6" font-family="'CrimsonText-Roman'" font-size="56.7022">139 </text>
</g>
<g>
	<text transform="matrix(1 0 0 1 836.0645 393.391)" fill="#A478D6" font-family="'CrimsonText-Roman'" font-size="70.2857">pure mdma</text>
	<text transform="matrix(1 0 0 1 1150.9082 369.9862)" fill="#A478D6" font-family="'CrimsonText-Roman'" font-size="40.9765">91 </text>
</g>
<g>
	<text transform="matrix(1 0 0 1 1244.3203 393.391)" fill="#A478D6" font-family="'CrimsonText-Roman'" font-size="33.6856">glow sticks</text>
	<text transform="matrix(1 0 0 1 1389.0625 382.1742)" fill="#A478D6" font-family="'CrimsonText-Roman'" font-size="19.6387">43 </text>
</g>
<g>
	<text transform="matrix(1 0 0 1 272 461.8158)" fill="#A478D6" font-family="'CrimsonText-Roman'" font-size="33.6856">heart rate</text>
	<text transform="matrix(1 0 0 1 398.748 450.599)" fill="#A478D6" font-family="'CrimsonText-Roman'" font-size="19.6387">43 </text>
</g>
<g>
	<text transform="matrix(1 0 0 1 462.6699 462.391)" fill="#A478D6" font-family="'CrimsonText-Roman'" font-size="33.6856">jaw clenching</text>
	<text transform="matrix(1 0 0 1 642.7422 451.1732)" fill="#A478D6" font-family="'CrimsonText-Roman'" font-size="19.6387">42 </text>
</g>
<g>
	<text transform="matrix(1 0 0 1 705.8213 461.8158)" fill="#A478D6" font-family="'CrimsonText-Roman'" font-size="33.6856">rave scene</text>
	<text transform="matrix(1 0 0 1 841.4199 450.599)" fill="#A478D6" font-family="'CrimsonText-Roman'" font-size="19.6387">41 </text>
</g>
<g>
	<text transform="matrix(1 0 0 1 904.5 461.3715)" fill="#A478D6" font-family="'CrimsonText-Roman'" font-size="28.4571">orange juice</text>
	<text transform="matrix(1 0 0 1 1039.2266 451.8959)" fill="#A478D6" font-family="'CrimsonText-Roman'" font-size="16.5905">37 </text>
</g>
<g>
	<text transform="matrix(1 0 0 1 1098.7822 460.9271)" fill="#A478D6" font-family="'CrimsonText-Roman'" font-size="23.2285">term memory</text>
	<text transform="matrix(1 0 0 1 1224.1572 453.1927)" fill="#A478D6" font-family="'CrimsonText-Roman'" font-size="13.5422">31 </text>
</g>
<g>
	<text transform="matrix(1 0 0 1 1280.1621 460.9271)" fill="#A478D6" font-family="'CrimsonText-Roman'" font-size="23.2285">panic attacks</text>
	<text transform="matrix(1 0 0 1 1396.1699 453.1927)" fill="#A478D6" font-family="'CrimsonText-Roman'" font-size="13.5422">29 </text>
</g>
<g>
	<text transform="matrix(1 0 0 1 272 526.7806)" fill="#A478D6" font-family="'CrimsonText-Roman'" font-size="23.2285">blood pressure</text>
	<text transform="matrix(1 0 0 1 404.9746 519.0453)" fill="#A478D6" font-family="'CrimsonText-Roman'" font-size="13.5422">27 </text>
</g>
<g>
	<text transform="matrix(1 0 0 1 471.5088 526.7806)" fill="#A478D6" font-family="'CrimsonText-Roman'" font-size="23.2285">positive energy</text>
	<text transform="matrix(1 0 0 1 609.7686 519.0453)" fill="#A478D6" font-family="'CrimsonText-Roman'" font-size="13.5422">27 </text>
</g>
<g>
	<text transform="matrix(1 0 0 1 676.3027 526.7806)" fill="#A478D6" font-family="'CrimsonText-Roman'" font-size="23.2285">short term</text>
	<text transform="matrix(1 0 0 1 772.6172 519.0443)" fill="#A478D6" font-family="'CrimsonText-Roman'" font-size="13.5422">27 </text>
</g>
<g>
	<text transform="matrix(1 0 0 1 839.1514 527.5199)" fill="#A478D6" font-family="'CrimsonText-Roman'" font-size="23.2285">absolutely amazing</text>
	<text transform="matrix(1 0 0 1 1011.166 519.7845)" fill="#A478D6" font-family="'CrimsonText-Roman'" font-size="13.5422">26 </text>
</g>
<g>
	<text transform="matrix(1 0 0 1 1077.7139 527.5199)" fill="#A478D6" font-family="'CrimsonText-Roman'" font-size="23.2285">mdma powder</text>
	<text transform="matrix(1 0 0 1 1209.5312 519.7845)" fill="#A478D6" font-family="'CrimsonText-Roman'" font-size="13.5422">26 </text>
</g>
<g>
	<text transform="matrix(1 0 0 1 1276.0791 527.5199)" fill="#A478D6" font-family="'CrimsonText-Roman'" font-size="23.2285">nitrous oxide</text>
	<text transform="matrix(1 0 0 1 1396.1699 519.7845)" fill="#A478D6" font-family="'CrimsonText-Roman'" font-size="13.5422">26 </text>
</g>
<g>
	<text transform="matrix(1 0 0 1 272 594.39)" fill="#A478D6" font-family="'CrimsonText-Roman'" font-size="23.2285">thank god</text>
	<text transform="matrix(1 0 0 1 363.1006 586.6556)" fill="#A478D6" font-family="'CrimsonText-Roman'" font-size="13.5422">26 </text>
</g>
<g>
	<text transform="matrix(1 0 0 1 457.0732 594.39)" fill="#A478D6" font-family="'CrimsonText-Roman'" font-size="23.2285">fresh air</text>
	<text transform="matrix(1 0 0 1 531.9541 586.6556)" fill="#A478D6" font-family="'CrimsonText-Roman'" font-size="13.5422">25 </text>
</g>
<g>
	<text transform="matrix(1 0 0 1 625.9399 593.9467)" fill="#A478D6" font-family="'CrimsonText-Roman'" font-size="18">pink floyd</text>
	<text transform="matrix(1 0 0 1 697.3242 587.9525)" fill="#A478D6" font-family="'CrimsonText-Roman'" font-size="10.494">23 </text>
</g>
<g>
	<text transform="matrix(1 0 0 1 787.7441 593.9467)" fill="#A478D6" font-family="'CrimsonText-Roman'" font-size="18">white powder</text>
	<text transform="matrix(1 0 0 1 885.6172 587.9525)" fill="#A478D6" font-family="'CrimsonText-Roman'" font-size="10.494">23 </text>
</g>
<g>
	<text transform="matrix(1 0 0 1 976.0381 593.9467)" fill="#A478D6" font-family="'CrimsonText-Roman'" font-size="18">holy shit</text>
	<text transform="matrix(1 0 0 1 1036.6113 587.9525)" fill="#A478D6" font-family="'CrimsonText-Roman'" font-size="10.494">22 </text>
</g>
<g>
	<text transform="matrix(1 0 0 1 1127.0195 596.9437)" fill="#A478D6" font-family="'CrimsonText-Roman'" font-size="18">human beings</text>
	<text transform="matrix(1 0 0 1 1225.7402 590.9486)" fill="#A478D6" font-family="'CrimsonText-Roman'" font-size="10.494">22 </text>
</g>
<g>
	<text transform="matrix(1 0 0 1 1316.1494 596.9437)" fill="#A478D6" font-family="'CrimsonText-Roman'" font-size="18">panic attack</text>
	<text transform="matrix(1 0 0 1 1399.7324 590.9486)" fill="#A478D6" font-family="'CrimsonText-Roman'" font-size="10.494">22 </text>
</g>
<g>
	<text transform="matrix(1 0 0 1 272 658.7806)" fill="#A478D6" font-family="'CrimsonText-Roman'" font-size="18">cell phone</text>
	<text transform="matrix(1 0 0 1 343.8945 652.7855)" fill="#A478D6" font-family="'CrimsonText-Roman'" font-size="10.494">21 </text>
</g>
<g>
	<text transform="matrix(1 0 0 1 411.165 658.7806)" fill="#A478D6" font-family="'CrimsonText-Roman'" font-size="18">ecstasy tablets</text>
	<text transform="matrix(1 0 0 1 508.9526 652.7855)" fill="#A478D6" font-family="'CrimsonText-Roman'" font-size="10.494">21 </text>
</g>
<g>
	<text transform="matrix(1 0 0 1 576.2231 658.7806)" fill="#A478D6" font-family="'CrimsonText-Roman'" font-size="18">social anxiety</text>
	<text transform="matrix(1 0 0 1 670.1968 652.7855)" fill="#A478D6" font-family="'CrimsonText-Roman'" font-size="10.494">21 </text>
</g>
<g>
	<text transform="matrix(1 0 0 1 737.4668 658.7806)" fill="#A478D6" font-family="'CrimsonText-Roman'" font-size="18">gas station</text>
	<text transform="matrix(1 0 0 1 811.5947 652.7855)" fill="#A478D6" font-family="'CrimsonText-Roman'" font-size="10.494">20 </text>
</g>
<g>
	<text transform="matrix(1 0 0 1 878.8643 658.7806)" fill="#A478D6" font-family="'CrimsonText-Roman'" font-size="18">deep breath</text>
	<text transform="matrix(1 0 0 1 961.0068 652.7855)" fill="#A478D6" font-family="'CrimsonText-Roman'" font-size="10.494">19 </text>
</g>
<g>
	<text transform="matrix(1 0 0 1 1028.2773 658.7806)" fill="#A478D6" font-family="'CrimsonText-Roman'" font-size="18">heart attack</text>
	<text transform="matrix(1 0 0 1 1110.5605 652.7855)" fill="#A478D6" font-family="'CrimsonText-Roman'" font-size="10.494">19 </text>
</g>
<g>
	<text transform="matrix(1 0 0 1 1177.8301 658.7806)" fill="#A478D6" font-family="'CrimsonText-Roman'" font-size="18">pure bliss</text>
	<text transform="matrix(1 0 0 1 1244.6953 652.7855)" fill="#A478D6" font-family="'CrimsonText-Roman'" font-size="10.494">18 </text>
</g>
<g>
	<text transform="matrix(1 0 0 1 1311.9658 658.7806)" fill="#A478D6" font-family="'CrimsonText-Roman'" font-size="18">regular basis</text>
	<text transform="matrix(1 0 0 1 1399.7334 652.7855)" fill="#A478D6" font-family="'CrimsonText-Roman'" font-size="10.494">18 </text>
</g>
</svg>
