<?xml version="1.0" encoding="utf-8"?>
<!-- Generator: Adobe Illustrator 16.0.4, SVG Export Plug-In . SVG Version: 6.00 Build 0)  -->
<!DOCTYPE svg PUBLIC "-//W3C//DTD SVG 1.1//EN" "http://www.w3.org/Graphics/SVG/1.1/DTD/svg11.dtd">
<svg version="1.1"
	 id="Layer_1" a3:scriptImplementation="Adobe" xmlns:text="http://xmlns.graougraou.com/svg/text/" xmlns:a3="http://ns.adobe.com/AdobeSVGViewerExtensions/3.0/"
	 xmlns="http://www.w3.org/2000/svg" xmlns:xlink="http://www.w3.org/1999/xlink" x="0px" y="0px" width="1140px" height="196px"
	 viewBox="7.294 0 1140 196" enable-background="new 7.294 0 1140 196" xml:space="preserve">
<g>
	<text transform="matrix(1 0 0 1 7.2939 53.0186)" fill="#A478D6" font-family="'CrimsonText-Roman'" font-size="64.8396">dance floor</text>
	
		<text transform="matrix(0.583 0 0 0.583 290.9038 31.4268)" fill="#A478D6" font-family="'CrimsonText-Roman'" font-size="64.8396">139 </text>
</g>
<g>
	<text transform="matrix(1 0 0 1 404.2495 51.9751)" fill="#A478D6" font-family="'CrimsonText-Roman'" font-size="46.8571">pure mdma</text>
	
		<text transform="matrix(0.583 0 0 0.583 614.1455 36.3716)" fill="#A478D6" font-family="'CrimsonText-Roman'" font-size="46.8571">91 </text>
</g>
<g>
	<text transform="matrix(1 0 0 1 697.332 51.8999)" fill="#A478D6" font-family="'CrimsonText-Roman'" font-size="22.4571">glow sticks</text>
	
		<text transform="matrix(0.583 0 0 0.583 793.8271 44.4219)" fill="#A478D6" font-family="'CrimsonText-Roman'" font-size="22.4571">43 </text>
</g>
<g>
	<text transform="matrix(1 0 0 1 860.373 51.8999)" fill="#A478D6" font-family="'CrimsonText-Roman'" font-size="22.4571">heart rate</text>
	
		<text transform="matrix(0.583 0 0 0.583 944.8721 44.4219)" fill="#A478D6" font-family="'CrimsonText-Roman'" font-size="22.4571">43 </text>
</g>
<g>
	<text transform="matrix(1 0 0 1 1011.9658 52.4751)" fill="#A478D6" font-family="'CrimsonText-Roman'" font-size="22.4571">jaw clenching</text>
	
		<text transform="matrix(0.583 0 0 0.583 1132.0146 44.9971)" fill="#A478D6" font-family="'CrimsonText-Roman'" font-size="22.4571">42 </text>
</g>
<g>
	<text transform="matrix(1 0 0 1 7.2939 95.7998)" fill="#A478D6" font-family="'CrimsonText-Roman'" font-size="22.4571">rave scene</text>
	<text transform="matrix(0.583 0 0 0.583 97.6924 88.3218)" fill="#A478D6" font-family="'CrimsonText-Roman'" font-size="22.4571">41 </text>
</g>
<g>
	<text transform="matrix(1 0 0 1 191.7832 95.7998)" fill="#A478D6" font-family="'CrimsonText-Roman'" font-size="18.9714">orange juice</text>
	
		<text transform="matrix(0.583 0 0 0.583 281.6011 89.4824)" fill="#A478D6" font-family="'CrimsonText-Roman'" font-size="18.9714">37 </text>
</g>
<g>
	<text transform="matrix(1 0 0 1 373.3413 95.7998)" fill="#A478D6" font-family="'CrimsonText-Roman'" font-size="15.4857">term memory</text>
	
		<text transform="matrix(0.583 0 0 0.583 456.9248 90.6431)" fill="#A478D6" font-family="'CrimsonText-Roman'" font-size="15.4857">31 </text>
</g>
<g>
	<text transform="matrix(1 0 0 1 546.2988 95.7998)" fill="#A478D6" font-family="'CrimsonText-Roman'" font-size="15.4857">panic attacks</text>
	
		<text transform="matrix(0.583 0 0 0.583 623.6367 90.6431)" fill="#A478D6" font-family="'CrimsonText-Roman'" font-size="15.4857">29 </text>
</g>
<g>
	<text transform="matrix(1 0 0 1 713.0029 95.7998)" fill="#A478D6" font-family="'CrimsonText-Roman'" font-size="15.4857">blood pressure</text>
	
		<text transform="matrix(0.583 0 0 0.583 801.6523 90.6431)" fill="#A478D6" font-family="'CrimsonText-Roman'" font-size="15.4857">27 </text>
</g>
<g>
	<text transform="matrix(1 0 0 1 891.0088 95.7998)" fill="#A478D6" font-family="'CrimsonText-Roman'" font-size="15.4857">positive energy</text>
	
		<text transform="matrix(0.583 0 0 0.583 983.1816 90.6431)" fill="#A478D6" font-family="'CrimsonText-Roman'" font-size="15.4857">27 </text>
</g>
<g>
	<text transform="matrix(1 0 0 1 1072.5381 95.7993)" fill="#A478D6" font-family="'CrimsonText-Roman'" font-size="15.4857">short term</text>
	
		<text transform="matrix(0.583 0 0 0.583 1136.749 90.6426)" fill="#A478D6" font-family="'CrimsonText-Roman'" font-size="15.4857">27 </text>
</g>
<g>
	<text transform="matrix(1 0 0 1 7.2939 136.6577)" fill="#A478D6" font-family="'CrimsonText-Roman'" font-size="15.4857">absolutely amazing</text>
	
		<text transform="matrix(0.583 0 0 0.583 121.9697 131.501)" fill="#A478D6" font-family="'CrimsonText-Roman'" font-size="15.4857">26 </text>
</g>
<g>
	<text transform="matrix(1 0 0 1 206.2642 136.6577)" fill="#A478D6" font-family="'CrimsonText-Roman'" font-size="15.4857">mdma powder</text>
	
		<text transform="matrix(0.583 0 0 0.583 294.1426 131.501)" fill="#A478D6" font-family="'CrimsonText-Roman'" font-size="15.4857">26 </text>
</g>
<g>
	<text transform="matrix(1 0 0 1 378.437 136.6577)" fill="#A478D6" font-family="'CrimsonText-Roman'" font-size="15.4857">nitrous oxide</text>
	
		<text transform="matrix(0.583 0 0 0.583 458.4971 131.501)" fill="#A478D6" font-family="'CrimsonText-Roman'" font-size="15.4857">26 </text>
</g>
<g>
	<text transform="matrix(1 0 0 1 542.7915 136.6577)" fill="#A478D6" font-family="'CrimsonText-Roman'" font-size="15.4857">thank god</text>
	
		<text transform="matrix(0.583 0 0 0.583 603.5244 131.501)" fill="#A478D6" font-family="'CrimsonText-Roman'" font-size="15.4857">26 </text>
</g>
<g>
	<text transform="matrix(1 0 0 1 687.8184 136.6577)" fill="#A478D6" font-family="'CrimsonText-Roman'" font-size="15.4857">fresh air</text>
	
		<text transform="matrix(0.583 0 0 0.583 737.7383 131.501)" fill="#A478D6" font-family="'CrimsonText-Roman'" font-size="15.4857">25 </text>
</g>
<g>
	<text transform="matrix(1 0 0 1 822.042 136.6577)" fill="#A478D6" font-family="'CrimsonText-Roman'" font-size="12">pink floyd</text>
	<text transform="matrix(0.583 0 0 0.583 869.6318 132.6616)" fill="#A478D6" font-family="'CrimsonText-Roman'" font-size="12">23 </text>
</g>
<g>
	<text transform="matrix(1 0 0 1 951.5576 136.6577)" fill="#A478D6" font-family="'CrimsonText-Roman'" font-size="12">white powder</text>
	<text transform="matrix(0.583 0 0 0.583 1016.8076 132.6616)" fill="#A478D6" font-family="'CrimsonText-Roman'" font-size="12">23 </text>
</g>
<g>
	<text transform="matrix(1 0 0 1 1098.7334 136.6577)" fill="#A478D6" font-family="'CrimsonText-Roman'" font-size="12">holy shit</text>
	<text transform="matrix(0.583 0 0 0.583 1139.1162 132.6616)" fill="#A478D6" font-family="'CrimsonText-Roman'" font-size="12">22 </text>
</g>
<g>
	<text transform="matrix(1 0 0 1 7.2939 171.0576)" fill="#A478D6" font-family="'CrimsonText-Roman'" font-size="12">human beings</text>
	<text transform="matrix(0.583 0 0 0.583 73.1064 167.0615)" fill="#A478D6" font-family="'CrimsonText-Roman'" font-size="12">22 </text>
</g>
<g>
	<text transform="matrix(1 0 0 1 136.7056 171.0576)" fill="#A478D6" font-family="'CrimsonText-Roman'" font-size="12">panic attack</text>
	<text transform="matrix(0.583 0 0 0.583 192.4282 167.0615)" fill="#A478D6" font-family="'CrimsonText-Roman'" font-size="12">22 </text>
</g>
<g>
	<text transform="matrix(1 0 0 1 256.0273 171.0576)" fill="#A478D6" font-family="'CrimsonText-Roman'" font-size="12">cell phone</text>
	<text transform="matrix(0.583 0 0 0.583 303.957 167.0615)" fill="#A478D6" font-family="'CrimsonText-Roman'" font-size="12">21 </text>
</g>
<g>
	<text transform="matrix(1 0 0 1 367.5562 171.0576)" fill="#A478D6" font-family="'CrimsonText-Roman'" font-size="12">ecstasy tablets</text>
	<text transform="matrix(0.583 0 0 0.583 432.7476 167.0615)" fill="#A478D6" font-family="'CrimsonText-Roman'" font-size="12">21 </text>
</g>
<g>
	<text transform="matrix(1 0 0 1 496.3467 171.0576)" fill="#A478D6" font-family="'CrimsonText-Roman'" font-size="12">social anxiety</text>
	<text transform="matrix(0.583 0 0 0.583 558.9951 167.0615)" fill="#A478D6" font-family="'CrimsonText-Roman'" font-size="12">21 </text>
</g>
<g>
	<text transform="matrix(1 0 0 1 622.5947 171.0576)" fill="#A478D6" font-family="'CrimsonText-Roman'" font-size="12">gas station</text>
	<text transform="matrix(0.583 0 0 0.583 672.0127 167.0615)" fill="#A478D6" font-family="'CrimsonText-Roman'" font-size="12">20 </text>
</g>
<g>
	<text transform="matrix(1 0 0 1 735.6123 171.0576)" fill="#A478D6" font-family="'CrimsonText-Roman'" font-size="12">deep breath</text>
	<text transform="matrix(0.583 0 0 0.583 790.374 167.0615)" fill="#A478D6" font-family="'CrimsonText-Roman'" font-size="12">19 </text>
</g>
<g>
	<text transform="matrix(1 0 0 1 853.9727 171.0576)" fill="#A478D6" font-family="'CrimsonText-Roman'" font-size="12">heart attack</text>
	<text transform="matrix(0.583 0 0 0.583 908.8281 167.0615)" fill="#A478D6" font-family="'CrimsonText-Roman'" font-size="12">19 </text>
</g>
<g>
	<text transform="matrix(1 0 0 1 972.4268 171.0576)" fill="#A478D6" font-family="'CrimsonText-Roman'" font-size="12">pure bliss</text>
	<text transform="matrix(0.583 0 0 0.583 1017.0049 167.0615)" fill="#A478D6" font-family="'CrimsonText-Roman'" font-size="12">18 </text>
</g>
<g>
	<text transform="matrix(1 0 0 1 1080.6045 171.0576)" fill="#A478D6" font-family="'CrimsonText-Roman'" font-size="12">regular basis</text>
	<text transform="matrix(0.583 0 0 0.583 1139.1162 167.0615)" fill="#A478D6" font-family="'CrimsonText-Roman'" font-size="12">18 </text>
</g>
<rect x="-160.206" y="-254.17" fill="#A478D6" width="286" height="64"/>
</svg>
