<?xml version="1.0" encoding="utf-8"?>
<!-- Generator: Adobe Illustrator 16.0.4, SVG Export Plug-In . SVG Version: 6.00 Build 0)  -->
<!DOCTYPE svg PUBLIC "-//W3C//DTD SVG 1.1//EN" "http://www.w3.org/Graphics/SVG/1.1/DTD/svg11.dtd">
<svg version="1.1"
	 id="Layer_1" xmlns:a3="http://ns.adobe.com/AdobeSVGViewerExtensions/3.0/" xmlns:text="http://xmlns.graougraou.com/svg/text/" a3:scriptImplementation="Adobe"
	 xmlns="http://www.w3.org/2000/svg" xmlns:xlink="http://www.w3.org/1999/xlink" x="0px" y="0px" width="1140px" height="357.39px"
	 viewBox="272 324.458 1140 357.39" enable-background="new 272 324.458 1140 357.39" xml:space="preserve">
<g>
	<text transform="matrix(1 0 0 1 272.1318 395.7567)" fill="#30D49D" font-family="'CrimsonText-Roman'" font-size="67.5318">valerian root</text>
	<text transform="matrix(1 0 0 1 612.0991 373.2679)" fill="#30D49D" font-family="'CrimsonText-Roman'" font-size="39.371">25 </text>
</g>
<g>
	<text transform="matrix(1 0 0 1 671.2192 395.1097)" fill="#30D49D" font-family="'CrimsonText-Roman'" font-size="47.437">3mg melatonin</text>
	<text transform="matrix(1 0 0 1 952.459 379.3124)" fill="#30D49D" font-family="'CrimsonText-Roman'" font-size="27.6557">16 </text>
</g>
<g>
	<text transform="matrix(1 0 0 1 994.8457 395.1097)" fill="#30D49D" font-family="'CrimsonText-Roman'" font-size="47.437">melatonin sublingual</text>
	<text transform="matrix(1 0 0 1 1384.6719 379.3124)" fill="#30D49D" font-family="'CrimsonText-Roman'" font-size="27.6557">16 </text>
</g>
<g>
	<text transform="matrix(1 0 0 1 272.083 463.9584)" fill="#30D49D" font-family="'CrimsonText-Roman'" font-size="42.4133">vivid dreams</text>
	<text transform="matrix(1 0 0 1 484.9346 449.8334)" fill="#30D49D" font-family="'CrimsonText-Roman'" font-size="24.727">15 </text>
</g>
<g>
	<text transform="matrix(1 0 0 1 577.334 463.9574)" fill="#30D49D" font-family="'CrimsonText-Roman'" font-size="38.9143">melatonin tablets</text>
	<text transform="matrix(1 0 0 1 839.6245 450.9994)" fill="#30D49D" font-family="'CrimsonText-Roman'" font-size="22.687">12 </text>
</g>
<g>
	<text transform="matrix(1 0 0 1 929.6152 463.514)" fill="#30D49D" font-family="'CrimsonText-Roman'" font-size="33.6856">lucid dreaming</text>
	<text transform="matrix(1 0 0 1 1126.4648 452.2963)" fill="#30D49D" font-family="'CrimsonText-Roman'" font-size="19.6388">11 </text>
</g>
<g>
	<text transform="matrix(1 0 0 1 1212.8926 463.9574)" fill="#30D49D" font-family="'CrimsonText-Roman'" font-size="33.6856">nitrous oxide</text>
	<text transform="matrix(1 0 0 1 1389.043 455.2865)" fill="#30D49D" font-family="'CrimsonText-Roman'" font-size="19.6388">10 </text>
</g>
<g>
	<text transform="matrix(1 0 0 1 272 528.3783)" fill="#30D49D" font-family="'CrimsonText-Roman'" font-size="28.4571">4mg melatonin</text>
	<text transform="matrix(1 0 0 1 440.6299 518.9027)" fill="#30D49D" font-family="'CrimsonText-Roman'" font-size="16.5905">9 </text>
</g>
<g>
	<text transform="matrix(1 0 0 1 480.0879 528.3783)" fill="#30D49D" font-family="'CrimsonText-Roman'" font-size="28.4571">ivory fresh</text>
	<text transform="matrix(1 0 0 1 600.5586 518.9027)" fill="#30D49D" font-family="'CrimsonText-Roman'" font-size="16.5905">8 </text>
</g>
<g>
	<text transform="matrix(1 0 0 1 640.0176 528.3783)" fill="#30D49D" font-family="'CrimsonText-Roman'" font-size="28.4571">kava kava</text>
	<text transform="matrix(1 0 0 1 748.3711 518.9027)" fill="#30D49D" font-family="'CrimsonText-Roman'" font-size="16.5905">8</text>
	<text transform="matrix(1 0 0 1 756.2109 528.3783)" fill="#30D49D" font-family="'CrimsonText-Roman'" font-size="28.4571"> </text>
</g>
<g>
	<text transform="matrix(1 0 0 1 790.4819 529.5892)" fill="#30D49D" font-family="'CrimsonText-Roman'" font-size="28.4571">lucid dream</text>
	<text transform="matrix(1 0 0 1 921.041 520.1127)" fill="#30D49D" font-family="'CrimsonText-Roman'" font-size="16.5905">8 </text>
</g>
<g>
	<text transform="matrix(1 0 0 1 960.498 529.2328)" fill="#30D49D" font-family="'CrimsonText-Roman'" font-size="28.4571">lucid dreams</text>
	<text transform="matrix(1 0 0 1 1101.0332 519.7552)" fill="#30D49D" font-family="'CrimsonText-Roman'" font-size="16.5905">8 </text>
</g>
<g>
	<text transform="matrix(1 0 0 1 1140.4912 528.7894)" fill="#30D49D" font-family="'CrimsonText-Roman'" font-size="23.2285">heart rate</text>
	<text transform="matrix(1 0 0 1 1227.8936 521.0521)" fill="#30D49D" font-family="'CrimsonText-Roman'" font-size="13.5423">6</text>
	<text transform="matrix(1 0 0 1 1234.2939 528.7894)" fill="#30D49D" font-family="'CrimsonText-Roman'" font-size="23.2285"> </text>
</g>
<g>
	<text transform="matrix(1 0 0 1 1267.3965 527.9213)" fill="#30D49D" font-family="'CrimsonText-Roman'" font-size="23.2285">muscle tension</text>
	<text transform="matrix(1 0 0 1 1402.5713 520.184)" fill="#30D49D" font-family="'CrimsonText-Roman'" font-size="13.5423">6 </text>
</g>
<g>
	<text transform="matrix(1 0 0 1 272 595.6019)" fill="#30D49D" font-family="'CrimsonText-Roman'" font-size="23.2285">passion flower</text>
	<text transform="matrix(1 0 0 1 403.7725 587.8646)" fill="#30D49D" font-family="'CrimsonText-Roman'" font-size="13.5423">6 </text>
</g>
<g>
	<text transform="matrix(1 0 0 1 448.998 595.7015)" fill="#30D49D" font-family="'CrimsonText-Roman'" font-size="23.2285">salvia divinorum</text>
	<text transform="matrix(1 0 0 1 601.5479 587.9662)" fill="#30D49D" font-family="'CrimsonText-Roman'" font-size="13.5423">6 </text>
</g>
<g>
	<text transform="matrix(1 0 0 1 646.7725 595.2572)" fill="#30D49D" font-family="'CrimsonText-Roman'" font-size="18">1mg melatonin</text>
	<text transform="matrix(1 0 0 1 753.4717 589.2631)" fill="#30D49D" font-family="'CrimsonText-Roman'" font-size="10.494">5 </text>
</g>
<g>
	<text transform="matrix(1 0 0 1 796.585 595.9584)" fill="#30D49D" font-family="'CrimsonText-Roman'" font-size="18">6mg melatonin</text>
	<text transform="matrix(1 0 0 1 903.2842 589.9623)" fill="#30D49D" font-family="'CrimsonText-Roman'" font-size="10.494">5</text>
	<text transform="matrix(1 0 0 1 908.2568 595.9584)" fill="#30D49D" font-family="'CrimsonText-Roman'" font-size="18"> </text>
</g>
<g>
	<text transform="matrix(1 0 0 1 948.0771 595.515)" fill="#30D49D" font-family="'CrimsonText-Roman'" font-size="18">extremely vivid</text>
	<text transform="matrix(1 0 0 1 1057.167 589.5209)" fill="#30D49D" font-family="'CrimsonText-Roman'" font-size="10.494">5 </text>
</g>
<g>
	<text transform="matrix(1 0 0 1 1100.2803 596.2533)" fill="#30D49D" font-family="'CrimsonText-Roman'" font-size="18">higher doses</text>
	<text transform="matrix(1 0 0 1 1188.1182 590.2611)" fill="#30D49D" font-family="'CrimsonText-Roman'" font-size="10.494">5 </text>
</g>
<g>
	<text transform="matrix(1 0 0 1 1231.2305 596.2572)" fill="#30D49D" font-family="'CrimsonText-Roman'" font-size="18">leg pain</text>
	<text transform="matrix(1 0 0 1 1286.25 590.264)" fill="#30D49D" font-family="'CrimsonText-Roman'" font-size="10.494">5 </text>
</g>
<g>
	<text transform="matrix(1 0 0 1 1329.3623 596.2572)" fill="#30D49D" font-family="'CrimsonText-Roman'" font-size="18">stay awake</text>
	<text transform="matrix(1 0 0 1 1404.6836 590.264)" fill="#30D49D" font-family="'CrimsonText-Roman'" font-size="10.494">5 </text>
</g>
<g>
	<text transform="matrix(1 0 0 1 272 660.1049)" fill="#30D49D" font-family="'CrimsonText-Roman'" font-size="18">sublingual fell</text>
	<text transform="matrix(1 0 0 1 370.1904 655.472)" fill="#30D49D" font-family="'CrimsonText-Roman'" font-size="10.494">5</text>
	<text transform="matrix(1 0 0 1 356.1611 660.1049)" fill="#30D49D" font-family="'CrimsonText-Roman'" font-size="18"> </text>
</g>
<g>
	<text transform="matrix(1 0 0 1 424.5552 660.1049)" fill="#30D49D" font-family="'CrimsonText-Roman'" font-size="18">alarm clock</text>
	<text transform="matrix(1 0 0 1 506.231 655.472)" fill="#30D49D" font-family="'CrimsonText-Roman'" font-size="10.494">4</text>
</g>
<g>
	<text transform="matrix(1 0 0 1 560.5654 660.1049)" fill="#30D49D" font-family="'CrimsonText-Roman'" font-size="18">black hole</text>
	<text transform="matrix(1 0 0 1 631.3003 654.1107)" fill="#30D49D" font-family="'CrimsonText-Roman'" font-size="10.494">4</text>
	<text transform="matrix(1 0 0 1 636.2397 660.1049)" fill="#30D49D" font-family="'CrimsonText-Roman'" font-size="18"> </text>
</g>
<g>
	<text transform="matrix(1 0 0 1 689.6597 660.1049)" fill="#30D49D" font-family="'CrimsonText-Roman'" font-size="18">dream journal</text>
	<text transform="matrix(1 0 0 1 788.4663 654.1117)" fill="#30D49D" font-family="'CrimsonText-Roman'" font-size="10.494">4</text>
	<text transform="matrix(1 0 0 1 793.4058 660.1049)" fill="#30D49D" font-family="'CrimsonText-Roman'" font-size="18"> </text>
</g>
<g>
	<text transform="matrix(1 0 0 1 846.8262 660.1049)" fill="#30D49D" font-family="'CrimsonText-Roman'" font-size="18">dropped acid</text>
	<text transform="matrix(1 0 0 1 937.5137 654.1117)" fill="#30D49D" font-family="'CrimsonText-Roman'" font-size="10.494">4 </text>
</g>
<g>
	<text transform="matrix(1 0 0 1 994.1943 660.2484)" fill="#30D49D" font-family="'CrimsonText-Roman'" font-size="18">panic attack</text>
	<text transform="matrix(1 0 0 1 1077.7783 654.2543)" fill="#30D49D" font-family="'CrimsonText-Roman'" font-size="10.494">4 </text>
</g>
<g>
	<text transform="matrix(1 0 0 1 1134.459 660.2484)" fill="#30D49D" font-family="'CrimsonText-Roman'" font-size="18">seed pulp</text>
	<text transform="matrix(1 0 0 1 1200.1133 654.2543)" fill="#30D49D" font-family="'CrimsonText-Roman'" font-size="10.494">4 </text>
</g>
<g>
	<text transform="matrix(1 0 0 1 1256.7939 660.348)" fill="#30D49D" font-family="'CrimsonText-Roman'" font-size="18">sublingual melatonin</text>
	<text transform="matrix(1 0 0 1 1404.7139 654.3539)" fill="#30D49D" font-family="'CrimsonText-Roman'" font-size="10.494">4 </text>
</g>
</svg>
