<?xml version="1.0" encoding="utf-8"?>
<!-- Generator: Adobe Illustrator 16.0.4, SVG Export Plug-In . SVG Version: 6.00 Build 0)  -->
<!DOCTYPE svg PUBLIC "-//W3C//DTD SVG 1.1//EN" "http://www.w3.org/Graphics/SVG/1.1/DTD/svg11.dtd">
<svg version="1.1"
	 id="Layer_1" xmlns:text="http://xmlns.graougraou.com/svg/text/" xmlns:a3="http://ns.adobe.com/AdobeSVGViewerExtensions/3.0/" a3:scriptImplementation="Adobe"
	 xmlns="http://www.w3.org/2000/svg" xmlns:xlink="http://www.w3.org/1999/xlink" x="0px" y="0px" width="1140px"
	 height="193.432px" viewBox="0 0 1140 193.432" enable-background="new 0 0 1140 193.432" xml:space="preserve">
<text transform="matrix(1 0 0 1 0.0913 51.9006)" fill="#30D49D" font-family="'CrimsonText-Roman'" font-size="46.8571">valerian root</text>
<text transform="matrix(1 0 0 1 235.9785 36.2966)" fill="#30D49D" font-family="'CrimsonText-Roman'" font-size="27.3177">25 </text>
<text transform="matrix(1 0 0 1 332.5249 53.0022)" fill="#30D49D" font-family="'CrimsonText-Roman'" font-size="32.9143">3mg melatonin</text>
<text transform="matrix(1 0 0 1 527.6641 42.0413)" fill="#30D49D" font-family="'CrimsonText-Roman'" font-size="19.189">16 </text>
<text transform="matrix(1 0 0 1 614.6816 53.0022)" fill="#30D49D" font-family="'CrimsonText-Roman'" font-size="32.9143">melatonin sublingual</text>
<text transform="matrix(1 0 0 1 885.1641 42.0413)" fill="#30D49D" font-family="'CrimsonText-Roman'" font-size="19.189">16 </text>
<text transform="matrix(1 0 0 1 972.2402 53.1028)" fill="#30D49D" font-family="'CrimsonText-Roman'" font-size="29.4286">vivid dreams</text>
<text transform="matrix(1 0 0 1 1119.9277 43.302)" fill="#30D49D" font-family="'CrimsonText-Roman'" font-size="17.1569">15 </text>
<text transform="matrix(1 0 0 1 0 95.8)" fill="#30D49D" font-family="'CrimsonText-Roman'" font-size="25.9429">melatonin tablets</text>
<text transform="matrix(1 0 0 1 174.8604 87.1614)" fill="#30D49D" font-family="'CrimsonText-Roman'" font-size="15.1247">12 </text>
<text transform="matrix(1 0 0 1 268.4756 95.8)" fill="#30D49D" font-family="'CrimsonText-Roman'" font-size="22.4571">lucid dreaming</text>
<text transform="matrix(1 0 0 1 399.709 88.3215)" fill="#30D49D" font-family="'CrimsonText-Roman'" font-size="13.0925">11 </text>
<text transform="matrix(1 0 0 1 490.9482 95.8)" fill="#30D49D" font-family="'CrimsonText-Roman'" font-size="22.4571">nitrous oxide</text>
<text transform="matrix(1 0 0 1 607.0498 88.3215)" fill="#30D49D" font-family="'CrimsonText-Roman'" font-size="13.0925">10 </text>
<text transform="matrix(1 0 0 1 698.29 95.8)" fill="#30D49D" font-family="'CrimsonText-Roman'" font-size="18.9714">4mg melatonin</text>
<text transform="matrix(1 0 0 1 810.71 89.4827)" fill="#30D49D" font-family="'CrimsonText-Roman'" font-size="11.0603">9 </text>
<text transform="matrix(1 0 0 1 894.3457 95.8)" fill="#30D49D" font-family="'CrimsonText-Roman'" font-size="18.9714">ivory fresh</text>
<text transform="matrix(1 0 0 1 974.6592 89.4827)" fill="#30D49D" font-family="'CrimsonText-Roman'" font-size="11.0603">8 </text>
<text transform="matrix(1 0 0 1 1058.2949 95.8)" fill="#30D49D" font-family="'CrimsonText-Roman'" font-size="18.9714">kava kava</text>
<text transform="matrix(1 0 0 1 1130.5312 89.4827)" fill="#30D49D" font-family="'CrimsonText-Roman'" font-size="11.0603">8</text>
<text transform="matrix(1 0 0 1 1135.7578 95.8)" fill="#30D49D" font-family="'CrimsonText-Roman'" font-size="18.9714"> </text>
<text transform="matrix(1 0 0 1 0 136.5999)" fill="#30D49D" font-family="'CrimsonText-Roman'" font-size="18.9714">lucid dream</text>
<text transform="matrix(1 0 0 1 87.0391 130.2825)" fill="#30D49D" font-family="'CrimsonText-Roman'" font-size="11.0603">8 </text>
<text transform="matrix(1 0 0 1 138.3154 136.2434)" fill="#30D49D" font-family="'CrimsonText-Roman'" font-size="18.9714">lucid dreams</text>
<text transform="matrix(1 0 0 1 232.0049 129.925)" fill="#30D49D" font-family="'CrimsonText-Roman'" font-size="11.0603">8 </text>
<text transform="matrix(1 0 0 1 283.2817 136.2434)" fill="#30D49D" font-family="'CrimsonText-Roman'" font-size="15.4857">heart rate</text>
<text transform="matrix(1 0 0 1 341.5498 131.0852)" fill="#30D49D" font-family="'CrimsonText-Roman'" font-size="9.0282">6</text>
<text transform="matrix(1 0 0 1 345.8169 136.2434)" fill="#30D49D" font-family="'CrimsonText-Roman'" font-size="15.4857"> </text>
<text transform="matrix(1 0 0 1 392.855 136.2434)" fill="#30D49D" font-family="'CrimsonText-Roman'" font-size="15.4857">muscle tension</text>
<text transform="matrix(1 0 0 1 482.9717 131.0852)" fill="#30D49D" font-family="'CrimsonText-Roman'" font-size="9.0282">6 </text>
<text transform="matrix(1 0 0 1 532.8335 136.2434)" fill="#30D49D" font-family="'CrimsonText-Roman'" font-size="15.4857">passion flower</text>
<text transform="matrix(1 0 0 1 620.6816 131.0852)" fill="#30D49D" font-family="'CrimsonText-Roman'" font-size="9.0282">6 </text>
<text transform="matrix(1 0 0 1 670.543 136.343)" fill="#30D49D" font-family="'CrimsonText-Roman'" font-size="15.4857">salvia divinorum</text>
<text transform="matrix(1 0 0 1 772.2432 131.1858)" fill="#30D49D" font-family="'CrimsonText-Roman'" font-size="9.0282">6 </text>
<text transform="matrix(1 0 0 1 822.1035 136.343)" fill="#30D49D" font-family="'CrimsonText-Roman'" font-size="12">1mg melatonin</text>
<text transform="matrix(1 0 0 1 893.2363 132.3469)" fill="#30D49D" font-family="'CrimsonText-Roman'" font-size="6.996">5 </text>
<text transform="matrix(1 0 0 1 941.6895 137.0432)" fill="#30D49D" font-family="'CrimsonText-Roman'" font-size="12">6mg melatonin</text>
<text transform="matrix(1 0 0 1 1012.8223 133.0461)" fill="#30D49D" font-family="'CrimsonText-Roman'" font-size="6.996">5</text>
<text transform="matrix(1 0 0 1 1016.1367 137.0432)" fill="#30D49D" font-family="'CrimsonText-Roman'" font-size="12"> </text>
<text transform="matrix(1 0 0 1 1062.3955 136.5999)" fill="#30D49D" font-family="'CrimsonText-Roman'" font-size="12">extremely vivid</text>
<text transform="matrix(1 0 0 1 1135.1221 132.6038)" fill="#30D49D" font-family="'CrimsonText-Roman'" font-size="6.996">5 </text>
<text transform="matrix(1 0 0 1 0 171.0002)" fill="#30D49D" font-family="'CrimsonText-Roman'" font-size="12">higher doses</text>
<text transform="matrix(1 0 0 1 58.5586 167.0042)" fill="#30D49D" font-family="'CrimsonText-Roman'" font-size="6.996">5 </text>
<text transform="matrix(1 0 0 1 116.5942 171.0002)" fill="#30D49D" font-family="'CrimsonText-Roman'" font-size="12">leg pain</text>
<text transform="matrix(1 0 0 1 153.2734 167.0042)" fill="#30D49D" font-family="'CrimsonText-Roman'" font-size="6.996">5 </text>
<text transform="matrix(1 0 0 1 215.481 171.0002)" fill="#30D49D" font-family="'CrimsonText-Roman'" font-size="12">stay awake</text>
<text transform="matrix(1 0 0 1 265.6953 167.0042)" fill="#30D49D" font-family="'CrimsonText-Roman'" font-size="6.996">5 </text>
<text transform="matrix(1 0 0 1 313.0762 171.0002)" fill="#30D49D" font-family="'CrimsonText-Roman'" font-size="12">sublingual fell</text>
<text transform="matrix(1 0 0 1 378.291 167.0042)" fill="#30D49D" font-family="'CrimsonText-Roman'" font-size="6.996">5</text>
<text transform="matrix(1 0 0 1 381.6045 171.0002)" fill="#30D49D" font-family="'CrimsonText-Roman'" font-size="12"> </text>
<text transform="matrix(1 0 0 1 424.5537 171.0002)" fill="#30D49D" font-family="'CrimsonText-Roman'" font-size="12">alarm clock</text>
<text transform="matrix(1 0 0 1 478.1436 167.0042)" fill="#30D49D" font-family="'CrimsonText-Roman'" font-size="6.996">4</text>
<text transform="matrix(1 0 0 1 481.4365 171.0002)" fill="#30D49D" font-family="'CrimsonText-Roman'" font-size="12"> </text>
<text transform="matrix(1 0 0 1 533.4253 171.0002)" fill="#30D49D" font-family="'CrimsonText-Roman'" font-size="12">black hole</text>
<text transform="matrix(1 0 0 1 580.582 167.0042)" fill="#30D49D" font-family="'CrimsonText-Roman'" font-size="6.996">4</text>
<text transform="matrix(1 0 0 1 583.875 171.0002)" fill="#30D49D" font-family="'CrimsonText-Roman'" font-size="12"> </text>
<text transform="matrix(1 0 0 1 629.7217 171.0002)" fill="#30D49D" font-family="'CrimsonText-Roman'" font-size="12">dream journal</text>
<text transform="matrix(1 0 0 1 695.5928 167.0042)" fill="#30D49D" font-family="'CrimsonText-Roman'" font-size="6.996">4</text>
<text transform="matrix(1 0 0 1 698.8857 171.0002)" fill="#30D49D" font-family="'CrimsonText-Roman'" font-size="12"> </text>
<text transform="matrix(1 0 0 1 738.6436 171.0002)" fill="#30D49D" font-family="'CrimsonText-Roman'" font-size="12">dropped acid</text>
<text transform="matrix(1 0 0 1 799.1016 167.0042)" fill="#30D49D" font-family="'CrimsonText-Roman'" font-size="6.996">4 </text>
<text transform="matrix(1 0 0 1 846.665 171.1438)" fill="#30D49D" font-family="'CrimsonText-Roman'" font-size="12">panic attack</text>
<text transform="matrix(1 0 0 1 902.3877 167.1477)" fill="#30D49D" font-family="'CrimsonText-Roman'" font-size="6.996">4 </text>
<text transform="matrix(1 0 0 1 958.2959 171.1438)" fill="#30D49D" font-family="'CrimsonText-Roman'" font-size="12">seed pulp</text>
<text transform="matrix(1 0 0 1 1002.0654 167.1477)" fill="#30D49D" font-family="'CrimsonText-Roman'" font-size="6.996">4 </text>
<text transform="matrix(1 0 0 1 1036.5293 171.2434)" fill="#30D49D" font-family="'CrimsonText-Roman'" font-size="12">sublingual melatonin</text>
<text transform="matrix(1 0 0 1 1135.1426 167.2473)" fill="#30D49D" font-family="'CrimsonText-Roman'" font-size="6.996">4 </text>
</svg>
