<?xml version="1.0" encoding="utf-8"?>
<!-- Generator: Adobe Illustrator 16.0.4, SVG Export Plug-In . SVG Version: 6.00 Build 0)  -->
<!DOCTYPE svg PUBLIC "-//W3C//DTD SVG 1.1//EN" "http://www.w3.org/Graphics/SVG/1.1/DTD/svg11.dtd">
<svg version="1.1"
	 id="Layer_1" xmlns:a3="http://ns.adobe.com/AdobeSVGViewerExtensions/3.0/" xmlns:text="http://xmlns.graougraou.com/svg/text/" a3:scriptImplementation="Adobe"
	 xmlns="http://www.w3.org/2000/svg" xmlns:xlink="http://www.w3.org/1999/xlink" x="0px" y="0px" width="1140px"
	 height="237.974px" viewBox="272 324.89 1140 237.974" enable-background="new 272 324.89 1140 237.974" xml:space="preserve">
<g>
	<text transform="matrix(1 0 0 1 272 390.3905)" fill="#30D49D" font-family="'CrimsonText-Roman'" font-size="69.3693">stay awake</text>
	<text transform="matrix(1 0 0 1 562.2798 367.2924)" fill="#30D49D" font-family="'CrimsonText-Roman'" font-size="40.4423">23 </text>
</g>
<g>
	<text transform="matrix(1 0 0 1 631.999 390.3905)" fill="#30D49D" font-family="'CrimsonText-Roman'" font-size="69.3693">heart rate</text>
	<text transform="matrix(1 0 0 1 893.0156 367.2924)" fill="#30D49D" font-family="'CrimsonText-Roman'" font-size="40.4423">22 </text>
</g>
<g>
	<text transform="matrix(1 0 0 1 962.6953 389.4906)" fill="#30D49D" font-family="'CrimsonText-Roman'" font-size="40.0154">wide awake</text>
	<text transform="matrix(1 0 0 1 1144.9941 376.1644)" fill="#30D49D" font-family="'CrimsonText-Roman'" font-size="23.329">13 </text>
</g>
<g>
	<text transform="matrix(1 0 0 1 1195.6914 389.868)" fill="#30D49D" font-family="'CrimsonText-Roman'" font-size="32.6769">200mg provigil</text>
	<text transform="matrix(1 0 0 1 1390.7305 378.9857)" fill="#30D49D" font-family="'CrimsonText-Roman'" font-size="19.0506">10 </text>
</g>
<g>
	<text transform="matrix(1 0 0 1 272 464.39)" fill="#30D49D" font-family="'CrimsonText-Roman'" font-size="32.6769">blood pressure</text>
	<text transform="matrix(1 0 0 1 459.0615 453.5082)" fill="#30D49D" font-family="'CrimsonText-Roman'" font-size="19.0506">10 </text>
</g>
<g>
	<text transform="matrix(1 0 0 1 502.9639 464.391)" fill="#30D49D" font-family="'CrimsonText-Roman'" font-size="25.3384">modafinil does</text>
	<text transform="matrix(1 0 0 1 648.6602 455.9545)" fill="#30D49D" font-family="'CrimsonText-Roman'" font-size="14.7723">8 </text>
</g>
<g>
	<text transform="matrix(1 0 0 1 680.5786 464.391)" fill="#30D49D" font-family="'CrimsonText-Roman'" font-size="25.3384">prescribed provigil</text>
	<text transform="matrix(1 0 0 1 867.3008 455.9545)" fill="#30D49D" font-family="'CrimsonText-Roman'" font-size="14.7723">7 </text>
</g>
<g>
	<text transform="matrix(1 0 0 1 899.2051 463.5609)" fill="#30D49D" font-family="'CrimsonText-Roman'" font-size="18">10mg ritalin</text>
	<text transform="matrix(1 0 0 1 987.0059 458.9271)" fill="#30D49D" font-family="'CrimsonText-Roman'" font-size="10.494">5 </text>
</g>
<g>
	<text transform="matrix(1 0 0 1 1015.9551 464.558)" fill="#30D49D" font-family="'CrimsonText-Roman'" font-size="18">200mg modafinil</text>
	<text transform="matrix(1 0 0 1 1135.8027 458.5629)" fill="#30D49D" font-family="'CrimsonText-Roman'" font-size="10.494">5 </text>
</g>
<g>
	<text transform="matrix(1 0 0 1 1164.7539 464.558)" fill="#30D49D" font-family="'CrimsonText-Roman'" font-size="18">200mg tablet</text>
	<text transform="matrix(1 0 0 1 1255.9141 458.5629)" fill="#30D49D" font-family="'CrimsonText-Roman'" font-size="10.494">5 </text>
</g>
<g>
	<text transform="matrix(1 0 0 1 1284.8643 464.558)" fill="#30D49D" font-family="'CrimsonText-Roman'" font-size="18">adverse reactions</text>
	<text transform="matrix(1 0 0 1 1407.0293 456.9535)" fill="#30D49D" font-family="'CrimsonText-Roman'" font-size="10.494">5</text>
</g>
<g>
	<text transform="matrix(1 0 0 1 272 529.7806)" fill="#30D49D" font-family="'CrimsonText-Roman'" font-size="18">attention span</text>
	<text transform="matrix(1 0 0 1 372.6338 523.7865)" fill="#30D49D" font-family="'CrimsonText-Roman'" font-size="10.494">5</text>
</g>
<g>
	<text transform="matrix(1 0 0 1 413.9482 529.7806)" fill="#30D49D" font-family="'CrimsonText-Roman'" font-size="18">excessive sleepiness</text>
	<text transform="matrix(1 0 0 1 551.2695 523.7865)" fill="#30D49D" font-family="'CrimsonText-Roman'" font-size="10.494">5</text>
</g>
<g>
	<text transform="matrix(1 0 0 1 593.0225 530.7787)" fill="#30D49D" font-family="'CrimsonText-Roman'" font-size="18">jaw clenching</text>
	<text transform="matrix(1 0 0 1 689.2466 524.7836)" fill="#30D49D" font-family="'CrimsonText-Roman'" font-size="10.494">5</text>
</g>
<g>
	<text transform="matrix(1 0 0 1 730.5605 530.7787)" fill="#30D49D" font-family="'CrimsonText-Roman'" font-size="18">energy levels</text>
	<text transform="matrix(1 0 0 1 821.1577 524.7836)" fill="#30D49D" font-family="'CrimsonText-Roman'" font-size="10.494">4</text>
</g>
<g>
	<text transform="matrix(1 0 0 1 862.4414 530.7787)" fill="#30D49D" font-family="'CrimsonText-Roman'" font-size="18">pulse rate</text>
	<text transform="matrix(1 0 0 1 930.0117 524.7836)" fill="#30D49D" font-family="'CrimsonText-Roman'" font-size="10.494">4 </text>
</g>
<g>
	<text transform="matrix(1 0 0 1 973.6426 530.7787)" fill="#30D49D" font-family="'CrimsonText-Roman'" font-size="18">term memory</text>
	<text transform="matrix(1 0 0 1 1070.7959 524.7836)" fill="#30D49D" font-family="'CrimsonText-Roman'" font-size="10.494">4 </text>
</g>
<g>
	<text transform="matrix(1 0 0 1 1114.4619 530.7787)" fill="#30D49D" font-family="'CrimsonText-Roman'" font-size="18">vivid dreams</text>
	<text transform="matrix(1 0 0 1 1204.7959 524.7836)" fill="#30D49D" font-family="'CrimsonText-Roman'" font-size="10.494">4 </text>
</g>
<g>
	<text transform="matrix(1 0 0 1 1248.4258 530.7787)" fill="#30D49D" font-family="'CrimsonText-Roman'" font-size="18">withdrawal symptoms</text>
	<text transform="matrix(1 0 0 1 1404.7139 524.7836)" fill="#30D49D" font-family="'CrimsonText-Roman'" font-size="10.494">4 </text>
</g>
</svg>
