<?xml version="1.0" encoding="utf-8"?>
<!-- Generator: Adobe Illustrator 16.0.4, SVG Export Plug-In . SVG Version: 6.00 Build 0)  -->
<!DOCTYPE svg PUBLIC "-//W3C//DTD SVG 1.1//EN" "http://www.w3.org/Graphics/SVG/1.1/DTD/svg11.dtd">
<svg version="1.1"
	 id="Layer_1" a3:scriptImplementation="Adobe" xmlns:text="http://xmlns.graougraou.com/svg/text/" xmlns:a3="http://ns.adobe.com/AdobeSVGViewerExtensions/3.0/"
	 xmlns="http://www.w3.org/2000/svg" xmlns:xlink="http://www.w3.org/1999/xlink" x="0px" y="0px" width="1140px" height="193px"
	 viewBox="7.294 0 1140 193" enable-background="new 7.294 0 1140 193" xml:space="preserve">
<text transform="matrix(1 0 0 1 7.2939 51.8999)" fill="#30D49D" font-family="'CrimsonText-Roman'" font-size="46.2462">stay awake</text>
<text transform="matrix(0.583 0 0 0.583 200.814 36.5005)" fill="#30D49D" font-family="'CrimsonText-Roman'" font-size="46.2462">23 </text>
<text transform="matrix(1 0 0 1 303.6709 51.8999)" fill="#30D49D" font-family="'CrimsonText-Roman'" font-size="46.2462">heart rate</text>
<text transform="matrix(0.583 0 0 0.583 477.6812 36.5005)" fill="#30D49D" font-family="'CrimsonText-Roman'" font-size="46.2462">22 </text>
<text transform="matrix(1 0 0 1 580.5127 51.4917)" fill="#30D49D" font-family="'CrimsonText-Roman'" font-size="26.6769">wide awake</text>
<text transform="matrix(0.583 0 0 0.583 702.0439 42.6084)" fill="#30D49D" font-family="'CrimsonText-Roman'" font-size="26.6769">13 </text>
<text transform="matrix(1 0 0 1 791.5537 51.4917)" fill="#30D49D" font-family="'CrimsonText-Roman'" font-size="21.7846">200mg provigil</text>
<text transform="matrix(0.583 0 0 0.583 921.5811 44.2373)" fill="#30D49D" font-family="'CrimsonText-Roman'" font-size="21.7846">10 </text>
<text transform="matrix(1 0 0 1 1007.7402 51.4917)" fill="#30D49D" font-family="'CrimsonText-Roman'" font-size="21.7846">blood pressure</text>
<text transform="matrix(0.583 0 0 0.583 1132.4482 44.2373)" fill="#30D49D" font-family="'CrimsonText-Roman'" font-size="21.7846">10 </text>
<text transform="matrix(1 0 0 1 7.2939 95.9038)" fill="#30D49D" font-family="'CrimsonText-Roman'" font-size="16.8923">modafinil does</text>
<text transform="matrix(0.583 0 0 0.583 104.4248 90.2788)" fill="#30D49D" font-family="'CrimsonText-Roman'" font-size="16.8923">8 </text>
<text transform="matrix(1 0 0 1 173.3589 95.9038)" fill="#30D49D" font-family="'CrimsonText-Roman'" font-size="16.8923">prescribed provigil</text>
<text transform="matrix(0.583 0 0 0.583 297.8403 90.2788)" fill="#30D49D" font-family="'CrimsonText-Roman'" font-size="16.8923">7 </text>
<text transform="matrix(1 0 0 1 366.7651 95.6958)" fill="#30D49D" font-family="'CrimsonText-Roman'" font-size="12">10mg ritalin</text>
<text transform="matrix(0.583 0 0 0.583 424.4214 91.6997)" fill="#30D49D" font-family="'CrimsonText-Roman'" font-size="12">5 </text>
<text transform="matrix(1 0 0 1 491.376 95.6958)" fill="#30D49D" font-family="'CrimsonText-Roman'" font-size="12">200mg modafinil</text>
<text transform="matrix(0.583 0 0 0.583 571.2744 91.6997)" fill="#30D49D" font-family="'CrimsonText-Roman'" font-size="12">5 </text>
<text transform="matrix(1 0 0 1 638.2295 95.6958)" fill="#30D49D" font-family="'CrimsonText-Roman'" font-size="12">200mg tablet</text>
<text transform="matrix(0.583 0 0 0.583 699.0029 91.6997)" fill="#30D49D" font-family="'CrimsonText-Roman'" font-size="12">5 </text>
<text transform="matrix(1 0 0 1 765.957 95.6958)" fill="#30D49D" font-family="'CrimsonText-Roman'" font-size="12">adverse reactions</text>
<text transform="matrix(0.583 0 0 0.583 846.5117 91.6997)" fill="#30D49D" font-family="'CrimsonText-Roman'" font-size="12">5</text>
<text transform="matrix(1 0 0 1 849.8262 95.6958)" fill="#30D49D" font-family="'CrimsonText-Roman'" font-size="12"> </text>
<text transform="matrix(1 0 0 1 914.5869 95.6958)" fill="#30D49D" font-family="'CrimsonText-Roman'" font-size="12">attention span</text>
<text transform="matrix(0.583 0 0 0.583 981.6768 91.6997)" fill="#30D49D" font-family="'CrimsonText-Roman'" font-size="12">5</text>
<text transform="matrix(1 0 0 1 984.9902 95.6958)" fill="#30D49D" font-family="'CrimsonText-Roman'" font-size="12"> </text>
<text transform="matrix(1 0 0 1 1049.75 95.6958)" fill="#30D49D" font-family="'CrimsonText-Roman'" font-size="12">excessive sleepiness</text>
<text transform="matrix(0.583 0 0 0.583 1141.2969 91.6997)" fill="#30D49D" font-family="'CrimsonText-Roman'" font-size="12">5</text>
<text transform="matrix(1 0 0 1 1144.6104 95.6958)" fill="#30D49D" font-family="'CrimsonText-Roman'" font-size="12"> </text>
<text transform="matrix(1 0 0 1 7.2939 136.6001)" fill="#30D49D" font-family="'CrimsonText-Roman'" font-size="12">jaw clenching</text>
<text transform="matrix(0.583 0 0 0.583 71.4424 132.604)" fill="#30D49D" font-family="'CrimsonText-Roman'" font-size="12">5</text>
<text transform="matrix(1 0 0 1 118.1553 136.6001)" fill="#30D49D" font-family="'CrimsonText-Roman'" font-size="12">energy levels</text>
<text transform="matrix(0.583 0 0 0.583 178.5537 132.604)" fill="#30D49D" font-family="'CrimsonText-Roman'" font-size="12">4</text>
<text transform="matrix(1 0 0 1 181.8467 136.6001)" fill="#30D49D" font-family="'CrimsonText-Roman'" font-size="12"> </text>
<text transform="matrix(1 0 0 1 227.9297 136.6001)" fill="#30D49D" font-family="'CrimsonText-Roman'" font-size="12">pulse rate</text>
<text transform="matrix(0.583 0 0 0.583 272.9766 132.604)" fill="#30D49D" font-family="'CrimsonText-Roman'" font-size="12">4 </text>
<text transform="matrix(1 0 0 1 321.2334 136.6001)" fill="#30D49D" font-family="'CrimsonText-Roman'" font-size="12">term memory</text>
<text transform="matrix(0.583 0 0 0.583 386.0029 132.604)" fill="#30D49D" font-family="'CrimsonText-Roman'" font-size="12">4 </text>
<text transform="matrix(1 0 0 1 434.2832 136.6001)" fill="#30D49D" font-family="'CrimsonText-Roman'" font-size="12">vivid dreams</text>
<text transform="matrix(0.583 0 0 0.583 494.5059 132.604)" fill="#30D49D" font-family="'CrimsonText-Roman'" font-size="12">4 </text>
<text transform="matrix(1 0 0 1 542.7627 136.6001)" fill="#30D49D" font-family="'CrimsonText-Roman'" font-size="12">withdrawal symptoms</text>
<text transform="matrix(0.583 0 0 0.583 646.9541 132.604)" fill="#30D49D" font-family="'CrimsonText-Roman'" font-size="12">4 </text>
</svg>
