<?xml version="1.0" encoding="utf-8"?>
<!-- Generator: Adobe Illustrator 16.0.4, SVG Export Plug-In . SVG Version: 6.00 Build 0)  -->
<!DOCTYPE svg PUBLIC "-//W3C//DTD SVG 1.1//EN" "http://www.w3.org/Graphics/SVG/1.1/DTD/svg11.dtd">
<svg version="1.1"
	 id="Layer_1" xmlns:a3="http://ns.adobe.com/AdobeSVGViewerExtensions/3.0/" xmlns:text="http://xmlns.graougraou.com/svg/text/" a3:scriptImplementation="Adobe"
	 xmlns="http://www.w3.org/2000/svg" xmlns:xlink="http://www.w3.org/1999/xlink" x="0px" y="0px" width="1140px" height="306.89px"
	 viewBox="272 322.89 1140 306.89" enable-background="new 272 322.89 1140 306.89" xml:space="preserve">
<g>
	<text transform="matrix(1 0 0 1 272 393.1957)" fill="#A478D6" font-family="'CrimsonText-Roman'" font-size="83.6917">glory seeds</text>
	<text transform="matrix(1 0 0 1 629.4067 365.3265)" fill="#A478D6" font-family="'CrimsonText-Roman'" font-size="48.7923">468 </text>
</g>
<g>
	<text transform="matrix(1 0 0 1 736.5947 393.2968)" fill="#A478D6" font-family="'CrimsonText-Roman'" font-size="57.5153">heavenly blue</text>
	<text transform="matrix(1 0 0 1 1044.3926 374.1454)" fill="#A478D6" font-family="'CrimsonText-Roman'" font-size="33.5314">206 </text>
</g>
<g>
	<text transform="matrix(1 0 0 1 1112.9609 392.4432)" fill="#A478D6" font-family="'CrimsonText-Roman'" font-size="47.4625">coffee grinder</text>
	<text transform="matrix(1 0 0 1 1371.5488 376.6385)" fill="#A478D6" font-family="'CrimsonText-Roman'" font-size="27.6707">165 </text>
</g>
<g>
	<text transform="matrix(1 0 0 1 272 461.39)" fill="#A478D6" font-family="'CrimsonText-Roman'" font-size="23.2285">heavenly blues</text>
	<text transform="matrix(1 0 0 1 404.4531 453.6556)" fill="#A478D6" font-family="'CrimsonText-Roman'" font-size="13.5422">56 </text>
</g>
<g>
	<text transform="matrix(1 0 0 1 449.3062 460.5238)" fill="#A478D6" font-family="'CrimsonText-Roman'" font-size="23.2285">orange juice</text>
	<text transform="matrix(1 0 0 1 559.2788 452.7875)" fill="#A478D6" font-family="'CrimsonText-Roman'" font-size="13.5422">48 </text>
</g>
<g>
	<text transform="matrix(1 0 0 1 604.0918 460.8744)" fill="#A478D6" font-family="'CrimsonText-Roman'" font-size="23.2285">coffee filter</text>
	<text transform="matrix(1 0 0 1 707.4858 454.8939)" fill="#A478D6" font-family="'CrimsonText-Roman'" font-size="13.5422">45 </text>
</g>
<g>
	<text transform="matrix(1 0 0 1 752.3125 460.431)" fill="#A478D6" font-family="'CrimsonText-Roman'" font-size="18">fine powder</text>
	<text transform="matrix(1 0 0 1 837.2842 454.4369)" fill="#A478D6" font-family="'CrimsonText-Roman'" font-size="10.494">41 </text>
</g>
<g>
	<text transform="matrix(1 0 0 1 878.54 460.431)" fill="#A478D6" font-family="'CrimsonText-Roman'" font-size="18">pearly gates</text>
	<text transform="matrix(1 0 0 1 960.7695 454.4369)" fill="#A478D6" font-family="'CrimsonText-Roman'" font-size="10.494">36 </text>
</g>
<g>
	<text transform="matrix(1 0 0 1 1002.0566 460.431)" fill="#A478D6" font-family="'CrimsonText-Roman'" font-size="18">pink floyd</text>
	<text transform="matrix(1 0 0 1 1073.4414 454.4369)" fill="#A478D6" font-family="'CrimsonText-Roman'" font-size="10.494">33 </text>
</g>
<g>
	<text transform="matrix(1 0 0 1 1114.7383 461.4271)" fill="#A478D6" font-family="'CrimsonText-Roman'" font-size="18">250 seeds</text>
	<text transform="matrix(1 0 0 1 1180.7793 455.433)" fill="#A478D6" font-family="'CrimsonText-Roman'" font-size="10.494">32 </text>
</g>
<g>
	<text transform="matrix(1 0 0 1 1222.0664 461.431)" fill="#A478D6" font-family="'CrimsonText-Roman'" font-size="18">blue seeds</text>
	<text transform="matrix(1 0 0 1 1292.3955 455.4369)" fill="#A478D6" font-family="'CrimsonText-Roman'" font-size="10.494">32 </text>
</g>
<g>
	<text transform="matrix(1 0 0 1 1333.6816 461.431)" fill="#A478D6" font-family="'CrimsonText-Roman'" font-size="18">300 seeds</text>
	<text transform="matrix(1 0 0 1 1399.7227 455.4369)" fill="#A478D6" font-family="'CrimsonText-Roman'" font-size="10.494">30 </text>
</g>
<g>
	<text transform="matrix(1 0 0 1 272 526.2787)" fill="#A478D6" font-family="'CrimsonText-Roman'" font-size="18">seed powder</text>
	<text transform="matrix(1 0 0 1 360.0137 520.2845)" fill="#A478D6" font-family="'CrimsonText-Roman'" font-size="10.494">30 </text>
</g>
<g>
	<text transform="matrix(1 0 0 1 393.5303 525.7806)" fill="#A478D6" font-family="'CrimsonText-Roman'" font-size="18">flying saucers</text>
	<text transform="matrix(1 0 0 1 488.3477 519.7865)" fill="#A478D6" font-family="'CrimsonText-Roman'" font-size="10.494">29 </text>
</g>
<g>
	<text transform="matrix(1 0 0 1 521.8545 526.2787)" fill="#A478D6" font-family="'CrimsonText-Roman'" font-size="18">150 seeds</text>
	<text transform="matrix(1 0 0 1 587.8955 520.2845)" fill="#A478D6" font-family="'CrimsonText-Roman'" font-size="10.494">26 </text>
</g>
<g>
	<text transform="matrix(1 0 0 1 621.4019 527.2758)" fill="#A478D6" font-family="'CrimsonText-Roman'" font-size="18">500 seeds</text>
	<text transform="matrix(1 0 0 1 687.4434 521.2806)" fill="#A478D6" font-family="'CrimsonText-Roman'" font-size="10.494">26 </text>
</g>
<g>
	<text transform="matrix(1 0 0 1 720.9497 527.2758)" fill="#A478D6" font-family="'CrimsonText-Roman'" font-size="18">100 seeds</text>
	<text transform="matrix(1 0 0 1 786.9727 521.2806)" fill="#A478D6" font-family="'CrimsonText-Roman'" font-size="10.494">25 </text>
</g>
<g>
	<text transform="matrix(1 0 0 1 819.4897 527.2758)" fill="#A478D6" font-family="'CrimsonText-Roman'" font-size="18">200 seeds</text>
	<text transform="matrix(1 0 0 1 887.3906 522.642)" fill="#A478D6" font-family="'CrimsonText-Roman'" font-size="10.494">25 </text>
</g>
<g>
	<text transform="matrix(1 0 0 1 921.9062 527.2758)" fill="#A478D6" font-family="'CrimsonText-Roman'" font-size="18">extraction method</text>
	<text transform="matrix(1 0 0 1 1051.3691 521.2806)" fill="#A478D6" font-family="'CrimsonText-Roman'" font-size="10.494">25 </text>
</g>
<g>
	<text transform="matrix(1 0 0 1 1084.8857 527.2758)" fill="#A478D6" font-family="'CrimsonText-Roman'" font-size="18">ground seeds</text>
	<text transform="matrix(1 0 0 1 1176.7324 521.2806)" fill="#A478D6" font-family="'CrimsonText-Roman'" font-size="10.494">25 </text>
</g>
<g>
	<text transform="matrix(1 0 0 1 1210.248 527.2758)" fill="#A478D6" font-family="'CrimsonText-Roman'" font-size="18">paper towel</text>
	<text transform="matrix(1 0 0 1 1293.2705 521.2806)" fill="#A478D6" font-family="'CrimsonText-Roman'" font-size="10.494">24 </text>
</g>
<g>
	<text transform="matrix(1 0 0 1 272 593.4965)" fill="#A478D6" font-family="'CrimsonText-Roman'" font-size="18">extraction process</text>
	<text transform="matrix(1 0 0 1 399.2305 587.5013)" fill="#A478D6" font-family="'CrimsonText-Roman'" font-size="10.494">23 </text>
</g>
<g>
	<text transform="matrix(1 0 0 1 1326.7559 526.2787)" fill="#A478D6" font-family="'CrimsonText-Roman'" font-size="18">seed mush</text>
	<text transform="matrix(1 0 0 1 1399.7227 520.2836)" fill="#A478D6" font-family="'CrimsonText-Roman'" font-size="10.494">23 </text>
</g>
<g>
	<text transform="matrix(1 0 0 1 463.3682 593.4984)" fill="#A478D6" font-family="'CrimsonText-Roman'" font-size="18">pepper grinder</text>
	<text transform="matrix(1 0 0 1 568.3975 587.5033)" fill="#A478D6" font-family="'CrimsonText-Roman'" font-size="10.494">22 </text>
</g>
<g>
	<text transform="matrix(1 0 0 1 632.5244 593.4984)" fill="#A478D6" font-family="'CrimsonText-Roman'" font-size="18">dish soap</text>
	<text transform="matrix(1 0 0 1 697.3369 587.5033)" fill="#A478D6" font-family="'CrimsonText-Roman'" font-size="10.494">21 </text>
</g>
<g>
	<text transform="matrix(1 0 0 1 761.4639 593.4984)" fill="#A478D6" font-family="'CrimsonText-Roman'" font-size="18">leg cramps</text>
	<text transform="matrix(1 0 0 1 836.3809 587.5033)" fill="#A478D6" font-family="'CrimsonText-Roman'" font-size="10.494">21 </text>
</g>
<g>
	<text transform="matrix(1 0 0 1 900.5078 592.5013)" fill="#A478D6" font-family="'CrimsonText-Roman'" font-size="18">lighter fluid</text>
	<text transform="matrix(1 0 0 1 983.3359 586.5062)" fill="#A478D6" font-family="'CrimsonText-Roman'" font-size="10.494">20 </text>
</g>
<g>
	<text transform="matrix(1 0 0 1 1047.4629 592.5013)" fill="#A478D6" font-family="'CrimsonText-Roman'" font-size="18">seed pulp</text>
	<text transform="matrix(1 0 0 1 1113.1172 586.5062)" fill="#A478D6" font-family="'CrimsonText-Roman'" font-size="10.494">20 </text>
</g>
<g>
	<text transform="matrix(1 0 0 1 1177.2441 592.5013)" fill="#A478D6" font-family="'CrimsonText-Roman'" font-size="18">400 seeds</text>
	<text transform="matrix(1 0 0 1 1243.2324 586.5062)" fill="#A478D6" font-family="'CrimsonText-Roman'" font-size="10.494">19 </text>
</g>
<g>
	<text transform="matrix(1 0 0 1 1307.3604 592.5013)" fill="#A478D6" font-family="'CrimsonText-Roman'" font-size="18">grocery store</text>
	<text transform="matrix(1 0 0 1 1399.7324 586.5062)" fill="#A478D6" font-family="'CrimsonText-Roman'" font-size="10.494">19 </text>
</g>
</svg>
