<?xml version="1.0" encoding="utf-8"?>
<!-- Generator: Adobe Illustrator 16.0.4, SVG Export Plug-In . SVG Version: 6.00 Build 0)  -->
<!DOCTYPE svg PUBLIC "-//W3C//DTD SVG 1.1//EN" "http://www.w3.org/Graphics/SVG/1.1/DTD/svg11.dtd">
<svg version="1.1"
	 id="Layer_1" a3:scriptImplementation="Adobe" xmlns:text="http://xmlns.graougraou.com/svg/text/" xmlns:a3="http://ns.adobe.com/AdobeSVGViewerExtensions/3.0/"
	 xmlns="http://www.w3.org/2000/svg" xmlns:xlink="http://www.w3.org/1999/xlink" x="0px" y="0px" width="1140px" height="196px"
	 viewBox="7.294 0 1140 196" enable-background="new 7.294 0 1140 196" xml:space="preserve">
<text transform="matrix(1 0 0 1 7.2939 51.8999)" fill="#A478D6" font-family="'CrimsonText-Roman'" font-size="64.8396">glory seeds</text>
<text transform="matrix(0.583 0 0 0.583 284.1919 30.3081)" fill="#A478D6" font-family="'CrimsonText-Roman'" font-size="64.8396">468 </text>
<text transform="matrix(1 0 0 1 426.1025 51.8999)" fill="#A478D6" font-family="'CrimsonText-Roman'" font-size="39.8857">heavenly blue</text>
<text transform="matrix(0.583 0 0 0.583 639.5537 38.6187)" fill="#A478D6" font-family="'CrimsonText-Roman'" font-size="39.8857">206 </text>
<text transform="matrix(1 0 0 1 757.6562 51.8999)" fill="#A478D6" font-family="'CrimsonText-Roman'" font-size="32.9143">coffee grinder</text>
<text transform="matrix(0.583 0 0 0.583 936.9814 40.9399)" fill="#A478D6" font-family="'CrimsonText-Roman'" font-size="32.9143">165 </text>
<text transform="matrix(1 0 0 1 1048.4307 51.9902)" fill="#A478D6" font-family="'CrimsonText-Roman'" font-size="15.4857">heavenly blues</text>
<text transform="matrix(0.583 0 0 0.583 1136.7324 46.8335)" fill="#A478D6" font-family="'CrimsonText-Roman'" font-size="15.4857">56 </text>
<text transform="matrix(1 0 0 1 7.2939 94.8901)" fill="#A478D6" font-family="'CrimsonText-Roman'" font-size="15.4857">orange juice</text>
<text transform="matrix(0.583 0 0 0.583 80.6089 89.7334)" fill="#A478D6" font-family="'CrimsonText-Roman'" font-size="15.4857">48 </text>
<text transform="matrix(1 0 0 1 135.4678 94.8901)" fill="#A478D6" font-family="'CrimsonText-Roman'" font-size="15.4857">coffee filter</text>
<text transform="matrix(0.583 0 0 0.583 204.2915 89.7334)" fill="#A478D6" font-family="'CrimsonText-Roman'" font-size="15.4857">45 </text>
<text transform="matrix(1 0 0 1 259.1597 94.8901)" fill="#A478D6" font-family="'CrimsonText-Roman'" font-size="12">fine powder</text>
<text transform="matrix(0.583 0 0 0.583 315.8081 90.894)" fill="#A478D6" font-family="'CrimsonText-Roman'" font-size="12">41 </text>
<text transform="matrix(1 0 0 1 368.2959 94.8901)" fill="#A478D6" font-family="'CrimsonText-Roman'" font-size="12">pearly gates</text>
<text transform="matrix(0.583 0 0 0.583 423.1162 90.894)" fill="#A478D6" font-family="'CrimsonText-Roman'" font-size="12">36 </text>
<text transform="matrix(1 0 0 1 475.624 94.8901)" fill="#A478D6" font-family="'CrimsonText-Roman'" font-size="12">pink floyd</text>
<text transform="matrix(0.583 0 0 0.583 523.2139 90.894)" fill="#A478D6" font-family="'CrimsonText-Roman'" font-size="12">33 </text>
<text transform="matrix(1 0 0 1 575.729 94.8901)" fill="#A478D6" font-family="'CrimsonText-Roman'" font-size="12">250 seeds</text>
<text transform="matrix(0.583 0 0 0.583 619.7568 90.894)" fill="#A478D6" font-family="'CrimsonText-Roman'" font-size="12">32 </text>
<text transform="matrix(1 0 0 1 672.2646 94.8901)" fill="#A478D6" font-family="'CrimsonText-Roman'" font-size="12">blue seeds</text>
<text transform="matrix(0.583 0 0 0.583 719.1514 90.894)" fill="#A478D6" font-family="'CrimsonText-Roman'" font-size="12">32 </text>
<text transform="matrix(1 0 0 1 771.6582 94.8901)" fill="#A478D6" font-family="'CrimsonText-Roman'" font-size="12">300 seeds</text>
<text transform="matrix(0.583 0 0 0.583 815.6855 90.894)" fill="#A478D6" font-family="'CrimsonText-Roman'" font-size="12">30 </text>
<text transform="matrix(1 0 0 1 868.1934 94.8901)" fill="#A478D6" font-family="'CrimsonText-Roman'" font-size="12">seed powder</text>
<text transform="matrix(0.583 0 0 0.583 926.8691 90.894)" fill="#A478D6" font-family="'CrimsonText-Roman'" font-size="12">30 </text>
<text transform="matrix(1 0 0 1 979.377 95.3921)" fill="#A478D6" font-family="'CrimsonText-Roman'" font-size="12">flying saucers</text>
<text transform="matrix(0.583 0 0 0.583 1042.5879 91.396)" fill="#A478D6" font-family="'CrimsonText-Roman'" font-size="12">29 </text>
<text transform="matrix(1 0 0 1 1095.0889 94.8901)" fill="#A478D6" font-family="'CrimsonText-Roman'" font-size="12">150 seeds</text>
<text transform="matrix(0.583 0 0 0.583 1139.1162 90.894)" fill="#A478D6" font-family="'CrimsonText-Roman'" font-size="12">26 </text>
<text transform="matrix(1 0 0 1 7.2939 136.5996)" fill="#A478D6" font-family="'CrimsonText-Roman'" font-size="12">500 seeds</text>
<text transform="matrix(0.583 0 0 0.583 51.3213 132.6035)" fill="#A478D6" font-family="'CrimsonText-Roman'" font-size="12">26 </text>
<text transform="matrix(1 0 0 1 101.3428 136.5996)" fill="#A478D6" font-family="'CrimsonText-Roman'" font-size="12">100 seeds</text>
<text transform="matrix(0.583 0 0 0.583 145.3584 132.6035)" fill="#A478D6" font-family="'CrimsonText-Roman'" font-size="12">25 </text>
<text transform="matrix(1 0 0 1 195.3867 136.5996)" fill="#A478D6" font-family="'CrimsonText-Roman'" font-size="12">200 seeds</text>
<text transform="matrix(0.583 0 0 0.583 239.4023 132.6035)" fill="#A478D6" font-family="'CrimsonText-Roman'" font-size="12">25 </text>
<text transform="matrix(1 0 0 1 289.4302 136.5996)" fill="#A478D6" font-family="'CrimsonText-Roman'" font-size="12">extraction method</text>
<text transform="matrix(0.583 0 0 0.583 375.7388 132.6035)" fill="#A478D6" font-family="'CrimsonText-Roman'" font-size="12">25 </text>
<text transform="matrix(1 0 0 1 425.7671 136.5996)" fill="#A478D6" font-family="'CrimsonText-Roman'" font-size="12">ground seeds</text>
<text transform="matrix(0.583 0 0 0.583 486.9971 132.6035)" fill="#A478D6" font-family="'CrimsonText-Roman'" font-size="12">25 </text>
<text transform="matrix(1 0 0 1 537.0254 136.5996)" fill="#A478D6" font-family="'CrimsonText-Roman'" font-size="12">paper towel</text>
<text transform="matrix(0.583 0 0 0.583 592.373 132.6035)" fill="#A478D6" font-family="'CrimsonText-Roman'" font-size="12">24 </text>
<text transform="matrix(1 0 0 1 642.3809 136.5996)" fill="#A478D6" font-family="'CrimsonText-Roman'" font-size="12">extraction process</text>
<text transform="matrix(0.583 0 0 0.583 727.2012 132.6035)" fill="#A478D6" font-family="'CrimsonText-Roman'" font-size="12">23 </text>
<text transform="matrix(1 0 0 1 777.2285 136.5996)" fill="#A478D6" font-family="'CrimsonText-Roman'" font-size="12">seed mush</text>
<text transform="matrix(0.583 0 0 0.583 825.873 132.6035)" fill="#A478D6" font-family="'CrimsonText-Roman'" font-size="12">23 </text>
<text transform="matrix(1 0 0 1 875.9014 136.6001)" fill="#A478D6" font-family="'CrimsonText-Roman'" font-size="12">pepper grinder</text>
<text transform="matrix(0.583 0 0 0.583 945.9209 132.604)" fill="#A478D6" font-family="'CrimsonText-Roman'" font-size="12">22 </text>
<text transform="matrix(1 0 0 1 995.9424 136.6001)" fill="#A478D6" font-family="'CrimsonText-Roman'" font-size="12">dish soap</text>
<text transform="matrix(0.583 0 0 0.583 1039.1494 132.604)" fill="#A478D6" font-family="'CrimsonText-Roman'" font-size="12">21 </text>
<text transform="matrix(1 0 0 1 1089.1709 136.6001)" fill="#A478D6" font-family="'CrimsonText-Roman'" font-size="12">leg cramps</text>
<text transform="matrix(0.583 0 0 0.583 1139.1162 132.604)" fill="#A478D6" font-family="'CrimsonText-Roman'" font-size="12">21 </text>
<text transform="matrix(1 0 0 1 7.2798 171.0918)" fill="#A478D6" font-family="'CrimsonText-Roman'" font-size="12">lighter fluid</text>
<text transform="matrix(0.583 0 0 0.583 62.4985 167.0957)" fill="#A478D6" font-family="'CrimsonText-Roman'" font-size="12">20 </text>
<text transform="matrix(1 0 0 1 108.1714 171.0918)" fill="#A478D6" font-family="'CrimsonText-Roman'" font-size="12">seed pulp</text>
<text transform="matrix(0.583 0 0 0.583 151.9409 167.0957)" fill="#A478D6" font-family="'CrimsonText-Roman'" font-size="12">20 </text>
<text transform="matrix(1 0 0 1 198.9614 171.0918)" fill="#A478D6" font-family="'CrimsonText-Roman'" font-size="12">400 seeds</text>
<text transform="matrix(0.583 0 0 0.583 242.9536 167.0957)" fill="#A478D6" font-family="'CrimsonText-Roman'" font-size="12">19 </text>
<text transform="matrix(1 0 0 1 293.1021 171.0918)" fill="#A478D6" font-family="'CrimsonText-Roman'" font-size="12">grocery store</text>
<text transform="matrix(0.583 0 0 0.583 354.6841 167.0957)" fill="#A478D6" font-family="'CrimsonText-Roman'" font-size="12">19 </text>
</svg>
