<?xml version="1.0" encoding="utf-8"?>
<!-- Generator: Adobe Illustrator 16.0.4, SVG Export Plug-In . SVG Version: 6.00 Build 0)  -->
<!DOCTYPE svg PUBLIC "-//W3C//DTD SVG 1.1//EN" "http://www.w3.org/Graphics/SVG/1.1/DTD/svg11.dtd">
<svg version="1.1"
	 id="Layer_1" xmlns:a3="http://ns.adobe.com/AdobeSVGViewerExtensions/3.0/" xmlns:text="http://xmlns.graougraou.com/svg/text/" a3:scriptImplementation="Adobe"
	 xmlns="http://www.w3.org/2000/svg" xmlns:xlink="http://www.w3.org/1999/xlink" x="0px" y="0px" width="1140px" height="407.89px"
	 viewBox="272 315.89 1140 407.89" enable-background="new 272 315.89 1140 407.89" xml:space="preserve">
<g>
	<text transform="matrix(1 0 0 1 272 386.9232)" fill="#A478D6" font-family="'CrimsonText-Roman'" font-size="95.4234">orange juice</text>
	<text transform="matrix(1 0 0 1 723.772 355.1473)" fill="#A478D6" font-family="'CrimsonText-Roman'" font-size="55.6319">181</text>
</g>
<g>
	<text transform="matrix(1 0 0 1 820.3657 386.5087)" fill="#A478D6" font-family="'CrimsonText-Roman'" font-size="64.6511">pink floyd</text>
	<text transform="matrix(1 0 0 1 1076.7588 364.9808)" fill="#A478D6" font-family="'CrimsonText-Roman'" font-size="37.6916">106</text>
</g>
<g>
	<text transform="matrix(1 0 0 1 1147.9141 386.5087)" fill="#A478D6" font-family="'CrimsonText-Roman'" font-size="59.4552">syrian rue</text>
	<text transform="matrix(1 0 0 1 1379.2334 366.7098)" fill="#A478D6" font-family="'CrimsonText-Roman'" font-size="34.6624">98</text>
</g>
<g>
	<text transform="matrix(1 0 0 1 272 469.39)" fill="#A478D6" font-family="'CrimsonText-Roman'" font-size="54.2593">peanut butter</text>
	<text transform="matrix(1 0 0 1 559.2471 451.3236)" fill="#A478D6" font-family="'CrimsonText-Roman'" font-size="31.6332">91 </text>
</g>
<g>
	<text transform="matrix(1 0 0 1 682.9775 469.392)" fill="#A478D6" font-family="'CrimsonText-Roman'" font-size="54.2593">psilocybe cubensis</text>
	<text transform="matrix(1 0 0 1 1069.6807 451.3236)" fill="#A478D6" font-family="'CrimsonText-Roman'" font-size="31.6332">89 </text>
</g>
<g>
	<text transform="matrix(1 0 0 1 1193.4121 468.765)" fill="#A478D6" font-family="'CrimsonText-Roman'" font-size="49.3714">ego death</text>
	<text transform="matrix(1 0 0 1 1378.4092 452.3236)" fill="#A478D6" font-family="'CrimsonText-Roman'" font-size="28.7836">84 </text>
</g>
<g>
	<text transform="matrix(1 0 0 1 272 539.5365)" fill="#A478D6" font-family="'CrimsonText-Roman'" font-size="44.1429">cell phone</text>
	<text transform="matrix(1 0 0 1 448.3125 524.8353)" fill="#A478D6" font-family="'CrimsonText-Roman'" font-size="25.7353">75 </text>
</g>
<g>
	<text transform="matrix(1 0 0 1 553.6426 538.2045)" fill="#A478D6" font-family="'CrimsonText-Roman'" font-size="28.4571">video games</text>
	<text transform="matrix(1 0 0 1 690.2041 528.7279)" fill="#A478D6" font-family="'CrimsonText-Roman'" font-size="16.5905">53 </text>
</g>
<g>
	<g>
		<text transform="matrix(1 0 0 1 784.8213 538.2045)" fill="#A478D6" font-family="'CrimsonText-Roman'" font-size="28.4571">laughing hysterically</text>
	</g>
	<text transform="matrix(1 0 0 1 1015.6191 528.8353)" fill="#A478D6" font-family="'CrimsonText-Roman'" font-size="16.5905">52 </text>
</g>
<g>
	<text transform="matrix(1 0 0 1 1110.2197 538.2045)" fill="#A478D6" font-family="'CrimsonText-Roman'" font-size="28.4571">holy shit</text>
	<text transform="matrix(1 0 0 1 1205.9844 528.7279)" fill="#A478D6" font-family="'CrimsonText-Roman'" font-size="16.5905">48 </text>
</g>
<g>
	<text transform="matrix(1 0 0 1 1300.5371 541.0052)" fill="#A478D6" font-family="'CrimsonText-Roman'" font-size="23.2285">gas station</text>
	<text transform="matrix(1 0 0 1 1396.1963 533.2689)" fill="#A478D6" font-family="'CrimsonText-Roman'" font-size="13.5422">46 </text>
</g>
<g>
	<text transform="matrix(1 0 0 1 272 602.6537)" fill="#A478D6" font-family="'CrimsonText-Roman'" font-size="23.2285">pitch black</text>
	<text transform="matrix(1 0 0 1 370.7749 596.6742)" fill="#A478D6" font-family="'CrimsonText-Roman'" font-size="13.5422">46</text>
	<text transform="matrix(1 0 0 1 380.5557 602.6537)" fill="#A478D6" font-family="'CrimsonText-Roman'" font-size="23.2285"> </text>
</g>
<g>
	<text transform="matrix(1 0 0 1 417.1411 602.6537)" fill="#A478D6" font-family="'CrimsonText-Roman'" font-size="23.2285">dance floor</text>
	<text transform="matrix(1 0 0 1 519.998 596.6742)" fill="#A478D6" font-family="'CrimsonText-Roman'" font-size="13.5422">43 </text>
</g>
<g>
	<text transform="matrix(1 0 0 1 567.2056 602.6537)" fill="#A478D6" font-family="'CrimsonText-Roman'" font-size="23.2285">thank god</text>
	
		<text transform="matrix(0.583 0 0 0.583 658.3052 594.9183)" fill="#A478D6" font-family="'CrimsonText-Roman'" font-size="23.2285">43 </text>
</g>
<g>
	<text transform="matrix(1 0 0 1 705.5127 602.6537)" fill="#A478D6" font-family="'CrimsonText-Roman'" font-size="23.2285">fetal position</text>
	<text transform="matrix(1 0 0 1 824.2197 594.9174)" fill="#A478D6" font-family="'CrimsonText-Roman'" font-size="13.5422">41 </text>
</g>
<g>
	<text transform="matrix(1 0 0 1 871.459 602.6537)" fill="#A478D6" font-family="'CrimsonText-Roman'" font-size="23.2285">video game</text>
	<text transform="matrix(1 0 0 1 976.9219 596.6742)" fill="#A478D6" font-family="'CrimsonText-Roman'" font-size="13.5422">41 </text>
</g>
<g>
	<text transform="matrix(1 0 0 1 1024.1172 602.6537)" fill="#A478D6" font-family="'CrimsonText-Roman'" font-size="23.2285">auditory hallucinations</text>
	<text transform="matrix(1 0 0 1 1233.8945 596.6742)" fill="#A478D6" font-family="'CrimsonText-Roman'" font-size="13.5422">40 </text>
</g>
<g>
	<text transform="matrix(1 0 0 1 1281.0889 602.6537)" fill="#A478D6" font-family="'CrimsonText-Roman'" font-size="23.2285">slow motion</text>
	<text transform="matrix(1 0 0 1 1397.0264 596.6742)" fill="#A478D6" font-family="'CrimsonText-Roman'" font-size="13.5422">40</text>
	<text transform="matrix(1 0 0 1 1406.8057 602.6537)" fill="#A478D6" font-family="'CrimsonText-Roman'" font-size="23.2285"> </text>
</g>
<g>
	<text transform="matrix(1 0 0 1 272 664.7806)" fill="#A478D6" font-family="'CrimsonText-Roman'" font-size="18">changing colors</text>
	<text transform="matrix(1 0 0 1 382.8301 658.7865)" fill="#A478D6" font-family="'CrimsonText-Roman'" font-size="10.494">39 </text>
</g>
<g>
	<text transform="matrix(1 0 0 1 456.3271 666.4183)" fill="#A478D6" font-family="'CrimsonText-Roman'" font-size="18">geometric patterns</text>
	<text transform="matrix(1 0 0 1 589.0312 661.7845)" fill="#A478D6" font-family="'CrimsonText-Roman'" font-size="10.494">39 </text>
</g>
<g>
	<text transform="matrix(1 0 0 1 662.5278 666.4183)" fill="#A478D6" font-family="'CrimsonText-Roman'" font-size="18">liberty caps</text>
	<text transform="matrix(1 0 0 1 742.0518 660.4232)" fill="#A478D6" font-family="'CrimsonText-Roman'" font-size="10.494">39 </text>
</g>
<g>
	<text transform="matrix(1 0 0 1 815.5483 666.4183)" fill="#A478D6" font-family="'CrimsonText-Roman'" font-size="18">peripheral vision</text>
	<text transform="matrix(1 0 0 1 935.9043 661.7845)" fill="#A478D6" font-family="'CrimsonText-Roman'" font-size="10.494">39 </text>
</g>
<g>
	<text transform="matrix(1 0 0 1 1009.4004 666.4183)" fill="#A478D6" font-family="'CrimsonText-Roman'" font-size="18">terence mckenna</text>
	<text transform="matrix(1 0 0 1 1131.3145 661.7845)" fill="#A478D6" font-family="'CrimsonText-Roman'" font-size="10.494">37 </text>
</g>
<g>
	<text transform="matrix(1 0 0 1 1204.8008 666.4183)" fill="#A478D6" font-family="'CrimsonText-Roman'" font-size="18">fresh air</text>
	<text transform="matrix(1 0 0 1 1265.5469 661.7845)" fill="#A478D6" font-family="'CrimsonText-Roman'" font-size="10.494">34 </text>
</g>
<g>
	<text transform="matrix(1 0 0 1 1339.0234 666.3197)" fill="#A478D6" font-family="'CrimsonText-Roman'" font-size="18">las vegas</text>
	<text transform="matrix(1 0 0 1 1399.7432 661.6869)" fill="#A478D6" font-family="'CrimsonText-Roman'" font-size="10.494">34 </text>
</g>
<g>
	<text transform="matrix(1 0 0 1 272 714.7777)" fill="#A478D6" font-family="'CrimsonText-Roman'" font-size="18">paying attention</text>
	<text transform="matrix(1 0 0 1 387.3652 708.7836)" fill="#A478D6" font-family="'CrimsonText-Roman'" font-size="10.494">33</text>
	<text transform="matrix(1 0 0 1 397.3066 714.7777)" fill="#A478D6" font-family="'CrimsonText-Roman'" font-size="18"> </text>
</g>
<g>
	<text transform="matrix(1 0 0 1 529.3564 714.7777)" fill="#A478D6" font-family="'CrimsonText-Roman'" font-size="18">roller coaster</text>
	<text transform="matrix(1 0 0 1 621.6768 708.7836)" fill="#A478D6" font-family="'CrimsonText-Roman'" font-size="10.494">33 </text>
</g>
<g>
	<text transform="matrix(1 0 0 1 761.9883 714.7777)" fill="#A478D6" font-family="'CrimsonText-Roman'" font-size="18">geometric shapes</text>
	<text transform="matrix(1 0 0 1 884.6426 710.1439)" fill="#A478D6" font-family="'CrimsonText-Roman'" font-size="10.494">32 </text>
</g>
<g>
	<text transform="matrix(1 0 0 1 1024.9443 714.7777)" fill="#A478D6" font-family="'CrimsonText-Roman'" font-size="18">salvia divinorum</text>
	<text transform="matrix(1 0 0 1 1143.1582 708.7836)" fill="#A478D6" font-family="'CrimsonText-Roman'" font-size="10.494">32 </text>
</g>
<g>
	<text transform="matrix(1 0 0 1 1283.459 714.7777)" fill="#A478D6" font-family="'CrimsonText-Roman'" font-size="18">computer screen</text>
	<text transform="matrix(1 0 0 1 1399.7227 710.1439)" fill="#A478D6" font-family="'CrimsonText-Roman'" font-size="10.494">31 </text>
</g>
</svg>
