<?xml version="1.0" encoding="utf-8"?>
<!-- Generator: Adobe Illustrator 16.0.4, SVG Export Plug-In . SVG Version: 6.00 Build 0)  -->
<!DOCTYPE svg PUBLIC "-//W3C//DTD SVG 1.1//EN" "http://www.w3.org/Graphics/SVG/1.1/DTD/svg11.dtd">
<svg version="1.1"
	 id="Layer_1" a3:scriptImplementation="Adobe" xmlns:text="http://xmlns.graougraou.com/svg/text/" xmlns:a3="http://ns.adobe.com/AdobeSVGViewerExtensions/3.0/"
	 xmlns="http://www.w3.org/2000/svg" xmlns:xlink="http://www.w3.org/1999/xlink" x="0px" y="0px" width="1140px" height="210px"
	 viewBox="7.294 0 1140 210" enable-background="new 7.294 0 1140 210" xml:space="preserve">
<text transform="matrix(1 0 0 1 7.2939 51.8999)" fill="#A478D6" font-family="'CrimsonText-Roman'" font-size="64.8396">orange juice</text>
<text transform="matrix(0.583 0 0 0.583 314.269 30.3081)" fill="#A478D6" font-family="'CrimsonText-Roman'" font-size="64.8396">181</text>
<text transform="matrix(1 0 0 1 426.8364 51.8999)" fill="#A478D6" font-family="'CrimsonText-Roman'" font-size="43.3714">pink floyd</text>
<text transform="matrix(0.583 0 0 0.583 598.8389 37.4575)" fill="#A478D6" font-family="'CrimsonText-Roman'" font-size="43.3714">106</text>
<text transform="matrix(1 0 0 1 693.6592 51.8999)" fill="#A478D6" font-family="'CrimsonText-Roman'" font-size="39.8857">syrian rue</text>
<text transform="matrix(0.583 0 0 0.583 848.8398 38.6177)" fill="#A478D6" font-family="'CrimsonText-Roman'" font-size="39.8857">98</text>
<text transform="matrix(1 0 0 1 929.7871 51.8999)" fill="#A478D6" font-family="'CrimsonText-Roman'" font-size="36.4">peanut butter</text>
<text transform="matrix(0.583 0 0 0.583 1122.4873 39.7788)" fill="#A478D6" font-family="'CrimsonText-Roman'" font-size="36.4">91 </text>
<text transform="matrix(1 0 0 1 7.2939 101.7998)" fill="#A478D6" font-family="'CrimsonText-Roman'" font-size="36.4">psilocybe cubensis</text>
<text transform="matrix(0.583 0 0 0.583 266.7148 89.6787)" fill="#A478D6" font-family="'CrimsonText-Roman'" font-size="36.4">89 </text>
<text transform="matrix(1 0 0 1 336.7725 101.7998)" fill="#A478D6" font-family="'CrimsonText-Roman'" font-size="32.9143">ego death</text>
<text transform="matrix(0.583 0 0 0.583 460.1045 90.8389)" fill="#A478D6" font-family="'CrimsonText-Roman'" font-size="32.9143">84 </text>
<text transform="matrix(1 0 0 1 527.749 101.7998)" fill="#A478D6" font-family="'CrimsonText-Roman'" font-size="29.4286">cell phone</text>
<text transform="matrix(0.583 0 0 0.583 645.291 92)" fill="#A478D6" font-family="'CrimsonText-Roman'" font-size="29.4286">75 </text>
<text transform="matrix(1 0 0 1 710.6357 101.7998)" fill="#A478D6" font-family="'CrimsonText-Roman'" font-size="18.9714">video games</text>
<text transform="matrix(0.583 0 0 0.583 801.6768 95.4824)" fill="#A478D6" font-family="'CrimsonText-Roman'" font-size="18.9714">53 </text>
<text transform="matrix(1 0 0 1 859.8779 101.7998)" fill="#A478D6" font-family="'CrimsonText-Roman'" font-size="18.9714">laughing hysterically</text>
<text transform="matrix(0.583 0 0 0.583 1012.3535 95.4824)" fill="#A478D6" font-family="'CrimsonText-Roman'" font-size="18.9714">52 </text>
<text transform="matrix(1 0 0 1 1070.5439 101.7998)" fill="#A478D6" font-family="'CrimsonText-Roman'" font-size="18.9714">holy shit</text>
<text transform="matrix(0.583 0 0 0.583 1134.3867 95.4824)" fill="#A478D6" font-family="'CrimsonText-Roman'" font-size="18.9714">48 </text>
<text transform="matrix(1 0 0 1 7.2939 143.7432)" fill="#A478D6" font-family="'CrimsonText-Roman'" font-size="15.4857">gas station</text>
<text transform="matrix(0.583 0 0 0.583 71.0664 138.5859)" fill="#A478D6" font-family="'CrimsonText-Roman'" font-size="15.4857">46 </text>
<text transform="matrix(1 0 0 1 124.3784 143.7432)" fill="#A478D6" font-family="'CrimsonText-Roman'" font-size="15.4857">pitch black</text>
<text transform="matrix(0.583 0 0 0.583 189.8901 138.5859)" fill="#A478D6" font-family="'CrimsonText-Roman'" font-size="15.4857">46</text>
<text transform="matrix(1 0 0 1 198.4067 143.7432)" fill="#A478D6" font-family="'CrimsonText-Roman'" font-size="15.4857"> </text>
<text transform="matrix(1 0 0 1 244.6455 143.7432)" fill="#A478D6" font-family="'CrimsonText-Roman'" font-size="15.4857">dance floor</text>
<text transform="matrix(0.583 0 0 0.583 312.3804 138.5859)" fill="#A478D6" font-family="'CrimsonText-Roman'" font-size="15.4857">43 </text>
<text transform="matrix(1 0 0 1 365.7017 143.7432)" fill="#A478D6" font-family="'CrimsonText-Roman'" font-size="15.4857">thank god43 </text>
<text transform="matrix(1 0 0 1 487.2974 143.7432)" fill="#A478D6" font-family="'CrimsonText-Roman'" font-size="15.4857">fetal position</text>
<text transform="matrix(0.583 0 0 0.583 566.4351 138.5859)" fill="#A478D6" font-family="'CrimsonText-Roman'" font-size="15.4857">41 </text>
<text transform="matrix(1 0 0 1 619.7783 143.7432)" fill="#A478D6" font-family="'CrimsonText-Roman'" font-size="15.4857">video game</text>
<text transform="matrix(0.583 0 0 0.583 688.6621 138.5859)" fill="#A478D6" font-family="'CrimsonText-Roman'" font-size="15.4857">41 </text>
<text transform="matrix(1 0 0 1 741.9736 142.6738)" fill="#A478D6" font-family="'CrimsonText-Roman'" font-size="15.4857">auditory hallucinations</text>
<text transform="matrix(0.583 0 0 0.583 881.1025 137.5166)" fill="#A478D6" font-family="'CrimsonText-Roman'" font-size="15.4857">40 </text>
<text transform="matrix(1 0 0 1 934.4141 142.6738)" fill="#A478D6" font-family="'CrimsonText-Roman'" font-size="15.4857">slow motion</text>
<text transform="matrix(0.583 0 0 0.583 1010.4668 137.5166)" fill="#A478D6" font-family="'CrimsonText-Roman'" font-size="15.4857">40</text>
<text transform="matrix(1 0 0 1 1018.9834 142.6738)" fill="#A478D6" font-family="'CrimsonText-Roman'" font-size="15.4857"> </text>
<text transform="matrix(1 0 0 1 1065.2227 142.5264)" fill="#A478D6" font-family="'CrimsonText-Roman'" font-size="12">changing colors</text>
<text transform="matrix(0.583 0 0 0.583 1139.1094 138.5303)" fill="#A478D6" font-family="'CrimsonText-Roman'" font-size="12">39 </text>
<text transform="matrix(1 0 0 1 7.2939 177)" fill="#A478D6" font-family="'CrimsonText-Roman'" font-size="12">geometric patterns</text>
<text transform="matrix(0.583 0 0 0.583 95.3604 173.0039)" fill="#A478D6" font-family="'CrimsonText-Roman'" font-size="12">39 </text>
<text transform="matrix(1 0 0 1 132.9575 177)" fill="#A478D6" font-family="'CrimsonText-Roman'" font-size="12">liberty caps</text>
<text transform="matrix(0.583 0 0 0.583 185.9731 173.0039)" fill="#A478D6" font-family="'CrimsonText-Roman'" font-size="12">39 </text>
<text transform="matrix(1 0 0 1 223.5703 177)" fill="#A478D6" font-family="'CrimsonText-Roman'" font-size="12">peripheral vision</text>
<text transform="matrix(0.583 0 0 0.583 303.1055 173.0039)" fill="#A478D6" font-family="'CrimsonText-Roman'" font-size="12">39 </text>
<text transform="matrix(1 0 0 1 340.7026 177)" fill="#A478D6" font-family="'CrimsonText-Roman'" font-size="12">terence mckenna</text>
<text transform="matrix(0.583 0 0 0.583 420.4019 173.0039)" fill="#A478D6" font-family="'CrimsonText-Roman'" font-size="12">37 </text>
<text transform="matrix(1 0 0 1 457.9917 177)" fill="#A478D6" font-family="'CrimsonText-Roman'" font-size="12">fresh air</text>
<text transform="matrix(0.583 0 0 0.583 496.6753 173.0039)" fill="#A478D6" font-family="'CrimsonText-Roman'" font-size="12">34 </text>
<text transform="matrix(1 0 0 1 534.2588 176.9014)" fill="#A478D6" font-family="'CrimsonText-Roman'" font-size="12">las vegas</text>
<text transform="matrix(0.583 0 0 0.583 574.583 172.9053)" fill="#A478D6" font-family="'CrimsonText-Roman'" font-size="12">34 </text>
<text transform="matrix(1 0 0 1 612.167 176.9014)" fill="#A478D6" font-family="'CrimsonText-Roman'" font-size="12">paying attention</text>
<text transform="matrix(0.583 0 0 0.583 689.0771 172.9053)" fill="#A478D6" font-family="'CrimsonText-Roman'" font-size="12">33</text>
<text transform="matrix(1 0 0 1 695.7041 176.9014)" fill="#A478D6" font-family="'CrimsonText-Roman'" font-size="12"> </text>
<text transform="matrix(1 0 0 1 727.7998 176.9014)" fill="#A478D6" font-family="'CrimsonText-Roman'" font-size="12">roller coaster</text>
<text transform="matrix(0.583 0 0 0.583 789.3467 172.9053)" fill="#A478D6" font-family="'CrimsonText-Roman'" font-size="12">33 </text>
<text transform="matrix(1 0 0 1 826.9502 176.9014)" fill="#A478D6" font-family="'CrimsonText-Roman'" font-size="12">geometric shapes</text>
<text transform="matrix(0.583 0 0 0.583 907.2588 172.9053)" fill="#A478D6" font-family="'CrimsonText-Roman'" font-size="12">32 </text>
<text transform="matrix(1 0 0 1 944.8564 176.9014)" fill="#A478D6" font-family="'CrimsonText-Roman'" font-size="12">salvia divinorum</text>
<text transform="matrix(0.583 0 0 0.583 1023.665 172.9053)" fill="#A478D6" font-family="'CrimsonText-Roman'" font-size="12">32 </text>
<text transform="matrix(1 0 0 1 1061.2617 176.9014)" fill="#A478D6" font-family="'CrimsonText-Roman'" font-size="12">computer screen</text>
<text transform="matrix(0.583 0 0 0.583 1139.1094 172.9053)" fill="#A478D6" font-family="'CrimsonText-Roman'" font-size="12">31 </text>
</svg>
