<?xml version="1.0" encoding="utf-8"?>
<!-- Generator: Adobe Illustrator 16.0.4, SVG Export Plug-In . SVG Version: 6.00 Build 0)  -->
<!DOCTYPE svg PUBLIC "-//W3C//DTD SVG 1.1//EN" "http://www.w3.org/Graphics/SVG/1.1/DTD/svg11.dtd">
<svg version="1.1"
	 id="Layer_1" a3:scriptImplementation="Adobe" xmlns:text="http://xmlns.graougraou.com/svg/text/" xmlns:a3="http://ns.adobe.com/AdobeSVGViewerExtensions/3.0/"
	 xmlns="http://www.w3.org/2000/svg" xmlns:xlink="http://www.w3.org/1999/xlink" x="0px" y="0px" width="1140px" height="190px"
	 viewBox="7.294 0 1140 190" enable-background="new 7.294 0 1140 190" xml:space="preserve">
<text transform="matrix(1 0 0 1 7.2939 51.9004)" fill="#A478D6" font-family="'CrimsonText-Roman'" font-size="64.8396">whipped cream</text>
<text transform="matrix(0.583 0 0 0.583 396.6484 30.3086)" fill="#A478D6" font-family="'CrimsonText-Roman'" font-size="64.8396">61 </text>
<text transform="matrix(1 0 0 1 480.5791 51.9009)" fill="#A478D6" font-family="'CrimsonText-Roman'" font-size="26.4">laughing gas</text>
<text transform="matrix(0.583 0 0 0.583 608.6084 43.1099)" fill="#A478D6" font-family="'CrimsonText-Roman'" font-size="26.4">23 </text>
<text transform="matrix(1 0 0 1 666.3584 51.9004)" fill="#A478D6" font-family="'CrimsonText-Roman'" font-size="26.4">pink floyd</text>
<text transform="matrix(0.583 0 0 0.583 771.0557 43.1094)" fill="#A478D6" font-family="'CrimsonText-Roman'" font-size="26.4">22 </text>
<text transform="matrix(1 0 0 1 828.791 51.9014)" fill="#A478D6" font-family="'CrimsonText-Roman'" font-size="22.8">dependent arising</text>
<text transform="matrix(0.583 0 0 0.583 987.79 44.3086)" fill="#A478D6" font-family="'CrimsonText-Roman'" font-size="22.8">20 </text>
<text transform="matrix(1 0 0 1 1043.0713 51.2368)" fill="#A478D6" font-family="'CrimsonText-Roman'" font-size="22.8">self denial</text>
<text transform="matrix(0.583 0 0 0.583 1131.7549 43.644)" fill="#A478D6" font-family="'CrimsonText-Roman'" font-size="22.8">20 </text>
<text transform="matrix(1 0 0 1 7.2939 101.7993)" fill="#A478D6" font-family="'CrimsonText-Roman'" font-size="22.8">pea soup</text>
<text transform="matrix(0.583 0 0 0.583 85.001 94.2065)" fill="#A478D6" font-family="'CrimsonText-Roman'" font-size="22.8">19 </text>
<text transform="matrix(1 0 0 1 129.0161 101.7988)" fill="#A478D6" font-family="'CrimsonText-Roman'" font-size="19.2">deep breaths</text>
<text transform="matrix(0.583 0 0 0.583 223.3662 95.4053)" fill="#A478D6" font-family="'CrimsonText-Roman'" font-size="19.2">17 </text>
<text transform="matrix(1 0 0 1 264.918 101.7983)" fill="#A478D6" font-family="'CrimsonText-Roman'" font-size="15.6">cream dispenser</text>
<text transform="matrix(0.583 0 0 0.583 363.1035 96.604)" fill="#A478D6" font-family="'CrimsonText-Roman'" font-size="15.6">13 </text>
<text transform="matrix(1 0 0 1 402.2212 101.7993)" fill="#A478D6" font-family="'CrimsonText-Roman'" font-size="15.6">whip cream</text>
<text transform="matrix(0.583 0 0 0.583 473.9907 96.605)" fill="#A478D6" font-family="'CrimsonText-Roman'" font-size="15.6">13 </text>
<text transform="matrix(1 0 0 1 513.1089 101.7979)" fill="#A478D6" font-family="'CrimsonText-Roman'" font-size="15.6">blotter acid</text>
<text transform="matrix(0.583 0 0 0.583 581.9834 96.6035)" fill="#A478D6" font-family="'CrimsonText-Roman'" font-size="15.6">12 </text>
<text transform="matrix(1 0 0 1 621.0918 101.7993)" fill="#A478D6" font-family="'CrimsonText-Roman'" font-size="15.6">consciousness expansion</text>
<text transform="matrix(0.583 0 0 0.583 771.1807 96.605)" fill="#A478D6" font-family="'CrimsonText-Roman'" font-size="15.6">12 </text>
<text transform="matrix(1 0 0 1 810.2891 101.8389)" fill="#A478D6" font-family="'CrimsonText-Roman'" font-size="15.6">nitrous balloon</text>
<text transform="matrix(0.583 0 0 0.583 903.3398 96.6445)" fill="#A478D6" font-family="'CrimsonText-Roman'" font-size="15.6">12 </text>
<text transform="matrix(1 0 0 1 942.4492 101.8389)" fill="#A478D6" font-family="'CrimsonText-Roman'" font-size="12">cell phone</text>
<text transform="matrix(0.583 0 0 0.583 990.3789 97.8428)" fill="#A478D6" font-family="'CrimsonText-Roman'" font-size="12">9 </text>
<text transform="matrix(1 0 0 1 1023.7266 101.8384)" fill="#A478D6" font-family="'CrimsonText-Roman'" font-size="12">ego death</text>
<text transform="matrix(0.583 0 0 0.583 1068.6914 97.8423)" fill="#A478D6" font-family="'CrimsonText-Roman'" font-size="12">9 </text>
<text transform="matrix(1 0 0 1 1102.04 102.0381)" fill="#A478D6" font-family="'CrimsonText-Roman'" font-size="12">holy shit</text>
<text transform="matrix(0.583 0 0 0.583 1142.4229 98.042)" fill="#A478D6" font-family="'CrimsonText-Roman'" font-size="12">9 </text>
<text transform="matrix(1 0 0 1 7.2939 142.5996)" fill="#A478D6" font-family="'CrimsonText-Roman'" font-size="12">laughing hysterically</text>
<text transform="matrix(0.583 0 0 0.583 103.7397 138.6035)" fill="#A478D6" font-family="'CrimsonText-Roman'" font-size="12">9</text>
<text transform="matrix(1 0 0 1 107.0464 142.5996)" fill="#A478D6" font-family="'CrimsonText-Roman'" font-size="12"> </text>
<text transform="matrix(1 0 0 1 148.6201 142.355)" fill="#A478D6" font-family="'CrimsonText-Roman'" font-size="12">peripheral vision</text>
<text transform="matrix(0.583 0 0 0.583 228.1553 138.3589)" fill="#A478D6" font-family="'CrimsonText-Roman'" font-size="12">9 </text>
<text transform="matrix(1 0 0 1 271.916 142.6001)" fill="#A478D6" font-family="'CrimsonText-Roman'" font-size="12">wisdom teeth</text>
<text transform="matrix(0.583 0 0 0.583 335.3848 138.604)" fill="#A478D6" font-family="'CrimsonText-Roman'" font-size="12">9 </text>
<text transform="matrix(1 0 0 1 379.146 142.6001)" fill="#A478D6" font-family="'CrimsonText-Roman'" font-size="12">altered states</text>
<text transform="matrix(0.583 0 0 0.583 439.5327 138.604)" fill="#A478D6" font-family="'CrimsonText-Roman'" font-size="12">8 </text>
<text transform="matrix(1 0 0 1 483.2935 142.6001)" fill="#A478D6" font-family="'CrimsonText-Roman'" font-size="12">entire universe</text>
<text transform="matrix(0.583 0 0 0.583 553.7935 138.604)" fill="#A478D6" font-family="'CrimsonText-Roman'" font-size="12">8 </text>
<text transform="matrix(1 0 0 1 597.5547 142.7383)" fill="#A478D6" font-family="'CrimsonText-Roman'" font-size="12">glory seeds</text>
<text transform="matrix(0.583 0 0 0.583 648.8008 138.7422)" fill="#A478D6" font-family="'CrimsonText-Roman'" font-size="12">8 </text>
<text transform="matrix(1 0 0 1 692.5615 142.7383)" fill="#A478D6" font-family="'CrimsonText-Roman'" font-size="12">hot tub</text>
<text transform="matrix(0.583 0 0 0.583 726.6982 138.7422)" fill="#A478D6" font-family="'CrimsonText-Roman'" font-size="12">8 </text>
<text transform="matrix(1 0 0 1 770.46 142.7383)" fill="#A478D6" font-family="'CrimsonText-Roman'" font-size="12">orange juice</text>
<text transform="matrix(0.583 0 0 0.583 827.2725 138.7422)" fill="#A478D6" font-family="'CrimsonText-Roman'" font-size="12">8</text>
<text transform="matrix(1 0 0 1 830.5791 142.7383)" fill="#A478D6" font-family="'CrimsonText-Roman'" font-size="12"> </text>
<text transform="matrix(1 0 0 1 872.1533 142.7383)" fill="#A478D6" font-family="'CrimsonText-Roman'" font-size="12">research chemicals</text>
<text transform="matrix(0.583 0 0 0.583 959.3174 138.7422)" fill="#A478D6" font-family="'CrimsonText-Roman'" font-size="12">8 </text>
<text transform="matrix(1 0 0 1 1003.0791 142.7383)" fill="#A478D6" font-family="'CrimsonText-Roman'" font-size="12">tantric sex</text>
<text transform="matrix(0.583 0 0 0.583 1051.5127 138.7422)" fill="#A478D6" font-family="'CrimsonText-Roman'" font-size="12">8 </text>
<text transform="matrix(1 0 0 1 1095.2734 142.7383)" fill="#A478D6" font-family="'CrimsonText-Roman'" font-size="12">black hole</text>
<text transform="matrix(0.583 0 0 0.583 1142.4297 138.7422)" fill="#A478D6" font-family="'CrimsonText-Roman'" font-size="12">7 </text>
<text transform="matrix(1 0 0 1 7.2939 176.9976)" fill="#A478D6" font-family="'CrimsonText-Roman'" font-size="12">bright green</text>
<text transform="matrix(0.583 0 0 0.583 65.3252 173.0015)" fill="#A478D6" font-family="'CrimsonText-Roman'" font-size="12">7 </text>
<text transform="matrix(1 0 0 1 104.6523 176.9976)" fill="#A478D6" font-family="'CrimsonText-Roman'" font-size="12">cluster headaches</text>
<text transform="matrix(0.583 0 0 0.583 185.6523 173.0015)" fill="#A478D6" font-family="'CrimsonText-Roman'" font-size="12">7</text>
<text transform="matrix(1 0 0 1 188.9521 176.9976)" fill="#A478D6" font-family="'CrimsonText-Roman'" font-size="12"> </text>
<text transform="matrix(1 0 0 1 235.5615 176.9976)" fill="#A478D6" font-family="'CrimsonText-Roman'" font-size="12">ego loss</text>
<text transform="matrix(0.583 0 0 0.583 272.1475 173.0015)" fill="#A478D6" font-family="'CrimsonText-Roman'" font-size="12">7</text>
<text transform="matrix(1 0 0 1 275.4473 176.9976)" fill="#A478D6" font-family="'CrimsonText-Roman'" font-size="12"> </text>
</svg>
