<?xml version="1.0" encoding="utf-8"?>
<!-- Generator: Adobe Illustrator 16.0.4, SVG Export Plug-In . SVG Version: 6.00 Build 0)  -->
<!DOCTYPE svg PUBLIC "-//W3C//DTD SVG 1.1//EN" "http://www.w3.org/Graphics/SVG/1.1/DTD/svg11.dtd">
<svg version="1.1"
	 id="Layer_1" xmlns:a3="http://ns.adobe.com/AdobeSVGViewerExtensions/3.0/" xmlns:text="http://xmlns.graougraou.com/svg/text/" a3:scriptImplementation="Adobe"
	 xmlns="http://www.w3.org/2000/svg" xmlns:xlink="http://www.w3.org/1999/xlink" x="0px" y="0px" width="1140px"
	 height="376.966px" viewBox="272 325.89 1140 376.966" enable-background="new 272 325.89 1140 376.966" xml:space="preserve">
<g>
	<text transform="matrix(1 0 0 1 272 396.391)" fill="#A478D6" font-family="'CrimsonText-Roman'" font-size="97.2594">whipped cream</text>
	<text transform="matrix(1 0 0 1 856.0322 364.0038)" fill="#A478D6" font-family="'CrimsonText-Roman'" font-size="56.7022">61 </text>
</g>
<g>
	<text transform="matrix(1 0 0 1 965.6133 397.6644)" fill="#A478D6" font-family="'CrimsonText-Roman'" font-size="39.6">laughing gas</text>
	<text transform="matrix(1 0 0 1 1157.6572 384.4784)" fill="#A478D6" font-family="'CrimsonText-Roman'" font-size="23.0868">23 </text>
</g>
<g>
	<text transform="matrix(1 0 0 1 1227.9668 397.6649)" fill="#A478D6" font-family="'CrimsonText-Roman'" font-size="39.6">pink floyd</text>
	<text transform="matrix(1 0 0 1 1385.0127 384.4779)" fill="#A478D6" font-family="'CrimsonText-Roman'" font-size="23.0868">22 </text>
</g>
<g>
	<text transform="matrix(1 0 0 1 272 479.39)" fill="#A478D6" font-family="'CrimsonText-Roman'" font-size="34.2">dependent arising</text>
	<text transform="matrix(1 0 0 1 510.5 468.0013)" fill="#A478D6" font-family="'CrimsonText-Roman'" font-size="19.9386">20 </text>
</g>
<g>
	<text transform="matrix(1 0 0 1 560.6064 478.726)" fill="#A478D6" font-family="'CrimsonText-Roman'" font-size="34.2">self denial</text>
	<text transform="matrix(1 0 0 1 693.6338 467.3363)" fill="#A478D6" font-family="'CrimsonText-Roman'" font-size="19.9386">20 </text>
</g>
<g>
	<text transform="matrix(1 0 0 1 743.7412 479.391)" fill="#A478D6" font-family="'CrimsonText-Roman'" font-size="34.2">pea soup</text>
	<text transform="matrix(1 0 0 1 860.3027 468.0013)" fill="#A478D6" font-family="'CrimsonText-Roman'" font-size="19.9386">19 </text>
</g>
<g>
	<text transform="matrix(1 0 0 1 910.4102 478.932)" fill="#A478D6" font-family="'CrimsonText-Roman'" font-size="28.8">deep breaths</text>
	<text transform="matrix(1 0 0 1 1051.9355 469.3412)" fill="#A478D6" font-family="'CrimsonText-Roman'" font-size="16.7904">17 </text>
</g>
<g>
	<text transform="matrix(1 0 0 1 1098.3457 478.473)" fill="#A478D6" font-family="'CrimsonText-Roman'" font-size="23.4">cream dispenser</text>
	<text transform="matrix(1 0 0 1 1245.625 470.681)" fill="#A478D6" font-family="'CrimsonText-Roman'" font-size="13.6422">13 </text>
</g>
<g>
	<text transform="matrix(1 0 0 1 1288.3848 478.474)" fill="#A478D6" font-family="'CrimsonText-Roman'" font-size="23.4">whip cream</text>
	<text transform="matrix(1 0 0 1 1396.0391 470.683)" fill="#A478D6" font-family="'CrimsonText-Roman'" font-size="13.6422">13 </text>
</g>
<g>
	<text transform="matrix(1 0 0 1 272 544.6283)" fill="#A478D6" font-family="'CrimsonText-Roman'" font-size="23.4">blotter acid</text>
	<text transform="matrix(1 0 0 1 375.3115 536.8353)" fill="#A478D6" font-family="'CrimsonText-Roman'" font-size="13.6422">12 </text>
</g>
<g>
	<text transform="matrix(1 0 0 1 433.4951 544.6371)" fill="#A478D6" font-family="'CrimsonText-Roman'" font-size="23.4">consciousness expansion</text>
	<text transform="matrix(1 0 0 1 657.8833 538.6146)" fill="#A478D6" font-family="'CrimsonText-Roman'" font-size="13.6422">12 </text>
</g>
<g>
	<text transform="matrix(1 0 0 1 716.0669 544.6771)" fill="#A478D6" font-family="'CrimsonText-Roman'" font-size="23.4">nitrous balloon</text>
	<text transform="matrix(1 0 0 1 855.6426 536.8842)" fill="#A478D6" font-family="'CrimsonText-Roman'" font-size="13.6422">12 </text>
</g>
<g>
	<text transform="matrix(1 0 0 1 913.8262 544.2181)" fill="#A478D6" font-family="'CrimsonText-Roman'" font-size="18">cell phone</text>
	<text transform="matrix(1 0 0 1 985.7207 538.223)" fill="#A478D6" font-family="'CrimsonText-Roman'" font-size="10.494">9 </text>
</g>
<g>
	<text transform="matrix(1 0 0 1 1035.2637 544.2181)" fill="#A478D6" font-family="'CrimsonText-Roman'" font-size="18">ego death</text>
	<text transform="matrix(1 0 0 1 1102.7109 538.223)" fill="#A478D6" font-family="'CrimsonText-Roman'" font-size="10.494">9 </text>
</g>
<g>
	<text transform="matrix(1 0 0 1 1152.2539 544.4174)" fill="#A478D6" font-family="'CrimsonText-Roman'" font-size="18">holy shit</text>
	<text transform="matrix(1 0 0 1 1212.8281 538.4213)" fill="#A478D6" font-family="'CrimsonText-Roman'" font-size="10.494">9 </text>
</g>
<g>
	<text transform="matrix(1 0 0 1 1262.3711 543.8998)" fill="#A478D6" font-family="'CrimsonText-Roman'" font-size="18">laughing hysterically</text>
	<text transform="matrix(1 0 0 1 1407.04 537.9047)" fill="#A478D6" font-family="'CrimsonText-Roman'" font-size="10.494">9</text>
</g>
<g>
	<text transform="matrix(1 0 0 1 272 610.8197)" fill="#A478D6" font-family="'CrimsonText-Roman'" font-size="18">peripheral vision</text>
	<text transform="matrix(1 0 0 1 391.3022 604.8275)" fill="#A478D6" font-family="'CrimsonText-Roman'" font-size="10.494">9 </text>
</g>
<g>
	<text transform="matrix(1 0 0 1 429.1118 611.3197)" fill="#A478D6" font-family="'CrimsonText-Roman'" font-size="18">wisdom teeth</text>
	<text transform="matrix(1 0 0 1 524.3159 605.3246)" fill="#A478D6" font-family="'CrimsonText-Roman'" font-size="10.494">9 </text>
</g>
<g>
	<text transform="matrix(1 0 0 1 562.1265 611.3197)" fill="#A478D6" font-family="'CrimsonText-Roman'" font-size="18">altered states</text>
	<text transform="matrix(1 0 0 1 652.7061 605.3246)" fill="#A478D6" font-family="'CrimsonText-Roman'" font-size="10.494">8 </text>
</g>
<g>
	<text transform="matrix(1 0 0 1 690.5166 611.3197)" fill="#A478D6" font-family="'CrimsonText-Roman'" font-size="18">entire universe</text>
	<text transform="matrix(1 0 0 1 796.2656 605.3246)" fill="#A478D6" font-family="'CrimsonText-Roman'" font-size="10.494">8 </text>
</g>
<g>
	<text transform="matrix(1 0 0 1 834.0757 611.4564)" fill="#A478D6" font-family="'CrimsonText-Roman'" font-size="18">glory seeds</text>
	<text transform="matrix(1 0 0 1 910.9453 605.4623)" fill="#A478D6" font-family="'CrimsonText-Roman'" font-size="10.494">8 </text>
</g>
<g>
	<text transform="matrix(1 0 0 1 948.7559 611.4564)" fill="#A478D6" font-family="'CrimsonText-Roman'" font-size="18">hot tub</text>
	<text transform="matrix(1 0 0 1 1000.209 606.8236)" fill="#A478D6" font-family="'CrimsonText-Roman'" font-size="10.494">8 </text>
</g>
<g>
	<text transform="matrix(1 0 0 1 1038.0195 611.4564)" fill="#A478D6" font-family="'CrimsonText-Roman'" font-size="18">orange juice</text>
	<text transform="matrix(1 0 0 1 1123.2373 605.4623)" fill="#A478D6" font-family="'CrimsonText-Roman'" font-size="10.494">8</text>
	<text transform="matrix(1 0 0 1 1128.1973 611.4564)" fill="#A478D6" font-family="'CrimsonText-Roman'" font-size="18"> </text>
</g>
<g>
	<text transform="matrix(1 0 0 1 1162.7246 611.4564)" fill="#A478D6" font-family="'CrimsonText-Roman'" font-size="18">research chemicals</text>
	<text transform="matrix(1 0 0 1 1293.4727 605.4623)" fill="#A478D6" font-family="'CrimsonText-Roman'" font-size="10.494">8 </text>
</g>
<g>
	<text transform="matrix(1 0 0 1 1331.2822 611.4564)" fill="#A478D6" font-family="'CrimsonText-Roman'" font-size="18">tantric sex</text>
	<text transform="matrix(1 0 0 1 1404.6934 605.4613)" fill="#A478D6" font-family="'CrimsonText-Roman'" font-size="10.494">8 </text>
</g>
<g>
	<text transform="matrix(1 0 0 1 272 676.6683)" fill="#A478D6" font-family="'CrimsonText-Roman'" font-size="18">black hole</text>
	<text transform="matrix(1 0 0 1 342.7344 670.6732)" fill="#A478D6" font-family="'CrimsonText-Roman'" font-size="10.494">7 </text>
</g>
<g>
	<text transform="matrix(1 0 0 1 391.3018 676.7787)" fill="#A478D6" font-family="'CrimsonText-Roman'" font-size="18">bright green</text>
	<text transform="matrix(1 0 0 1 478.3496 670.7826)" fill="#A478D6" font-family="'CrimsonText-Roman'" font-size="10.494">7 </text>
</g>
<g>
	<text transform="matrix(1 0 0 1 524.3159 676.7787)" fill="#A478D6" font-family="'CrimsonText-Roman'" font-size="18">cluster headaches</text>
	<text transform="matrix(1 0 0 1 645.8164 670.7826)" fill="#A478D6" font-family="'CrimsonText-Roman'" font-size="10.494">7</text>
	<text transform="matrix(1 0 0 1 650.7656 676.7787)" fill="#A478D6" font-family="'CrimsonText-Roman'" font-size="18"> </text>
</g>
<g>
	<text transform="matrix(1 0 0 1 709.146 675.7787)" fill="#A478D6" font-family="'CrimsonText-Roman'" font-size="18">ego loss</text>
	<text transform="matrix(1 0 0 1 764.0249 669.7826)" fill="#A478D6" font-family="'CrimsonText-Roman'" font-size="10.494">7</text>
	<text transform="matrix(1 0 0 1 768.9746 675.7787)" fill="#A478D6" font-family="'CrimsonText-Roman'" font-size="18"> </text>
</g>
</svg>
