<?xml version="1.0" encoding="utf-8"?>
<!-- Generator: Adobe Illustrator 16.0.4, SVG Export Plug-In . SVG Version: 6.00 Build 0)  -->
<!DOCTYPE svg PUBLIC "-//W3C//DTD SVG 1.1//EN" "http://www.w3.org/Graphics/SVG/1.1/DTD/svg11.dtd">
<svg version="1.1"
	 id="Layer_1" xmlns:a3="http://ns.adobe.com/AdobeSVGViewerExtensions/3.0/" xmlns:text="http://xmlns.graougraou.com/svg/text/" a3:scriptImplementation="Adobe"
	 xmlns="http://www.w3.org/2000/svg" xmlns:xlink="http://www.w3.org/1999/xlink" x="0px" y="0px" width="1140px" height="362.89px"
	 viewBox="272 322.89 1140 362.89" enable-background="new 272 322.89 1140 362.89" xml:space="preserve">
<g>
	<text transform="matrix(1 0 0 1 272 394.1898)" fill="#FC1325" font-family="'CrimsonText-Roman'" font-size="94.5055">ground nutmeg</text>
	<text transform="matrix(1 0 0 1 846.7852 362.7181)" fill="#FC1325" font-family="'CrimsonText-Roman'" font-size="55.0967">77 </text>
</g>
<g>
	<text transform="matrix(1 0 0 1 922.4531 393.3905)" fill="#FC1325" font-family="'CrimsonText-Roman'" font-size="49.3714">dry mouth</text>
	<text transform="matrix(1 0 0 1 1126.4473 376.9491)" fill="#FC1325" font-family="'CrimsonText-Roman'" font-size="28.7836">37 </text>
</g>
<g>
	<text transform="matrix(1 0 0 1 1178.4629 393.3905)" fill="#FC1325" font-family="'CrimsonText-Roman'" font-size="38.9143">term memory</text>
	<text transform="matrix(1 0 0 1 1388.502 380.431)" fill="#FC1325" font-family="'CrimsonText-Roman'" font-size="22.6871">27 </text>
</g>
<g>
	<text transform="matrix(1 0 0 1 272 476.391)" fill="#FC1325" font-family="'CrimsonText-Roman'" font-size="33.6856">nutmeg tea</text>
	<text transform="matrix(1 0 0 1 419.1768 465.1742)" fill="#FC1325" font-family="'CrimsonText-Roman'" font-size="19.6387">24 </text>
</g>
<g>
	<text transform="matrix(1 0 0 1 469.4199 476.391)" fill="#FC1325" font-family="'CrimsonText-Roman'" font-size="33.6856">ice cream</text>
	<text transform="matrix(1 0 0 1 594.9668 467.7211)" fill="#FC1325" font-family="'CrimsonText-Roman'" font-size="19.6387">23 </text>
</g>
<g>
	<text transform="matrix(1 0 0 1 645.2686 476.39)" fill="#FC1325" font-family="'CrimsonText-Roman'" font-size="33.6856">orange juice</text>
	<text transform="matrix(1 0 0 1 804.7495 465.1742)" fill="#FC1325" font-family="'CrimsonText-Roman'" font-size="19.6387">22 </text>
</g>
<g>
	<text transform="matrix(1 0 0 1 855.0312 476.39)" fill="#FC1325" font-family="'CrimsonText-Roman'" font-size="33.6856">short term</text>
	<text transform="matrix(1 0 0 1 994.709 465.1742)" fill="#FC1325" font-family="'CrimsonText-Roman'" font-size="19.6387">21 </text>
</g>
<g>
	<text transform="matrix(1 0 0 1 1044.9902 475.7015)" fill="#FC1325" font-family="'CrimsonText-Roman'" font-size="28.4571">nutmeg burps</text>
	<text transform="matrix(1 0 0 1 1199.8652 466.225)" fill="#FC1325" font-family="'CrimsonText-Roman'" font-size="16.5905">18 </text>
</g>
<g>
	<text transform="matrix(1 0 0 1 1246.585 475.7015)" fill="#FC1325" font-family="'CrimsonText-Roman'" font-size="28.4571">grocery store</text>
	<text transform="matrix(1 0 0 1 1392.623 466.225)" fill="#FC1325" font-family="'CrimsonText-Roman'" font-size="16.5905">17 </text>
</g>
<g>
	<text transform="matrix(1 0 0 1 272 540.7806)" fill="#FC1325" font-family="'CrimsonText-Roman'" font-size="23.2285">cotton mouth</text>
	<text transform="matrix(1 0 0 1 396.6719 533.0463)" fill="#FC1325" font-family="'CrimsonText-Roman'" font-size="13.5422">15 </text>
</g>
<g>
	<text transform="matrix(1 0 0 1 446.2119 540.7806)" fill="#FC1325" font-family="'CrimsonText-Roman'" font-size="23.2285">food store</text>
	<text transform="matrix(1 0 0 1 537.8564 533.0463)" fill="#FC1325" font-family="'CrimsonText-Roman'" font-size="13.5422">15 </text>
</g>
<g>
	<text transform="matrix(1 0 0 1 587.3975 540.7806)" fill="#FC1325" font-family="'CrimsonText-Roman'" font-size="23.2285">health food</text>
	<text transform="matrix(1 0 0 1 690.0439 533.0463)" fill="#FC1325" font-family="'CrimsonText-Roman'" font-size="13.5422">14 </text>
</g>
<g>
	<text transform="matrix(1 0 0 1 739.5439 541.6908)" fill="#FC1325" font-family="'CrimsonText-Roman'" font-size="23.2285">powdered nutmeg</text>
	<text transform="matrix(1 0 0 1 905.0469 533.9564)" fill="#FC1325" font-family="'CrimsonText-Roman'" font-size="13.5422">14 </text>
</g>
<g>
	<text transform="matrix(1 0 0 1 954.5479 541.6908)" fill="#FC1325" font-family="'CrimsonText-Roman'" font-size="23.2285">fresh nutmeg</text>
	<text transform="matrix(1 0 0 1 1074.9326 533.9564)" fill="#FC1325" font-family="'CrimsonText-Roman'" font-size="13.5422">13 </text>
</g>
<g>
	<text transform="matrix(1 0 0 1 1124.4717 541.6908)" fill="#FC1325" font-family="'CrimsonText-Roman'" font-size="23.2285">nutmeg powder</text>
	<text transform="matrix(1 0 0 1 1268.9473 533.9564)" fill="#FC1325" font-family="'CrimsonText-Roman'" font-size="13.5422">13 </text>
</g>
<g>
	<text transform="matrix(1 0 0 1 1318.4873 541.2474)" fill="#FC1325" font-family="'CrimsonText-Roman'" font-size="18">lemon juice</text>
	<text transform="matrix(1 0 0 1 1399.7334 535.2533)" fill="#FC1325" font-family="'CrimsonText-Roman'" font-size="10.494">11 </text>
</g>
<g>
	<text transform="matrix(1 0 0 1 272 607.8578)" fill="#FC1325" font-family="'CrimsonText-Roman'" font-size="18">coffee grinder</text>
	<text transform="matrix(1 0 0 1 370.0693 601.8627)" fill="#FC1325" font-family="'CrimsonText-Roman'" font-size="10.494">10 </text>
</g>
<g>
	<text transform="matrix(1 0 0 1 423.7666 607.8607)" fill="#FC1325" font-family="'CrimsonText-Roman'" font-size="18">heart rate</text>
	<text transform="matrix(1 0 0 1 491.4951 601.8666)" fill="#FC1325" font-family="'CrimsonText-Roman'" font-size="10.494">10 </text>
</g>
<g>
	<text transform="matrix(1 0 0 1 545.1914 607.8607)" fill="#FC1325" font-family="'CrimsonText-Roman'" font-size="18">nutmeg nuts</text>
	<text transform="matrix(1 0 0 1 633.7852 601.8666)" fill="#FC1325" font-family="'CrimsonText-Roman'" font-size="10.494">10 </text>
</g>
<g>
	<text transform="matrix(1 0 0 1 687.4819 607.8607)" fill="#FC1325" font-family="'CrimsonText-Roman'" font-size="18">cheese grater</text>
	<text transform="matrix(1 0 0 1 779.1343 601.8666)" fill="#FC1325" font-family="'CrimsonText-Roman'" font-size="10.494">9 </text>
</g>
<g>
	<text transform="matrix(1 0 0 1 827.8706 607.8607)" fill="#FC1325" font-family="'CrimsonText-Roman'" font-size="18">stay awake</text>
	<text transform="matrix(1 0 0 1 903.1934 601.8666)" fill="#FC1325" font-family="'CrimsonText-Roman'" font-size="10.494">9 </text>
</g>
<g>
	<text transform="matrix(1 0 0 1 951.9297 607.8627)" fill="#FC1325" font-family="'CrimsonText-Roman'" font-size="18">auditory hallucinations</text>
	<text transform="matrix(1 0 0 1 1113.6484 601.8695)" fill="#FC1325" font-family="'CrimsonText-Roman'" font-size="10.494">8 </text>
</g>
<g>
	<text transform="matrix(1 0 0 1 1162.3848 607.8627)" fill="#FC1325" font-family="'CrimsonText-Roman'" font-size="18">blood pressure</text>
	<text transform="matrix(1 0 0 1 1265.4277 601.8695)" fill="#FC1325" font-family="'CrimsonText-Roman'" font-size="10.494">8 </text>
</g>
<g>
	<text transform="matrix(1 0 0 1 1314.165 607.8627)" fill="#FC1325" font-family="'CrimsonText-Roman'" font-size="18">fresh ground</text>
	<text transform="matrix(1 0 0 1 1404.6934 601.8695)" fill="#FC1325" font-family="'CrimsonText-Roman'" font-size="10.494">8 </text>
</g>
<g>
	<text transform="matrix(1 0 0 1 272 672.7806)" fill="#FC1325" font-family="'CrimsonText-Roman'" font-size="18">heart attack</text>
	<text transform="matrix(1 0 0 1 354.2832 666.7875)" fill="#FC1325" font-family="'CrimsonText-Roman'" font-size="10.494">8</text>
	<text transform="matrix(1 0 0 1 359.2437 672.7806)" fill="#FC1325" font-family="'CrimsonText-Roman'" font-size="18"> </text>
</g>
<g>
	<text transform="matrix(1 0 0 1 400.4854 672.7806)" fill="#FC1325" font-family="'CrimsonText-Roman'" font-size="18">nutmeg oil</text>
	<text transform="matrix(1 0 0 1 476.7212 666.7875)" fill="#FC1325" font-family="'CrimsonText-Roman'" font-size="10.494">8 </text>
</g>
<g>
	<text transform="matrix(1 0 0 1 521.2446 672.7806)" fill="#FC1325" font-family="'CrimsonText-Roman'" font-size="18">regular basis</text>
	<text transform="matrix(1 0 0 1 609.0112 666.7875)" fill="#FC1325" font-family="'CrimsonText-Roman'" font-size="10.494">8 </text>
</g>
<g>
	<text transform="matrix(1 0 0 1 653.5347 672.7806)" fill="#FC1325" font-family="'CrimsonText-Roman'" font-size="18">space paste</text>
	<text transform="matrix(1 0 0 1 730.7729 666.7875)" fill="#FC1325" font-family="'CrimsonText-Roman'" font-size="10.494">8 </text>
</g>
<g>
	<text transform="matrix(1 0 0 1 775.2964 672.7806)" fill="#FC1325" font-family="'CrimsonText-Roman'" font-size="18">apple sauce</text>
	<text transform="matrix(1 0 0 1 854.2051 666.7875)" fill="#FC1325" font-family="'CrimsonText-Roman'" font-size="10.494">7 </text>
</g>
<g>
	<text transform="matrix(1 0 0 1 898.7188 672.7806)" fill="#FC1325" font-family="'CrimsonText-Roman'" font-size="18">ground stuff</text>
	<text transform="matrix(1 0 0 1 988.7031 668.1478)" fill="#FC1325" font-family="'CrimsonText-Roman'" font-size="10.494">7 </text>
</g>
</svg>
