<?xml version="1.0" encoding="utf-8"?>
<!-- Generator: Adobe Illustrator 16.0.4, SVG Export Plug-In . SVG Version: 6.00 Build 0)  -->
<!DOCTYPE svg PUBLIC "-//W3C//DTD SVG 1.1//EN" "http://www.w3.org/Graphics/SVG/1.1/DTD/svg11.dtd">
<svg version="1.1"
	 id="Layer_1" a3:scriptImplementation="Adobe" xmlns:a3="http://ns.adobe.com/AdobeSVGViewerExtensions/3.0/" xmlns:text="http://xmlns.graougraou.com/svg/text/"
	 xmlns="http://www.w3.org/2000/svg" xmlns:xlink="http://www.w3.org/1999/xlink" x="0px" y="0px" width="1140px" height="196px"
	 viewBox="14.588 307.329 1140 196" enable-background="new 14.588 307.329 1140 196" xml:space="preserve">
<text transform="matrix(1 0 0 1 14.5879 361.906)" fill="#FC1325" font-family="'CrimsonText-Roman'" font-size="64.8396">ground nutmeg</text>
<text transform="matrix(0.583 0 0 0.583 408.9443 340.3142)" fill="#FC1325" font-family="'CrimsonText-Roman'" font-size="64.8396">77 </text>
<text transform="matrix(1 0 0 1 496.5576 362.6394)" fill="#FC1325" font-family="'CrimsonText-Roman'" font-size="32.9143">dry mouth</text>
<text transform="matrix(0.583 0 0 0.583 632.5537 351.679)" fill="#FC1325" font-family="'CrimsonText-Roman'" font-size="32.9143">37 </text>
<text transform="matrix(1 0 0 1 698.4834 362.1501)" fill="#FC1325" font-family="'CrimsonText-Roman'" font-size="25.9429">term memory</text>
<text transform="matrix(0.583 0 0 0.583 838.5088 353.511)" fill="#FC1325" font-family="'CrimsonText-Roman'" font-size="25.9429">27 </text>
<text transform="matrix(1 0 0 1 899.6729 361.906)" fill="#FC1325" font-family="'CrimsonText-Roman'" font-size="22.4571">nutmeg tea</text>
<text transform="matrix(0.583 0 0 0.583 997.791 354.428)" fill="#FC1325" font-family="'CrimsonText-Roman'" font-size="22.4571">24 </text>
<text transform="matrix(1 0 0 1 1056.5693 361.906)" fill="#FC1325" font-family="'CrimsonText-Roman'" font-size="22.4571">ice cream</text>
<text transform="matrix(0.583 0 0 0.583 1139.2705 354.428)" fill="#FC1325" font-family="'CrimsonText-Roman'" font-size="22.4571">23 </text>
<text transform="matrix(1 0 0 1 14.5879 403.6208)" fill="#FC1325" font-family="'CrimsonText-Roman'" font-size="22.4571">orange juice</text>
<text transform="matrix(0.583 0 0 0.583 120.9082 396.1428)" fill="#FC1325" font-family="'CrimsonText-Roman'" font-size="22.4571">22 </text>
<text transform="matrix(1 0 0 1 209.4121 403.6208)" fill="#FC1325" font-family="'CrimsonText-Roman'" font-size="22.4571">short term</text>
<text transform="matrix(0.583 0 0 0.583 302.5303 396.1428)" fill="#FC1325" font-family="'CrimsonText-Roman'" font-size="22.4571">21 </text>
<text transform="matrix(1 0 0 1 391.0337 403.3752)" fill="#FC1325" font-family="'CrimsonText-Roman'" font-size="18.9714">nutmeg burps</text>
<text transform="matrix(0.583 0 0 0.583 494.2832 397.0579)" fill="#FC1325" font-family="'CrimsonText-Roman'" font-size="18.9714">18 </text>
<text transform="matrix(1 0 0 1 580.4111 403.3752)" fill="#FC1325" font-family="'CrimsonText-Roman'" font-size="18.9714">grocery store</text>
<text transform="matrix(0.583 0 0 0.583 677.7695 397.0579)" fill="#FC1325" font-family="'CrimsonText-Roman'" font-size="18.9714">17 </text>
<text transform="matrix(1 0 0 1 763.8877 403.1316)" fill="#FC1325" font-family="'CrimsonText-Roman'" font-size="15.4857">cotton mouth</text>
<text transform="matrix(0.583 0 0 0.583 847.002 397.9749)" fill="#FC1325" font-family="'CrimsonText-Roman'" font-size="15.4857">15 </text>
<text transform="matrix(1 0 0 1 930.7627 403.1316)" fill="#FC1325" font-family="'CrimsonText-Roman'" font-size="15.4857">food store</text>
<text transform="matrix(0.583 0 0 0.583 991.8584 397.9749)" fill="#FC1325" font-family="'CrimsonText-Roman'" font-size="15.4857">15 </text>
<text transform="matrix(1 0 0 1 1075.6211 403.1316)" fill="#FC1325" font-family="'CrimsonText-Roman'" font-size="15.4857">health food</text>
<text transform="matrix(0.583 0 0 0.583 1144.0518 397.9749)" fill="#FC1325" font-family="'CrimsonText-Roman'" font-size="15.4857">14 </text>
<text transform="matrix(1 0 0 1 14.5879 441.8293)" fill="#FC1325" font-family="'CrimsonText-Roman'" font-size="15.4857">powdered nutmeg</text>
<text transform="matrix(0.583 0 0 0.583 124.9233 436.6721)" fill="#FC1325" font-family="'CrimsonText-Roman'" font-size="15.4857">14 </text>
<text transform="matrix(1 0 0 1 190.9473 441.8293)" fill="#FC1325" font-family="'CrimsonText-Roman'" font-size="15.4857">fresh nutmeg</text>
<text transform="matrix(0.583 0 0 0.583 271.2036 436.6721)" fill="#FC1325" font-family="'CrimsonText-Roman'" font-size="15.4857">13 </text>
<text transform="matrix(1 0 0 1 337.2534 441.8293)" fill="#FC1325" font-family="'CrimsonText-Roman'" font-size="15.4857">nutmeg powder</text>
<text transform="matrix(0.583 0 0 0.583 433.5703 436.6721)" fill="#FC1325" font-family="'CrimsonText-Roman'" font-size="15.4857">13 </text>
<text transform="matrix(1 0 0 1 499.6201 441.8293)" fill="#FC1325" font-family="'CrimsonText-Roman'" font-size="12">lemon juice</text>
<text transform="matrix(0.583 0 0 0.583 553.7842 437.8333)" fill="#FC1325" font-family="'CrimsonText-Roman'" font-size="12">11 </text>
<text transform="matrix(1 0 0 1 617.4502 441.8293)" fill="#FC1325" font-family="'CrimsonText-Roman'" font-size="12">coffee grinder</text>
<text transform="matrix(0.583 0 0 0.583 682.8291 437.8333)" fill="#FC1325" font-family="'CrimsonText-Roman'" font-size="12">10 </text>
<text transform="matrix(1 0 0 1 746.4951 441.8293)" fill="#FC1325" font-family="'CrimsonText-Roman'" font-size="12">heart rate</text>
<text transform="matrix(0.583 0 0 0.583 791.6475 437.8333)" fill="#FC1325" font-family="'CrimsonText-Roman'" font-size="12">10 </text>
<text transform="matrix(1 0 0 1 855.3135 441.8293)" fill="#FC1325" font-family="'CrimsonText-Roman'" font-size="12">nutmeg nuts</text>
<text transform="matrix(0.583 0 0 0.583 914.376 437.8333)" fill="#FC1325" font-family="'CrimsonText-Roman'" font-size="12">10 </text>
<text transform="matrix(1 0 0 1 978.041 441.8293)" fill="#FC1325" font-family="'CrimsonText-Roman'" font-size="12">cheese grater</text>
<text transform="matrix(0.583 0 0 0.583 1039.1426 437.8333)" fill="#FC1325" font-family="'CrimsonText-Roman'" font-size="12">9 </text>
<text transform="matrix(1 0 0 1 1099.502 441.8293)" fill="#FC1325" font-family="'CrimsonText-Roman'" font-size="12">stay awake</text>
<text transform="matrix(0.583 0 0 0.583 1149.7168 437.8333)" fill="#FC1325" font-family="'CrimsonText-Roman'" font-size="12">9 </text>
<text transform="matrix(1 0 0 1 14.5879 480.8293)" fill="#FC1325" font-family="'CrimsonText-Roman'" font-size="12">auditory hallucinations</text>
<text transform="matrix(0.583 0 0 0.583 122.4004 476.8333)" fill="#FC1325" font-family="'CrimsonText-Roman'" font-size="12">8 </text>
<text transform="matrix(1 0 0 1 193.7705 480.8293)" fill="#FC1325" font-family="'CrimsonText-Roman'" font-size="12">blood pressure</text>
<text transform="matrix(0.583 0 0 0.583 262.4658 476.8333)" fill="#FC1325" font-family="'CrimsonText-Roman'" font-size="12">8 </text>
<text transform="matrix(1 0 0 1 333.8359 480.8293)" fill="#FC1325" font-family="'CrimsonText-Roman'" font-size="12">fresh ground</text>
<text transform="matrix(0.583 0 0 0.583 394.1875 476.8333)" fill="#FC1325" font-family="'CrimsonText-Roman'" font-size="12">8 </text>
<text transform="matrix(1 0 0 1 465.5576 480.8293)" fill="#FC1325" font-family="'CrimsonText-Roman'" font-size="12">heart attack</text>
<text transform="matrix(0.583 0 0 0.583 520.4131 476.8333)" fill="#FC1325" font-family="'CrimsonText-Roman'" font-size="12">8</text>
<text transform="matrix(1 0 0 1 523.7197 480.8293)" fill="#FC1325" font-family="'CrimsonText-Roman'" font-size="12"> </text>
<text transform="matrix(1 0 0 1 592.9023 480.8293)" fill="#FC1325" font-family="'CrimsonText-Roman'" font-size="12">nutmeg oil</text>
<text transform="matrix(0.583 0 0 0.583 643.7266 476.8333)" fill="#FC1325" font-family="'CrimsonText-Roman'" font-size="12">8 </text>
<text transform="matrix(1 0 0 1 715.0967 480.8293)" fill="#FC1325" font-family="'CrimsonText-Roman'" font-size="12">regular basis</text>
<text transform="matrix(0.583 0 0 0.583 773.6084 476.8333)" fill="#FC1325" font-family="'CrimsonText-Roman'" font-size="12">8 </text>
<text transform="matrix(1 0 0 1 844.9785 480.8293)" fill="#FC1325" font-family="'CrimsonText-Roman'" font-size="12">space paste</text>
<text transform="matrix(0.583 0 0 0.583 896.4707 476.8333)" fill="#FC1325" font-family="'CrimsonText-Roman'" font-size="12">8 </text>
<text transform="matrix(1 0 0 1 967.8408 480.8293)" fill="#FC1325" font-family="'CrimsonText-Roman'" font-size="12">apple sauce</text>
<text transform="matrix(0.583 0 0 0.583 1020.4463 476.8333)" fill="#FC1325" font-family="'CrimsonText-Roman'" font-size="12">7 </text>
<text transform="matrix(1 0 0 1 1091.8096 480.8293)" fill="#FC1325" font-family="'CrimsonText-Roman'" font-size="12">ground stuff</text>
<text transform="matrix(0.583 0 0 0.583 1149.7236 476.8333)" fill="#FC1325" font-family="'CrimsonText-Roman'" font-size="12">7 </text>
</svg>
