<?xml version="1.0" encoding="utf-8"?>
<!-- Generator: Adobe Illustrator 16.0.4, SVG Export Plug-In . SVG Version: 6.00 Build 0)  -->
<!DOCTYPE svg PUBLIC "-//W3C//DTD SVG 1.1//EN" "http://www.w3.org/Graphics/SVG/1.1/DTD/svg11.dtd">
<svg version="1.1"
	 id="Layer_1" xmlns:a3="http://ns.adobe.com/AdobeSVGViewerExtensions/3.0/" xmlns:text="http://xmlns.graougraou.com/svg/text/" a3:scriptImplementation="Adobe"
	 xmlns="http://www.w3.org/2000/svg" xmlns:xlink="http://www.w3.org/1999/xlink" x="0px" y="0px" width="1140px"
	 height="348.557px" viewBox="272 324.89 1140 348.557" enable-background="new 272 324.89 1140 348.557" xml:space="preserve">
<g>
	<text transform="matrix(1 0 0 1 272 395.3905)" fill="#30D49D" font-family="'CrimsonText-Roman'" font-size="49.3714">blood pressure</text>
	<text transform="matrix(1 0 0 1 554.6333 378.9501)" fill="#30D49D" font-family="'CrimsonText-Roman'" font-size="28.7836">14 </text>
</g>
<g>
	<text transform="matrix(1 0 0 1 652.3936 395.6161)" fill="#30D49D" font-family="'CrimsonText-Roman'" font-size="33.6858">mood lift</text>
	<text transform="matrix(1 0 0 1 773.4844 384.3988)" fill="#30D49D" font-family="'CrimsonText-Roman'" font-size="19.6388">9 </text>
</g>
<g>
	<text transform="matrix(1 0 0 1 851.3281 395.0238)" fill="#30D49D" font-family="'CrimsonText-Roman'" font-size="28.4571">choline duration</text>
	<text transform="matrix(1 0 0 1 1035.2988 385.5477)" fill="#30D49D" font-family="'CrimsonText-Roman'" font-size="16.5905">8 </text>
</g>
<g>
	<text transform="matrix(1 0 0 1 1111.0195 395.0238)" fill="#30D49D" font-family="'CrimsonText-Roman'" font-size="28.4571">ego death</text>
	<text transform="matrix(1 0 0 1 1217.6504 385.5477)" fill="#30D49D" font-family="'CrimsonText-Roman'" font-size="16.5905">8 </text>
</g>
<g>
	<text transform="matrix(1 0 0 1 1293.3721 395.0238)" fill="#30D49D" font-family="'CrimsonText-Roman'" font-size="28.4571">heart rate</text>
	<text transform="matrix(1 0 0 1 1400.4482 385.5477)" fill="#30D49D" font-family="'CrimsonText-Roman'" font-size="16.5905">8 </text>
</g>
<g>
	<text transform="matrix(1 0 0 1 272 464.391)" fill="#30D49D" font-family="'CrimsonText-Roman'" font-size="28.4571">choline bitartrate</text>
	<text transform="matrix(1 0 0 1 464.1113 454.9135)" fill="#30D49D" font-family="'CrimsonText-Roman'" font-size="16.5905">7 </text>
</g>
<g>
	<text transform="matrix(1 0 0 1 497.8027 464.391)" fill="#30D49D" font-family="'CrimsonText-Roman'" font-size="28.4571">rabbit hole</text>
	<text transform="matrix(1 0 0 1 618.2441 454.9154)" fill="#30D49D" font-family="'CrimsonText-Roman'" font-size="16.5905">7 </text>
</g>
<g>
	<text transform="matrix(1 0 0 1 651.9355 464.6498)" fill="#30D49D" font-family="'CrimsonText-Roman'" font-size="23.2287">800mg piracetam</text>
	<text transform="matrix(1 0 0 1 808.6831 456.9144)" fill="#30D49D" font-family="'CrimsonText-Roman'" font-size="13.5423">6 </text>
</g>
<g>
	<text transform="matrix(1 0 0 1 840.2681 464.6498)" fill="#30D49D" font-family="'CrimsonText-Roman'" font-size="23.2287">energy drink</text>
	<text transform="matrix(1 0 0 1 956.5254 456.9144)" fill="#30D49D" font-family="'CrimsonText-Roman'" font-size="13.5423">6</text>
</g>
<g>
	<text transform="matrix(1 0 0 1 985.0811 464.6498)" fill="#30D49D" font-family="'CrimsonText-Roman'" font-size="23.2287">pilot mountain</text>
	<text transform="matrix(1 0 0 1 1121.2549 456.9144)" fill="#30D49D" font-family="'CrimsonText-Roman'" font-size="13.5423">6</text>
</g>
<g>
	<text transform="matrix(1 0 0 1 1149.8115 465.2582)" fill="#30D49D" font-family="'CrimsonText-Roman'" font-size="23.2287">salvia divinorum</text>
	<text transform="matrix(1 0 0 1 1302.3623 457.5228)" fill="#30D49D" font-family="'CrimsonText-Roman'" font-size="13.5423">6 </text>
</g>
<g>
	<text transform="matrix(1 0 0 1 1333.9473 464.6664)" fill="#30D49D" font-family="'CrimsonText-Roman'" font-size="18">black hole</text>
	<text transform="matrix(1 0 0 1 1404.6816 458.6722)" fill="#30D49D" font-family="'CrimsonText-Roman'" font-size="10.494">5 </text>
</g>
<g>
	<text transform="matrix(1 0 0 1 272 529.5599)" fill="#30D49D" font-family="'CrimsonText-Roman'" font-size="18">color enhancement</text>
	<text transform="matrix(1 0 0 1 406.9297 523.5658)" fill="#30D49D" font-family="'CrimsonText-Roman'" font-size="10.494">5 </text>
</g>
<g>
	<text transform="matrix(1 0 0 1 449.2617 529.5599)" fill="#30D49D" font-family="'CrimsonText-Roman'" font-size="18">jaw clenching</text>
	<text transform="matrix(1 0 0 1 545.4854 523.5658)" fill="#30D49D" font-family="'CrimsonText-Roman'" font-size="10.494">5</text>
</g>
<g>
	<text transform="matrix(1 0 0 1 585.0303 529.5599)" fill="#30D49D" font-family="'CrimsonText-Roman'" font-size="18">lipoic acid</text>
	<text transform="matrix(1 0 0 1 656.0127 523.5658)" fill="#30D49D" font-family="'CrimsonText-Roman'" font-size="10.494">5 </text>
</g>
<g>
	<text transform="matrix(1 0 0 1 697.9043 529.5599)" fill="#30D49D" font-family="'CrimsonText-Roman'" font-size="18">pay attention</text>
	<text transform="matrix(1 0 0 1 790.665 523.5658)" fill="#30D49D" font-family="'CrimsonText-Roman'" font-size="10.494">5 </text>
</g>
<g>
	<text transform="matrix(1 0 0 1 832.5571 529.7777)" fill="#30D49D" font-family="'CrimsonText-Roman'" font-size="18">blood sugar</text>
	<text transform="matrix(1 0 0 1 914.2773 523.7836)" fill="#30D49D" font-family="'CrimsonText-Roman'" font-size="10.494">4 </text>
</g>
<g>
	<text transform="matrix(1 0 0 1 956.1396 529.7777)" fill="#30D49D" font-family="'CrimsonText-Roman'" font-size="18">direct connection</text>
	<text transform="matrix(1 0 0 1 1079.1162 523.7836)" fill="#30D49D" font-family="'CrimsonText-Roman'" font-size="10.494">4 </text>
</g>
<g>
	<text transform="matrix(1 0 0 1 1120.9785 529.7777)" fill="#30D49D" font-family="'CrimsonText-Roman'" font-size="18">gelcap containing</text>
	<text transform="matrix(1 0 0 1 1244.3057 523.7836)" fill="#30D49D" font-family="'CrimsonText-Roman'" font-size="10.494">4 </text>
</g>
<g>
	<text transform="matrix(1 0 0 1 1286.166 529.7777)" fill="#30D49D" font-family="'CrimsonText-Roman'" font-size="18">hugged intensely</text>
	<text transform="matrix(1 0 0 1 1404.7139 523.7836)" fill="#30D49D" font-family="'CrimsonText-Roman'" font-size="10.494">4 </text>
</g>
<g>
	<text transform="matrix(1 0 0 1 272 597.3881)" fill="#30D49D" font-family="'CrimsonText-Roman'" font-size="18">mental clarity</text>
	<text transform="matrix(1 0 0 1 368.4341 591.3939)" fill="#30D49D" font-family="'CrimsonText-Roman'" font-size="10.494">4 </text>
</g>
<g>
	<text transform="matrix(1 0 0 1 437.501 596.5775)" fill="#30D49D" font-family="'CrimsonText-Roman'" font-size="18">nitrous oxide</text>
	<text transform="matrix(1 0 0 1 530.5596 590.5834)" fill="#30D49D" font-family="'CrimsonText-Roman'" font-size="10.494">4 </text>
</g>
<g>
	<text transform="matrix(1 0 0 1 599.6265 596.5775)" fill="#30D49D" font-family="'CrimsonText-Roman'" font-size="18">north carolina</text>
	<text transform="matrix(1 0 0 1 699.9976 590.5834)" fill="#30D49D" font-family="'CrimsonText-Roman'" font-size="10.494">4 </text>
</g>
<g>
	<text transform="matrix(1 0 0 1 769.0645 596.5775)" fill="#30D49D" font-family="'CrimsonText-Roman'" font-size="18">orange juice</text>
	<text transform="matrix(1 0 0 1 854.2832 590.5834)" fill="#30D49D" font-family="'CrimsonText-Roman'" font-size="10.494">4 </text>
</g>
<g>
	<text transform="matrix(1 0 0 1 923.3496 596.5775)" fill="#30D49D" font-family="'CrimsonText-Roman'" font-size="18">perfect unity</text>
	<text transform="matrix(1 0 0 1 1012.9453 590.5834)" fill="#30D49D" font-family="'CrimsonText-Roman'" font-size="10.494">4 </text>
</g>
<g>
	<text transform="matrix(1 0 0 1 1082.0117 596.3881)" fill="#30D49D" font-family="'CrimsonText-Roman'" font-size="18">physical addiction</text>
	<text transform="matrix(1 0 0 1 1207.8359 590.3939)" fill="#30D49D" font-family="'CrimsonText-Roman'" font-size="10.494">4</text>
</g>
<g>
	<text transform="matrix(1 0 0 1 1274.5566 596.39)" fill="#30D49D" font-family="'CrimsonText-Roman'" font-size="18">physical symptoms</text>
	<text transform="matrix(1 0 0 1 1407.0605 590.3969)" fill="#30D49D" font-family="'CrimsonText-Roman'" font-size="10.494">4</text>
</g>
<g>
	<text transform="matrix(1 0 0 1 272 660.7806)" fill="#30D49D" font-family="'CrimsonText-Roman'" font-size="18">piracetam does</text>
	<text transform="matrix(1 0 0 1 377.1177 654.7865)" fill="#30D49D" font-family="'CrimsonText-Roman'" font-size="10.494">4</text>
</g>
<g>
	<text transform="matrix(1 0 0 1 431.9199 660.7806)" fill="#30D49D" font-family="'CrimsonText-Roman'" font-size="18">piracetam regimen</text>
	<text transform="matrix(1 0 0 1 563.9321 654.7865)" fill="#30D49D" font-family="'CrimsonText-Roman'" font-size="10.494">4</text>
</g>
<g>
	<text transform="matrix(1 0 0 1 618.7344 660.7806)" fill="#30D49D" font-family="'CrimsonText-Roman'" font-size="18">research chemicals</text>
	<text transform="matrix(1 0 0 1 749.481 654.7865)" fill="#30D49D" font-family="'CrimsonText-Roman'" font-size="10.494">4 </text>
</g>
</svg>
