<?xml version="1.0" encoding="utf-8"?>
<!-- Generator: Adobe Illustrator 16.0.4, SVG Export Plug-In . SVG Version: 6.00 Build 0)  -->
<!DOCTYPE svg PUBLIC "-//W3C//DTD SVG 1.1//EN" "http://www.w3.org/Graphics/SVG/1.1/DTD/svg11.dtd">
<svg version="1.1"
	 id="Layer_1" xmlns:text="http://xmlns.graougraou.com/svg/text/" xmlns:a3="http://ns.adobe.com/AdobeSVGViewerExtensions/3.0/" a3:scriptImplementation="Adobe"
	 xmlns="http://www.w3.org/2000/svg" xmlns:xlink="http://www.w3.org/1999/xlink" x="0px" y="0px" width="1140px" height="193px"
	 viewBox="0 0 1140 193" enable-background="new 0 0 1140 193" xml:space="preserve">
<text transform="matrix(1 0 0 1 0 53.1787)" fill="#30D49D" font-family="'CrimsonText-Roman'" font-size="32.9143">blood pressure</text>
<text transform="matrix(0.583 0 0 0.583 188.4214 42.2183)" fill="#30D49D" font-family="'CrimsonText-Roman'" font-size="32.9143">14 </text>
<text transform="matrix(1 0 0 1 265.3765 52.7354)" fill="#30D49D" font-family="'CrimsonText-Roman'" font-size="22.4572">mood lift</text>
<text transform="matrix(0.583 0 0 0.583 346.104 45.2573)" fill="#30D49D" font-family="'CrimsonText-Roman'" font-size="22.4572">9 </text>
<text transform="matrix(1 0 0 1 409.7817 52.5869)" fill="#30D49D" font-family="'CrimsonText-Roman'" font-size="18.9714">choline duration</text>
<text transform="matrix(0.583 0 0 0.583 532.4287 46.2695)" fill="#30D49D" font-family="'CrimsonText-Roman'" font-size="18.9714">8 </text>
<text transform="matrix(1 0 0 1 594.6914 52.5869)" fill="#30D49D" font-family="'CrimsonText-Roman'" font-size="18.9714">ego death</text>
<text transform="matrix(0.583 0 0 0.583 665.7783 46.2695)" fill="#30D49D" font-family="'CrimsonText-Roman'" font-size="18.9714">8 </text>
<text transform="matrix(1 0 0 1 728.041 52.5869)" fill="#30D49D" font-family="'CrimsonText-Roman'" font-size="18.9714">heart rate</text>
<text transform="matrix(0.583 0 0 0.583 799.4248 46.2695)" fill="#30D49D" font-family="'CrimsonText-Roman'" font-size="18.9714">8 </text>
<text transform="matrix(1 0 0 1 861.6875 52.5869)" fill="#30D49D" font-family="'CrimsonText-Roman'" font-size="18.9714">choline bitartrate</text>
<text transform="matrix(0.583 0 0 0.583 989.7627 46.2695)" fill="#30D49D" font-family="'CrimsonText-Roman'" font-size="18.9714">7 </text>
<text transform="matrix(1 0 0 1 1052.0146 52.5869)" fill="#30D49D" font-family="'CrimsonText-Roman'" font-size="18.9714">rabbit hole</text>
<text transform="matrix(0.583 0 0 0.583 1132.3096 46.2695)" fill="#30D49D" font-family="'CrimsonText-Roman'" font-size="18.9714">7 </text>
<text transform="matrix(1 0 0 1 0 95.957)" fill="#30D49D" font-family="'CrimsonText-Roman'" font-size="15.4858">800mg piracetam</text>
<text transform="matrix(0.583 0 0 0.583 104.4985 90.8003)" fill="#30D49D" font-family="'CrimsonText-Roman'" font-size="15.4858">6 </text>
<text transform="matrix(1 0 0 1 160.9424 95.957)" fill="#30D49D" font-family="'CrimsonText-Roman'" font-size="15.4858">energy drink</text>
<text transform="matrix(0.583 0 0 0.583 238.4468 90.8003)" fill="#30D49D" font-family="'CrimsonText-Roman'" font-size="15.4858">6</text>
<text transform="matrix(1 0 0 1 242.7139 95.957)" fill="#30D49D" font-family="'CrimsonText-Roman'" font-size="15.4858"> </text>
<text transform="matrix(1 0 0 1 296.3345 95.957)" fill="#30D49D" font-family="'CrimsonText-Roman'" font-size="15.4858">pilot mountain</text>
<text transform="matrix(0.583 0 0 0.583 387.1167 90.8003)" fill="#30D49D" font-family="'CrimsonText-Roman'" font-size="15.4858">6</text>
<text transform="matrix(1 0 0 1 391.3838 95.957)" fill="#30D49D" font-family="'CrimsonText-Roman'" font-size="15.4858"> </text>
<text transform="matrix(1 0 0 1 445.0044 95.957)" fill="#30D49D" font-family="'CrimsonText-Roman'" font-size="15.4858">salvia divinorum</text>
<text transform="matrix(0.583 0 0 0.583 546.7051 90.8003)" fill="#30D49D" font-family="'CrimsonText-Roman'" font-size="15.4858">6 </text>
<text transform="matrix(1 0 0 1 603.1484 95.8086)" fill="#30D49D" font-family="'CrimsonText-Roman'" font-size="12">black hole</text>
<text transform="matrix(0.583 0 0 0.583 650.3047 91.8125)" fill="#30D49D" font-family="'CrimsonText-Roman'" font-size="12">5 </text>
<text transform="matrix(1 0 0 1 705.3418 95.8086)" fill="#30D49D" font-family="'CrimsonText-Roman'" font-size="12">color enhancement</text>
<text transform="matrix(0.583 0 0 0.583 795.2949 91.8125)" fill="#30D49D" font-family="'CrimsonText-Roman'" font-size="12">5 </text>
<text transform="matrix(1 0 0 1 850.623 95.8086)" fill="#30D49D" font-family="'CrimsonText-Roman'" font-size="12">jaw clenching</text>
<text transform="matrix(0.583 0 0 0.583 914.7715 91.8125)" fill="#30D49D" font-family="'CrimsonText-Roman'" font-size="12">5</text>
<text transform="matrix(1 0 0 1 918.085 95.8086)" fill="#30D49D" font-family="'CrimsonText-Roman'" font-size="12"> </text>
<text transform="matrix(1 0 0 1 970.9268 95.8086)" fill="#30D49D" font-family="'CrimsonText-Roman'" font-size="12">lipoic acid</text>
<text transform="matrix(0.583 0 0 0.583 1018.2471 91.8125)" fill="#30D49D" font-family="'CrimsonText-Roman'" font-size="12">5 </text>
<text transform="matrix(1 0 0 1 1073.2822 95.8086)" fill="#30D49D" font-family="'CrimsonText-Roman'" font-size="12">pay attention</text>
<text transform="matrix(0.583 0 0 0.583 1135.1221 91.8125)" fill="#30D49D" font-family="'CrimsonText-Roman'" font-size="12">5 </text>
<text transform="matrix(1 0 0 1 0 136.2158)" fill="#30D49D" font-family="'CrimsonText-Roman'" font-size="12">blood sugar</text>
<text transform="matrix(0.583 0 0 0.583 54.4805 132.2197)" fill="#30D49D" font-family="'CrimsonText-Roman'" font-size="12">4 </text>
<text transform="matrix(1 0 0 1 120.436 136.2158)" fill="#30D49D" font-family="'CrimsonText-Roman'" font-size="12">direct connection</text>
<text transform="matrix(0.583 0 0 0.583 202.4204 132.2197)" fill="#30D49D" font-family="'CrimsonText-Roman'" font-size="12">4 </text>
<text transform="matrix(1 0 0 1 268.3755 136.2158)" fill="#30D49D" font-family="'CrimsonText-Roman'" font-size="12">gelcap containing</text>
<text transform="matrix(0.583 0 0 0.583 350.5942 132.2197)" fill="#30D49D" font-family="'CrimsonText-Roman'" font-size="12">4 </text>
<text transform="matrix(1 0 0 1 416.5498 136.2158)" fill="#30D49D" font-family="'CrimsonText-Roman'" font-size="12">hugged intensely</text>
<text transform="matrix(0.583 0 0 0.583 495.5811 132.2197)" fill="#30D49D" font-family="'CrimsonText-Roman'" font-size="12">4 </text>
<text transform="matrix(1 0 0 1 561.5361 136.2158)" fill="#30D49D" font-family="'CrimsonText-Roman'" font-size="12">mental clarity</text>
<text transform="matrix(0.583 0 0 0.583 625.8252 132.2197)" fill="#30D49D" font-family="'CrimsonText-Roman'" font-size="12">4 </text>
<text transform="matrix(1 0 0 1 691.7803 136.2158)" fill="#30D49D" font-family="'CrimsonText-Roman'" font-size="12">nitrous oxide</text>
<text transform="matrix(0.583 0 0 0.583 753.8193 132.2197)" fill="#30D49D" font-family="'CrimsonText-Roman'" font-size="12">4 </text>
<text transform="matrix(1 0 0 1 819.7754 136.2158)" fill="#30D49D" font-family="'CrimsonText-Roman'" font-size="12">north carolina</text>
<text transform="matrix(0.583 0 0 0.583 886.6895 132.2197)" fill="#30D49D" font-family="'CrimsonText-Roman'" font-size="12">4 </text>
<text transform="matrix(1 0 0 1 952.6445 136.2158)" fill="#30D49D" font-family="'CrimsonText-Roman'" font-size="12">orange juice</text>
<text transform="matrix(0.583 0 0 0.583 1009.457 132.2197)" fill="#30D49D" font-family="'CrimsonText-Roman'" font-size="12">4 </text>
<text transform="matrix(1 0 0 1 1075.4121 136.2158)" fill="#30D49D" font-family="'CrimsonText-Roman'" font-size="12">perfect unity</text>
<text transform="matrix(0.583 0 0 0.583 1135.1426 132.2197)" fill="#30D49D" font-family="'CrimsonText-Roman'" font-size="12">4 </text>
<text transform="matrix(1 0 0 1 0 170.7095)" fill="#30D49D" font-family="'CrimsonText-Roman'" font-size="12">physical addiction</text>
<text transform="matrix(0.583 0 0 0.583 83.8828 166.7134)" fill="#30D49D" font-family="'CrimsonText-Roman'" font-size="12">4</text>
<text transform="matrix(1 0 0 1 87.1758 170.7095)" fill="#30D49D" font-family="'CrimsonText-Roman'" font-size="12"> </text>
<text transform="matrix(1 0 0 1 147.8516 170.7095)" fill="#30D49D" font-family="'CrimsonText-Roman'" font-size="12">physical symptoms</text>
<text transform="matrix(0.583 0 0 0.583 236.1875 166.7134)" fill="#30D49D" font-family="'CrimsonText-Roman'" font-size="12">4</text>
<text transform="matrix(1 0 0 1 239.4805 170.7095)" fill="#30D49D" font-family="'CrimsonText-Roman'" font-size="12"> </text>
<text transform="matrix(1 0 0 1 300.1562 170.7095)" fill="#30D49D" font-family="'CrimsonText-Roman'" font-size="12">piracetam does</text>
<text transform="matrix(0.583 0 0 0.583 370.2344 166.7134)" fill="#30D49D" font-family="'CrimsonText-Roman'" font-size="12">4</text>
<text transform="matrix(1 0 0 1 373.5273 170.7095)" fill="#30D49D" font-family="'CrimsonText-Roman'" font-size="12"> </text>
<text transform="matrix(1 0 0 1 434.2031 170.7095)" fill="#30D49D" font-family="'CrimsonText-Roman'" font-size="12">piracetam regimen</text>
<text transform="matrix(0.583 0 0 0.583 522.2109 166.7134)" fill="#30D49D" font-family="'CrimsonText-Roman'" font-size="12">4</text>
<text transform="matrix(1 0 0 1 525.5039 170.7095)" fill="#30D49D" font-family="'CrimsonText-Roman'" font-size="12"> </text>
<text transform="matrix(1 0 0 1 586.1797 170.7095)" fill="#30D49D" font-family="'CrimsonText-Roman'" font-size="12">research chemicals</text>
<text transform="matrix(0.583 0 0 0.583 673.3438 166.7134)" fill="#30D49D" font-family="'CrimsonText-Roman'" font-size="12">4 </text>
</svg>
