<?xml version="1.0" encoding="utf-8"?>
<!-- Generator: Adobe Illustrator 16.0.4, SVG Export Plug-In . SVG Version: 6.00 Build 0)  -->
<!DOCTYPE svg PUBLIC "-//W3C//DTD SVG 1.1//EN" "http://www.w3.org/Graphics/SVG/1.1/DTD/svg11.dtd">
<svg version="1.1"
	 id="Layer_1" xmlns:a3="http://ns.adobe.com/AdobeSVGViewerExtensions/3.0/" xmlns:text="http://xmlns.graougraou.com/svg/text/" a3:scriptImplementation="Adobe"
	 xmlns="http://www.w3.org/2000/svg" xmlns:xlink="http://www.w3.org/1999/xlink" x="0px" y="0px" width="1140px" height="348.89px"
	 viewBox="272 322.89 1140 348.89" enable-background="new 272 322.89 1140 348.89" xml:space="preserve">
<g>
	<text transform="matrix(1 0 0 1 272 393.3905)" fill="#A478D6" font-family="'CrimsonText-Roman'" font-size="97.2594">salvia extract</text>
	<text transform="matrix(1 0 0 1 763.9961 361.0038)" fill="#A478D6" font-family="'CrimsonText-Roman'" font-size="56.7022">157</text>
</g>
<g>
	<text transform="matrix(1 0 0 1 907.3447 393.3905)" fill="#A478D6" font-family="'CrimsonText-Roman'" font-size="97.2594">10x extract</text>
	<text transform="matrix(1 0 0 1 1324.9727 361.0038)" fill="#A478D6" font-family="'CrimsonText-Roman'" font-size="56.7022">143 </text>
</g>
<g>
	<text transform="matrix(1 0 0 1 272 462.391)" fill="#A478D6" font-family="'CrimsonText-Roman'" font-size="50.4">salvia space</text>
	<text transform="matrix(1 0 0 1 497.1748 445.6068)" fill="#A478D6" font-family="'CrimsonText-Roman'" font-size="29.3832">82 </text>
</g>
<g>
	<text transform="matrix(1 0 0 1 556.7188 461.8568)" fill="#A478D6" font-family="'CrimsonText-Roman'" font-size="45">glass pipe</text>
	<text transform="matrix(1 0 0 1 724.415 446.8715)" fill="#A478D6" font-family="'CrimsonText-Roman'" font-size="26.235">69 </text>
</g>
<g>
	<text transform="matrix(1 0 0 1 780.2783 462.391)" fill="#A478D6" font-family="'CrimsonText-Roman'" font-size="39.6">lady salvia</text>
	<text transform="matrix(1 0 0 1 937.75 449.2045)" fill="#A478D6" font-family="'CrimsonText-Roman'" font-size="23.0868">66 </text>
</g>
<g>
	<text transform="matrix(1 0 0 1 989.9336 462.391)" fill="#A478D6" font-family="'CrimsonText-Roman'" font-size="39.6">torch lighter</text>
	<text transform="matrix(1 0 0 1 1183.9102 449.2045)" fill="#A478D6" font-family="'CrimsonText-Roman'" font-size="23.0868">64 </text>
</g>
<g>
	<text transform="matrix(1 0 0 1 1236.0479 462.391)" fill="#A478D6" font-family="'CrimsonText-Roman'" font-size="39.6">salvia leaf</text>
	<text transform="matrix(1 0 0 1 1385.0127 449.2045)" fill="#A478D6" font-family="'CrimsonText-Roman'" font-size="23.0868">62 </text>
</g>
<g>
	<text transform="matrix(1 0 0 1 272 527.224)" fill="#A478D6" font-family="'CrimsonText-Roman'" font-size="34.2">butane lighter</text>
	<text transform="matrix(1 0 0 1 459.1318 515.8353)" fill="#A478D6" font-family="'CrimsonText-Roman'" font-size="19.9386">56 </text>
</g>
<g>
	<text transform="matrix(1 0 0 1 525.7861 527.224)" fill="#A478D6" font-family="'CrimsonText-Roman'" font-size="34.2">dried salvia</text>
	<text transform="matrix(1 0 0 1 676.748 515.8353)" fill="#A478D6" font-family="'CrimsonText-Roman'" font-size="19.9386">55 </text>
</g>
<g>
	<text transform="matrix(1 0 0 1 743.4214 526.6127)" fill="#A478D6" font-family="'CrimsonText-Roman'" font-size="28.8">salvia 10x</text>
	<text transform="matrix(1 0 0 1 856.5225 519.1986)" fill="#A478D6" font-family="'CrimsonText-Roman'" font-size="16.7904">52 </text>
</g>
<g>
	<text transform="matrix(1 0 0 1 919.4941 526.6127)" fill="#A478D6" font-family="'CrimsonText-Roman'" font-size="28.8">10x salvia</text>
	<text transform="matrix(1 0 0 1 1028.6768 517.0209)" fill="#A478D6" font-family="'CrimsonText-Roman'" font-size="16.7904">49 </text>
</g>
<g>
	<text transform="matrix(1 0 0 1 1091.5996 526.6127)" fill="#A478D6" font-family="'CrimsonText-Roman'" font-size="28.8">20x extract</text>
	<text transform="matrix(1 0 0 1 1220.3027 517.0209)" fill="#A478D6" font-family="'CrimsonText-Roman'" font-size="16.7904">49 </text>
</g>
<g>
	<text transform="matrix(1 0 0 1 1283.2246 527.223)" fill="#A478D6" font-family="'CrimsonText-Roman'" font-size="28.8">20x salvia</text>
	<text transform="matrix(1 0 0 1 1392.4053 517.6312)" fill="#A478D6" font-family="'CrimsonText-Roman'" font-size="16.7904">49 </text>
</g>
<g>
	<text transform="matrix(1 0 0 1 272 594.3138)" fill="#A478D6" font-family="'CrimsonText-Roman'" font-size="28.8">pink floyd</text>
	<text transform="matrix(1 0 0 1 386.2148 584.722)" fill="#A478D6" font-family="'CrimsonText-Roman'" font-size="16.7904">48 </text>
</g>
<g>
	<text transform="matrix(1 0 0 1 441.0605 594.39)" fill="#A478D6" font-family="'CrimsonText-Roman'" font-size="28.8">laughing hysterically</text>
	<text transform="matrix(1 0 0 1 672.5283 584.8002)" fill="#A478D6" font-family="'CrimsonText-Roman'" font-size="16.7904">46 </text>
</g>
<g>
	<text transform="matrix(1 0 0 1 727.3735 593.7787)" fill="#A478D6" font-family="'CrimsonText-Roman'" font-size="23.4">holy shit</text>
	<text transform="matrix(1 0 0 1 806.1201 585.9857)" fill="#A478D6" font-family="'CrimsonText-Roman'" font-size="13.6422">45 </text>
</g>
<g>
	<text transform="matrix(1 0 0 1 857.3047 593.7787)" fill="#A478D6" font-family="'CrimsonText-Roman'" font-size="23.4">consensus reality</text>
	<text transform="matrix(1 0 0 1 1012.125 585.9857)" fill="#A478D6" font-family="'CrimsonText-Roman'" font-size="13.6422">44 </text>
</g>
<g>
	<text transform="matrix(1 0 0 1 1063.2705 593.8822)" fill="#A478D6" font-family="'CrimsonText-Roman'" font-size="23.4">dried leaf</text>
	<text transform="matrix(1 0 0 1 1147.9824 586.0892)" fill="#A478D6" font-family="'CrimsonText-Roman'" font-size="13.6422">39 </text>
</g>
<g>
	<text transform="matrix(1 0 0 1 1199.1934 594.0863)" fill="#A478D6" font-family="'CrimsonText-Roman'" font-size="18">coffee table</text>
	<text transform="matrix(1 0 0 1 1278.6992 588.0922)" fill="#A478D6" font-family="'CrimsonText-Roman'" font-size="10.494">38 </text>
</g>
<g>
	<text transform="matrix(1 0 0 1 1326.2275 594.0863)" fill="#A478D6" font-family="'CrimsonText-Roman'" font-size="18">large bowl</text>
	<text transform="matrix(1 0 0 1 1399.7227 588.0922)" fill="#A478D6" font-family="'CrimsonText-Roman'" font-size="10.494">38 </text>
</g>
<g>
	<text transform="matrix(1 0 0 1 272 650.3519)" fill="#A478D6" font-family="'CrimsonText-Roman'" font-size="18">black hole</text>
	<text transform="matrix(1 0 0 1 342.7334 644.3568)" fill="#A478D6" font-family="'CrimsonText-Roman'" font-size="10.494">37 </text>
</g>
<g>
	<text transform="matrix(1 0 0 1 377.5737 652.9056)" fill="#A478D6" font-family="'CrimsonText-Roman'" font-size="18">peripheral vision</text>
	<text transform="matrix(1 0 0 1 496.877 646.9105)" fill="#A478D6" font-family="'CrimsonText-Roman'" font-size="10.494">37 </text>
</g>
<g>
	<text transform="matrix(1 0 0 1 531.7178 652.6508)" fill="#A478D6" font-family="'CrimsonText-Roman'" font-size="18">physical sensation</text>
	<text transform="matrix(1 0 0 1 657.9468 646.6556)" fill="#A478D6" font-family="'CrimsonText-Roman'" font-size="10.494">35 </text>
</g>
<g>
	<text transform="matrix(1 0 0 1 692.8086 652.6508)" fill="#A478D6" font-family="'CrimsonText-Roman'" font-size="18">butane torch</text>
	<text transform="matrix(1 0 0 1 782.3516 646.6556)" fill="#A478D6" font-family="'CrimsonText-Roman'" font-size="10.494">34 </text>
</g>
<g>
	<text transform="matrix(1 0 0 1 817.1821 652.6508)" fill="#A478D6" font-family="'CrimsonText-Roman'" font-size="18">deep breaths</text>
	<text transform="matrix(1 0 0 1 905.6367 646.6556)" fill="#A478D6" font-family="'CrimsonText-Roman'" font-size="10.494">34 </text>
</g>
<g>
	<text transform="matrix(1 0 0 1 940.4678 649.9125)" fill="#A478D6" font-family="'CrimsonText-Roman'" font-size="18">sitter present</text>
	<text transform="matrix(1 0 0 1 1032.9639 643.9174)" fill="#A478D6" font-family="'CrimsonText-Roman'" font-size="10.494">33 </text>
</g>
<g>
	<text transform="matrix(1 0 0 1 1067.8252 649.9076)" fill="#A478D6" font-family="'CrimsonText-Roman'" font-size="18">inhaled deeply</text>
	<text transform="matrix(1 0 0 1 1168.8115 643.9135)" fill="#A478D6" font-family="'CrimsonText-Roman'" font-size="10.494">32 </text>
</g>
<g>
	<text transform="matrix(1 0 0 1 1203.6621 649.9076)" fill="#A478D6" font-family="'CrimsonText-Roman'" font-size="18">blue lotus</text>
	<text transform="matrix(1 0 0 1 1271.8125 643.9135)" fill="#A478D6" font-family="'CrimsonText-Roman'" font-size="10.494">31 </text>
</g>
<g>
	<text transform="matrix(1 0 0 1 1306.6641 649.9076)" fill="#A478D6" font-family="'CrimsonText-Roman'" font-size="18">nitrous oxide</text>
	<text transform="matrix(1 0 0 1 1399.7227 643.9135)" fill="#A478D6" font-family="'CrimsonText-Roman'" font-size="10.494">31 </text>
</g>
</svg>
