<?xml version="1.0" encoding="utf-8"?>
<!-- Generator: Adobe Illustrator 16.0.4, SVG Export Plug-In . SVG Version: 6.00 Build 0)  -->
<!DOCTYPE svg PUBLIC "-//W3C//DTD SVG 1.1//EN" "http://www.w3.org/Graphics/SVG/1.1/DTD/svg11.dtd">
<svg version="1.1"
	 id="Layer_1" xmlns:text="http://xmlns.graougraou.com/svg/text/" xmlns:a3="http://ns.adobe.com/AdobeSVGViewerExtensions/3.0/" a3:scriptImplementation="Adobe"
	 xmlns="http://www.w3.org/2000/svg" xmlns:xlink="http://www.w3.org/1999/xlink" x="0px" y="0px" width="1140px" height="196px"
	 viewBox="7.294 0 1140 196" enable-background="new 7.294 0 1140 196" xml:space="preserve">
<text transform="matrix(1 0 0 1 7.2939 51.7485)" fill="#A478D6" font-family="'CrimsonText-Roman'" font-size="64.8396">salvia extract</text>
<text transform="matrix(0.583 0 0 0.583 335.291 30.1567)" fill="#A478D6" font-family="'CrimsonText-Roman'" font-size="64.8396">157</text>
<text transform="matrix(1 0 0 1 388.8926 51.7485)" fill="#A478D6" font-family="'CrimsonText-Roman'" font-size="64.8396"> </text>
<text transform="matrix(1 0 0 1 436.1284 51.7485)" fill="#A478D6" font-family="'CrimsonText-Roman'" font-size="64.8396">10x extract</text>
<text transform="matrix(0.583 0 0 0.583 714.5469 30.1567)" fill="#A478D6" font-family="'CrimsonText-Roman'" font-size="64.8396">143 </text>
<text transform="matrix(1 0 0 1 809.2998 51.8247)" fill="#A478D6" font-family="'CrimsonText-Roman'" font-size="33.6">salvia space</text>
<text transform="matrix(0.583 0 0 0.583 959.417 40.6357)" fill="#A478D6" font-family="'CrimsonText-Roman'" font-size="33.6">82 </text>
<text transform="matrix(1 0 0 1 1015.0518 51.7485)" fill="#A478D6" font-family="'CrimsonText-Roman'" font-size="30">glass pipe</text>
<text transform="matrix(0.583 0 0 0.583 1126.8486 41.7583)" fill="#A478D6" font-family="'CrimsonText-Roman'" font-size="30">69 </text>
<text transform="matrix(1 0 0 1 7.2939 103.0825)" fill="#A478D6" font-family="'CrimsonText-Roman'" font-size="26.4">lady salvia</text>
<text transform="matrix(0.583 0 0 0.583 112.2754 94.2915)" fill="#A478D6" font-family="'CrimsonText-Roman'" font-size="26.4">66 </text>
<text transform="matrix(1 0 0 1 162.938 103.0825)" fill="#A478D6" font-family="'CrimsonText-Roman'" font-size="26.4">torch lighter</text>
<text transform="matrix(0.583 0 0 0.583 292.2563 94.2915)" fill="#A478D6" font-family="'CrimsonText-Roman'" font-size="26.4">64 </text>
<text transform="matrix(1 0 0 1 342.8882 103.0825)" fill="#A478D6" font-family="'CrimsonText-Roman'" font-size="26.4">salvia leaf</text>
<text transform="matrix(0.583 0 0 0.583 442.1978 94.2915)" fill="#A478D6" font-family="'CrimsonText-Roman'" font-size="26.4">62 </text>
<text transform="matrix(1 0 0 1 492.8604 103.1592)" fill="#A478D6" font-family="'CrimsonText-Roman'" font-size="22.8">butane lighter</text>
<text transform="matrix(0.583 0 0 0.583 617.6143 95.5669)" fill="#A478D6" font-family="'CrimsonText-Roman'" font-size="22.8">56 </text>
<text transform="matrix(1 0 0 1 665.8369 103.1592)" fill="#A478D6" font-family="'CrimsonText-Roman'" font-size="22.8">dried salvia</text>
<text transform="matrix(0.583 0 0 0.583 766.4775 95.5669)" fill="#A478D6" font-family="'CrimsonText-Roman'" font-size="22.8">55 </text>
<text transform="matrix(1 0 0 1 814.7119 103.0059)" fill="#A478D6" font-family="'CrimsonText-Roman'" font-size="19.2">salvia 10x</text>
<text transform="matrix(0.583 0 0 0.583 887.5 96.6123)" fill="#A478D6" font-family="'CrimsonText-Roman'" font-size="19.2">52 </text>
<text transform="matrix(1 0 0 1 933.2666 103.0059)" fill="#A478D6" font-family="'CrimsonText-Roman'" font-size="19.2">10x salvia</text>
<text transform="matrix(0.583 0 0 0.583 1006.0547 96.6123)" fill="#A478D6" font-family="'CrimsonText-Roman'" font-size="19.2">49 </text>
<text transform="matrix(1 0 0 1 1051.7881 103.0059)" fill="#A478D6" font-family="'CrimsonText-Roman'" font-size="19.2">20x extract</text>
<text transform="matrix(0.583 0 0 0.583 1134.2314 96.6123)" fill="#A478D6" font-family="'CrimsonText-Roman'" font-size="19.2">49 </text>
<text transform="matrix(1 0 0 1 7.2939 143.5991)" fill="#A478D6" font-family="'CrimsonText-Roman'" font-size="19.2">20x salvia</text>
<text transform="matrix(0.583 0 0 0.583 80.0811 137.2056)" fill="#A478D6" font-family="'CrimsonText-Roman'" font-size="19.2">49 </text>
<text transform="matrix(1 0 0 1 140.6216 143.5991)" fill="#A478D6" font-family="'CrimsonText-Roman'" font-size="19.2">pink floyd</text>
<text transform="matrix(0.583 0 0 0.583 216.7651 137.2056)" fill="#A478D6" font-family="'CrimsonText-Roman'" font-size="19.2">48 </text>
<text transform="matrix(1 0 0 1 277.3052 143.6753)" fill="#A478D6" font-family="'CrimsonText-Roman'" font-size="19.2">laughing hysterically</text>
<text transform="matrix(0.583 0 0 0.583 431.6177 137.2817)" fill="#A478D6" font-family="'CrimsonText-Roman'" font-size="19.2">46 </text>
<text transform="matrix(1 0 0 1 492.1587 143.522)" fill="#A478D6" font-family="'CrimsonText-Roman'" font-size="15.6">holy shit</text>
<text transform="matrix(0.583 0 0 0.583 544.6562 138.3271)" fill="#A478D6" font-family="'CrimsonText-Roman'" font-size="15.6">45 </text>
<text transform="matrix(1 0 0 1 602.7568 143.522)" fill="#A478D6" font-family="'CrimsonText-Roman'" font-size="15.6">consensus reality</text>
<text transform="matrix(0.583 0 0 0.583 705.9697 138.3271)" fill="#A478D6" font-family="'CrimsonText-Roman'" font-size="15.6">44 </text>
<text transform="matrix(1 0 0 1 764.043 143.751)" fill="#A478D6" font-family="'CrimsonText-Roman'" font-size="15.6">dried leaf</text>
<text transform="matrix(0.583 0 0 0.583 820.5166 138.5562)" fill="#A478D6" font-family="'CrimsonText-Roman'" font-size="15.6">39 </text>
<text transform="matrix(1 0 0 1 878.6357 143.5986)" fill="#A478D6" font-family="'CrimsonText-Roman'" font-size="12">coffee table</text>
<text transform="matrix(0.583 0 0 0.583 931.6396 139.6025)" fill="#A478D6" font-family="'CrimsonText-Roman'" font-size="12">38 </text>
<text transform="matrix(1 0 0 1 987.3018 143.5986)" fill="#A478D6" font-family="'CrimsonText-Roman'" font-size="12">large bowl</text>
<text transform="matrix(0.583 0 0 0.583 1036.2979 139.6025)" fill="#A478D6" font-family="'CrimsonText-Roman'" font-size="12">38 </text>
<text transform="matrix(1 0 0 1 1091.96 143.9336)" fill="#A478D6" font-family="'CrimsonText-Roman'" font-size="12">black hole</text>
<text transform="matrix(0.583 0 0 0.583 1139.1162 139.9375)" fill="#A478D6" font-family="'CrimsonText-Roman'" font-size="12">37 </text>
<text transform="matrix(1 0 0 1 7.2939 177.7485)" fill="#A478D6" font-family="'CrimsonText-Roman'" font-size="12">peripheral vision</text>
<text transform="matrix(0.583 0 0 0.583 86.8291 173.7524)" fill="#A478D6" font-family="'CrimsonText-Roman'" font-size="12">37 </text>
<text transform="matrix(1 0 0 1 174.397 177.4941)" fill="#A478D6" font-family="'CrimsonText-Roman'" font-size="12">physical sensation</text>
<text transform="matrix(0.583 0 0 0.583 258.5493 173.498)" fill="#A478D6" font-family="'CrimsonText-Roman'" font-size="12">35 </text>
<text transform="matrix(1 0 0 1 346.1309 177.4941)" fill="#A478D6" font-family="'CrimsonText-Roman'" font-size="12">butane torch</text>
<text transform="matrix(0.583 0 0 0.583 405.8262 173.498)" fill="#A478D6" font-family="'CrimsonText-Roman'" font-size="12">34 </text>
<text transform="matrix(1 0 0 1 493.3872 177.4941)" fill="#A478D6" font-family="'CrimsonText-Roman'" font-size="12">deep breaths</text>
<text transform="matrix(0.583 0 0 0.583 552.356 173.498)" fill="#A478D6" font-family="'CrimsonText-Roman'" font-size="12">34 </text>
<text transform="matrix(1 0 0 1 639.917 177.4941)" fill="#A478D6" font-family="'CrimsonText-Roman'" font-size="12">sitter present</text>
<text transform="matrix(0.583 0 0 0.583 701.5811 173.498)" fill="#A478D6" font-family="'CrimsonText-Roman'" font-size="12">33 </text>
<text transform="matrix(1 0 0 1 789.1631 177.4941)" fill="#A478D6" font-family="'CrimsonText-Roman'" font-size="12">inhaled deeply</text>
<text transform="matrix(0.583 0 0 0.583 856.4873 173.498)" fill="#A478D6" font-family="'CrimsonText-Roman'" font-size="12">32 </text>
<text transform="matrix(1 0 0 1 944.0625 177.4941)" fill="#A478D6" font-family="'CrimsonText-Roman'" font-size="12">blue lotus</text>
<text transform="matrix(0.583 0 0 0.583 989.4961 173.498)" fill="#A478D6" font-family="'CrimsonText-Roman'" font-size="12">31 </text>
<text transform="matrix(1 0 0 1 1077.0703 177.4941)" fill="#A478D6" font-family="'CrimsonText-Roman'" font-size="12">nitrous oxide</text>
<text transform="matrix(0.583 0 0 0.583 1139.1094 173.498)" fill="#A478D6" font-family="'CrimsonText-Roman'" font-size="12">31 </text>
</svg>
