<?xml version="1.0" encoding="utf-8"?>
<!-- Generator: Adobe Illustrator 16.0.4, SVG Export Plug-In . SVG Version: 6.00 Build 0)  -->
<!DOCTYPE svg PUBLIC "-//W3C//DTD SVG 1.1//EN" "http://www.w3.org/Graphics/SVG/1.1/DTD/svg11.dtd">
<svg version="1.1"
	 id="Layer_1" xmlns:a3="http://ns.adobe.com/AdobeSVGViewerExtensions/3.0/" xmlns:text="http://xmlns.graougraou.com/svg/text/" a3:scriptImplementation="Adobe"
	 xmlns="http://www.w3.org/2000/svg" xmlns:xlink="http://www.w3.org/1999/xlink" x="0px" y="0px" width="1140px" height="462.89px"
	 viewBox="272 302.89 1140 462.89" enable-background="new 272 302.89 1140 462.89" xml:space="preserve">
<g>
	<text transform="matrix(1 0 0 1 272 371.9344)" fill="#A478D6" font-family="'CrimsonText-Roman'" font-size="91.5398">mimosa hostilis</text>
	<text transform="matrix(1 0 0 1 830.8037 341.452)" fill="#A478D6" font-family="'CrimsonText-Roman'" font-size="53.3677">123 </text>
</g>
<g>
	<text transform="matrix(1 0 0 1 1015.0439 371.4686)" fill="#A478D6" font-family="'CrimsonText-Roman'" font-size="89.709">rue seeds</text>
	<text transform="matrix(1 0 0 1 1333.1436 341.5956)" fill="#A478D6" font-family="'CrimsonText-Roman'" font-size="52.3003">100 </text>
</g>
<g>
	<text transform="matrix(1 0 0 1 272 470.972)" fill="#A478D6" font-family="'CrimsonText-Roman'" font-size="89.709">lemon juice</text>
	<text transform="matrix(1 0 0 1 676.916 441.099)" fill="#A478D6" font-family="'CrimsonText-Roman'" font-size="52.3003">99 </text>
</g>
<g>
	<text transform="matrix(1 0 0 1 739.8555 470.975)" fill="#A478D6" font-family="'CrimsonText-Roman'" font-size="62.505">root bark</text>
	<text transform="matrix(1 0 0 1 968.208 450.1605)" fill="#A478D6" font-family="'CrimsonText-Roman'" font-size="36.4404">81 </text>
</g>
<g>
	<text transform="matrix(1 0 0 1 1018.6084 471.684)" fill="#A478D6" font-family="'CrimsonText-Roman'" font-size="52.0667">peganum harmala</text>
	<text transform="matrix(1 0 0 1 1382.5166 454.3461)" fill="#A478D6" font-family="'CrimsonText-Roman'" font-size="30.3549">69 </text>
</g>
<g>
	<text transform="matrix(1 0 0 1 272 551.8353)" fill="#A478D6" font-family="'CrimsonText-Roman'" font-size="55.8">coffee grinder</text>
	<text transform="matrix(1 0 0 1 576.0107 533.2533)" fill="#A478D6" font-family="'CrimsonText-Roman'" font-size="32.5314">58 </text>
</g>
<g>
	<text transform="matrix(1 0 0 1 685.8789 550.4135)" fill="#A478D6" font-family="'CrimsonText-Roman'" font-size="45">san pedro</text>
	<text transform="matrix(1 0 0 1 856.4746 535.4281)" fill="#A478D6" font-family="'CrimsonText-Roman'" font-size="26.235">48 </text>
</g>
<g>
	<text transform="matrix(1 0 0 1 958.8994 549.6146)" fill="#A478D6" font-family="'CrimsonText-Roman'" font-size="39.6">harmala seeds</text>
	<text transform="matrix(1 0 0 1 1172.9102 536.4281)" fill="#A478D6" font-family="'CrimsonText-Roman'" font-size="23.0868">38 </text>
</g>
<g>
	<text transform="matrix(1 0 0 1 1271.7285 549.6986)" fill="#A478D6" font-family="'CrimsonText-Roman'" font-size="28.8">rue extract</text>
	<text transform="matrix(1 0 0 1 1392.3564 540.1078)" fill="#A478D6" font-family="'CrimsonText-Roman'" font-size="16.7904">30 </text>
</g>
<g>
	<text transform="matrix(1 0 0 1 272 622.39)" fill="#A478D6" font-family="'CrimsonText-Roman'" font-size="28.8">hostilis root</text>
	<text transform="matrix(1 0 0 1 407.1133 612.8002)" fill="#A478D6" font-family="'CrimsonText-Roman'" font-size="16.7904">28 </text>
</g>
<g>
	<text transform="matrix(1 0 0 1 469.7227 622.39)" fill="#A478D6" font-family="'CrimsonText-Roman'" font-size="28.8">plant material</text>
	<text transform="matrix(1 0 0 1 626.1255 612.8002)" fill="#A478D6" font-family="'CrimsonText-Roman'" font-size="16.7904">25 </text>
</g>
<g>
	<text transform="matrix(1 0 0 1 688.7515 621.8314)" fill="#A478D6" font-family="'CrimsonText-Roman'" font-size="23.4">coffee filter</text>
	<text transform="matrix(1 0 0 1 792.7485 614.0385)" fill="#A478D6" font-family="'CrimsonText-Roman'" font-size="13.6422">24 </text>
</g>
<g>
	<text transform="matrix(1 0 0 1 851.6504 621.8314)" fill="#A478D6" font-family="'CrimsonText-Roman'" font-size="23.4">rue tea</text>
	<text transform="matrix(1 0 0 1 913.875 614.0385)" fill="#A478D6" font-family="'CrimsonText-Roman'" font-size="13.6422">21 </text>
</g>
<g>
	<text transform="matrix(1 0 0 1 972.8047 621.8314)" fill="#A478D6" font-family="'CrimsonText-Roman'" font-size="23.4">salvia divinorum</text>
	<text transform="matrix(1 0 0 1 1126.4824 614.0385)" fill="#A478D6" font-family="'CrimsonText-Roman'" font-size="13.6422">20 </text>
</g>
<g>
	<text transform="matrix(1 0 0 1 1185.4111 622.9857)" fill="#A478D6" font-family="'CrimsonText-Roman'" font-size="23.4">gel caps</text>
	<text transform="matrix(1 0 0 1 1255.8408 615.1927)" fill="#A478D6" font-family="'CrimsonText-Roman'" font-size="13.6422">18 </text>
</g>
<g>
	<text transform="matrix(1 0 0 1 1314.7695 622.3734)" fill="#A478D6" font-family="'CrimsonText-Roman'" font-size="18">fine powder</text>
	<text transform="matrix(1 0 0 1 1399.7432 616.3802)" fill="#A478D6" font-family="'CrimsonText-Roman'" font-size="10.494">17 </text>
</g>
<g>
	<text transform="matrix(1 0 0 1 272 682.8011)" fill="#A478D6" font-family="'CrimsonText-Roman'" font-size="18">banisteriopsis caapi</text>
	<text transform="matrix(1 0 0 1 408.3013 676.807)" fill="#A478D6" font-family="'CrimsonText-Roman'" font-size="10.494">16 </text>
</g>
<g>
	<text transform="matrix(1 0 0 1 458.979 682.8011)" fill="#A478D6" font-family="'CrimsonText-Roman'" font-size="18">blood pressure</text>
	<text transform="matrix(1 0 0 1 562.0234 676.807)" fill="#A478D6" font-family="'CrimsonText-Roman'" font-size="10.494">16 </text>
</g>
<g>
	<text transform="matrix(1 0 0 1 612.7007 682.8011)" fill="#A478D6" font-family="'CrimsonText-Roman'" font-size="18">ground syrian</text>
	<text transform="matrix(1 0 0 1 710.7515 676.807)" fill="#A478D6" font-family="'CrimsonText-Roman'" font-size="10.494">16 </text>
</g>
<g>
	<text transform="matrix(1 0 0 1 761.4292 682.8011)" fill="#A478D6" font-family="'CrimsonText-Roman'" font-size="18">orange juice</text>
	<text transform="matrix(1 0 0 1 846.6475 676.807)" fill="#A478D6" font-family="'CrimsonText-Roman'" font-size="10.494">15 </text>
</g>
<g>
	<text transform="matrix(1 0 0 1 897.3359 682.7552)" fill="#A478D6" font-family="'CrimsonText-Roman'" font-size="18">ascorbic acid</text>
	<text transform="matrix(1 0 0 1 986.5098 676.7601)" fill="#A478D6" font-family="'CrimsonText-Roman'" font-size="10.494">14 </text>
</g>
<g>
	<text transform="matrix(1 0 0 1 1037.168 682.7552)" fill="#A478D6" font-family="'CrimsonText-Roman'" font-size="18">hostilis rootbark</text>
	<text transform="matrix(1 0 0 1 1153.2188 676.7601)" fill="#A478D6" font-family="'CrimsonText-Roman'" font-size="10.494">12 </text>
</g>
<g>
	<text transform="matrix(1 0 0 1 1203.8955 682.7552)" fill="#A478D6" font-family="'CrimsonText-Roman'" font-size="18">lime juice</text>
	<text transform="matrix(1 0 0 1 1271.3613 676.7601)" fill="#A478D6" font-family="'CrimsonText-Roman'" font-size="10.494">12</text>
	<text transform="matrix(1 0 0 1 1281.2803 682.7552)" fill="#A478D6" font-family="'CrimsonText-Roman'" font-size="18"> </text>
</g>
<g>
	<text transform="matrix(1 0 0 1 1323.7168 682.7552)" fill="#A478D6" font-family="'CrimsonText-Roman'" font-size="18">maoi vault</text>
	<text transform="matrix(1 0 0 1 1398.0547 676.7601)" fill="#A478D6" font-family="'CrimsonText-Roman'" font-size="10.494">12</text>
	<text transform="matrix(1 0 0 1 1407.9746 682.7552)" fill="#A478D6" font-family="'CrimsonText-Roman'" font-size="18"> </text>
</g>
<g>
	<text transform="matrix(1 0 0 1 272 743.1703)" fill="#A478D6" font-family="'CrimsonText-Roman'" font-size="18">baby woodrose</text>
	<text transform="matrix(1 0 0 1 378.0654 737.1752)" fill="#A478D6" font-family="'CrimsonText-Roman'" font-size="10.494">11 </text>
</g>
<g>
	<text transform="matrix(1 0 0 1 429.8647 743.1732)" fill="#A478D6" font-family="'CrimsonText-Roman'" font-size="18">dietary restrictions</text>
	<text transform="matrix(1 0 0 1 562.1943 737.1791)" fill="#A478D6" font-family="'CrimsonText-Roman'" font-size="10.494">11 </text>
</g>
<g>
	<text transform="matrix(1 0 0 1 607.7256 743.1732)" fill="#A478D6" font-family="'CrimsonText-Roman'" font-size="18">extremely unpleasant</text>
	<text transform="matrix(1 0 0 1 757.1216 737.1791)" fill="#A478D6" font-family="'CrimsonText-Roman'" font-size="10.494">11 </text>
</g>
<g>
	<text transform="matrix(1 0 0 1 802.6528 743.1732)" fill="#A478D6" font-family="'CrimsonText-Roman'" font-size="18">glory seeds</text>
	<text transform="matrix(1 0 0 1 879.5234 737.1791)" fill="#A478D6" font-family="'CrimsonText-Roman'" font-size="10.494">11 </text>
</g>
<g>
	<text transform="matrix(1 0 0 1 925.0547 743.1732)" fill="#A478D6" font-family="'CrimsonText-Roman'" font-size="18">mimosa brew</text>
	<text transform="matrix(1 0 0 1 1020.5566 737.1791)" fill="#A478D6" font-family="'CrimsonText-Roman'" font-size="10.494">11 </text>
</g>
</svg>
