<?xml version="1.0" encoding="utf-8"?>
<!-- Generator: Adobe Illustrator 16.0.4, SVG Export Plug-In . SVG Version: 6.00 Build 0)  -->
<!DOCTYPE svg PUBLIC "-//W3C//DTD SVG 1.1//EN" "http://www.w3.org/Graphics/SVG/1.1/DTD/svg11.dtd">
<svg version="1.1"
	 id="Layer_1" xmlns:text="http://xmlns.graougraou.com/svg/text/" xmlns:a3="http://ns.adobe.com/AdobeSVGViewerExtensions/3.0/" a3:scriptImplementation="Adobe"
	 xmlns="http://www.w3.org/2000/svg" xmlns:xlink="http://www.w3.org/1999/xlink" x="0px" y="0px" width="1140px" height="236px"
	 viewBox="7.294 0 1140 236" enable-background="new 7.294 0 1140 236" xml:space="preserve">
<g>
	<text transform="matrix(1 0 0 1 7.2939 51.7485)" fill="#A478D6" font-family="'CrimsonText-Roman'" font-size="64.8396">mimosa hostilis</text>
	
		<text transform="matrix(0.583 0 0 0.583 403.1069 30.1567)" fill="#A478D6" font-family="'CrimsonText-Roman'" font-size="64.8396">123 </text>
</g>
<g>
	<text transform="matrix(1 0 0 1 491.835 51.7485)" fill="#A478D6" font-family="'CrimsonText-Roman'" font-size="64.8396">rue seeds</text>
	<text transform="matrix(0.583 0 0 0.583 721.75 30.1567)" fill="#A478D6" font-family="'CrimsonText-Roman'" font-size="64.8396">100 </text>
</g>
<g>
	<text transform="matrix(1 0 0 1 810.4414 51.7485)" fill="#A478D6" font-family="'CrimsonText-Roman'" font-size="64.8396">lemon juice</text>
	
		<text transform="matrix(0.583 0 0 0.583 1103.1064 30.1567)" fill="#A478D6" font-family="'CrimsonText-Roman'" font-size="64.8396">99 </text>
</g>
<g>
	<text transform="matrix(1 0 0 1 7.2939 103.3354)" fill="#A478D6" font-family="'CrimsonText-Roman'" font-size="48">root bark</text>
	<text transform="matrix(0.583 0 0 0.583 182.6533 87.3511)" fill="#A478D6" font-family="'CrimsonText-Roman'" font-size="48">81 </text>
</g>
<g>
	<text transform="matrix(1 0 0 1 300.9565 102.8291)" fill="#A478D6" font-family="'CrimsonText-Roman'" font-size="40.8">peganum harmala</text>
	<text transform="matrix(0.583 0 0 0.583 586.1182 89.2432)" fill="#A478D6" font-family="'CrimsonText-Roman'" font-size="40.8">69 </text>
</g>
<g>
	<text transform="matrix(1 0 0 1 699.5146 103.208)" fill="#A478D6" font-family="'CrimsonText-Roman'" font-size="37.2">coffee grinder</text>
	<text transform="matrix(0.583 0 0 0.583 902.1885 90.8203)" fill="#A478D6" font-family="'CrimsonText-Roman'" font-size="37.2">58 </text>
</g>
<g>
	<text transform="matrix(1 0 0 1 1013.1523 102.7031)" fill="#A478D6" font-family="'CrimsonText-Roman'" font-size="30">san pedro</text>
	<text transform="matrix(0.583 0 0 0.583 1126.8828 92.7129)" fill="#A478D6" font-family="'CrimsonText-Roman'" font-size="30">48 </text>
</g>
<g>
	<text transform="matrix(1 0 0 1 7.2939 143.5991)" fill="#A478D6" font-family="'CrimsonText-Roman'" font-size="26.4">harmala seeds</text>
	<text transform="matrix(0.583 0 0 0.583 149.9673 134.8081)" fill="#A478D6" font-family="'CrimsonText-Roman'" font-size="26.4">38 </text>
</g>
<g>
	<text transform="matrix(1 0 0 1 205.1904 143.5991)" fill="#A478D6" font-family="'CrimsonText-Roman'" font-size="19.2">rue extract</text>
	<text transform="matrix(0.583 0 0 0.583 285.6094 137.2056)" fill="#A478D6" font-family="'CrimsonText-Roman'" font-size="19.2">30 </text>
</g>
<g>
	<text transform="matrix(1 0 0 1 335.9219 143.5991)" fill="#A478D6" font-family="'CrimsonText-Roman'" font-size="19.2">hostilis root</text>
	<text transform="matrix(0.583 0 0 0.583 425.9971 137.2056)" fill="#A478D6" font-family="'CrimsonText-Roman'" font-size="19.2">28 </text>
</g>
<g>
	<text transform="matrix(1 0 0 1 476.2988 143.5991)" fill="#A478D6" font-family="'CrimsonText-Roman'" font-size="19.2">plant material</text>
	<text transform="matrix(0.583 0 0 0.583 580.5674 137.2056)" fill="#A478D6" font-family="'CrimsonText-Roman'" font-size="19.2">25 </text>
</g>
<g>
	<text transform="matrix(1 0 0 1 630.8818 143.4976)" fill="#A478D6" font-family="'CrimsonText-Roman'" font-size="15.6">coffee filter</text>
	<text transform="matrix(0.583 0 0 0.583 700.2129 138.3032)" fill="#A478D6" font-family="'CrimsonText-Roman'" font-size="15.6">24 </text>
</g>
<g>
	<text transform="matrix(1 0 0 1 748.043 143.4976)" fill="#A478D6" font-family="'CrimsonText-Roman'" font-size="15.6">rue tea</text>
	<text transform="matrix(0.583 0 0 0.583 789.5264 138.3032)" fill="#A478D6" font-family="'CrimsonText-Roman'" font-size="15.6">21 </text>
</g>
<g>
	<text transform="matrix(1 0 0 1 837.375 143.4976)" fill="#A478D6" font-family="'CrimsonText-Roman'" font-size="15.6">salvia divinorum</text>
	<text transform="matrix(0.583 0 0 0.583 939.8262 138.3032)" fill="#A478D6" font-family="'CrimsonText-Roman'" font-size="15.6">20 </text>
</g>
<g>
	<text transform="matrix(1 0 0 1 987.6738 143.4976)" fill="#A478D6" font-family="'CrimsonText-Roman'" font-size="15.6">gel caps</text>
	<text transform="matrix(0.583 0 0 0.583 1034.626 138.3032)" fill="#A478D6" font-family="'CrimsonText-Roman'" font-size="15.6">18 </text>
</g>
<g>
	<text transform="matrix(1 0 0 1 1082.4746 143.3452)" fill="#A478D6" font-family="'CrimsonText-Roman'" font-size="12">fine powder</text>
	<text transform="matrix(0.583 0 0 0.583 1139.123 139.3491)" fill="#A478D6" font-family="'CrimsonText-Roman'" font-size="12">17 </text>
</g>
<g>
	<text transform="matrix(1 0 0 1 7.2939 177.7944)" fill="#A478D6" font-family="'CrimsonText-Roman'" font-size="12">banisteriopsis caapi</text>
	<text transform="matrix(0.583 0 0 0.583 98.1611 173.7983)" fill="#A478D6" font-family="'CrimsonText-Roman'" font-size="12">16 </text>
</g>
<g>
	<text transform="matrix(1 0 0 1 166.3843 177.7944)" fill="#A478D6" font-family="'CrimsonText-Roman'" font-size="12">blood pressure</text>
	<text transform="matrix(0.583 0 0 0.583 235.0796 173.7983)" fill="#A478D6" font-family="'CrimsonText-Roman'" font-size="12">16 </text>
</g>
<g>
	<text transform="matrix(1 0 0 1 303.3027 177.7944)" fill="#A478D6" font-family="'CrimsonText-Roman'" font-size="12">ground syrian</text>
	<text transform="matrix(0.583 0 0 0.583 368.6699 173.7983)" fill="#A478D6" font-family="'CrimsonText-Roman'" font-size="12">16 </text>
</g>
<g>
	<text transform="matrix(1 0 0 1 436.8936 177.7944)" fill="#A478D6" font-family="'CrimsonText-Roman'" font-size="12">orange juice</text>
	<text transform="matrix(0.583 0 0 0.583 493.7061 173.7983)" fill="#A478D6" font-family="'CrimsonText-Roman'" font-size="12">15 </text>
</g>
<g>
	<text transform="matrix(1 0 0 1 561.936 177.7485)" fill="#A478D6" font-family="'CrimsonText-Roman'" font-size="12">ascorbic acid</text>
	<text transform="matrix(0.583 0 0 0.583 621.3857 173.7524)" fill="#A478D6" font-family="'CrimsonText-Roman'" font-size="12">14 </text>
</g>
<g>
	<text transform="matrix(1 0 0 1 689.5947 177.7485)" fill="#A478D6" font-family="'CrimsonText-Roman'" font-size="12">hostilis rootbark</text>
	<text transform="matrix(0.583 0 0 0.583 766.9619 173.7524)" fill="#A478D6" font-family="'CrimsonText-Roman'" font-size="12">12 </text>
</g>
<g>
	<text transform="matrix(1 0 0 1 835.1855 177.7485)" fill="#A478D6" font-family="'CrimsonText-Roman'" font-size="12">lime juice</text>
	<text transform="matrix(0.583 0 0 0.583 880.1621 173.7524)" fill="#A478D6" font-family="'CrimsonText-Roman'" font-size="12">12</text>
	<text transform="matrix(1 0 0 1 886.7754 177.7485)" fill="#A478D6" font-family="'CrimsonText-Roman'" font-size="12"> </text>
</g>
<g>
	<text transform="matrix(1 0 0 1 949.5039 177.7485)" fill="#A478D6" font-family="'CrimsonText-Roman'" font-size="12">maoi vault</text>
	<text transform="matrix(0.583 0 0 0.583 999.0625 173.7524)" fill="#A478D6" font-family="'CrimsonText-Roman'" font-size="12">12</text>
	<text transform="matrix(1 0 0 1 1005.6758 177.7485)" fill="#A478D6" font-family="'CrimsonText-Roman'" font-size="12"> </text>
</g>
<g>
	<text transform="matrix(1 0 0 1 1068.4053 177.7485)" fill="#A478D6" font-family="'CrimsonText-Roman'" font-size="12">baby woodrose</text>
	<text transform="matrix(0.583 0 0 0.583 1139.1162 173.7524)" fill="#A478D6" font-family="'CrimsonText-Roman'" font-size="12">11 </text>
</g>
<g>
	<text transform="matrix(1 0 0 1 7.2939 210.5405)" fill="#A478D6" font-family="'CrimsonText-Roman'" font-size="12">dietary restrictions</text>
	<text transform="matrix(0.583 0 0 0.583 95.5127 206.5444)" fill="#A478D6" font-family="'CrimsonText-Roman'" font-size="12">11 </text>
</g>
<g>
	<text transform="matrix(1 0 0 1 160.5186 210.5405)" fill="#A478D6" font-family="'CrimsonText-Roman'" font-size="12">extremely unpleasant</text>
	<text transform="matrix(0.583 0 0 0.583 260.1162 206.5444)" fill="#A478D6" font-family="'CrimsonText-Roman'" font-size="12">11 </text>
</g>
<g>
	<text transform="matrix(1 0 0 1 325.1221 210.5405)" fill="#A478D6" font-family="'CrimsonText-Roman'" font-size="12">glory seeds</text>
	<text transform="matrix(0.583 0 0 0.583 376.3682 206.5444)" fill="#A478D6" font-family="'CrimsonText-Roman'" font-size="12">11 </text>
</g>
<g>
	<text transform="matrix(1 0 0 1 441.374 210.5405)" fill="#A478D6" font-family="'CrimsonText-Roman'" font-size="12">mimosa brew</text>
	<text transform="matrix(0.583 0 0 0.583 505.042 206.5444)" fill="#A478D6" font-family="'CrimsonText-Roman'" font-size="12">11 </text>
</g>
</svg>
