<?xml version="1.0" encoding="utf-8"?>
<!-- Generator: Adobe Illustrator 19.2.1, SVG Export Plug-In . SVG Version: 6.00 Build 0)  -->
<svg version="1.1" id="Layer_1" xmlns="http://www.w3.org/2000/svg" xmlns:xlink="http://www.w3.org/1999/xlink" x="0px" y="0px"
	 viewBox="0 0 1140 500" style="enable-background:new 0 0 1140 500;" xml:space="preserve">
<style type="text/css">
	.st0{fill:#F4F4F4;stroke:#FDFDFD;stroke-miterlimit:10;}
	.st1{font-family:'SourceSansPro-Bold';}
	.st2{font-size:10px;}
	.st3{fill:none;stroke:#F51325;stroke-linejoin:round;}
	.st4{font-family:'SourceSansPro-Light';}
	.st5{fill:none;stroke:#373737;stroke-linejoin:round;}
	.st6{fill:none;stroke:#F51325;stroke-width:10;stroke-linejoin:round;}
	.st7{opacity:0.8;fill:none;stroke:#F51325;stroke-width:10;stroke-linejoin:round;enable-background:new    ;}
	.st8{opacity:0.5;fill:none;stroke:#F51325;stroke-width:10;stroke-linejoin:round;enable-background:new    ;}
	.st9{opacity:0.3;fill:none;stroke:#F51325;stroke-width:10;stroke-linejoin:round;enable-background:new    ;}
	.st10{fill:none;stroke:#000000;stroke-miterlimit:10;}
	.st11{font-family:'SourceSansPro-Regular';}
	.st12{fill:#373737;}
	.st13{font-size:12px;}
	.st14{fill:none;stroke:#373737;stroke-width:0.9854;}
	.st15{fill:none;stroke:#373737;stroke-width:10;stroke-miterlimit:10;}
	.st16{opacity:0.8;fill:none;stroke:#373737;stroke-width:10;stroke-miterlimit:10;enable-background:new    ;}
	.st17{opacity:0.5;fill:none;stroke:#373737;stroke-width:10;stroke-miterlimit:10;enable-background:new    ;}
	.st18{opacity:0.3;fill:none;stroke:#373737;stroke-width:10;stroke-miterlimit:10;enable-background:new    ;}
	.st19{fill:none;stroke:#373737;stroke-width:0.5;stroke-linejoin:round;}
	.st20{fill:#FFFFFF;}
</style>
<g id="livelli">
</g>
<g id="cose_sotto">
</g>
<g id="Layer_1_1_">
</g>
<g id="outliers">
</g>
<g id="boxplot">
</g>
<g id="mediasn">
</g>
<g id="numeri">
</g>
<g>
	<g id="cose_di_lato">
		<g transform="translate(0,0)">
			<g transform="translate(0,43.231756214915826)">
			</g>
		</g>
		<g>
			<rect x="234.8" y="390.3" class="st0" width="900" height="25.2"/>
			<rect x="234.8" y="363.9" class="st0" width="900" height="26.5"/>
			<rect x="234.8" y="337.4" class="st0" width="900" height="26.5"/>
			<rect x="234.8" y="284.4" class="st0" width="900" height="26.5"/>
			<rect x="234.8" y="231.5" class="st0" width="900" height="26.5"/>
			<rect x="234.8" y="205" class="st0" width="900" height="26.5"/>
			<rect x="234.8" y="178.4" class="st0" width="900" height="26.6"/>
			<rect x="234.8" y="151.9" class="st0" width="900" height="26.6"/>
			<rect x="234.8" y="125.3" class="st0" width="900" height="26.6"/>
			<rect x="234.8" y="98.7" class="st0" width="900" height="26.6"/>
			<rect x="234.8" y="257.9" class="st0" width="900" height="26.5"/>
			<rect x="234.8" y="310.9" class="st0" width="900" height="26.5"/>
			<text transform="matrix(1 0 0 1 240.9857 495.4723)" class="st1 st2">10</text>
			<text transform="matrix(1 0 0 1 303.9857 495.4723)" class="st1 st2">13</text>
			<text transform="matrix(1 0 0 1 366.9857 495.4723)" class="st1 st2">15</text>
			<text transform="matrix(1 0 0 1 433.3226 495.4723)" class="st1 st2">9</text>
			<text transform="matrix(1 0 0 1 492.9857 495.4723)" class="st1 st2">21</text>
			<text transform="matrix(1 0 0 1 555.9857 495.4723)" class="st1 st2">35</text>
			<text transform="matrix(1 0 0 1 618.9857 495.4723)" class="st1 st2">39</text>
			<text transform="matrix(1 0 0 1 678.6488 495.4723)" class="st1 st2">129</text>
			<text transform="matrix(1 0 0 1 744.9857 495.4723)" class="st1 st2">69</text>
			<text transform="matrix(1 0 0 1 807.9857 495.4723)" class="st1 st2">42</text>
			<text transform="matrix(1 0 0 1 870.9857 495.4723)" class="st1 st2">35</text>
			<text transform="matrix(1 0 0 1 937.3225 495.4723)" class="st1 st2">7</text>
			<text transform="matrix(1 0 0 1 996.9856 495.4723)" class="st1 st2">12</text>
			<text transform="matrix(1 0 0 1 1059.9856 495.4723)" class="st1 st2">28</text>
			<text transform="matrix(1 0 0 1 1126.3225 495.4723)" class="st1 st2">3</text>
			<circle class="st3" cx="247.7" cy="465.5" r="3.9"/>
			<circle class="st3" cx="310.7" cy="465.5" r="4.5"/>
			<circle class="st3" cx="373.7" cy="465.5" r="4.9"/>
			<circle class="st3" cx="436.7" cy="465.5" r="3.7"/>
			<circle class="st3" cx="499.7" cy="465.5" r="5.8"/>
			<circle class="st3" cx="562.7" cy="465.5" r="7.7"/>
			<circle class="st3" cx="625.7" cy="465.5" r="8.1"/>
			<circle class="st3" cx="688.7" cy="465.5" r="15"/>
			<circle class="st3" cx="751.7" cy="465.5" r="10.9"/>
			<circle class="st3" cx="814.7" cy="465.5" r="8.4"/>
			<circle class="st3" cx="877.7" cy="465.5" r="7.7"/>
			<circle class="st3" cx="940.7" cy="465.5" r="3.2"/>
			<circle class="st3" cx="1003.7" cy="465.5" r="4.3"/>
			<circle class="st3" cx="1066.7" cy="465.5" r="6.8"/>
			<circle class="st3" cx="1129.7" cy="465.5" r="2"/>
			<g transform="translate(9,0)">
				<text transform="matrix(1 0 0 1 229.3119 442.9923)" class="st4 st2">2000</text>
			</g>
			<g transform="translate(72,0)">
				<text transform="matrix(1 0 0 1 229.3119 442.9923)" class="st4 st2">2001</text>
			</g>
			<g transform="translate(135,0)">
				<text transform="matrix(1 0 0 1 229.3118 442.9923)" class="st4 st2">2002</text>
			</g>
			<g transform="translate(198,0)">
				<text transform="matrix(1 0 0 1 229.3118 442.9923)" class="st4 st2">2003</text>
			</g>
			<g transform="translate(261,0)">
				<text transform="matrix(1 0 0 1 229.3118 442.9923)" class="st4 st2">2004</text>
			</g>
			<g transform="translate(324,0)">
				<text transform="matrix(1 0 0 1 229.3119 442.9923)" class="st4 st2">2005</text>
			</g>
			<g transform="translate(387,0)">
				<text transform="matrix(1 0 0 1 229.3119 442.9923)" class="st4 st2">2006</text>
			</g>
			<g transform="translate(450,0)">
				<text transform="matrix(1 0 0 1 229.3119 442.9923)" class="st4 st2">2007</text>
			</g>
			<g transform="translate(513,0)">
				<text transform="matrix(1 0 0 1 229.3119 442.9923)" class="st4 st2">2008</text>
			</g>
			<g transform="translate(576,0)">
				<text transform="matrix(1 0 0 1 229.3118 442.9923)" class="st4 st2">2009</text>
			</g>
			<g transform="translate(639,0)">
				<text transform="matrix(1 0 0 1 229.3118 442.9923)" class="st4 st2">2010</text>
			</g>
			<g transform="translate(702,0)">
				<text transform="matrix(1 0 0 1 229.7571 442.9923)" class="st4 st2">2011</text>
			</g>
			<g transform="translate(765,0)">
				<text transform="matrix(1 0 0 1 229.3118 442.9923)" class="st4 st2">2012</text>
			</g>
			<g transform="translate(828,0)">
				<text transform="matrix(1 0 0 1 229.3118 442.9923)" class="st4 st2">2013</text>
			</g>
			<g transform="translate(891,0)">
				<text transform="matrix(1 0 0 1 229.3118 442.9923)" class="st4 st2">2014</text>
			</g>
			<g>
				<g>
					<g>
						<g>
							<g>
								<line class="st5" x1="249.5" y1="260.3" x2="243.9" y2="254.7"/>
								<line class="st5" x1="249.5" y1="254.7" x2="243.9" y2="260.3"/>
							</g>
						</g>
					</g>
				</g>
			</g>
			<g>
				<g>
					<g>
						<g>
							<g>
								<line class="st5" x1="375.5" y1="260.3" x2="369.9" y2="254.7"/>
								<line class="st5" x1="375.5" y1="254.7" x2="369.9" y2="260.3"/>
							</g>
						</g>
					</g>
				</g>
			</g>
			<g>
				<g>
					<g>
						<g>
							<g>
								<line class="st5" x1="438.5" y1="88.3" x2="432.9" y2="82.7"/>
								<line class="st5" x1="438.5" y1="82.7" x2="432.9" y2="88.3"/>
							</g>
						</g>
					</g>
				</g>
			</g>
			<g>
				<g>
					<g>
						<g>
							<g>
								<line class="st5" x1="501.5" y1="220.6" x2="495.9" y2="215"/>
								<line class="st5" x1="501.5" y1="215" x2="495.9" y2="220.6"/>
							</g>
						</g>
					</g>
				</g>
			</g>
			<g>
				<g>
					<g>
						<g>
							<g>
								<line class="st5" x1="564.5" y1="220.6" x2="558.9" y2="215"/>
								<line class="st5" x1="564.5" y1="215" x2="558.9" y2="220.6"/>
							</g>
						</g>
					</g>
				</g>
			</g>
			<g>
				<g>
					<g>
						<g>
							<g>
								<line class="st5" x1="564.5" y1="207.4" x2="558.9" y2="201.8"/>
								<line class="st5" x1="564.5" y1="201.8" x2="558.9" y2="207.4"/>
							</g>
						</g>
					</g>
				</g>
			</g>
			<g>
				<g>
					<g>
						<g>
							<g>
								<line class="st5" x1="627.5" y1="319.8" x2="621.9" y2="314.2"/>
								<line class="st5" x1="627.5" y1="314.2" x2="621.9" y2="319.8"/>
							</g>
						</g>
					</g>
				</g>
			</g>
			<g>
				<g>
					<g>
						<g>
							<g>
								<line class="st5" x1="627.5" y1="300" x2="621.9" y2="294.4"/>
								<line class="st5" x1="627.5" y1="294.4" x2="621.9" y2="300"/>
							</g>
						</g>
					</g>
				</g>
			</g>
			<g>
				<g>
					<g>
						<g>
							<g>
								<line class="st5" x1="627.5" y1="300" x2="621.9" y2="294.4"/>
								<line class="st5" x1="627.5" y1="294.4" x2="621.9" y2="300"/>
							</g>
						</g>
					</g>
				</g>
			</g>
			<g>
				<g>
					<g>
						<g>
							<g>
								<line class="st5" x1="690.5" y1="220.6" x2="684.9" y2="215"/>
								<line class="st5" x1="690.5" y1="215" x2="684.9" y2="220.6"/>
							</g>
						</g>
					</g>
				</g>
			</g>
			<g>
				<g>
					<g>
						<g>
							<g>
								<line class="st5" x1="690.5" y1="154.4" x2="684.9" y2="148.8"/>
								<line class="st5" x1="690.5" y1="148.8" x2="684.9" y2="154.4"/>
							</g>
						</g>
					</g>
				</g>
			</g>
			<g>
				<g>
					<g>
						<g>
							<g>
								<line class="st5" x1="690.5" y1="154.4" x2="684.9" y2="148.8"/>
								<line class="st5" x1="690.5" y1="148.8" x2="684.9" y2="154.4"/>
							</g>
						</g>
					</g>
				</g>
			</g>
			<g>
				<g>
					<g>
						<g>
							<g>
								<line class="st5" x1="690.5" y1="141.2" x2="684.9" y2="135.6"/>
								<line class="st5" x1="690.5" y1="135.6" x2="684.9" y2="141.2"/>
							</g>
						</g>
					</g>
				</g>
			</g>
			<g>
				<g>
					<g>
						<g>
							<g>
								<line class="st5" x1="753.5" y1="319.8" x2="747.9" y2="314.2"/>
								<line class="st5" x1="753.5" y1="314.2" x2="747.9" y2="319.8"/>
							</g>
						</g>
					</g>
				</g>
			</g>
			<g>
				<g>
					<g>
						<g>
							<g>
								<line class="st5" x1="753.5" y1="313.2" x2="747.9" y2="307.6"/>
								<line class="st5" x1="753.5" y1="307.6" x2="747.9" y2="313.2"/>
							</g>
						</g>
					</g>
				</g>
			</g>
			<g>
				<g>
					<g>
						<g>
							<g>
								<line class="st5" x1="753.5" y1="313.2" x2="747.9" y2="307.6"/>
								<line class="st5" x1="753.5" y1="307.6" x2="747.9" y2="313.2"/>
							</g>
						</g>
					</g>
				</g>
			</g>
			<g>
				<g>
					<g>
						<g>
							<g>
								<line class="st5" x1="753.5" y1="300" x2="747.9" y2="294.4"/>
								<line class="st5" x1="753.5" y1="294.4" x2="747.9" y2="300"/>
							</g>
						</g>
					</g>
				</g>
			</g>
			<g>
				<g>
					<g>
						<g>
							<g>
								<line class="st5" x1="753.5" y1="286.8" x2="747.9" y2="281.2"/>
								<line class="st5" x1="753.5" y1="281.2" x2="747.9" y2="286.8"/>
							</g>
						</g>
					</g>
				</g>
			</g>
			<g>
				<g>
					<g>
						<g>
							<g>
								<line class="st5" x1="753.5" y1="286.8" x2="747.9" y2="281.2"/>
								<line class="st5" x1="753.5" y1="281.2" x2="747.9" y2="286.8"/>
							</g>
						</g>
					</g>
				</g>
			</g>
			<g>
				<g>
					<g>
						<g>
							<g>
								<line class="st5" x1="753.5" y1="180.9" x2="747.9" y2="175.3"/>
								<line class="st5" x1="753.5" y1="175.3" x2="747.9" y2="180.9"/>
							</g>
						</g>
					</g>
				</g>
			</g>
			<g>
				<g>
					<g>
						<g>
							<g>
								<line class="st5" x1="816.5" y1="260.3" x2="810.9" y2="254.7"/>
								<line class="st5" x1="816.5" y1="254.7" x2="810.9" y2="260.3"/>
							</g>
						</g>
					</g>
				</g>
			</g>
			<g>
				<g>
					<g>
						<g>
							<g>
								<line class="st5" x1="816.5" y1="220.6" x2="810.9" y2="215"/>
								<line class="st5" x1="816.5" y1="215" x2="810.9" y2="220.6"/>
							</g>
						</g>
					</g>
				</g>
			</g>
			<g>
				<g>
					<g>
						<g>
							<g>
								<line class="st5" x1="879.5" y1="286.8" x2="873.9" y2="281.2"/>
								<line class="st5" x1="879.5" y1="281.2" x2="873.9" y2="286.8"/>
							</g>
						</g>
					</g>
				</g>
			</g>
			<g>
				<g>
					<g>
						<g>
							<g>
								<line class="st5" x1="879.5" y1="220.6" x2="873.9" y2="215"/>
								<line class="st5" x1="879.5" y1="215" x2="873.9" y2="220.6"/>
							</g>
						</g>
					</g>
				</g>
			</g>
			<g>
				<g>
					<g>
						<g>
							<g>
								<line class="st5" x1="879.5" y1="220.6" x2="873.9" y2="215"/>
								<line class="st5" x1="879.5" y1="215" x2="873.9" y2="220.6"/>
							</g>
						</g>
					</g>
				</g>
			</g>
			<g>
				<g>
					<g>
						<g>
							<g>
								<line class="st5" x1="1005.5" y1="300" x2="999.9" y2="294.4"/>
								<line class="st5" x1="1005.5" y1="294.4" x2="999.9" y2="300"/>
							</g>
						</g>
					</g>
				</g>
			</g>
			<g>
				<g>
					<g>
						<g>
							<g>
								<line class="st5" x1="1005.5" y1="300" x2="999.9" y2="294.4"/>
								<line class="st5" x1="1005.5" y1="294.4" x2="999.9" y2="300"/>
							</g>
						</g>
					</g>
				</g>
			</g>
			<g>
				<g>
					<g>
						<g>
							<g>
								<line class="st5" x1="1068.5" y1="280.2" x2="1062.9" y2="274.6"/>
								<line class="st5" x1="1068.5" y1="274.6" x2="1062.9" y2="280.2"/>
							</g>
						</g>
					</g>
				</g>
			</g>
			<g>
				<g>
					<g>
						<g>
							<g>
								<line class="st5" x1="1068.5" y1="260.3" x2="1062.9" y2="254.7"/>
								<line class="st5" x1="1068.5" y1="254.7" x2="1062.9" y2="260.3"/>
							</g>
						</g>
					</g>
				</g>
			</g>
			<g>
				<g>
					<g>
						<g>
							<g>
								<line class="st5" x1="1068.5" y1="88.3" x2="1062.9" y2="82.7"/>
								<line class="st5" x1="1068.5" y1="82.7" x2="1062.9" y2="88.3"/>
							</g>
						</g>
					</g>
				</g>
			</g>
			<line class="st6" x1="246.7" y1="379.9" x2="246.7" y2="376.6"/>
			<line class="st7" x1="246.7" y1="389.1" x2="246.7" y2="379.9"/>
			<line class="st8" x1="246.7" y1="403.1" x2="246.7" y2="389.1"/>
			<line class="st9" x1="246.7" y1="413" x2="246.7" y2="403.1"/>
			<line class="st6" x1="309.7" y1="376.6" x2="309.7" y2="336.9"/>
			<line class="st7" x1="309.7" y1="389.8" x2="309.7" y2="376.6"/>
			<line class="st8" x1="309.7" y1="403.1" x2="309.7" y2="389.8"/>
			<line class="st9" x1="309.7" y1="415.5" x2="309.7" y2="403.1"/>
			<line class="st6" x1="372.7" y1="356.7" x2="372.7" y2="310.4"/>
			<line class="st8" x1="372.7" y1="389.8" x2="372.7" y2="356.7"/>
			<line class="st9" x1="372.7" y1="391.3" x2="372.7" y2="389.8"/>
			<line class="st7" x1="435.7" y1="363.4" x2="435.7" y2="284"/>
			<line class="st8" x1="435.7" y1="389.8" x2="435.7" y2="363.4"/>
			<line class="st9" x1="435.7" y1="409.7" x2="435.7" y2="389.8"/>
			<line class="st6" x1="498.7" y1="336.9" x2="498.7" y2="284"/>
			<line class="st7" x1="498.7" y1="376.6" x2="498.7" y2="336.9"/>
			<line class="st8" x1="498.7" y1="389.8" x2="498.7" y2="376.6"/>
			<line class="st9" x1="498.7" y1="409.7" x2="498.7" y2="389.8"/>
			<line class="st6" x1="561.7" y1="336.9" x2="561.7" y2="257.5"/>
			<line class="st7" x1="561.7" y1="376.6" x2="561.7" y2="336.9"/>
			<line class="st8" x1="561.7" y1="389.8" x2="561.7" y2="376.6"/>
			<line class="st9" x1="561.7" y1="407.4" x2="561.7" y2="389.8"/>
			<line class="st6" x1="624.7" y1="373.3" x2="624.7" y2="336.9"/>
			<line class="st7" x1="624.7" y1="389.8" x2="624.7" y2="373.3"/>
			<line class="st8" x1="624.7" y1="403.1" x2="624.7" y2="389.8"/>
			<line class="st9" x1="624.7" y1="409.7" x2="624.7" y2="403.1"/>
			<line class="st6" x1="687.7" y1="336.9" x2="687.7" y2="257.5"/>
			<line class="st7" x1="687.7" y1="376.6" x2="687.7" y2="336.9"/>
			<line class="st8" x1="687.7" y1="389.8" x2="687.7" y2="376.6"/>
			<line class="st9" x1="687.7" y1="409.7" x2="687.7" y2="389.8"/>
			<line class="st6" x1="750.7" y1="376.6" x2="750.7" y2="336.9"/>
			<line class="st7" x1="750.7" y1="389.8" x2="750.7" y2="376.6"/>
			<line class="st8" x1="750.7" y1="403.1" x2="750.7" y2="389.8"/>
			<line class="st9" x1="750.7" y1="412.3" x2="750.7" y2="403.1"/>
			<line class="st6" x1="813.7" y1="350.1" x2="813.7" y2="297.2"/>
			<line class="st7" x1="813.7" y1="379.9" x2="813.7" y2="350.1"/>
			<line class="st8" x1="813.7" y1="399.1" x2="813.7" y2="379.9"/>
			<line class="st9" x1="813.7" y1="413" x2="813.7" y2="399.1"/>
			<line class="st6" x1="876.7" y1="350.1" x2="876.7" y2="323.7"/>
			<line class="st7" x1="876.7" y1="376.6" x2="876.7" y2="350.1"/>
			<line class="st8" x1="876.7" y1="389.8" x2="876.7" y2="376.6"/>
			<line class="st9" x1="876.7" y1="403.1" x2="876.7" y2="389.8"/>
			<line class="st7" x1="939.7" y1="389.8" x2="939.7" y2="376.6"/>
			<line class="st8" x1="939.7" y1="396.4" x2="939.7" y2="389.8"/>
			<line class="st9" x1="939.7" y1="403.1" x2="939.7" y2="396.4"/>
			<line class="st6" x1="1002.7" y1="373.3" x2="1002.7" y2="363.4"/>
			<line class="st7" x1="1002.7" y1="389.8" x2="1002.7" y2="373.3"/>
			<line class="st8" x1="1002.7" y1="403.1" x2="1002.7" y2="389.8"/>
			<line class="st6" x1="1065.7" y1="346.8" x2="1065.7" y2="284"/>
			<line class="st7" x1="1065.7" y1="376.6" x2="1065.7" y2="346.8"/>
			<line class="st8" x1="1065.7" y1="391.5" x2="1065.7" y2="376.6"/>
			<line class="st9" x1="1065.7" y1="406.4" x2="1065.7" y2="391.5"/>
			<line class="st8" x1="1128.7" y1="393.1" x2="1128.7" y2="389.8"/>
			<line class="st9" x1="1128.7" y1="396.4" x2="1128.7" y2="393.1"/>
			<line class="st10" x1="235.3" y1="389.1" x2="258" y2="389.1"/>
			<line class="st10" x1="298.3" y1="389.8" x2="321" y2="389.8"/>
			<line class="st10" x1="361.3" y1="389.8" x2="384" y2="389.8"/>
			<line class="st10" x1="424.3" y1="363.4" x2="447" y2="363.4"/>
			<line class="st10" x1="487.3" y1="376.6" x2="510" y2="376.6"/>
			<line class="st10" x1="550.3" y1="376.6" x2="573" y2="376.6"/>
			<line class="st10" x1="613.3" y1="389.8" x2="636" y2="389.8"/>
			<line class="st10" x1="676.3" y1="376.6" x2="699" y2="376.6"/>
			<line class="st10" x1="739.3" y1="389.5" x2="762" y2="389.5"/>
			<line class="st10" x1="802.3" y1="379.9" x2="825" y2="379.9"/>
			<line class="st10" x1="865.3" y1="376.6" x2="888" y2="376.6"/>
			<line class="st10" x1="928.3" y1="389.8" x2="951" y2="389.8"/>
			<line class="st10" x1="991.3" y1="390.5" x2="1014" y2="390.5"/>
			<line class="st10" x1="1054.3" y1="376.6" x2="1077" y2="376.6"/>
			<line class="st10" x1="1117.3" y1="390.5" x2="1140" y2="390.5"/>
			<text transform="matrix(1 0 0 1 205.304 393.6428)" class="st11 st2">0.02</text>
			<text transform="matrix(1 0 0 1 205.304 418.1428)" class="st11 st2">0.00</text>
			<text transform="matrix(1 0 0 1 205.304 367.1793)" class="st11 st2">0.04</text>
			<text transform="matrix(1 0 0 1 205.304 340.7157)" class="st11 st2">0.06</text>
			<text transform="matrix(1 0 0 1 205.304 314.2522)" class="st11 st2">0.08</text>
			<text transform="matrix(1 0 0 1 205.304 287.7887)" class="st11 st2">0.10</text>
			<text transform="matrix(1 0 0 1 205.304 261.3252)" class="st11 st2">0.12</text>
			<text transform="matrix(1 0 0 1 205.304 234.8617)" class="st11 st2">0.14</text>
			<text transform="matrix(1 0 0 1 205.304 208.3981)" class="st11 st2">0.16</text>
			<text transform="matrix(1 0 0 1 205.304 181.9346)" class="st11 st2">0.18</text>
			<text transform="matrix(1 0 0 1 205.304 155.4711)" class="st11 st2">0.20</text>
			<text transform="matrix(1 0 0 1 205.304 129.0076)" class="st11 st2">0.22</text>
			<text transform="matrix(1 0 0 1 205.304 102.5443)" class="st11 st2">0.24</text>
		</g>
		<g id="mediane">
			<g>
				<text transform="matrix(1 0 0 1 3.051758e-04 147.2158)" class="st12 st4 st13">outliers</text>
				<text transform="matrix(1 0 0 1 3.051758e-04 322.5173)" class="st12 st4 st13">25% of</text>
				<text transform="matrix(1 0 0 1 3.051758e-04 336.9173)" class="st12 st4 st13">reports</text>
				<text transform="matrix(1 0 0 1 1.220703e-04 381.3167)" class="st12 st4 st13">25% of</text>
				<text transform="matrix(1 0 0 1 1.220703e-04 395.7166)" class="st12 st4 st13">reports</text>
				<text transform="matrix(1 0 0 1 1.220703e-04 442.7121)" class="st12 st4 st13">year</text>
				<text transform="matrix(1 0 0 1 0 205.0167)" class="st12 st4 st13">25% of</text>
				<text transform="matrix(1 0 0 1 0 219.4167)" class="st12 st4 st13">reports</text>
				<text transform="matrix(1 0 0 1 -1.831055e-04 263.767)" class="st12 st4 st13">25% of</text>
				<text transform="matrix(1 0 0 1 -1.831055e-04 278.167)" class="st12 st4 st13">reports</text>
				<text transform="matrix(1 0 0 1 3.051758e-04 96.9531)" class="st12 st1 st13">LEGEND</text>
				<text transform="matrix(1 0 0 1 0 300.3524)" class="st12 st4 st13">median</text>
				<g>
					<text transform="matrix(1 0 0 1 -1.220703e-04 481.5556)" class="st12 st4 st13">n° of</text>
					<text transform="matrix(1 0 0 1 -1.220703e-04 495.9556)" class="st12 st4 st13">reports</text>
				</g>
				<circle class="st14" cx="100.3" cy="464.7" r="5.6"/>
				<text transform="matrix(1 0 0 1 91.0204 442.1692)" class="st12 st4 st2">2000</text>
				<line class="st15" x1="100.3" y1="238.4" x2="100.3" y2="179.6"/>
				<line class="st15" x1="100.3" y1="238.4" x2="100.3" y2="179.6"/>
				<line class="st16" x1="100.3" y1="297.1" x2="100.3" y2="238.4"/>
				<line class="st15" x1="100.3" y1="238.4" x2="100.3" y2="179.6"/>
				<line class="st17" x1="100.3" y1="355.9" x2="100.3" y2="297.1"/>
				<line class="st18" x1="100.3" y1="414.7" x2="100.3" y2="355.9"/>
				<line class="st19" x1="88.3" y1="297.1" x2="112.3" y2="297.1"/>
				<text transform="matrix(1 0 0 1 97.7964 496.1702)" class="st12 st1 st2">4</text>
				<line class="st19" x1="102.3" y1="146.8" x2="98.3" y2="142.8"/>
				<line class="st19" x1="102.3" y1="142.8" x2="98.3" y2="146.8"/>
				<g>
					<g>
						<line class="st19" x1="73.8" y1="144.8" x2="53.6" y2="144.8"/>
						<g>
							<polygon class="st12" points="72.1,142.7 71.8,143.1 73.6,144.8 71.8,146.4 72.1,146.8 74.3,144.8 							"/>
						</g>
					</g>
				</g>
				<g>
					<g>
						<line class="st19" x1="73.8" y1="209" x2="53.6" y2="209"/>
						<g>
							<polygon class="st12" points="72.1,206.9 71.8,207.3 73.6,209 71.8,210.6 72.1,211 74.3,209 							"/>
						</g>
					</g>
				</g>
				<g>
					<g>
						<line class="st19" x1="73.8" y1="268.5" x2="53.6" y2="268.5"/>
						<g>
							<polygon class="st12" points="72.1,266.5 71.8,266.8 73.6,268.5 71.8,270.2 72.1,270.6 74.3,268.5 							"/>
						</g>
					</g>
				</g>
				<g>
					<g>
						<line class="st19" x1="73.8" y1="297.1" x2="53.6" y2="297.1"/>
						<g>
							<polygon class="st12" points="72.1,295 71.8,295.4 73.6,297.1 71.8,298.7 72.1,299.1 74.3,297.1 							"/>
						</g>
					</g>
				</g>
				<g>
					<g>
						<line class="st19" x1="73.8" y1="326.5" x2="53.6" y2="326.5"/>
						<g>
							<polygon class="st12" points="72.1,324.4 71.8,324.8 73.6,326.5 71.8,328.1 72.1,328.5 74.3,326.5 							"/>
						</g>
					</g>
				</g>
				<g>
					<g>
						<line class="st19" x1="73.8" y1="385.3" x2="53.6" y2="385.3"/>
						<g>
							<polygon class="st12" points="72.1,383.2 71.8,383.6 73.6,385.3 71.8,386.9 72.1,387.3 74.3,385.3 							"/>
						</g>
					</g>
				</g>
				<g>
					<g>
						<line class="st19" x1="73.8" y1="439.5" x2="53.6" y2="439.5"/>
						<g>
							<polygon class="st12" points="72.1,437.4 71.8,437.8 73.6,439.5 71.8,441.1 72.1,441.5 74.3,439.5 							"/>
						</g>
					</g>
				</g>
				<g>
					<g>
						<line class="st19" x1="73.8" y1="464.7" x2="53.6" y2="464.7"/>
						<g>
							<polygon class="st12" points="72.1,462.6 71.8,463 73.6,464.7 71.8,466.3 72.1,466.7 74.3,464.7 							"/>
						</g>
					</g>
				</g>
				<g>
					<g>
						<line class="st19" x1="73.8" y1="492.2" x2="53.6" y2="492.2"/>
						<g>
							<polygon class="st12" points="72.1,490.2 71.8,490.6 73.6,492.2 71.8,493.9 72.1,494.3 74.3,492.2 							"/>
						</g>
					</g>
				</g>
				<polyline class="st19" points="91,456.9 86.3,456.9 86.3,472.4 91,472.4 				"/>
			</g>
		</g>
	</g>
	<g>
		<g>
			<line class="st19" x1="151.5" y1="413" x2="151.5" y2="103.1"/>
			<g>
				<polygon class="st12" points="153.5,104.8 153.2,105.1 151.5,103.3 149.8,105.1 149.5,104.8 151.5,102.6 				"/>
			</g>
		</g>
	</g>
	<g>
		<rect x="123.3" y="230.6" class="st20" width="60.7" height="39.7"/>
		<g>
			<text transform="matrix(1 0 0 1 135 244.8617)" class="st12 st4 st13">dosage</text>
			<text transform="matrix(1 0 0 1 135 259.2617)" class="st12 st4 st13">(grams)</text>
		</g>
	</g>
</g>
</svg>
