<?xml version="1.0" encoding="utf-8"?>
<!-- Generator: Adobe Illustrator 19.1.0, SVG Export Plug-In . SVG Version: 6.00 Build 0)  -->
<svg version="1.1" xmlns="http://www.w3.org/2000/svg" xmlns:xlink="http://www.w3.org/1999/xlink" x="0px" y="0px"
	 viewBox="132 170.9 1140 500" enable-background="new 132 170.9 1140 500" xml:space="preserve">
<defs>
  <style type="text/css">@import url(https://fonts.googleapis.com/css?family=Crimson+Text);</style>
  <style type="text/css">@import url(https://fonts.googleapis.com/css?family=Source+Sans+Pro:300,400,700);</style>
</defs>
	 
<g id="livelli">
</g>
<g id="cose_sotto">
</g>
<g id="Layer_1">
</g>
<g id="outliers">
</g>
<g id="boxplot">
</g>
<g id="mediasn">
</g>
<g id="numeri">
</g>
<g id="cose_di_lato">
	<g transform="translate(0,0)">
		<g transform="translate(0,43.231756214915826)">
		</g>
	</g>
	<g>
		<rect x="366.8" y="535.7" fill="#F4F4F4" stroke="#FDFDFD" stroke-miterlimit="10" width="900" height="25.2"/>
		<rect x="366.8" y="509.3" fill="#F4F4F4" stroke="#FDFDFD" stroke-miterlimit="10" width="900" height="26.5"/>
		<rect x="366.8" y="482.8" fill="#F4F4F4" stroke="#FDFDFD" stroke-miterlimit="10" width="900" height="26.5"/>
		<rect x="366.8" y="429.8" fill="#F4F4F4" stroke="#FDFDFD" stroke-miterlimit="10" width="900" height="26.5"/>
		<rect x="366.8" y="376.9" fill="#F4F4F4" stroke="#FDFDFD" stroke-miterlimit="10" width="900" height="26.5"/>
		<rect x="366.8" y="350.4" fill="#F4F4F4" stroke="#FDFDFD" stroke-miterlimit="10" width="900" height="26.5"/>
		<rect x="366.8" y="323.8" fill="#F4F4F4" stroke="#FDFDFD" stroke-miterlimit="10" width="900" height="26.6"/>
		<rect x="366.8" y="297.3" fill="#F4F4F4" stroke="#FDFDFD" stroke-miterlimit="10" width="900" height="26.6"/>
		<rect x="366.8" y="270.7" fill="#F4F4F4" stroke="#FDFDFD" stroke-miterlimit="10" width="900" height="26.6"/>
		<rect x="366.8" y="244.1" fill="#F4F4F4" stroke="#FDFDFD" stroke-miterlimit="10" width="900" height="26.6"/>
		<rect x="366.8" y="403.3" fill="#F4F4F4" stroke="#FDFDFD" stroke-miterlimit="10" width="900" height="26.5"/>
		<rect x="366.8" y="456.3" fill="#F4F4F4" stroke="#FDFDFD" stroke-miterlimit="10" width="900" height="26.5"/>
		<text transform="matrix(1 0 0 1 372.9857 640.89)" font-family="'Source Sans Pro', sans-serif" font-weight="700"  font-size="10px">10</text>
		<text transform="matrix(1 0 0 1 435.9857 640.89)" font-family="'Source Sans Pro', sans-serif" font-weight="700"  font-size="10px">13</text>
		<text transform="matrix(1 0 0 1 498.9857 640.89)" font-family="'Source Sans Pro', sans-serif" font-weight="700"  font-size="10px">15</text>
		<text transform="matrix(1 0 0 1 565.3226 640.89)" font-family="'Source Sans Pro', sans-serif" font-weight="700"  font-size="10px">9</text>
		<text transform="matrix(1 0 0 1 624.9857 640.89)" font-family="'Source Sans Pro', sans-serif" font-weight="700"  font-size="10px">21</text>
		<text transform="matrix(1 0 0 1 687.9857 640.89)" font-family="'Source Sans Pro', sans-serif" font-weight="700"  font-size="10px">35</text>
		<text transform="matrix(1 0 0 1 750.9857 640.89)" font-family="'Source Sans Pro', sans-serif" font-weight="700"  font-size="10px">39</text>
		<text transform="matrix(1 0 0 1 810.6488 640.89)" font-family="'Source Sans Pro', sans-serif" font-weight="700"  font-size="10px">129</text>
		<text transform="matrix(1 0 0 1 876.9857 640.89)" font-family="'Source Sans Pro', sans-serif" font-weight="700"  font-size="10px">69</text>
		<text transform="matrix(1 0 0 1 939.9857 640.89)" font-family="'Source Sans Pro', sans-serif" font-weight="700"  font-size="10px">42</text>
		<text transform="matrix(1 0 0 1 1002.9857 640.89)" font-family="'Source Sans Pro', sans-serif" font-weight="700"  font-size="10px">35</text>
		<text transform="matrix(1 0 0 1 1069.3225 640.89)" font-family="'Source Sans Pro', sans-serif" font-weight="700"  font-size="10px">7</text>
		<text transform="matrix(1 0 0 1 1128.9856 640.89)" font-family="'Source Sans Pro', sans-serif" font-weight="700"  font-size="10px">12</text>
		<text transform="matrix(1 0 0 1 1191.9856 640.89)" font-family="'Source Sans Pro', sans-serif" font-weight="700"  font-size="10px">28</text>
		<text transform="matrix(1 0 0 1 1258.3225 640.89)" font-family="'Source Sans Pro', sans-serif" font-weight="700"  font-size="10px">3</text>
		<circle fill="none" stroke="#F51325" stroke-linejoin="round" cx="379.7" cy="610.9" r="3.9"/>
		<circle fill="none" stroke="#F51325" stroke-linejoin="round" cx="442.7" cy="610.9" r="4.5"/>
		<circle fill="none" stroke="#F51325" stroke-linejoin="round" cx="505.7" cy="610.9" r="4.9"/>
		<circle fill="none" stroke="#F51325" stroke-linejoin="round" cx="568.7" cy="610.9" r="3.7"/>
		<circle fill="none" stroke="#F51325" stroke-linejoin="round" cx="631.7" cy="610.9" r="5.8"/>
		<circle fill="none" stroke="#F51325" stroke-linejoin="round" cx="694.7" cy="610.9" r="7.7"/>
		<circle fill="none" stroke="#F51325" stroke-linejoin="round" cx="757.7" cy="610.9" r="8.1"/>
		<circle fill="none" stroke="#F51325" stroke-linejoin="round" cx="820.7" cy="610.9" r="15"/>
		<circle fill="none" stroke="#F51325" stroke-linejoin="round" cx="883.7" cy="610.9" r="10.9"/>
		<circle fill="none" stroke="#F51325" stroke-linejoin="round" cx="946.7" cy="610.9" r="8.4"/>
		<circle fill="none" stroke="#F51325" stroke-linejoin="round" cx="1009.7" cy="610.9" r="7.7"/>
		<circle fill="none" stroke="#F51325" stroke-linejoin="round" cx="1072.7" cy="610.9" r="3.2"/>
		<circle fill="none" stroke="#F51325" stroke-linejoin="round" cx="1135.7" cy="610.9" r="4.3"/>
		<circle fill="none" stroke="#F51325" stroke-linejoin="round" cx="1198.7" cy="610.9" r="6.8"/>
		<circle fill="none" stroke="#F51325" stroke-linejoin="round" cx="1261.7" cy="610.9" r="2"/>
		<g transform="translate(9,0)">
			<text transform="matrix(1 0 0 1 361.3119 588.41)" font-family="'Source Sans Pro', sans-serif" font-weight="300"  font-size="10px">2000</text>
		</g>
		<g transform="translate(72,0)">
			<text transform="matrix(1 0 0 1 361.3119 588.41)" font-family="'Source Sans Pro', sans-serif" font-weight="300"  font-size="10px">2001</text>
		</g>
		<g transform="translate(135,0)">
			<text transform="matrix(1 0 0 1 361.3118 588.41)" font-family="'Source Sans Pro', sans-serif" font-weight="300"  font-size="10px">2002</text>
		</g>
		<g transform="translate(198,0)">
			<text transform="matrix(1 0 0 1 361.3118 588.41)" font-family="'Source Sans Pro', sans-serif" font-weight="300"  font-size="10px">2003</text>
		</g>
		<g transform="translate(261,0)">
			<text transform="matrix(1 0 0 1 361.3118 588.41)" font-family="'Source Sans Pro', sans-serif" font-weight="300"  font-size="10px">2004</text>
		</g>
		<g transform="translate(324,0)">
			<text transform="matrix(1 0 0 1 361.3119 588.41)" font-family="'Source Sans Pro', sans-serif" font-weight="300"  font-size="10px">2005</text>
		</g>
		<g transform="translate(387,0)">
			<text transform="matrix(1 0 0 1 361.3119 588.41)" font-family="'Source Sans Pro', sans-serif" font-weight="300"  font-size="10px">2006</text>
		</g>
		<g transform="translate(450,0)">
			<text transform="matrix(1 0 0 1 361.3119 588.41)" font-family="'Source Sans Pro', sans-serif" font-weight="300"  font-size="10px">2007</text>
		</g>
		<g transform="translate(513,0)">
			<text transform="matrix(1 0 0 1 361.3119 588.41)" font-family="'Source Sans Pro', sans-serif" font-weight="300"  font-size="10px">2008</text>
		</g>
		<g transform="translate(576,0)">
			<text transform="matrix(1 0 0 1 361.3118 588.41)" font-family="'Source Sans Pro', sans-serif" font-weight="300"  font-size="10px">2009</text>
		</g>
		<g transform="translate(639,0)">
			<text transform="matrix(1 0 0 1 361.3118 588.41)" font-family="'Source Sans Pro', sans-serif" font-weight="300"  font-size="10px">2010</text>
		</g>
		<g transform="translate(702,0)">
			<text transform="matrix(1 0 0 1 361.7571 588.41)" font-family="'Source Sans Pro', sans-serif" font-weight="300"  font-size="10px">2011</text>
		</g>
		<g transform="translate(765,0)">
			<text transform="matrix(1 0 0 1 361.3118 588.41)" font-family="'Source Sans Pro', sans-serif" font-weight="300"  font-size="10px">2012</text>
		</g>
		<g transform="translate(828,0)">
			<text transform="matrix(1 0 0 1 361.3118 588.41)" font-family="'Source Sans Pro', sans-serif" font-weight="300"  font-size="10px">2013</text>
		</g>
		<g transform="translate(891,0)">
			<text transform="matrix(1 0 0 1 361.3118 588.41)" font-family="'Source Sans Pro', sans-serif" font-weight="300"  font-size="10px">2014</text>
		</g>
		<g>
			<g>
				<g>
					<g>
						<g>
							<line fill="none" stroke="#373737" stroke-linejoin="round" x1="381.5" y1="405.7" x2="375.9" y2="400.1"/>
							<line fill="none" stroke="#373737" stroke-linejoin="round" x1="381.5" y1="400.1" x2="375.9" y2="405.7"/>
						</g>
					</g>
				</g>
			</g>
		</g>
		<g>
			<g>
				<g>
					<g>
						<g>
							<line fill="none" stroke="#373737" stroke-linejoin="round" x1="507.5" y1="405.7" x2="501.9" y2="400.1"/>
							<line fill="none" stroke="#373737" stroke-linejoin="round" x1="507.5" y1="400.1" x2="501.9" y2="405.7"/>
						</g>
					</g>
				</g>
			</g>
		</g>
		<g>
			<g>
				<g>
					<g>
						<g>
							<line fill="none" stroke="#373737" stroke-linejoin="round" x1="570.5" y1="233.7" x2="564.9" y2="228.1"/>
							<line fill="none" stroke="#373737" stroke-linejoin="round" x1="570.5" y1="228.1" x2="564.9" y2="233.7"/>
						</g>
					</g>
				</g>
			</g>
		</g>
		<g>
			<g>
				<g>
					<g>
						<g>
							<line fill="none" stroke="#373737" stroke-linejoin="round" x1="633.5" y1="366" x2="627.9" y2="360.4"/>
							<line fill="none" stroke="#373737" stroke-linejoin="round" x1="633.5" y1="360.4" x2="627.9" y2="366"/>
						</g>
					</g>
				</g>
			</g>
		</g>
		<g>
			<g>
				<g>
					<g>
						<g>
							<line fill="none" stroke="#373737" stroke-linejoin="round" x1="696.5" y1="366" x2="690.9" y2="360.4"/>
							<line fill="none" stroke="#373737" stroke-linejoin="round" x1="696.5" y1="360.4" x2="690.9" y2="366"/>
						</g>
					</g>
				</g>
			</g>
		</g>
		<g>
			<g>
				<g>
					<g>
						<g>
							<line fill="none" stroke="#373737" stroke-linejoin="round" x1="696.5" y1="352.8" x2="690.9" y2="347.2"/>
							<line fill="none" stroke="#373737" stroke-linejoin="round" x1="696.5" y1="347.2" x2="690.9" y2="352.8"/>
						</g>
					</g>
				</g>
			</g>
		</g>
		<g>
			<g>
				<g>
					<g>
						<g>
							<line fill="none" stroke="#373737" stroke-linejoin="round" x1="759.5" y1="465.2" x2="753.9" y2="459.6"/>
							<line fill="none" stroke="#373737" stroke-linejoin="round" x1="759.5" y1="459.6" x2="753.9" y2="465.2"/>
						</g>
					</g>
				</g>
			</g>
		</g>
		<g>
			<g>
				<g>
					<g>
						<g>
							<line fill="none" stroke="#373737" stroke-linejoin="round" x1="759.5" y1="445.4" x2="753.9" y2="439.8"/>
							<line fill="none" stroke="#373737" stroke-linejoin="round" x1="759.5" y1="439.8" x2="753.9" y2="445.4"/>
						</g>
					</g>
				</g>
			</g>
		</g>
		<g>
			<g>
				<g>
					<g>
						<g>
							<line fill="none" stroke="#373737" stroke-linejoin="round" x1="759.5" y1="445.4" x2="753.9" y2="439.8"/>
							<line fill="none" stroke="#373737" stroke-linejoin="round" x1="759.5" y1="439.8" x2="753.9" y2="445.4"/>
						</g>
					</g>
				</g>
			</g>
		</g>
		<g>
			<g>
				<g>
					<g>
						<g>
							<line fill="none" stroke="#373737" stroke-linejoin="round" x1="822.5" y1="366" x2="816.9" y2="360.4"/>
							<line fill="none" stroke="#373737" stroke-linejoin="round" x1="822.5" y1="360.4" x2="816.9" y2="366"/>
						</g>
					</g>
				</g>
			</g>
		</g>
		<g>
			<g>
				<g>
					<g>
						<g>
							<line fill="none" stroke="#373737" stroke-linejoin="round" x1="822.5" y1="299.8" x2="816.9" y2="294.2"/>
							<line fill="none" stroke="#373737" stroke-linejoin="round" x1="822.5" y1="294.2" x2="816.9" y2="299.8"/>
						</g>
					</g>
				</g>
			</g>
		</g>
		<g>
			<g>
				<g>
					<g>
						<g>
							<line fill="none" stroke="#373737" stroke-linejoin="round" x1="822.5" y1="299.8" x2="816.9" y2="294.2"/>
							<line fill="none" stroke="#373737" stroke-linejoin="round" x1="822.5" y1="294.2" x2="816.9" y2="299.8"/>
						</g>
					</g>
				</g>
			</g>
		</g>
		<g>
			<g>
				<g>
					<g>
						<g>
							<line fill="none" stroke="#373737" stroke-linejoin="round" x1="822.5" y1="286.6" x2="816.9" y2="281"/>
							<line fill="none" stroke="#373737" stroke-linejoin="round" x1="822.5" y1="281" x2="816.9" y2="286.6"/>
						</g>
					</g>
				</g>
			</g>
		</g>
		<g>
			<g>
				<g>
					<g>
						<g>
							<line fill="none" stroke="#373737" stroke-linejoin="round" x1="885.5" y1="465.2" x2="879.9" y2="459.6"/>
							<line fill="none" stroke="#373737" stroke-linejoin="round" x1="885.5" y1="459.6" x2="879.9" y2="465.2"/>
						</g>
					</g>
				</g>
			</g>
		</g>
		<g>
			<g>
				<g>
					<g>
						<g>
							<line fill="none" stroke="#373737" stroke-linejoin="round" x1="885.5" y1="458.6" x2="879.9" y2="453"/>
							<line fill="none" stroke="#373737" stroke-linejoin="round" x1="885.5" y1="453" x2="879.9" y2="458.6"/>
						</g>
					</g>
				</g>
			</g>
		</g>
		<g>
			<g>
				<g>
					<g>
						<g>
							<line fill="none" stroke="#373737" stroke-linejoin="round" x1="885.5" y1="458.6" x2="879.9" y2="453"/>
							<line fill="none" stroke="#373737" stroke-linejoin="round" x1="885.5" y1="453" x2="879.9" y2="458.6"/>
						</g>
					</g>
				</g>
			</g>
		</g>
		<g>
			<g>
				<g>
					<g>
						<g>
							<line fill="none" stroke="#373737" stroke-linejoin="round" x1="885.5" y1="445.4" x2="879.9" y2="439.8"/>
							<line fill="none" stroke="#373737" stroke-linejoin="round" x1="885.5" y1="439.8" x2="879.9" y2="445.4"/>
						</g>
					</g>
				</g>
			</g>
		</g>
		<g>
			<g>
				<g>
					<g>
						<g>
							<line fill="none" stroke="#373737" stroke-linejoin="round" x1="885.5" y1="432.2" x2="879.9" y2="426.6"/>
							<line fill="none" stroke="#373737" stroke-linejoin="round" x1="885.5" y1="426.6" x2="879.9" y2="432.2"/>
						</g>
					</g>
				</g>
			</g>
		</g>
		<g>
			<g>
				<g>
					<g>
						<g>
							<line fill="none" stroke="#373737" stroke-linejoin="round" x1="885.5" y1="432.2" x2="879.9" y2="426.6"/>
							<line fill="none" stroke="#373737" stroke-linejoin="round" x1="885.5" y1="426.6" x2="879.9" y2="432.2"/>
						</g>
					</g>
				</g>
			</g>
		</g>
		<g>
			<g>
				<g>
					<g>
						<g>
							<line fill="none" stroke="#373737" stroke-linejoin="round" x1="885.5" y1="326.3" x2="879.9" y2="320.7"/>
							<line fill="none" stroke="#373737" stroke-linejoin="round" x1="885.5" y1="320.7" x2="879.9" y2="326.3"/>
						</g>
					</g>
				</g>
			</g>
		</g>
		<g>
			<g>
				<g>
					<g>
						<g>
							<line fill="none" stroke="#373737" stroke-linejoin="round" x1="948.5" y1="405.7" x2="942.9" y2="400.1"/>
							<line fill="none" stroke="#373737" stroke-linejoin="round" x1="948.5" y1="400.1" x2="942.9" y2="405.7"/>
						</g>
					</g>
				</g>
			</g>
		</g>
		<g>
			<g>
				<g>
					<g>
						<g>
							<line fill="none" stroke="#373737" stroke-linejoin="round" x1="948.5" y1="366" x2="942.9" y2="360.4"/>
							<line fill="none" stroke="#373737" stroke-linejoin="round" x1="948.5" y1="360.4" x2="942.9" y2="366"/>
						</g>
					</g>
				</g>
			</g>
		</g>
		<g>
			<g>
				<g>
					<g>
						<g>
							<line fill="none" stroke="#373737" stroke-linejoin="round" x1="1011.5" y1="432.2" x2="1005.9" y2="426.6"/>
							<line fill="none" stroke="#373737" stroke-linejoin="round" x1="1011.5" y1="426.6" x2="1005.9" y2="432.2"/>
						</g>
					</g>
				</g>
			</g>
		</g>
		<g>
			<g>
				<g>
					<g>
						<g>
							<line fill="none" stroke="#373737" stroke-linejoin="round" x1="1011.5" y1="366" x2="1005.9" y2="360.4"/>
							<line fill="none" stroke="#373737" stroke-linejoin="round" x1="1011.5" y1="360.4" x2="1005.9" y2="366"/>
						</g>
					</g>
				</g>
			</g>
		</g>
		<g>
			<g>
				<g>
					<g>
						<g>
							<line fill="none" stroke="#373737" stroke-linejoin="round" x1="1011.5" y1="366" x2="1005.9" y2="360.4"/>
							<line fill="none" stroke="#373737" stroke-linejoin="round" x1="1011.5" y1="360.4" x2="1005.9" y2="366"/>
						</g>
					</g>
				</g>
			</g>
		</g>
		<g>
			<g>
				<g>
					<g>
						<g>
							<line fill="none" stroke="#373737" stroke-linejoin="round" x1="1137.5" y1="445.4" x2="1131.9" y2="439.8"/>
							<line fill="none" stroke="#373737" stroke-linejoin="round" x1="1137.5" y1="439.8" x2="1131.9" y2="445.4"/>
						</g>
					</g>
				</g>
			</g>
		</g>
		<g>
			<g>
				<g>
					<g>
						<g>
							<line fill="none" stroke="#373737" stroke-linejoin="round" x1="1137.5" y1="445.4" x2="1131.9" y2="439.8"/>
							<line fill="none" stroke="#373737" stroke-linejoin="round" x1="1137.5" y1="439.8" x2="1131.9" y2="445.4"/>
						</g>
					</g>
				</g>
			</g>
		</g>
		<g>
			<g>
				<g>
					<g>
						<g>
							<line fill="none" stroke="#373737" stroke-linejoin="round" x1="1200.5" y1="425.6" x2="1194.9" y2="420"/>
							<line fill="none" stroke="#373737" stroke-linejoin="round" x1="1200.5" y1="420" x2="1194.9" y2="425.6"/>
						</g>
					</g>
				</g>
			</g>
		</g>
		<g>
			<g>
				<g>
					<g>
						<g>
							<line fill="none" stroke="#373737" stroke-linejoin="round" x1="1200.5" y1="405.7" x2="1194.9" y2="400.1"/>
							<line fill="none" stroke="#373737" stroke-linejoin="round" x1="1200.5" y1="400.1" x2="1194.9" y2="405.7"/>
						</g>
					</g>
				</g>
			</g>
		</g>
		<g>
			<g>
				<g>
					<g>
						<g>
							<line fill="none" stroke="#373737" stroke-linejoin="round" x1="1200.5" y1="233.7" x2="1194.9" y2="228.1"/>
							<line fill="none" stroke="#373737" stroke-linejoin="round" x1="1200.5" y1="228.1" x2="1194.9" y2="233.7"/>
						</g>
					</g>
				</g>
			</g>
		</g>
		<line fill="none" stroke="#F51325" stroke-width="10" stroke-linejoin="round" x1="378.7" y1="525.3" x2="378.7" y2="522"/>
		
			<line opacity="0.8" fill="none" stroke="#F51325" stroke-width="10" stroke-linejoin="round" x1="378.7" y1="534.5" x2="378.7" y2="525.3"/>
		
			<line opacity="0.5" fill="none" stroke="#F51325" stroke-width="10" stroke-linejoin="round" x1="378.7" y1="548.5" x2="378.7" y2="534.5"/>
		
			<line opacity="0.3" fill="none" stroke="#F51325" stroke-width="10" stroke-linejoin="round" x1="378.7" y1="558.4" x2="378.7" y2="548.5"/>
		<line fill="none" stroke="#F51325" stroke-width="10" stroke-linejoin="round" x1="441.7" y1="522" x2="441.7" y2="482.3"/>
		
			<line opacity="0.8" fill="none" stroke="#F51325" stroke-width="10" stroke-linejoin="round" x1="441.7" y1="535.2" x2="441.7" y2="522"/>
		
			<line opacity="0.5" fill="none" stroke="#F51325" stroke-width="10" stroke-linejoin="round" x1="441.7" y1="548.5" x2="441.7" y2="535.2"/>
		
			<line opacity="0.3" fill="none" stroke="#F51325" stroke-width="10" stroke-linejoin="round" x1="441.7" y1="560.9" x2="441.7" y2="548.5"/>
		<line fill="none" stroke="#F51325" stroke-width="10" stroke-linejoin="round" x1="504.7" y1="502.1" x2="504.7" y2="455.8"/>
		
			<line opacity="0.5" fill="none" stroke="#F51325" stroke-width="10" stroke-linejoin="round" x1="504.7" y1="535.2" x2="504.7" y2="502.1"/>
		
			<line opacity="0.3" fill="none" stroke="#F51325" stroke-width="10" stroke-linejoin="round" x1="504.7" y1="536.7" x2="504.7" y2="535.2"/>
		
			<line opacity="0.8" fill="none" stroke="#F51325" stroke-width="10" stroke-linejoin="round" x1="567.7" y1="508.8" x2="567.7" y2="429.4"/>
		
			<line opacity="0.5" fill="none" stroke="#F51325" stroke-width="10" stroke-linejoin="round" x1="567.7" y1="535.2" x2="567.7" y2="508.8"/>
		
			<line opacity="0.3" fill="none" stroke="#F51325" stroke-width="10" stroke-linejoin="round" x1="567.7" y1="555.1" x2="567.7" y2="535.2"/>
		<line fill="none" stroke="#F51325" stroke-width="10" stroke-linejoin="round" x1="630.7" y1="482.3" x2="630.7" y2="429.4"/>
		
			<line opacity="0.8" fill="none" stroke="#F51325" stroke-width="10" stroke-linejoin="round" x1="630.7" y1="522" x2="630.7" y2="482.3"/>
		
			<line opacity="0.5" fill="none" stroke="#F51325" stroke-width="10" stroke-linejoin="round" x1="630.7" y1="535.2" x2="630.7" y2="522"/>
		
			<line opacity="0.3" fill="none" stroke="#F51325" stroke-width="10" stroke-linejoin="round" x1="630.7" y1="555.1" x2="630.7" y2="535.2"/>
		<line fill="none" stroke="#F51325" stroke-width="10" stroke-linejoin="round" x1="693.7" y1="482.3" x2="693.7" y2="402.9"/>
		
			<line opacity="0.8" fill="none" stroke="#F51325" stroke-width="10" stroke-linejoin="round" x1="693.7" y1="522" x2="693.7" y2="482.3"/>
		
			<line opacity="0.5" fill="none" stroke="#F51325" stroke-width="10" stroke-linejoin="round" x1="693.7" y1="535.2" x2="693.7" y2="522"/>
		
			<line opacity="0.3" fill="none" stroke="#F51325" stroke-width="10" stroke-linejoin="round" x1="693.7" y1="552.8" x2="693.7" y2="535.2"/>
		<line fill="none" stroke="#F51325" stroke-width="10" stroke-linejoin="round" x1="756.7" y1="518.7" x2="756.7" y2="482.3"/>
		
			<line opacity="0.8" fill="none" stroke="#F51325" stroke-width="10" stroke-linejoin="round" x1="756.7" y1="535.2" x2="756.7" y2="518.7"/>
		
			<line opacity="0.5" fill="none" stroke="#F51325" stroke-width="10" stroke-linejoin="round" x1="756.7" y1="548.5" x2="756.7" y2="535.2"/>
		
			<line opacity="0.3" fill="none" stroke="#F51325" stroke-width="10" stroke-linejoin="round" x1="756.7" y1="555.1" x2="756.7" y2="548.5"/>
		<line fill="none" stroke="#F51325" stroke-width="10" stroke-linejoin="round" x1="819.7" y1="482.3" x2="819.7" y2="402.9"/>
		
			<line opacity="0.8" fill="none" stroke="#F51325" stroke-width="10" stroke-linejoin="round" x1="819.7" y1="522" x2="819.7" y2="482.3"/>
		
			<line opacity="0.5" fill="none" stroke="#F51325" stroke-width="10" stroke-linejoin="round" x1="819.7" y1="535.2" x2="819.7" y2="522"/>
		
			<line opacity="0.3" fill="none" stroke="#F51325" stroke-width="10" stroke-linejoin="round" x1="819.7" y1="555.1" x2="819.7" y2="535.2"/>
		<line fill="none" stroke="#F51325" stroke-width="10" stroke-linejoin="round" x1="882.7" y1="522" x2="882.7" y2="482.3"/>
		
			<line opacity="0.8" fill="none" stroke="#F51325" stroke-width="10" stroke-linejoin="round" x1="882.7" y1="535.2" x2="882.7" y2="522"/>
		
			<line opacity="0.5" fill="none" stroke="#F51325" stroke-width="10" stroke-linejoin="round" x1="882.7" y1="548.5" x2="882.7" y2="535.2"/>
		
			<line opacity="0.3" fill="none" stroke="#F51325" stroke-width="10" stroke-linejoin="round" x1="882.7" y1="557.7" x2="882.7" y2="548.5"/>
		<line fill="none" stroke="#F51325" stroke-width="10" stroke-linejoin="round" x1="945.7" y1="495.5" x2="945.7" y2="442.6"/>
		
			<line opacity="0.8" fill="none" stroke="#F51325" stroke-width="10" stroke-linejoin="round" x1="945.7" y1="525.3" x2="945.7" y2="495.5"/>
		
			<line opacity="0.5" fill="none" stroke="#F51325" stroke-width="10" stroke-linejoin="round" x1="945.7" y1="544.5" x2="945.7" y2="525.3"/>
		
			<line opacity="0.3" fill="none" stroke="#F51325" stroke-width="10" stroke-linejoin="round" x1="945.7" y1="558.4" x2="945.7" y2="544.5"/>
		<line fill="none" stroke="#F51325" stroke-width="10" stroke-linejoin="round" x1="1008.7" y1="495.5" x2="1008.7" y2="469.1"/>
		
			<line opacity="0.8" fill="none" stroke="#F51325" stroke-width="10" stroke-linejoin="round" x1="1008.7" y1="522" x2="1008.7" y2="495.5"/>
		
			<line opacity="0.5" fill="none" stroke="#F51325" stroke-width="10" stroke-linejoin="round" x1="1008.7" y1="535.2" x2="1008.7" y2="522"/>
		
			<line opacity="0.3" fill="none" stroke="#F51325" stroke-width="10" stroke-linejoin="round" x1="1008.7" y1="548.5" x2="1008.7" y2="535.2"/>
		
			<line opacity="0.8" fill="none" stroke="#F51325" stroke-width="10" stroke-linejoin="round" x1="1071.7" y1="535.2" x2="1071.7" y2="522"/>
		
			<line opacity="0.5" fill="none" stroke="#F51325" stroke-width="10" stroke-linejoin="round" x1="1071.7" y1="541.8" x2="1071.7" y2="535.2"/>
		
			<line opacity="0.3" fill="none" stroke="#F51325" stroke-width="10" stroke-linejoin="round" x1="1071.7" y1="548.5" x2="1071.7" y2="541.8"/>
		<line fill="none" stroke="#F51325" stroke-width="10" stroke-linejoin="round" x1="1134.7" y1="518.7" x2="1134.7" y2="508.8"/>
		
			<line opacity="0.8" fill="none" stroke="#F51325" stroke-width="10" stroke-linejoin="round" x1="1134.7" y1="535.2" x2="1134.7" y2="518.7"/>
		
			<line opacity="0.5" fill="none" stroke="#F51325" stroke-width="10" stroke-linejoin="round" x1="1134.7" y1="548.5" x2="1134.7" y2="535.2"/>
		<line fill="none" stroke="#F51325" stroke-width="10" stroke-linejoin="round" x1="1197.7" y1="492.2" x2="1197.7" y2="429.4"/>
		
			<line opacity="0.8" fill="none" stroke="#F51325" stroke-width="10" stroke-linejoin="round" x1="1197.7" y1="522" x2="1197.7" y2="492.2"/>
		
			<line opacity="0.5" fill="none" stroke="#F51325" stroke-width="10" stroke-linejoin="round" x1="1197.7" y1="536.9" x2="1197.7" y2="522"/>
		
			<line opacity="0.3" fill="none" stroke="#F51325" stroke-width="10" stroke-linejoin="round" x1="1197.7" y1="551.8" x2="1197.7" y2="536.9"/>
		
			<line opacity="0.5" fill="none" stroke="#F51325" stroke-width="10" stroke-linejoin="round" x1="1260.7" y1="538.5" x2="1260.7" y2="535.2"/>
		
			<line opacity="0.3" fill="none" stroke="#F51325" stroke-width="10" stroke-linejoin="round" x1="1260.7" y1="541.8" x2="1260.7" y2="538.5"/>
		<line fill="#FFFFFF" stroke="#000000" stroke-miterlimit="10" x1="367.3" y1="534.5" x2="390" y2="534.5"/>
		<line fill="#FFFFFF" stroke="#000000" stroke-miterlimit="10" x1="430.3" y1="535.2" x2="453" y2="535.2"/>
		<line fill="#FFFFFF" stroke="#000000" stroke-miterlimit="10" x1="493.3" y1="535.2" x2="516" y2="535.2"/>
		<line fill="#FFFFFF" stroke="#000000" stroke-miterlimit="10" x1="556.3" y1="508.8" x2="579" y2="508.8"/>
		<line fill="#FFFFFF" stroke="#000000" stroke-miterlimit="10" x1="619.3" y1="522" x2="642" y2="522"/>
		<line fill="#FFFFFF" stroke="#000000" stroke-miterlimit="10" x1="682.3" y1="522" x2="705" y2="522"/>
		<line fill="#FFFFFF" stroke="#000000" stroke-miterlimit="10" x1="745.3" y1="535.2" x2="768" y2="535.2"/>
		<line fill="#FFFFFF" stroke="#000000" stroke-miterlimit="10" x1="808.3" y1="522" x2="831" y2="522"/>
		<line fill="#FFFFFF" stroke="#000000" stroke-miterlimit="10" x1="871.3" y1="534.9" x2="894" y2="534.9"/>
		<line fill="#FFFFFF" stroke="#000000" stroke-miterlimit="10" x1="934.3" y1="525.3" x2="957" y2="525.3"/>
		<line fill="#FFFFFF" stroke="#000000" stroke-miterlimit="10" x1="997.3" y1="522" x2="1020" y2="522"/>
		<line fill="#FFFFFF" stroke="#000000" stroke-miterlimit="10" x1="1060.3" y1="535.2" x2="1083" y2="535.2"/>
		<line fill="#FFFFFF" stroke="#000000" stroke-miterlimit="10" x1="1123.3" y1="535.9" x2="1146" y2="535.9"/>
		<line fill="#FFFFFF" stroke="#000000" stroke-miterlimit="10" x1="1186.3" y1="522" x2="1209" y2="522"/>
		<line fill="#FFFFFF" stroke="#000000" stroke-miterlimit="10" x1="1249.3" y1="535.9" x2="1272" y2="535.9"/>
		<text transform="matrix(1 0 0 1 337.304 539.0604)" font-family="'Source Sans Pro', sans-serif" font-weight="400"  font-size="10px">0.02</text>
		<text transform="matrix(1 0 0 1 337.304 563.5604)" font-family="'Source Sans Pro', sans-serif" font-weight="400"  font-size="10px">0.00</text>
		<text transform="matrix(1 0 0 1 337.304 512.5969)" font-family="'Source Sans Pro', sans-serif" font-weight="400"  font-size="10px">0.04</text>
		<text transform="matrix(1 0 0 1 337.304 486.1334)" font-family="'Source Sans Pro', sans-serif" font-weight="400"  font-size="10px">0.06</text>
		<text transform="matrix(1 0 0 1 337.304 459.6699)" font-family="'Source Sans Pro', sans-serif" font-weight="400"  font-size="10px">0.08</text>
		<text transform="matrix(1 0 0 1 337.304 433.2064)" font-family="'Source Sans Pro', sans-serif" font-weight="400"  font-size="10px">0.10</text>
		<text transform="matrix(1 0 0 1 337.304 406.7429)" font-family="'Source Sans Pro', sans-serif" font-weight="400"  font-size="10px">0.12</text>
		<text transform="matrix(1 0 0 1 337.304 380.2794)" font-family="'Source Sans Pro', sans-serif" font-weight="400"  font-size="10px">0.14</text>
		<text transform="matrix(1 0 0 1 337.304 353.8158)" font-family="'Source Sans Pro', sans-serif" font-weight="400"  font-size="10px">0.16</text>
		<text transform="matrix(1 0 0 1 337.304 327.3523)" font-family="'Source Sans Pro', sans-serif" font-weight="400"  font-size="10px">0.18</text>
		<text transform="matrix(1 0 0 1 337.304 300.8888)" font-family="'Source Sans Pro', sans-serif" font-weight="400"  font-size="10px">0.20</text>
		<text transform="matrix(1 0 0 1 337.304 274.4253)" font-family="'Source Sans Pro', sans-serif" font-weight="400"  font-size="10px">0.22</text>
		<text transform="matrix(1 0 0 1 337.304 247.9618)" font-family="'Source Sans Pro', sans-serif" font-weight="400"  font-size="10px">0.24</text>
	</g>
	<g id="mediane">
		<g>
			<text transform="matrix(1 0 0 1 132.0003 292.6335)" fill="#373737" font-family="'Source Sans Pro', sans-serif" font-weight="300"  font-size="12px">outliers</text>
			<text transform="matrix(1 0 0 1 132.0003 467.935)" fill="#373737" font-family="'Source Sans Pro', sans-serif" font-weight="300"  font-size="12px">25% of</text>
			<text transform="matrix(1 0 0 1 132.0003 482.335)" fill="#373737" font-family="'Source Sans Pro', sans-serif" font-weight="300"  font-size="12px">reports</text>
			<text transform="matrix(1 0 0 1 132.0001 526.7344)" fill="#373737" font-family="'Source Sans Pro', sans-serif" font-weight="300"  font-size="12px">25% of</text>
			<text transform="matrix(1 0 0 1 132.0001 541.1343)" fill="#373737" font-family="'Source Sans Pro', sans-serif" font-weight="300"  font-size="12px">reports</text>
			<text transform="matrix(1 0 0 1 132.0001 588.1297)" fill="#373737" font-family="'Source Sans Pro', sans-serif" font-weight="300"  font-size="12px">year</text>
			<text transform="matrix(1 0 0 1 132 350.4344)" fill="#373737" font-family="'Source Sans Pro', sans-serif" font-weight="300"  font-size="12px">25% of</text>
			<text transform="matrix(1 0 0 1 132 364.8344)" fill="#373737" font-family="'Source Sans Pro', sans-serif" font-weight="300"  font-size="12px">reports</text>
			<text transform="matrix(1 0 0 1 131.9998 409.1847)" fill="#373737" font-family="'Source Sans Pro', sans-serif" font-weight="300"  font-size="12px">25% of</text>
			<text transform="matrix(1 0 0 1 131.9998 423.5847)" fill="#373737" font-family="'Source Sans Pro', sans-serif" font-weight="300"  font-size="12px">reports</text>
			<text transform="matrix(1 0 0 1 132.0003 242.3708)" fill="#373737" font-family="'Source Sans Pro', sans-serif" font-weight="700"  font-size="12px">LEGEND</text>
			<text transform="matrix(1 0 0 1 132 445.7701)" fill="#373737" font-family="'Source Sans Pro', sans-serif" font-weight="300"  font-size="12px">median</text>
			<g>
				<text transform="matrix(1 0 0 1 131.9999 626.9732)" fill="#373737" font-family="'Source Sans Pro', sans-serif" font-weight="300"  font-size="12px">n° of</text>
				<text transform="matrix(1 0 0 1 131.9999 641.3732)" fill="#373737" font-family="'Source Sans Pro', sans-serif" font-weight="300"  font-size="12px">reports</text>
			</g>
			<circle fill="none" stroke="#373737" stroke-width="0.9854" cx="232.3" cy="610.1" r="5.6"/>
			<text transform="matrix(1 0 0 1 223.0204 587.5869)" fill="#373737" font-family="'Source Sans Pro', sans-serif" font-weight="300"  font-size="10px">2000</text>
			<line fill="none" stroke="#373737" stroke-width="10" stroke-miterlimit="10" x1="232.3" y1="383.8" x2="232.3" y2="325"/>
			<line fill="none" stroke="#373737" stroke-width="10" stroke-miterlimit="10" x1="232.3" y1="383.8" x2="232.3" y2="325"/>
			
				<line opacity="0.8" fill="none" stroke="#373737" stroke-width="10" stroke-miterlimit="10" enable-background="new    " x1="232.3" y1="442.5" x2="232.3" y2="383.8"/>
			<line fill="none" stroke="#373737" stroke-width="10" stroke-miterlimit="10" x1="232.3" y1="383.8" x2="232.3" y2="325"/>
			
				<line opacity="0.5" fill="none" stroke="#373737" stroke-width="10" stroke-miterlimit="10" enable-background="new    " x1="232.3" y1="501.3" x2="232.3" y2="442.5"/>
			
				<line opacity="0.3" fill="none" stroke="#373737" stroke-width="10" stroke-miterlimit="10" enable-background="new    " x1="232.3" y1="560.1" x2="232.3" y2="501.3"/>
			<line fill="none" stroke="#373737" stroke-width="0.5" stroke-linejoin="round" x1="220.3" y1="442.5" x2="244.3" y2="442.5"/>
			<text transform="matrix(1 0 0 1 229.7964 641.5878)" fill="#373737" font-family="'Source Sans Pro', sans-serif" font-weight="700"  font-size="10px">4</text>
			<line fill="none" stroke="#373737" stroke-width="0.5" stroke-linejoin="round" x1="234.3" y1="292.2" x2="230.3" y2="288.2"/>
			<line fill="none" stroke="#373737" stroke-width="0.5" stroke-linejoin="round" x1="234.3" y1="288.2" x2="230.3" y2="292.2"/>
			<g>
				<g>
					<line fill="none" stroke="#373737" stroke-width="0.5" stroke-linejoin="round" x1="205.8" y1="290.2" x2="185.6" y2="290.2"/>
					<g>
						<polygon fill="#373737" points="204.1,288.1 203.8,288.5 205.6,290.2 203.8,291.8 204.1,292.2 206.3,290.2 						"/>
					</g>
				</g>
			</g>
			<g>
				<g>
					<line fill="none" stroke="#373737" stroke-width="0.5" stroke-linejoin="round" x1="205.8" y1="354.4" x2="185.6" y2="354.4"/>
					<g>
						<polygon fill="#373737" points="204.1,352.3 203.8,352.7 205.6,354.4 203.8,356 204.1,356.4 206.3,354.4 						"/>
					</g>
				</g>
			</g>
			<g>
				<g>
					<line fill="none" stroke="#373737" stroke-width="0.5" stroke-linejoin="round" x1="205.8" y1="413.9" x2="185.6" y2="413.9"/>
					<g>
						<polygon fill="#373737" points="204.1,411.9 203.8,412.2 205.6,413.9 203.8,415.6 204.1,416 206.3,413.9 						"/>
					</g>
				</g>
			</g>
			<g>
				<g>
					<line fill="none" stroke="#373737" stroke-width="0.5" stroke-linejoin="round" x1="205.8" y1="442.5" x2="185.6" y2="442.5"/>
					<g>
						<polygon fill="#373737" points="204.1,440.4 203.8,440.8 205.6,442.5 203.8,444.1 204.1,444.5 206.3,442.5 						"/>
					</g>
				</g>
			</g>
			<g>
				<g>
					<line fill="none" stroke="#373737" stroke-width="0.5" stroke-linejoin="round" x1="205.8" y1="471.9" x2="185.6" y2="471.9"/>
					<g>
						<polygon fill="#373737" points="204.1,469.8 203.8,470.2 205.6,471.9 203.8,473.5 204.1,473.9 206.3,471.9 						"/>
					</g>
				</g>
			</g>
			<g>
				<g>
					<line fill="none" stroke="#373737" stroke-width="0.5" stroke-linejoin="round" x1="205.8" y1="530.7" x2="185.6" y2="530.7"/>
					<g>
						<polygon fill="#373737" points="204.1,528.6 203.8,529 205.6,530.7 203.8,532.3 204.1,532.7 206.3,530.7 						"/>
					</g>
				</g>
			</g>
			<g>
				<g>
					<line fill="none" stroke="#373737" stroke-width="0.5" stroke-linejoin="round" x1="205.8" y1="584.9" x2="185.6" y2="584.9"/>
					<g>
						<polygon fill="#373737" points="204.1,582.8 203.8,583.2 205.6,584.9 203.8,586.5 204.1,586.9 206.3,584.9 						"/>
					</g>
				</g>
			</g>
			<g>
				<g>
					<line fill="none" stroke="#373737" stroke-width="0.5" stroke-linejoin="round" x1="205.8" y1="610.1" x2="185.6" y2="610.1"/>
					<g>
						<polygon fill="#373737" points="204.1,608 203.8,608.4 205.6,610.1 203.8,611.7 204.1,612.1 206.3,610.1 						"/>
					</g>
				</g>
			</g>
			<g>
				<g>
					<line fill="none" stroke="#373737" stroke-width="0.5" stroke-linejoin="round" x1="205.8" y1="637.6" x2="185.6" y2="637.6"/>
					<g>
						<polygon fill="#373737" points="204.1,635.6 203.8,636 205.6,637.6 203.8,639.3 204.1,639.7 206.3,637.6 						"/>
					</g>
				</g>
			</g>
			<polyline fill="none" stroke="#373737" stroke-width="0.5" stroke-linejoin="round" points="223,602.3 218.3,602.3 218.3,617.8 
				223,617.8 			"/>
		</g>
	</g>
</g>
</svg>
