<?xml version="1.0" encoding="utf-8"?>
<!-- Generator: Adobe Illustrator 19.1.0, SVG Export Plug-In . SVG Version: 6.00 Build 0)  -->
<svg version="1.1" xmlns="http://www.w3.org/2000/svg" xmlns:xlink="http://www.w3.org/1999/xlink" x="0px" y="0px"
	 viewBox="132 170.9 1140 500" style="enable-background:new 132 170.9 1140 500;" xml:space="preserve">
<style type="text/css">
	.st0{opacity:3.000000e-02;}
	.st1{opacity:6.000000e-02;}
	.st2{opacity:9.000000e-02;}
	.st3{opacity:0.15;}
	.st4{opacity:0.21;}
	.st5{opacity:0.24;}
	.st6{opacity:0.27;}
	.st7{opacity:0.3;}
	.st8{opacity:0.33;}
	.st9{opacity:0.18;}
	.st10{opacity:0.12;}
	.st11{font-family:'SourceSansPro-Bold';}
	.st12{font-size:10px;}
	.st13{fill:none;stroke:#F51325;stroke-linejoin:round;}
	.st14{font-family:'SourceSansPro-Light';}
	.st15{fill:none;stroke:#373737;stroke-linejoin:round;}
	.st16{fill:none;stroke:#F51325;stroke-width:10;stroke-linejoin:round;}
	.st17{opacity:0.8;fill:none;stroke:#F51325;stroke-width:10;stroke-linejoin:round;}
	.st18{opacity:0.5;fill:none;stroke:#F51325;stroke-width:10;stroke-linejoin:round;}
	.st19{opacity:0.3;fill:none;stroke:#F51325;stroke-width:10;stroke-linejoin:round;}
	.st20{fill:#FFFFFF;stroke:#000000;stroke-miterlimit:10;}
	.st21{font-family:'SourceSansPro-Regular';}
	.st22{fill:#373737;}
	.st23{font-size:12px;}
	.st24{enable-background:new    ;}
	.st25{fill:none;stroke:#373737;stroke-width:0.9854;}
	.st26{fill:none;stroke:#373737;stroke-width:10;stroke-miterlimit:10;}
	.st27{opacity:0.8;fill:none;stroke:#373737;stroke-width:10;stroke-miterlimit:10;enable-background:new    ;}
	.st28{opacity:0.5;fill:none;stroke:#373737;stroke-width:10;stroke-miterlimit:10;enable-background:new    ;}
	.st29{opacity:0.3;fill:none;stroke:#373737;stroke-width:10;stroke-miterlimit:10;enable-background:new    ;}
	.st30{fill:none;stroke:#373737;stroke-width:0.5;stroke-linejoin:round;}
</style>
<g id="livelli">
</g>
<g id="cose_sotto">
</g>
<g id="Layer_1">
</g>
<g id="outliers">
</g>
<g id="boxplot">
</g>
<g id="mediasn">
</g>
<g id="numeri">
</g>
<g id="cose_di_lato">
	<g transform="translate(0,0)">
		<g transform="translate(0,43.231756214915826)">
		</g>
	</g>
	<g>
		<rect x="366.8" y="535.7" class="st0" width="900" height="25.2"/>
		<rect x="366.8" y="509.3" class="st1" width="900" height="26.5"/>
		<rect x="366.8" y="482.8" class="st2" width="900" height="26.5"/>
		<rect x="366.8" y="429.8" class="st3" width="900" height="26.5"/>
		<rect x="366.8" y="376.9" class="st4" width="900" height="26.5"/>
		<polyline class="st5" points="366.8,350.4 1266.8,350.4 1266.8,376.9 366.8,376.9 		"/>
		<rect x="366.8" y="323.8" class="st6" width="900" height="26.6"/>
		<rect x="366.8" y="297.3" class="st7" width="900" height="26.6"/>
		<rect x="366.8" y="270.7" class="st8" width="900" height="26.6"/>
		<rect x="366.8" y="244.1" class="st8" width="900" height="26.6"/>
		<rect x="366.8" y="403.3" class="st9" width="900" height="26.5"/>
		<rect x="366.8" y="456.3" class="st10" width="900" height="26.5"/>
		<text transform="matrix(1 0 0 1 372.9857 640.89)" class="st11 st12">10</text>
		<text transform="matrix(1 0 0 1 435.9857 640.89)" class="st11 st12">13</text>
		<text transform="matrix(1 0 0 1 498.9857 640.89)" class="st11 st12">15</text>
		<text transform="matrix(1 0 0 1 565.3226 640.89)" class="st11 st12">9</text>
		<text transform="matrix(1 0 0 1 624.9857 640.89)" class="st11 st12">21</text>
		<text transform="matrix(1 0 0 1 687.9857 640.89)" class="st11 st12">35</text>
		<text transform="matrix(1 0 0 1 750.9857 640.89)" class="st11 st12">39</text>
		<text transform="matrix(1 0 0 1 810.6488 640.89)" class="st11 st12">129</text>
		<text transform="matrix(1 0 0 1 876.9857 640.89)" class="st11 st12">69</text>
		<text transform="matrix(1 0 0 1 939.9857 640.89)" class="st11 st12">42</text>
		<text transform="matrix(1 0 0 1 1002.9857 640.89)" class="st11 st12">35</text>
		<text transform="matrix(1 0 0 1 1069.3225 640.89)" class="st11 st12">7</text>
		<text transform="matrix(1 0 0 1 1128.9856 640.89)" class="st11 st12">12</text>
		<text transform="matrix(1 0 0 1 1191.9856 640.89)" class="st11 st12">28</text>
		<text transform="matrix(1 0 0 1 1258.3225 640.89)" class="st11 st12">3</text>
		<circle class="st13" cx="379.7" cy="610.9" r="3.9"/>
		<circle class="st13" cx="442.7" cy="610.9" r="4.5"/>
		<circle class="st13" cx="505.7" cy="610.9" r="4.9"/>
		<circle class="st13" cx="568.7" cy="610.9" r="3.7"/>
		<circle class="st13" cx="631.7" cy="610.9" r="5.8"/>
		<circle class="st13" cx="694.7" cy="610.9" r="7.7"/>
		<circle class="st13" cx="757.7" cy="610.9" r="8.1"/>
		<circle class="st13" cx="820.7" cy="610.9" r="15"/>
		<circle class="st13" cx="883.7" cy="610.9" r="10.9"/>
		<circle class="st13" cx="946.7" cy="610.9" r="8.4"/>
		<circle class="st13" cx="1009.7" cy="610.9" r="7.7"/>
		<circle class="st13" cx="1072.7" cy="610.9" r="3.2"/>
		<circle class="st13" cx="1135.7" cy="610.9" r="4.3"/>
		<circle class="st13" cx="1198.7" cy="610.9" r="6.8"/>
		<circle class="st13" cx="1261.7" cy="610.9" r="2"/>
		<g transform="translate(9,0)">
			<text transform="matrix(1 0 0 1 361.3119 588.41)" class="st14 st12">2000</text>
		</g>
		<g transform="translate(72,0)">
			<text transform="matrix(1 0 0 1 361.3119 588.41)" class="st14 st12">2001</text>
		</g>
		<g transform="translate(135,0)">
			<text transform="matrix(1 0 0 1 361.3118 588.41)" class="st14 st12">2002</text>
		</g>
		<g transform="translate(198,0)">
			<text transform="matrix(1 0 0 1 361.3118 588.41)" class="st14 st12">2003</text>
		</g>
		<g transform="translate(261,0)">
			<text transform="matrix(1 0 0 1 361.3118 588.41)" class="st14 st12">2004</text>
		</g>
		<g transform="translate(324,0)">
			<text transform="matrix(1 0 0 1 361.3119 588.41)" class="st14 st12">2005</text>
		</g>
		<g transform="translate(387,0)">
			<text transform="matrix(1 0 0 1 361.3119 588.41)" class="st14 st12">2006</text>
		</g>
		<g transform="translate(450,0)">
			<text transform="matrix(1 0 0 1 361.3119 588.41)" class="st14 st12">2007</text>
		</g>
		<g transform="translate(513,0)">
			<text transform="matrix(1 0 0 1 361.3119 588.41)" class="st14 st12">2008</text>
		</g>
		<g transform="translate(576,0)">
			<text transform="matrix(1 0 0 1 361.3118 588.41)" class="st14 st12">2009</text>
		</g>
		<g transform="translate(639,0)">
			<text transform="matrix(1 0 0 1 361.3118 588.41)" class="st14 st12">2010</text>
		</g>
		<g transform="translate(702,0)">
			<text transform="matrix(1 0 0 1 361.7571 588.41)" class="st14 st12">2011</text>
		</g>
		<g transform="translate(765,0)">
			<text transform="matrix(1 0 0 1 361.3118 588.41)" class="st14 st12">2012</text>
		</g>
		<g transform="translate(828,0)">
			<text transform="matrix(1 0 0 1 361.3118 588.41)" class="st14 st12">2013</text>
		</g>
		<g transform="translate(891,0)">
			<text transform="matrix(1 0 0 1 361.3118 588.41)" class="st14 st12">2014</text>
		</g>
		<circle class="st13" cx="379.7" cy="610.9" r="3.9"/>
		<circle class="st13" cx="442.7" cy="610.9" r="4.5"/>
		<circle class="st13" cx="505.7" cy="610.9" r="4.9"/>
		<circle class="st13" cx="568.7" cy="610.9" r="3.7"/>
		<circle class="st13" cx="631.7" cy="610.9" r="5.8"/>
		<circle class="st13" cx="694.7" cy="610.9" r="7.7"/>
		<circle class="st13" cx="757.7" cy="610.9" r="8.1"/>
		<circle class="st13" cx="820.7" cy="610.9" r="15"/>
		<circle class="st13" cx="883.7" cy="610.9" r="10.9"/>
		<circle class="st13" cx="946.7" cy="610.9" r="8.4"/>
		<circle class="st13" cx="1009.7" cy="610.9" r="7.7"/>
		<circle class="st13" cx="1072.7" cy="610.9" r="3.2"/>
		<circle class="st13" cx="1135.7" cy="610.9" r="4.3"/>
		<circle class="st13" cx="1198.7" cy="610.9" r="6.8"/>
		<circle class="st13" cx="1261.7" cy="610.9" r="2"/>
		<g transform="translate(9,0)">
			<text transform="matrix(1 0 0 1 361.3119 588.41)" class="st14 st12">2000</text>
		</g>
		<g transform="translate(72,0)">
			<text transform="matrix(1 0 0 1 361.3119 588.41)" class="st14 st12">2001</text>
		</g>
		<g transform="translate(135,0)">
			<text transform="matrix(1 0 0 1 361.3118 588.41)" class="st14 st12">2002</text>
		</g>
		<g transform="translate(198,0)">
			<text transform="matrix(1 0 0 1 361.3118 588.41)" class="st14 st12">2003</text>
		</g>
		<g transform="translate(261,0)">
			<text transform="matrix(1 0 0 1 361.3118 588.41)" class="st14 st12">2004</text>
		</g>
		<g transform="translate(324,0)">
			<text transform="matrix(1 0 0 1 361.3119 588.41)" class="st14 st12">2005</text>
		</g>
		<g transform="translate(387,0)">
			<text transform="matrix(1 0 0 1 361.3119 588.41)" class="st14 st12">2006</text>
		</g>
		<g transform="translate(450,0)">
			<text transform="matrix(1 0 0 1 361.3119 588.41)" class="st14 st12">2007</text>
		</g>
		<g transform="translate(513,0)">
			<text transform="matrix(1 0 0 1 361.3119 588.41)" class="st14 st12">2008</text>
		</g>
		<g transform="translate(576,0)">
			<text transform="matrix(1 0 0 1 361.3118 588.41)" class="st14 st12">2009</text>
		</g>
		<g transform="translate(639,0)">
			<text transform="matrix(1 0 0 1 361.3118 588.41)" class="st14 st12">2010</text>
		</g>
		<g transform="translate(702,0)">
			<text transform="matrix(1 0 0 1 361.7571 588.41)" class="st14 st12">2011</text>
		</g>
		<g transform="translate(765,0)">
			<text transform="matrix(1 0 0 1 361.3118 588.41)" class="st14 st12">2012</text>
		</g>
		<g transform="translate(828,0)">
			<text transform="matrix(1 0 0 1 361.3118 588.41)" class="st14 st12">2013</text>
		</g>
		<g transform="translate(891,0)">
			<text transform="matrix(1 0 0 1 361.3118 588.41)" class="st14 st12">2014</text>
		</g>
		<g>
			<g>
				<g>
					<g>
						<g>
							<line class="st15" x1="381.5" y1="405.7" x2="375.9" y2="400.1"/>
							<line class="st15" x1="381.5" y1="400.1" x2="375.9" y2="405.7"/>
						</g>
					</g>
				</g>
			</g>
		</g>
		<g>
			<g>
				<g>
					<g>
						<g>
							<line class="st15" x1="507.5" y1="405.7" x2="501.9" y2="400.1"/>
							<line class="st15" x1="507.5" y1="400.1" x2="501.9" y2="405.7"/>
						</g>
					</g>
				</g>
			</g>
		</g>
		<g>
			<g>
				<g>
					<g>
						<g>
							<line class="st15" x1="570.5" y1="233.7" x2="564.9" y2="228.1"/>
							<line class="st15" x1="570.5" y1="228.1" x2="564.9" y2="233.7"/>
						</g>
					</g>
				</g>
			</g>
		</g>
		<g>
			<g>
				<g>
					<g>
						<g>
							<line class="st15" x1="633.5" y1="366" x2="627.9" y2="360.4"/>
							<line class="st15" x1="633.5" y1="360.4" x2="627.9" y2="366"/>
						</g>
					</g>
				</g>
			</g>
		</g>
		<g>
			<g>
				<g>
					<g>
						<g>
							<line class="st15" x1="696.5" y1="366" x2="690.9" y2="360.4"/>
							<line class="st15" x1="696.5" y1="360.4" x2="690.9" y2="366"/>
						</g>
					</g>
				</g>
			</g>
		</g>
		<g>
			<g>
				<g>
					<g>
						<g>
							<line class="st15" x1="696.5" y1="352.8" x2="690.9" y2="347.2"/>
							<line class="st15" x1="696.5" y1="347.2" x2="690.9" y2="352.8"/>
						</g>
					</g>
				</g>
			</g>
		</g>
		<g>
			<g>
				<g>
					<g>
						<g>
							<line class="st15" x1="759.5" y1="465.2" x2="753.9" y2="459.6"/>
							<line class="st15" x1="759.5" y1="459.6" x2="753.9" y2="465.2"/>
						</g>
					</g>
				</g>
			</g>
		</g>
		<g>
			<g>
				<g>
					<g>
						<g>
							<line class="st15" x1="759.5" y1="445.4" x2="753.9" y2="439.8"/>
							<line class="st15" x1="759.5" y1="439.8" x2="753.9" y2="445.4"/>
						</g>
					</g>
				</g>
			</g>
		</g>
		<g>
			<g>
				<g>
					<g>
						<g>
							<line class="st15" x1="759.5" y1="445.4" x2="753.9" y2="439.8"/>
							<line class="st15" x1="759.5" y1="439.8" x2="753.9" y2="445.4"/>
						</g>
					</g>
				</g>
			</g>
		</g>
		<g>
			<g>
				<g>
					<g>
						<g>
							<line class="st15" x1="822.5" y1="366" x2="816.9" y2="360.4"/>
							<line class="st15" x1="822.5" y1="360.4" x2="816.9" y2="366"/>
						</g>
					</g>
				</g>
			</g>
		</g>
		<g>
			<g>
				<g>
					<g>
						<g>
							<line class="st15" x1="822.5" y1="299.8" x2="816.9" y2="294.2"/>
							<line class="st15" x1="822.5" y1="294.2" x2="816.9" y2="299.8"/>
						</g>
					</g>
				</g>
			</g>
		</g>
		<g>
			<g>
				<g>
					<g>
						<g>
							<line class="st15" x1="822.5" y1="299.8" x2="816.9" y2="294.2"/>
							<line class="st15" x1="822.5" y1="294.2" x2="816.9" y2="299.8"/>
						</g>
					</g>
				</g>
			</g>
		</g>
		<g>
			<g>
				<g>
					<g>
						<g>
							<line class="st15" x1="822.5" y1="286.6" x2="816.9" y2="281"/>
							<line class="st15" x1="822.5" y1="281" x2="816.9" y2="286.6"/>
						</g>
					</g>
				</g>
			</g>
		</g>
		<g>
			<g>
				<g>
					<g>
						<g>
							<line class="st15" x1="885.5" y1="465.2" x2="879.9" y2="459.6"/>
							<line class="st15" x1="885.5" y1="459.6" x2="879.9" y2="465.2"/>
						</g>
					</g>
				</g>
			</g>
		</g>
		<g>
			<g>
				<g>
					<g>
						<g>
							<line class="st15" x1="885.5" y1="458.6" x2="879.9" y2="453"/>
							<line class="st15" x1="885.5" y1="453" x2="879.9" y2="458.6"/>
						</g>
					</g>
				</g>
			</g>
		</g>
		<g>
			<g>
				<g>
					<g>
						<g>
							<line class="st15" x1="885.5" y1="458.6" x2="879.9" y2="453"/>
							<line class="st15" x1="885.5" y1="453" x2="879.9" y2="458.6"/>
						</g>
					</g>
				</g>
			</g>
		</g>
		<g>
			<g>
				<g>
					<g>
						<g>
							<line class="st15" x1="885.5" y1="445.4" x2="879.9" y2="439.8"/>
							<line class="st15" x1="885.5" y1="439.8" x2="879.9" y2="445.4"/>
						</g>
					</g>
				</g>
			</g>
		</g>
		<g>
			<g>
				<g>
					<g>
						<g>
							<line class="st15" x1="885.5" y1="432.2" x2="879.9" y2="426.6"/>
							<line class="st15" x1="885.5" y1="426.6" x2="879.9" y2="432.2"/>
						</g>
					</g>
				</g>
			</g>
		</g>
		<g>
			<g>
				<g>
					<g>
						<g>
							<line class="st15" x1="885.5" y1="432.2" x2="879.9" y2="426.6"/>
							<line class="st15" x1="885.5" y1="426.6" x2="879.9" y2="432.2"/>
						</g>
					</g>
				</g>
			</g>
		</g>
		<g>
			<g>
				<g>
					<g>
						<g>
							<line class="st15" x1="885.5" y1="326.3" x2="879.9" y2="320.7"/>
							<line class="st15" x1="885.5" y1="320.7" x2="879.9" y2="326.3"/>
						</g>
					</g>
				</g>
			</g>
		</g>
		<g>
			<g>
				<g>
					<g>
						<g>
							<line class="st15" x1="948.5" y1="405.7" x2="942.9" y2="400.1"/>
							<line class="st15" x1="948.5" y1="400.1" x2="942.9" y2="405.7"/>
						</g>
					</g>
				</g>
			</g>
		</g>
		<g>
			<g>
				<g>
					<g>
						<g>
							<line class="st15" x1="948.5" y1="366" x2="942.9" y2="360.4"/>
							<line class="st15" x1="948.5" y1="360.4" x2="942.9" y2="366"/>
						</g>
					</g>
				</g>
			</g>
		</g>
		<g>
			<g>
				<g>
					<g>
						<g>
							<line class="st15" x1="1011.5" y1="432.2" x2="1005.9" y2="426.6"/>
							<line class="st15" x1="1011.5" y1="426.6" x2="1005.9" y2="432.2"/>
						</g>
					</g>
				</g>
			</g>
		</g>
		<g>
			<g>
				<g>
					<g>
						<g>
							<line class="st15" x1="1011.5" y1="366" x2="1005.9" y2="360.4"/>
							<line class="st15" x1="1011.5" y1="360.4" x2="1005.9" y2="366"/>
						</g>
					</g>
				</g>
			</g>
		</g>
		<g>
			<g>
				<g>
					<g>
						<g>
							<line class="st15" x1="1011.5" y1="366" x2="1005.9" y2="360.4"/>
							<line class="st15" x1="1011.5" y1="360.4" x2="1005.9" y2="366"/>
						</g>
					</g>
				</g>
			</g>
		</g>
		<g>
			<g>
				<g>
					<g>
						<g>
							<line class="st15" x1="1137.5" y1="445.4" x2="1131.9" y2="439.8"/>
							<line class="st15" x1="1137.5" y1="439.8" x2="1131.9" y2="445.4"/>
						</g>
					</g>
				</g>
			</g>
		</g>
		<g>
			<g>
				<g>
					<g>
						<g>
							<line class="st15" x1="1137.5" y1="445.4" x2="1131.9" y2="439.8"/>
							<line class="st15" x1="1137.5" y1="439.8" x2="1131.9" y2="445.4"/>
						</g>
					</g>
				</g>
			</g>
		</g>
		<g>
			<g>
				<g>
					<g>
						<g>
							<line class="st15" x1="1200.5" y1="425.6" x2="1194.9" y2="420"/>
							<line class="st15" x1="1200.5" y1="420" x2="1194.9" y2="425.6"/>
						</g>
					</g>
				</g>
			</g>
		</g>
		<g>
			<g>
				<g>
					<g>
						<g>
							<line class="st15" x1="1200.5" y1="405.7" x2="1194.9" y2="400.1"/>
							<line class="st15" x1="1200.5" y1="400.1" x2="1194.9" y2="405.7"/>
						</g>
					</g>
				</g>
			</g>
		</g>
		<g>
			<g>
				<g>
					<g>
						<g>
							<line class="st15" x1="1200.5" y1="233.7" x2="1194.9" y2="228.1"/>
							<line class="st15" x1="1200.5" y1="228.1" x2="1194.9" y2="233.7"/>
						</g>
					</g>
				</g>
			</g>
		</g>
		<line class="st16" x1="378.7" y1="525.3" x2="378.7" y2="522"/>
		<line class="st17" x1="378.7" y1="534.5" x2="378.7" y2="525.3"/>
		<line class="st18" x1="378.7" y1="548.5" x2="378.7" y2="534.5"/>
		<line class="st19" x1="378.7" y1="558.4" x2="378.7" y2="548.5"/>
		<line class="st16" x1="441.7" y1="522" x2="441.7" y2="482.3"/>
		<line class="st17" x1="441.7" y1="535.2" x2="441.7" y2="522"/>
		<line class="st18" x1="441.7" y1="548.5" x2="441.7" y2="535.2"/>
		<line class="st19" x1="441.7" y1="560.9" x2="441.7" y2="548.5"/>
		<line class="st16" x1="504.7" y1="502.1" x2="504.7" y2="455.8"/>
		<line class="st18" x1="504.7" y1="535.2" x2="504.7" y2="502.1"/>
		<line class="st19" x1="504.7" y1="536.7" x2="504.7" y2="535.2"/>
		<line class="st17" x1="567.7" y1="508.8" x2="567.7" y2="429.4"/>
		<line class="st18" x1="567.7" y1="535.2" x2="567.7" y2="508.8"/>
		<line class="st19" x1="567.7" y1="555.1" x2="567.7" y2="535.2"/>
		<line class="st16" x1="630.7" y1="482.3" x2="630.7" y2="429.4"/>
		<line class="st17" x1="630.7" y1="522" x2="630.7" y2="482.3"/>
		<line class="st18" x1="630.7" y1="535.2" x2="630.7" y2="522"/>
		<line class="st19" x1="630.7" y1="555.1" x2="630.7" y2="535.2"/>
		<line class="st16" x1="693.7" y1="482.3" x2="693.7" y2="402.9"/>
		<line class="st17" x1="693.7" y1="522" x2="693.7" y2="482.3"/>
		<line class="st18" x1="693.7" y1="535.2" x2="693.7" y2="522"/>
		<line class="st19" x1="693.7" y1="552.8" x2="693.7" y2="535.2"/>
		<line class="st16" x1="756.7" y1="518.7" x2="756.7" y2="482.3"/>
		<line class="st17" x1="756.7" y1="535.2" x2="756.7" y2="518.7"/>
		<line class="st18" x1="756.7" y1="548.5" x2="756.7" y2="535.2"/>
		<line class="st19" x1="756.7" y1="555.1" x2="756.7" y2="548.5"/>
		<line class="st16" x1="819.7" y1="482.3" x2="819.7" y2="402.9"/>
		<line class="st17" x1="819.7" y1="522" x2="819.7" y2="482.3"/>
		<line class="st18" x1="819.7" y1="535.2" x2="819.7" y2="522"/>
		<line class="st19" x1="819.7" y1="555.1" x2="819.7" y2="535.2"/>
		<line class="st16" x1="882.7" y1="522" x2="882.7" y2="482.3"/>
		<line class="st17" x1="882.7" y1="535.2" x2="882.7" y2="522"/>
		<line class="st18" x1="882.7" y1="548.5" x2="882.7" y2="535.2"/>
		<line class="st19" x1="882.7" y1="557.7" x2="882.7" y2="548.5"/>
		<line class="st16" x1="945.7" y1="495.5" x2="945.7" y2="442.6"/>
		<line class="st17" x1="945.7" y1="525.3" x2="945.7" y2="495.5"/>
		<line class="st18" x1="945.7" y1="544.5" x2="945.7" y2="525.3"/>
		<line class="st19" x1="945.7" y1="558.4" x2="945.7" y2="544.5"/>
		<line class="st16" x1="1008.7" y1="495.5" x2="1008.7" y2="469.1"/>
		<line class="st17" x1="1008.7" y1="522" x2="1008.7" y2="495.5"/>
		<line class="st18" x1="1008.7" y1="535.2" x2="1008.7" y2="522"/>
		<line class="st19" x1="1008.7" y1="548.5" x2="1008.7" y2="535.2"/>
		<line class="st17" x1="1071.7" y1="535.2" x2="1071.7" y2="522"/>
		<line class="st18" x1="1071.7" y1="541.8" x2="1071.7" y2="535.2"/>
		<line class="st19" x1="1071.7" y1="548.5" x2="1071.7" y2="541.8"/>
		<line class="st16" x1="1134.7" y1="518.7" x2="1134.7" y2="508.8"/>
		<line class="st17" x1="1134.7" y1="535.2" x2="1134.7" y2="518.7"/>
		<line class="st18" x1="1134.7" y1="548.5" x2="1134.7" y2="535.2"/>
		<line class="st16" x1="1197.7" y1="492.2" x2="1197.7" y2="429.4"/>
		<line class="st17" x1="1197.7" y1="522" x2="1197.7" y2="492.2"/>
		<line class="st18" x1="1197.7" y1="536.9" x2="1197.7" y2="522"/>
		<line class="st19" x1="1197.7" y1="551.8" x2="1197.7" y2="536.9"/>
		<line class="st18" x1="1260.7" y1="538.5" x2="1260.7" y2="535.2"/>
		<line class="st19" x1="1260.7" y1="541.8" x2="1260.7" y2="538.5"/>
		<line class="st20" x1="367.3" y1="534.5" x2="390" y2="534.5"/>
		<line class="st20" x1="430.3" y1="535.2" x2="453" y2="535.2"/>
		<line class="st20" x1="493.3" y1="535.2" x2="516" y2="535.2"/>
		<line class="st20" x1="556.3" y1="508.8" x2="579" y2="508.8"/>
		<line class="st20" x1="619.3" y1="522" x2="642" y2="522"/>
		<line class="st20" x1="682.3" y1="522" x2="705" y2="522"/>
		<line class="st20" x1="745.3" y1="535.2" x2="768" y2="535.2"/>
		<line class="st20" x1="808.3" y1="522" x2="831" y2="522"/>
		<line class="st20" x1="871.3" y1="534.9" x2="894" y2="534.9"/>
		<line class="st20" x1="934.3" y1="525.3" x2="957" y2="525.3"/>
		<line class="st20" x1="997.3" y1="522" x2="1020" y2="522"/>
		<line class="st20" x1="1060.3" y1="535.2" x2="1083" y2="535.2"/>
		<line class="st20" x1="1123.3" y1="535.9" x2="1146" y2="535.9"/>
		<line class="st20" x1="1186.3" y1="522" x2="1209" y2="522"/>
		<line class="st20" x1="1249.3" y1="535.9" x2="1272" y2="535.9"/>
		<text transform="matrix(1 0 0 1 337.304 539.0604)" class="st21 st12">0.02</text>
		<text transform="matrix(1 0 0 1 337.304 563.5604)" class="st21 st12">0.00</text>
		<text transform="matrix(1 0 0 1 337.304 512.5969)" class="st21 st12">0.04</text>
		<text transform="matrix(1 0 0 1 337.304 486.1334)" class="st21 st12">0.06</text>
		<text transform="matrix(1 0 0 1 337.304 459.6699)" class="st21 st12">0.08</text>
		<text transform="matrix(1 0 0 1 337.304 433.2064)" class="st21 st12">0.10</text>
		<text transform="matrix(1 0 0 1 337.304 406.7429)" class="st21 st12">0.12</text>
		<text transform="matrix(1 0 0 1 337.304 380.2794)" class="st21 st12">0.14</text>
		<text transform="matrix(1 0 0 1 337.304 353.8158)" class="st21 st12">0.16</text>
		<text transform="matrix(1 0 0 1 337.304 327.3523)" class="st21 st12">0.18</text>
		<text transform="matrix(1 0 0 1 337.304 300.8888)" class="st21 st12">0.20</text>
		<text transform="matrix(1 0 0 1 337.304 274.4253)" class="st21 st12">0.22</text>
		<text transform="matrix(1 0 0 1 337.304 247.9618)" class="st21 st12">0.24</text>
	</g>
	<g>
		<text transform="matrix(1 0 0 1 136.7 291.5166)" class="st22 st14 st23">outliers</text>
		<text transform="matrix(1 0 0 1 136.7 466.818)" class="st24"><tspan x="0" y="0" class="st22 st14 st23">25% of</tspan><tspan x="0" y="14.4" class="st22 st14 st23">reports</tspan></text>
		<text transform="matrix(1 0 0 1 136.6998 525.6174)" class="st24"><tspan x="0" y="0" class="st22 st14 st23">25% of</tspan><tspan x="0" y="14.4" class="st22 st14 st23">reports</tspan></text>
		<text transform="matrix(1 0 0 1 136.6998 587.0127)" class="st22 st14 st23">year</text>
		<text transform="matrix(1 0 0 1 136.6997 349.3174)" class="st24"><tspan x="0" y="0" class="st22 st14 st23">25% of</tspan><tspan x="0" y="14.4" class="st22 st14 st23">reports</tspan></text>
		<text transform="matrix(1 0 0 1 136.6995 408.0677)" class="st24"><tspan x="0" y="0" class="st22 st14 st23">25% of</tspan><tspan x="0" y="14.4" class="st22 st14 st23">reports</tspan></text>
		<text transform="matrix(1 0 0 1 136.7 241.2538)" class="st22 st11 st23">LEGEND</text>
		<text transform="matrix(1 0 0 1 136.6997 444.6531)" class="st22 st14 st23">median</text>
		<g>
			<text transform="matrix(1 0 0 1 140.1996 625.8562)" class="st24"><tspan x="0" y="0" class="st22 st14 st23">n° of</tspan><tspan x="0" y="14.4" class="st22 st14 st23">reports</tspan></text>
		</g>
		<circle class="st25" cx="237" cy="609" r="5.6"/>
		<text transform="matrix(1 0 0 1 227.7201 586.4699)" class="st22 st14 st12">2000</text>
		<line class="st26" x1="237" y1="382.7" x2="237" y2="323.9"/>
		<line class="st26" x1="237" y1="382.7" x2="237" y2="323.9"/>
		<line class="st27" x1="237" y1="441.4" x2="237" y2="382.7"/>
		<line class="st26" x1="237" y1="382.7" x2="237" y2="323.9"/>
		<line class="st28" x1="237" y1="500.2" x2="237" y2="441.4"/>
		<line class="st29" x1="237" y1="559" x2="237" y2="500.2"/>
		<line class="st30" x1="225" y1="441.4" x2="249" y2="441.4"/>
		<text transform="matrix(1 0 0 1 234.4961 640.4708)" class="st22 st11 st12">4</text>
		<line class="st30" x1="239" y1="291.1" x2="235" y2="287.1"/>
		<line class="st30" x1="239" y1="287.1" x2="235" y2="291.1"/>
		<g>
			<g>
				<line class="st30" x1="210.5" y1="289.1" x2="190.3" y2="289.1"/>
				<g>
					<polygon class="st22" points="208.8,287 208.5,287.4 210.3,289.1 208.5,290.7 208.8,291.1 211,289.1 					"/>
				</g>
			</g>
		</g>
		<g>
			<g>
				<line class="st30" x1="210.5" y1="353.3" x2="190.3" y2="353.3"/>
				<g>
					<polygon class="st22" points="208.8,351.2 208.5,351.6 210.3,353.3 208.5,354.9 208.8,355.3 211,353.3 					"/>
				</g>
			</g>
		</g>
		<g>
			<g>
				<line class="st30" x1="210.5" y1="412.8" x2="190.3" y2="412.8"/>
				<g>
					<polygon class="st22" points="208.8,410.8 208.5,411.1 210.3,412.8 208.5,414.5 208.8,414.9 211,412.8 					"/>
				</g>
			</g>
		</g>
		<g>
			<g>
				<line class="st30" x1="210.5" y1="441.4" x2="190.3" y2="441.4"/>
				<g>
					<polygon class="st22" points="208.8,439.3 208.5,439.7 210.3,441.4 208.5,443 208.8,443.4 211,441.4 					"/>
				</g>
			</g>
		</g>
		<g>
			<g>
				<line class="st30" x1="210.5" y1="470.8" x2="190.3" y2="470.8"/>
				<g>
					<polygon class="st22" points="208.8,468.7 208.5,469.1 210.3,470.8 208.5,472.4 208.8,472.8 211,470.8 					"/>
				</g>
			</g>
		</g>
		<g>
			<g>
				<line class="st30" x1="210.5" y1="529.6" x2="190.3" y2="529.6"/>
				<g>
					<polygon class="st22" points="208.8,527.5 208.5,527.9 210.3,529.6 208.5,531.2 208.8,531.6 211,529.6 					"/>
				</g>
			</g>
		</g>
		<g>
			<g>
				<line class="st30" x1="210.5" y1="583.8" x2="190.3" y2="583.8"/>
				<g>
					<polygon class="st22" points="208.8,581.7 208.5,582.1 210.3,583.8 208.5,585.4 208.8,585.8 211,583.8 					"/>
				</g>
			</g>
		</g>
		<g>
			<g>
				<line class="st30" x1="210.5" y1="609" x2="190.3" y2="609"/>
				<g>
					<polygon class="st22" points="208.8,606.9 208.5,607.3 210.3,609 208.5,610.6 208.8,611 211,609 					"/>
				</g>
			</g>
		</g>
		<g>
			<g>
				<line class="st30" x1="210.5" y1="636.5" x2="190.3" y2="636.5"/>
				<g>
					<polygon class="st22" points="208.8,634.5 208.5,634.9 210.3,636.5 208.5,638.2 208.8,638.6 211,636.5 					"/>
				</g>
			</g>
		</g>
		<polyline class="st30" points="227.7,601.2 223,601.2 223,616.7 227.7,616.7 		"/>
	</g>
</g>
</svg>
