<?xml version="1.0" encoding="utf-8"?>
<!-- Generator: Adobe Illustrator 19.1.0, SVG Export Plug-In . SVG Version: 6.00 Build 0)  -->
<svg version="1.1" xmlns="http://www.w3.org/2000/svg" xmlns:xlink="http://www.w3.org/1999/xlink" x="0px" y="0px"
	 viewBox="132 170.9 1140 500" style="enable-background:new 132 170.9 1140 500;" xml:space="preserve">
<style type="text/css">
	.st0{fill:#F4F4F4;stroke:#FDFDFD;stroke-miterlimit:10;}
	.st1{font-family:'SourceSansPro-Bold';}
	.st2{font-size:10px;}
	.st3{fill:none;stroke:#F51325;stroke-linejoin:round;}
	.st4{font-family:'SourceSansPro-Light';}
	.st5{fill:none;stroke:#373737;stroke-linejoin:round;}
	.st6{fill:none;stroke:#F51325;stroke-width:10;stroke-linejoin:round;}
	.st7{opacity:0.8;fill:none;stroke:#F51325;stroke-width:10;stroke-linejoin:round;}
	.st8{opacity:0.5;fill:none;stroke:#F51325;stroke-width:10;stroke-linejoin:round;}
	.st9{opacity:0.3;fill:none;stroke:#F51325;stroke-width:10;stroke-linejoin:round;}
	.st10{fill:#FFFFFF;stroke:#000000;stroke-miterlimit:10;}
	.st11{font-family:'SourceSansPro-Regular';}
	.st12{fill:#373737;}
	.st13{font-size:12px;}
	.st14{fill:none;stroke:#373737;stroke-width:0.9854;}
	.st15{fill:none;stroke:#373737;stroke-width:10;stroke-miterlimit:10;}
	.st16{opacity:0.8;fill:none;stroke:#373737;stroke-width:10;stroke-miterlimit:10;enable-background:new    ;}
	.st17{opacity:0.5;fill:none;stroke:#373737;stroke-width:10;stroke-miterlimit:10;enable-background:new    ;}
	.st18{opacity:0.3;fill:none;stroke:#373737;stroke-width:10;stroke-miterlimit:10;enable-background:new    ;}
	.st19{fill:none;stroke:#373737;stroke-width:0.5;stroke-linejoin:round;}
</style>
<g id="livelli">
</g>
<g id="cose_sotto">
</g>
<g id="Layer_1">
</g>
<g id="outliers">
</g>
<g id="boxplot">
</g>
<g id="mediasn">
</g>
<g id="numeri">
</g>
<g id="cose_di_lato">
	<g transform="translate(0,0)">
		<g transform="translate(0,43.231756214915826)">
		</g>
	</g>
	<g>
		<rect x="366.8" y="535.7" class="st0" width="900" height="25.2"/>
		<rect x="366.8" y="509.3" class="st0" width="900" height="26.5"/>
		<rect x="366.8" y="482.8" class="st0" width="900" height="26.5"/>
		<rect x="366.8" y="429.8" class="st0" width="900" height="26.5"/>
		<rect x="366.8" y="376.9" class="st0" width="900" height="26.5"/>
		<rect x="366.8" y="350.4" class="st0" width="900" height="26.5"/>
		<rect x="366.8" y="323.8" class="st0" width="900" height="26.6"/>
		<rect x="366.8" y="297.3" class="st0" width="900" height="26.6"/>
		<rect x="366.8" y="270.7" class="st0" width="900" height="26.6"/>
		<rect x="366.8" y="244.1" class="st0" width="900" height="26.6"/>
		<rect x="366.8" y="403.3" class="st0" width="900" height="26.5"/>
		<rect x="366.8" y="456.3" class="st0" width="900" height="26.5"/>
		<text transform="matrix(1 0 0 1 372.9857 640.89)" class="st1 st2">10</text>
		<text transform="matrix(1 0 0 1 435.9857 640.89)" class="st1 st2">13</text>
		<text transform="matrix(1 0 0 1 498.9857 640.89)" class="st1 st2">15</text>
		<text transform="matrix(1 0 0 1 565.3226 640.89)" class="st1 st2">9</text>
		<text transform="matrix(1 0 0 1 624.9857 640.89)" class="st1 st2">21</text>
		<text transform="matrix(1 0 0 1 687.9857 640.89)" class="st1 st2">35</text>
		<text transform="matrix(1 0 0 1 750.9857 640.89)" class="st1 st2">39</text>
		<text transform="matrix(1 0 0 1 810.6488 640.89)" class="st1 st2">129</text>
		<text transform="matrix(1 0 0 1 876.9857 640.89)" class="st1 st2">69</text>
		<text transform="matrix(1 0 0 1 939.9857 640.89)" class="st1 st2">42</text>
		<text transform="matrix(1 0 0 1 1002.9857 640.89)" class="st1 st2">35</text>
		<text transform="matrix(1 0 0 1 1069.3225 640.89)" class="st1 st2">7</text>
		<text transform="matrix(1 0 0 1 1128.9856 640.89)" class="st1 st2">12</text>
		<text transform="matrix(1 0 0 1 1191.9856 640.89)" class="st1 st2">28</text>
		<text transform="matrix(1 0 0 1 1258.3225 640.89)" class="st1 st2">3</text>
		<circle class="st3" cx="379.7" cy="610.9" r="3.9"/>
		<circle class="st3" cx="442.7" cy="610.9" r="4.5"/>
		<circle class="st3" cx="505.7" cy="610.9" r="4.9"/>
		<circle class="st3" cx="568.7" cy="610.9" r="3.7"/>
		<circle class="st3" cx="631.7" cy="610.9" r="5.8"/>
		<circle class="st3" cx="694.7" cy="610.9" r="7.7"/>
		<circle class="st3" cx="757.7" cy="610.9" r="8.1"/>
		<circle class="st3" cx="820.7" cy="610.9" r="15"/>
		<circle class="st3" cx="883.7" cy="610.9" r="10.9"/>
		<circle class="st3" cx="946.7" cy="610.9" r="8.4"/>
		<circle class="st3" cx="1009.7" cy="610.9" r="7.7"/>
		<circle class="st3" cx="1072.7" cy="610.9" r="3.2"/>
		<circle class="st3" cx="1135.7" cy="610.9" r="4.3"/>
		<circle class="st3" cx="1198.7" cy="610.9" r="6.8"/>
		<circle class="st3" cx="1261.7" cy="610.9" r="2"/>
		<g transform="translate(9,0)">
			<text transform="matrix(1 0 0 1 361.3119 588.41)" class="st4 st2">2000</text>
		</g>
		<g transform="translate(72,0)">
			<text transform="matrix(1 0 0 1 361.3119 588.41)" class="st4 st2">2001</text>
		</g>
		<g transform="translate(135,0)">
			<text transform="matrix(1 0 0 1 361.3118 588.41)" class="st4 st2">2002</text>
		</g>
		<g transform="translate(198,0)">
			<text transform="matrix(1 0 0 1 361.3118 588.41)" class="st4 st2">2003</text>
		</g>
		<g transform="translate(261,0)">
			<text transform="matrix(1 0 0 1 361.3118 588.41)" class="st4 st2">2004</text>
		</g>
		<g transform="translate(324,0)">
			<text transform="matrix(1 0 0 1 361.3119 588.41)" class="st4 st2">2005</text>
		</g>
		<g transform="translate(387,0)">
			<text transform="matrix(1 0 0 1 361.3119 588.41)" class="st4 st2">2006</text>
		</g>
		<g transform="translate(450,0)">
			<text transform="matrix(1 0 0 1 361.3119 588.41)" class="st4 st2">2007</text>
		</g>
		<g transform="translate(513,0)">
			<text transform="matrix(1 0 0 1 361.3119 588.41)" class="st4 st2">2008</text>
		</g>
		<g transform="translate(576,0)">
			<text transform="matrix(1 0 0 1 361.3118 588.41)" class="st4 st2">2009</text>
		</g>
		<g transform="translate(639,0)">
			<text transform="matrix(1 0 0 1 361.3118 588.41)" class="st4 st2">2010</text>
		</g>
		<g transform="translate(702,0)">
			<text transform="matrix(1 0 0 1 361.7571 588.41)" class="st4 st2">2011</text>
		</g>
		<g transform="translate(765,0)">
			<text transform="matrix(1 0 0 1 361.3118 588.41)" class="st4 st2">2012</text>
		</g>
		<g transform="translate(828,0)">
			<text transform="matrix(1 0 0 1 361.3118 588.41)" class="st4 st2">2013</text>
		</g>
		<g transform="translate(891,0)">
			<text transform="matrix(1 0 0 1 361.3118 588.41)" class="st4 st2">2014</text>
		</g>
		<g>
			<g>
				<g>
					<g>
						<g>
							<line class="st5" x1="381.5" y1="405.7" x2="375.9" y2="400.1"/>
							<line class="st5" x1="381.5" y1="400.1" x2="375.9" y2="405.7"/>
						</g>
					</g>
				</g>
			</g>
		</g>
		<g>
			<g>
				<g>
					<g>
						<g>
							<line class="st5" x1="507.5" y1="405.7" x2="501.9" y2="400.1"/>
							<line class="st5" x1="507.5" y1="400.1" x2="501.9" y2="405.7"/>
						</g>
					</g>
				</g>
			</g>
		</g>
		<g>
			<g>
				<g>
					<g>
						<g>
							<line class="st5" x1="570.5" y1="233.7" x2="564.9" y2="228.1"/>
							<line class="st5" x1="570.5" y1="228.1" x2="564.9" y2="233.7"/>
						</g>
					</g>
				</g>
			</g>
		</g>
		<g>
			<g>
				<g>
					<g>
						<g>
							<line class="st5" x1="633.5" y1="366" x2="627.9" y2="360.4"/>
							<line class="st5" x1="633.5" y1="360.4" x2="627.9" y2="366"/>
						</g>
					</g>
				</g>
			</g>
		</g>
		<g>
			<g>
				<g>
					<g>
						<g>
							<line class="st5" x1="696.5" y1="366" x2="690.9" y2="360.4"/>
							<line class="st5" x1="696.5" y1="360.4" x2="690.9" y2="366"/>
						</g>
					</g>
				</g>
			</g>
		</g>
		<g>
			<g>
				<g>
					<g>
						<g>
							<line class="st5" x1="696.5" y1="352.8" x2="690.9" y2="347.2"/>
							<line class="st5" x1="696.5" y1="347.2" x2="690.9" y2="352.8"/>
						</g>
					</g>
				</g>
			</g>
		</g>
		<g>
			<g>
				<g>
					<g>
						<g>
							<line class="st5" x1="759.5" y1="465.2" x2="753.9" y2="459.6"/>
							<line class="st5" x1="759.5" y1="459.6" x2="753.9" y2="465.2"/>
						</g>
					</g>
				</g>
			</g>
		</g>
		<g>
			<g>
				<g>
					<g>
						<g>
							<line class="st5" x1="759.5" y1="445.4" x2="753.9" y2="439.8"/>
							<line class="st5" x1="759.5" y1="439.8" x2="753.9" y2="445.4"/>
						</g>
					</g>
				</g>
			</g>
		</g>
		<g>
			<g>
				<g>
					<g>
						<g>
							<line class="st5" x1="759.5" y1="445.4" x2="753.9" y2="439.8"/>
							<line class="st5" x1="759.5" y1="439.8" x2="753.9" y2="445.4"/>
						</g>
					</g>
				</g>
			</g>
		</g>
		<g>
			<g>
				<g>
					<g>
						<g>
							<line class="st5" x1="822.5" y1="366" x2="816.9" y2="360.4"/>
							<line class="st5" x1="822.5" y1="360.4" x2="816.9" y2="366"/>
						</g>
					</g>
				</g>
			</g>
		</g>
		<g>
			<g>
				<g>
					<g>
						<g>
							<line class="st5" x1="822.5" y1="299.8" x2="816.9" y2="294.2"/>
							<line class="st5" x1="822.5" y1="294.2" x2="816.9" y2="299.8"/>
						</g>
					</g>
				</g>
			</g>
		</g>
		<g>
			<g>
				<g>
					<g>
						<g>
							<line class="st5" x1="822.5" y1="299.8" x2="816.9" y2="294.2"/>
							<line class="st5" x1="822.5" y1="294.2" x2="816.9" y2="299.8"/>
						</g>
					</g>
				</g>
			</g>
		</g>
		<g>
			<g>
				<g>
					<g>
						<g>
							<line class="st5" x1="822.5" y1="286.6" x2="816.9" y2="281"/>
							<line class="st5" x1="822.5" y1="281" x2="816.9" y2="286.6"/>
						</g>
					</g>
				</g>
			</g>
		</g>
		<g>
			<g>
				<g>
					<g>
						<g>
							<line class="st5" x1="885.5" y1="465.2" x2="879.9" y2="459.6"/>
							<line class="st5" x1="885.5" y1="459.6" x2="879.9" y2="465.2"/>
						</g>
					</g>
				</g>
			</g>
		</g>
		<g>
			<g>
				<g>
					<g>
						<g>
							<line class="st5" x1="885.5" y1="458.6" x2="879.9" y2="453"/>
							<line class="st5" x1="885.5" y1="453" x2="879.9" y2="458.6"/>
						</g>
					</g>
				</g>
			</g>
		</g>
		<g>
			<g>
				<g>
					<g>
						<g>
							<line class="st5" x1="885.5" y1="458.6" x2="879.9" y2="453"/>
							<line class="st5" x1="885.5" y1="453" x2="879.9" y2="458.6"/>
						</g>
					</g>
				</g>
			</g>
		</g>
		<g>
			<g>
				<g>
					<g>
						<g>
							<line class="st5" x1="885.5" y1="445.4" x2="879.9" y2="439.8"/>
							<line class="st5" x1="885.5" y1="439.8" x2="879.9" y2="445.4"/>
						</g>
					</g>
				</g>
			</g>
		</g>
		<g>
			<g>
				<g>
					<g>
						<g>
							<line class="st5" x1="885.5" y1="432.2" x2="879.9" y2="426.6"/>
							<line class="st5" x1="885.5" y1="426.6" x2="879.9" y2="432.2"/>
						</g>
					</g>
				</g>
			</g>
		</g>
		<g>
			<g>
				<g>
					<g>
						<g>
							<line class="st5" x1="885.5" y1="432.2" x2="879.9" y2="426.6"/>
							<line class="st5" x1="885.5" y1="426.6" x2="879.9" y2="432.2"/>
						</g>
					</g>
				</g>
			</g>
		</g>
		<g>
			<g>
				<g>
					<g>
						<g>
							<line class="st5" x1="885.5" y1="326.3" x2="879.9" y2="320.7"/>
							<line class="st5" x1="885.5" y1="320.7" x2="879.9" y2="326.3"/>
						</g>
					</g>
				</g>
			</g>
		</g>
		<g>
			<g>
				<g>
					<g>
						<g>
							<line class="st5" x1="948.5" y1="405.7" x2="942.9" y2="400.1"/>
							<line class="st5" x1="948.5" y1="400.1" x2="942.9" y2="405.7"/>
						</g>
					</g>
				</g>
			</g>
		</g>
		<g>
			<g>
				<g>
					<g>
						<g>
							<line class="st5" x1="948.5" y1="366" x2="942.9" y2="360.4"/>
							<line class="st5" x1="948.5" y1="360.4" x2="942.9" y2="366"/>
						</g>
					</g>
				</g>
			</g>
		</g>
		<g>
			<g>
				<g>
					<g>
						<g>
							<line class="st5" x1="1011.5" y1="432.2" x2="1005.9" y2="426.6"/>
							<line class="st5" x1="1011.5" y1="426.6" x2="1005.9" y2="432.2"/>
						</g>
					</g>
				</g>
			</g>
		</g>
		<g>
			<g>
				<g>
					<g>
						<g>
							<line class="st5" x1="1011.5" y1="366" x2="1005.9" y2="360.4"/>
							<line class="st5" x1="1011.5" y1="360.4" x2="1005.9" y2="366"/>
						</g>
					</g>
				</g>
			</g>
		</g>
		<g>
			<g>
				<g>
					<g>
						<g>
							<line class="st5" x1="1011.5" y1="366" x2="1005.9" y2="360.4"/>
							<line class="st5" x1="1011.5" y1="360.4" x2="1005.9" y2="366"/>
						</g>
					</g>
				</g>
			</g>
		</g>
		<g>
			<g>
				<g>
					<g>
						<g>
							<line class="st5" x1="1137.5" y1="445.4" x2="1131.9" y2="439.8"/>
							<line class="st5" x1="1137.5" y1="439.8" x2="1131.9" y2="445.4"/>
						</g>
					</g>
				</g>
			</g>
		</g>
		<g>
			<g>
				<g>
					<g>
						<g>
							<line class="st5" x1="1137.5" y1="445.4" x2="1131.9" y2="439.8"/>
							<line class="st5" x1="1137.5" y1="439.8" x2="1131.9" y2="445.4"/>
						</g>
					</g>
				</g>
			</g>
		</g>
		<g>
			<g>
				<g>
					<g>
						<g>
							<line class="st5" x1="1200.5" y1="425.6" x2="1194.9" y2="420"/>
							<line class="st5" x1="1200.5" y1="420" x2="1194.9" y2="425.6"/>
						</g>
					</g>
				</g>
			</g>
		</g>
		<g>
			<g>
				<g>
					<g>
						<g>
							<line class="st5" x1="1200.5" y1="405.7" x2="1194.9" y2="400.1"/>
							<line class="st5" x1="1200.5" y1="400.1" x2="1194.9" y2="405.7"/>
						</g>
					</g>
				</g>
			</g>
		</g>
		<g>
			<g>
				<g>
					<g>
						<g>
							<line class="st5" x1="1200.5" y1="233.7" x2="1194.9" y2="228.1"/>
							<line class="st5" x1="1200.5" y1="228.1" x2="1194.9" y2="233.7"/>
						</g>
					</g>
				</g>
			</g>
		</g>
		<line class="st6" x1="378.7" y1="525.3" x2="378.7" y2="522"/>
		<line class="st7" x1="378.7" y1="534.5" x2="378.7" y2="525.3"/>
		<line class="st8" x1="378.7" y1="548.5" x2="378.7" y2="534.5"/>
		<line class="st9" x1="378.7" y1="558.4" x2="378.7" y2="548.5"/>
		<line class="st6" x1="441.7" y1="522" x2="441.7" y2="482.3"/>
		<line class="st7" x1="441.7" y1="535.2" x2="441.7" y2="522"/>
		<line class="st8" x1="441.7" y1="548.5" x2="441.7" y2="535.2"/>
		<line class="st9" x1="441.7" y1="560.9" x2="441.7" y2="548.5"/>
		<line class="st6" x1="504.7" y1="502.1" x2="504.7" y2="455.8"/>
		<line class="st8" x1="504.7" y1="535.2" x2="504.7" y2="502.1"/>
		<line class="st9" x1="504.7" y1="536.7" x2="504.7" y2="535.2"/>
		<line class="st7" x1="567.7" y1="508.8" x2="567.7" y2="429.4"/>
		<line class="st8" x1="567.7" y1="535.2" x2="567.7" y2="508.8"/>
		<line class="st9" x1="567.7" y1="555.1" x2="567.7" y2="535.2"/>
		<line class="st6" x1="630.7" y1="482.3" x2="630.7" y2="429.4"/>
		<line class="st7" x1="630.7" y1="522" x2="630.7" y2="482.3"/>
		<line class="st8" x1="630.7" y1="535.2" x2="630.7" y2="522"/>
		<line class="st9" x1="630.7" y1="555.1" x2="630.7" y2="535.2"/>
		<line class="st6" x1="693.7" y1="482.3" x2="693.7" y2="402.9"/>
		<line class="st7" x1="693.7" y1="522" x2="693.7" y2="482.3"/>
		<line class="st8" x1="693.7" y1="535.2" x2="693.7" y2="522"/>
		<line class="st9" x1="693.7" y1="552.8" x2="693.7" y2="535.2"/>
		<line class="st6" x1="756.7" y1="518.7" x2="756.7" y2="482.3"/>
		<line class="st7" x1="756.7" y1="535.2" x2="756.7" y2="518.7"/>
		<line class="st8" x1="756.7" y1="548.5" x2="756.7" y2="535.2"/>
		<line class="st9" x1="756.7" y1="555.1" x2="756.7" y2="548.5"/>
		<line class="st6" x1="819.7" y1="482.3" x2="819.7" y2="402.9"/>
		<line class="st7" x1="819.7" y1="522" x2="819.7" y2="482.3"/>
		<line class="st8" x1="819.7" y1="535.2" x2="819.7" y2="522"/>
		<line class="st9" x1="819.7" y1="555.1" x2="819.7" y2="535.2"/>
		<line class="st6" x1="882.7" y1="522" x2="882.7" y2="482.3"/>
		<line class="st7" x1="882.7" y1="535.2" x2="882.7" y2="522"/>
		<line class="st8" x1="882.7" y1="548.5" x2="882.7" y2="535.2"/>
		<line class="st9" x1="882.7" y1="557.7" x2="882.7" y2="548.5"/>
		<line class="st6" x1="945.7" y1="495.5" x2="945.7" y2="442.6"/>
		<line class="st7" x1="945.7" y1="525.3" x2="945.7" y2="495.5"/>
		<line class="st8" x1="945.7" y1="544.5" x2="945.7" y2="525.3"/>
		<line class="st9" x1="945.7" y1="558.4" x2="945.7" y2="544.5"/>
		<line class="st6" x1="1008.7" y1="495.5" x2="1008.7" y2="469.1"/>
		<line class="st7" x1="1008.7" y1="522" x2="1008.7" y2="495.5"/>
		<line class="st8" x1="1008.7" y1="535.2" x2="1008.7" y2="522"/>
		<line class="st9" x1="1008.7" y1="548.5" x2="1008.7" y2="535.2"/>
		<line class="st7" x1="1071.7" y1="535.2" x2="1071.7" y2="522"/>
		<line class="st8" x1="1071.7" y1="541.8" x2="1071.7" y2="535.2"/>
		<line class="st9" x1="1071.7" y1="548.5" x2="1071.7" y2="541.8"/>
		<line class="st6" x1="1134.7" y1="518.7" x2="1134.7" y2="508.8"/>
		<line class="st7" x1="1134.7" y1="535.2" x2="1134.7" y2="518.7"/>
		<line class="st8" x1="1134.7" y1="548.5" x2="1134.7" y2="535.2"/>
		<line class="st6" x1="1197.7" y1="492.2" x2="1197.7" y2="429.4"/>
		<line class="st7" x1="1197.7" y1="522" x2="1197.7" y2="492.2"/>
		<line class="st8" x1="1197.7" y1="536.9" x2="1197.7" y2="522"/>
		<line class="st9" x1="1197.7" y1="551.8" x2="1197.7" y2="536.9"/>
		<line class="st8" x1="1260.7" y1="538.5" x2="1260.7" y2="535.2"/>
		<line class="st9" x1="1260.7" y1="541.8" x2="1260.7" y2="538.5"/>
		<line class="st10" x1="367.3" y1="534.5" x2="390" y2="534.5"/>
		<line class="st10" x1="430.3" y1="535.2" x2="453" y2="535.2"/>
		<line class="st10" x1="493.3" y1="535.2" x2="516" y2="535.2"/>
		<line class="st10" x1="556.3" y1="508.8" x2="579" y2="508.8"/>
		<line class="st10" x1="619.3" y1="522" x2="642" y2="522"/>
		<line class="st10" x1="682.3" y1="522" x2="705" y2="522"/>
		<line class="st10" x1="745.3" y1="535.2" x2="768" y2="535.2"/>
		<line class="st10" x1="808.3" y1="522" x2="831" y2="522"/>
		<line class="st10" x1="871.3" y1="534.9" x2="894" y2="534.9"/>
		<line class="st10" x1="934.3" y1="525.3" x2="957" y2="525.3"/>
		<line class="st10" x1="997.3" y1="522" x2="1020" y2="522"/>
		<line class="st10" x1="1060.3" y1="535.2" x2="1083" y2="535.2"/>
		<line class="st10" x1="1123.3" y1="535.9" x2="1146" y2="535.9"/>
		<line class="st10" x1="1186.3" y1="522" x2="1209" y2="522"/>
		<line class="st10" x1="1249.3" y1="535.9" x2="1272" y2="535.9"/>
		<text transform="matrix(1 0 0 1 337.304 539.0604)" class="st11 st2">0.02</text>
		<text transform="matrix(1 0 0 1 337.304 563.5604)" class="st11 st2">0.00</text>
		<text transform="matrix(1 0 0 1 337.304 512.5969)" class="st11 st2">0.04</text>
		<text transform="matrix(1 0 0 1 337.304 486.1334)" class="st11 st2">0.06</text>
		<text transform="matrix(1 0 0 1 337.304 459.6699)" class="st11 st2">0.08</text>
		<text transform="matrix(1 0 0 1 337.304 433.2064)" class="st11 st2">0.10</text>
		<text transform="matrix(1 0 0 1 337.304 406.7429)" class="st11 st2">0.12</text>
		<text transform="matrix(1 0 0 1 337.304 380.2794)" class="st11 st2">0.14</text>
		<text transform="matrix(1 0 0 1 337.304 353.8158)" class="st11 st2">0.16</text>
		<text transform="matrix(1 0 0 1 337.304 327.3523)" class="st11 st2">0.18</text>
		<text transform="matrix(1 0 0 1 337.304 300.8888)" class="st11 st2">0.20</text>
		<text transform="matrix(1 0 0 1 337.304 274.4253)" class="st11 st2">0.22</text>
		<text transform="matrix(1 0 0 1 337.304 247.9618)" class="st11 st2">0.24</text>
	</g>
	<g id="mediane">
		<g>
			<text transform="matrix(1 0 0 1 132.0003 292.6335)" class="st12 st4 st13">outliers</text>
			<text transform="matrix(1 0 0 1 132.0003 467.935)" class="st12 st4 st13">25% of</text>
			<text transform="matrix(1 0 0 1 132.0003 482.335)" class="st12 st4 st13">reports</text>
			<text transform="matrix(1 0 0 1 132.0001 526.7344)" class="st12 st4 st13">25% of</text>
			<text transform="matrix(1 0 0 1 132.0001 541.1343)" class="st12 st4 st13">reports</text>
			<text transform="matrix(1 0 0 1 132.0001 588.1297)" class="st12 st4 st13">year</text>
			<text transform="matrix(1 0 0 1 132 350.4344)" class="st12 st4 st13">25% of</text>
			<text transform="matrix(1 0 0 1 132 364.8344)" class="st12 st4 st13">reports</text>
			<text transform="matrix(1 0 0 1 131.9998 409.1847)" class="st12 st4 st13">25% of</text>
			<text transform="matrix(1 0 0 1 131.9998 423.5847)" class="st12 st4 st13">reports</text>
			<text transform="matrix(1 0 0 1 132.0003 242.3708)" class="st12 st1 st13">LEGEND</text>
			<text transform="matrix(1 0 0 1 132 445.7701)" class="st12 st4 st13">median</text>
			<g>
				<text transform="matrix(1 0 0 1 131.9999 626.9732)" class="st12 st4 st13">n° of</text>
				<text transform="matrix(1 0 0 1 131.9999 641.3732)" class="st12 st4 st13">reports</text>
			</g>
			<circle class="st14" cx="232.3" cy="610.1" r="5.6"/>
			<text transform="matrix(1 0 0 1 223.0204 587.5869)" class="st12 st4 st2">2000</text>
			<line class="st15" x1="232.3" y1="383.8" x2="232.3" y2="325"/>
			<line class="st15" x1="232.3" y1="383.8" x2="232.3" y2="325"/>
			<line class="st16" x1="232.3" y1="442.5" x2="232.3" y2="383.8"/>
			<line class="st15" x1="232.3" y1="383.8" x2="232.3" y2="325"/>
			<line class="st17" x1="232.3" y1="501.3" x2="232.3" y2="442.5"/>
			<line class="st18" x1="232.3" y1="560.1" x2="232.3" y2="501.3"/>
			<line class="st19" x1="220.3" y1="442.5" x2="244.3" y2="442.5"/>
			<text transform="matrix(1 0 0 1 229.7964 641.5878)" class="st12 st1 st2">4</text>
			<line class="st19" x1="234.3" y1="292.2" x2="230.3" y2="288.2"/>
			<line class="st19" x1="234.3" y1="288.2" x2="230.3" y2="292.2"/>
			<g>
				<g>
					<line class="st19" x1="205.8" y1="290.2" x2="185.6" y2="290.2"/>
					<g>
						<polygon class="st12" points="204.1,288.1 203.8,288.5 205.6,290.2 203.8,291.8 204.1,292.2 206.3,290.2 						"/>
					</g>
				</g>
			</g>
			<g>
				<g>
					<line class="st19" x1="205.8" y1="354.4" x2="185.6" y2="354.4"/>
					<g>
						<polygon class="st12" points="204.1,352.3 203.8,352.7 205.6,354.4 203.8,356 204.1,356.4 206.3,354.4 						"/>
					</g>
				</g>
			</g>
			<g>
				<g>
					<line class="st19" x1="205.8" y1="413.9" x2="185.6" y2="413.9"/>
					<g>
						<polygon class="st12" points="204.1,411.9 203.8,412.2 205.6,413.9 203.8,415.6 204.1,416 206.3,413.9 						"/>
					</g>
				</g>
			</g>
			<g>
				<g>
					<line class="st19" x1="205.8" y1="442.5" x2="185.6" y2="442.5"/>
					<g>
						<polygon class="st12" points="204.1,440.4 203.8,440.8 205.6,442.5 203.8,444.1 204.1,444.5 206.3,442.5 						"/>
					</g>
				</g>
			</g>
			<g>
				<g>
					<line class="st19" x1="205.8" y1="471.9" x2="185.6" y2="471.9"/>
					<g>
						<polygon class="st12" points="204.1,469.8 203.8,470.2 205.6,471.9 203.8,473.5 204.1,473.9 206.3,471.9 						"/>
					</g>
				</g>
			</g>
			<g>
				<g>
					<line class="st19" x1="205.8" y1="530.7" x2="185.6" y2="530.7"/>
					<g>
						<polygon class="st12" points="204.1,528.6 203.8,529 205.6,530.7 203.8,532.3 204.1,532.7 206.3,530.7 						"/>
					</g>
				</g>
			</g>
			<g>
				<g>
					<line class="st19" x1="205.8" y1="584.9" x2="185.6" y2="584.9"/>
					<g>
						<polygon class="st12" points="204.1,582.8 203.8,583.2 205.6,584.9 203.8,586.5 204.1,586.9 206.3,584.9 						"/>
					</g>
				</g>
			</g>
			<g>
				<g>
					<line class="st19" x1="205.8" y1="610.1" x2="185.6" y2="610.1"/>
					<g>
						<polygon class="st12" points="204.1,608 203.8,608.4 205.6,610.1 203.8,611.7 204.1,612.1 206.3,610.1 						"/>
					</g>
				</g>
			</g>
			<g>
				<g>
					<line class="st19" x1="205.8" y1="637.6" x2="185.6" y2="637.6"/>
					<g>
						<polygon class="st12" points="204.1,635.6 203.8,636 205.6,637.6 203.8,639.3 204.1,639.7 206.3,637.6 						"/>
					</g>
				</g>
			</g>
			<polyline class="st19" points="223,602.3 218.3,602.3 218.3,617.8 223,617.8 			"/>
		</g>
	</g>
</g>
</svg>
