<?xml version="1.0" encoding="utf-8"?>
<!-- Generator: Adobe Illustrator 19.2.1, SVG Export Plug-In . SVG Version: 6.00 Build 0)  -->
<svg version="1.1" id="Layer_1" xmlns="http://www.w3.org/2000/svg" xmlns:xlink="http://www.w3.org/1999/xlink" x="0px" y="0px"
	 viewBox="0 0 1140 500" style="enable-background:new 0 0 1140 500;" xml:space="preserve">
<style type="text/css">
	.st0{font-family:'SourceSansPro-Regular';}
	.st1{font-size:10px;}
	.st2{fill:#F4F4F4;stroke:#FDFDFD;stroke-miterlimit:10;}
	.st3{fill:none;stroke:#000000;stroke-miterlimit:10;}
	.st4{font-family:'SourceSansPro-Bold';}
	.st5{fill:none;stroke:#FC1235;stroke-miterlimit:10;}
	.st6{font-family:'SourceSansPro-Light';}
	.st7{fill:none;stroke:#FC1235;stroke-width:10;stroke-miterlimit:10;}
	.st8{opacity:0.8;fill:none;stroke:#FC1235;stroke-width:10;stroke-miterlimit:10;enable-background:new    ;}
	.st9{opacity:0.5;fill:none;stroke:#FC1235;stroke-width:10;stroke-miterlimit:10;enable-background:new    ;}
	.st10{opacity:0.3;fill:none;stroke:#FC1235;stroke-width:10;stroke-miterlimit:10;enable-background:new    ;}
	.st11{fill:#373737;}
	.st12{font-size:12px;}
	.st13{fill:none;stroke:#373737;stroke-width:0.9854;}
	.st14{fill:none;stroke:#373737;stroke-width:10;stroke-miterlimit:10;}
	.st15{opacity:0.8;fill:none;stroke:#373737;stroke-width:10;stroke-miterlimit:10;enable-background:new    ;}
	.st16{opacity:0.5;fill:none;stroke:#373737;stroke-width:10;stroke-miterlimit:10;enable-background:new    ;}
	.st17{opacity:0.3;fill:none;stroke:#373737;stroke-width:10;stroke-miterlimit:10;enable-background:new    ;}
	.st18{fill:none;stroke:#373737;stroke-width:0.5;stroke-linejoin:round;}
	.st19{fill:#FFFFFF;}
</style>
<g id="levels">
</g>
<g id="Layer_1_1_">
</g>
<g id="sfondo">
</g>
<g id="outliers">
</g>
<g id="outliers_croci">
</g>
<g id="numeri">
</g>
<g id="h_axis">
</g>
<g id="BOXPLOT_STILATI">
</g>
<g>
	<g id="mediane">
		<g>
			<g transform="translate(0,0)">
				<g transform="translate(0,332.29007633587787)">
					<g>
						<text transform="matrix(1 0 0 1 203.804 59.3121)" class="st0 st1">0.02</text>
					</g>
				</g>
				<g transform="translate(0,332.29007633587787)">
					<g>
						<text transform="matrix(1 0 0 1 203.804 85.9788)" class="st0 st1">0.00</text>
					</g>
				</g>
				<g transform="translate(0,298.7022900763359)">
					<g>
						<text transform="matrix(1 0 0 1 203.804 59.312)" class="st0 st1">0.04</text>
					</g>
				</g>
				<g transform="translate(0,265.1145038167939)">
					<g>
						<text transform="matrix(1 0 0 1 203.804 59.3121)" class="st0 st1">0.06</text>
					</g>
				</g>
				<g transform="translate(0,231.5267175572519)">
					<g>
						<text transform="matrix(1 0 0 1 203.804 59.3121)" class="st0 st1">0.08</text>
					</g>
				</g>
				<g transform="translate(0,197.93893129770993)">
					<g>
						<text transform="matrix(1 0 0 1 203.804 59.312)" class="st0 st1">0.10</text>
					</g>
				</g>
				<g transform="translate(0,164.35114503816797)">
					<g>
						<text transform="matrix(1 0 0 1 203.804 59.3121)" class="st0 st1">0.12</text>
					</g>
				</g>
				<g transform="translate(0,130.76335877862593)">
					<g>
						<text transform="matrix(1 0 0 1 203.804 59.3121)" class="st0 st1">0.14</text>
					</g>
				</g>
				<g transform="translate(0,97.175572519084)">
					<g>
						<text transform="matrix(1 0 0 1 203.804 59.3121)" class="st0 st1">0.16</text>
					</g>
				</g>
				<g transform="translate(0,63.58778625954203)">
					<g>
						<text transform="matrix(1 0 0 1 203.804 59.3121)" class="st0 st1">0.18</text>
					</g>
				</g>
				<g transform="translate(0,30)">
					<g>
						<text transform="matrix(1 0 0 1 203.804 59.3121)" class="st0 st1">0.20</text>
					</g>
				</g>
			</g>
			<rect x="236.2" y="387.8" class="st2" width="900" height="27.7"/>
			<rect x="236.2" y="354.2" class="st2" width="900" height="33.6"/>
			<rect x="236.2" y="320.6" class="st2" width="900" height="33.6"/>
			<rect x="236.2" y="287" class="st2" width="900" height="33.6"/>
			<rect x="236.2" y="253.4" class="st2" width="900" height="33.6"/>
			<rect x="236.2" y="219.8" class="st2" width="900" height="33.6"/>
			<rect x="236.2" y="186.2" class="st2" width="900" height="33.6"/>
			<rect x="236.2" y="152.6" class="st2" width="900" height="33.6"/>
			<rect x="236.2" y="119" class="st2" width="900" height="33.6"/>
			<rect x="236.2" y="85.4" class="st2" width="900" height="33.6"/>
			<g>
				<g>
					<line class="st3" x1="247.5" y1="390.6" x2="241.9" y2="385"/>
					<line class="st3" x1="247.5" y1="385" x2="241.9" y2="390.6"/>
				</g>
			</g>
			<g>
				<g>
					<line class="st3" x1="247.5" y1="323.4" x2="241.9" y2="317.8"/>
					<line class="st3" x1="247.5" y1="317.8" x2="241.9" y2="323.4"/>
				</g>
			</g>
			<g>
				<g>
					<line class="st3" x1="247.5" y1="323.4" x2="241.9" y2="317.8"/>
					<line class="st3" x1="247.5" y1="317.8" x2="241.9" y2="323.4"/>
				</g>
			</g>
			<g>
				<g>
					<line class="st3" x1="315.5" y1="407.4" x2="309.9" y2="401.8"/>
					<line class="st3" x1="315.5" y1="401.8" x2="309.9" y2="407.4"/>
				</g>
			</g>
			<g>
				<g>
					<line class="st3" x1="315.5" y1="390.6" x2="309.9" y2="385"/>
					<line class="st3" x1="315.5" y1="385" x2="309.9" y2="390.6"/>
				</g>
			</g>
			<g>
				<g>
					<line class="st3" x1="315.5" y1="306.6" x2="309.9" y2="301"/>
					<line class="st3" x1="315.5" y1="301" x2="309.9" y2="306.6"/>
				</g>
			</g>
			<g>
				<g>
					<line class="st3" x1="315.5" y1="239.4" x2="309.9" y2="233.8"/>
					<line class="st3" x1="315.5" y1="233.8" x2="309.9" y2="239.4"/>
				</g>
			</g>
			<g>
				<g>
					<line class="st3" x1="315.5" y1="88.3" x2="309.9" y2="82.7"/>
					<line class="st3" x1="315.5" y1="82.7" x2="309.9" y2="88.3"/>
				</g>
			</g>
			<g>
				<g>
					<line class="st3" x1="383.5" y1="273" x2="377.9" y2="267.4"/>
					<line class="st3" x1="383.5" y1="267.4" x2="377.9" y2="273"/>
				</g>
			</g>
			<g>
				<g>
					<line class="st3" x1="383.5" y1="264.6" x2="377.9" y2="259"/>
					<line class="st3" x1="383.5" y1="259" x2="377.9" y2="264.6"/>
				</g>
			</g>
			<g>
				<g>
					<line class="st3" x1="383.5" y1="239.4" x2="377.9" y2="233.8"/>
					<line class="st3" x1="383.5" y1="233.8" x2="377.9" y2="239.4"/>
				</g>
			</g>
			<g>
				<g>
					<line class="st3" x1="383.5" y1="239.4" x2="377.9" y2="233.8"/>
					<line class="st3" x1="383.5" y1="233.8" x2="377.9" y2="239.4"/>
				</g>
			</g>
			<g>
				<g>
					<line class="st3" x1="383.5" y1="155.5" x2="377.9" y2="149.9"/>
					<line class="st3" x1="383.5" y1="149.9" x2="377.9" y2="155.5"/>
				</g>
			</g>
			<g>
				<g>
					<line class="st3" x1="451.5" y1="256.2" x2="445.9" y2="250.6"/>
					<line class="st3" x1="451.5" y1="250.6" x2="445.9" y2="256.2"/>
				</g>
			</g>
			<g>
				<g>
					<line class="st3" x1="451.5" y1="222.6" x2="445.9" y2="217"/>
					<line class="st3" x1="451.5" y1="217" x2="445.9" y2="222.6"/>
				</g>
			</g>
			<g>
				<g>
					<line class="st3" x1="655.5" y1="256.2" x2="649.9" y2="250.6"/>
					<line class="st3" x1="655.5" y1="250.6" x2="649.9" y2="256.2"/>
				</g>
			</g>
			<g>
				<g>
					<line class="st3" x1="655.5" y1="189.1" x2="649.9" y2="183.5"/>
					<line class="st3" x1="655.5" y1="183.5" x2="649.9" y2="189.1"/>
				</g>
			</g>
			<g>
				<g>
					<line class="st3" x1="723.5" y1="231" x2="717.9" y2="225.4"/>
					<line class="st3" x1="723.5" y1="225.4" x2="717.9" y2="231"/>
				</g>
			</g>
			<g>
				<g>
					<line class="st3" x1="791.5" y1="172.3" x2="785.9" y2="166.7"/>
					<line class="st3" x1="791.5" y1="166.7" x2="785.9" y2="172.3"/>
				</g>
			</g>
			<g>
				<g>
					<line class="st3" x1="791.5" y1="172.3" x2="785.9" y2="166.7"/>
					<line class="st3" x1="791.5" y1="166.7" x2="785.9" y2="172.3"/>
				</g>
			</g>
			<g>
				<g>
					<line class="st3" x1="791.5" y1="88.3" x2="785.9" y2="82.7"/>
					<line class="st3" x1="791.5" y1="82.7" x2="785.9" y2="88.3"/>
				</g>
			</g>
			<g>
				<text transform="matrix(1 0 0 1 237.4857 495.4721)" class="st4 st1">13</text>
			</g>
			<g>
				<text transform="matrix(1 0 0 1 305.4857 495.4721)" class="st4 st1">22</text>
			</g>
			<g>
				<text transform="matrix(1 0 0 1 373.4857 495.4721)" class="st4 st1">86</text>
			</g>
			<g>
				<text transform="matrix(1 0 0 1 441.4857 495.4721)" class="st4 st1">29</text>
			</g>
			<g>
				<text transform="matrix(1 0 0 1 509.4857 495.4721)" class="st4 st1">12</text>
			</g>
			<g>
				<text transform="matrix(1 0 0 1 577.931 495.4721)" class="st4 st1">11</text>
			</g>
			<g>
				<text transform="matrix(1 0 0 1 645.4857 495.4721)" class="st4 st1">16</text>
			</g>
			<g>
				<text transform="matrix(1 0 0 1 713.4857 495.4721)" class="st4 st1">14</text>
			</g>
			<g>
				<text transform="matrix(1 0 0 1 781.4857 495.4721)" class="st4 st1">38</text>
			</g>
			<g>
				<text transform="matrix(1 0 0 1 852.8226 495.4721)" class="st4 st1">6</text>
			</g>
			<g>
				<text transform="matrix(1 0 0 1 920.8226 495.4721)" class="st4 st1">2</text>
			</g>
			<g>
				<text transform="matrix(1 0 0 1 988.8226 495.4721)" class="st4 st1">3</text>
			</g>
			<g>
				<text transform="matrix(1 0 0 1 1056.8226 495.4721)" class="st4 st1">4</text>
			</g>
			<g>
				<text transform="matrix(1 0 0 1 1124.8226 495.4721)" class="st4 st1">2</text>
			</g>
			<g transform="translate(0,410)">
				<circle class="st5" cx="243.2" cy="55.5" r="5.6"/>
				<circle class="st5" cx="311.2" cy="55.5" r="7.4"/>
				<circle class="st5" cx="379.2" cy="55.5" r="15"/>
				<circle class="st5" cx="447.2" cy="55.5" r="8.6"/>
				<circle class="st5" cx="515.2" cy="55.5" r="5.4"/>
				<circle class="st5" cx="583.2" cy="55.5" r="5.1"/>
				<circle class="st5" cx="651.2" cy="55.5" r="6.3"/>
				<circle class="st5" cx="719.2" cy="55.5" r="5.8"/>
				<circle class="st5" cx="787.2" cy="55.5" r="9.9"/>
				<circle class="st5" cx="855.2" cy="55.5" r="3.7"/>
				<circle class="st5" cx="923.2" cy="55.5" r="2"/>
				<circle class="st5" cx="991.2" cy="55.5" r="2.5"/>
				<circle class="st5" cx="1059.2" cy="55.5" r="3"/>
				<circle class="st5" cx="1127.2" cy="55.5" r="2"/>
			</g>
			<g>
				<text transform="matrix(1 0 0 1 234.3119 442.992)" class="st6 st1">2000</text>
			</g>
			<g>
				<text transform="matrix(1 0 0 1 302.3119 442.992)" class="st6 st1">2001</text>
			</g>
			<g>
				<text transform="matrix(1 0 0 1 370.3118 442.992)" class="st6 st1">2002</text>
			</g>
			<g>
				<text transform="matrix(1 0 0 1 438.3118 442.992)" class="st6 st1">2003</text>
			</g>
			<g>
				<text transform="matrix(1 0 0 1 506.3119 442.992)" class="st6 st1">2004</text>
			</g>
			<g>
				<text transform="matrix(1 0 0 1 574.3118 442.992)" class="st6 st1">2005</text>
			</g>
			<g>
				<text transform="matrix(1 0 0 1 642.3118 442.992)" class="st6 st1">2006</text>
			</g>
			<g>
				<text transform="matrix(1 0 0 1 710.3118 442.992)" class="st6 st1">2007</text>
			</g>
			<g>
				<text transform="matrix(1 0 0 1 778.3118 442.992)" class="st6 st1">2008</text>
			</g>
			<g>
				<text transform="matrix(1 0 0 1 846.3119 442.992)" class="st6 st1">2010</text>
			</g>
			<g>
				<text transform="matrix(1 0 0 1 914.7572 442.992)" class="st6 st1">2011</text>
			</g>
			<g>
				<text transform="matrix(1 0 0 1 982.3119 442.992)" class="st6 st1">2012</text>
			</g>
			<g>
				<text transform="matrix(1 0 0 1 1050.3119 442.992)" class="st6 st1">2013</text>
			</g>
			<g>
				<text transform="matrix(1 0 0 1 1118.3119 442.992)" class="st6 st1">2014</text>
			</g>
			<line class="st7" x1="1128.7" y1="305.9" x2="1128.7" y2="287"/>
			<line class="st8" x1="1128.7" y1="324.8" x2="1128.7" y2="305.9"/>
			<line class="st9" x1="1128.7" y1="343.7" x2="1128.7" y2="324.8"/>
			<line class="st10" x1="1128.7" y1="362.6" x2="1128.7" y2="343.7"/>
			<line class="st7" x1="1060.7" y1="318.5" x2="1060.7" y2="287"/>
			<line class="st8" x1="1060.7" y1="341.6" x2="1060.7" y2="318.5"/>
			<line class="st9" x1="1060.7" y1="358.4" x2="1060.7" y2="341.6"/>
			<line class="st10" x1="1060.7" y1="371" x2="1060.7" y2="358.4"/>
			<line class="st9" x1="992.7" y1="387.8" x2="992.7" y2="370.2"/>
			<line class="st10" x1="992.7" y1="404.6" x2="992.7" y2="387.8"/>
			<line class="st7" x1="924.7" y1="373.1" x2="924.7" y2="371"/>
			<line class="st8" x1="924.7" y1="375.2" x2="924.7" y2="373.1"/>
			<line class="st9" x1="924.7" y1="377.3" x2="924.7" y2="375.2"/>
			<line class="st10" x1="924.7" y1="379.4" x2="924.7" y2="377.3"/>
			<line class="st8" x1="856.7" y1="354.2" x2="856.7" y2="337.4"/>
			<line class="st9" x1="856.7" y1="371" x2="856.7" y2="354.2"/>
			<line class="st10" x1="856.7" y1="374.3" x2="856.7" y2="371"/>
			<line class="st7" x1="788.7" y1="301.7" x2="788.7" y2="203"/>
			<line class="st8" x1="788.7" y1="337.4" x2="788.7" y2="301.7"/>
			<line class="st9" x1="788.7" y1="368.9" x2="788.7" y2="337.4"/>
			<line class="st10" x1="788.7" y1="409.6" x2="788.7" y2="368.9"/>
			<line class="st7" x1="720.7" y1="314.3" x2="720.7" y2="253.4"/>
			<line class="st8" x1="720.7" y1="354.2" x2="720.7" y2="314.3"/>
			<line class="st9" x1="720.7" y1="371" x2="720.7" y2="354.2"/>
			<line class="st10" x1="720.7" y1="379.4" x2="720.7" y2="371"/>
			<line class="st7" x1="652.7" y1="354.2" x2="652.7" y2="337.4"/>
			<line class="st8" x1="652.7" y1="368.5" x2="652.7" y2="354.2"/>
			<line class="st9" x1="652.7" y1="396.2" x2="652.7" y2="368.5"/>
			<line class="st10" x1="652.7" y1="413" x2="652.7" y2="396.2"/>
			<line class="st7" x1="584.7" y1="329" x2="584.7" y2="253.4"/>
			<line class="st8" x1="584.7" y1="337.4" x2="584.7" y2="329"/>
			<line class="st9" x1="584.7" y1="383.6" x2="584.7" y2="337.4"/>
			<line class="st10" x1="584.7" y1="407.9" x2="584.7" y2="383.6"/>
			<line class="st7" x1="516.7" y1="337.4" x2="516.7" y2="320.6"/>
			<line class="st8" x1="516.7" y1="362.6" x2="516.7" y2="337.4"/>
			<line class="st9" x1="516.7" y1="383.6" x2="516.7" y2="362.6"/>
			<line class="st10" x1="516.7" y1="404.6" x2="516.7" y2="383.6"/>
			<line class="st7" x1="448.7" y1="337.4" x2="448.7" y2="270.2"/>
			<line class="st8" x1="448.7" y1="371" x2="448.7" y2="337.4"/>
			<line class="st9" x1="448.7" y1="387.8" x2="448.7" y2="371"/>
			<line class="st10" x1="448.7" y1="415.5" x2="448.7" y2="387.8"/>
			<line class="st7" x1="380.7" y1="337.4" x2="380.7" y2="276.9"/>
			<line class="st8" x1="380.7" y1="362.6" x2="380.7" y2="337.4"/>
			<line class="st9" x1="380.7" y1="379.4" x2="380.7" y2="362.6"/>
			<line class="st10" x1="380.7" y1="413" x2="380.7" y2="379.4"/>
			<line class="st8" x1="312.7" y1="352.5" x2="312.7" y2="337.4"/>
			<line class="st9" x1="312.7" y1="354.2" x2="312.7" y2="352.5"/>
			<line class="st10" x1="312.7" y1="371" x2="312.7" y2="354.2"/>
			<line class="st7" x1="244.7" y1="345.8" x2="244.7" y2="337.4"/>
			<line class="st8" x1="244.7" y1="354.2" x2="244.7" y2="345.8"/>
			<line class="st9" x1="244.7" y1="362.6" x2="244.7" y2="354.2"/>
			<line class="st10" x1="244.7" y1="374.3" x2="244.7" y2="362.6"/>
			<line class="st3" x1="233.3" y1="354.2" x2="256" y2="354.2"/>
			<line class="st3" x1="301.3" y1="352.5" x2="324" y2="352.5"/>
			<line class="st3" x1="369.3" y1="362.6" x2="392" y2="362.6"/>
			<line class="st3" x1="437.3" y1="371" x2="460" y2="371"/>
			<line class="st3" x1="505.3" y1="362.6" x2="528" y2="362.6"/>
			<line class="st3" x1="573.3" y1="337.4" x2="596" y2="337.4"/>
			<line class="st3" x1="641.3" y1="368.5" x2="664" y2="368.5"/>
			<line class="st3" x1="709.3" y1="354.2" x2="732" y2="354.2"/>
			<line class="st3" x1="777.3" y1="337.4" x2="800" y2="337.4"/>
			<line class="st3" x1="845.3" y1="354.2" x2="868" y2="354.2"/>
			<line class="st3" x1="913.3" y1="375.2" x2="936" y2="375.2"/>
			<line class="st3" x1="981.3" y1="370.2" x2="1004" y2="370.2"/>
			<line class="st3" x1="1049.3" y1="341.6" x2="1072" y2="341.6"/>
			<line class="st3" x1="1117.3" y1="324.8" x2="1140" y2="324.8"/>
		</g>
		<g id="mediane_1_">
			<g>
				<text transform="matrix(1 0 0 1 3.051758e-04 147.2156)" class="st11 st6 st12">outliers</text>
				<text transform="matrix(1 0 0 1 3.051758e-04 322.5171)" class="st11 st6 st12">25% of</text>
				<text transform="matrix(1 0 0 1 3.051758e-04 336.9171)" class="st11 st6 st12">reports</text>
				<text transform="matrix(1 0 0 1 1.220703e-04 381.3164)" class="st11 st6 st12">25% of</text>
				<text transform="matrix(1 0 0 1 1.220703e-04 395.7163)" class="st11 st6 st12">reports</text>
				<text transform="matrix(1 0 0 1 1.220703e-04 442.7118)" class="st11 st6 st12">year</text>
				<text transform="matrix(1 0 0 1 0 205.0164)" class="st11 st6 st12">25% of</text>
				<text transform="matrix(1 0 0 1 0 219.4165)" class="st11 st6 st12">reports</text>
				<text transform="matrix(1 0 0 1 -1.831055e-04 263.7668)" class="st11 st6 st12">25% of</text>
				<text transform="matrix(1 0 0 1 -1.831055e-04 278.1667)" class="st11 st6 st12">reports</text>
				<text transform="matrix(1 0 0 1 3.051758e-04 96.9529)" class="st11 st4 st12">LEGEND</text>
				<text transform="matrix(1 0 0 1 0 300.3522)" class="st11 st6 st12">median</text>
				<g>
					<text transform="matrix(1 0 0 1 -1.220703e-04 481.5553)" class="st11 st6 st12">n° of</text>
					<text transform="matrix(1 0 0 1 -1.220703e-04 495.9553)" class="st11 st6 st12">reports</text>
				</g>
				<circle class="st13" cx="100.3" cy="464.7" r="5.6"/>
				<text transform="matrix(1 0 0 1 91.0204 442.169)" class="st11 st6 st1">2000</text>
				<line class="st14" x1="100.3" y1="238.4" x2="100.3" y2="179.6"/>
				<line class="st14" x1="100.3" y1="238.4" x2="100.3" y2="179.6"/>
				<line class="st15" x1="100.3" y1="297.1" x2="100.3" y2="238.4"/>
				<line class="st14" x1="100.3" y1="238.4" x2="100.3" y2="179.6"/>
				<line class="st16" x1="100.3" y1="355.9" x2="100.3" y2="297.1"/>
				<line class="st17" x1="100.3" y1="414.7" x2="100.3" y2="355.9"/>
				<line class="st18" x1="88.3" y1="297.1" x2="112.3" y2="297.1"/>
				<text transform="matrix(1 0 0 1 97.7964 496.1699)" class="st11 st4 st1">4</text>
				<line class="st18" x1="102.3" y1="146.8" x2="98.3" y2="142.8"/>
				<line class="st18" x1="102.3" y1="142.8" x2="98.3" y2="146.8"/>
				<g>
					<g>
						<line class="st18" x1="73.8" y1="144.8" x2="53.6" y2="144.8"/>
						<g>
							<polygon class="st11" points="72.1,142.7 71.8,143.1 73.6,144.8 71.8,146.4 72.1,146.8 74.3,144.8 							"/>
						</g>
					</g>
				</g>
				<g>
					<g>
						<line class="st18" x1="73.8" y1="209" x2="53.6" y2="209"/>
						<g>
							<polygon class="st11" points="72.1,206.9 71.8,207.3 73.6,209 71.8,210.6 72.1,211 74.3,209 							"/>
						</g>
					</g>
				</g>
				<g>
					<g>
						<line class="st18" x1="73.8" y1="268.5" x2="53.6" y2="268.5"/>
						<g>
							<polygon class="st11" points="72.1,266.5 71.8,266.8 73.6,268.5 71.8,270.2 72.1,270.6 74.3,268.5 							"/>
						</g>
					</g>
				</g>
				<g>
					<g>
						<line class="st18" x1="73.8" y1="297.1" x2="53.6" y2="297.1"/>
						<g>
							<polygon class="st11" points="72.1,295 71.8,295.4 73.6,297.1 71.8,298.7 72.1,299.1 74.3,297.1 							"/>
						</g>
					</g>
				</g>
				<g>
					<g>
						<line class="st18" x1="73.8" y1="326.5" x2="53.6" y2="326.5"/>
						<g>
							<polygon class="st11" points="72.1,324.4 71.8,324.8 73.6,326.5 71.8,328.1 72.1,328.5 74.3,326.5 							"/>
						</g>
					</g>
				</g>
				<g>
					<g>
						<line class="st18" x1="73.8" y1="385.3" x2="53.6" y2="385.3"/>
						<g>
							<polygon class="st11" points="72.1,383.2 71.8,383.6 73.6,385.3 71.8,386.9 72.1,387.3 74.3,385.3 							"/>
						</g>
					</g>
				</g>
				<g>
					<g>
						<line class="st18" x1="73.8" y1="439.5" x2="53.6" y2="439.5"/>
						<g>
							<polygon class="st11" points="72.1,437.4 71.8,437.8 73.6,439.5 71.8,441.1 72.1,441.5 74.3,439.5 							"/>
						</g>
					</g>
				</g>
				<g>
					<g>
						<line class="st18" x1="73.8" y1="464.7" x2="53.6" y2="464.7"/>
						<g>
							<polygon class="st11" points="72.1,462.6 71.8,463 73.6,464.7 71.8,466.3 72.1,466.7 74.3,464.7 							"/>
						</g>
					</g>
				</g>
				<g>
					<g>
						<line class="st18" x1="73.8" y1="492.2" x2="53.6" y2="492.2"/>
						<g>
							<polygon class="st11" points="72.1,490.2 71.8,490.6 73.6,492.2 71.8,493.9 72.1,494.3 74.3,492.2 							"/>
						</g>
					</g>
				</g>
				<polyline class="st18" points="91,456.9 86.3,456.9 86.3,472.4 91,472.4 				"/>
			</g>
		</g>
	</g>
	<g>
		<g>
			<g>
				<line class="st18" x1="151.5" y1="413" x2="151.5" y2="103.1"/>
				<g>
					<polygon class="st11" points="153.5,104.8 153.2,105.1 151.5,103.3 149.8,105.1 149.5,104.8 151.5,102.6 					"/>
				</g>
			</g>
		</g>
		<g>
			<rect x="123.3" y="230.6" class="st19" width="60.7" height="39.7"/>
			<g>
				<text transform="matrix(1 0 0 1 135 244.8614)" class="st11 st6 st12">dosage</text>
				<text transform="matrix(1 0 0 1 135 259.2614)" class="st11 st6 st12">(grams)</text>
			</g>
		</g>
	</g>
	<g>
		<g>
			<g>
				<line class="st18" x1="151.5" y1="413" x2="151.5" y2="103.1"/>
				<g>
					<polygon class="st11" points="153.5,104.8 153.2,105.1 151.5,103.3 149.8,105.1 149.5,104.8 151.5,102.6 					"/>
				</g>
			</g>
		</g>
		<g>
			<rect x="123.3" y="230.6" class="st19" width="60.7" height="39.7"/>
			<g>
				<text transform="matrix(1 0 0 1 135 244.8614)" class="st11 st6 st12">dosage</text>
				<text transform="matrix(1 0 0 1 135 259.2614)" class="st11 st6 st12">(grams)</text>
			</g>
		</g>
	</g>
</g>
</svg>
