<?xml version="1.0" encoding="utf-8"?>
<!-- Generator: Adobe Illustrator 19.1.0, SVG Export Plug-In . SVG Version: 6.00 Build 0)  -->
<svg version="1.1" xmlns="http://www.w3.org/2000/svg" xmlns:xlink="http://www.w3.org/1999/xlink" x="0px" y="0px"
	 viewBox="132 170.9 1140 500" style="enable-background:new 132 170.9 1140 500;" xml:space="preserve">
<style type="text/css">
	.st0{fill:#373737;}
	.st1{font-family:'SourceSansPro-Regular';}
	.st2{font-size:10px;}
	.st3{opacity:3.000000e-02;}
	.st4{opacity:6.000000e-02;}
	.st5{opacity:9.000000e-02;}
	.st6{opacity:0.12;}
	.st7{opacity:0.15;}
	.st8{opacity:0.18;}
	.st9{opacity:0.21;}
	.st10{opacity:0.24;}
	.st11{opacity:0.27;}
	.st12{opacity:0.3;}
	.st13{fill:none;stroke:#373737;stroke-width:0.5;stroke-linejoin:round;}
	.st14{font-family:'SourceSansPro-Bold';}
	.st15{fill:none;stroke:#A478D6;stroke-miterlimit:10;}
	.st16{font-family:'SourceSansPro-Light';}
	.st17{fill:none;stroke:#A478D6;stroke-width:10;stroke-miterlimit:10;}
	.st18{opacity:0.8;fill:none;stroke:#A478D6;stroke-width:10;stroke-miterlimit:10;}
	.st19{opacity:0.5;fill:none;stroke:#A478D6;stroke-width:10;stroke-miterlimit:10;}
	.st20{opacity:0.3;fill:none;stroke:#A478D6;stroke-width:10;stroke-miterlimit:10;}
	.st21{font-size:12px;}
	.st22{enable-background:new    ;}
	.st23{fill:none;stroke:#373737;stroke-width:0.9854;}
	.st24{fill:none;stroke:#373737;stroke-width:10;stroke-miterlimit:10;}
	.st25{opacity:0.8;fill:none;stroke:#373737;stroke-width:10;stroke-miterlimit:10;enable-background:new    ;}
	.st26{opacity:0.5;fill:none;stroke:#373737;stroke-width:10;stroke-miterlimit:10;enable-background:new    ;}
	.st27{opacity:0.3;fill:none;stroke:#373737;stroke-width:10;stroke-miterlimit:10;enable-background:new    ;}
</style>
<g id="levels">
</g>
<g id="Layer_1">
</g>
<g id="sfondo">
</g>
<g id="outliers">
</g>
<g id="outliers_croci">
</g>
<g id="numeri">
</g>
<g id="h_axis">
</g>
<g id="BOXPLOT_STILATI">
</g>
<g id="mediane">
	<g>
		<g transform="translate(0,0)">
			<g transform="translate(0,332.29007633587787)">
				<text transform="matrix(1 0 0 1 335.804 204.73)" class="st0 st1 st2">0.02</text>
			</g>
			<g transform="translate(0,332.29007633587787)">
				<text transform="matrix(1 0 0 1 335.804 231.3967)" class="st0 st1 st2">0.00</text>
			</g>
			<g transform="translate(0,298.7022900763359)">
				<text transform="matrix(1 0 0 1 335.804 204.73)" class="st0 st1 st2">0.04</text>
			</g>
			<g transform="translate(0,265.1145038167939)">
				<text transform="matrix(1 0 0 1 335.804 204.73)" class="st0 st1 st2">0.06</text>
			</g>
			<g transform="translate(0,231.5267175572519)">
				<text transform="matrix(1 0 0 1 335.804 204.73)" class="st0 st1 st2">0.08</text>
			</g>
			<g transform="translate(0,197.93893129770993)">
				<text transform="matrix(1 0 0 1 335.804 204.73)" class="st0 st1 st2">0.10</text>
			</g>
			<g transform="translate(0,164.35114503816797)">
				<text transform="matrix(1 0 0 1 335.804 204.73)" class="st0 st1 st2">0.12</text>
			</g>
			<g transform="translate(0,130.76335877862593)">
				<text transform="matrix(1 0 0 1 335.804 204.73)" class="st0 st1 st2">0.14</text>
			</g>
			<g transform="translate(0,97.175572519084)">
				<text transform="matrix(1 0 0 1 335.804 204.73)" class="st0 st1 st2">0.16</text>
			</g>
			<g transform="translate(0,63.58778625954203)">
				<text transform="matrix(1 0 0 1 335.804 204.73)" class="st0 st1 st2">0.18</text>
			</g>
			<g transform="translate(0,30)">
				<text transform="matrix(1 0 0 1 335.804 204.73)" class="st0 st1 st2">0.20</text>
			</g>
		</g>
		<rect x="368.2" y="533.2" class="st3" width="900" height="27.7"/>
		<rect x="368.2" y="499.6" class="st4" width="900" height="33.6"/>
		<rect x="368.2" y="466" class="st5" width="900" height="33.6"/>
		<rect x="368.2" y="432.4" class="st6" width="900" height="33.6"/>
		<rect x="368.2" y="398.8" class="st7" width="900" height="33.6"/>
		<rect x="368.2" y="365.2" class="st8" width="900" height="33.6"/>
		<rect x="368.2" y="331.6" class="st9" width="900" height="33.6"/>
		<rect x="368.2" y="298" class="st10" width="900" height="33.6"/>
		<polyline class="st11" points="368.2,264.4 1268.2,264.4 1268.2,298 368.2,298 		"/>
		<rect x="368.2" y="230.8" class="st12" width="900" height="33.6"/>
		<g>
			<g>
				<line class="st13" x1="379.5" y1="536" x2="373.9" y2="530.4"/>
				<line class="st13" x1="379.5" y1="530.4" x2="373.9" y2="536"/>
			</g>
		</g>
		<g>
			<g>
				<line class="st13" x1="379.5" y1="468.8" x2="373.9" y2="463.2"/>
				<line class="st13" x1="379.5" y1="463.2" x2="373.9" y2="468.8"/>
			</g>
		</g>
		<g>
			<g>
				<line class="st13" x1="379.5" y1="468.8" x2="373.9" y2="463.2"/>
				<line class="st13" x1="379.5" y1="463.2" x2="373.9" y2="468.8"/>
			</g>
		</g>
		<g>
			<g>
				<line class="st13" x1="447.5" y1="552.8" x2="441.9" y2="547.2"/>
				<line class="st13" x1="447.5" y1="547.2" x2="441.9" y2="552.8"/>
			</g>
		</g>
		<g>
			<g>
				<line class="st13" x1="447.5" y1="536" x2="441.9" y2="530.4"/>
				<line class="st13" x1="447.5" y1="530.4" x2="441.9" y2="536"/>
			</g>
		</g>
		<g>
			<g>
				<line class="st13" x1="447.5" y1="452" x2="441.9" y2="446.4"/>
				<line class="st13" x1="447.5" y1="446.4" x2="441.9" y2="452"/>
			</g>
		</g>
		<g>
			<g>
				<line class="st13" x1="447.5" y1="384.8" x2="441.9" y2="379.2"/>
				<line class="st13" x1="447.5" y1="379.2" x2="441.9" y2="384.8"/>
			</g>
		</g>
		<g>
			<g>
				<line class="st13" x1="447.5" y1="233.7" x2="441.9" y2="228.1"/>
				<line class="st13" x1="447.5" y1="228.1" x2="441.9" y2="233.7"/>
			</g>
		</g>
		<g>
			<g>
				<line class="st13" x1="515.5" y1="421.8" x2="509.9" y2="416.2"/>
				<line class="st13" x1="515.5" y1="416.2" x2="509.9" y2="421.8"/>
			</g>
		</g>
		<g>
			<g>
				<line class="st13" x1="515.5" y1="418.4" x2="509.9" y2="412.8"/>
				<line class="st13" x1="515.5" y1="412.8" x2="509.9" y2="418.4"/>
			</g>
		</g>
		<g>
			<g>
				<line class="st13" x1="515.5" y1="410" x2="509.9" y2="404.4"/>
				<line class="st13" x1="515.5" y1="404.4" x2="509.9" y2="410"/>
			</g>
		</g>
		<g>
			<g>
				<line class="st13" x1="515.5" y1="384.8" x2="509.9" y2="379.2"/>
				<line class="st13" x1="515.5" y1="379.2" x2="509.9" y2="384.8"/>
			</g>
		</g>
		<g>
			<g>
				<line class="st13" x1="515.5" y1="384.8" x2="509.9" y2="379.2"/>
				<line class="st13" x1="515.5" y1="379.2" x2="509.9" y2="384.8"/>
			</g>
		</g>
		<g>
			<g>
				<line class="st13" x1="515.5" y1="300.9" x2="509.9" y2="295.3"/>
				<line class="st13" x1="515.5" y1="295.3" x2="509.9" y2="300.9"/>
			</g>
		</g>
		<g>
			<g>
				<line class="st13" x1="583.5" y1="401.6" x2="577.9" y2="396"/>
				<line class="st13" x1="583.5" y1="396" x2="577.9" y2="401.6"/>
			</g>
		</g>
		<g>
			<g>
				<line class="st13" x1="583.5" y1="368" x2="577.9" y2="362.4"/>
				<line class="st13" x1="583.5" y1="362.4" x2="577.9" y2="368"/>
			</g>
		</g>
		<g>
			<g>
				<line class="st13" x1="787.5" y1="401.6" x2="781.9" y2="396"/>
				<line class="st13" x1="787.5" y1="396" x2="781.9" y2="401.6"/>
			</g>
		</g>
		<g>
			<g>
				<line class="st13" x1="787.5" y1="334.5" x2="781.9" y2="328.9"/>
				<line class="st13" x1="787.5" y1="328.9" x2="781.9" y2="334.5"/>
			</g>
		</g>
		<g>
			<g>
				<line class="st13" x1="855.5" y1="376.4" x2="849.9" y2="370.8"/>
				<line class="st13" x1="855.5" y1="370.8" x2="849.9" y2="376.4"/>
			</g>
		</g>
		<g>
			<g>
				<line class="st13" x1="923.5" y1="317.7" x2="917.9" y2="312.1"/>
				<line class="st13" x1="923.5" y1="312.1" x2="917.9" y2="317.7"/>
			</g>
		</g>
		<g>
			<g>
				<line class="st13" x1="923.5" y1="317.7" x2="917.9" y2="312.1"/>
				<line class="st13" x1="923.5" y1="312.1" x2="917.9" y2="317.7"/>
			</g>
		</g>
		<g>
			<g>
				<line class="st13" x1="923.5" y1="233.7" x2="917.9" y2="228.1"/>
				<line class="st13" x1="923.5" y1="228.1" x2="917.9" y2="233.7"/>
			</g>
		</g>
		<text transform="matrix(1 0 0 1 369.4857 640.89)" class="st0 st14 st2">13</text>
		<text transform="matrix(1 0 0 1 437.4857 640.89)" class="st0 st14 st2">22</text>
		<text transform="matrix(1 0 0 1 505.4857 640.89)" class="st0 st14 st2">86</text>
		<text transform="matrix(1 0 0 1 573.4857 640.89)" class="st0 st14 st2">29</text>
		<text transform="matrix(1 0 0 1 641.4857 640.89)" class="st0 st14 st2">12</text>
		<text transform="matrix(1 0 0 1 709.931 640.89)" class="st0 st14 st2">11</text>
		<text transform="matrix(1 0 0 1 777.4857 640.89)" class="st0 st14 st2">16</text>
		<text transform="matrix(1 0 0 1 845.4857 640.89)" class="st0 st14 st2">14</text>
		<text transform="matrix(1 0 0 1 913.4857 640.89)" class="st0 st14 st2">38</text>
		<text transform="matrix(1 0 0 1 984.8226 640.89)" class="st0 st14 st2">6</text>
		<text transform="matrix(1 0 0 1 1052.8226 640.89)" class="st0 st14 st2">2</text>
		<text transform="matrix(1 0 0 1 1120.8226 640.89)" class="st0 st14 st2">3</text>
		<text transform="matrix(1 0 0 1 1188.8226 640.89)" class="st0 st14 st2">4</text>
		<text transform="matrix(1 0 0 1 1256.8226 640.89)" class="st0 st14 st2">2</text>
		<g transform="translate(0,410)">
			<circle class="st15" cx="375.2" cy="200.9" r="5.6"/>
			<circle class="st15" cx="443.2" cy="200.9" r="7.4"/>
			<circle class="st15" cx="511.2" cy="200.9" r="15"/>
			<circle class="st15" cx="579.2" cy="200.9" r="8.6"/>
			<circle class="st15" cx="647.2" cy="200.9" r="5.4"/>
			<circle class="st15" cx="715.2" cy="200.9" r="5.1"/>
			<circle class="st15" cx="783.2" cy="200.9" r="6.3"/>
			<circle class="st15" cx="851.2" cy="200.9" r="5.8"/>
			<circle class="st15" cx="919.2" cy="200.9" r="9.9"/>
			<circle class="st15" cx="987.2" cy="200.9" r="3.7"/>
			<circle class="st15" cx="1055.2" cy="200.9" r="2"/>
			<circle class="st15" cx="1123.2" cy="200.9" r="2.5"/>
			<circle class="st15" cx="1191.2" cy="200.9" r="3"/>
			<circle class="st15" cx="1259.2" cy="200.9" r="2"/>
		</g>
		<text transform="matrix(1 0 0 1 366.3119 588.41)" class="st0 st16 st2">2000</text>
		<text transform="matrix(1 0 0 1 434.3119 588.41)" class="st0 st16 st2">2001</text>
		<text transform="matrix(1 0 0 1 502.3118 588.41)" class="st0 st16 st2">2002</text>
		<text transform="matrix(1 0 0 1 570.3118 588.41)" class="st0 st16 st2">2003</text>
		<text transform="matrix(1 0 0 1 638.3119 588.41)" class="st0 st16 st2">2004</text>
		<text transform="matrix(1 0 0 1 706.3118 588.41)" class="st0 st16 st2">2005</text>
		<text transform="matrix(1 0 0 1 774.3118 588.41)" class="st0 st16 st2">2006</text>
		<text transform="matrix(1 0 0 1 842.3118 588.41)" class="st0 st16 st2">2007</text>
		<text transform="matrix(1 0 0 1 910.3118 588.41)" class="st0 st16 st2">2008</text>
		<text transform="matrix(1 0 0 1 978.3119 588.41)" class="st0 st16 st2">2010</text>
		<text transform="matrix(1 0 0 1 1046.7572 588.41)" class="st0 st16 st2">2011</text>
		<text transform="matrix(1 0 0 1 1114.3119 588.41)" class="st0 st16 st2">2012</text>
		<text transform="matrix(1 0 0 1 1182.3119 588.41)" class="st0 st16 st2">2013</text>
		<text transform="matrix(1 0 0 1 1250.3119 588.41)" class="st0 st16 st2">2014</text>
		<line class="st17" x1="1260.7" y1="451.3" x2="1260.7" y2="432.4"/>
		<line class="st18" x1="1260.7" y1="470.2" x2="1260.7" y2="451.3"/>
		<line class="st19" x1="1260.7" y1="489.1" x2="1260.7" y2="470.2"/>
		<line class="st20" x1="1260.7" y1="508" x2="1260.7" y2="489.1"/>
		<line class="st17" x1="1192.7" y1="463.9" x2="1192.7" y2="432.4"/>
		<line class="st18" x1="1192.7" y1="487" x2="1192.7" y2="463.9"/>
		<line class="st19" x1="1192.7" y1="503.8" x2="1192.7" y2="487"/>
		<line class="st20" x1="1192.7" y1="516.4" x2="1192.7" y2="503.8"/>
		<line class="st19" x1="1124.7" y1="533.2" x2="1124.7" y2="515.6"/>
		<line class="st20" x1="1124.7" y1="550" x2="1124.7" y2="533.2"/>
		<line class="st17" x1="1056.7" y1="518.5" x2="1056.7" y2="516.4"/>
		<line class="st18" x1="1056.7" y1="520.6" x2="1056.7" y2="518.5"/>
		<line class="st19" x1="1056.7" y1="522.7" x2="1056.7" y2="520.6"/>
		<line class="st20" x1="1056.7" y1="524.8" x2="1056.7" y2="522.7"/>
		<line class="st18" x1="988.7" y1="499.6" x2="988.7" y2="482.8"/>
		<line class="st19" x1="988.7" y1="516.4" x2="988.7" y2="499.6"/>
		<line class="st20" x1="988.7" y1="519.7" x2="988.7" y2="516.4"/>
		<line class="st17" x1="920.7" y1="447.1" x2="920.7" y2="348.4"/>
		<line class="st18" x1="920.7" y1="482.8" x2="920.7" y2="447.1"/>
		<line class="st19" x1="920.7" y1="514.3" x2="920.7" y2="482.8"/>
		<line class="st20" x1="920.7" y1="555" x2="920.7" y2="514.3"/>
		<line class="st17" x1="852.7" y1="459.7" x2="852.7" y2="398.8"/>
		<line class="st18" x1="852.7" y1="499.6" x2="852.7" y2="459.7"/>
		<line class="st19" x1="852.7" y1="516.4" x2="852.7" y2="499.6"/>
		<line class="st20" x1="852.7" y1="524.8" x2="852.7" y2="516.4"/>
		<line class="st17" x1="784.7" y1="499.6" x2="784.7" y2="482.8"/>
		<line class="st18" x1="784.7" y1="513.9" x2="784.7" y2="499.6"/>
		<line class="st19" x1="784.7" y1="541.6" x2="784.7" y2="513.9"/>
		<line class="st20" x1="784.7" y1="558.4" x2="784.7" y2="541.6"/>
		<line class="st17" x1="716.7" y1="474.4" x2="716.7" y2="398.8"/>
		<line class="st18" x1="716.7" y1="482.8" x2="716.7" y2="474.4"/>
		<line class="st19" x1="716.7" y1="529" x2="716.7" y2="482.8"/>
		<line class="st20" x1="716.7" y1="553.3" x2="716.7" y2="529"/>
		<line class="st17" x1="648.7" y1="482.8" x2="648.7" y2="466"/>
		<line class="st18" x1="648.7" y1="508" x2="648.7" y2="482.8"/>
		<line class="st19" x1="648.7" y1="529" x2="648.7" y2="508"/>
		<line class="st20" x1="648.7" y1="550" x2="648.7" y2="529"/>
		<line class="st17" x1="580.7" y1="482.8" x2="580.7" y2="415.6"/>
		<line class="st18" x1="580.7" y1="516.4" x2="580.7" y2="482.8"/>
		<line class="st19" x1="580.7" y1="533.2" x2="580.7" y2="516.4"/>
		<line class="st20" x1="580.7" y1="560.9" x2="580.7" y2="533.2"/>
		<line class="st17" x1="512.7" y1="482.8" x2="512.7" y2="422.3"/>
		<line class="st18" x1="512.7" y1="508" x2="512.7" y2="482.8"/>
		<line class="st19" x1="512.7" y1="524.8" x2="512.7" y2="508"/>
		<line class="st20" x1="512.7" y1="558.4" x2="512.7" y2="524.8"/>
		<line class="st18" x1="444.7" y1="497.9" x2="444.7" y2="482.8"/>
		<line class="st19" x1="444.7" y1="499.6" x2="444.7" y2="497.9"/>
		<line class="st20" x1="444.7" y1="516.4" x2="444.7" y2="499.6"/>
		<line class="st17" x1="376.7" y1="491.2" x2="376.7" y2="482.8"/>
		<line class="st18" x1="376.7" y1="499.6" x2="376.7" y2="491.2"/>
		<line class="st19" x1="376.7" y1="508" x2="376.7" y2="499.6"/>
		<line class="st20" x1="376.7" y1="519.7" x2="376.7" y2="508"/>
		<line class="st13" x1="365.3" y1="499.6" x2="388" y2="499.6"/>
		<line class="st13" x1="433.3" y1="497.9" x2="456" y2="497.9"/>
		<line class="st13" x1="501.3" y1="508" x2="524" y2="508"/>
		<line class="st13" x1="569.3" y1="516.4" x2="592" y2="516.4"/>
		<line class="st13" x1="637.3" y1="508" x2="660" y2="508"/>
		<line class="st13" x1="705.3" y1="482.8" x2="728" y2="482.8"/>
		<line class="st13" x1="773.3" y1="513.9" x2="796" y2="513.9"/>
		<line class="st13" x1="841.3" y1="499.6" x2="864" y2="499.6"/>
		<line class="st13" x1="909.3" y1="482.8" x2="932" y2="482.8"/>
		<line class="st13" x1="977.3" y1="499.6" x2="1000" y2="499.6"/>
		<line class="st13" x1="1045.3" y1="520.6" x2="1068" y2="520.6"/>
		<line class="st13" x1="1113.3" y1="515.6" x2="1136" y2="515.6"/>
		<line class="st13" x1="1181.3" y1="487" x2="1204" y2="487"/>
		<line class="st13" x1="1249.3" y1="470.2" x2="1272" y2="470.2"/>
	</g>
	<g>
		<text transform="matrix(1 0 0 1 136.7 291.5166)" class="st0 st16 st21">outliers</text>
		<text transform="matrix(1 0 0 1 136.7 466.818)" class="st22"><tspan x="0" y="0" class="st0 st16 st21">25% of</tspan><tspan x="0" y="14.4" class="st0 st16 st21">reports</tspan></text>
		<text transform="matrix(1 0 0 1 136.6998 525.6174)" class="st22"><tspan x="0" y="0" class="st0 st16 st21">25% of</tspan><tspan x="0" y="14.4" class="st0 st16 st21">reports</tspan></text>
		<text transform="matrix(1 0 0 1 136.6998 587.0127)" class="st0 st16 st21">year</text>
		<text transform="matrix(1 0 0 1 136.6997 349.3174)" class="st22"><tspan x="0" y="0" class="st0 st16 st21">25% of</tspan><tspan x="0" y="14.4" class="st0 st16 st21">reports</tspan></text>
		<text transform="matrix(1 0 0 1 136.6995 408.0677)" class="st22"><tspan x="0" y="0" class="st0 st16 st21">25% of</tspan><tspan x="0" y="14.4" class="st0 st16 st21">reports</tspan></text>
		<text transform="matrix(1 0 0 1 136.7 241.2538)" class="st0 st14 st21">LEGEND</text>
		<text transform="matrix(1 0 0 1 136.6997 444.6531)" class="st0 st16 st21">median</text>
		<g>
			<text transform="matrix(1 0 0 1 140.1996 625.8562)" class="st22"><tspan x="0" y="0" class="st0 st16 st21">n° of</tspan><tspan x="0" y="14.4" class="st0 st16 st21">reports</tspan></text>
		</g>
		<circle class="st23" cx="237" cy="609" r="5.6"/>
		<text transform="matrix(1 0 0 1 227.7201 586.4699)" class="st0 st16 st2">2000</text>
		<line class="st24" x1="237" y1="382.7" x2="237" y2="323.9"/>
		<line class="st24" x1="237" y1="382.7" x2="237" y2="323.9"/>
		<line class="st25" x1="237" y1="441.4" x2="237" y2="382.7"/>
		<line class="st24" x1="237" y1="382.7" x2="237" y2="323.9"/>
		<line class="st26" x1="237" y1="500.2" x2="237" y2="441.4"/>
		<line class="st27" x1="237" y1="559" x2="237" y2="500.2"/>
		<line class="st13" x1="225" y1="441.4" x2="249" y2="441.4"/>
		<text transform="matrix(1 0 0 1 234.4961 640.4708)" class="st0 st14 st2">4</text>
		<line class="st13" x1="239" y1="291.1" x2="235" y2="287.1"/>
		<line class="st13" x1="239" y1="287.1" x2="235" y2="291.1"/>
		<g>
			<g>
				<line class="st13" x1="210.5" y1="289.1" x2="190.3" y2="289.1"/>
				<g>
					<polygon class="st0" points="208.8,287 208.5,287.4 210.3,289.1 208.5,290.7 208.8,291.1 211,289.1 					"/>
				</g>
			</g>
		</g>
		<g>
			<g>
				<line class="st13" x1="210.5" y1="353.3" x2="190.3" y2="353.3"/>
				<g>
					<polygon class="st0" points="208.8,351.2 208.5,351.6 210.3,353.3 208.5,354.9 208.8,355.3 211,353.3 					"/>
				</g>
			</g>
		</g>
		<g>
			<g>
				<line class="st13" x1="210.5" y1="412.8" x2="190.3" y2="412.8"/>
				<g>
					<polygon class="st0" points="208.8,410.8 208.5,411.1 210.3,412.8 208.5,414.5 208.8,414.9 211,412.8 					"/>
				</g>
			</g>
		</g>
		<g>
			<g>
				<line class="st13" x1="210.5" y1="441.4" x2="190.3" y2="441.4"/>
				<g>
					<polygon class="st0" points="208.8,439.3 208.5,439.7 210.3,441.4 208.5,443 208.8,443.4 211,441.4 					"/>
				</g>
			</g>
		</g>
		<g>
			<g>
				<line class="st13" x1="210.5" y1="470.8" x2="190.3" y2="470.8"/>
				<g>
					<polygon class="st0" points="208.8,468.7 208.5,469.1 210.3,470.8 208.5,472.4 208.8,472.8 211,470.8 					"/>
				</g>
			</g>
		</g>
		<g>
			<g>
				<line class="st13" x1="210.5" y1="529.6" x2="190.3" y2="529.6"/>
				<g>
					<polygon class="st0" points="208.8,527.5 208.5,527.9 210.3,529.6 208.5,531.2 208.8,531.6 211,529.6 					"/>
				</g>
			</g>
		</g>
		<g>
			<g>
				<line class="st13" x1="210.5" y1="583.8" x2="190.3" y2="583.8"/>
				<g>
					<polygon class="st0" points="208.8,581.7 208.5,582.1 210.3,583.8 208.5,585.4 208.8,585.8 211,583.8 					"/>
				</g>
			</g>
		</g>
		<g>
			<g>
				<line class="st13" x1="210.5" y1="609" x2="190.3" y2="609"/>
				<g>
					<polygon class="st0" points="208.8,606.9 208.5,607.3 210.3,609 208.5,610.6 208.8,611 211,609 					"/>
				</g>
			</g>
		</g>
		<g>
			<g>
				<line class="st13" x1="210.5" y1="636.5" x2="190.3" y2="636.5"/>
				<g>
					<polygon class="st0" points="208.8,634.5 208.5,634.9 210.3,636.5 208.5,638.2 208.8,638.6 211,636.5 					"/>
				</g>
			</g>
		</g>
		<polyline class="st13" points="227.7,601.2 223,601.2 223,616.7 227.7,616.7 		"/>
	</g>
</g>
</svg>
