<?xml version="1.0" encoding="utf-8"?>
<!-- Generator: Adobe Illustrator 19.1.0, SVG Export Plug-In . SVG Version: 6.00 Build 0)  -->
<svg version="1.1" xmlns="http://www.w3.org/2000/svg" xmlns:xlink="http://www.w3.org/1999/xlink" x="0px" y="0px"
	 viewBox="132 170.9 1140 500" enable-background="new 132 170.9 1140 500" xml:space="preserve">


<defs>
  <style type="text/css">@import url(https://fonts.googleapis.com/css?family=Crimson+Text);</style>
  <style type="text/css">@import url(https://fonts.googleapis.com/css?family=Source+Sans+Pro:300,400,700);</style>
</defs>


<g id="levels">
</g>
<g id="Layer_1">
</g>
<g id="sfondo">
</g>
<g id="outliers">
</g>
<g id="outliers_croci">
</g>
<g id="numeri">
</g>
<g id="h_axis">
</g>
<g id="BOXPLOT_STILATI">
</g>
<g id="mediane">
	<g>
		<g transform="translate(0,0)">
			<g transform="translate(0,332.29007633587787)">
				<g>
					<text transform="matrix(1 0 0 1 335.804 204.73)" font-family="'Source Sans Pro', sans-serif" font-weight="400"  font-size="10px">0.02</text>
				</g>
			</g>
			<g transform="translate(0,332.29007633587787)">
				<g>
					<text transform="matrix(1 0 0 1 335.804 231.3967)" font-family="'Source Sans Pro', sans-serif" font-weight="400"  font-size="10px">0.00</text>
				</g>
			</g>
			<g transform="translate(0,298.7022900763359)">
				<g>
					<text transform="matrix(1 0 0 1 335.804 204.73)" font-family="'Source Sans Pro', sans-serif" font-weight="400"  font-size="10px">0.04</text>
				</g>
			</g>
			<g transform="translate(0,265.1145038167939)">
				<g>
					<text transform="matrix(1 0 0 1 335.804 204.73)" font-family="'Source Sans Pro', sans-serif" font-weight="400"  font-size="10px">0.06</text>
				</g>
			</g>
			<g transform="translate(0,231.5267175572519)">
				<g>
					<text transform="matrix(1 0 0 1 335.804 204.73)" font-family="'Source Sans Pro', sans-serif" font-weight="400"  font-size="10px">0.08</text>
				</g>
			</g>
			<g transform="translate(0,197.93893129770993)">
				<g>
					<text transform="matrix(1 0 0 1 335.804 204.73)" font-family="'Source Sans Pro', sans-serif" font-weight="400"  font-size="10px">0.10</text>
				</g>
			</g>
			<g transform="translate(0,164.35114503816797)">
				<g>
					<text transform="matrix(1 0 0 1 335.804 204.73)" font-family="'Source Sans Pro', sans-serif" font-weight="400"  font-size="10px">0.12</text>
				</g>
			</g>
			<g transform="translate(0,130.76335877862593)">
				<g>
					<text transform="matrix(1 0 0 1 335.804 204.73)" font-family="'Source Sans Pro', sans-serif" font-weight="400"  font-size="10px">0.14</text>
				</g>
			</g>
			<g transform="translate(0,97.175572519084)">
				<g>
					<text transform="matrix(1 0 0 1 335.804 204.73)" font-family="'Source Sans Pro', sans-serif" font-weight="400"  font-size="10px">0.16</text>
				</g>
			</g>
			<g transform="translate(0,63.58778625954203)">
				<g>
					<text transform="matrix(1 0 0 1 335.804 204.73)" font-family="'Source Sans Pro', sans-serif" font-weight="400"  font-size="10px">0.18</text>
				</g>
			</g>
			<g transform="translate(0,30)">
				<g>
					<text transform="matrix(1 0 0 1 335.804 204.73)" font-family="'Source Sans Pro', sans-serif" font-weight="400"  font-size="10px">0.20</text>
				</g>
			</g>
		</g>
		<rect x="368.2" y="533.2" fill="#F4F4F4" stroke="#FDFDFD" stroke-miterlimit="10" width="900" height="27.7"/>
		<rect x="368.2" y="499.6" fill="#F4F4F4" stroke="#FDFDFD" stroke-miterlimit="10" width="900" height="33.6"/>
		<rect x="368.2" y="466" fill="#F4F4F4" stroke="#FDFDFD" stroke-miterlimit="10" width="900" height="33.6"/>
		<rect x="368.2" y="432.4" fill="#F4F4F4" stroke="#FDFDFD" stroke-miterlimit="10" width="900" height="33.6"/>
		<rect x="368.2" y="398.8" fill="#F4F4F4" stroke="#FDFDFD" stroke-miterlimit="10" width="900" height="33.6"/>
		<rect x="368.2" y="365.2" fill="#F4F4F4" stroke="#FDFDFD" stroke-miterlimit="10" width="900" height="33.6"/>
		<rect x="368.2" y="331.6" fill="#F4F4F4" stroke="#FDFDFD" stroke-miterlimit="10" width="900" height="33.6"/>
		<rect x="368.2" y="298" fill="#F4F4F4" stroke="#FDFDFD" stroke-miterlimit="10" width="900" height="33.6"/>
		<rect x="368.2" y="264.4" fill="#F4F4F4" stroke="#FDFDFD" stroke-miterlimit="10" width="900" height="33.6"/>
		<rect x="368.2" y="230.8" fill="#F4F4F4" stroke="#FDFDFD" stroke-miterlimit="10" width="900" height="33.6"/>
		<g>
			<g>
				<line fill="#FFFFFF" stroke="#000000" stroke-miterlimit="10" x1="379.5" y1="536" x2="373.9" y2="530.4"/>
				<line fill="#FFFFFF" stroke="#000000" stroke-miterlimit="10" x1="379.5" y1="530.4" x2="373.9" y2="536"/>
			</g>
		</g>
		<g>
			<g>
				<line fill="#FFFFFF" stroke="#000000" stroke-miterlimit="10" x1="379.5" y1="468.8" x2="373.9" y2="463.2"/>
				<line fill="#FFFFFF" stroke="#000000" stroke-miterlimit="10" x1="379.5" y1="463.2" x2="373.9" y2="468.8"/>
			</g>
		</g>
		<g>
			<g>
				<line fill="#FFFFFF" stroke="#000000" stroke-miterlimit="10" x1="379.5" y1="468.8" x2="373.9" y2="463.2"/>
				<line fill="#FFFFFF" stroke="#000000" stroke-miterlimit="10" x1="379.5" y1="463.2" x2="373.9" y2="468.8"/>
			</g>
		</g>
		<g>
			<g>
				<line fill="#FFFFFF" stroke="#000000" stroke-miterlimit="10" x1="447.5" y1="552.8" x2="441.9" y2="547.2"/>
				<line fill="#FFFFFF" stroke="#000000" stroke-miterlimit="10" x1="447.5" y1="547.2" x2="441.9" y2="552.8"/>
			</g>
		</g>
		<g>
			<g>
				<line fill="#FFFFFF" stroke="#000000" stroke-miterlimit="10" x1="447.5" y1="536" x2="441.9" y2="530.4"/>
				<line fill="#FFFFFF" stroke="#000000" stroke-miterlimit="10" x1="447.5" y1="530.4" x2="441.9" y2="536"/>
			</g>
		</g>
		<g>
			<g>
				<line fill="#FFFFFF" stroke="#000000" stroke-miterlimit="10" x1="447.5" y1="452" x2="441.9" y2="446.4"/>
				<line fill="#FFFFFF" stroke="#000000" stroke-miterlimit="10" x1="447.5" y1="446.4" x2="441.9" y2="452"/>
			</g>
		</g>
		<g>
			<g>
				<line fill="#FFFFFF" stroke="#000000" stroke-miterlimit="10" x1="447.5" y1="384.8" x2="441.9" y2="379.2"/>
				<line fill="#FFFFFF" stroke="#000000" stroke-miterlimit="10" x1="447.5" y1="379.2" x2="441.9" y2="384.8"/>
			</g>
		</g>
		<g>
			<g>
				<line fill="#FFFFFF" stroke="#000000" stroke-miterlimit="10" x1="447.5" y1="233.7" x2="441.9" y2="228.1"/>
				<line fill="#FFFFFF" stroke="#000000" stroke-miterlimit="10" x1="447.5" y1="228.1" x2="441.9" y2="233.7"/>
			</g>
		</g>
		<g>
			<g>
				<line fill="#FFFFFF" stroke="#000000" stroke-miterlimit="10" x1="515.5" y1="418.4" x2="509.9" y2="412.8"/>
				<line fill="#FFFFFF" stroke="#000000" stroke-miterlimit="10" x1="515.5" y1="412.8" x2="509.9" y2="418.4"/>
			</g>
		</g>
		<g>
			<g>
				<line fill="#FFFFFF" stroke="#000000" stroke-miterlimit="10" x1="515.5" y1="410" x2="509.9" y2="404.4"/>
				<line fill="#FFFFFF" stroke="#000000" stroke-miterlimit="10" x1="515.5" y1="404.4" x2="509.9" y2="410"/>
			</g>
		</g>
		<g>
			<g>
				<line fill="#FFFFFF" stroke="#000000" stroke-miterlimit="10" x1="515.5" y1="384.8" x2="509.9" y2="379.2"/>
				<line fill="#FFFFFF" stroke="#000000" stroke-miterlimit="10" x1="515.5" y1="379.2" x2="509.9" y2="384.8"/>
			</g>
		</g>
		<g>
			<g>
				<line fill="#FFFFFF" stroke="#000000" stroke-miterlimit="10" x1="515.5" y1="384.8" x2="509.9" y2="379.2"/>
				<line fill="#FFFFFF" stroke="#000000" stroke-miterlimit="10" x1="515.5" y1="379.2" x2="509.9" y2="384.8"/>
			</g>
		</g>
		<g>
			<g>
				<line fill="#FFFFFF" stroke="#000000" stroke-miterlimit="10" x1="515.5" y1="300.9" x2="509.9" y2="295.3"/>
				<line fill="#FFFFFF" stroke="#000000" stroke-miterlimit="10" x1="515.5" y1="295.3" x2="509.9" y2="300.9"/>
			</g>
		</g>
		<g>
			<g>
				<line fill="#FFFFFF" stroke="#000000" stroke-miterlimit="10" x1="583.5" y1="401.6" x2="577.9" y2="396"/>
				<line fill="#FFFFFF" stroke="#000000" stroke-miterlimit="10" x1="583.5" y1="396" x2="577.9" y2="401.6"/>
			</g>
		</g>
		<g>
			<g>
				<line fill="#FFFFFF" stroke="#000000" stroke-miterlimit="10" x1="583.5" y1="368" x2="577.9" y2="362.4"/>
				<line fill="#FFFFFF" stroke="#000000" stroke-miterlimit="10" x1="583.5" y1="362.4" x2="577.9" y2="368"/>
			</g>
		</g>
		<g>
			<g>
				<line fill="#FFFFFF" stroke="#000000" stroke-miterlimit="10" x1="787.5" y1="401.6" x2="781.9" y2="396"/>
				<line fill="#FFFFFF" stroke="#000000" stroke-miterlimit="10" x1="787.5" y1="396" x2="781.9" y2="401.6"/>
			</g>
		</g>
		<g>
			<g>
				<line fill="#FFFFFF" stroke="#000000" stroke-miterlimit="10" x1="787.5" y1="334.5" x2="781.9" y2="328.9"/>
				<line fill="#FFFFFF" stroke="#000000" stroke-miterlimit="10" x1="787.5" y1="328.9" x2="781.9" y2="334.5"/>
			</g>
		</g>
		<g>
			<g>
				<line fill="#FFFFFF" stroke="#000000" stroke-miterlimit="10" x1="855.5" y1="376.4" x2="849.9" y2="370.8"/>
				<line fill="#FFFFFF" stroke="#000000" stroke-miterlimit="10" x1="855.5" y1="370.8" x2="849.9" y2="376.4"/>
			</g>
		</g>
		<g>
			<g>
				<line fill="#FFFFFF" stroke="#000000" stroke-miterlimit="10" x1="923.5" y1="317.7" x2="917.9" y2="312.1"/>
				<line fill="#FFFFFF" stroke="#000000" stroke-miterlimit="10" x1="923.5" y1="312.1" x2="917.9" y2="317.7"/>
			</g>
		</g>
		<g>
			<g>
				<line fill="#FFFFFF" stroke="#000000" stroke-miterlimit="10" x1="923.5" y1="317.7" x2="917.9" y2="312.1"/>
				<line fill="#FFFFFF" stroke="#000000" stroke-miterlimit="10" x1="923.5" y1="312.1" x2="917.9" y2="317.7"/>
			</g>
		</g>
		<g>
			<g>
				<line fill="#FFFFFF" stroke="#000000" stroke-miterlimit="10" x1="923.5" y1="233.7" x2="917.9" y2="228.1"/>
				<line fill="#FFFFFF" stroke="#000000" stroke-miterlimit="10" x1="923.5" y1="228.1" x2="917.9" y2="233.7"/>
			</g>
		</g>
		<g>
			<text transform="matrix(1 0 0 1 369.4857 640.89)" font-family="'Source Sans Pro', sans-serif" font-weight="700"  font-size="10px">13</text>
		</g>
		<g>
			<text transform="matrix(1 0 0 1 437.4857 640.89)" font-family="'Source Sans Pro', sans-serif" font-weight="700"  font-size="10px">22</text>
		</g>
		<g>
			<text transform="matrix(1 0 0 1 505.4857 640.89)" font-family="'Source Sans Pro', sans-serif" font-weight="700"  font-size="10px">86</text>
		</g>
		<g>
			<text transform="matrix(1 0 0 1 573.4857 640.89)" font-family="'Source Sans Pro', sans-serif" font-weight="700"  font-size="10px">29</text>
		</g>
		<g>
			<text transform="matrix(1 0 0 1 641.4857 640.89)" font-family="'Source Sans Pro', sans-serif" font-weight="700"  font-size="10px">12</text>
		</g>
		<g>
			<text transform="matrix(1 0 0 1 709.931 640.89)" font-family="'Source Sans Pro', sans-serif" font-weight="700"  font-size="10px">11</text>
		</g>
		<g>
			<text transform="matrix(1 0 0 1 777.4857 640.89)" font-family="'Source Sans Pro', sans-serif" font-weight="700"  font-size="10px">16</text>
		</g>
		<g>
			<text transform="matrix(1 0 0 1 845.4857 640.89)" font-family="'Source Sans Pro', sans-serif" font-weight="700"  font-size="10px">14</text>
		</g>
		<g>
			<text transform="matrix(1 0 0 1 913.4857 640.89)" font-family="'Source Sans Pro', sans-serif" font-weight="700"  font-size="10px">38</text>
		</g>
		<g>
			<text transform="matrix(1 0 0 1 984.8226 640.89)" font-family="'Source Sans Pro', sans-serif" font-weight="700"  font-size="10px">6</text>
		</g>
		<g>
			<text transform="matrix(1 0 0 1 1052.8226 640.89)" font-family="'Source Sans Pro', sans-serif" font-weight="700"  font-size="10px">2</text>
		</g>
		<g>
			<text transform="matrix(1 0 0 1 1120.8226 640.89)" font-family="'Source Sans Pro', sans-serif" font-weight="700"  font-size="10px">3</text>
		</g>
		<g>
			<text transform="matrix(1 0 0 1 1188.8226 640.89)" font-family="'Source Sans Pro', sans-serif" font-weight="700"  font-size="10px">4</text>
		</g>
		<g>
			<text transform="matrix(1 0 0 1 1256.8226 640.89)" font-family="'Source Sans Pro', sans-serif" font-weight="700"  font-size="10px">2</text>
		</g>
		<g transform="translate(0,410)">
			<circle fill="none" stroke="#FC1235" stroke-miterlimit="10" cx="375.2" cy="200.9" r="5.6"/>
			<circle fill="none" stroke="#FC1235" stroke-miterlimit="10" cx="443.2" cy="200.9" r="7.4"/>
			<circle fill="none" stroke="#FC1235" stroke-miterlimit="10" cx="511.2" cy="200.9" r="15"/>
			<circle fill="none" stroke="#FC1235" stroke-miterlimit="10" cx="579.2" cy="200.9" r="8.6"/>
			<circle fill="none" stroke="#FC1235" stroke-miterlimit="10" cx="647.2" cy="200.9" r="5.4"/>
			<circle fill="none" stroke="#FC1235" stroke-miterlimit="10" cx="715.2" cy="200.9" r="5.1"/>
			<circle fill="none" stroke="#FC1235" stroke-miterlimit="10" cx="783.2" cy="200.9" r="6.3"/>
			<circle fill="none" stroke="#FC1235" stroke-miterlimit="10" cx="851.2" cy="200.9" r="5.8"/>
			<circle fill="none" stroke="#FC1235" stroke-miterlimit="10" cx="919.2" cy="200.9" r="9.9"/>
			<circle fill="none" stroke="#FC1235" stroke-miterlimit="10" cx="987.2" cy="200.9" r="3.7"/>
			<circle fill="none" stroke="#FC1235" stroke-miterlimit="10" cx="1055.2" cy="200.9" r="2"/>
			<circle fill="none" stroke="#FC1235" stroke-miterlimit="10" cx="1123.2" cy="200.9" r="2.5"/>
			<circle fill="none" stroke="#FC1235" stroke-miterlimit="10" cx="1191.2" cy="200.9" r="3"/>
			<circle fill="none" stroke="#FC1235" stroke-miterlimit="10" cx="1259.2" cy="200.9" r="2"/>
		</g>
		<g>
			<text transform="matrix(1 0 0 1 366.3119 588.41)" font-family="'Source Sans Pro', sans-serif" font-weight="300" font-size="10px">2000</text>
		</g>
		<g>
			<text transform="matrix(1 0 0 1 434.3119 588.41)" font-family="'Source Sans Pro', sans-serif" font-weight="300" font-size="10px">2001</text>
		</g>
		<g>
			<text transform="matrix(1 0 0 1 502.3118 588.41)" font-family="'Source Sans Pro', sans-serif" font-weight="300" font-size="10px">2002</text>
		</g>
		<g>
			<text transform="matrix(1 0 0 1 570.3118 588.41)" font-family="'Source Sans Pro', sans-serif" font-weight="300" font-size="10px">2003</text>
		</g>
		<g>
			<text transform="matrix(1 0 0 1 638.3119 588.41)" font-family="'Source Sans Pro', sans-serif" font-weight="300" font-size="10px">2004</text>
		</g>
		<g>
			<text transform="matrix(1 0 0 1 706.3118 588.41)" font-family="'Source Sans Pro', sans-serif" font-weight="300" font-size="10px">2005</text>
		</g>
		<g>
			<text transform="matrix(1 0 0 1 774.3118 588.41)" font-family="'Source Sans Pro', sans-serif" font-weight="300" font-size="10px">2006</text>
		</g>
		<g>
			<text transform="matrix(1 0 0 1 842.3118 588.41)" font-family="'Source Sans Pro', sans-serif" font-weight="300" font-size="10px">2007</text>
		</g>
		<g>
			<text transform="matrix(1 0 0 1 910.3118 588.41)" font-family="'Source Sans Pro', sans-serif" font-weight="300" font-size="10px">2008</text>
		</g>
		<g>
			<text transform="matrix(1 0 0 1 978.3119 588.41)" font-family="'Source Sans Pro', sans-serif" font-weight="300" font-size="10px">2010</text>
		</g>
		<g>
			<text transform="matrix(1 0 0 1 1046.7572 588.41)" font-family="'Source Sans Pro', sans-serif" font-weight="300" font-size="10px">2011</text>
		</g>
		<g>
			<text transform="matrix(1 0 0 1 1114.3119 588.41)" font-family="'Source Sans Pro', sans-serif" font-weight="300" font-size="10px">2012</text>
		</g>
		<g>
			<text transform="matrix(1 0 0 1 1182.3119 588.41)" font-family="'Source Sans Pro', sans-serif" font-weight="300" font-size="10px">2013</text>
		</g>
		<g>
			<text transform="matrix(1 0 0 1 1250.3119 588.41)" font-family="'Source Sans Pro', sans-serif" font-weight="300" font-size="10px">2014</text>
		</g>
		<line fill="none" stroke="#FC1235" stroke-width="10" stroke-miterlimit="10" x1="1260.7" y1="451.3" x2="1260.7" y2="432.4"/>
		
			<line opacity="0.8" fill="none" stroke="#FC1235" stroke-width="10" stroke-miterlimit="10" x1="1260.7" y1="470.2" x2="1260.7" y2="451.3"/>
		
			<line opacity="0.5" fill="none" stroke="#FC1235" stroke-width="10" stroke-miterlimit="10" x1="1260.7" y1="489.1" x2="1260.7" y2="470.2"/>
		
			<line opacity="0.3" fill="none" stroke="#FC1235" stroke-width="10" stroke-miterlimit="10" x1="1260.7" y1="508" x2="1260.7" y2="489.1"/>
		<line fill="none" stroke="#FC1235" stroke-width="10" stroke-miterlimit="10" x1="1192.7" y1="463.9" x2="1192.7" y2="432.4"/>
		
			<line opacity="0.8" fill="none" stroke="#FC1235" stroke-width="10" stroke-miterlimit="10" x1="1192.7" y1="487" x2="1192.7" y2="463.9"/>
		
			<line opacity="0.5" fill="none" stroke="#FC1235" stroke-width="10" stroke-miterlimit="10" x1="1192.7" y1="503.8" x2="1192.7" y2="487"/>
		
			<line opacity="0.3" fill="none" stroke="#FC1235" stroke-width="10" stroke-miterlimit="10" x1="1192.7" y1="516.4" x2="1192.7" y2="503.8"/>
		
			<line opacity="0.5" fill="none" stroke="#FC1235" stroke-width="10" stroke-miterlimit="10" x1="1124.7" y1="533.2" x2="1124.7" y2="515.6"/>
		
			<line opacity="0.3" fill="none" stroke="#FC1235" stroke-width="10" stroke-miterlimit="10" x1="1124.7" y1="550" x2="1124.7" y2="533.2"/>
		<line fill="none" stroke="#FC1235" stroke-width="10" stroke-miterlimit="10" x1="1056.7" y1="518.5" x2="1056.7" y2="516.4"/>
		
			<line opacity="0.8" fill="none" stroke="#FC1235" stroke-width="10" stroke-miterlimit="10" x1="1056.7" y1="520.6" x2="1056.7" y2="518.5"/>
		
			<line opacity="0.5" fill="none" stroke="#FC1235" stroke-width="10" stroke-miterlimit="10" x1="1056.7" y1="522.7" x2="1056.7" y2="520.6"/>
		
			<line opacity="0.3" fill="none" stroke="#FC1235" stroke-width="10" stroke-miterlimit="10" x1="1056.7" y1="524.8" x2="1056.7" y2="522.7"/>
		
			<line opacity="0.8" fill="none" stroke="#FC1235" stroke-width="10" stroke-miterlimit="10" x1="988.7" y1="499.6" x2="988.7" y2="482.8"/>
		
			<line opacity="0.5" fill="none" stroke="#FC1235" stroke-width="10" stroke-miterlimit="10" x1="988.7" y1="516.4" x2="988.7" y2="499.6"/>
		
			<line opacity="0.3" fill="none" stroke="#FC1235" stroke-width="10" stroke-miterlimit="10" x1="988.7" y1="519.7" x2="988.7" y2="516.4"/>
		<line fill="none" stroke="#FC1235" stroke-width="10" stroke-miterlimit="10" x1="920.7" y1="447.1" x2="920.7" y2="348.4"/>
		
			<line opacity="0.8" fill="none" stroke="#FC1235" stroke-width="10" stroke-miterlimit="10" x1="920.7" y1="482.8" x2="920.7" y2="447.1"/>
		
			<line opacity="0.5" fill="none" stroke="#FC1235" stroke-width="10" stroke-miterlimit="10" x1="920.7" y1="514.3" x2="920.7" y2="482.8"/>
		
			<line opacity="0.3" fill="none" stroke="#FC1235" stroke-width="10" stroke-miterlimit="10" x1="920.7" y1="555" x2="920.7" y2="514.3"/>
		<line fill="none" stroke="#FC1235" stroke-width="10" stroke-miterlimit="10" x1="852.7" y1="459.7" x2="852.7" y2="398.8"/>
		
			<line opacity="0.8" fill="none" stroke="#FC1235" stroke-width="10" stroke-miterlimit="10" x1="852.7" y1="499.6" x2="852.7" y2="459.7"/>
		
			<line opacity="0.5" fill="none" stroke="#FC1235" stroke-width="10" stroke-miterlimit="10" x1="852.7" y1="516.4" x2="852.7" y2="499.6"/>
		
			<line opacity="0.3" fill="none" stroke="#FC1235" stroke-width="10" stroke-miterlimit="10" x1="852.7" y1="524.8" x2="852.7" y2="516.4"/>
		<line fill="none" stroke="#FC1235" stroke-width="10" stroke-miterlimit="10" x1="784.7" y1="499.6" x2="784.7" y2="482.8"/>
		
			<line opacity="0.8" fill="none" stroke="#FC1235" stroke-width="10" stroke-miterlimit="10" x1="784.7" y1="513.9" x2="784.7" y2="499.6"/>
		
			<line opacity="0.5" fill="none" stroke="#FC1235" stroke-width="10" stroke-miterlimit="10" x1="784.7" y1="541.6" x2="784.7" y2="513.9"/>
		
			<line opacity="0.3" fill="none" stroke="#FC1235" stroke-width="10" stroke-miterlimit="10" x1="784.7" y1="558.4" x2="784.7" y2="541.6"/>
		<line fill="none" stroke="#FC1235" stroke-width="10" stroke-miterlimit="10" x1="716.7" y1="474.4" x2="716.7" y2="398.8"/>
		
			<line opacity="0.8" fill="none" stroke="#FC1235" stroke-width="10" stroke-miterlimit="10" x1="716.7" y1="482.8" x2="716.7" y2="474.4"/>
		
			<line opacity="0.5" fill="none" stroke="#FC1235" stroke-width="10" stroke-miterlimit="10" x1="716.7" y1="529" x2="716.7" y2="482.8"/>
		
			<line opacity="0.3" fill="none" stroke="#FC1235" stroke-width="10" stroke-miterlimit="10" x1="716.7" y1="553.3" x2="716.7" y2="529"/>
		<line fill="none" stroke="#FC1235" stroke-width="10" stroke-miterlimit="10" x1="648.7" y1="482.8" x2="648.7" y2="466"/>
		
			<line opacity="0.8" fill="none" stroke="#FC1235" stroke-width="10" stroke-miterlimit="10" x1="648.7" y1="508" x2="648.7" y2="482.8"/>
		
			<line opacity="0.5" fill="none" stroke="#FC1235" stroke-width="10" stroke-miterlimit="10" x1="648.7" y1="529" x2="648.7" y2="508"/>
		
			<line opacity="0.3" fill="none" stroke="#FC1235" stroke-width="10" stroke-miterlimit="10" x1="648.7" y1="550" x2="648.7" y2="529"/>
		<line fill="none" stroke="#FC1235" stroke-width="10" stroke-miterlimit="10" x1="580.7" y1="482.8" x2="580.7" y2="415.6"/>
		
			<line opacity="0.8" fill="none" stroke="#FC1235" stroke-width="10" stroke-miterlimit="10" x1="580.7" y1="516.4" x2="580.7" y2="482.8"/>
		
			<line opacity="0.5" fill="none" stroke="#FC1235" stroke-width="10" stroke-miterlimit="10" x1="580.7" y1="533.2" x2="580.7" y2="516.4"/>
		
			<line opacity="0.3" fill="none" stroke="#FC1235" stroke-width="10" stroke-miterlimit="10" x1="580.7" y1="560.9" x2="580.7" y2="533.2"/>
		<line fill="none" stroke="#FC1235" stroke-width="10" stroke-miterlimit="10" x1="512.7" y1="482.8" x2="512.7" y2="422.3"/>
		
			<line opacity="0.8" fill="none" stroke="#FC1235" stroke-width="10" stroke-miterlimit="10" x1="512.7" y1="508" x2="512.7" y2="482.8"/>
		
			<line opacity="0.5" fill="none" stroke="#FC1235" stroke-width="10" stroke-miterlimit="10" x1="512.7" y1="524.8" x2="512.7" y2="508"/>
		
			<line opacity="0.3" fill="none" stroke="#FC1235" stroke-width="10" stroke-miterlimit="10" x1="512.7" y1="558.4" x2="512.7" y2="524.8"/>
		
			<line opacity="0.8" fill="none" stroke="#FC1235" stroke-width="10" stroke-miterlimit="10" x1="444.7" y1="497.9" x2="444.7" y2="482.8"/>
		
			<line opacity="0.5" fill="none" stroke="#FC1235" stroke-width="10" stroke-miterlimit="10" x1="444.7" y1="499.6" x2="444.7" y2="497.9"/>
		
			<line opacity="0.3" fill="none" stroke="#FC1235" stroke-width="10" stroke-miterlimit="10" x1="444.7" y1="516.4" x2="444.7" y2="499.6"/>
		<line fill="none" stroke="#FC1235" stroke-width="10" stroke-miterlimit="10" x1="376.7" y1="491.2" x2="376.7" y2="482.8"/>
		
			<line opacity="0.8" fill="none" stroke="#FC1235" stroke-width="10" stroke-miterlimit="10" x1="376.7" y1="499.6" x2="376.7" y2="491.2"/>
		
			<line opacity="0.5" fill="none" stroke="#FC1235" stroke-width="10" stroke-miterlimit="10" x1="376.7" y1="508" x2="376.7" y2="499.6"/>
		
			<line opacity="0.3" fill="none" stroke="#FC1235" stroke-width="10" stroke-miterlimit="10" x1="376.7" y1="519.7" x2="376.7" y2="508"/>
		<line fill="#FFFFFF" stroke="#000000" stroke-miterlimit="10" x1="365.3" y1="499.6" x2="388" y2="499.6"/>
		<line fill="#FFFFFF" stroke="#000000" stroke-miterlimit="10" x1="433.3" y1="497.9" x2="456" y2="497.9"/>
		<line fill="#FFFFFF" stroke="#000000" stroke-miterlimit="10" x1="501.3" y1="508" x2="524" y2="508"/>
		<line fill="#FFFFFF" stroke="#000000" stroke-miterlimit="10" x1="569.3" y1="516.4" x2="592" y2="516.4"/>
		<line fill="#FFFFFF" stroke="#000000" stroke-miterlimit="10" x1="637.3" y1="508" x2="660" y2="508"/>
		<line fill="#FFFFFF" stroke="#000000" stroke-miterlimit="10" x1="705.3" y1="482.8" x2="728" y2="482.8"/>
		<line fill="#FFFFFF" stroke="#000000" stroke-miterlimit="10" x1="773.3" y1="513.9" x2="796" y2="513.9"/>
		<line fill="#FFFFFF" stroke="#000000" stroke-miterlimit="10" x1="841.3" y1="499.6" x2="864" y2="499.6"/>
		<line fill="#FFFFFF" stroke="#000000" stroke-miterlimit="10" x1="909.3" y1="482.8" x2="932" y2="482.8"/>
		<line fill="#FFFFFF" stroke="#000000" stroke-miterlimit="10" x1="977.3" y1="499.6" x2="1000" y2="499.6"/>
		<line fill="#FFFFFF" stroke="#000000" stroke-miterlimit="10" x1="1045.3" y1="520.6" x2="1068" y2="520.6"/>
		<line fill="#FFFFFF" stroke="#000000" stroke-miterlimit="10" x1="1113.3" y1="515.6" x2="1136" y2="515.6"/>
		<line fill="#FFFFFF" stroke="#000000" stroke-miterlimit="10" x1="1181.3" y1="487" x2="1204" y2="487"/>
		<line fill="#FFFFFF" stroke="#000000" stroke-miterlimit="10" x1="1249.3" y1="470.2" x2="1272" y2="470.2"/>
	</g>
	<g id="mediane_1_">
		<g>
			<text transform="matrix(1 0 0 1 132.0003 292.6335)" fill="#373737" font-family="'Source Sans Pro', sans-serif" font-weight="300" font-size="12px">outliers</text>
			<text transform="matrix(1 0 0 1 132.0003 467.935)" fill="#373737" font-family="'Source Sans Pro', sans-serif" font-weight="300" font-size="12px">25% of</text>
			<text transform="matrix(1 0 0 1 132.0003 482.335)" fill="#373737" font-family="'Source Sans Pro', sans-serif" font-weight="300" font-size="12px">reports</text>
			<text transform="matrix(1 0 0 1 132.0001 526.7344)" fill="#373737" font-family="'Source Sans Pro', sans-serif" font-weight="300" font-size="12px">25% of</text>
			<text transform="matrix(1 0 0 1 132.0001 541.1343)" fill="#373737" font-family="'Source Sans Pro', sans-serif" font-weight="300" font-size="12px">reports</text>
			<text transform="matrix(1 0 0 1 132.0001 588.1297)" fill="#373737" font-family="'Source Sans Pro', sans-serif" font-weight="300" font-size="12px">year</text>
			<text transform="matrix(1 0 0 1 132 350.4344)" fill="#373737" font-family="'Source Sans Pro', sans-serif" font-weight="300" font-size="12px">25% of</text>
			<text transform="matrix(1 0 0 1 132 364.8344)" fill="#373737" font-family="'Source Sans Pro', sans-serif" font-weight="300" font-size="12px">reports</text>
			<text transform="matrix(1 0 0 1 131.9998 409.1847)" fill="#373737" font-family="'Source Sans Pro', sans-serif" font-weight="300" font-size="12px">25% of</text>
			<text transform="matrix(1 0 0 1 131.9998 423.5847)" fill="#373737" font-family="'Source Sans Pro', sans-serif" font-weight="300" font-size="12px">reports</text>
			<text transform="matrix(1 0 0 1 132.0003 242.3708)" fill="#373737" font-family="'Source Sans Pro', sans-serif" font-weight="700"  font-size="12px">LEGEND</text>
			<text transform="matrix(1 0 0 1 132 445.7701)" fill="#373737" font-family="'Source Sans Pro', sans-serif" font-weight="300" font-size="12px">median</text>
			<g>
				<text transform="matrix(1 0 0 1 131.9999 626.9732)" fill="#373737" font-family="'Source Sans Pro', sans-serif" font-weight="300" font-size="12px">n° of</text>
				<text transform="matrix(1 0 0 1 131.9999 641.3732)" fill="#373737" font-family="'Source Sans Pro', sans-serif" font-weight="300" font-size="12px">reports</text>
			</g>
			<circle fill="none" stroke="#373737" stroke-width="0.9854" cx="232.3" cy="610.1" r="5.6"/>
			<text transform="matrix(1 0 0 1 223.0204 587.5869)" fill="#373737" font-family="'Source Sans Pro', sans-serif" font-weight="300" font-size="10px">2000</text>
			<line fill="none" stroke="#373737" stroke-width="10" stroke-miterlimit="10" x1="232.3" y1="383.8" x2="232.3" y2="325"/>
			<line fill="none" stroke="#373737" stroke-width="10" stroke-miterlimit="10" x1="232.3" y1="383.8" x2="232.3" y2="325"/>
			
				<line opacity="0.8" fill="none" stroke="#373737" stroke-width="10" stroke-miterlimit="10" enable-background="new    " x1="232.3" y1="442.5" x2="232.3" y2="383.8"/>
			<line fill="none" stroke="#373737" stroke-width="10" stroke-miterlimit="10" x1="232.3" y1="383.8" x2="232.3" y2="325"/>
			
				<line opacity="0.5" fill="none" stroke="#373737" stroke-width="10" stroke-miterlimit="10" enable-background="new    " x1="232.3" y1="501.3" x2="232.3" y2="442.5"/>
			
				<line opacity="0.3" fill="none" stroke="#373737" stroke-width="10" stroke-miterlimit="10" enable-background="new    " x1="232.3" y1="560.1" x2="232.3" y2="501.3"/>
			<line fill="none" stroke="#373737" stroke-width="0.5" stroke-linejoin="round" x1="220.3" y1="442.5" x2="244.3" y2="442.5"/>
			<text transform="matrix(1 0 0 1 229.7964 641.5878)" fill="#373737" font-family="'Source Sans Pro', sans-serif" font-weight="700"  font-size="10px">4</text>
			<line fill="none" stroke="#373737" stroke-width="0.5" stroke-linejoin="round" x1="234.3" y1="292.2" x2="230.3" y2="288.2"/>
			<line fill="none" stroke="#373737" stroke-width="0.5" stroke-linejoin="round" x1="234.3" y1="288.2" x2="230.3" y2="292.2"/>
			<g>
				<g>
					<line fill="none" stroke="#373737" stroke-width="0.5" stroke-linejoin="round" x1="205.8" y1="290.2" x2="185.6" y2="290.2"/>
					<g>
						<polygon fill="#373737" points="204.1,288.1 203.8,288.5 205.6,290.2 203.8,291.8 204.1,292.2 206.3,290.2 						"/>
					</g>
				</g>
			</g>
			<g>
				<g>
					<line fill="none" stroke="#373737" stroke-width="0.5" stroke-linejoin="round" x1="205.8" y1="354.4" x2="185.6" y2="354.4"/>
					<g>
						<polygon fill="#373737" points="204.1,352.3 203.8,352.7 205.6,354.4 203.8,356 204.1,356.4 206.3,354.4 						"/>
					</g>
				</g>
			</g>
			<g>
				<g>
					<line fill="none" stroke="#373737" stroke-width="0.5" stroke-linejoin="round" x1="205.8" y1="413.9" x2="185.6" y2="413.9"/>
					<g>
						<polygon fill="#373737" points="204.1,411.9 203.8,412.2 205.6,413.9 203.8,415.6 204.1,416 206.3,413.9 						"/>
					</g>
				</g>
			</g>
			<g>
				<g>
					<line fill="none" stroke="#373737" stroke-width="0.5" stroke-linejoin="round" x1="205.8" y1="442.5" x2="185.6" y2="442.5"/>
					<g>
						<polygon fill="#373737" points="204.1,440.4 203.8,440.8 205.6,442.5 203.8,444.1 204.1,444.5 206.3,442.5 						"/>
					</g>
				</g>
			</g>
			<g>
				<g>
					<line fill="none" stroke="#373737" stroke-width="0.5" stroke-linejoin="round" x1="205.8" y1="471.9" x2="185.6" y2="471.9"/>
					<g>
						<polygon fill="#373737" points="204.1,469.8 203.8,470.2 205.6,471.9 203.8,473.5 204.1,473.9 206.3,471.9 						"/>
					</g>
				</g>
			</g>
			<g>
				<g>
					<line fill="none" stroke="#373737" stroke-width="0.5" stroke-linejoin="round" x1="205.8" y1="530.7" x2="185.6" y2="530.7"/>
					<g>
						<polygon fill="#373737" points="204.1,528.6 203.8,529 205.6,530.7 203.8,532.3 204.1,532.7 206.3,530.7 						"/>
					</g>
				</g>
			</g>
			<g>
				<g>
					<line fill="none" stroke="#373737" stroke-width="0.5" stroke-linejoin="round" x1="205.8" y1="584.9" x2="185.6" y2="584.9"/>
					<g>
						<polygon fill="#373737" points="204.1,582.8 203.8,583.2 205.6,584.9 203.8,586.5 204.1,586.9 206.3,584.9 						"/>
					</g>
				</g>
			</g>
			<g>
				<g>
					<line fill="none" stroke="#373737" stroke-width="0.5" stroke-linejoin="round" x1="205.8" y1="610.1" x2="185.6" y2="610.1"/>
					<g>
						<polygon fill="#373737" points="204.1,608 203.8,608.4 205.6,610.1 203.8,611.7 204.1,612.1 206.3,610.1 						"/>
					</g>
				</g>
			</g>
			<g>
				<g>
					<line fill="none" stroke="#373737" stroke-width="0.5" stroke-linejoin="round" x1="205.8" y1="637.6" x2="185.6" y2="637.6"/>
					<g>
						<polygon fill="#373737" points="204.1,635.6 203.8,636 205.6,637.6 203.8,639.3 204.1,639.7 206.3,637.6 						"/>
					</g>
				</g>
			</g>
			<polyline fill="none" stroke="#373737" stroke-width="0.5" stroke-linejoin="round" points="223,602.3 218.3,602.3 218.3,617.8 
				223,617.8 			"/>
		</g>
	</g>
</g>
</svg>
