<?xml version="1.0" encoding="utf-8"?>
<!-- Generator: Adobe Illustrator 19.1.0, SVG Export Plug-In . SVG Version: 6.00 Build 0)  -->
<svg version="1.1" xmlns="http://www.w3.org/2000/svg" xmlns:xlink="http://www.w3.org/1999/xlink" x="0px" y="0px"
	 viewBox="132 170.9 1140 500" style="enable-background:new 132 170.9 1140 500;" xml:space="preserve">
<style type="text/css">
	.st0{opacity:3.000000e-02;}
	.st1{opacity:7.500000e-02;}
	.st2{opacity:0.11;}
	.st3{opacity:0.14;}
	.st4{opacity:0.18;}
	.st5{opacity:0.22;}
	.st6{fill:none;stroke:#373737;stroke-linejoin:round;}
	.st7{fill:none;stroke:#000000;stroke-width:1.5;}
	.st8{fill:none;stroke:#A478D6;stroke-width:10;stroke-miterlimit:10;}
	.st9{opacity:0.8;fill:none;stroke:#A478D6;stroke-width:10;stroke-miterlimit:10;}
	.st10{opacity:0.5;fill:none;stroke:#A478D6;stroke-width:10;stroke-miterlimit:10;}
	.st11{opacity:0.3;fill:none;stroke:#A478D6;stroke-width:10;stroke-miterlimit:10;}
	.st12{fill:#373737;}
	.st13{font-family:'SourceSansPro-Regular';}
	.st14{font-size:10px;}
	.st15{font-family:'SourceSansPro-Semibold';}
	.st16{fill:none;stroke:#A478D6;stroke-miterlimit:10;}
	.st17{font-family:'SourceSansPro-Light';}
	.st18{fill:#FFFFFF;stroke:#000000;stroke-miterlimit:10;}
	.st19{font-size:12px;}
	.st20{enable-background:new    ;}
	.st21{font-family:'SourceSansPro-Bold';}
	.st22{fill:none;stroke:#373737;stroke-width:0.9854;}
	.st23{fill:none;stroke:#373737;stroke-width:10;stroke-miterlimit:10;}
	.st24{opacity:0.8;fill:none;stroke:#373737;stroke-width:10;stroke-miterlimit:10;enable-background:new    ;}
	.st25{opacity:0.5;fill:none;stroke:#373737;stroke-width:10;stroke-miterlimit:10;enable-background:new    ;}
	.st26{opacity:0.3;fill:none;stroke:#373737;stroke-width:10;stroke-miterlimit:10;enable-background:new    ;}
	.st27{fill:none;stroke:#373737;stroke-width:0.5;stroke-linejoin:round;}
</style>
<g id="misure">
</g>
<g id="Layer_1">
	<defs  xmlns="http://www.w3.org/1999/xhtml">
		<style  type="text/css">
			<![CDATA[
body { font-family: 'Helvetica Neue', Helvetica, Arial, sans-serif; }
.box { font-size: 10px; }
.box line, .box rect, .box circle { fill: rgb(255, 255, 255); stroke: rgb(0, 0, 0); stroke-width: 1.5px; }
.box .center { stroke-dasharray: 3px, 3px; }
.box .outlier { fill: none; stroke: rgb(204, 204, 204); }
.axis { font-size: 12px; }
.axis path, .axis line { fill: none; stroke: rgb(0, 0, 0); shape-rendering: crispEdges; }
.x.axis path { fill: none; stroke: rgb(0, 0, 0); shape-rendering: crispEdges; }
				]]>
		</style>
	</defs>
</g>
<g id="NUMERI">
</g>
<g id="BOXPLOT_COLORATI">
</g>
<g id="DI_LATO">
</g>
<g id="ROBA_SOTTO">
</g>
<g id="median">
	<g>
		<rect x="366.8" y="507.1" class="st0" width="900" height="53.8"/>
		<rect x="366.8" y="452.1" class="st1" width="900" height="55"/>
		<rect x="366.8" y="396.4" class="st2" width="900" height="55.7"/>
		<rect x="366.8" y="341.3" class="st3" width="900" height="55.2"/>
		<rect x="366.8" y="286.1" class="st4" width="900" height="55.2"/>
		<rect x="366.8" y="230.8" class="st5" width="900" height="55.2"/>
		<g>
			<g>
				<g>
					<g>
						<line class="st6" x1="444.6" y1="454.4" x2="439" y2="448.8"/>
						<line class="st6" x1="444.6" y1="448.8" x2="439" y2="454.4"/>
					</g>
				</g>
			</g>
		</g>
		<g>
			<g>
				<g>
					<g>
						<line class="st6" x1="570.6" y1="344.1" x2="565" y2="338.5"/>
						<line class="st6" x1="570.6" y1="338.5" x2="565" y2="344.1"/>
					</g>
				</g>
			</g>
		</g>
		<g>
			<g>
				<g>
					<g>
						<line class="st6" x1="822.6" y1="432.4" x2="817" y2="426.8"/>
						<line class="st6" x1="822.6" y1="426.8" x2="817" y2="432.4"/>
					</g>
				</g>
			</g>
		</g>
		<g>
			<g>
				<g>
					<g>
						<line class="st6" x1="885.6" y1="399.2" x2="880" y2="393.6"/>
						<line class="st6" x1="885.6" y1="393.6" x2="880" y2="399.2"/>
					</g>
				</g>
			</g>
		</g>
		<g>
			<g>
				<g>
					<g>
						<line class="st6" x1="885.6" y1="388.2" x2="880" y2="382.6"/>
						<line class="st6" x1="885.6" y1="382.6" x2="880" y2="388.2"/>
					</g>
				</g>
			</g>
		</g>
		<g>
			<g>
				<g>
					<g>
						<line class="st6" x1="885.6" y1="288.9" x2="880" y2="283.3"/>
						<line class="st6" x1="885.6" y1="283.3" x2="880" y2="288.9"/>
					</g>
				</g>
			</g>
		</g>
		<g>
			<g>
				<g>
					<g>
						<line class="st6" x1="948.6" y1="553.8" x2="943" y2="548.2"/>
						<line class="st6" x1="948.6" y1="548.2" x2="943" y2="553.8"/>
					</g>
				</g>
			</g>
		</g>
		<g>
			<g>
				<g>
					<g>
						<line class="st6" x1="948.6" y1="548.2" x2="943" y2="542.6"/>
						<line class="st6" x1="948.6" y1="542.6" x2="943" y2="548.2"/>
					</g>
				</g>
			</g>
		</g>
		<g>
			<g>
				<g>
					<g>
						<line class="st6" x1="948.6" y1="548.2" x2="943" y2="542.6"/>
						<line class="st6" x1="948.6" y1="542.6" x2="943" y2="548.2"/>
					</g>
				</g>
			</g>
		</g>
		<g>
			<g>
				<g>
					<g>
						<line class="st6" x1="948.6" y1="454.4" x2="943" y2="448.8"/>
						<line class="st6" x1="948.6" y1="448.8" x2="943" y2="454.4"/>
					</g>
				</g>
			</g>
		</g>
		<g>
			<g>
				<g>
					<g>
						<line class="st6" x1="948.6" y1="371.6" x2="943" y2="366"/>
						<line class="st6" x1="948.6" y1="366" x2="943" y2="371.6"/>
					</g>
				</g>
			</g>
		</g>
		<g>
			<g>
				<g>
					<g>
						<line class="st6" x1="948.6" y1="344.1" x2="943" y2="338.5"/>
						<line class="st6" x1="948.6" y1="338.5" x2="943" y2="344.1"/>
					</g>
				</g>
			</g>
		</g>
		<g>
			<g>
				<g>
					<g>
						<line class="st6" x1="948.6" y1="288.9" x2="943" y2="283.3"/>
						<line class="st6" x1="948.6" y1="283.3" x2="943" y2="288.9"/>
					</g>
				</g>
			</g>
		</g>
		<g>
			<g>
				<g>
					<g>
						<line class="st6" x1="948.6" y1="233.7" x2="943" y2="228.1"/>
						<line class="st6" x1="948.6" y1="228.1" x2="943" y2="233.7"/>
					</g>
				</g>
			</g>
		</g>
		<g>
			<g>
				<g>
					<g>
						<line class="st6" x1="1011.6" y1="288.9" x2="1006" y2="283.3"/>
						<line class="st6" x1="1011.6" y1="283.3" x2="1006" y2="288.9"/>
					</g>
				</g>
			</g>
		</g>
		<g>
			<g>
				<g>
					<g>
						<line class="st6" x1="1200.6" y1="465.5" x2="1195" y2="459.9"/>
						<line class="st6" x1="1200.6" y1="459.9" x2="1195" y2="465.5"/>
					</g>
				</g>
			</g>
		</g>
		<g>
			<g>
				<g>
					<g>
						<line class="st6" x1="1263.6" y1="454.4" x2="1258" y2="448.8"/>
						<line class="st6" x1="1263.6" y1="448.8" x2="1258" y2="454.4"/>
					</g>
				</g>
			</g>
		</g>
		<g transform="translate(6,30)">
			<line class="st7" x1="369.8" y1="366.4" x2="375.8" y2="366.4"/>
		</g>
		<line class="st8" x1="378.8" y1="430.9" x2="378.8" y2="396.4"/>
		<line class="st9" x1="378.8" y1="493" x2="378.8" y2="430.9"/>
		<line class="st10" x1="378.8" y1="526.1" x2="378.8" y2="493"/>
		<line class="st11" x1="378.8" y1="534.4" x2="378.8" y2="526.1"/>
		<line class="st9" x1="441.8" y1="506.7" x2="441.8" y2="495.5"/>
		<line class="st10" x1="441.8" y1="517.9" x2="441.8" y2="506.7"/>
		<line class="st11" x1="441.8" y1="523.4" x2="441.8" y2="517.9"/>
		<line class="st8" x1="505" y1="506.7" x2="505" y2="495.7"/>
		<line class="st10" x1="505" y1="523.4" x2="505" y2="506.7"/>
		<line class="st11" x1="505" y1="528.8" x2="505" y2="523.4"/>
		<line class="st8" x1="567.8" y1="456.9" x2="567.8" y2="418.5"/>
		<line class="st9" x1="567.8" y1="501.3" x2="567.8" y2="456.9"/>
		<line class="st10" x1="567.8" y1="522.2" x2="567.8" y2="501.3"/>
		<line class="st11" x1="567.8" y1="539.8" x2="567.8" y2="522.2"/>
		<line class="st8" x1="630.8" y1="503.8" x2="630.8" y2="484.6"/>
		<line class="st9" x1="630.8" y1="506.8" x2="630.8" y2="503.8"/>
		<line class="st10" x1="630.8" y1="537.3" x2="630.8" y2="506.8"/>
		<line class="st11" x1="630.8" y1="550.9" x2="630.8" y2="537.3"/>
		<line class="st8" x1="693.7" y1="473.6" x2="693.7" y2="396.4"/>
		<line class="st9" x1="693.7" y1="506.8" x2="693.7" y2="473.6"/>
		<line class="st10" x1="693.7" y1="528.8" x2="693.7" y2="506.8"/>
		<line class="st11" x1="693.7" y1="545.3" x2="693.7" y2="528.8"/>
		<line class="st8" x1="756.7" y1="486.3" x2="756.7" y2="473.6"/>
		<line class="st9" x1="756.7" y1="501.3" x2="756.7" y2="486.3"/>
		<line class="st10" x1="756.7" y1="520.4" x2="756.7" y2="501.3"/>
		<line class="st11" x1="756.7" y1="528.8" x2="756.7" y2="520.4"/>
		<line class="st8" x1="819.8" y1="506.8" x2="819.8" y2="473.7"/>
		<line class="st9" x1="819.8" y1="523.4" x2="819.8" y2="506.8"/>
		<line class="st10" x1="819.8" y1="534.4" x2="819.8" y2="523.4"/>
		<line class="st11" x1="819.8" y1="545.4" x2="819.8" y2="534.4"/>
		<line class="st9" x1="882.8" y1="506.9" x2="882.8" y2="479.3"/>
		<line class="st10" x1="882.8" y1="509.6" x2="882.8" y2="506.9"/>
		<line class="st11" x1="882.8" y1="539.9" x2="882.8" y2="509.6"/>
		<line class="st8" x1="945.7" y1="489.9" x2="945.7" y2="483.9"/>
		<line class="st9" x1="945.7" y1="506.6" x2="945.7" y2="489.9"/>
		<line class="st10" x1="945.7" y1="509.8" x2="945.7" y2="506.6"/>
		<line class="st11" x1="945.7" y1="534.6" x2="945.7" y2="509.8"/>
		<line class="st8" x1="1008.7" y1="462.8" x2="1008.7" y2="451.6"/>
		<line class="st9" x1="1008.8" y1="503.9" x2="1008.8" y2="462.8"/>
		<line class="st10" x1="1008.8" y1="515.1" x2="1008.8" y2="503.9"/>
		<line class="st11" x1="1008.7" y1="545.4" x2="1008.7" y2="515.1"/>
		<line class="st8" x1="1071.7" y1="481.9" x2="1071.7" y2="451.4"/>
		<line class="st9" x1="1071.7" y1="512.3" x2="1071.7" y2="481.9"/>
		<line class="st10" x1="1071.7" y1="518.1" x2="1071.7" y2="512.3"/>
		<line class="st11" x1="1071.7" y1="523.6" x2="1071.7" y2="518.1"/>
		<line class="st8" x1="1134.7" y1="462.6" x2="1134.7" y2="423.6"/>
		<line class="st9" x1="1134.7" y1="484.8" x2="1134.7" y2="462.6"/>
		<line class="st10" x1="1134.7" y1="515.1" x2="1134.7" y2="484.8"/>
		<line class="st11" x1="1134.7" y1="540.3" x2="1134.7" y2="515.1"/>
		<line class="st8" x1="1197.7" y1="506.6" x2="1197.7" y2="495.8"/>
		<line class="st10" x1="1197.7" y1="526.6" x2="1197.7" y2="506.6"/>
		<line class="st11" x1="1197.7" y1="551.3" x2="1197.7" y2="526.6"/>
		<line class="st8" x1="1260.7" y1="506.9" x2="1260.7" y2="501.3"/>
		<line class="st9" x1="1260.7" y1="518.1" x2="1260.7" y2="506.9"/>
		<line class="st10" x1="1260.7" y1="539.8" x2="1260.7" y2="518.1"/>
		<g transform="translate(0,0)">
			<g transform="translate(0,305.9197324414715)">
				<text transform="matrix(1 0 0 1 339.0707 204.73)" class="st12 st13 st14">0.05</text>
				<text transform="matrix(1 0 0 1 339.0707 256.73)" class="st12 st13 st14">0.00</text>
			</g>
			<g transform="translate(0,250.73578595317724)">
				<text transform="matrix(1 0 0 1 339.0707 204.73)" class="st12 st13 st14">0.10</text>
			</g>
			<g transform="translate(0,195.55183946488293)">
				<text transform="matrix(1 0 0 1 339.0707 204.73)" class="st12 st13 st14">0.15</text>
			</g>
			<g transform="translate(0,140.3678929765886)">
				<text transform="matrix(1 0 0 1 339.0707 204.73)" class="st12 st13 st14">0.20</text>
			</g>
			<g transform="translate(0,85.18394648829431)">
				<text transform="matrix(1 0 0 1 339.0707 204.73)" class="st12 st13 st14">0.25</text>
			</g>
			<g transform="translate(0,85.18394648829431)">
				<text transform="matrix(1 0 0 1 339.0707 151.73)" class="st12 st13 st14">0.30</text>
			</g>
		</g>
		<g transform="translate(0,440)">
			<text transform="matrix(1 0 0 1 373.1523 200.89)" class="st12 st15 st14">10</text>
			<text transform="matrix(1 0 0 1 439.4893 200.89)" class="st12 st15 st14">5</text>
			<text transform="matrix(1 0 0 1 502.4893 200.89)" class="st12 st15 st14">7</text>
			<text transform="matrix(1 0 0 1 562.1523 200.89)" class="st12 st15 st14">14</text>
			<text transform="matrix(1 0 0 1 628.4893 200.89)" class="st12 st15 st14">7</text>
			<text transform="matrix(1 0 0 1 688.1523 200.89)" class="st12 st15 st14">12</text>
			<text transform="matrix(1 0 0 1 754.4893 200.89)" class="st12 st15 st14">8</text>
			<text transform="matrix(1 0 0 1 814.1523 200.89)" class="st12 st15 st14">21</text>
			<text transform="matrix(1 0 0 1 877.1523 200.89)" class="st12 st15 st14">12</text>
			<text transform="matrix(1 0 0 1 940.1523 200.89)" class="st12 st15 st14">23</text>
			<text transform="matrix(1 0 0 1 1003.1523 200.89)" class="st12 st15 st14">22</text>
			<text transform="matrix(1 0 0 1 1069.4893 200.89)" class="st12 st15 st14">6</text>
			<text transform="matrix(1 0 0 1 1129.1523 200.89)" class="st12 st15 st14">15</text>
			<text transform="matrix(1 0 0 1 1192.1523 200.89)" class="st12 st15 st14">10</text>
			<text transform="matrix(1 0 0 1 1258.4893 200.89)" class="st12 st15 st14">9</text>
		</g>
		<g transform="translate(0,410)">
			<circle class="st16" cx="378.8" cy="200.9" r="6.7"/>
			<circle class="st16" cx="441.8" cy="200.9" r="2"/>
			<circle class="st16" cx="504.8" cy="200.9" r="4.1"/>
			<circle class="st16" cx="567.8" cy="200.9" r="9.6"/>
			<circle class="st16" cx="630.8" cy="200.9" r="4.1"/>
			<circle class="st16" cx="693.8" cy="200.9" r="8.2"/>
			<circle class="st16" cx="756.8" cy="200.9" r="5"/>
			<circle class="st16" cx="819.8" cy="200.9" r="13.9"/>
			<circle class="st16" cx="882.8" cy="200.9" r="8.2"/>
			<circle class="st16" cx="945.8" cy="200.9" r="15"/>
			<circle class="st16" cx="1008.8" cy="200.9" r="14.5"/>
			<circle class="st16" cx="1071.8" cy="200.9" r="3.1"/>
			<circle class="st16" cx="1134.8" cy="200.9" r="10.3"/>
			<circle class="st16" cx="1197.8" cy="200.9" r="6.7"/>
			<circle class="st16" cx="1260.8" cy="200.9" r="5.9"/>
		</g>
		<g transform="translate(0,370)">
			<g transform="translate(9,0)">
				<text transform="matrix(1 0 0 1 361.4785 218.41)" class="st12 st17 st14">2000</text>
			</g>
			<g transform="translate(72,0)">
				<text transform="matrix(1 0 0 1 361.4785 218.41)" class="st12 st17 st14">2001</text>
			</g>
			<g transform="translate(135,0)">
				<text transform="matrix(1 0 0 1 361.4785 218.41)" class="st12 st17 st14">2002</text>
			</g>
			<g transform="translate(198,0)">
				<text transform="matrix(1 0 0 1 361.4785 218.41)" class="st12 st17 st14">2003</text>
			</g>
			<g transform="translate(261,0)">
				<text transform="matrix(1 0 0 1 361.4785 218.41)" class="st12 st17 st14">2004</text>
			</g>
			<g transform="translate(324,0)">
				<text transform="matrix(1 0 0 1 361.4785 218.41)" class="st12 st17 st14">2005</text>
			</g>
			<g transform="translate(387,0)">
				<text transform="matrix(1 0 0 1 361.4785 218.41)" class="st12 st17 st14">2006</text>
			</g>
			<g transform="translate(450,0)">
				<text transform="matrix(1 0 0 1 361.4785 218.41)" class="st12 st17 st14">2007</text>
			</g>
			<g transform="translate(513,0)">
				<text transform="matrix(1 0 0 1 361.4785 218.41)" class="st12 st17 st14">2008</text>
			</g>
			<g transform="translate(576,0)">
				<text transform="matrix(1 0 0 1 361.4785 218.41)" class="st12 st17 st14">2009</text>
			</g>
			<g transform="translate(639,0)">
				<text transform="matrix(1 0 0 1 361.4785 218.41)" class="st12 st17 st14">2010</text>
			</g>
			<g transform="translate(702,0)">
				<text transform="matrix(1 0 0 1 361.9238 218.41)" class="st12 st17 st14">2011</text>
			</g>
			<g transform="translate(765,0)">
				<text transform="matrix(1 0 0 1 361.4785 218.41)" class="st12 st17 st14">2012</text>
			</g>
			<g transform="translate(828,0)">
				<text transform="matrix(1 0 0 1 361.4785 218.41)" class="st12 st17 st14">2013</text>
			</g>
			<g transform="translate(891,0)">
				<text transform="matrix(1 0 0 1 361.4785 218.41)" class="st12 st17 st14">2014</text>
			</g>
		</g>
		<line class="st18" x1="367.5" y1="492.7" x2="390.2" y2="492.7"/>
		<line class="st18" x1="430.5" y1="506.6" x2="453.2" y2="506.6"/>
		<line class="st18" x1="493.6" y1="506.7" x2="516.3" y2="506.7"/>
		<line class="st18" x1="556.5" y1="501.4" x2="579.2" y2="501.4"/>
		<line class="st18" x1="619.5" y1="507.1" x2="642.2" y2="507.1"/>
		<line class="st18" x1="682.3" y1="506.6" x2="705" y2="506.6"/>
		<line class="st18" x1="745.3" y1="501.2" x2="768" y2="501.2"/>
		<line class="st18" x1="808.5" y1="523.4" x2="831.2" y2="523.4"/>
		<line class="st18" x1="871.5" y1="506.9" x2="894.2" y2="506.9"/>
		<line class="st18" x1="934.3" y1="506.9" x2="957" y2="506.9"/>
		<line class="st18" x1="997.5" y1="503.9" x2="1020.2" y2="503.9"/>
		<line class="st18" x1="1060.3" y1="512.3" x2="1083" y2="512.3"/>
		<line class="st18" x1="1123.3" y1="484.7" x2="1146" y2="484.7"/>
		<line class="st18" x1="1186.3" y1="506.6" x2="1209" y2="506.6"/>
		<line class="st18" x1="1249.3" y1="517.8" x2="1272" y2="517.8"/>
	</g>
	<g>
		<text transform="matrix(1 0 0 1 136.7 291.5166)" class="st12 st17 st19">outliers</text>
		<text transform="matrix(1 0 0 1 136.7 466.818)" class="st20"><tspan x="0" y="0" class="st12 st17 st19">25% of</tspan><tspan x="0" y="14.4" class="st12 st17 st19">reports</tspan></text>
		<text transform="matrix(1 0 0 1 136.6998 525.6174)" class="st20"><tspan x="0" y="0" class="st12 st17 st19">25% of</tspan><tspan x="0" y="14.4" class="st12 st17 st19">reports</tspan></text>
		<text transform="matrix(1 0 0 1 136.6998 587.0127)" class="st12 st17 st19">year</text>
		<text transform="matrix(1 0 0 1 136.6997 349.3174)" class="st20"><tspan x="0" y="0" class="st12 st17 st19">25% of</tspan><tspan x="0" y="14.4" class="st12 st17 st19">reports</tspan></text>
		<text transform="matrix(1 0 0 1 136.6995 408.0677)" class="st20"><tspan x="0" y="0" class="st12 st17 st19">25% of</tspan><tspan x="0" y="14.4" class="st12 st17 st19">reports</tspan></text>
		<text transform="matrix(1 0 0 1 136.7 241.2538)" class="st12 st21 st19">LEGEND</text>
		<text transform="matrix(1 0 0 1 136.6997 444.6531)" class="st12 st17 st19">median</text>
		<g>
			<text transform="matrix(1 0 0 1 140.1996 625.8562)" class="st20"><tspan x="0" y="0" class="st12 st17 st19">n° of</tspan><tspan x="0" y="14.4" class="st12 st17 st19">reports</tspan></text>
		</g>
		<circle class="st22" cx="237" cy="609" r="5.6"/>
		<text transform="matrix(1 0 0 1 227.7201 586.4699)" class="st12 st17 st14">2000</text>
		<line class="st23" x1="237" y1="382.7" x2="237" y2="323.9"/>
		<line class="st23" x1="237" y1="382.7" x2="237" y2="323.9"/>
		<line class="st24" x1="237" y1="441.4" x2="237" y2="382.7"/>
		<line class="st23" x1="237" y1="382.7" x2="237" y2="323.9"/>
		<line class="st25" x1="237" y1="500.2" x2="237" y2="441.4"/>
		<line class="st26" x1="237" y1="559" x2="237" y2="500.2"/>
		<line class="st27" x1="225" y1="441.4" x2="249" y2="441.4"/>
		<text transform="matrix(1 0 0 1 234.4961 640.4708)" class="st12 st21 st14">4</text>
		<line class="st27" x1="239" y1="291.1" x2="235" y2="287.1"/>
		<line class="st27" x1="239" y1="287.1" x2="235" y2="291.1"/>
		<g>
			<g>
				<line class="st27" x1="210.5" y1="289.1" x2="190.3" y2="289.1"/>
				<g>
					<polygon class="st12" points="208.8,287 208.5,287.4 210.3,289.1 208.5,290.7 208.8,291.1 211,289.1 					"/>
				</g>
			</g>
		</g>
		<g>
			<g>
				<line class="st27" x1="210.5" y1="353.3" x2="190.3" y2="353.3"/>
				<g>
					<polygon class="st12" points="208.8,351.2 208.5,351.6 210.3,353.3 208.5,354.9 208.8,355.3 211,353.3 					"/>
				</g>
			</g>
		</g>
		<g>
			<g>
				<line class="st27" x1="210.5" y1="412.8" x2="190.3" y2="412.8"/>
				<g>
					<polygon class="st12" points="208.8,410.8 208.5,411.1 210.3,412.8 208.5,414.5 208.8,414.9 211,412.8 					"/>
				</g>
			</g>
		</g>
		<g>
			<g>
				<line class="st27" x1="210.5" y1="441.4" x2="190.3" y2="441.4"/>
				<g>
					<polygon class="st12" points="208.8,439.3 208.5,439.7 210.3,441.4 208.5,443 208.8,443.4 211,441.4 					"/>
				</g>
			</g>
		</g>
		<g>
			<g>
				<line class="st27" x1="210.5" y1="470.8" x2="190.3" y2="470.8"/>
				<g>
					<polygon class="st12" points="208.8,468.7 208.5,469.1 210.3,470.8 208.5,472.4 208.8,472.8 211,470.8 					"/>
				</g>
			</g>
		</g>
		<g>
			<g>
				<line class="st27" x1="210.5" y1="529.6" x2="190.3" y2="529.6"/>
				<g>
					<polygon class="st12" points="208.8,527.5 208.5,527.9 210.3,529.6 208.5,531.2 208.8,531.6 211,529.6 					"/>
				</g>
			</g>
		</g>
		<g>
			<g>
				<line class="st27" x1="210.5" y1="583.8" x2="190.3" y2="583.8"/>
				<g>
					<polygon class="st12" points="208.8,581.7 208.5,582.1 210.3,583.8 208.5,585.4 208.8,585.8 211,583.8 					"/>
				</g>
			</g>
		</g>
		<g>
			<g>
				<line class="st27" x1="210.5" y1="609" x2="190.3" y2="609"/>
				<g>
					<polygon class="st12" points="208.8,606.9 208.5,607.3 210.3,609 208.5,610.6 208.8,611 211,609 					"/>
				</g>
			</g>
		</g>
		<g>
			<g>
				<line class="st27" x1="210.5" y1="636.5" x2="190.3" y2="636.5"/>
				<g>
					<polygon class="st12" points="208.8,634.5 208.5,634.9 210.3,636.5 208.5,638.2 208.8,638.6 211,636.5 					"/>
				</g>
			</g>
		</g>
		<polyline class="st27" points="227.7,601.2 223,601.2 223,616.7 227.7,616.7 		"/>
	</g>
</g>
</svg>
