<?xml version="1.0" encoding="utf-8"?>
<!-- Generator: Adobe Illustrator 19.2.1, SVG Export Plug-In . SVG Version: 6.00 Build 0)  -->
<svg version="1.1" id="Layer_1" xmlns="http://www.w3.org/2000/svg" xmlns:xlink="http://www.w3.org/1999/xlink" x="0px" y="0px"
	 viewBox="0 0 1140 500" style="enable-background:new 0 0 1140 500;" xml:space="preserve">
<style type="text/css">
	.st0{fill:#F4F4F4;stroke:#FDFDFD;stroke-miterlimit:10;}
	.st1{fill:none;stroke:#373737;stroke-linejoin:round;}
	.st2{fill:none;stroke:#000000;stroke-width:1.5;}
	.st3{fill:none;stroke:#A478D6;stroke-width:10;stroke-miterlimit:10;}
	.st4{opacity:0.8;fill:none;stroke:#A478D6;stroke-width:10;stroke-miterlimit:10;enable-background:new    ;}
	.st5{opacity:0.5;fill:none;stroke:#A478D6;stroke-width:10;stroke-miterlimit:10;enable-background:new    ;}
	.st6{opacity:0.3;fill:none;stroke:#A478D6;stroke-width:10;stroke-miterlimit:10;enable-background:new    ;}
	.st7{fill:#373737;}
	.st8{font-family:'SourceSansPro-Regular';}
	.st9{font-size:10px;}
	.st10{font-family:'SourceSansPro-Bold';}
	.st11{fill:none;stroke:#A478D6;stroke-miterlimit:10;}
	.st12{font-family:'SourceSansPro-Light';}
	.st13{fill:none;stroke:#000000;stroke-miterlimit:10;}
	.st14{font-size:12px;}
	.st15{fill:none;stroke:#373737;stroke-width:0.9854;}
	.st16{fill:none;stroke:#373737;stroke-width:10;stroke-miterlimit:10;}
	.st17{opacity:0.8;fill:none;stroke:#373737;stroke-width:10;stroke-miterlimit:10;enable-background:new    ;}
	.st18{opacity:0.5;fill:none;stroke:#373737;stroke-width:10;stroke-miterlimit:10;enable-background:new    ;}
	.st19{opacity:0.3;fill:none;stroke:#373737;stroke-width:10;stroke-miterlimit:10;enable-background:new    ;}
	.st20{fill:none;stroke:#373737;stroke-width:0.5;stroke-linejoin:round;}
	.st21{fill:#FFFFFF;}
</style>
<g id="misure">
</g>
<g id="NUMERI">
</g>
<g id="BOXPLOT_COLORATI">
</g>
<g id="DI_LATO">
</g>
<g id="ROBA_SOTTO">
</g>
<g>
	<g id="median">
		<g>
			<rect x="234.8" y="361.7" class="st0" width="900" height="53.8"/>
			<rect x="234.8" y="306.7" class="st0" width="900" height="55"/>
			<rect x="234.8" y="251" class="st0" width="900" height="55.7"/>
			<rect x="234.8" y="195.9" class="st0" width="900" height="55.2"/>
			<rect x="234.8" y="140.7" class="st0" width="900" height="55.2"/>
			<rect x="234.8" y="85.4" class="st0" width="900" height="55.2"/>
			<g>
				<g>
					<g>
						<g>
							<line class="st1" x1="312.6" y1="309" x2="307" y2="303.4"/>
							<line class="st1" x1="312.6" y1="303.4" x2="307" y2="309"/>
						</g>
					</g>
				</g>
			</g>
			<g>
				<g>
					<g>
						<g>
							<line class="st1" x1="438.6" y1="198.7" x2="433" y2="193.1"/>
							<line class="st1" x1="438.6" y1="193.1" x2="433" y2="198.7"/>
						</g>
					</g>
				</g>
			</g>
			<g>
				<g>
					<g>
						<g>
							<line class="st1" x1="690.6" y1="287" x2="685" y2="281.4"/>
							<line class="st1" x1="690.6" y1="281.4" x2="685" y2="287"/>
						</g>
					</g>
				</g>
			</g>
			<g>
				<g>
					<g>
						<g>
							<line class="st1" x1="753.6" y1="253.8" x2="748" y2="248.2"/>
							<line class="st1" x1="753.6" y1="248.2" x2="748" y2="253.8"/>
						</g>
					</g>
				</g>
			</g>
			<g>
				<g>
					<g>
						<g>
							<line class="st1" x1="753.6" y1="242.8" x2="748" y2="237.2"/>
							<line class="st1" x1="753.6" y1="237.2" x2="748" y2="242.8"/>
						</g>
					</g>
				</g>
			</g>
			<g>
				<g>
					<g>
						<g>
							<line class="st1" x1="753.6" y1="143.5" x2="748" y2="137.9"/>
							<line class="st1" x1="753.6" y1="137.9" x2="748" y2="143.5"/>
						</g>
					</g>
				</g>
			</g>
			<g>
				<g>
					<g>
						<g>
							<line class="st1" x1="816.6" y1="408.4" x2="811" y2="402.8"/>
							<line class="st1" x1="816.6" y1="402.8" x2="811" y2="408.4"/>
						</g>
					</g>
				</g>
			</g>
			<g>
				<g>
					<g>
						<g>
							<line class="st1" x1="816.6" y1="402.8" x2="811" y2="397.2"/>
							<line class="st1" x1="816.6" y1="397.2" x2="811" y2="402.8"/>
						</g>
					</g>
				</g>
			</g>
			<g>
				<g>
					<g>
						<g>
							<line class="st1" x1="816.6" y1="402.8" x2="811" y2="397.2"/>
							<line class="st1" x1="816.6" y1="397.2" x2="811" y2="402.8"/>
						</g>
					</g>
				</g>
			</g>
			<g>
				<g>
					<g>
						<g>
							<line class="st1" x1="816.6" y1="309" x2="811" y2="303.4"/>
							<line class="st1" x1="816.6" y1="303.4" x2="811" y2="309"/>
						</g>
					</g>
				</g>
			</g>
			<g>
				<g>
					<g>
						<g>
							<line class="st1" x1="816.6" y1="226.2" x2="811" y2="220.6"/>
							<line class="st1" x1="816.6" y1="220.6" x2="811" y2="226.2"/>
						</g>
					</g>
				</g>
			</g>
			<g>
				<g>
					<g>
						<g>
							<line class="st1" x1="816.6" y1="198.7" x2="811" y2="193.1"/>
							<line class="st1" x1="816.6" y1="193.1" x2="811" y2="198.7"/>
						</g>
					</g>
				</g>
			</g>
			<g>
				<g>
					<g>
						<g>
							<line class="st1" x1="816.6" y1="143.5" x2="811" y2="137.9"/>
							<line class="st1" x1="816.6" y1="137.9" x2="811" y2="143.5"/>
						</g>
					</g>
				</g>
			</g>
			<g>
				<g>
					<g>
						<g>
							<line class="st1" x1="816.6" y1="88.3" x2="811" y2="82.7"/>
							<line class="st1" x1="816.6" y1="82.7" x2="811" y2="88.3"/>
						</g>
					</g>
				</g>
			</g>
			<g>
				<g>
					<g>
						<g>
							<line class="st1" x1="879.6" y1="143.5" x2="874" y2="137.9"/>
							<line class="st1" x1="879.6" y1="137.9" x2="874" y2="143.5"/>
						</g>
					</g>
				</g>
			</g>
			<g>
				<g>
					<g>
						<g>
							<line class="st1" x1="1068.6" y1="320.1" x2="1063" y2="314.5"/>
							<line class="st1" x1="1068.6" y1="314.5" x2="1063" y2="320.1"/>
						</g>
					</g>
				</g>
			</g>
			<g>
				<g>
					<g>
						<g>
							<line class="st1" x1="1131.6" y1="309" x2="1126" y2="303.4"/>
							<line class="st1" x1="1131.6" y1="303.4" x2="1126" y2="309"/>
						</g>
					</g>
				</g>
			</g>
			<g transform="translate(6,30)">
				<line class="st2" x1="237.8" y1="221" x2="243.8" y2="221"/>
			</g>
			<line class="st3" x1="246.8" y1="285.5" x2="246.8" y2="251"/>
			<line class="st4" x1="246.8" y1="347.6" x2="246.8" y2="285.5"/>
			<line class="st5" x1="246.8" y1="380.7" x2="246.8" y2="347.6"/>
			<line class="st6" x1="246.8" y1="389" x2="246.8" y2="380.7"/>
			<line class="st4" x1="309.8" y1="361.3" x2="309.8" y2="350.1"/>
			<line class="st5" x1="309.8" y1="372.5" x2="309.8" y2="361.3"/>
			<line class="st6" x1="309.8" y1="378" x2="309.8" y2="372.5"/>
			<line class="st3" x1="373" y1="361.3" x2="373" y2="350.3"/>
			<line class="st5" x1="373" y1="378" x2="373" y2="361.3"/>
			<line class="st6" x1="373" y1="383.4" x2="373" y2="378"/>
			<line class="st3" x1="435.8" y1="311.5" x2="435.8" y2="273.1"/>
			<line class="st4" x1="435.8" y1="355.9" x2="435.8" y2="311.5"/>
			<line class="st5" x1="435.8" y1="376.8" x2="435.8" y2="355.9"/>
			<line class="st6" x1="435.8" y1="394.4" x2="435.8" y2="376.8"/>
			<line class="st3" x1="498.8" y1="358.4" x2="498.8" y2="339.2"/>
			<line class="st4" x1="498.8" y1="361.4" x2="498.8" y2="358.4"/>
			<line class="st5" x1="498.8" y1="391.9" x2="498.8" y2="361.4"/>
			<line class="st6" x1="498.8" y1="405.5" x2="498.8" y2="391.9"/>
			<line class="st3" x1="561.7" y1="328.2" x2="561.7" y2="251"/>
			<line class="st4" x1="561.7" y1="361.4" x2="561.7" y2="328.2"/>
			<line class="st5" x1="561.7" y1="383.4" x2="561.7" y2="361.4"/>
			<line class="st6" x1="561.7" y1="399.9" x2="561.7" y2="383.4"/>
			<line class="st3" x1="624.7" y1="340.9" x2="624.7" y2="328.2"/>
			<line class="st4" x1="624.7" y1="355.9" x2="624.7" y2="340.9"/>
			<line class="st5" x1="624.7" y1="375" x2="624.7" y2="355.9"/>
			<line class="st6" x1="624.7" y1="383.4" x2="624.7" y2="375"/>
			<line class="st3" x1="687.8" y1="361.4" x2="687.8" y2="328.3"/>
			<line class="st4" x1="687.8" y1="378" x2="687.8" y2="361.4"/>
			<line class="st5" x1="687.8" y1="389" x2="687.8" y2="378"/>
			<line class="st6" x1="687.8" y1="400" x2="687.8" y2="389"/>
			<line class="st4" x1="750.8" y1="361.5" x2="750.8" y2="333.9"/>
			<line class="st5" x1="750.8" y1="364.2" x2="750.8" y2="361.5"/>
			<line class="st6" x1="750.8" y1="394.5" x2="750.8" y2="364.2"/>
			<line class="st3" x1="813.7" y1="344.5" x2="813.7" y2="338.5"/>
			<line class="st4" x1="813.7" y1="361.2" x2="813.7" y2="344.5"/>
			<line class="st5" x1="813.7" y1="364.4" x2="813.7" y2="361.2"/>
			<line class="st6" x1="813.7" y1="389.2" x2="813.7" y2="364.4"/>
			<line class="st3" x1="876.7" y1="317.4" x2="876.7" y2="306.2"/>
			<line class="st4" x1="876.8" y1="358.5" x2="876.8" y2="317.4"/>
			<line class="st5" x1="876.8" y1="369.7" x2="876.8" y2="358.5"/>
			<line class="st6" x1="876.7" y1="400" x2="876.7" y2="369.7"/>
			<line class="st3" x1="939.7" y1="336.5" x2="939.7" y2="306"/>
			<line class="st4" x1="939.7" y1="366.9" x2="939.7" y2="336.5"/>
			<line class="st5" x1="939.7" y1="372.7" x2="939.7" y2="366.9"/>
			<line class="st6" x1="939.7" y1="378.2" x2="939.7" y2="372.7"/>
			<line class="st3" x1="1002.7" y1="317.2" x2="1002.7" y2="278.2"/>
			<line class="st4" x1="1002.7" y1="339.4" x2="1002.7" y2="317.2"/>
			<line class="st5" x1="1002.7" y1="369.7" x2="1002.7" y2="339.4"/>
			<line class="st6" x1="1002.7" y1="394.9" x2="1002.7" y2="369.7"/>
			<line class="st3" x1="1065.7" y1="361.2" x2="1065.7" y2="350.4"/>
			<line class="st5" x1="1065.7" y1="381.2" x2="1065.7" y2="361.2"/>
			<line class="st6" x1="1065.7" y1="405.9" x2="1065.7" y2="381.2"/>
			<line class="st3" x1="1128.7" y1="361.5" x2="1128.7" y2="355.9"/>
			<line class="st4" x1="1128.7" y1="372.7" x2="1128.7" y2="361.5"/>
			<line class="st5" x1="1128.7" y1="394.4" x2="1128.7" y2="372.7"/>
			<g transform="translate(0,0)">
				<g transform="translate(0,305.9197324414715)">
					<text transform="matrix(1 0 0 1 207.0707 59.3121)" class="st7 st8 st9">0.05</text>
					<text transform="matrix(1 0 0 1 207.0707 111.3121)" class="st7 st8 st9">0.00</text>
				</g>
				<g transform="translate(0,250.73578595317724)">
					<text transform="matrix(1 0 0 1 207.0707 59.3121)" class="st7 st8 st9">0.10</text>
				</g>
				<g transform="translate(0,195.55183946488293)">
					<text transform="matrix(1 0 0 1 207.0707 59.3121)" class="st7 st8 st9">0.15</text>
				</g>
				<g transform="translate(0,140.3678929765886)">
					<text transform="matrix(1 0 0 1 207.0707 59.312)" class="st7 st8 st9">0.20</text>
				</g>
				<g transform="translate(0,85.18394648829431)">
					<text transform="matrix(1 0 0 1 207.0707 59.3121)" class="st7 st8 st9">0.25</text>
				</g>
				<g transform="translate(0,85.18394648829431)">
					<text transform="matrix(1 0 0 1 207.0707 6.312)" class="st7 st8 st9">0.30</text>
				</g>
			</g>
			<g transform="translate(0,440)">
				<text transform="matrix(1 0 0 1 241.1523 55.4721)" class="st7 st10 st9">10</text>
				<text transform="matrix(1 0 0 1 307.4893 55.4721)" class="st7 st10 st9">5</text>
				<text transform="matrix(1 0 0 1 370.4893 55.4721)" class="st7 st10 st9">7</text>
				<text transform="matrix(1 0 0 1 430.1523 55.4721)" class="st7 st10 st9">14</text>
				<text transform="matrix(1 0 0 1 496.4893 55.4721)" class="st7 st10 st9">7</text>
				<text transform="matrix(1 0 0 1 556.1523 55.4721)" class="st7 st10 st9">12</text>
				<text transform="matrix(1 0 0 1 622.4893 55.4721)" class="st7 st10 st9">8</text>
				<text transform="matrix(1 0 0 1 682.1523 55.4721)" class="st7 st10 st9">21</text>
				<text transform="matrix(1 0 0 1 745.1523 55.4721)" class="st7 st10 st9">12</text>
				<text transform="matrix(1 0 0 1 808.1523 55.4721)" class="st7 st10 st9">23</text>
				<text transform="matrix(1 0 0 1 871.1523 55.4721)" class="st7 st10 st9">22</text>
				<text transform="matrix(1 0 0 1 937.4893 55.4721)" class="st7 st10 st9">6</text>
				<text transform="matrix(1 0 0 1 997.1523 55.4721)" class="st7 st10 st9">15</text>
				<text transform="matrix(1 0 0 1 1060.1523 55.4721)" class="st7 st10 st9">10</text>
				<text transform="matrix(1 0 0 1 1126.4893 55.4721)" class="st7 st10 st9">9</text>
			</g>
			<g transform="translate(0,410)">
				<circle class="st11" cx="246.8" cy="55.5" r="6.7"/>
				<circle class="st11" cx="309.8" cy="55.5" r="2"/>
				<circle class="st11" cx="372.8" cy="55.5" r="4.1"/>
				<circle class="st11" cx="435.8" cy="55.5" r="9.6"/>
				<circle class="st11" cx="498.8" cy="55.5" r="4.1"/>
				<circle class="st11" cx="561.8" cy="55.5" r="8.2"/>
				<circle class="st11" cx="624.8" cy="55.5" r="5"/>
				<circle class="st11" cx="687.8" cy="55.5" r="13.9"/>
				<circle class="st11" cx="750.8" cy="55.5" r="8.2"/>
				<circle class="st11" cx="813.8" cy="55.5" r="15"/>
				<circle class="st11" cx="876.8" cy="55.5" r="14.5"/>
				<circle class="st11" cx="939.8" cy="55.5" r="3.1"/>
				<circle class="st11" cx="1002.8" cy="55.5" r="10.3"/>
				<circle class="st11" cx="1065.8" cy="55.5" r="6.7"/>
				<circle class="st11" cx="1128.8" cy="55.5" r="5.9"/>
			</g>
			<g transform="translate(0,370)">
				<g transform="translate(9,0)">
					<text transform="matrix(1 0 0 1 229.4785 72.9921)" class="st7 st12 st9">2000</text>
				</g>
				<g transform="translate(72,0)">
					<text transform="matrix(1 0 0 1 229.4785 72.9921)" class="st7 st12 st9">2001</text>
				</g>
				<g transform="translate(135,0)">
					<text transform="matrix(1 0 0 1 229.4785 72.9921)" class="st7 st12 st9">2002</text>
				</g>
				<g transform="translate(198,0)">
					<text transform="matrix(1 0 0 1 229.4785 72.9921)" class="st7 st12 st9">2003</text>
				</g>
				<g transform="translate(261,0)">
					<text transform="matrix(1 0 0 1 229.4785 72.9921)" class="st7 st12 st9">2004</text>
				</g>
				<g transform="translate(324,0)">
					<text transform="matrix(1 0 0 1 229.4785 72.9921)" class="st7 st12 st9">2005</text>
				</g>
				<g transform="translate(387,0)">
					<text transform="matrix(1 0 0 1 229.4785 72.9921)" class="st7 st12 st9">2006</text>
				</g>
				<g transform="translate(450,0)">
					<text transform="matrix(1 0 0 1 229.4785 72.9921)" class="st7 st12 st9">2007</text>
				</g>
				<g transform="translate(513,0)">
					<text transform="matrix(1 0 0 1 229.4785 72.9921)" class="st7 st12 st9">2008</text>
				</g>
				<g transform="translate(576,0)">
					<text transform="matrix(1 0 0 1 229.4785 72.9921)" class="st7 st12 st9">2009</text>
				</g>
				<g transform="translate(639,0)">
					<text transform="matrix(1 0 0 1 229.4785 72.9921)" class="st7 st12 st9">2010</text>
				</g>
				<g transform="translate(702,0)">
					<text transform="matrix(1 0 0 1 229.9238 72.9921)" class="st7 st12 st9">2011</text>
				</g>
				<g transform="translate(765,0)">
					<text transform="matrix(1 0 0 1 229.4785 72.9921)" class="st7 st12 st9">2012</text>
				</g>
				<g transform="translate(828,0)">
					<text transform="matrix(1 0 0 1 229.4785 72.9921)" class="st7 st12 st9">2013</text>
				</g>
				<g transform="translate(891,0)">
					<text transform="matrix(1 0 0 1 229.4785 72.9921)" class="st7 st12 st9">2014</text>
				</g>
			</g>
			<line class="st13" x1="235.5" y1="347.3" x2="258.2" y2="347.3"/>
			<line class="st13" x1="298.5" y1="361.2" x2="321.2" y2="361.2"/>
			<line class="st13" x1="361.6" y1="361.3" x2="384.3" y2="361.3"/>
			<line class="st13" x1="424.5" y1="356" x2="447.2" y2="356"/>
			<line class="st13" x1="487.5" y1="361.7" x2="510.2" y2="361.7"/>
			<line class="st13" x1="550.3" y1="361.2" x2="573" y2="361.2"/>
			<line class="st13" x1="613.3" y1="355.8" x2="636" y2="355.8"/>
			<line class="st13" x1="676.5" y1="378" x2="699.2" y2="378"/>
			<line class="st13" x1="739.5" y1="361.5" x2="762.2" y2="361.5"/>
			<line class="st13" x1="802.3" y1="361.5" x2="825" y2="361.5"/>
			<line class="st13" x1="865.5" y1="358.5" x2="888.2" y2="358.5"/>
			<line class="st13" x1="928.3" y1="366.9" x2="951" y2="366.9"/>
			<line class="st13" x1="991.3" y1="339.3" x2="1014" y2="339.3"/>
			<line class="st13" x1="1054.3" y1="361.2" x2="1077" y2="361.2"/>
			<line class="st13" x1="1117.3" y1="372.4" x2="1140" y2="372.4"/>
		</g>
		<g id="mediane">
			<g>
				<text transform="matrix(1 0 0 1 3.051758e-04 147.2156)" class="st7 st12 st14">outliers</text>
				<text transform="matrix(1 0 0 1 3.051758e-04 322.5171)" class="st7 st12 st14">25% of</text>
				<text transform="matrix(1 0 0 1 3.051758e-04 336.9171)" class="st7 st12 st14">reports</text>
				<text transform="matrix(1 0 0 1 1.220703e-04 381.3164)" class="st7 st12 st14">25% of</text>
				<text transform="matrix(1 0 0 1 1.220703e-04 395.7163)" class="st7 st12 st14">reports</text>
				<text transform="matrix(1 0 0 1 1.220703e-04 442.7118)" class="st7 st12 st14">year</text>
				<text transform="matrix(1 0 0 1 0 205.0164)" class="st7 st12 st14">25% of</text>
				<text transform="matrix(1 0 0 1 0 219.4165)" class="st7 st12 st14">reports</text>
				<text transform="matrix(1 0 0 1 -1.831055e-04 263.7668)" class="st7 st12 st14">25% of</text>
				<text transform="matrix(1 0 0 1 -1.831055e-04 278.1667)" class="st7 st12 st14">reports</text>
				<text transform="matrix(1 0 0 1 3.051758e-04 96.9529)" class="st7 st10 st14">LEGEND</text>
				<text transform="matrix(1 0 0 1 0 300.3522)" class="st7 st12 st14">median</text>
				<g>
					<text transform="matrix(1 0 0 1 -1.220703e-04 481.5553)" class="st7 st12 st14">n° of</text>
					<text transform="matrix(1 0 0 1 -1.220703e-04 495.9553)" class="st7 st12 st14">reports</text>
				</g>
				<circle class="st15" cx="100.3" cy="464.7" r="5.6"/>
				<text transform="matrix(1 0 0 1 91.0204 442.169)" class="st7 st12 st9">2000</text>
				<line class="st16" x1="100.3" y1="238.4" x2="100.3" y2="179.6"/>
				<line class="st16" x1="100.3" y1="238.4" x2="100.3" y2="179.6"/>
				<line class="st17" x1="100.3" y1="297.1" x2="100.3" y2="238.4"/>
				<line class="st16" x1="100.3" y1="238.4" x2="100.3" y2="179.6"/>
				<line class="st18" x1="100.3" y1="355.9" x2="100.3" y2="297.1"/>
				<line class="st19" x1="100.3" y1="414.7" x2="100.3" y2="355.9"/>
				<line class="st20" x1="88.3" y1="297.1" x2="112.3" y2="297.1"/>
				<text transform="matrix(1 0 0 1 97.7964 496.1699)" class="st7 st10 st9">4</text>
				<line class="st20" x1="102.3" y1="146.8" x2="98.3" y2="142.8"/>
				<line class="st20" x1="102.3" y1="142.8" x2="98.3" y2="146.8"/>
				<g>
					<g>
						<line class="st20" x1="73.8" y1="144.8" x2="53.6" y2="144.8"/>
						<g>
							<polygon class="st7" points="72.1,142.7 71.8,143.1 73.6,144.8 71.8,146.4 72.1,146.8 74.3,144.8 							"/>
						</g>
					</g>
				</g>
				<g>
					<g>
						<line class="st20" x1="73.8" y1="209" x2="53.6" y2="209"/>
						<g>
							<polygon class="st7" points="72.1,206.9 71.8,207.3 73.6,209 71.8,210.6 72.1,211 74.3,209 							"/>
						</g>
					</g>
				</g>
				<g>
					<g>
						<line class="st20" x1="73.8" y1="268.5" x2="53.6" y2="268.5"/>
						<g>
							<polygon class="st7" points="72.1,266.5 71.8,266.8 73.6,268.5 71.8,270.2 72.1,270.6 74.3,268.5 							"/>
						</g>
					</g>
				</g>
				<g>
					<g>
						<line class="st20" x1="73.8" y1="297.1" x2="53.6" y2="297.1"/>
						<g>
							<polygon class="st7" points="72.1,295 71.8,295.4 73.6,297.1 71.8,298.7 72.1,299.1 74.3,297.1 							"/>
						</g>
					</g>
				</g>
				<g>
					<g>
						<line class="st20" x1="73.8" y1="326.5" x2="53.6" y2="326.5"/>
						<g>
							<polygon class="st7" points="72.1,324.4 71.8,324.8 73.6,326.5 71.8,328.1 72.1,328.5 74.3,326.5 							"/>
						</g>
					</g>
				</g>
				<g>
					<g>
						<line class="st20" x1="73.8" y1="385.3" x2="53.6" y2="385.3"/>
						<g>
							<polygon class="st7" points="72.1,383.2 71.8,383.6 73.6,385.3 71.8,386.9 72.1,387.3 74.3,385.3 							"/>
						</g>
					</g>
				</g>
				<g>
					<g>
						<line class="st20" x1="73.8" y1="439.5" x2="53.6" y2="439.5"/>
						<g>
							<polygon class="st7" points="72.1,437.4 71.8,437.8 73.6,439.5 71.8,441.1 72.1,441.5 74.3,439.5 							"/>
						</g>
					</g>
				</g>
				<g>
					<g>
						<line class="st20" x1="73.8" y1="464.7" x2="53.6" y2="464.7"/>
						<g>
							<polygon class="st7" points="72.1,462.6 71.8,463 73.6,464.7 71.8,466.3 72.1,466.7 74.3,464.7 							"/>
						</g>
					</g>
				</g>
				<g>
					<g>
						<line class="st20" x1="73.8" y1="492.2" x2="53.6" y2="492.2"/>
						<g>
							<polygon class="st7" points="72.1,490.2 71.8,490.6 73.6,492.2 71.8,493.9 72.1,494.3 74.3,492.2 							"/>
						</g>
					</g>
				</g>
				<polyline class="st20" points="91,456.9 86.3,456.9 86.3,472.4 91,472.4 				"/>
			</g>
		</g>
	</g>
	<g>
		<g>
			<g>
				<line class="st20" x1="151.5" y1="413" x2="151.5" y2="103.1"/>
				<g>
					<polygon class="st7" points="153.5,104.8 153.2,105.1 151.5,103.3 149.8,105.1 149.5,104.8 151.5,102.6 					"/>
				</g>
			</g>
		</g>
		<g>
			<rect x="123.3" y="230.6" class="st21" width="60.7" height="39.7"/>
			<g>
				<text transform="matrix(1 0 0 1 135 244.8614)" class="st7 st12 st14">dosage</text>
				<text transform="matrix(1 0 0 1 135 259.2614)" class="st7 st12 st14">(grams)</text>
			</g>
		</g>
	</g>
</g>
</svg>
