<?xml version="1.0" encoding="utf-8"?>
<!-- Generator: Adobe Illustrator 19.1.0, SVG Export Plug-In . SVG Version: 6.00 Build 0)  -->
<svg version="1.1" xmlns="http://www.w3.org/2000/svg" xmlns:xlink="http://www.w3.org/1999/xlink" x="0px" y="0px"
	 viewBox="132 170.9 1140 500" style="enable-background:new 132 170.9 1140 500;" xml:space="preserve">
<style type="text/css">
	.st0{fill:#F4F4F4;stroke:#FDFDFD;stroke-miterlimit:10;}
	.st1{fill:none;stroke:#373737;stroke-linejoin:round;}
	.st2{fill:none;stroke:#000000;stroke-width:1.5;}
	.st3{fill:none;stroke:#A478D6;stroke-width:10;stroke-miterlimit:10;}
	.st4{opacity:0.8;fill:none;stroke:#A478D6;stroke-width:10;stroke-miterlimit:10;}
	.st5{opacity:0.5;fill:none;stroke:#A478D6;stroke-width:10;stroke-miterlimit:10;}
	.st6{opacity:0.3;fill:none;stroke:#A478D6;stroke-width:10;stroke-miterlimit:10;}
	.st7{fill:#373737;}
	.st8{font-family:'SourceSansPro-Regular';}
	.st9{font-size:10px;}
	.st10{font-family:'SourceSansPro-Semibold';}
	.st11{fill:none;stroke:#A478D6;stroke-miterlimit:10;}
	.st12{font-family:'SourceSansPro-Light';}
	.st13{fill:#FFFFFF;stroke:#000000;stroke-miterlimit:10;}
	.st14{font-size:12px;}
	.st15{font-family:'SourceSansPro-Bold';}
	.st16{fill:none;stroke:#373737;stroke-width:0.9854;}
	.st17{fill:none;stroke:#373737;stroke-width:10;stroke-miterlimit:10;}
	.st18{opacity:0.8;fill:none;stroke:#373737;stroke-width:10;stroke-miterlimit:10;enable-background:new    ;}
	.st19{opacity:0.5;fill:none;stroke:#373737;stroke-width:10;stroke-miterlimit:10;enable-background:new    ;}
	.st20{opacity:0.3;fill:none;stroke:#373737;stroke-width:10;stroke-miterlimit:10;enable-background:new    ;}
	.st21{fill:none;stroke:#373737;stroke-width:0.5;stroke-linejoin:round;}
</style>
<g id="misure">
</g>
<g id="Layer_1">
	<defs  xmlns="http://www.w3.org/1999/xhtml">
		<style  type="text/css">
			<![CDATA[
body { font-family: 'Helvetica Neue', Helvetica, Arial, sans-serif; }
.box { font-size: 10px; }
.box line, .box rect, .box circle { fill: rgb(255, 255, 255); stroke: rgb(0, 0, 0); stroke-width: 1.5px; }
.box .center { stroke-dasharray: 3px, 3px; }
.box .outlier { fill: none; stroke: rgb(204, 204, 204); }
.axis { font-size: 12px; }
.axis path, .axis line { fill: none; stroke: rgb(0, 0, 0); shape-rendering: crispEdges; }
.x.axis path { fill: none; stroke: rgb(0, 0, 0); shape-rendering: crispEdges; }
				]]>
		</style>
	</defs>
</g>
<g id="NUMERI">
</g>
<g id="BOXPLOT_COLORATI">
</g>
<g id="DI_LATO">
</g>
<g id="ROBA_SOTTO">
</g>
<g id="median">
	<g>
		<rect x="366.8" y="507.1" class="st0" width="900" height="53.8"/>
		<rect x="366.8" y="452.1" class="st0" width="900" height="55"/>
		<rect x="366.8" y="396.4" class="st0" width="900" height="55.7"/>
		<rect x="366.8" y="341.3" class="st0" width="900" height="55.2"/>
		<rect x="366.8" y="286.1" class="st0" width="900" height="55.2"/>
		<rect x="366.8" y="230.8" class="st0" width="900" height="55.2"/>
		<g>
			<g>
				<g>
					<g>
						<line class="st1" x1="444.6" y1="454.4" x2="439" y2="448.8"/>
						<line class="st1" x1="444.6" y1="448.8" x2="439" y2="454.4"/>
					</g>
				</g>
			</g>
		</g>
		<g>
			<g>
				<g>
					<g>
						<line class="st1" x1="570.6" y1="344.1" x2="565" y2="338.5"/>
						<line class="st1" x1="570.6" y1="338.5" x2="565" y2="344.1"/>
					</g>
				</g>
			</g>
		</g>
		<g>
			<g>
				<g>
					<g>
						<line class="st1" x1="822.6" y1="432.4" x2="817" y2="426.8"/>
						<line class="st1" x1="822.6" y1="426.8" x2="817" y2="432.4"/>
					</g>
				</g>
			</g>
		</g>
		<g>
			<g>
				<g>
					<g>
						<line class="st1" x1="885.6" y1="399.2" x2="880" y2="393.6"/>
						<line class="st1" x1="885.6" y1="393.6" x2="880" y2="399.2"/>
					</g>
				</g>
			</g>
		</g>
		<g>
			<g>
				<g>
					<g>
						<line class="st1" x1="885.6" y1="388.2" x2="880" y2="382.6"/>
						<line class="st1" x1="885.6" y1="382.6" x2="880" y2="388.2"/>
					</g>
				</g>
			</g>
		</g>
		<g>
			<g>
				<g>
					<g>
						<line class="st1" x1="885.6" y1="288.9" x2="880" y2="283.3"/>
						<line class="st1" x1="885.6" y1="283.3" x2="880" y2="288.9"/>
					</g>
				</g>
			</g>
		</g>
		<g>
			<g>
				<g>
					<g>
						<line class="st1" x1="948.6" y1="553.8" x2="943" y2="548.2"/>
						<line class="st1" x1="948.6" y1="548.2" x2="943" y2="553.8"/>
					</g>
				</g>
			</g>
		</g>
		<g>
			<g>
				<g>
					<g>
						<line class="st1" x1="948.6" y1="548.2" x2="943" y2="542.6"/>
						<line class="st1" x1="948.6" y1="542.6" x2="943" y2="548.2"/>
					</g>
				</g>
			</g>
		</g>
		<g>
			<g>
				<g>
					<g>
						<line class="st1" x1="948.6" y1="548.2" x2="943" y2="542.6"/>
						<line class="st1" x1="948.6" y1="542.6" x2="943" y2="548.2"/>
					</g>
				</g>
			</g>
		</g>
		<g>
			<g>
				<g>
					<g>
						<line class="st1" x1="948.6" y1="454.4" x2="943" y2="448.8"/>
						<line class="st1" x1="948.6" y1="448.8" x2="943" y2="454.4"/>
					</g>
				</g>
			</g>
		</g>
		<g>
			<g>
				<g>
					<g>
						<line class="st1" x1="948.6" y1="371.6" x2="943" y2="366"/>
						<line class="st1" x1="948.6" y1="366" x2="943" y2="371.6"/>
					</g>
				</g>
			</g>
		</g>
		<g>
			<g>
				<g>
					<g>
						<line class="st1" x1="948.6" y1="344.1" x2="943" y2="338.5"/>
						<line class="st1" x1="948.6" y1="338.5" x2="943" y2="344.1"/>
					</g>
				</g>
			</g>
		</g>
		<g>
			<g>
				<g>
					<g>
						<line class="st1" x1="948.6" y1="288.9" x2="943" y2="283.3"/>
						<line class="st1" x1="948.6" y1="283.3" x2="943" y2="288.9"/>
					</g>
				</g>
			</g>
		</g>
		<g>
			<g>
				<g>
					<g>
						<line class="st1" x1="948.6" y1="233.7" x2="943" y2="228.1"/>
						<line class="st1" x1="948.6" y1="228.1" x2="943" y2="233.7"/>
					</g>
				</g>
			</g>
		</g>
		<g>
			<g>
				<g>
					<g>
						<line class="st1" x1="1011.6" y1="288.9" x2="1006" y2="283.3"/>
						<line class="st1" x1="1011.6" y1="283.3" x2="1006" y2="288.9"/>
					</g>
				</g>
			</g>
		</g>
		<g>
			<g>
				<g>
					<g>
						<line class="st1" x1="1200.6" y1="465.5" x2="1195" y2="459.9"/>
						<line class="st1" x1="1200.6" y1="459.9" x2="1195" y2="465.5"/>
					</g>
				</g>
			</g>
		</g>
		<g>
			<g>
				<g>
					<g>
						<line class="st1" x1="1263.6" y1="454.4" x2="1258" y2="448.8"/>
						<line class="st1" x1="1263.6" y1="448.8" x2="1258" y2="454.4"/>
					</g>
				</g>
			</g>
		</g>
		<g transform="translate(6,30)">
			<line class="st2" x1="369.8" y1="366.4" x2="375.8" y2="366.4"/>
		</g>
		<line class="st3" x1="378.8" y1="430.9" x2="378.8" y2="396.4"/>
		<line class="st4" x1="378.8" y1="493" x2="378.8" y2="430.9"/>
		<line class="st5" x1="378.8" y1="526.1" x2="378.8" y2="493"/>
		<line class="st6" x1="378.8" y1="534.4" x2="378.8" y2="526.1"/>
		<line class="st4" x1="441.8" y1="506.7" x2="441.8" y2="495.5"/>
		<line class="st5" x1="441.8" y1="517.9" x2="441.8" y2="506.7"/>
		<line class="st6" x1="441.8" y1="523.4" x2="441.8" y2="517.9"/>
		<line class="st3" x1="505" y1="506.7" x2="505" y2="495.7"/>
		<line class="st5" x1="505" y1="523.4" x2="505" y2="506.7"/>
		<line class="st6" x1="505" y1="528.8" x2="505" y2="523.4"/>
		<line class="st3" x1="567.8" y1="456.9" x2="567.8" y2="418.5"/>
		<line class="st4" x1="567.8" y1="501.3" x2="567.8" y2="456.9"/>
		<line class="st5" x1="567.8" y1="522.2" x2="567.8" y2="501.3"/>
		<line class="st6" x1="567.8" y1="539.8" x2="567.8" y2="522.2"/>
		<line class="st3" x1="630.8" y1="503.8" x2="630.8" y2="484.6"/>
		<line class="st4" x1="630.8" y1="506.8" x2="630.8" y2="503.8"/>
		<line class="st5" x1="630.8" y1="537.3" x2="630.8" y2="506.8"/>
		<line class="st6" x1="630.8" y1="550.9" x2="630.8" y2="537.3"/>
		<line class="st3" x1="693.7" y1="473.6" x2="693.7" y2="396.4"/>
		<line class="st4" x1="693.7" y1="506.8" x2="693.7" y2="473.6"/>
		<line class="st5" x1="693.7" y1="528.8" x2="693.7" y2="506.8"/>
		<line class="st6" x1="693.7" y1="545.3" x2="693.7" y2="528.8"/>
		<line class="st3" x1="756.7" y1="486.3" x2="756.7" y2="473.6"/>
		<line class="st4" x1="756.7" y1="501.3" x2="756.7" y2="486.3"/>
		<line class="st5" x1="756.7" y1="520.4" x2="756.7" y2="501.3"/>
		<line class="st6" x1="756.7" y1="528.8" x2="756.7" y2="520.4"/>
		<line class="st3" x1="819.8" y1="506.8" x2="819.8" y2="473.7"/>
		<line class="st4" x1="819.8" y1="523.4" x2="819.8" y2="506.8"/>
		<line class="st5" x1="819.8" y1="534.4" x2="819.8" y2="523.4"/>
		<line class="st6" x1="819.8" y1="545.4" x2="819.8" y2="534.4"/>
		<line class="st4" x1="882.8" y1="506.9" x2="882.8" y2="479.3"/>
		<line class="st5" x1="882.8" y1="509.6" x2="882.8" y2="506.9"/>
		<line class="st6" x1="882.8" y1="539.9" x2="882.8" y2="509.6"/>
		<line class="st3" x1="945.7" y1="489.9" x2="945.7" y2="483.9"/>
		<line class="st4" x1="945.7" y1="506.6" x2="945.7" y2="489.9"/>
		<line class="st5" x1="945.7" y1="509.8" x2="945.7" y2="506.6"/>
		<line class="st6" x1="945.7" y1="534.6" x2="945.7" y2="509.8"/>
		<line class="st3" x1="1008.7" y1="462.8" x2="1008.7" y2="451.6"/>
		<line class="st4" x1="1008.8" y1="503.9" x2="1008.8" y2="462.8"/>
		<line class="st5" x1="1008.8" y1="515.1" x2="1008.8" y2="503.9"/>
		<line class="st6" x1="1008.7" y1="545.4" x2="1008.7" y2="515.1"/>
		<line class="st3" x1="1071.7" y1="481.9" x2="1071.7" y2="451.4"/>
		<line class="st4" x1="1071.7" y1="512.3" x2="1071.7" y2="481.9"/>
		<line class="st5" x1="1071.7" y1="518.1" x2="1071.7" y2="512.3"/>
		<line class="st6" x1="1071.7" y1="523.6" x2="1071.7" y2="518.1"/>
		<line class="st3" x1="1134.7" y1="462.6" x2="1134.7" y2="423.6"/>
		<line class="st4" x1="1134.7" y1="484.8" x2="1134.7" y2="462.6"/>
		<line class="st5" x1="1134.7" y1="515.1" x2="1134.7" y2="484.8"/>
		<line class="st6" x1="1134.7" y1="540.3" x2="1134.7" y2="515.1"/>
		<line class="st3" x1="1197.7" y1="506.6" x2="1197.7" y2="495.8"/>
		<line class="st5" x1="1197.7" y1="526.6" x2="1197.7" y2="506.6"/>
		<line class="st6" x1="1197.7" y1="551.3" x2="1197.7" y2="526.6"/>
		<line class="st3" x1="1260.7" y1="506.9" x2="1260.7" y2="501.3"/>
		<line class="st4" x1="1260.7" y1="518.1" x2="1260.7" y2="506.9"/>
		<line class="st5" x1="1260.7" y1="539.8" x2="1260.7" y2="518.1"/>
		<g transform="translate(0,0)">
			<g transform="translate(0,305.9197324414715)">
				<text transform="matrix(1 0 0 1 339.0707 204.73)" class="st7 st8 st9">0.05</text>
				<text transform="matrix(1 0 0 1 339.0707 256.73)" class="st7 st8 st9">0.00</text>
			</g>
			<g transform="translate(0,250.73578595317724)">
				<text transform="matrix(1 0 0 1 339.0707 204.73)" class="st7 st8 st9">0.10</text>
			</g>
			<g transform="translate(0,195.55183946488293)">
				<text transform="matrix(1 0 0 1 339.0707 204.73)" class="st7 st8 st9">0.15</text>
			</g>
			<g transform="translate(0,140.3678929765886)">
				<text transform="matrix(1 0 0 1 339.0707 204.73)" class="st7 st8 st9">0.20</text>
			</g>
			<g transform="translate(0,85.18394648829431)">
				<text transform="matrix(1 0 0 1 339.0707 204.73)" class="st7 st8 st9">0.25</text>
			</g>
			<g transform="translate(0,85.18394648829431)">
				<text transform="matrix(1 0 0 1 339.0707 151.73)" class="st7 st8 st9">0.30</text>
			</g>
		</g>
		<g transform="translate(0,440)">
			<text transform="matrix(1 0 0 1 373.1523 200.89)" class="st7 st10 st9">10</text>
			<text transform="matrix(1 0 0 1 439.4893 200.89)" class="st7 st10 st9">5</text>
			<text transform="matrix(1 0 0 1 502.4893 200.89)" class="st7 st10 st9">7</text>
			<text transform="matrix(1 0 0 1 562.1523 200.89)" class="st7 st10 st9">14</text>
			<text transform="matrix(1 0 0 1 628.4893 200.89)" class="st7 st10 st9">7</text>
			<text transform="matrix(1 0 0 1 688.1523 200.89)" class="st7 st10 st9">12</text>
			<text transform="matrix(1 0 0 1 754.4893 200.89)" class="st7 st10 st9">8</text>
			<text transform="matrix(1 0 0 1 814.1523 200.89)" class="st7 st10 st9">21</text>
			<text transform="matrix(1 0 0 1 877.1523 200.89)" class="st7 st10 st9">12</text>
			<text transform="matrix(1 0 0 1 940.1523 200.89)" class="st7 st10 st9">23</text>
			<text transform="matrix(1 0 0 1 1003.1523 200.89)" class="st7 st10 st9">22</text>
			<text transform="matrix(1 0 0 1 1069.4893 200.89)" class="st7 st10 st9">6</text>
			<text transform="matrix(1 0 0 1 1129.1523 200.89)" class="st7 st10 st9">15</text>
			<text transform="matrix(1 0 0 1 1192.1523 200.89)" class="st7 st10 st9">10</text>
			<text transform="matrix(1 0 0 1 1258.4893 200.89)" class="st7 st10 st9">9</text>
		</g>
		<g transform="translate(0,410)">
			<circle class="st11" cx="378.8" cy="200.9" r="6.7"/>
			<circle class="st11" cx="441.8" cy="200.9" r="2"/>
			<circle class="st11" cx="504.8" cy="200.9" r="4.1"/>
			<circle class="st11" cx="567.8" cy="200.9" r="9.6"/>
			<circle class="st11" cx="630.8" cy="200.9" r="4.1"/>
			<circle class="st11" cx="693.8" cy="200.9" r="8.2"/>
			<circle class="st11" cx="756.8" cy="200.9" r="5"/>
			<circle class="st11" cx="819.8" cy="200.9" r="13.9"/>
			<circle class="st11" cx="882.8" cy="200.9" r="8.2"/>
			<circle class="st11" cx="945.8" cy="200.9" r="15"/>
			<circle class="st11" cx="1008.8" cy="200.9" r="14.5"/>
			<circle class="st11" cx="1071.8" cy="200.9" r="3.1"/>
			<circle class="st11" cx="1134.8" cy="200.9" r="10.3"/>
			<circle class="st11" cx="1197.8" cy="200.9" r="6.7"/>
			<circle class="st11" cx="1260.8" cy="200.9" r="5.9"/>
		</g>
		<g transform="translate(0,370)">
			<g transform="translate(9,0)">
				<text transform="matrix(1 0 0 1 361.4785 218.41)" class="st7 st12 st9">2000</text>
			</g>
			<g transform="translate(72,0)">
				<text transform="matrix(1 0 0 1 361.4785 218.41)" class="st7 st12 st9">2001</text>
			</g>
			<g transform="translate(135,0)">
				<text transform="matrix(1 0 0 1 361.4785 218.41)" class="st7 st12 st9">2002</text>
			</g>
			<g transform="translate(198,0)">
				<text transform="matrix(1 0 0 1 361.4785 218.41)" class="st7 st12 st9">2003</text>
			</g>
			<g transform="translate(261,0)">
				<text transform="matrix(1 0 0 1 361.4785 218.41)" class="st7 st12 st9">2004</text>
			</g>
			<g transform="translate(324,0)">
				<text transform="matrix(1 0 0 1 361.4785 218.41)" class="st7 st12 st9">2005</text>
			</g>
			<g transform="translate(387,0)">
				<text transform="matrix(1 0 0 1 361.4785 218.41)" class="st7 st12 st9">2006</text>
			</g>
			<g transform="translate(450,0)">
				<text transform="matrix(1 0 0 1 361.4785 218.41)" class="st7 st12 st9">2007</text>
			</g>
			<g transform="translate(513,0)">
				<text transform="matrix(1 0 0 1 361.4785 218.41)" class="st7 st12 st9">2008</text>
			</g>
			<g transform="translate(576,0)">
				<text transform="matrix(1 0 0 1 361.4785 218.41)" class="st7 st12 st9">2009</text>
			</g>
			<g transform="translate(639,0)">
				<text transform="matrix(1 0 0 1 361.4785 218.41)" class="st7 st12 st9">2010</text>
			</g>
			<g transform="translate(702,0)">
				<text transform="matrix(1 0 0 1 361.9238 218.41)" class="st7 st12 st9">2011</text>
			</g>
			<g transform="translate(765,0)">
				<text transform="matrix(1 0 0 1 361.4785 218.41)" class="st7 st12 st9">2012</text>
			</g>
			<g transform="translate(828,0)">
				<text transform="matrix(1 0 0 1 361.4785 218.41)" class="st7 st12 st9">2013</text>
			</g>
			<g transform="translate(891,0)">
				<text transform="matrix(1 0 0 1 361.4785 218.41)" class="st7 st12 st9">2014</text>
			</g>
		</g>
		<line class="st13" x1="367.5" y1="492.7" x2="390.2" y2="492.7"/>
		<line class="st13" x1="430.5" y1="506.6" x2="453.2" y2="506.6"/>
		<line class="st13" x1="493.6" y1="506.7" x2="516.3" y2="506.7"/>
		<line class="st13" x1="556.5" y1="501.4" x2="579.2" y2="501.4"/>
		<line class="st13" x1="619.5" y1="507.1" x2="642.2" y2="507.1"/>
		<line class="st13" x1="682.3" y1="506.6" x2="705" y2="506.6"/>
		<line class="st13" x1="745.3" y1="501.2" x2="768" y2="501.2"/>
		<line class="st13" x1="808.5" y1="523.4" x2="831.2" y2="523.4"/>
		<line class="st13" x1="871.5" y1="506.9" x2="894.2" y2="506.9"/>
		<line class="st13" x1="934.3" y1="506.9" x2="957" y2="506.9"/>
		<line class="st13" x1="997.5" y1="503.9" x2="1020.2" y2="503.9"/>
		<line class="st13" x1="1060.3" y1="512.3" x2="1083" y2="512.3"/>
		<line class="st13" x1="1123.3" y1="484.7" x2="1146" y2="484.7"/>
		<line class="st13" x1="1186.3" y1="506.6" x2="1209" y2="506.6"/>
		<line class="st13" x1="1249.3" y1="517.8" x2="1272" y2="517.8"/>
	</g>
	<g id="mediane">
		<g>
			<text transform="matrix(1 0 0 1 132.0003 292.6335)" class="st7 st12 st14">outliers</text>
			<text transform="matrix(1 0 0 1 132.0003 467.935)" class="st7 st12 st14">25% of</text>
			<text transform="matrix(1 0 0 1 132.0003 482.335)" class="st7 st12 st14">reports</text>
			<text transform="matrix(1 0 0 1 132.0001 526.7344)" class="st7 st12 st14">25% of</text>
			<text transform="matrix(1 0 0 1 132.0001 541.1343)" class="st7 st12 st14">reports</text>
			<text transform="matrix(1 0 0 1 132.0001 588.1297)" class="st7 st12 st14">year</text>
			<text transform="matrix(1 0 0 1 132 350.4344)" class="st7 st12 st14">25% of</text>
			<text transform="matrix(1 0 0 1 132 364.8344)" class="st7 st12 st14">reports</text>
			<text transform="matrix(1 0 0 1 131.9998 409.1847)" class="st7 st12 st14">25% of</text>
			<text transform="matrix(1 0 0 1 131.9998 423.5847)" class="st7 st12 st14">reports</text>
			<text transform="matrix(1 0 0 1 132.0003 242.3708)" class="st7 st15 st14">LEGEND</text>
			<text transform="matrix(1 0 0 1 132 445.7701)" class="st7 st12 st14">median</text>
			<g>
				<text transform="matrix(1 0 0 1 131.9999 626.9732)" class="st7 st12 st14">n° of</text>
				<text transform="matrix(1 0 0 1 131.9999 641.3732)" class="st7 st12 st14">reports</text>
			</g>
			<circle class="st16" cx="232.3" cy="610.1" r="5.6"/>
			<text transform="matrix(1 0 0 1 223.0204 587.5869)" class="st7 st12 st9">2000</text>
			<line class="st17" x1="232.3" y1="383.8" x2="232.3" y2="325"/>
			<line class="st17" x1="232.3" y1="383.8" x2="232.3" y2="325"/>
			<line class="st18" x1="232.3" y1="442.5" x2="232.3" y2="383.8"/>
			<line class="st17" x1="232.3" y1="383.8" x2="232.3" y2="325"/>
			<line class="st19" x1="232.3" y1="501.3" x2="232.3" y2="442.5"/>
			<line class="st20" x1="232.3" y1="560.1" x2="232.3" y2="501.3"/>
			<line class="st21" x1="220.3" y1="442.5" x2="244.3" y2="442.5"/>
			<text transform="matrix(1 0 0 1 229.7964 641.5878)" class="st7 st15 st9">4</text>
			<line class="st21" x1="234.3" y1="292.2" x2="230.3" y2="288.2"/>
			<line class="st21" x1="234.3" y1="288.2" x2="230.3" y2="292.2"/>
			<g>
				<g>
					<line class="st21" x1="205.8" y1="290.2" x2="185.6" y2="290.2"/>
					<g>
						<polygon class="st7" points="204.1,288.1 203.8,288.5 205.6,290.2 203.8,291.8 204.1,292.2 206.3,290.2 						"/>
					</g>
				</g>
			</g>
			<g>
				<g>
					<line class="st21" x1="205.8" y1="354.4" x2="185.6" y2="354.4"/>
					<g>
						<polygon class="st7" points="204.1,352.3 203.8,352.7 205.6,354.4 203.8,356 204.1,356.4 206.3,354.4 						"/>
					</g>
				</g>
			</g>
			<g>
				<g>
					<line class="st21" x1="205.8" y1="413.9" x2="185.6" y2="413.9"/>
					<g>
						<polygon class="st7" points="204.1,411.9 203.8,412.2 205.6,413.9 203.8,415.6 204.1,416 206.3,413.9 						"/>
					</g>
				</g>
			</g>
			<g>
				<g>
					<line class="st21" x1="205.8" y1="442.5" x2="185.6" y2="442.5"/>
					<g>
						<polygon class="st7" points="204.1,440.4 203.8,440.8 205.6,442.5 203.8,444.1 204.1,444.5 206.3,442.5 						"/>
					</g>
				</g>
			</g>
			<g>
				<g>
					<line class="st21" x1="205.8" y1="471.9" x2="185.6" y2="471.9"/>
					<g>
						<polygon class="st7" points="204.1,469.8 203.8,470.2 205.6,471.9 203.8,473.5 204.1,473.9 206.3,471.9 						"/>
					</g>
				</g>
			</g>
			<g>
				<g>
					<line class="st21" x1="205.8" y1="530.7" x2="185.6" y2="530.7"/>
					<g>
						<polygon class="st7" points="204.1,528.6 203.8,529 205.6,530.7 203.8,532.3 204.1,532.7 206.3,530.7 						"/>
					</g>
				</g>
			</g>
			<g>
				<g>
					<line class="st21" x1="205.8" y1="584.9" x2="185.6" y2="584.9"/>
					<g>
						<polygon class="st7" points="204.1,582.8 203.8,583.2 205.6,584.9 203.8,586.5 204.1,586.9 206.3,584.9 						"/>
					</g>
				</g>
			</g>
			<g>
				<g>
					<line class="st21" x1="205.8" y1="610.1" x2="185.6" y2="610.1"/>
					<g>
						<polygon class="st7" points="204.1,608 203.8,608.4 205.6,610.1 203.8,611.7 204.1,612.1 206.3,610.1 						"/>
					</g>
				</g>
			</g>
			<g>
				<g>
					<line class="st21" x1="205.8" y1="637.6" x2="185.6" y2="637.6"/>
					<g>
						<polygon class="st7" points="204.1,635.6 203.8,636 205.6,637.6 203.8,639.3 204.1,639.7 206.3,637.6 						"/>
					</g>
				</g>
			</g>
			<polyline class="st21" points="223,602.3 218.3,602.3 218.3,617.8 223,617.8 			"/>
		</g>
	</g>
</g>
</svg>
