<?xml version="1.0" encoding="utf-8"?>
<!-- Generator: Adobe Illustrator 19.1.0, SVG Export Plug-In . SVG Version: 6.00 Build 0)  -->
<svg version="1.1" xmlns="http://www.w3.org/2000/svg" xmlns:xlink="http://www.w3.org/1999/xlink" x="0px" y="0px"
	 viewBox="132 170.9 1140 500" enable-background="new 132 170.9 1140 500" xml:space="preserve">

<defs>
  <style type="text/css">@import url(https://fonts.googleapis.com/css?family=Crimson+Text);</style>
  <style type="text/css">@import url(https://fonts.googleapis.com/css?family=Source+Sans+Pro:300,400,700);</style>
</defs>

<g id="Layer_9">
</g>
<g id="livelli">
</g>
<g id="roba_sotto">
</g>
<g id="Layer_1">

</g>
<g id="outliers">
</g>
<g id="numeri">
</g>
<g id="boxplot">
</g>
<g id="roba_di_lato">
</g>
<g id="mediane">
	<g>
		<rect x="364.2" y="510.5" fill="#F4F4F4" stroke="#FDFDFD" stroke-miterlimit="10" width="900" height="50.4"/>
		<rect x="364.2" y="459" fill="#F4F4F4" stroke="#FDFDFD" stroke-miterlimit="10" width="900" height="51.5"/>
		<rect x="364.2" y="406.8" fill="#F4F4F4" stroke="#FDFDFD" stroke-miterlimit="10" width="900" height="52.2"/>
		<rect x="364.2" y="355.1" fill="#F4F4F4" stroke="#FDFDFD" stroke-miterlimit="10" width="900" height="51.7"/>
		<rect x="364.2" y="303.4" fill="#F4F4F4" stroke="#FDFDFD" stroke-miterlimit="10" width="900" height="51.7"/>
		<rect x="364.2" y="251.6" fill="#F4F4F4" stroke="#FDFDFD" stroke-miterlimit="10" width="900" height="51.7"/>
		<g id="mediane_1_">
			<g>
				<text transform="matrix(1 0 0 1 132.0003 292.6335)" fill="#373737" font-family="'Source Sans Pro', sans-serif" font-weight="300"  font-size="12px">outliers</text>
				<text transform="matrix(1 0 0 1 132.0003 467.935)" fill="#373737" font-family="'Source Sans Pro', sans-serif" font-weight="300"  font-size="12px">25% of</text>
				<text transform="matrix(1 0 0 1 132.0003 482.335)" fill="#373737" font-family="'Source Sans Pro', sans-serif" font-weight="300"  font-size="12px">reports</text>
				<text transform="matrix(1 0 0 1 132.0001 526.7344)" fill="#373737" font-family="'Source Sans Pro', sans-serif" font-weight="300"  font-size="12px">25% of</text>
				<text transform="matrix(1 0 0 1 132.0001 541.1343)" fill="#373737" font-family="'Source Sans Pro', sans-serif" font-weight="300"  font-size="12px">reports</text>
				<text transform="matrix(1 0 0 1 132.0001 588.1297)" fill="#373737" font-family="'Source Sans Pro', sans-serif" font-weight="300"  font-size="12px">year</text>
				<text transform="matrix(1 0 0 1 132 350.4344)" fill="#373737" font-family="'Source Sans Pro', sans-serif" font-weight="300"  font-size="12px">25% of</text>
				<text transform="matrix(1 0 0 1 132 364.8344)" fill="#373737" font-family="'Source Sans Pro', sans-serif" font-weight="300"  font-size="12px">reports</text>
				<text transform="matrix(1 0 0 1 131.9998 409.1847)" fill="#373737" font-family="'Source Sans Pro', sans-serif" font-weight="300"  font-size="12px">25% of</text>
				<text transform="matrix(1 0 0 1 131.9998 423.5847)" fill="#373737" font-family="'Source Sans Pro', sans-serif" font-weight="300"  font-size="12px">reports</text>
				<text transform="matrix(1 0 0 1 132.0003 242.3708)" fill="#373737" font-family="'Source Sans Pro', sans-serif" font-weight="700"  font-size="12px">LEGEND</text>
				<text transform="matrix(1 0 0 1 132 445.7701)" fill="#373737" font-family="'Source Sans Pro', sans-serif" font-weight="300"  font-size="12px">median</text>
				<g>
					<text transform="matrix(1 0 0 1 131.9999 626.9732)" fill="#373737" font-family="'Source Sans Pro', sans-serif" font-weight="300"  font-size="12px">n° of</text>
					<text transform="matrix(1 0 0 1 131.9999 641.3732)" fill="#373737" font-family="'Source Sans Pro', sans-serif" font-weight="300"  font-size="12px">reports</text>
				</g>
				<circle fill="none" stroke="#373737" stroke-width="0.9854" cx="232.3" cy="610.1" r="5.6"/>
				<text transform="matrix(1 0 0 1 223.0204 587.5869)" fill="#373737" font-family="'Source Sans Pro', sans-serif" font-weight="300"  font-size="10px">2000</text>
				<line fill="none" stroke="#373737" stroke-width="10" stroke-miterlimit="10" x1="232.3" y1="383.8" x2="232.3" y2="325"/>
				<line fill="none" stroke="#373737" stroke-width="10" stroke-miterlimit="10" x1="232.3" y1="383.8" x2="232.3" y2="325"/>
				
					<line opacity="0.8" fill="none" stroke="#373737" stroke-width="10" stroke-miterlimit="10" enable-background="new    " x1="232.3" y1="442.5" x2="232.3" y2="383.8"/>
				<line fill="none" stroke="#373737" stroke-width="10" stroke-miterlimit="10" x1="232.3" y1="383.8" x2="232.3" y2="325"/>
				
					<line opacity="0.5" fill="none" stroke="#373737" stroke-width="10" stroke-miterlimit="10" enable-background="new    " x1="232.3" y1="501.3" x2="232.3" y2="442.5"/>
				
					<line opacity="0.3" fill="none" stroke="#373737" stroke-width="10" stroke-miterlimit="10" enable-background="new    " x1="232.3" y1="560.1" x2="232.3" y2="501.3"/>
				<line fill="none" stroke="#373737" stroke-width="0.5" stroke-linejoin="round" x1="220.3" y1="442.5" x2="244.3" y2="442.5"/>
				<text transform="matrix(1 0 0 1 229.7964 641.5878)" fill="#373737" font-family="'Source Sans Pro', sans-serif" font-weight="700"  font-size="10px">4</text>
				<line fill="none" stroke="#373737" stroke-width="0.5" stroke-linejoin="round" x1="234.3" y1="292.2" x2="230.3" y2="288.2"/>
				<line fill="none" stroke="#373737" stroke-width="0.5" stroke-linejoin="round" x1="234.3" y1="288.2" x2="230.3" y2="292.2"/>
				<g>
					<g>
						
							<line fill="none" stroke="#373737" stroke-width="0.5" stroke-linejoin="round" x1="205.8" y1="290.2" x2="185.6" y2="290.2"/>
						<g>
							<polygon fill="#373737" points="204.1,288.1 203.8,288.5 205.6,290.2 203.8,291.8 204.1,292.2 206.3,290.2 							"/>
						</g>
					</g>
				</g>
				<g>
					<g>
						
							<line fill="none" stroke="#373737" stroke-width="0.5" stroke-linejoin="round" x1="205.8" y1="354.4" x2="185.6" y2="354.4"/>
						<g>
							<polygon fill="#373737" points="204.1,352.3 203.8,352.7 205.6,354.4 203.8,356 204.1,356.4 206.3,354.4 							"/>
						</g>
					</g>
				</g>
				<g>
					<g>
						
							<line fill="none" stroke="#373737" stroke-width="0.5" stroke-linejoin="round" x1="205.8" y1="413.9" x2="185.6" y2="413.9"/>
						<g>
							<polygon fill="#373737" points="204.1,411.9 203.8,412.2 205.6,413.9 203.8,415.6 204.1,416 206.3,413.9 							"/>
						</g>
					</g>
				</g>
				<g>
					<g>
						
							<line fill="none" stroke="#373737" stroke-width="0.5" stroke-linejoin="round" x1="205.8" y1="442.5" x2="185.6" y2="442.5"/>
						<g>
							<polygon fill="#373737" points="204.1,440.4 203.8,440.8 205.6,442.5 203.8,444.1 204.1,444.5 206.3,442.5 							"/>
						</g>
					</g>
				</g>
				<g>
					<g>
						
							<line fill="none" stroke="#373737" stroke-width="0.5" stroke-linejoin="round" x1="205.8" y1="471.9" x2="185.6" y2="471.9"/>
						<g>
							<polygon fill="#373737" points="204.1,469.8 203.8,470.2 205.6,471.9 203.8,473.5 204.1,473.9 206.3,471.9 							"/>
						</g>
					</g>
				</g>
				<g>
					<g>
						
							<line fill="none" stroke="#373737" stroke-width="0.5" stroke-linejoin="round" x1="205.8" y1="530.7" x2="185.6" y2="530.7"/>
						<g>
							<polygon fill="#373737" points="204.1,528.6 203.8,529 205.6,530.7 203.8,532.3 204.1,532.7 206.3,530.7 							"/>
						</g>
					</g>
				</g>
				<g>
					<g>
						
							<line fill="none" stroke="#373737" stroke-width="0.5" stroke-linejoin="round" x1="205.8" y1="584.9" x2="185.6" y2="584.9"/>
						<g>
							<polygon fill="#373737" points="204.1,582.8 203.8,583.2 205.6,584.9 203.8,586.5 204.1,586.9 206.3,584.9 							"/>
						</g>
					</g>
				</g>
				<g>
					<g>
						
							<line fill="none" stroke="#373737" stroke-width="0.5" stroke-linejoin="round" x1="205.8" y1="610.1" x2="185.6" y2="610.1"/>
						<g>
							<polygon fill="#373737" points="204.1,608 203.8,608.4 205.6,610.1 203.8,611.7 204.1,612.1 206.3,610.1 							"/>
						</g>
					</g>
				</g>
				<g>
					<g>
						
							<line fill="none" stroke="#373737" stroke-width="0.5" stroke-linejoin="round" x1="205.8" y1="637.6" x2="185.6" y2="637.6"/>
						<g>
							<polygon fill="#373737" points="204.1,635.6 203.8,636 205.6,637.6 203.8,639.3 204.1,639.7 206.3,637.6 							"/>
						</g>
					</g>
				</g>
				<polyline fill="none" stroke="#373737" stroke-width="0.5" stroke-linejoin="round" points="223,602.3 218.3,602.3 218.3,617.8 
					223,617.8 				"/>
			</g>
		</g>
		<g>
			<g>
				<g>
					<g>
						<line fill="none" stroke="#373737" stroke-linejoin="round" x1="375.5" y1="440.6" x2="369.9" y2="435"/>
						<line fill="none" stroke="#373737" stroke-linejoin="round" x1="375.5" y1="435" x2="369.9" y2="440.6"/>
					</g>
				</g>
			</g>
		</g>
		<g>
			<g>
				<g>
					<g>
						<line fill="none" stroke="#373737" stroke-linejoin="round" x1="375.5" y1="233.7" x2="369.9" y2="228.1"/>
						<line fill="none" stroke="#373737" stroke-linejoin="round" x1="375.5" y1="228.1" x2="369.9" y2="233.7"/>
					</g>
				</g>
			</g>
		</g>
		<g>
			<g>
				<g>
					<g>
						<line fill="none" stroke="#373737" stroke-linejoin="round" x1="523.5" y1="431.3" x2="517.9" y2="425.7"/>
						<line fill="none" stroke="#373737" stroke-linejoin="round" x1="523.5" y1="425.7" x2="517.9" y2="431.3"/>
					</g>
				</g>
			</g>
		</g>
		<g>
			<g>
				<g>
					<g>
						<line fill="none" stroke="#373737" stroke-linejoin="round" x1="523.5" y1="419.9" x2="517.9" y2="414.3"/>
						<line fill="none" stroke="#373737" stroke-linejoin="round" x1="523.5" y1="414.3" x2="517.9" y2="419.9"/>
					</g>
				</g>
			</g>
		</g>
		<g>
			<g>
				<g>
					<g>
						<line fill="none" stroke="#373737" stroke-linejoin="round" x1="523.5" y1="409.6" x2="517.9" y2="404"/>
						<line fill="none" stroke="#373737" stroke-linejoin="round" x1="523.5" y1="404" x2="517.9" y2="409.6"/>
					</g>
				</g>
			</g>
		</g>
		<g>
			<g>
				<g>
					<g>
						<line fill="none" stroke="#373737" stroke-linejoin="round" x1="523.5" y1="399.2" x2="517.9" y2="393.6"/>
						<line fill="none" stroke="#373737" stroke-linejoin="round" x1="523.5" y1="393.6" x2="517.9" y2="399.2"/>
					</g>
				</g>
			</g>
		</g>
		<g>
			<g>
				<g>
					<g>
						<line fill="none" stroke="#373737" stroke-linejoin="round" x1="523.5" y1="357.8" x2="517.9" y2="352.2"/>
						<line fill="none" stroke="#373737" stroke-linejoin="round" x1="523.5" y1="352.2" x2="517.9" y2="357.8"/>
					</g>
				</g>
			</g>
		</g>
		<g>
			<g>
				<g>
					<g>
						<line fill="none" stroke="#373737" stroke-linejoin="round" x1="523.5" y1="357.8" x2="517.9" y2="352.2"/>
						<line fill="none" stroke="#373737" stroke-linejoin="round" x1="523.5" y1="352.2" x2="517.9" y2="357.8"/>
					</g>
				</g>
			</g>
		</g>
		<g>
			<g>
				<g>
					<g>
						<line fill="none" stroke="#373737" stroke-linejoin="round" x1="523.5" y1="254.4" x2="517.9" y2="248.8"/>
						<line fill="none" stroke="#373737" stroke-linejoin="round" x1="523.5" y1="248.8" x2="517.9" y2="254.4"/>
					</g>
				</g>
			</g>
		</g>
		<g>
			<g>
				<g>
					<g>
						<line fill="none" stroke="#373737" stroke-linejoin="round" x1="597.5" y1="441.4" x2="591.9" y2="435.8"/>
						<line fill="none" stroke="#373737" stroke-linejoin="round" x1="597.5" y1="435.8" x2="591.9" y2="441.4"/>
					</g>
				</g>
			</g>
		</g>
		<g>
			<g>
				<g>
					<g>
						<line fill="none" stroke="#373737" stroke-linejoin="round" x1="671.5" y1="419.9" x2="665.9" y2="414.3"/>
						<line fill="none" stroke="#373737" stroke-linejoin="round" x1="671.5" y1="414.3" x2="665.9" y2="419.9"/>
					</g>
				</g>
			</g>
		</g>
		<g>
			<g>
				<g>
					<g>
						<line fill="none" stroke="#373737" stroke-linejoin="round" x1="671.5" y1="357.8" x2="665.9" y2="352.2"/>
						<line fill="none" stroke="#373737" stroke-linejoin="round" x1="671.5" y1="352.2" x2="665.9" y2="357.8"/>
					</g>
				</g>
			</g>
		</g>
		<g>
			<g>
				<g>
					<g>
						<line fill="none" stroke="#373737" stroke-linejoin="round" x1="819.5" y1="454.6" x2="813.9" y2="449"/>
						<line fill="none" stroke="#373737" stroke-linejoin="round" x1="819.5" y1="449" x2="813.9" y2="454.6"/>
					</g>
				</g>
			</g>
		</g>
		<g>
			<g>
				<g>
					<g>
						<line fill="none" stroke="#373737" stroke-linejoin="round" x1="893.5" y1="440.6" x2="887.9" y2="435"/>
						<line fill="none" stroke="#373737" stroke-linejoin="round" x1="893.5" y1="435" x2="887.9" y2="440.6"/>
					</g>
				</g>
			</g>
		</g>
		<g>
			<g>
				<g>
					<g>
						<line fill="none" stroke="#373737" stroke-linejoin="round" x1="893.5" y1="403.3" x2="887.9" y2="397.7"/>
						<line fill="none" stroke="#373737" stroke-linejoin="round" x1="893.5" y1="397.7" x2="887.9" y2="403.3"/>
					</g>
				</g>
			</g>
		</g>
		<g>
			<g>
				<g>
					<g>
						<line fill="none" stroke="#373737" stroke-linejoin="round" x1="893.5" y1="357.8" x2="887.9" y2="352.2"/>
						<line fill="none" stroke="#373737" stroke-linejoin="round" x1="893.5" y1="352.2" x2="887.9" y2="357.8"/>
					</g>
				</g>
			</g>
		</g>
		<g>
			<g>
				<g>
					<g>
						<line fill="none" stroke="#373737" stroke-linejoin="round" x1="967.5" y1="393" x2="961.9" y2="387.4"/>
						<line fill="none" stroke="#373737" stroke-linejoin="round" x1="967.5" y1="387.4" x2="961.9" y2="393"/>
					</g>
				</g>
			</g>
		</g>
		<g>
			<g>
				<g>
					<g>
						<line fill="none" stroke="#373737" stroke-linejoin="round" x1="1041.5" y1="316.4" x2="1035.9" y2="310.8"/>
						<line fill="none" stroke="#373737" stroke-linejoin="round" x1="1041.5" y1="310.8" x2="1035.9" y2="316.4"/>
					</g>
				</g>
			</g>
		</g>
		<g>
			<g>
				<g>
					<g>
						<line fill="none" stroke="#373737" stroke-linejoin="round" x1="1115.5" y1="357.8" x2="1109.9" y2="352.2"/>
						<line fill="none" stroke="#373737" stroke-linejoin="round" x1="1115.5" y1="352.2" x2="1109.9" y2="357.8"/>
					</g>
				</g>
			</g>
		</g>
		<g>
			<g>
				<g>
					<g>
						<line fill="none" stroke="#373737" stroke-linejoin="round" x1="1189.5" y1="440.6" x2="1183.9" y2="435"/>
						<line fill="none" stroke="#373737" stroke-linejoin="round" x1="1189.5" y1="435" x2="1183.9" y2="440.6"/>
					</g>
				</g>
			</g>
		</g>
		<g>
			<g>
				<g>
					<g>
						<line fill="none" stroke="#373737" stroke-linejoin="round" x1="1189.5" y1="415.8" x2="1183.9" y2="410.2"/>
						<line fill="none" stroke="#373737" stroke-linejoin="round" x1="1189.5" y1="410.2" x2="1183.9" y2="415.8"/>
					</g>
				</g>
			</g>
		</g>
		<g transform="translate(0,440)">
			<text transform="matrix(1 0 0 1 366.4857 200.89)" fill="#373737" font-family="'Source Sans Pro', sans-serif" font-weight="700"  font-size="10px">31</text>
			<text transform="matrix(1 0 0 1 440.4857 200.89)" fill="#373737" font-family="'Source Sans Pro', sans-serif" font-weight="700"  font-size="10px">62</text>
			<text transform="matrix(1 0 0 1 514.4857 200.89)" fill="#373737" font-family="'Source Sans Pro', sans-serif" font-weight="700"  font-size="10px">57</text>
			<text transform="matrix(1 0 0 1 588.4857 200.89)" fill="#373737" font-family="'Source Sans Pro', sans-serif" font-weight="700"  font-size="10px">42</text>
			<text transform="matrix(1 0 0 1 662.4857 200.89)" fill="#373737" font-family="'Source Sans Pro', sans-serif" font-weight="700"  font-size="10px">23</text>
			<text transform="matrix(1 0 0 1 739.8226 200.89)" fill="#373737" font-family="'Source Sans Pro', sans-serif" font-weight="700"  font-size="10px">7</text>
			<text transform="matrix(1 0 0 1 810.4857 200.89)" fill="#373737" font-family="'Source Sans Pro', sans-serif" font-weight="700"  font-size="10px">16</text>
			<text transform="matrix(1 0 0 1 884.4857 200.89)" fill="#373737" font-family="'Source Sans Pro', sans-serif" font-weight="700"  font-size="10px">65</text>
			<text transform="matrix(1 0 0 1 958.4857 200.89)" fill="#373737" font-family="'Source Sans Pro', sans-serif" font-weight="700"  font-size="10px">62</text>
			<text transform="matrix(1 0 0 1 1032.4857 200.89)" fill="#373737" font-family="'Source Sans Pro', sans-serif" font-weight="700"  font-size="10px">27</text>
			<text transform="matrix(1 0 0 1 1106.4857 200.89)" fill="#373737" font-family="'Source Sans Pro', sans-serif" font-weight="700"  font-size="10px">15</text>
			<text transform="matrix(1 0 0 1 1180.4857 200.89)" fill="#373737" font-family="'Source Sans Pro', sans-serif" font-weight="700"  font-size="10px">18</text>
			<text transform="matrix(1 0 0 1 1257.8226 200.89)" fill="#373737" font-family="'Source Sans Pro', sans-serif" font-weight="700"  font-size="10px">6</text>
		</g>
		<g transform="translate(0,410)">
			<circle fill="none" stroke="#3CEEED" stroke-miterlimit="10" cx="372.2" cy="200.9" r="9.2"/>
			<circle fill="none" stroke="#3CEEED" stroke-miterlimit="10" cx="446.2" cy="200.9" r="14.6"/>
			<circle fill="none" stroke="#3CEEED" stroke-miterlimit="10" cx="520.2" cy="200.9" r="13.8"/>
			<circle fill="none" stroke="#3CEEED" stroke-miterlimit="10" cx="594.2" cy="200.9" r="11.3"/>
			<circle fill="none" stroke="#3CEEED" stroke-miterlimit="10" cx="668.2" cy="200.9" r="7.4"/>
			<circle fill="none" stroke="#3CEEED" stroke-miterlimit="10" cx="742.2" cy="200.9" r="2.5"/>
			<circle fill="none" stroke="#3CEEED" stroke-miterlimit="10" cx="816.2" cy="200.9" r="5.6"/>
			<circle fill="none" stroke="#3CEEED" stroke-miterlimit="10" cx="890.2" cy="200.9" r="15"/>
			<circle fill="none" stroke="#3CEEED" stroke-miterlimit="10" cx="964.2" cy="200.9" r="14.6"/>
			<circle fill="none" stroke="#3CEEED" stroke-miterlimit="10" cx="1038.2" cy="200.9" r="8.4"/>
			<circle fill="none" stroke="#3CEEED" stroke-miterlimit="10" cx="1112.2" cy="200.9" r="5.3"/>
			<circle fill="none" stroke="#3CEEED" stroke-miterlimit="10" cx="1186.2" cy="200.9" r="6.2"/>
			<circle fill="none" stroke="#3CEEED" stroke-miterlimit="10" cx="1260.2" cy="200.9" r="2"/>
		</g>
		<g transform="translate(0,370)">
			<g transform="translate(5.5,0)">
				<text transform="matrix(1 0 0 1 357.8119 218.41)" fill="#373737" font-family="'Source Sans Pro', sans-serif" font-weight="300"  font-size="10px">2000</text>
			</g>
			<g transform="translate(79.5,0)">
				<text transform="matrix(1 0 0 1 357.8119 218.41)" fill="#373737" font-family="'Source Sans Pro', sans-serif" font-weight="300"  font-size="10px">2001</text>
			</g>
			<g transform="translate(153.5,0)">
				<text transform="matrix(1 0 0 1 357.8119 218.41)" fill="#373737" font-family="'Source Sans Pro', sans-serif" font-weight="300"  font-size="10px">2002</text>
			</g>
			<g transform="translate(227.5,0)">
				<text transform="matrix(1 0 0 1 357.8119 218.41)" fill="#373737" font-family="'Source Sans Pro', sans-serif" font-weight="300"  font-size="10px">2003</text>
			</g>
			<g transform="translate(301.5,0)">
				<text transform="matrix(1 0 0 1 357.8119 218.41)" fill="#373737" font-family="'Source Sans Pro', sans-serif" font-weight="300"  font-size="10px">2004</text>
			</g>
			<g transform="translate(375.5,0)">
				<text transform="matrix(1 0 0 1 357.8119 218.41)" fill="#373737" font-family="'Source Sans Pro', sans-serif" font-weight="300"  font-size="10px">2005</text>
			</g>
			<g transform="translate(449.5,0)">
				<text transform="matrix(1 0 0 1 357.8119 218.41)" fill="#373737" font-family="'Source Sans Pro', sans-serif" font-weight="300"  font-size="10px">2006</text>
			</g>
			<g transform="translate(523.5,0)">
				<text transform="matrix(1 0 0 1 357.8119 218.41)" fill="#373737" font-family="'Source Sans Pro', sans-serif" font-weight="300"  font-size="10px">2007</text>
			</g>
			<g transform="translate(597.5,0)">
				<text transform="matrix(1 0 0 1 357.8119 218.41)" fill="#373737" font-family="'Source Sans Pro', sans-serif" font-weight="300"  font-size="10px">2008</text>
			</g>
			<g transform="translate(671.5,0)">
				<text transform="matrix(1 0 0 1 357.8119 218.41)" fill="#373737" font-family="'Source Sans Pro', sans-serif" font-weight="300"  font-size="10px">2009</text>
			</g>
			<g transform="translate(745.5,0)">
				<text transform="matrix(1 0 0 1 357.8119 218.41)" fill="#373737" font-family="'Source Sans Pro', sans-serif" font-weight="300"  font-size="10px">2010</text>
			</g>
			<g transform="translate(819.5,0)">
				<text transform="matrix(1 0 0 1 358.2572 218.41)" fill="#373737" font-family="'Source Sans Pro', sans-serif" font-weight="300"  font-size="10px">2011</text>
			</g>
			<g transform="translate(893.5,0)">
				<text transform="matrix(1 0 0 1 357.8119 218.41)" fill="#373737" font-family="'Source Sans Pro', sans-serif" font-weight="300"  font-size="10px">2012</text>
			</g>
		</g>
		<line fill="none" stroke="#3CEEED" stroke-width="10" stroke-miterlimit="10" x1="372.7" y1="499.9" x2="372.7" y2="453.3"/>
		
			<line opacity="0.7" fill="none" stroke="#3CEEED" stroke-width="10" stroke-miterlimit="10" x1="372.7" y1="524.7" x2="372.7" y2="499.9"/>
		
			<line opacity="0.5" fill="none" stroke="#3CEEED" stroke-width="10" stroke-miterlimit="10" x1="372.7" y1="536.1" x2="372.7" y2="524.7"/>
		
			<line opacity="0.3" fill="none" stroke="#3CEEED" stroke-width="10" stroke-miterlimit="10" x1="372.7" y1="543.3" x2="372.7" y2="536.1"/>
		<line fill="none" stroke="#3CEEED" stroke-width="10" stroke-miterlimit="10" x1="446.7" y1="489.5" x2="446.7" y2="420.9"/>
		
			<line opacity="0.7" fill="none" stroke="#3CEEED" stroke-width="10" stroke-miterlimit="10" x1="446.7" y1="516.7" x2="446.7" y2="489.5"/>
		
			<line opacity="0.5" fill="none" stroke="#3CEEED" stroke-width="10" stroke-miterlimit="10" x1="446.7" y1="536.1" x2="446.7" y2="516.7"/>
		
			<line opacity="0.3" fill="none" stroke="#3CEEED" stroke-width="10" stroke-miterlimit="10" x1="446.7" y1="552.4" x2="446.7" y2="536.1"/>
		<line fill="none" stroke="#3CEEED" stroke-width="10" stroke-miterlimit="10" x1="520.7" y1="507" x2="520.7" y2="462.6"/>
		
			<line opacity="0.7" fill="none" stroke="#3CEEED" stroke-width="10" stroke-miterlimit="10" x1="520.7" y1="526.4" x2="520.7" y2="507"/>
		
			<line opacity="0.5" fill="none" stroke="#3CEEED" stroke-width="10" stroke-miterlimit="10" x1="520.7" y1="537.1" x2="520.7" y2="526.4"/>
		
			<line opacity="0.3" fill="none" stroke="#3CEEED" stroke-width="10" stroke-miterlimit="10" x1="520.7" y1="556.8" x2="520.7" y2="537.1"/>
		<line fill="none" stroke="#3CEEED" stroke-width="10" stroke-miterlimit="10" x1="594.7" y1="495.7" x2="594.7" y2="458.5"/>
		
			<line opacity="0.7" fill="none" stroke="#3CEEED" stroke-width="10" stroke-miterlimit="10" x1="594.7" y1="512.3" x2="594.7" y2="495.7"/>
		
			<line opacity="0.5" fill="none" stroke="#3CEEED" stroke-width="10" stroke-miterlimit="10" x1="594.7" y1="525.7" x2="594.7" y2="512.3"/>
		
			<line opacity="0.3" fill="none" stroke="#3CEEED" stroke-width="10" stroke-miterlimit="10" x1="594.7" y1="543.3" x2="594.7" y2="525.7"/>
		<line fill="none" stroke="#3CEEED" stroke-width="10" stroke-miterlimit="10" x1="668.7" y1="488.7" x2="668.7" y2="462.8"/>
		
			<line opacity="0.7" fill="none" stroke="#3CEEED" stroke-width="10" stroke-miterlimit="10" x1="668.7" y1="525.3" x2="668.7" y2="488.7"/>
		
			<line opacity="0.5" fill="none" stroke="#3CEEED" stroke-width="10" stroke-miterlimit="10" x1="668.7" y1="533.5" x2="668.7" y2="525.3"/>
		
			<line opacity="0.3" fill="none" stroke="#3CEEED" stroke-width="10" stroke-miterlimit="10" x1="668.7" y1="549" x2="668.7" y2="533.5"/>
		<line fill="none" stroke="#3CEEED" stroke-width="10" stroke-miterlimit="10" x1="742.7" y1="488.7" x2="742.7" y2="450.2"/>
		
			<line opacity="0.7" fill="none" stroke="#3CEEED" stroke-width="10" stroke-miterlimit="10" x1="742.7" y1="512.3" x2="742.7" y2="488.7"/>
		
			<line opacity="0.5" fill="none" stroke="#3CEEED" stroke-width="10" stroke-miterlimit="10" x1="742.7" y1="526.8" x2="742.7" y2="512.3"/>
		
			<line opacity="0.3" fill="none" stroke="#3CEEED" stroke-width="10" stroke-miterlimit="10" x1="742.7" y1="558.8" x2="742.7" y2="526.8"/>
		<line fill="none" stroke="#3CEEED" stroke-width="10" stroke-miterlimit="10" x1="816.7" y1="497.3" x2="816.7" y2="488"/>
		
			<line opacity="0.7" fill="none" stroke="#3CEEED" stroke-width="10" stroke-miterlimit="10" x1="816.7" y1="515.8" x2="816.7" y2="497.3"/>
		
			<line opacity="0.5" fill="none" stroke="#3CEEED" stroke-width="10" stroke-miterlimit="10" x1="816.7" y1="525.3" x2="816.7" y2="515.8"/>
		
			<line opacity="0.3" fill="none" stroke="#3CEEED" stroke-width="10" stroke-miterlimit="10" x1="816.7" y1="552.8" x2="816.7" y2="525.3"/>
		<line fill="none" stroke="#3CEEED" stroke-width="10" stroke-miterlimit="10" x1="890.7" y1="499.9" x2="890.7" y2="450.2"/>
		
			<line opacity="0.7" fill="none" stroke="#3CEEED" stroke-width="10" stroke-miterlimit="10" x1="890.7" y1="530.9" x2="890.7" y2="499.9"/>
		
			<line opacity="0.5" fill="none" stroke="#3CEEED" stroke-width="10" stroke-miterlimit="10" x1="890.7" y1="539.2" x2="890.7" y2="530.9"/>
		
			<line opacity="0.3" fill="none" stroke="#3CEEED" stroke-width="10" stroke-miterlimit="10" x1="890.7" y1="560.4" x2="890.7" y2="539.2"/>
		<line fill="none" stroke="#3CEEED" stroke-width="10" stroke-miterlimit="10" x1="964.7" y1="506.5" x2="964.7" y2="453.3"/>
		
			<line opacity="0.7" fill="none" stroke="#3CEEED" stroke-width="10" stroke-miterlimit="10" x1="964.7" y1="532.4" x2="964.7" y2="506.5"/>
		
			<line opacity="0.5" fill="none" stroke="#3CEEED" stroke-width="10" stroke-miterlimit="10" x1="964.7" y1="552.4" x2="964.7" y2="532.4"/>
		
			<line opacity="0.3" fill="none" stroke="#3CEEED" stroke-width="10" stroke-miterlimit="10" x1="964.7" y1="560.9" x2="964.7" y2="552.4"/>
		<line fill="none" stroke="#3CEEED" stroke-width="10" stroke-miterlimit="10" x1="1038.7" y1="488.6" x2="1038.7" y2="450.2"/>
		
			<line opacity="0.7" fill="none" stroke="#3CEEED" stroke-width="10" stroke-miterlimit="10" x1="1038.7" y1="524.7" x2="1038.7" y2="488.6"/>
		
			<line opacity="0.5" fill="none" stroke="#3CEEED" stroke-width="10" stroke-miterlimit="10" x1="1038.7" y1="532.4" x2="1038.7" y2="524.7"/>
		
			<line opacity="0.3" fill="none" stroke="#3CEEED" stroke-width="10" stroke-miterlimit="10" x1="1038.7" y1="555.7" x2="1038.7" y2="532.4"/>
		<line fill="none" stroke="#3CEEED" stroke-width="10" stroke-miterlimit="10" x1="1112.7" y1="488.6" x2="1112.7" y2="458.5"/>
		
			<line opacity="0.7" fill="none" stroke="#3CEEED" stroke-width="10" stroke-miterlimit="10" x1="1112.7" y1="520.5" x2="1112.7" y2="488.6"/>
		
			<line opacity="0.5" fill="none" stroke="#3CEEED" stroke-width="10" stroke-miterlimit="10" x1="1112.7" y1="530.9" x2="1112.7" y2="520.5"/>
		
			<line opacity="0.3" fill="none" stroke="#3CEEED" stroke-width="10" stroke-miterlimit="10" x1="1112.7" y1="549.5" x2="1112.7" y2="530.9"/>
		<line fill="none" stroke="#3CEEED" stroke-width="10" stroke-miterlimit="10" x1="1186.7" y1="505.5" x2="1186.7" y2="468.8"/>
		
			<line opacity="0.7" fill="none" stroke="#3CEEED" stroke-width="10" stroke-miterlimit="10" x1="1186.7" y1="535.3" x2="1186.7" y2="505.5"/>
		
			<line opacity="0.5" fill="none" stroke="#3CEEED" stroke-width="10" stroke-miterlimit="10" x1="1186.7" y1="546.4" x2="1186.7" y2="535.3"/>
		
			<line opacity="0.3" fill="none" stroke="#3CEEED" stroke-width="10" stroke-miterlimit="10" x1="1186.7" y1="558.8" x2="1186.7" y2="546.4"/>
		<line fill="none" stroke="#3CEEED" stroke-width="10" stroke-miterlimit="10" x1="1260.7" y1="517.9" x2="1260.7" y2="510.2"/>
		
			<line opacity="0.7" fill="none" stroke="#3CEEED" stroke-width="10" stroke-miterlimit="10" x1="1260.7" y1="528.1" x2="1260.7" y2="517.9"/>
		
			<line opacity="0.5" fill="none" stroke="#3CEEED" stroke-width="10" stroke-miterlimit="10" x1="1260.7" y1="551.8" x2="1260.7" y2="528.1"/>
		
			<line opacity="0.3" fill="none" stroke="#3CEEED" stroke-width="10" stroke-miterlimit="10" x1="1260.7" y1="560.4" x2="1260.7" y2="551.8"/>
		<g transform="translate(0,0)">
			<g transform="translate(0,309.31034482758616)">
				<text transform="matrix(1 0 0 1 340.8187 202.73)" fill="#373737" font-family="'SourceSansPro-Regular'" font-size="10px">0.5</text>
				<text transform="matrix(1 0 0 1 340.8187 252.5792)" fill="#373737" font-family="'SourceSansPro-Regular'" font-size="10px">0.0</text>
			</g>
			<g transform="translate(0,257.58620689655174)">
				<text transform="matrix(1 0 0 1 340.8187 202.73)" fill="#373737" font-family="'SourceSansPro-Regular'" font-size="10px">1.0</text>
			</g>
			<g transform="translate(0,205.86206896551727)">
				<text transform="matrix(1 0 0 1 340.8187 202.73)" fill="#373737" font-family="'SourceSansPro-Regular'" font-size="10px">1.5</text>
			</g>
			<g transform="translate(0,154.1379310344828)">
				<text transform="matrix(1 0 0 1 340.8187 202.73)" fill="#373737" font-family="'SourceSansPro-Regular'" font-size="10px">2.0</text>
			</g>
			<g transform="translate(0,102.41379310344828)">
				<text transform="matrix(1 0 0 1 340.8187 202.73)" fill="#373737" font-family="'SourceSansPro-Regular'" font-size="10px">2.5</text>
			</g>
			<g transform="translate(0,50.689655172413794)">
				<text transform="matrix(1 0 0 1 340.8187 202.73)" fill="#373737" font-family="'SourceSansPro-Regular'" font-size="10px">3.0</text>
			</g>
		</g>
		<line fill="#FFFFFF" stroke="#000000" stroke-miterlimit="10" x1="361.3" y1="524.7" x2="384" y2="524.7"/>
		<line fill="#FFFFFF" stroke="#000000" stroke-miterlimit="10" x1="435.3" y1="516.2" x2="458" y2="516.2"/>
		<line fill="#FFFFFF" stroke="#000000" stroke-miterlimit="10" x1="509.3" y1="526.4" x2="532" y2="526.4"/>
		<line fill="#FFFFFF" stroke="#000000" stroke-miterlimit="10" x1="583.3" y1="512.3" x2="606" y2="512.3"/>
		<line fill="#FFFFFF" stroke="#000000" stroke-miterlimit="10" x1="657.3" y1="525.3" x2="680" y2="525.3"/>
		<line fill="#FFFFFF" stroke="#000000" stroke-miterlimit="10" x1="731.3" y1="511.5" x2="754" y2="511.5"/>
		<line fill="#FFFFFF" stroke="#000000" stroke-miterlimit="10" x1="805.3" y1="515.8" x2="828" y2="515.8"/>
		<line fill="#FFFFFF" stroke="#000000" stroke-miterlimit="10" x1="879.3" y1="530.9" x2="902" y2="530.9"/>
		<line fill="#FFFFFF" stroke="#000000" stroke-miterlimit="10" x1="953.3" y1="532.4" x2="976" y2="532.4"/>
		<line fill="#FFFFFF" stroke="#000000" stroke-miterlimit="10" x1="1027.3" y1="524.7" x2="1050" y2="524.7"/>
		<line fill="#FFFFFF" stroke="#000000" stroke-miterlimit="10" x1="1101.3" y1="520.4" x2="1124" y2="520.4"/>
		<line fill="#FFFFFF" stroke="#000000" stroke-miterlimit="10" x1="1175.3" y1="535.3" x2="1198" y2="535.3"/>
		<line fill="#FFFFFF" stroke="#000000" stroke-miterlimit="10" x1="1249.3" y1="528.1" x2="1272" y2="528.1"/>
	</g>
</g>
</svg>
