<?xml version="1.0" encoding="utf-8"?>
<!-- Generator: Adobe Illustrator 19.2.1, SVG Export Plug-In . SVG Version: 6.00 Build 0)  -->
<svg version="1.1" id="Layer_1" xmlns="http://www.w3.org/2000/svg" xmlns:xlink="http://www.w3.org/1999/xlink" x="0px" y="0px"
	 viewBox="0 0 1140 500" style="enable-background:new 0 0 1140 500;" xml:space="preserve">
<style type="text/css">
	.st0{fill:#F4F4F4;stroke:#FDFDFD;stroke-miterlimit:10;}
	.st1{fill:#373737;}
	.st2{font-family:'SourceSansPro-Light';}
	.st3{font-size:12px;}
	.st4{font-family:'SourceSansPro-Bold';}
	.st5{fill:none;stroke:#373737;stroke-width:0.9854;}
	.st6{font-size:10px;}
	.st7{fill:none;stroke:#373737;stroke-width:10;stroke-miterlimit:10;}
	.st8{opacity:0.8;fill:none;stroke:#373737;stroke-width:10;stroke-miterlimit:10;enable-background:new    ;}
	.st9{opacity:0.5;fill:none;stroke:#373737;stroke-width:10;stroke-miterlimit:10;enable-background:new    ;}
	.st10{opacity:0.3;fill:none;stroke:#373737;stroke-width:10;stroke-miterlimit:10;enable-background:new    ;}
	.st11{fill:none;stroke:#373737;stroke-width:0.5;stroke-linejoin:round;}
	.st12{fill:none;stroke:#373737;stroke-linejoin:round;}
	.st13{fill:none;stroke:#3CEEED;stroke-miterlimit:10;}
	.st14{fill:none;stroke:#3CEEED;stroke-width:10;stroke-miterlimit:10;}
	.st15{opacity:0.7;fill:none;stroke:#3CEEED;stroke-width:10;stroke-miterlimit:10;enable-background:new    ;}
	.st16{opacity:0.5;fill:none;stroke:#3CEEED;stroke-width:10;stroke-miterlimit:10;enable-background:new    ;}
	.st17{opacity:0.3;fill:none;stroke:#3CEEED;stroke-width:10;stroke-miterlimit:10;enable-background:new    ;}
	.st18{font-family:'SourceSansPro-Regular';}
	.st19{fill:none;stroke:#000000;stroke-miterlimit:10;}
	.st20{fill:#FFFFFF;}
</style>
<g id="Layer_9">
</g>
<g id="livelli">
</g>
<g id="roba_sotto">
</g>
<g id="Layer_1_1_">
</g>
<g id="outliers">
</g>
<g id="numeri">
</g>
<g id="boxplot">
</g>
<g id="roba_di_lato">
</g>
<g>
	<g id="mediane">
		<g>
			<rect x="232.2" y="365.1" class="st0" width="900" height="50.4"/>
			<rect x="232.2" y="313.6" class="st0" width="900" height="51.5"/>
			<rect x="232.2" y="261.4" class="st0" width="900" height="52.2"/>
			<rect x="232.2" y="209.7" class="st0" width="900" height="51.7"/>
			<rect x="232.2" y="158" class="st0" width="900" height="51.7"/>
			<rect x="232.2" y="106.2" class="st0" width="900" height="51.7"/>
			<g id="mediane_1_">
				<g>
					<text transform="matrix(1 0 0 1 3.051758e-04 147.2156)" class="st1 st2 st3">outliers</text>
					<text transform="matrix(1 0 0 1 3.051758e-04 322.5171)" class="st1 st2 st3">25% of</text>
					<text transform="matrix(1 0 0 1 3.051758e-04 336.9171)" class="st1 st2 st3">reports</text>
					<text transform="matrix(1 0 0 1 1.220703e-04 381.3164)" class="st1 st2 st3">25% of</text>
					<text transform="matrix(1 0 0 1 1.220703e-04 395.7163)" class="st1 st2 st3">reports</text>
					<text transform="matrix(1 0 0 1 1.220703e-04 442.7118)" class="st1 st2 st3">year</text>
					<text transform="matrix(1 0 0 1 0 205.0164)" class="st1 st2 st3">25% of</text>
					<text transform="matrix(1 0 0 1 0 219.4165)" class="st1 st2 st3">reports</text>
					<text transform="matrix(1 0 0 1 -1.831055e-04 263.7668)" class="st1 st2 st3">25% of</text>
					<text transform="matrix(1 0 0 1 -1.831055e-04 278.1667)" class="st1 st2 st3">reports</text>
					<text transform="matrix(1 0 0 1 3.051758e-04 96.9529)" class="st1 st4 st3">LEGEND</text>
					<text transform="matrix(1 0 0 1 0 300.3522)" class="st1 st2 st3">median</text>
					<g>
						<text transform="matrix(1 0 0 1 -1.220703e-04 481.5553)" class="st1 st2 st3">n° of</text>
						<text transform="matrix(1 0 0 1 -1.220703e-04 495.9553)" class="st1 st2 st3">reports</text>
					</g>
					<circle class="st5" cx="100.3" cy="464.7" r="5.6"/>
					<text transform="matrix(1 0 0 1 91.0204 442.169)" class="st1 st2 st6">2000</text>
					<line class="st7" x1="100.3" y1="238.4" x2="100.3" y2="179.6"/>
					<line class="st7" x1="100.3" y1="238.4" x2="100.3" y2="179.6"/>
					<line class="st8" x1="100.3" y1="297.1" x2="100.3" y2="238.4"/>
					<line class="st7" x1="100.3" y1="238.4" x2="100.3" y2="179.6"/>
					<line class="st9" x1="100.3" y1="355.9" x2="100.3" y2="297.1"/>
					<line class="st10" x1="100.3" y1="414.7" x2="100.3" y2="355.9"/>
					<line class="st11" x1="88.3" y1="297.1" x2="112.3" y2="297.1"/>
					<text transform="matrix(1 0 0 1 97.7964 496.1699)" class="st1 st4 st6">4</text>
					<line class="st11" x1="102.3" y1="146.8" x2="98.3" y2="142.8"/>
					<line class="st11" x1="102.3" y1="142.8" x2="98.3" y2="146.8"/>
					<g>
						<g>
							<line class="st11" x1="73.8" y1="144.8" x2="53.6" y2="144.8"/>
							<g>
								<polygon class="st1" points="72.1,142.7 71.8,143.1 73.6,144.8 71.8,146.4 72.1,146.8 74.3,144.8 								"/>
							</g>
						</g>
					</g>
					<g>
						<g>
							<line class="st11" x1="73.8" y1="209" x2="53.6" y2="209"/>
							<g>
								<polygon class="st1" points="72.1,206.9 71.8,207.3 73.6,209 71.8,210.6 72.1,211 74.3,209 								"/>
							</g>
						</g>
					</g>
					<g>
						<g>
							<line class="st11" x1="73.8" y1="268.5" x2="53.6" y2="268.5"/>
							<g>
								<polygon class="st1" points="72.1,266.5 71.8,266.8 73.6,268.5 71.8,270.2 72.1,270.6 74.3,268.5 								"/>
							</g>
						</g>
					</g>
					<g>
						<g>
							<line class="st11" x1="73.8" y1="297.1" x2="53.6" y2="297.1"/>
							<g>
								<polygon class="st1" points="72.1,295 71.8,295.4 73.6,297.1 71.8,298.7 72.1,299.1 74.3,297.1 								"/>
							</g>
						</g>
					</g>
					<g>
						<g>
							<line class="st11" x1="73.8" y1="326.5" x2="53.6" y2="326.5"/>
							<g>
								<polygon class="st1" points="72.1,324.4 71.8,324.8 73.6,326.5 71.8,328.1 72.1,328.5 74.3,326.5 								"/>
							</g>
						</g>
					</g>
					<g>
						<g>
							<line class="st11" x1="73.8" y1="385.3" x2="53.6" y2="385.3"/>
							<g>
								<polygon class="st1" points="72.1,383.2 71.8,383.6 73.6,385.3 71.8,386.9 72.1,387.3 74.3,385.3 								"/>
							</g>
						</g>
					</g>
					<g>
						<g>
							<line class="st11" x1="73.8" y1="439.5" x2="53.6" y2="439.5"/>
							<g>
								<polygon class="st1" points="72.1,437.4 71.8,437.8 73.6,439.5 71.8,441.1 72.1,441.5 74.3,439.5 								"/>
							</g>
						</g>
					</g>
					<g>
						<g>
							<line class="st11" x1="73.8" y1="464.7" x2="53.6" y2="464.7"/>
							<g>
								<polygon class="st1" points="72.1,462.6 71.8,463 73.6,464.7 71.8,466.3 72.1,466.7 74.3,464.7 								"/>
							</g>
						</g>
					</g>
					<g>
						<g>
							<line class="st11" x1="73.8" y1="492.2" x2="53.6" y2="492.2"/>
							<g>
								<polygon class="st1" points="72.1,490.2 71.8,490.6 73.6,492.2 71.8,493.9 72.1,494.3 74.3,492.2 								"/>
							</g>
						</g>
					</g>
					<polyline class="st11" points="91,456.9 86.3,456.9 86.3,472.4 91,472.4 					"/>
				</g>
			</g>
			<g>
				<g>
					<g>
						<g>
							<line class="st12" x1="243.5" y1="295.2" x2="237.9" y2="289.6"/>
							<line class="st12" x1="243.5" y1="289.6" x2="237.9" y2="295.2"/>
						</g>
					</g>
				</g>
			</g>
			<g>
				<g>
					<g>
						<g>
							<line class="st12" x1="243.5" y1="88.3" x2="237.9" y2="82.7"/>
							<line class="st12" x1="243.5" y1="82.7" x2="237.9" y2="88.3"/>
						</g>
					</g>
				</g>
			</g>
			<g>
				<g>
					<g>
						<g>
							<line class="st12" x1="391.5" y1="285.9" x2="385.9" y2="280.3"/>
							<line class="st12" x1="391.5" y1="280.3" x2="385.9" y2="285.9"/>
						</g>
					</g>
				</g>
			</g>
			<g>
				<g>
					<g>
						<g>
							<line class="st12" x1="391.5" y1="274.5" x2="385.9" y2="268.9"/>
							<line class="st12" x1="391.5" y1="268.9" x2="385.9" y2="274.5"/>
						</g>
					</g>
				</g>
			</g>
			<g>
				<g>
					<g>
						<g>
							<line class="st12" x1="391.5" y1="264.2" x2="385.9" y2="258.6"/>
							<line class="st12" x1="391.5" y1="258.6" x2="385.9" y2="264.2"/>
						</g>
					</g>
				</g>
			</g>
			<g>
				<g>
					<g>
						<g>
							<line class="st12" x1="391.5" y1="253.8" x2="385.9" y2="248.2"/>
							<line class="st12" x1="391.5" y1="248.2" x2="385.9" y2="253.8"/>
						</g>
					</g>
				</g>
			</g>
			<g>
				<g>
					<g>
						<g>
							<line class="st12" x1="391.5" y1="212.4" x2="385.9" y2="206.8"/>
							<line class="st12" x1="391.5" y1="206.8" x2="385.9" y2="212.4"/>
						</g>
					</g>
				</g>
			</g>
			<g>
				<g>
					<g>
						<g>
							<line class="st12" x1="391.5" y1="212.4" x2="385.9" y2="206.8"/>
							<line class="st12" x1="391.5" y1="206.8" x2="385.9" y2="212.4"/>
						</g>
					</g>
				</g>
			</g>
			<g>
				<g>
					<g>
						<g>
							<line class="st12" x1="391.5" y1="109" x2="385.9" y2="103.4"/>
							<line class="st12" x1="391.5" y1="103.4" x2="385.9" y2="109"/>
						</g>
					</g>
				</g>
			</g>
			<g>
				<g>
					<g>
						<g>
							<line class="st12" x1="465.5" y1="296" x2="459.9" y2="290.4"/>
							<line class="st12" x1="465.5" y1="290.4" x2="459.9" y2="296"/>
						</g>
					</g>
				</g>
			</g>
			<g>
				<g>
					<g>
						<g>
							<line class="st12" x1="539.5" y1="274.5" x2="533.9" y2="268.9"/>
							<line class="st12" x1="539.5" y1="268.9" x2="533.9" y2="274.5"/>
						</g>
					</g>
				</g>
			</g>
			<g>
				<g>
					<g>
						<g>
							<line class="st12" x1="539.5" y1="212.4" x2="533.9" y2="206.8"/>
							<line class="st12" x1="539.5" y1="206.8" x2="533.9" y2="212.4"/>
						</g>
					</g>
				</g>
			</g>
			<g>
				<g>
					<g>
						<g>
							<line class="st12" x1="687.5" y1="309.2" x2="681.9" y2="303.6"/>
							<line class="st12" x1="687.5" y1="303.6" x2="681.9" y2="309.2"/>
						</g>
					</g>
				</g>
			</g>
			<g>
				<g>
					<g>
						<g>
							<line class="st12" x1="761.5" y1="295.2" x2="755.9" y2="289.6"/>
							<line class="st12" x1="761.5" y1="289.6" x2="755.9" y2="295.2"/>
						</g>
					</g>
				</g>
			</g>
			<g>
				<g>
					<g>
						<g>
							<line class="st12" x1="761.5" y1="257.9" x2="755.9" y2="252.3"/>
							<line class="st12" x1="761.5" y1="252.3" x2="755.9" y2="257.9"/>
						</g>
					</g>
				</g>
			</g>
			<g>
				<g>
					<g>
						<g>
							<line class="st12" x1="761.5" y1="212.4" x2="755.9" y2="206.8"/>
							<line class="st12" x1="761.5" y1="206.8" x2="755.9" y2="212.4"/>
						</g>
					</g>
				</g>
			</g>
			<g>
				<g>
					<g>
						<g>
							<line class="st12" x1="835.5" y1="247.6" x2="829.9" y2="242"/>
							<line class="st12" x1="835.5" y1="242" x2="829.9" y2="247.6"/>
						</g>
					</g>
				</g>
			</g>
			<g>
				<g>
					<g>
						<g>
							<line class="st12" x1="909.5" y1="171" x2="903.9" y2="165.4"/>
							<line class="st12" x1="909.5" y1="165.4" x2="903.9" y2="171"/>
						</g>
					</g>
				</g>
			</g>
			<g>
				<g>
					<g>
						<g>
							<line class="st12" x1="983.5" y1="212.4" x2="977.9" y2="206.8"/>
							<line class="st12" x1="983.5" y1="206.8" x2="977.9" y2="212.4"/>
						</g>
					</g>
				</g>
			</g>
			<g>
				<g>
					<g>
						<g>
							<line class="st12" x1="1057.5" y1="295.2" x2="1051.9" y2="289.6"/>
							<line class="st12" x1="1057.5" y1="289.6" x2="1051.9" y2="295.2"/>
						</g>
					</g>
				</g>
			</g>
			<g>
				<g>
					<g>
						<g>
							<line class="st12" x1="1057.5" y1="270.4" x2="1051.9" y2="264.8"/>
							<line class="st12" x1="1057.5" y1="264.8" x2="1051.9" y2="270.4"/>
						</g>
					</g>
				</g>
			</g>
			<g transform="translate(0,440)">
				<text transform="matrix(1 0 0 1 234.4857 55.4721)" class="st1 st4 st6">31</text>
				<text transform="matrix(1 0 0 1 308.4857 55.4721)" class="st1 st4 st6">62</text>
				<text transform="matrix(1 0 0 1 382.4857 55.4721)" class="st1 st4 st6">57</text>
				<text transform="matrix(1 0 0 1 456.4857 55.4721)" class="st1 st4 st6">42</text>
				<text transform="matrix(1 0 0 1 530.4857 55.4721)" class="st1 st4 st6">23</text>
				<text transform="matrix(1 0 0 1 607.8226 55.4721)" class="st1 st4 st6">7</text>
				<text transform="matrix(1 0 0 1 678.4857 55.4721)" class="st1 st4 st6">16</text>
				<text transform="matrix(1 0 0 1 752.4857 55.4721)" class="st1 st4 st6">65</text>
				<text transform="matrix(1 0 0 1 826.4857 55.4721)" class="st1 st4 st6">62</text>
				<text transform="matrix(1 0 0 1 900.4857 55.4721)" class="st1 st4 st6">27</text>
				<text transform="matrix(1 0 0 1 974.4857 55.4721)" class="st1 st4 st6">15</text>
				<text transform="matrix(1 0 0 1 1048.4857 55.4721)" class="st1 st4 st6">18</text>
				<text transform="matrix(1 0 0 1 1125.8226 55.4721)" class="st1 st4 st6">6</text>
			</g>
			<g transform="translate(0,410)">
				<circle class="st13" cx="240.2" cy="55.5" r="9.2"/>
				<circle class="st13" cx="314.2" cy="55.5" r="14.6"/>
				<circle class="st13" cx="388.2" cy="55.5" r="13.8"/>
				<circle class="st13" cx="462.2" cy="55.5" r="11.3"/>
				<circle class="st13" cx="536.2" cy="55.5" r="7.4"/>
				<circle class="st13" cx="610.2" cy="55.5" r="2.5"/>
				<circle class="st13" cx="684.2" cy="55.5" r="5.6"/>
				<circle class="st13" cx="758.2" cy="55.5" r="15"/>
				<circle class="st13" cx="832.2" cy="55.5" r="14.6"/>
				<circle class="st13" cx="906.2" cy="55.5" r="8.4"/>
				<circle class="st13" cx="980.2" cy="55.5" r="5.3"/>
				<circle class="st13" cx="1054.2" cy="55.5" r="6.2"/>
				<circle class="st13" cx="1128.2" cy="55.5" r="2"/>
			</g>
			<g transform="translate(0,370)">
				<g transform="translate(5.5,0)">
					<text transform="matrix(1 0 0 1 225.8119 72.9921)" class="st1 st2 st6">2000</text>
				</g>
				<g transform="translate(79.5,0)">
					<text transform="matrix(1 0 0 1 225.8119 72.9921)" class="st1 st2 st6">2001</text>
				</g>
				<g transform="translate(153.5,0)">
					<text transform="matrix(1 0 0 1 225.8119 72.9921)" class="st1 st2 st6">2002</text>
				</g>
				<g transform="translate(227.5,0)">
					<text transform="matrix(1 0 0 1 225.8119 72.9921)" class="st1 st2 st6">2003</text>
				</g>
				<g transform="translate(301.5,0)">
					<text transform="matrix(1 0 0 1 225.8119 72.9921)" class="st1 st2 st6">2004</text>
				</g>
				<g transform="translate(375.5,0)">
					<text transform="matrix(1 0 0 1 225.8119 72.9921)" class="st1 st2 st6">2005</text>
				</g>
				<g transform="translate(449.5,0)">
					<text transform="matrix(1 0 0 1 225.8119 72.9921)" class="st1 st2 st6">2006</text>
				</g>
				<g transform="translate(523.5,0)">
					<text transform="matrix(1 0 0 1 225.8119 72.9921)" class="st1 st2 st6">2007</text>
				</g>
				<g transform="translate(597.5,0)">
					<text transform="matrix(1 0 0 1 225.8119 72.9921)" class="st1 st2 st6">2008</text>
				</g>
				<g transform="translate(671.5,0)">
					<text transform="matrix(1 0 0 1 225.8119 72.9921)" class="st1 st2 st6">2009</text>
				</g>
				<g transform="translate(745.5,0)">
					<text transform="matrix(1 0 0 1 225.8119 72.9921)" class="st1 st2 st6">2010</text>
				</g>
				<g transform="translate(819.5,0)">
					<text transform="matrix(1 0 0 1 226.2572 72.9921)" class="st1 st2 st6">2011</text>
				</g>
				<g transform="translate(893.5,0)">
					<text transform="matrix(1 0 0 1 225.8119 72.9921)" class="st1 st2 st6">2012</text>
				</g>
			</g>
			<line class="st14" x1="240.7" y1="354.5" x2="240.7" y2="307.9"/>
			<line class="st15" x1="240.7" y1="379.3" x2="240.7" y2="354.5"/>
			<line class="st16" x1="240.7" y1="390.7" x2="240.7" y2="379.3"/>
			<line class="st17" x1="240.7" y1="397.9" x2="240.7" y2="390.7"/>
			<line class="st14" x1="314.7" y1="344.1" x2="314.7" y2="275.5"/>
			<line class="st15" x1="314.7" y1="371.3" x2="314.7" y2="344.1"/>
			<line class="st16" x1="314.7" y1="390.7" x2="314.7" y2="371.3"/>
			<line class="st17" x1="314.7" y1="407" x2="314.7" y2="390.7"/>
			<line class="st14" x1="388.7" y1="361.6" x2="388.7" y2="317.2"/>
			<line class="st15" x1="388.7" y1="381" x2="388.7" y2="361.6"/>
			<line class="st16" x1="388.7" y1="391.7" x2="388.7" y2="381"/>
			<line class="st17" x1="388.7" y1="411.4" x2="388.7" y2="391.7"/>
			<line class="st14" x1="462.7" y1="350.3" x2="462.7" y2="313.1"/>
			<line class="st15" x1="462.7" y1="366.9" x2="462.7" y2="350.3"/>
			<line class="st16" x1="462.7" y1="380.3" x2="462.7" y2="366.9"/>
			<line class="st17" x1="462.7" y1="397.9" x2="462.7" y2="380.3"/>
			<line class="st14" x1="536.7" y1="343.3" x2="536.7" y2="317.4"/>
			<line class="st15" x1="536.7" y1="379.9" x2="536.7" y2="343.3"/>
			<line class="st16" x1="536.7" y1="388.1" x2="536.7" y2="379.9"/>
			<line class="st17" x1="536.7" y1="403.6" x2="536.7" y2="388.1"/>
			<line class="st14" x1="610.7" y1="343.3" x2="610.7" y2="304.8"/>
			<line class="st15" x1="610.7" y1="366.9" x2="610.7" y2="343.3"/>
			<line class="st16" x1="610.7" y1="381.4" x2="610.7" y2="366.9"/>
			<line class="st17" x1="610.7" y1="413.4" x2="610.7" y2="381.4"/>
			<line class="st14" x1="684.7" y1="351.9" x2="684.7" y2="342.6"/>
			<line class="st15" x1="684.7" y1="370.4" x2="684.7" y2="351.9"/>
			<line class="st16" x1="684.7" y1="379.9" x2="684.7" y2="370.4"/>
			<line class="st17" x1="684.7" y1="407.4" x2="684.7" y2="379.9"/>
			<line class="st14" x1="758.7" y1="354.5" x2="758.7" y2="304.8"/>
			<line class="st15" x1="758.7" y1="385.5" x2="758.7" y2="354.5"/>
			<line class="st16" x1="758.7" y1="393.8" x2="758.7" y2="385.5"/>
			<line class="st17" x1="758.7" y1="415" x2="758.7" y2="393.8"/>
			<line class="st14" x1="832.7" y1="361.1" x2="832.7" y2="307.9"/>
			<line class="st15" x1="832.7" y1="387" x2="832.7" y2="361.1"/>
			<line class="st16" x1="832.7" y1="407" x2="832.7" y2="387"/>
			<line class="st17" x1="832.7" y1="415.5" x2="832.7" y2="407"/>
			<line class="st14" x1="906.7" y1="343.2" x2="906.7" y2="304.8"/>
			<line class="st15" x1="906.7" y1="379.3" x2="906.7" y2="343.2"/>
			<line class="st16" x1="906.7" y1="387" x2="906.7" y2="379.3"/>
			<line class="st17" x1="906.7" y1="410.3" x2="906.7" y2="387"/>
			<line class="st14" x1="980.7" y1="343.2" x2="980.7" y2="313.1"/>
			<line class="st15" x1="980.7" y1="375.1" x2="980.7" y2="343.2"/>
			<line class="st16" x1="980.7" y1="385.5" x2="980.7" y2="375.1"/>
			<line class="st17" x1="980.7" y1="404.1" x2="980.7" y2="385.5"/>
			<line class="st14" x1="1054.7" y1="360.1" x2="1054.7" y2="323.4"/>
			<line class="st15" x1="1054.7" y1="389.9" x2="1054.7" y2="360.1"/>
			<line class="st16" x1="1054.7" y1="401" x2="1054.7" y2="389.9"/>
			<line class="st17" x1="1054.7" y1="413.4" x2="1054.7" y2="401"/>
			<line class="st14" x1="1128.7" y1="372.5" x2="1128.7" y2="364.8"/>
			<line class="st15" x1="1128.7" y1="382.7" x2="1128.7" y2="372.5"/>
			<line class="st16" x1="1128.7" y1="406.4" x2="1128.7" y2="382.7"/>
			<line class="st17" x1="1128.7" y1="415" x2="1128.7" y2="406.4"/>
			<g transform="translate(0,0)">
				<g transform="translate(0,309.31034482758616)">
					<text transform="matrix(1 0 0 1 208.8187 57.312)" class="st1 st18 st6">0.5</text>
					<text transform="matrix(1 0 0 1 208.8187 107.1613)" class="st1 st18 st6">0.0</text>
				</g>
				<g transform="translate(0,257.58620689655174)">
					<text transform="matrix(1 0 0 1 208.8187 57.312)" class="st1 st18 st6">1.0</text>
				</g>
				<g transform="translate(0,205.86206896551727)">
					<text transform="matrix(1 0 0 1 208.8187 57.3121)" class="st1 st18 st6">1.5</text>
				</g>
				<g transform="translate(0,154.1379310344828)">
					<text transform="matrix(1 0 0 1 208.8187 57.3121)" class="st1 st18 st6">2.0</text>
				</g>
				<g transform="translate(0,102.41379310344828)">
					<text transform="matrix(1 0 0 1 208.8187 57.3121)" class="st1 st18 st6">2.5</text>
				</g>
				<g transform="translate(0,50.689655172413794)">
					<text transform="matrix(1 0 0 1 208.8187 57.3121)" class="st1 st18 st6">3.0</text>
				</g>
			</g>
			<line class="st19" x1="229.3" y1="379.3" x2="252" y2="379.3"/>
			<line class="st19" x1="303.3" y1="370.8" x2="326" y2="370.8"/>
			<line class="st19" x1="377.3" y1="381" x2="400" y2="381"/>
			<line class="st19" x1="451.3" y1="366.9" x2="474" y2="366.9"/>
			<line class="st19" x1="525.3" y1="379.9" x2="548" y2="379.9"/>
			<line class="st19" x1="599.3" y1="366.1" x2="622" y2="366.1"/>
			<line class="st19" x1="673.3" y1="370.4" x2="696" y2="370.4"/>
			<line class="st19" x1="747.3" y1="385.5" x2="770" y2="385.5"/>
			<line class="st19" x1="821.3" y1="387" x2="844" y2="387"/>
			<line class="st19" x1="895.3" y1="379.3" x2="918" y2="379.3"/>
			<line class="st19" x1="969.3" y1="375" x2="992" y2="375"/>
			<line class="st19" x1="1043.3" y1="389.9" x2="1066" y2="389.9"/>
			<line class="st19" x1="1117.3" y1="382.7" x2="1140" y2="382.7"/>
		</g>
	</g>
	<g>
		<g>
			<g>
				<line class="st11" x1="151.5" y1="413" x2="151.5" y2="103.1"/>
				<g>
					<polygon class="st1" points="153.5,104.8 153.2,105.1 151.5,103.3 149.8,105.1 149.5,104.8 151.5,102.6 					"/>
				</g>
			</g>
		</g>
		<g>
			<rect x="123.3" y="230.6" class="st20" width="60.7" height="39.7"/>
			<g>
				<text transform="matrix(1 0 0 1 135 244.8614)" class="st1 st2 st3">dosage</text>
				<text transform="matrix(1 0 0 1 135 259.2614)" class="st1 st2 st3">(grams)</text>
			</g>
		</g>
	</g>
</g>
</svg>
