<?xml version="1.0" encoding="utf-8"?>
<!-- Generator: Adobe Illustrator 19.1.0, SVG Export Plug-In . SVG Version: 6.00 Build 0)  -->
<svg version="1.1" xmlns="http://www.w3.org/2000/svg" xmlns:xlink="http://www.w3.org/1999/xlink" x="0px" y="0px"
	 viewBox="132 170.9 1140 500" style="enable-background:new 132 170.9 1140 500;" xml:space="preserve">
<style type="text/css">
	.st0{opacity:3.000000e-02;}
	.st1{opacity:7.500000e-02;}
	.st2{opacity:0.11;}
	.st3{opacity:0.14;}
	.st4{opacity:0.18;}
	.st5{opacity:0.22;}
	.st6{fill:none;stroke:#373737;stroke-linejoin:round;}
	.st7{fill:#373737;}
	.st8{font-family:'SourceSansPro-Bold';}
	.st9{font-size:10px;}
	.st10{fill:none;stroke:#3CEEED;stroke-miterlimit:10;}
	.st11{font-family:'SourceSansPro-Light';}
	.st12{fill:none;stroke:#3CEEED;stroke-width:10;stroke-miterlimit:10;}
	.st13{opacity:0.7;fill:none;stroke:#3CEEED;stroke-width:10;stroke-miterlimit:10;}
	.st14{opacity:0.5;fill:none;stroke:#3CEEED;stroke-width:10;stroke-miterlimit:10;}
	.st15{opacity:0.3;fill:none;stroke:#3CEEED;stroke-width:10;stroke-miterlimit:10;}
	.st16{font-family:'SourceSansPro-Regular';}
	.st17{fill:#FFFFFF;stroke:#000000;stroke-miterlimit:10;}
	.st18{font-size:12px;}
	.st19{enable-background:new    ;}
	.st20{fill:none;stroke:#373737;stroke-width:0.9854;}
	.st21{fill:none;stroke:#373737;stroke-width:10;stroke-miterlimit:10;}
	.st22{opacity:0.8;fill:none;stroke:#373737;stroke-width:10;stroke-miterlimit:10;enable-background:new    ;}
	.st23{opacity:0.5;fill:none;stroke:#373737;stroke-width:10;stroke-miterlimit:10;enable-background:new    ;}
	.st24{opacity:0.3;fill:none;stroke:#373737;stroke-width:10;stroke-miterlimit:10;enable-background:new    ;}
	.st25{fill:none;stroke:#373737;stroke-width:0.5;stroke-linejoin:round;}
</style>
<g id="livelli">
</g>
<g id="roba_sotto">
</g>
<g id="Layer_1">
	<defs  xmlns="http://www.w3.org/1999/xhtml">
		<style  type="text/css">
			<![CDATA[
body { font-family: 'Helvetica Neue', Helvetica, Arial, sans-serif; }
.box { font-size: 10px; }
.box line, .box rect, .box circle { fill: rgb(255, 255, 255); stroke: rgb(0, 0, 0); stroke-width: 1.5px; }
.box .center { stroke-dasharray: 3px, 3px; }
.box .outlier { fill: none; stroke: rgb(204, 204, 204); }
.axis { font-size: 12px; }
.axis path, .axis line { fill: none; stroke: rgb(0, 0, 0); shape-rendering: crispEdges; }
.x.axis path { fill: none; stroke: rgb(0, 0, 0); shape-rendering: crispEdges; }
				]]>
		</style>
	</defs>
</g>
<g id="outliers">
</g>
<g id="numeri">
</g>
<g id="boxplot">
</g>
<g id="roba_di_lato">
</g>
<g id="mediane">
	<g>
		<rect x="364.2" y="510.5" class="st0" width="900" height="50.4"/>
		<rect x="364.2" y="459" class="st1" width="900" height="51.5"/>
		<rect x="364.2" y="406.8" class="st2" width="900" height="52.2"/>
		<rect x="364.2" y="355.1" class="st3" width="900" height="51.7"/>
		<rect x="364.2" y="303.4" class="st4" width="900" height="51.7"/>
		<rect x="364.2" y="251.6" class="st5" width="900" height="51.7"/>
		<g>
			<g>
				<g>
					<g>
						<line class="st6" x1="375.5" y1="440.6" x2="369.9" y2="435"/>
						<line class="st6" x1="375.5" y1="435" x2="369.9" y2="440.6"/>
					</g>
				</g>
			</g>
		</g>
		<g>
			<g>
				<g>
					<g>
						<line class="st6" x1="375.5" y1="233.7" x2="369.9" y2="228.1"/>
						<line class="st6" x1="375.5" y1="228.1" x2="369.9" y2="233.7"/>
					</g>
				</g>
			</g>
		</g>
		<g>
			<g>
				<g>
					<g>
						<line class="st6" x1="523.5" y1="431.3" x2="517.9" y2="425.7"/>
						<line class="st6" x1="523.5" y1="425.7" x2="517.9" y2="431.3"/>
					</g>
				</g>
			</g>
		</g>
		<g>
			<g>
				<g>
					<g>
						<line class="st6" x1="523.5" y1="419.9" x2="517.9" y2="414.3"/>
						<line class="st6" x1="523.5" y1="414.3" x2="517.9" y2="419.9"/>
					</g>
				</g>
			</g>
		</g>
		<g>
			<g>
				<g>
					<g>
						<line class="st6" x1="523.5" y1="409.6" x2="517.9" y2="404"/>
						<line class="st6" x1="523.5" y1="404" x2="517.9" y2="409.6"/>
					</g>
				</g>
			</g>
		</g>
		<g>
			<g>
				<g>
					<g>
						<line class="st6" x1="523.5" y1="399.2" x2="517.9" y2="393.6"/>
						<line class="st6" x1="523.5" y1="393.6" x2="517.9" y2="399.2"/>
					</g>
				</g>
			</g>
		</g>
		<g>
			<g>
				<g>
					<g>
						<line class="st6" x1="523.5" y1="357.8" x2="517.9" y2="352.2"/>
						<line class="st6" x1="523.5" y1="352.2" x2="517.9" y2="357.8"/>
					</g>
				</g>
			</g>
		</g>
		<g>
			<g>
				<g>
					<g>
						<line class="st6" x1="523.5" y1="357.8" x2="517.9" y2="352.2"/>
						<line class="st6" x1="523.5" y1="352.2" x2="517.9" y2="357.8"/>
					</g>
				</g>
			</g>
		</g>
		<g>
			<g>
				<g>
					<g>
						<line class="st6" x1="523.5" y1="254.4" x2="517.9" y2="248.8"/>
						<line class="st6" x1="523.5" y1="248.8" x2="517.9" y2="254.4"/>
					</g>
				</g>
			</g>
		</g>
		<g>
			<g>
				<g>
					<g>
						<line class="st6" x1="597.5" y1="441.4" x2="591.9" y2="435.8"/>
						<line class="st6" x1="597.5" y1="435.8" x2="591.9" y2="441.4"/>
					</g>
				</g>
			</g>
		</g>
		<g>
			<g>
				<g>
					<g>
						<line class="st6" x1="671.5" y1="419.9" x2="665.9" y2="414.3"/>
						<line class="st6" x1="671.5" y1="414.3" x2="665.9" y2="419.9"/>
					</g>
				</g>
			</g>
		</g>
		<g>
			<g>
				<g>
					<g>
						<line class="st6" x1="671.5" y1="357.8" x2="665.9" y2="352.2"/>
						<line class="st6" x1="671.5" y1="352.2" x2="665.9" y2="357.8"/>
					</g>
				</g>
			</g>
		</g>
		<g>
			<g>
				<g>
					<g>
						<line class="st6" x1="819.5" y1="454.6" x2="813.9" y2="449"/>
						<line class="st6" x1="819.5" y1="449" x2="813.9" y2="454.6"/>
					</g>
				</g>
			</g>
		</g>
		<g>
			<g>
				<g>
					<g>
						<line class="st6" x1="893.5" y1="440.6" x2="887.9" y2="435"/>
						<line class="st6" x1="893.5" y1="435" x2="887.9" y2="440.6"/>
					</g>
				</g>
			</g>
		</g>
		<g>
			<g>
				<g>
					<g>
						<line class="st6" x1="893.5" y1="403.3" x2="887.9" y2="397.7"/>
						<line class="st6" x1="893.5" y1="397.7" x2="887.9" y2="403.3"/>
					</g>
				</g>
			</g>
		</g>
		<g>
			<g>
				<g>
					<g>
						<line class="st6" x1="893.5" y1="357.8" x2="887.9" y2="352.2"/>
						<line class="st6" x1="893.5" y1="352.2" x2="887.9" y2="357.8"/>
					</g>
				</g>
			</g>
		</g>
		<g>
			<g>
				<g>
					<g>
						<line class="st6" x1="967.5" y1="393" x2="961.9" y2="387.4"/>
						<line class="st6" x1="967.5" y1="387.4" x2="961.9" y2="393"/>
					</g>
				</g>
			</g>
		</g>
		<g>
			<g>
				<g>
					<g>
						<line class="st6" x1="1041.5" y1="316.4" x2="1035.9" y2="310.8"/>
						<line class="st6" x1="1041.5" y1="310.8" x2="1035.9" y2="316.4"/>
					</g>
				</g>
			</g>
		</g>
		<g>
			<g>
				<g>
					<g>
						<line class="st6" x1="1115.5" y1="357.8" x2="1109.9" y2="352.2"/>
						<line class="st6" x1="1115.5" y1="352.2" x2="1109.9" y2="357.8"/>
					</g>
				</g>
			</g>
		</g>
		<g>
			<g>
				<g>
					<g>
						<line class="st6" x1="1189.5" y1="440.6" x2="1183.9" y2="435"/>
						<line class="st6" x1="1189.5" y1="435" x2="1183.9" y2="440.6"/>
					</g>
				</g>
			</g>
		</g>
		<g>
			<g>
				<g>
					<g>
						<line class="st6" x1="1189.5" y1="415.8" x2="1183.9" y2="410.2"/>
						<line class="st6" x1="1189.5" y1="410.2" x2="1183.9" y2="415.8"/>
					</g>
				</g>
			</g>
		</g>
		<g transform="translate(0,440)">
			<text transform="matrix(1 0 0 1 366.4857 200.89)" class="st7 st8 st9">31</text>
			<text transform="matrix(1 0 0 1 440.4857 200.89)" class="st7 st8 st9">62</text>
			<text transform="matrix(1 0 0 1 514.4857 200.89)" class="st7 st8 st9">57</text>
			<text transform="matrix(1 0 0 1 588.4857 200.89)" class="st7 st8 st9">42</text>
			<text transform="matrix(1 0 0 1 662.4857 200.89)" class="st7 st8 st9">23</text>
			<text transform="matrix(1 0 0 1 739.8226 200.89)" class="st7 st8 st9">7</text>
			<text transform="matrix(1 0 0 1 810.4857 200.89)" class="st7 st8 st9">16</text>
			<text transform="matrix(1 0 0 1 884.4857 200.89)" class="st7 st8 st9">65</text>
			<text transform="matrix(1 0 0 1 958.4857 200.89)" class="st7 st8 st9">62</text>
			<text transform="matrix(1 0 0 1 1032.4857 200.89)" class="st7 st8 st9">27</text>
			<text transform="matrix(1 0 0 1 1106.4857 200.89)" class="st7 st8 st9">15</text>
			<text transform="matrix(1 0 0 1 1180.4857 200.89)" class="st7 st8 st9">18</text>
			<text transform="matrix(1 0 0 1 1257.8226 200.89)" class="st7 st8 st9">6</text>
		</g>
		<g transform="translate(0,410)">
			<circle class="st10" cx="372.2" cy="200.9" r="9.2"/>
			<circle class="st10" cx="446.2" cy="200.9" r="14.6"/>
			<circle class="st10" cx="520.2" cy="200.9" r="13.8"/>
			<circle class="st10" cx="594.2" cy="200.9" r="11.3"/>
			<circle class="st10" cx="668.2" cy="200.9" r="7.4"/>
			<circle class="st10" cx="742.2" cy="200.9" r="2.5"/>
			<circle class="st10" cx="816.2" cy="200.9" r="5.6"/>
			<circle class="st10" cx="890.2" cy="200.9" r="15"/>
			<circle class="st10" cx="964.2" cy="200.9" r="14.6"/>
			<circle class="st10" cx="1038.2" cy="200.9" r="8.4"/>
			<circle class="st10" cx="1112.2" cy="200.9" r="5.3"/>
			<circle class="st10" cx="1186.2" cy="200.9" r="6.2"/>
			<circle class="st10" cx="1260.2" cy="200.9" r="2"/>
		</g>
		<g transform="translate(0,370)">
			<g transform="translate(5.5,0)">
				<text transform="matrix(1 0 0 1 357.8119 218.41)" class="st7 st11 st9">2000</text>
			</g>
			<g transform="translate(79.5,0)">
				<text transform="matrix(1 0 0 1 357.8119 218.41)" class="st7 st11 st9">2001</text>
			</g>
			<g transform="translate(153.5,0)">
				<text transform="matrix(1 0 0 1 357.8119 218.41)" class="st7 st11 st9">2002</text>
			</g>
			<g transform="translate(227.5,0)">
				<text transform="matrix(1 0 0 1 357.8119 218.41)" class="st7 st11 st9">2003</text>
			</g>
			<g transform="translate(301.5,0)">
				<text transform="matrix(1 0 0 1 357.8119 218.41)" class="st7 st11 st9">2004</text>
			</g>
			<g transform="translate(375.5,0)">
				<text transform="matrix(1 0 0 1 357.8119 218.41)" class="st7 st11 st9">2005</text>
			</g>
			<g transform="translate(449.5,0)">
				<text transform="matrix(1 0 0 1 357.8119 218.41)" class="st7 st11 st9">2006</text>
			</g>
			<g transform="translate(523.5,0)">
				<text transform="matrix(1 0 0 1 357.8119 218.41)" class="st7 st11 st9">2007</text>
			</g>
			<g transform="translate(597.5,0)">
				<text transform="matrix(1 0 0 1 357.8119 218.41)" class="st7 st11 st9">2008</text>
			</g>
			<g transform="translate(671.5,0)">
				<text transform="matrix(1 0 0 1 357.8119 218.41)" class="st7 st11 st9">2009</text>
			</g>
			<g transform="translate(745.5,0)">
				<text transform="matrix(1 0 0 1 357.8119 218.41)" class="st7 st11 st9">2010</text>
			</g>
			<g transform="translate(819.5,0)">
				<text transform="matrix(1 0 0 1 358.2572 218.41)" class="st7 st11 st9">2011</text>
			</g>
			<g transform="translate(893.5,0)">
				<text transform="matrix(1 0 0 1 357.8119 218.41)" class="st7 st11 st9">2012</text>
			</g>
		</g>
		<line class="st12" x1="372.7" y1="499.9" x2="372.7" y2="453.3"/>
		<line class="st13" x1="372.7" y1="524.7" x2="372.7" y2="499.9"/>
		<line class="st14" x1="372.7" y1="536.1" x2="372.7" y2="524.7"/>
		<line class="st15" x1="372.7" y1="543.3" x2="372.7" y2="536.1"/>
		<line class="st12" x1="446.7" y1="489.5" x2="446.7" y2="420.9"/>
		<line class="st13" x1="446.7" y1="516.7" x2="446.7" y2="489.5"/>
		<line class="st14" x1="446.7" y1="536.1" x2="446.7" y2="516.7"/>
		<line class="st15" x1="446.7" y1="552.4" x2="446.7" y2="536.1"/>
		<line class="st12" x1="520.7" y1="507" x2="520.7" y2="462.6"/>
		<line class="st13" x1="520.7" y1="526.4" x2="520.7" y2="507"/>
		<line class="st14" x1="520.7" y1="537.1" x2="520.7" y2="526.4"/>
		<line class="st15" x1="520.7" y1="556.8" x2="520.7" y2="537.1"/>
		<line class="st12" x1="594.7" y1="495.7" x2="594.7" y2="458.5"/>
		<line class="st13" x1="594.7" y1="512.3" x2="594.7" y2="495.7"/>
		<line class="st14" x1="594.7" y1="525.7" x2="594.7" y2="512.3"/>
		<line class="st15" x1="594.7" y1="543.3" x2="594.7" y2="525.7"/>
		<line class="st12" x1="668.7" y1="488.7" x2="668.7" y2="462.8"/>
		<line class="st13" x1="668.7" y1="525.3" x2="668.7" y2="488.7"/>
		<line class="st14" x1="668.7" y1="533.5" x2="668.7" y2="525.3"/>
		<line class="st15" x1="668.7" y1="549" x2="668.7" y2="533.5"/>
		<line class="st12" x1="742.7" y1="488.7" x2="742.7" y2="450.2"/>
		<line class="st13" x1="742.7" y1="512.3" x2="742.7" y2="488.7"/>
		<line class="st14" x1="742.7" y1="526.8" x2="742.7" y2="512.3"/>
		<line class="st15" x1="742.7" y1="558.8" x2="742.7" y2="526.8"/>
		<line class="st12" x1="816.7" y1="497.3" x2="816.7" y2="488"/>
		<line class="st13" x1="816.7" y1="515.8" x2="816.7" y2="497.3"/>
		<line class="st14" x1="816.7" y1="525.3" x2="816.7" y2="515.8"/>
		<line class="st15" x1="816.7" y1="552.8" x2="816.7" y2="525.3"/>
		<line class="st12" x1="890.7" y1="499.9" x2="890.7" y2="450.2"/>
		<line class="st13" x1="890.7" y1="530.9" x2="890.7" y2="499.9"/>
		<line class="st14" x1="890.7" y1="539.2" x2="890.7" y2="530.9"/>
		<line class="st15" x1="890.7" y1="560.4" x2="890.7" y2="539.2"/>
		<line class="st12" x1="964.7" y1="506.5" x2="964.7" y2="453.3"/>
		<line class="st13" x1="964.7" y1="532.4" x2="964.7" y2="506.5"/>
		<line class="st14" x1="964.7" y1="552.4" x2="964.7" y2="532.4"/>
		<line class="st15" x1="964.7" y1="560.9" x2="964.7" y2="552.4"/>
		<line class="st12" x1="1038.7" y1="488.6" x2="1038.7" y2="450.2"/>
		<line class="st13" x1="1038.7" y1="524.7" x2="1038.7" y2="488.6"/>
		<line class="st14" x1="1038.7" y1="532.4" x2="1038.7" y2="524.7"/>
		<line class="st15" x1="1038.7" y1="555.7" x2="1038.7" y2="532.4"/>
		<line class="st12" x1="1112.7" y1="488.6" x2="1112.7" y2="458.5"/>
		<line class="st13" x1="1112.7" y1="520.5" x2="1112.7" y2="488.6"/>
		<line class="st14" x1="1112.7" y1="530.9" x2="1112.7" y2="520.5"/>
		<line class="st15" x1="1112.7" y1="549.5" x2="1112.7" y2="530.9"/>
		<line class="st12" x1="1186.7" y1="505.5" x2="1186.7" y2="468.8"/>
		<line class="st13" x1="1186.7" y1="535.3" x2="1186.7" y2="505.5"/>
		<line class="st14" x1="1186.7" y1="546.4" x2="1186.7" y2="535.3"/>
		<line class="st15" x1="1186.7" y1="558.8" x2="1186.7" y2="546.4"/>
		<line class="st12" x1="1260.7" y1="517.9" x2="1260.7" y2="510.2"/>
		<line class="st13" x1="1260.7" y1="528.1" x2="1260.7" y2="517.9"/>
		<line class="st14" x1="1260.7" y1="551.8" x2="1260.7" y2="528.1"/>
		<line class="st15" x1="1260.7" y1="560.4" x2="1260.7" y2="551.8"/>
		<g transform="translate(0,0)">
			<g transform="translate(0,309.31034482758616)">
				<text transform="matrix(1 0 0 1 340.8187 202.73)" class="st7 st16 st9">0.5</text>
				<text transform="matrix(1 0 0 1 340.8187 252.5792)" class="st7 st16 st9">0.0</text>
			</g>
			<g transform="translate(0,257.58620689655174)">
				<text transform="matrix(1 0 0 1 340.8187 202.73)" class="st7 st16 st9">1.0</text>
			</g>
			<g transform="translate(0,205.86206896551727)">
				<text transform="matrix(1 0 0 1 340.8187 202.73)" class="st7 st16 st9">1.5</text>
			</g>
			<g transform="translate(0,154.1379310344828)">
				<text transform="matrix(1 0 0 1 340.8187 202.73)" class="st7 st16 st9">2.0</text>
			</g>
			<g transform="translate(0,102.41379310344828)">
				<text transform="matrix(1 0 0 1 340.8187 202.73)" class="st7 st16 st9">2.5</text>
			</g>
			<g transform="translate(0,50.689655172413794)">
				<text transform="matrix(1 0 0 1 340.8187 202.73)" class="st7 st16 st9">3.0</text>
			</g>
		</g>
		<line class="st17" x1="361.3" y1="524.7" x2="384" y2="524.7"/>
		<line class="st17" x1="435.3" y1="516.2" x2="458" y2="516.2"/>
		<line class="st17" x1="509.3" y1="526.4" x2="532" y2="526.4"/>
		<line class="st17" x1="583.3" y1="512.3" x2="606" y2="512.3"/>
		<line class="st17" x1="657.3" y1="525.3" x2="680" y2="525.3"/>
		<line class="st17" x1="731.3" y1="511.5" x2="754" y2="511.5"/>
		<line class="st17" x1="805.3" y1="515.8" x2="828" y2="515.8"/>
		<line class="st17" x1="879.3" y1="530.9" x2="902" y2="530.9"/>
		<line class="st17" x1="953.3" y1="532.4" x2="976" y2="532.4"/>
		<line class="st17" x1="1027.3" y1="524.7" x2="1050" y2="524.7"/>
		<line class="st17" x1="1101.3" y1="520.4" x2="1124" y2="520.4"/>
		<line class="st17" x1="1175.3" y1="535.3" x2="1198" y2="535.3"/>
		<line class="st17" x1="1249.3" y1="528.1" x2="1272" y2="528.1"/>
	</g>
	<g>
		<text transform="matrix(1 0 0 1 136.7 291.5166)" class="st7 st11 st18">outliers</text>
		<text transform="matrix(1 0 0 1 136.7 466.818)" class="st19"><tspan x="0" y="0" class="st7 st11 st18">25% of</tspan><tspan x="0" y="14.4" class="st7 st11 st18">reports</tspan></text>
		<text transform="matrix(1 0 0 1 136.6998 525.6174)" class="st19"><tspan x="0" y="0" class="st7 st11 st18">25% of</tspan><tspan x="0" y="14.4" class="st7 st11 st18">reports</tspan></text>
		<text transform="matrix(1 0 0 1 136.6998 587.0127)" class="st7 st11 st18">year</text>
		<text transform="matrix(1 0 0 1 136.6997 349.3174)" class="st19"><tspan x="0" y="0" class="st7 st11 st18">25% of</tspan><tspan x="0" y="14.4" class="st7 st11 st18">reports</tspan></text>
		<text transform="matrix(1 0 0 1 136.6995 408.0677)" class="st19"><tspan x="0" y="0" class="st7 st11 st18">25% of</tspan><tspan x="0" y="14.4" class="st7 st11 st18">reports</tspan></text>
		<text transform="matrix(1 0 0 1 136.7 241.2538)" class="st7 st8 st18">LEGEND</text>
		<text transform="matrix(1 0 0 1 136.6997 444.6531)" class="st7 st11 st18">median</text>
		<g>
			<text transform="matrix(1 0 0 1 140.1996 625.8562)" class="st19"><tspan x="0" y="0" class="st7 st11 st18">n° of</tspan><tspan x="0" y="14.4" class="st7 st11 st18">reports</tspan></text>
		</g>
		<circle class="st20" cx="237" cy="609" r="5.6"/>
		<text transform="matrix(1 0 0 1 227.7201 586.4699)" class="st7 st11 st9">2000</text>
		<line class="st21" x1="237" y1="382.7" x2="237" y2="323.9"/>
		<line class="st21" x1="237" y1="382.7" x2="237" y2="323.9"/>
		<line class="st22" x1="237" y1="441.4" x2="237" y2="382.7"/>
		<line class="st21" x1="237" y1="382.7" x2="237" y2="323.9"/>
		<line class="st23" x1="237" y1="500.2" x2="237" y2="441.4"/>
		<line class="st24" x1="237" y1="559" x2="237" y2="500.2"/>
		<line class="st25" x1="225" y1="441.4" x2="249" y2="441.4"/>
		<text transform="matrix(1 0 0 1 234.4961 640.4708)" class="st7 st8 st9">4</text>
		<line class="st25" x1="239" y1="291.1" x2="235" y2="287.1"/>
		<line class="st25" x1="239" y1="287.1" x2="235" y2="291.1"/>
		<g>
			<g>
				<line class="st25" x1="210.5" y1="289.1" x2="190.3" y2="289.1"/>
				<g>
					<polygon class="st7" points="208.8,287 208.5,287.4 210.3,289.1 208.5,290.7 208.8,291.1 211,289.1 					"/>
				</g>
			</g>
		</g>
		<g>
			<g>
				<line class="st25" x1="210.5" y1="353.3" x2="190.3" y2="353.3"/>
				<g>
					<polygon class="st7" points="208.8,351.2 208.5,351.6 210.3,353.3 208.5,354.9 208.8,355.3 211,353.3 					"/>
				</g>
			</g>
		</g>
		<g>
			<g>
				<line class="st25" x1="210.5" y1="412.8" x2="190.3" y2="412.8"/>
				<g>
					<polygon class="st7" points="208.8,410.8 208.5,411.1 210.3,412.8 208.5,414.5 208.8,414.9 211,412.8 					"/>
				</g>
			</g>
		</g>
		<g>
			<g>
				<line class="st25" x1="210.5" y1="441.4" x2="190.3" y2="441.4"/>
				<g>
					<polygon class="st7" points="208.8,439.3 208.5,439.7 210.3,441.4 208.5,443 208.8,443.4 211,441.4 					"/>
				</g>
			</g>
		</g>
		<g>
			<g>
				<line class="st25" x1="210.5" y1="470.8" x2="190.3" y2="470.8"/>
				<g>
					<polygon class="st7" points="208.8,468.7 208.5,469.1 210.3,470.8 208.5,472.4 208.8,472.8 211,470.8 					"/>
				</g>
			</g>
		</g>
		<g>
			<g>
				<line class="st25" x1="210.5" y1="529.6" x2="190.3" y2="529.6"/>
				<g>
					<polygon class="st7" points="208.8,527.5 208.5,527.9 210.3,529.6 208.5,531.2 208.8,531.6 211,529.6 					"/>
				</g>
			</g>
		</g>
		<g>
			<g>
				<line class="st25" x1="210.5" y1="583.8" x2="190.3" y2="583.8"/>
				<g>
					<polygon class="st7" points="208.8,581.7 208.5,582.1 210.3,583.8 208.5,585.4 208.8,585.8 211,583.8 					"/>
				</g>
			</g>
		</g>
		<g>
			<g>
				<line class="st25" x1="210.5" y1="609" x2="190.3" y2="609"/>
				<g>
					<polygon class="st7" points="208.8,606.9 208.5,607.3 210.3,609 208.5,610.6 208.8,611 211,609 					"/>
				</g>
			</g>
		</g>
		<g>
			<g>
				<line class="st25" x1="210.5" y1="636.5" x2="190.3" y2="636.5"/>
				<g>
					<polygon class="st7" points="208.8,634.5 208.5,634.9 210.3,636.5 208.5,638.2 208.8,638.6 211,636.5 					"/>
				</g>
			</g>
		</g>
		<polyline class="st25" points="227.7,601.2 223,601.2 223,616.7 227.7,616.7 		"/>
	</g>
</g>
</svg>
