<?xml version="1.0" encoding="utf-8"?>
<!-- Generator: Adobe Illustrator 19.1.0, SVG Export Plug-In . SVG Version: 6.00 Build 0)  -->
<svg version="1.1" xmlns="http://www.w3.org/2000/svg" xmlns:xlink="http://www.w3.org/1999/xlink" x="0px" y="0px"
	 viewBox="132 170.9 1140 500" style="enable-background:new 132 170.9 1140 500;" xml:space="preserve">
<style type="text/css">
	.st0{font-family:'SourceSansPro-Regular';}
	.st1{font-size:10px;}
	.st2{fill:#F4F4F4;stroke:#FDFDFD;stroke-miterlimit:10;}
	.st3{fill:none;stroke:#3CEEED;stroke-width:10;stroke-miterlimit:10;}
	.st4{opacity:0.7;fill:none;stroke:#3CEEED;stroke-width:10;stroke-miterlimit:10;}
	.st5{opacity:0.5;fill:none;stroke:#3CEEED;stroke-width:10;stroke-miterlimit:10;}
	.st6{opacity:0.3;fill:none;stroke:#3CEEED;stroke-width:10;stroke-miterlimit:10;}
	.st7{fill:none;stroke:#373737;stroke-linejoin:round;}
	.st8{font-family:'SourceSansPro-Bold';}
	.st9{fill:none;stroke:#3CEEED;stroke-miterlimit:10;}
	.st10{font-family:'SourceSansPro-Light';}
	.st11{fill:#FFFFFF;stroke:#000000;stroke-miterlimit:10;}
	.st12{fill:#373737;}
	.st13{font-size:12px;}
	.st14{fill:none;stroke:#373737;stroke-width:0.9854;}
	.st15{fill:none;stroke:#373737;stroke-width:10;stroke-miterlimit:10;}
	.st16{opacity:0.8;fill:none;stroke:#373737;stroke-width:10;stroke-miterlimit:10;enable-background:new    ;}
	.st17{opacity:0.5;fill:none;stroke:#373737;stroke-width:10;stroke-miterlimit:10;enable-background:new    ;}
	.st18{opacity:0.3;fill:none;stroke:#373737;stroke-width:10;stroke-miterlimit:10;enable-background:new    ;}
	.st19{fill:none;stroke:#373737;stroke-width:0.5;stroke-linejoin:round;}
</style>
<g id="roba_di_lato">
</g>
<g id="Layer_1">
</g>
<g id="boxplot">
	<g>
		<g transform="translate(0,0)">
			<g transform="translate(0,313.5660580021482)">
				<text transform="matrix(1 0 0 1 342.4779 204.73)" class="st0 st1">0.1</text>
			</g>
			<g transform="translate(0,313.5660580021482)">
				<text transform="matrix(1 0 0 1 342.4779 251.1639)" class="st0 st1">0.0</text>
			</g>
			<g transform="translate(0,266.30504833512356)">
				<text transform="matrix(1 0 0 1 342.4779 204.73)" class="st0 st1">0.2</text>
			</g>
			<g transform="translate(0,219.0440386680988)">
				<text transform="matrix(1 0 0 1 342.4779 204.73)" class="st0 st1">0.3</text>
			</g>
			<g transform="translate(0,171.78302900107406)">
				<text transform="matrix(1 0 0 1 342.4779 204.73)" class="st0 st1">0.4</text>
			</g>
			<g transform="translate(0,124.52201933404938)">
				<text transform="matrix(1 0 0 1 342.4779 204.73)" class="st0 st1">0.5</text>
			</g>
			<g transform="translate(0,77.2610096670247)">
				<text transform="matrix(1 0 0 1 342.4779 204.73)" class="st0 st1">0.6</text>
				<text transform="matrix(1 0 0 1 342.4779 156.73)" class="st0 st1">0.7</text>
			</g>
			<rect x="365.2" y="514.8" class="st2" width="900" height="46.1"/>
			<rect x="365.2" y="467.7" class="st2" width="900" height="47.1"/>
			<rect x="365.2" y="420" class="st2" width="900" height="47.7"/>
			<rect x="365.2" y="372.8" class="st2" width="900" height="47.3"/>
			<rect x="365.2" y="325.5" class="st2" width="900" height="47.3"/>
			<rect x="365.2" y="278.2" class="st2" width="900" height="47.3"/>
			<rect x="365.2" y="230.9" class="st2" width="900" height="47.3"/>
		</g>
		<line class="st3" x1="376.7" y1="467.2" x2="376.7" y2="372.7"/>
		<line class="st4" x1="376.7" y1="514.5" x2="376.7" y2="467.2"/>
		<line class="st5" x1="376.7" y1="545.2" x2="376.7" y2="514.5"/>
		<line class="st6" x1="376.7" y1="560.9" x2="376.7" y2="545.2"/>
		<line class="st3" x1="444.7" y1="419.9" x2="444.7" y2="325.4"/>
		<line class="st4" x1="444.7" y1="467.2" x2="444.7" y2="419.9"/>
		<line class="st5" x1="444.7" y1="528.6" x2="444.7" y2="467.2"/>
		<line class="st6" x1="444.7" y1="538.1" x2="444.7" y2="528.6"/>
		<line class="st3" x1="512.7" y1="506.2" x2="512.7" y2="467.2"/>
		<line class="st4" x1="512.7" y1="529.8" x2="512.7" y2="506.2"/>
		<line class="st5" x1="512.7" y1="540.4" x2="512.7" y2="529.8"/>
		<line class="st6" x1="512.7" y1="552.3" x2="512.7" y2="540.4"/>
		<line class="st3" x1="580.7" y1="527.2" x2="580.7" y2="514.5"/>
		<line class="st4" x1="580.7" y1="540" x2="580.7" y2="527.2"/>
		<line class="st5" x1="580.7" y1="546.4" x2="580.7" y2="540"/>
		<line class="st6" x1="580.7" y1="552.3" x2="580.7" y2="546.4"/>
		<line class="st3" x1="648.7" y1="514.5" x2="648.7" y2="486.1"/>
		<line class="st4" x1="648.7" y1="538.1" x2="648.7" y2="514.5"/>
		<line class="st5" x1="648.7" y1="549.9" x2="648.7" y2="538.1"/>
		<line class="st6" x1="648.7" y1="557" x2="648.7" y2="549.9"/>
		<line class="st3" x1="716.7" y1="495.6" x2="716.7" y2="443.6"/>
		<line class="st4" x1="716.7" y1="523.9" x2="716.7" y2="495.6"/>
		<line class="st5" x1="716.7" y1="550.4" x2="716.7" y2="523.9"/>
		<line class="st6" x1="716.7" y1="552.3" x2="716.7" y2="550.4"/>
		<line class="st3" x1="784.7" y1="502.6" x2="784.7" y2="443.6"/>
		<line class="st4" x1="784.7" y1="540" x2="784.7" y2="502.6"/>
		<line class="st5" x1="784.7" y1="557" x2="784.7" y2="540"/>
		<line class="st3" x1="852.7" y1="372.7" x2="852.7" y2="230.9"/>
		<line class="st4" x1="852.7" y1="467.2" x2="852.7" y2="372.7"/>
		<line class="st5" x1="852.7" y1="514.5" x2="852.7" y2="467.2"/>
		<line class="st6" x1="852.7" y1="538.1" x2="852.7" y2="514.5"/>
		<line class="st3" x1="920.7" y1="325.4" x2="920.7" y2="278.2"/>
		<line class="st4" x1="920.7" y1="505" x2="920.7" y2="325.4"/>
		<line class="st5" x1="920.7" y1="536.7" x2="920.7" y2="505"/>
		<line class="st6" x1="920.7" y1="547.5" x2="920.7" y2="536.7"/>
		<line class="st3" x1="988.7" y1="467.2" x2="988.7" y2="419.9"/>
		<line class="st4" x1="988.7" y1="514.5" x2="988.7" y2="467.2"/>
		<line class="st5" x1="988.7" y1="538.1" x2="988.7" y2="514.5"/>
		<line class="st6" x1="988.7" y1="552.3" x2="988.7" y2="538.1"/>
		<line class="st3" x1="1056.7" y1="502.6" x2="1056.7" y2="467.2"/>
		<line class="st4" x1="1056.7" y1="538.1" x2="1056.7" y2="502.6"/>
		<line class="st3" x1="1124.7" y1="455.4" x2="1124.7" y2="419.9"/>
		<line class="st4" x1="1124.7" y1="489.6" x2="1124.7" y2="455.4"/>
		<line class="st5" x1="1124.7" y1="505.6" x2="1124.7" y2="489.6"/>
		<line class="st6" x1="1124.7" y1="538.1" x2="1124.7" y2="505.6"/>
		<line class="st4" x1="1192.7" y1="457.7" x2="1192.7" y2="443.6"/>
		<line class="st5" x1="1192.7" y1="467.2" x2="1192.7" y2="457.7"/>
		<line class="st3" x1="1260.7" y1="414" x2="1260.7" y2="325.4"/>
		<line class="st4" x1="1260.7" y1="455.4" x2="1260.7" y2="414"/>
		<line class="st5" x1="1260.7" y1="476.6" x2="1260.7" y2="455.4"/>
		<line class="st6" x1="1260.7" y1="505" x2="1260.7" y2="476.6"/>
		<g>
			<g>
				<g>
					<g>
						<line class="st7" x1="515.5" y1="399.1" x2="509.9" y2="393.5"/>
						<line class="st7" x1="515.5" y1="393.5" x2="509.9" y2="399.1"/>
					</g>
				</g>
			</g>
		</g>
		<g>
			<g>
				<g>
					<g>
						<line class="st7" x1="515.5" y1="399.1" x2="509.9" y2="393.5"/>
						<line class="st7" x1="515.5" y1="393.5" x2="509.9" y2="399.1"/>
					</g>
				</g>
			</g>
		</g>
		<g>
			<g>
				<g>
					<g>
						<line class="st7" x1="515.5" y1="375.5" x2="509.9" y2="369.9"/>
						<line class="st7" x1="515.5" y1="369.9" x2="509.9" y2="375.5"/>
					</g>
				</g>
			</g>
		</g>
		<g>
			<g>
				<g>
					<g>
						<line class="st7" x1="515.5" y1="328.2" x2="509.9" y2="322.6"/>
						<line class="st7" x1="515.5" y1="322.6" x2="509.9" y2="328.2"/>
					</g>
				</g>
			</g>
		</g>
		<g>
			<g>
				<g>
					<g>
						<line class="st7" x1="651.5" y1="328.2" x2="645.9" y2="322.6"/>
						<line class="st7" x1="651.5" y1="322.6" x2="645.9" y2="328.2"/>
					</g>
				</g>
			</g>
		</g>
		<g>
			<g>
				<g>
					<g>
						<line class="st7" x1="719.5" y1="351.8" x2="713.9" y2="346.2"/>
						<line class="st7" x1="719.5" y1="346.2" x2="713.9" y2="351.8"/>
					</g>
				</g>
			</g>
		</g>
		<g>
			<g>
				<g>
					<g>
						<line class="st7" x1="787.5" y1="375.5" x2="781.9" y2="369.9"/>
						<line class="st7" x1="787.5" y1="369.9" x2="781.9" y2="375.5"/>
					</g>
				</g>
			</g>
		</g>
		<g>
			<g>
				<g>
					<g>
						<line class="st7" x1="991.5" y1="328.2" x2="985.9" y2="322.6"/>
						<line class="st7" x1="991.5" y1="322.6" x2="985.9" y2="328.2"/>
					</g>
				</g>
			</g>
		</g>
		<g>
			<g>
				<g>
					<g>
						<line class="st7" x1="1059.5" y1="446.4" x2="1053.9" y2="440.8"/>
						<line class="st7" x1="1059.5" y1="440.8" x2="1053.9" y2="446.4"/>
					</g>
				</g>
			</g>
		</g>
		<g>
			<g>
				<g>
					<g>
						<line class="st7" x1="1059.5" y1="328.2" x2="1053.9" y2="322.6"/>
						<line class="st7" x1="1059.5" y1="322.6" x2="1053.9" y2="328.2"/>
					</g>
				</g>
			</g>
		</g>
		<g>
			<g>
				<g>
					<g>
						<line class="st7" x1="1127.5" y1="328.2" x2="1121.9" y2="322.6"/>
						<line class="st7" x1="1127.5" y1="322.6" x2="1121.9" y2="328.2"/>
					</g>
				</g>
			</g>
		</g>
		<g>
			<g>
				<g>
					<g>
						<line class="st7" x1="1195.5" y1="517.3" x2="1189.9" y2="511.7"/>
						<line class="st7" x1="1195.5" y1="511.7" x2="1189.9" y2="517.3"/>
					</g>
				</g>
			</g>
		</g>
		<g>
			<g>
				<g>
					<g>
						<line class="st7" x1="1195.5" y1="257.3" x2="1189.9" y2="251.7"/>
						<line class="st7" x1="1195.5" y1="251.7" x2="1189.9" y2="257.3"/>
					</g>
				</g>
			</g>
		</g>
		<g transform="translate(0,440)">
			<text transform="matrix(1 0 0 1 370.4857 200.89)" class="st8 st1">25</text>
			<text transform="matrix(1 0 0 1 441.8226 200.89)" class="st8 st1">5</text>
			<text transform="matrix(1 0 0 1 506.4857 200.89)" class="st8 st1">28</text>
			<text transform="matrix(1 0 0 1 577.8226 200.89)" class="st8 st1">3</text>
			<text transform="matrix(1 0 0 1 642.4857 200.89)" class="st8 st1">13</text>
			<text transform="matrix(1 0 0 1 710.4857 200.89)" class="st8 st1">21</text>
			<text transform="matrix(1 0 0 1 778.4857 200.89)" class="st8 st1">17</text>
			<text transform="matrix(1 0 0 1 846.4857 200.89)" class="st8 st1">21</text>
			<text transform="matrix(1 0 0 1 917.8226 200.89)" class="st8 st1">5</text>
			<text transform="matrix(1 0 0 1 982.4857 200.89)" class="st8 st1">23</text>
			<text transform="matrix(1 0 0 1 1050.4856 200.89)" class="st8 st1">12</text>
			<text transform="matrix(1 0 0 1 1121.8225 200.89)" class="st8 st1">8</text>
			<text transform="matrix(1 0 0 1 1189.8225 200.89)" class="st8 st1">5</text>
			<text transform="matrix(1 0 0 1 1257.8225 200.89)" class="st8 st1">4</text>
		</g>
		<g transform="translate(0,410)">
			<circle class="st9" cx="376.2" cy="200.9" r="13.9"/>
			<circle class="st9" cx="444.2" cy="200.9" r="3.8"/>
			<circle class="st9" cx="512.2" cy="200.9" r="15"/>
			<circle class="st9" cx="580.2" cy="200.9" r="2"/>
			<circle class="st9" cx="648.2" cy="200.9" r="8.8"/>
			<circle class="st9" cx="716.2" cy="200.9" r="12.4"/>
			<circle class="st9" cx="784.2" cy="200.9" r="10.7"/>
			<circle class="st9" cx="852.2" cy="200.9" r="12.4"/>
			<circle class="st9" cx="920.2" cy="200.9" r="3.8"/>
			<circle class="st9" cx="988.2" cy="200.9" r="13.2"/>
			<circle class="st9" cx="1056.2" cy="200.9" r="8.3"/>
			<circle class="st9" cx="1124.2" cy="200.9" r="6"/>
			<circle class="st9" cx="1192.2" cy="200.9" r="3.8"/>
			<circle class="st9" cx="1260.2" cy="200.9" r="3"/>
		</g>
		<g transform="translate(0,370)">
			<g transform="translate(8.5,0)">
				<text transform="matrix(1 0 0 1 357.8119 218.41)" class="st10 st1">2000</text>
			</g>
			<g transform="translate(76.5,0)">
				<text transform="matrix(1 0 0 1 357.8119 218.41)" class="st10 st1">2001</text>
			</g>
			<g transform="translate(144.5,0)">
				<text transform="matrix(1 0 0 1 357.8118 218.41)" class="st10 st1">2002</text>
			</g>
			<g transform="translate(212.5,0)">
				<text transform="matrix(1 0 0 1 357.8118 218.41)" class="st10 st1">2003</text>
			</g>
			<g transform="translate(280.5,0)">
				<text transform="matrix(1 0 0 1 357.8118 218.41)" class="st10 st1">2004</text>
			</g>
			<g transform="translate(348.5,0)">
				<text transform="matrix(1 0 0 1 357.8119 218.41)" class="st10 st1">2005</text>
			</g>
			<g transform="translate(416.5,0)">
				<text transform="matrix(1 0 0 1 357.8119 218.41)" class="st10 st1">2006</text>
			</g>
			<g transform="translate(484.5,0)">
				<text transform="matrix(1 0 0 1 357.8119 218.41)" class="st10 st1">2007</text>
			</g>
			<g transform="translate(552.5,0)">
				<text transform="matrix(1 0 0 1 357.8119 218.41)" class="st10 st1">2008</text>
			</g>
			<g transform="translate(620.5,0)">
				<text transform="matrix(1 0 0 1 357.8118 218.41)" class="st10 st1">2009</text>
			</g>
			<g transform="translate(688.5,0)">
				<text transform="matrix(1 0 0 1 357.8118 218.41)" class="st10 st1">2010</text>
			</g>
			<g transform="translate(756.5,0)">
				<text transform="matrix(1 0 0 1 358.2571 218.41)" class="st10 st1">2011</text>
			</g>
			<g transform="translate(824.5,0)">
				<text transform="matrix(1 0 0 1 357.8118 218.41)" class="st10 st1">2012</text>
			</g>
			<g transform="translate(892.5,0)">
				<text transform="matrix(1 0 0 1 357.8118 218.41)" class="st10 st1">2013</text>
			</g>
		</g>
		<line class="st11" x1="364.8" y1="514.5" x2="387.5" y2="514.5"/>
		<line class="st11" x1="433.3" y1="467.2" x2="456" y2="467.2"/>
		<line class="st11" x1="501.3" y1="529.8" x2="524" y2="529.8"/>
		<line class="st11" x1="569.3" y1="540.4" x2="592" y2="540.4"/>
		<line class="st11" x1="637.3" y1="538.1" x2="660" y2="538.1"/>
		<line class="st11" x1="705.3" y1="523.9" x2="728" y2="523.9"/>
		<line class="st11" x1="773.3" y1="540.4" x2="796" y2="540.4"/>
		<line class="st11" x1="841.3" y1="467.2" x2="864" y2="467.2"/>
		<line class="st11" x1="909.3" y1="505" x2="932" y2="505"/>
		<line class="st11" x1="977.3" y1="514.5" x2="1000" y2="514.5"/>
		<line class="st11" x1="1045.3" y1="538.1" x2="1068" y2="538.1"/>
		<line class="st11" x1="1113.3" y1="489.6" x2="1136" y2="489.6"/>
		<line class="st11" x1="1181.3" y1="457.7" x2="1204" y2="457.7"/>
		<line class="st11" x1="1249.3" y1="455.4" x2="1272" y2="455.4"/>
	</g>
</g>
<g id="outliers">
</g>
<g id="numeri">
</g>
<g id="roba_sotto">
</g>
<g id="mediane">
	<g id="mediane_1_">
		<g>
			<text transform="matrix(1 0 0 1 132.0003 292.6335)" class="st12 st10 st13">outliers</text>
			<text transform="matrix(1 0 0 1 132.0003 467.935)" class="st12 st10 st13">25% of</text>
			<text transform="matrix(1 0 0 1 132.0003 482.335)" class="st12 st10 st13">reports</text>
			<text transform="matrix(1 0 0 1 132.0001 526.7344)" class="st12 st10 st13">25% of</text>
			<text transform="matrix(1 0 0 1 132.0001 541.1343)" class="st12 st10 st13">reports</text>
			<text transform="matrix(1 0 0 1 132.0001 588.1297)" class="st12 st10 st13">year</text>
			<text transform="matrix(1 0 0 1 132 350.4344)" class="st12 st10 st13">25% of</text>
			<text transform="matrix(1 0 0 1 132 364.8344)" class="st12 st10 st13">reports</text>
			<text transform="matrix(1 0 0 1 131.9998 409.1847)" class="st12 st10 st13">25% of</text>
			<text transform="matrix(1 0 0 1 131.9998 423.5847)" class="st12 st10 st13">reports</text>
			<text transform="matrix(1 0 0 1 132.0003 242.3708)" class="st12 st8 st13">LEGEND</text>
			<text transform="matrix(1 0 0 1 132 445.7701)" class="st12 st10 st13">median</text>
			<g>
				<text transform="matrix(1 0 0 1 131.9999 626.9732)" class="st12 st10 st13">n° of</text>
				<text transform="matrix(1 0 0 1 131.9999 641.3732)" class="st12 st10 st13">reports</text>
			</g>
			<circle class="st14" cx="232.3" cy="610.1" r="5.6"/>
			<text transform="matrix(1 0 0 1 223.0204 587.5869)" class="st12 st10 st1">2000</text>
			<line class="st15" x1="232.3" y1="383.8" x2="232.3" y2="325"/>
			<line class="st15" x1="232.3" y1="383.8" x2="232.3" y2="325"/>
			<line class="st16" x1="232.3" y1="442.5" x2="232.3" y2="383.8"/>
			<line class="st15" x1="232.3" y1="383.8" x2="232.3" y2="325"/>
			<line class="st17" x1="232.3" y1="501.3" x2="232.3" y2="442.5"/>
			<line class="st18" x1="232.3" y1="560.1" x2="232.3" y2="501.3"/>
			<line class="st19" x1="220.3" y1="442.5" x2="244.3" y2="442.5"/>
			<text transform="matrix(1 0 0 1 229.7964 641.5878)" class="st12 st8 st1">4</text>
			<line class="st19" x1="234.3" y1="292.2" x2="230.3" y2="288.2"/>
			<line class="st19" x1="234.3" y1="288.2" x2="230.3" y2="292.2"/>
			<g>
				<g>
					<line class="st19" x1="205.8" y1="290.2" x2="185.6" y2="290.2"/>
					<g>
						<polygon class="st12" points="204.1,288.1 203.8,288.5 205.6,290.2 203.8,291.8 204.1,292.2 206.3,290.2 						"/>
					</g>
				</g>
			</g>
			<g>
				<g>
					<line class="st19" x1="205.8" y1="354.4" x2="185.6" y2="354.4"/>
					<g>
						<polygon class="st12" points="204.1,352.3 203.8,352.7 205.6,354.4 203.8,356 204.1,356.4 206.3,354.4 						"/>
					</g>
				</g>
			</g>
			<g>
				<g>
					<line class="st19" x1="205.8" y1="413.9" x2="185.6" y2="413.9"/>
					<g>
						<polygon class="st12" points="204.1,411.9 203.8,412.2 205.6,413.9 203.8,415.6 204.1,416 206.3,413.9 						"/>
					</g>
				</g>
			</g>
			<g>
				<g>
					<line class="st19" x1="205.8" y1="442.5" x2="185.6" y2="442.5"/>
					<g>
						<polygon class="st12" points="204.1,440.4 203.8,440.8 205.6,442.5 203.8,444.1 204.1,444.5 206.3,442.5 						"/>
					</g>
				</g>
			</g>
			<g>
				<g>
					<line class="st19" x1="205.8" y1="471.9" x2="185.6" y2="471.9"/>
					<g>
						<polygon class="st12" points="204.1,469.8 203.8,470.2 205.6,471.9 203.8,473.5 204.1,473.9 206.3,471.9 						"/>
					</g>
				</g>
			</g>
			<g>
				<g>
					<line class="st19" x1="205.8" y1="530.7" x2="185.6" y2="530.7"/>
					<g>
						<polygon class="st12" points="204.1,528.6 203.8,529 205.6,530.7 203.8,532.3 204.1,532.7 206.3,530.7 						"/>
					</g>
				</g>
			</g>
			<g>
				<g>
					<line class="st19" x1="205.8" y1="584.9" x2="185.6" y2="584.9"/>
					<g>
						<polygon class="st12" points="204.1,582.8 203.8,583.2 205.6,584.9 203.8,586.5 204.1,586.9 206.3,584.9 						"/>
					</g>
				</g>
			</g>
			<g>
				<g>
					<line class="st19" x1="205.8" y1="610.1" x2="185.6" y2="610.1"/>
					<g>
						<polygon class="st12" points="204.1,608 203.8,608.4 205.6,610.1 203.8,611.7 204.1,612.1 206.3,610.1 						"/>
					</g>
				</g>
			</g>
			<g>
				<g>
					<line class="st19" x1="205.8" y1="637.6" x2="185.6" y2="637.6"/>
					<g>
						<polygon class="st12" points="204.1,635.6 203.8,636 205.6,637.6 203.8,639.3 204.1,639.7 206.3,637.6 						"/>
					</g>
				</g>
			</g>
			<polyline class="st19" points="223,602.3 218.3,602.3 218.3,617.8 223,617.8 			"/>
		</g>
	</g>
</g>
</svg>
