<?xml version="1.0" encoding="utf-8"?>
<!-- Generator: Adobe Illustrator 19.1.0, SVG Export Plug-In . SVG Version: 6.00 Build 0)  -->
<svg version="1.1" xmlns="http://www.w3.org/2000/svg" xmlns:xlink="http://www.w3.org/1999/xlink" x="0px" y="0px"
	 viewBox="132 170.9 1140 500" style="enable-background:new 132 170.9 1140 500;" xml:space="preserve">
<style type="text/css">
	.st0{font-family:'SourceSansPro-Regular';}
	.st1{font-size:10px;}
	.st2{opacity:3.000000e-02;}
	.st3{opacity:7.500000e-02;}
	.st4{opacity:0.11;}
	.st5{opacity:0.14;}
	.st6{opacity:0.18;}
	.st7{opacity:0.22;}
	.st8{opacity:0.26;}
	.st9{fill:none;stroke:#3CEEED;stroke-width:10;stroke-miterlimit:10;}
	.st10{opacity:0.7;fill:none;stroke:#3CEEED;stroke-width:10;stroke-miterlimit:10;}
	.st11{opacity:0.5;fill:none;stroke:#3CEEED;stroke-width:10;stroke-miterlimit:10;}
	.st12{opacity:0.3;fill:none;stroke:#3CEEED;stroke-width:10;stroke-miterlimit:10;}
	.st13{fill:none;stroke:#373737;stroke-linejoin:round;}
	.st14{font-family:'SourceSansPro-Bold';}
	.st15{fill:none;stroke:#3CEEED;stroke-miterlimit:10;}
	.st16{font-family:'SourceSansPro-Light';}
	.st17{fill:#FFFFFF;stroke:#000000;stroke-miterlimit:10;}
	.st18{fill:#373737;}
	.st19{font-size:12px;}
	.st20{enable-background:new    ;}
	.st21{fill:none;stroke:#373737;stroke-width:0.9854;}
	.st22{fill:none;stroke:#373737;stroke-width:10;stroke-miterlimit:10;}
	.st23{opacity:0.8;fill:none;stroke:#373737;stroke-width:10;stroke-miterlimit:10;enable-background:new    ;}
	.st24{opacity:0.5;fill:none;stroke:#373737;stroke-width:10;stroke-miterlimit:10;enable-background:new    ;}
	.st25{opacity:0.3;fill:none;stroke:#373737;stroke-width:10;stroke-miterlimit:10;enable-background:new    ;}
	.st26{fill:none;stroke:#373737;stroke-width:0.5;stroke-linejoin:round;}
</style>
<g id="roba_di_lato">
</g>
<g id="Layer_1">
</g>
<g id="boxplot">
	<g>
		<g transform="translate(0,0)">
			<g transform="translate(0,313.5660580021482)">
				<text transform="matrix(1 0 0 1 342.4779 204.73)" class="st0 st1">0.1</text>
			</g>
			<g transform="translate(0,313.5660580021482)">
				<text transform="matrix(1 0 0 1 342.4779 251.1639)" class="st0 st1">0.0</text>
			</g>
			<g transform="translate(0,266.30504833512356)">
				<text transform="matrix(1 0 0 1 342.4779 204.73)" class="st0 st1">0.2</text>
			</g>
			<g transform="translate(0,219.0440386680988)">
				<text transform="matrix(1 0 0 1 342.4779 204.73)" class="st0 st1">0.3</text>
			</g>
			<g transform="translate(0,171.78302900107406)">
				<text transform="matrix(1 0 0 1 342.4779 204.73)" class="st0 st1">0.4</text>
			</g>
			<g transform="translate(0,124.52201933404938)">
				<text transform="matrix(1 0 0 1 342.4779 204.73)" class="st0 st1">0.5</text>
			</g>
			<g transform="translate(0,77.2610096670247)">
				<text transform="matrix(1 0 0 1 342.4779 204.73)" class="st0 st1">0.6</text>
				<text transform="matrix(1 0 0 1 342.4779 156.73)" class="st0 st1">0.7</text>
			</g>
			<rect x="365.2" y="514.8" class="st2" width="900" height="46.1"/>
			<rect x="365.2" y="467.7" class="st3" width="900" height="47.1"/>
			<rect x="365.2" y="420" class="st4" width="900" height="47.7"/>
			<rect x="365.2" y="372.8" class="st5" width="900" height="47.3"/>
			<rect x="365.2" y="325.5" class="st6" width="900" height="47.3"/>
			<rect x="365.2" y="278.2" class="st7" width="900" height="47.3"/>
			<rect x="365.2" y="230.9" class="st8" width="900" height="47.3"/>
		</g>
		<line class="st9" x1="376.7" y1="467.2" x2="376.7" y2="372.7"/>
		<line class="st10" x1="376.7" y1="514.5" x2="376.7" y2="467.2"/>
		<line class="st11" x1="376.7" y1="545.2" x2="376.7" y2="514.5"/>
		<line class="st12" x1="376.7" y1="560.9" x2="376.7" y2="545.2"/>
		<line class="st9" x1="444.7" y1="419.9" x2="444.7" y2="325.4"/>
		<line class="st10" x1="444.7" y1="467.2" x2="444.7" y2="419.9"/>
		<line class="st11" x1="444.7" y1="528.6" x2="444.7" y2="467.2"/>
		<line class="st12" x1="444.7" y1="538.1" x2="444.7" y2="528.6"/>
		<line class="st9" x1="512.7" y1="506.2" x2="512.7" y2="467.2"/>
		<line class="st10" x1="512.7" y1="529.8" x2="512.7" y2="506.2"/>
		<line class="st11" x1="512.7" y1="540.4" x2="512.7" y2="529.8"/>
		<line class="st12" x1="512.7" y1="552.3" x2="512.7" y2="540.4"/>
		<line class="st9" x1="580.7" y1="527.2" x2="580.7" y2="514.5"/>
		<line class="st10" x1="580.7" y1="540" x2="580.7" y2="527.2"/>
		<line class="st11" x1="580.7" y1="546.4" x2="580.7" y2="540"/>
		<line class="st12" x1="580.7" y1="552.3" x2="580.7" y2="546.4"/>
		<line class="st9" x1="648.7" y1="514.5" x2="648.7" y2="486.1"/>
		<line class="st10" x1="648.7" y1="538.1" x2="648.7" y2="514.5"/>
		<line class="st11" x1="648.7" y1="549.9" x2="648.7" y2="538.1"/>
		<line class="st12" x1="648.7" y1="557" x2="648.7" y2="549.9"/>
		<line class="st9" x1="716.7" y1="495.6" x2="716.7" y2="443.6"/>
		<line class="st10" x1="716.7" y1="523.9" x2="716.7" y2="495.6"/>
		<line class="st11" x1="716.7" y1="550.4" x2="716.7" y2="523.9"/>
		<line class="st12" x1="716.7" y1="552.3" x2="716.7" y2="550.4"/>
		<line class="st9" x1="784.7" y1="502.6" x2="784.7" y2="443.6"/>
		<line class="st10" x1="784.7" y1="540" x2="784.7" y2="502.6"/>
		<line class="st11" x1="784.7" y1="557" x2="784.7" y2="540"/>
		<line class="st9" x1="852.7" y1="372.7" x2="852.7" y2="230.9"/>
		<line class="st10" x1="852.7" y1="467.2" x2="852.7" y2="372.7"/>
		<line class="st11" x1="852.7" y1="514.5" x2="852.7" y2="467.2"/>
		<line class="st12" x1="852.7" y1="538.1" x2="852.7" y2="514.5"/>
		<line class="st9" x1="920.7" y1="325.4" x2="920.7" y2="278.2"/>
		<line class="st10" x1="920.7" y1="505" x2="920.7" y2="325.4"/>
		<line class="st11" x1="920.7" y1="536.7" x2="920.7" y2="505"/>
		<line class="st12" x1="920.7" y1="547.5" x2="920.7" y2="536.7"/>
		<line class="st9" x1="988.7" y1="467.2" x2="988.7" y2="419.9"/>
		<line class="st10" x1="988.7" y1="514.5" x2="988.7" y2="467.2"/>
		<line class="st11" x1="988.7" y1="538.1" x2="988.7" y2="514.5"/>
		<line class="st12" x1="988.7" y1="552.3" x2="988.7" y2="538.1"/>
		<line class="st9" x1="1056.7" y1="502.6" x2="1056.7" y2="467.2"/>
		<line class="st10" x1="1056.7" y1="538.1" x2="1056.7" y2="502.6"/>
		<line class="st9" x1="1124.7" y1="455.4" x2="1124.7" y2="419.9"/>
		<line class="st10" x1="1124.7" y1="489.6" x2="1124.7" y2="455.4"/>
		<line class="st11" x1="1124.7" y1="505.6" x2="1124.7" y2="489.6"/>
		<line class="st12" x1="1124.7" y1="538.1" x2="1124.7" y2="505.6"/>
		<line class="st10" x1="1192.7" y1="457.7" x2="1192.7" y2="443.6"/>
		<line class="st11" x1="1192.7" y1="467.2" x2="1192.7" y2="457.7"/>
		<line class="st9" x1="1260.7" y1="414" x2="1260.7" y2="325.4"/>
		<line class="st10" x1="1260.7" y1="455.4" x2="1260.7" y2="414"/>
		<line class="st11" x1="1260.7" y1="476.6" x2="1260.7" y2="455.4"/>
		<line class="st12" x1="1260.7" y1="505" x2="1260.7" y2="476.6"/>
		<g>
			<g>
				<g>
					<g>
						<line class="st13" x1="515.5" y1="399.1" x2="509.9" y2="393.5"/>
						<line class="st13" x1="515.5" y1="393.5" x2="509.9" y2="399.1"/>
					</g>
				</g>
			</g>
		</g>
		<g>
			<g>
				<g>
					<g>
						<line class="st13" x1="515.5" y1="399.1" x2="509.9" y2="393.5"/>
						<line class="st13" x1="515.5" y1="393.5" x2="509.9" y2="399.1"/>
					</g>
				</g>
			</g>
		</g>
		<g>
			<g>
				<g>
					<g>
						<line class="st13" x1="515.5" y1="375.5" x2="509.9" y2="369.9"/>
						<line class="st13" x1="515.5" y1="369.9" x2="509.9" y2="375.5"/>
					</g>
				</g>
			</g>
		</g>
		<g>
			<g>
				<g>
					<g>
						<line class="st13" x1="515.5" y1="328.2" x2="509.9" y2="322.6"/>
						<line class="st13" x1="515.5" y1="322.6" x2="509.9" y2="328.2"/>
					</g>
				</g>
			</g>
		</g>
		<g>
			<g>
				<g>
					<g>
						<line class="st13" x1="651.5" y1="328.2" x2="645.9" y2="322.6"/>
						<line class="st13" x1="651.5" y1="322.6" x2="645.9" y2="328.2"/>
					</g>
				</g>
			</g>
		</g>
		<g>
			<g>
				<g>
					<g>
						<line class="st13" x1="719.5" y1="351.8" x2="713.9" y2="346.2"/>
						<line class="st13" x1="719.5" y1="346.2" x2="713.9" y2="351.8"/>
					</g>
				</g>
			</g>
		</g>
		<g>
			<g>
				<g>
					<g>
						<line class="st13" x1="787.5" y1="375.5" x2="781.9" y2="369.9"/>
						<line class="st13" x1="787.5" y1="369.9" x2="781.9" y2="375.5"/>
					</g>
				</g>
			</g>
		</g>
		<g>
			<g>
				<g>
					<g>
						<line class="st13" x1="991.5" y1="328.2" x2="985.9" y2="322.6"/>
						<line class="st13" x1="991.5" y1="322.6" x2="985.9" y2="328.2"/>
					</g>
				</g>
			</g>
		</g>
		<g>
			<g>
				<g>
					<g>
						<line class="st13" x1="1059.5" y1="446.4" x2="1053.9" y2="440.8"/>
						<line class="st13" x1="1059.5" y1="440.8" x2="1053.9" y2="446.4"/>
					</g>
				</g>
			</g>
		</g>
		<g>
			<g>
				<g>
					<g>
						<line class="st13" x1="1059.5" y1="328.2" x2="1053.9" y2="322.6"/>
						<line class="st13" x1="1059.5" y1="322.6" x2="1053.9" y2="328.2"/>
					</g>
				</g>
			</g>
		</g>
		<g>
			<g>
				<g>
					<g>
						<line class="st13" x1="1127.5" y1="328.2" x2="1121.9" y2="322.6"/>
						<line class="st13" x1="1127.5" y1="322.6" x2="1121.9" y2="328.2"/>
					</g>
				</g>
			</g>
		</g>
		<g>
			<g>
				<g>
					<g>
						<line class="st13" x1="1195.5" y1="517.3" x2="1189.9" y2="511.7"/>
						<line class="st13" x1="1195.5" y1="511.7" x2="1189.9" y2="517.3"/>
					</g>
				</g>
			</g>
		</g>
		<g>
			<g>
				<g>
					<g>
						<line class="st13" x1="1195.5" y1="257.3" x2="1189.9" y2="251.7"/>
						<line class="st13" x1="1195.5" y1="251.7" x2="1189.9" y2="257.3"/>
					</g>
				</g>
			</g>
		</g>
		<g transform="translate(0,440)">
			<text transform="matrix(1 0 0 1 370.4857 200.89)" class="st14 st1">25</text>
			<text transform="matrix(1 0 0 1 441.8226 200.89)" class="st14 st1">5</text>
			<text transform="matrix(1 0 0 1 506.4857 200.89)" class="st14 st1">28</text>
			<text transform="matrix(1 0 0 1 577.8226 200.89)" class="st14 st1">3</text>
			<text transform="matrix(1 0 0 1 642.4857 200.89)" class="st14 st1">13</text>
			<text transform="matrix(1 0 0 1 710.4857 200.89)" class="st14 st1">21</text>
			<text transform="matrix(1 0 0 1 778.4857 200.89)" class="st14 st1">17</text>
			<text transform="matrix(1 0 0 1 846.4857 200.89)" class="st14 st1">21</text>
			<text transform="matrix(1 0 0 1 917.8226 200.89)" class="st14 st1">5</text>
			<text transform="matrix(1 0 0 1 982.4857 200.89)" class="st14 st1">23</text>
			<text transform="matrix(1 0 0 1 1050.4856 200.89)" class="st14 st1">12</text>
			<text transform="matrix(1 0 0 1 1121.8225 200.89)" class="st14 st1">8</text>
			<text transform="matrix(1 0 0 1 1189.8225 200.89)" class="st14 st1">5</text>
			<text transform="matrix(1 0 0 1 1257.8225 200.89)" class="st14 st1">4</text>
		</g>
		<g transform="translate(0,410)">
			<circle class="st15" cx="376.2" cy="200.9" r="13.9"/>
			<circle class="st15" cx="444.2" cy="200.9" r="3.8"/>
			<circle class="st15" cx="512.2" cy="200.9" r="15"/>
			<circle class="st15" cx="580.2" cy="200.9" r="2"/>
			<circle class="st15" cx="648.2" cy="200.9" r="8.8"/>
			<circle class="st15" cx="716.2" cy="200.9" r="12.4"/>
			<circle class="st15" cx="784.2" cy="200.9" r="10.7"/>
			<circle class="st15" cx="852.2" cy="200.9" r="12.4"/>
			<circle class="st15" cx="920.2" cy="200.9" r="3.8"/>
			<circle class="st15" cx="988.2" cy="200.9" r="13.2"/>
			<circle class="st15" cx="1056.2" cy="200.9" r="8.3"/>
			<circle class="st15" cx="1124.2" cy="200.9" r="6"/>
			<circle class="st15" cx="1192.2" cy="200.9" r="3.8"/>
			<circle class="st15" cx="1260.2" cy="200.9" r="3"/>
		</g>
		<g transform="translate(0,370)">
			<g transform="translate(8.5,0)">
				<text transform="matrix(1 0 0 1 357.8119 218.41)" class="st16 st1">2000</text>
			</g>
			<g transform="translate(76.5,0)">
				<text transform="matrix(1 0 0 1 357.8119 218.41)" class="st16 st1">2001</text>
			</g>
			<g transform="translate(144.5,0)">
				<text transform="matrix(1 0 0 1 357.8118 218.41)" class="st16 st1">2002</text>
			</g>
			<g transform="translate(212.5,0)">
				<text transform="matrix(1 0 0 1 357.8118 218.41)" class="st16 st1">2003</text>
			</g>
			<g transform="translate(280.5,0)">
				<text transform="matrix(1 0 0 1 357.8118 218.41)" class="st16 st1">2004</text>
			</g>
			<g transform="translate(348.5,0)">
				<text transform="matrix(1 0 0 1 357.8119 218.41)" class="st16 st1">2005</text>
			</g>
			<g transform="translate(416.5,0)">
				<text transform="matrix(1 0 0 1 357.8119 218.41)" class="st16 st1">2006</text>
			</g>
			<g transform="translate(484.5,0)">
				<text transform="matrix(1 0 0 1 357.8119 218.41)" class="st16 st1">2007</text>
			</g>
			<g transform="translate(552.5,0)">
				<text transform="matrix(1 0 0 1 357.8119 218.41)" class="st16 st1">2008</text>
			</g>
			<g transform="translate(620.5,0)">
				<text transform="matrix(1 0 0 1 357.8118 218.41)" class="st16 st1">2009</text>
			</g>
			<g transform="translate(688.5,0)">
				<text transform="matrix(1 0 0 1 357.8118 218.41)" class="st16 st1">2010</text>
			</g>
			<g transform="translate(756.5,0)">
				<text transform="matrix(1 0 0 1 358.2571 218.41)" class="st16 st1">2011</text>
			</g>
			<g transform="translate(824.5,0)">
				<text transform="matrix(1 0 0 1 357.8118 218.41)" class="st16 st1">2012</text>
			</g>
			<g transform="translate(892.5,0)">
				<text transform="matrix(1 0 0 1 357.8118 218.41)" class="st16 st1">2013</text>
			</g>
		</g>
		<line class="st17" x1="364.8" y1="514.5" x2="387.5" y2="514.5"/>
		<line class="st17" x1="433.3" y1="467.2" x2="456" y2="467.2"/>
		<line class="st17" x1="501.3" y1="529.8" x2="524" y2="529.8"/>
		<line class="st17" x1="569.3" y1="540.4" x2="592" y2="540.4"/>
		<line class="st17" x1="637.3" y1="538.1" x2="660" y2="538.1"/>
		<line class="st17" x1="705.3" y1="523.9" x2="728" y2="523.9"/>
		<line class="st17" x1="773.3" y1="540.4" x2="796" y2="540.4"/>
		<line class="st17" x1="841.3" y1="467.2" x2="864" y2="467.2"/>
		<line class="st17" x1="909.3" y1="505" x2="932" y2="505"/>
		<line class="st17" x1="977.3" y1="514.5" x2="1000" y2="514.5"/>
		<line class="st17" x1="1045.3" y1="538.1" x2="1068" y2="538.1"/>
		<line class="st17" x1="1113.3" y1="489.6" x2="1136" y2="489.6"/>
		<line class="st17" x1="1181.3" y1="457.7" x2="1204" y2="457.7"/>
		<line class="st17" x1="1249.3" y1="455.4" x2="1272" y2="455.4"/>
	</g>
</g>
<g id="outliers">
</g>
<g id="numeri">
</g>
<g id="roba_sotto">
</g>
<g id="mediane">
	<g>
		<text transform="matrix(1 0 0 1 136.7 291.5166)" class="st18 st16 st19">outliers</text>
		<text transform="matrix(1 0 0 1 136.7 466.818)" class="st20"><tspan x="0" y="0" class="st18 st16 st19">25% of</tspan><tspan x="0" y="14.4" class="st18 st16 st19">reports</tspan></text>
		<text transform="matrix(1 0 0 1 136.6998 525.6174)" class="st20"><tspan x="0" y="0" class="st18 st16 st19">25% of</tspan><tspan x="0" y="14.4" class="st18 st16 st19">reports</tspan></text>
		<text transform="matrix(1 0 0 1 136.6998 587.0127)" class="st18 st16 st19">year</text>
		<text transform="matrix(1 0 0 1 136.6997 349.3174)" class="st20"><tspan x="0" y="0" class="st18 st16 st19">25% of</tspan><tspan x="0" y="14.4" class="st18 st16 st19">reports</tspan></text>
		<text transform="matrix(1 0 0 1 136.6995 408.0677)" class="st20"><tspan x="0" y="0" class="st18 st16 st19">25% of</tspan><tspan x="0" y="14.4" class="st18 st16 st19">reports</tspan></text>
		<text transform="matrix(1 0 0 1 136.7 241.2538)" class="st18 st14 st19">LEGEND</text>
		<text transform="matrix(1 0 0 1 136.6997 444.6531)" class="st18 st16 st19">median</text>
		<g>
			<text transform="matrix(1 0 0 1 140.1996 625.8562)" class="st20"><tspan x="0" y="0" class="st18 st16 st19">n° of</tspan><tspan x="0" y="14.4" class="st18 st16 st19">reports</tspan></text>
		</g>
		<circle class="st21" cx="237" cy="609" r="5.6"/>
		<text transform="matrix(1 0 0 1 227.7201 586.4699)" class="st18 st16 st1">2000</text>
		<line class="st22" x1="237" y1="382.7" x2="237" y2="323.9"/>
		<line class="st22" x1="237" y1="382.7" x2="237" y2="323.9"/>
		<line class="st23" x1="237" y1="441.4" x2="237" y2="382.7"/>
		<line class="st22" x1="237" y1="382.7" x2="237" y2="323.9"/>
		<line class="st24" x1="237" y1="500.2" x2="237" y2="441.4"/>
		<line class="st25" x1="237" y1="559" x2="237" y2="500.2"/>
		<line class="st26" x1="225" y1="441.4" x2="249" y2="441.4"/>
		<text transform="matrix(1 0 0 1 234.4961 640.4708)" class="st18 st14 st1">4</text>
		<line class="st26" x1="239" y1="291.1" x2="235" y2="287.1"/>
		<line class="st26" x1="239" y1="287.1" x2="235" y2="291.1"/>
		<g>
			<g>
				<line class="st26" x1="210.5" y1="289.1" x2="190.3" y2="289.1"/>
				<g>
					<polygon class="st18" points="208.8,287 208.5,287.4 210.3,289.1 208.5,290.7 208.8,291.1 211,289.1 					"/>
				</g>
			</g>
		</g>
		<g>
			<g>
				<line class="st26" x1="210.5" y1="353.3" x2="190.3" y2="353.3"/>
				<g>
					<polygon class="st18" points="208.8,351.2 208.5,351.6 210.3,353.3 208.5,354.9 208.8,355.3 211,353.3 					"/>
				</g>
			</g>
		</g>
		<g>
			<g>
				<line class="st26" x1="210.5" y1="412.8" x2="190.3" y2="412.8"/>
				<g>
					<polygon class="st18" points="208.8,410.8 208.5,411.1 210.3,412.8 208.5,414.5 208.8,414.9 211,412.8 					"/>
				</g>
			</g>
		</g>
		<g>
			<g>
				<line class="st26" x1="210.5" y1="441.4" x2="190.3" y2="441.4"/>
				<g>
					<polygon class="st18" points="208.8,439.3 208.5,439.7 210.3,441.4 208.5,443 208.8,443.4 211,441.4 					"/>
				</g>
			</g>
		</g>
		<g>
			<g>
				<line class="st26" x1="210.5" y1="470.8" x2="190.3" y2="470.8"/>
				<g>
					<polygon class="st18" points="208.8,468.7 208.5,469.1 210.3,470.8 208.5,472.4 208.8,472.8 211,470.8 					"/>
				</g>
			</g>
		</g>
		<g>
			<g>
				<line class="st26" x1="210.5" y1="529.6" x2="190.3" y2="529.6"/>
				<g>
					<polygon class="st18" points="208.8,527.5 208.5,527.9 210.3,529.6 208.5,531.2 208.8,531.6 211,529.6 					"/>
				</g>
			</g>
		</g>
		<g>
			<g>
				<line class="st26" x1="210.5" y1="583.8" x2="190.3" y2="583.8"/>
				<g>
					<polygon class="st18" points="208.8,581.7 208.5,582.1 210.3,583.8 208.5,585.4 208.8,585.8 211,583.8 					"/>
				</g>
			</g>
		</g>
		<g>
			<g>
				<line class="st26" x1="210.5" y1="609" x2="190.3" y2="609"/>
				<g>
					<polygon class="st18" points="208.8,606.9 208.5,607.3 210.3,609 208.5,610.6 208.8,611 211,609 					"/>
				</g>
			</g>
		</g>
		<g>
			<g>
				<line class="st26" x1="210.5" y1="636.5" x2="190.3" y2="636.5"/>
				<g>
					<polygon class="st18" points="208.8,634.5 208.5,634.9 210.3,636.5 208.5,638.2 208.8,638.6 211,636.5 					"/>
				</g>
			</g>
		</g>
		<polyline class="st26" points="227.7,601.2 223,601.2 223,616.7 227.7,616.7 		"/>
	</g>
</g>
</svg>
