<?xml version="1.0" encoding="utf-8"?>
<!-- Generator: Adobe Illustrator 19.2.1, SVG Export Plug-In . SVG Version: 6.00 Build 0)  -->
<svg version="1.1" id="Layer_1" xmlns="http://www.w3.org/2000/svg" xmlns:xlink="http://www.w3.org/1999/xlink" x="0px" y="0px"
	 viewBox="0 0 1140 500" style="enable-background:new 0 0 1140 500;" xml:space="preserve">
<style type="text/css">
	.st0{font-family:'SourceSansPro-Regular';}
	.st1{font-size:10px;}
	.st2{fill:#F4F4F4;stroke:#FDFDFD;stroke-miterlimit:10;}
	.st3{fill:none;stroke:#3CEEED;stroke-width:10;stroke-miterlimit:10;}
	.st4{opacity:0.7;fill:none;stroke:#3CEEED;stroke-width:10;stroke-miterlimit:10;enable-background:new    ;}
	.st5{opacity:0.5;fill:none;stroke:#3CEEED;stroke-width:10;stroke-miterlimit:10;enable-background:new    ;}
	.st6{opacity:0.3;fill:none;stroke:#3CEEED;stroke-width:10;stroke-miterlimit:10;enable-background:new    ;}
	.st7{fill:none;stroke:#373737;stroke-linejoin:round;}
	.st8{font-family:'SourceSansPro-Bold';}
	.st9{fill:none;stroke:#3CEEED;stroke-miterlimit:10;}
	.st10{font-family:'SourceSansPro-Light';}
	.st11{fill:none;stroke:#000000;stroke-miterlimit:10;}
	.st12{fill:#373737;}
	.st13{font-size:12px;}
	.st14{fill:none;stroke:#373737;stroke-width:0.9854;}
	.st15{fill:none;stroke:#373737;stroke-width:10;stroke-miterlimit:10;}
	.st16{opacity:0.8;fill:none;stroke:#373737;stroke-width:10;stroke-miterlimit:10;enable-background:new    ;}
	.st17{opacity:0.5;fill:none;stroke:#373737;stroke-width:10;stroke-miterlimit:10;enable-background:new    ;}
	.st18{opacity:0.3;fill:none;stroke:#373737;stroke-width:10;stroke-miterlimit:10;enable-background:new    ;}
	.st19{fill:none;stroke:#373737;stroke-width:0.5;stroke-linejoin:round;}
	.st20{fill:#FFFFFF;}
</style>
<g id="roba_di_lato">
</g>
<g id="Layer_1_1_">
</g>
<g id="outliers">
</g>
<g id="numeri">
</g>
<g id="roba_sotto">
</g>
<g>
	<g id="boxplot">
		<g>
			<g transform="translate(0,0)">
				<g transform="translate(0,313.5660580021482)">
					<text transform="matrix(1 0 0 1 210.4779 59.312)" class="st0 st1">0.1</text>
				</g>
				<g transform="translate(0,313.5660580021482)">
					<text transform="matrix(1 0 0 1 210.4779 105.746)" class="st0 st1">0.0</text>
				</g>
				<g transform="translate(0,266.30504833512356)">
					<text transform="matrix(1 0 0 1 210.4779 59.3121)" class="st0 st1">0.2</text>
				</g>
				<g transform="translate(0,219.0440386680988)">
					<text transform="matrix(1 0 0 1 210.4779 59.312)" class="st0 st1">0.3</text>
				</g>
				<g transform="translate(0,171.78302900107406)">
					<text transform="matrix(1 0 0 1 210.4779 59.3121)" class="st0 st1">0.4</text>
				</g>
				<g transform="translate(0,124.52201933404938)">
					<text transform="matrix(1 0 0 1 210.4779 59.3121)" class="st0 st1">0.5</text>
				</g>
				<g transform="translate(0,77.2610096670247)">
					<text transform="matrix(1 0 0 1 210.4779 59.312)" class="st0 st1">0.6</text>
					<text transform="matrix(1 0 0 1 210.4779 11.312)" class="st0 st1">0.7</text>
				</g>
				<rect x="233.2" y="369.4" class="st2" width="900" height="46.1"/>
				<rect x="233.2" y="322.3" class="st2" width="900" height="47.1"/>
				<rect x="233.2" y="274.6" class="st2" width="900" height="47.7"/>
				<rect x="233.2" y="227.4" class="st2" width="900" height="47.3"/>
				<rect x="233.2" y="180.1" class="st2" width="900" height="47.3"/>
				<rect x="233.2" y="132.8" class="st2" width="900" height="47.3"/>
				<rect x="233.2" y="85.5" class="st2" width="900" height="47.3"/>
			</g>
			<line class="st3" x1="244.7" y1="321.8" x2="244.7" y2="227.3"/>
			<line class="st4" x1="244.7" y1="369.1" x2="244.7" y2="321.8"/>
			<line class="st5" x1="244.7" y1="399.8" x2="244.7" y2="369.1"/>
			<line class="st6" x1="244.7" y1="415.5" x2="244.7" y2="399.8"/>
			<line class="st3" x1="312.7" y1="274.5" x2="312.7" y2="180"/>
			<line class="st4" x1="312.7" y1="321.8" x2="312.7" y2="274.5"/>
			<line class="st5" x1="312.7" y1="383.2" x2="312.7" y2="321.8"/>
			<line class="st6" x1="312.7" y1="392.7" x2="312.7" y2="383.2"/>
			<line class="st3" x1="380.7" y1="360.8" x2="380.7" y2="321.8"/>
			<line class="st4" x1="380.7" y1="384.4" x2="380.7" y2="360.8"/>
			<line class="st5" x1="380.7" y1="395" x2="380.7" y2="384.4"/>
			<line class="st6" x1="380.7" y1="406.9" x2="380.7" y2="395"/>
			<line class="st3" x1="448.7" y1="381.8" x2="448.7" y2="369.1"/>
			<line class="st4" x1="448.7" y1="394.6" x2="448.7" y2="381.8"/>
			<line class="st5" x1="448.7" y1="401" x2="448.7" y2="394.6"/>
			<line class="st6" x1="448.7" y1="406.9" x2="448.7" y2="401"/>
			<line class="st3" x1="516.7" y1="369.1" x2="516.7" y2="340.7"/>
			<line class="st4" x1="516.7" y1="392.7" x2="516.7" y2="369.1"/>
			<line class="st5" x1="516.7" y1="404.5" x2="516.7" y2="392.7"/>
			<line class="st6" x1="516.7" y1="411.6" x2="516.7" y2="404.5"/>
			<line class="st3" x1="584.7" y1="350.2" x2="584.7" y2="298.2"/>
			<line class="st4" x1="584.7" y1="378.5" x2="584.7" y2="350.2"/>
			<line class="st5" x1="584.7" y1="405" x2="584.7" y2="378.5"/>
			<line class="st6" x1="584.7" y1="406.9" x2="584.7" y2="405"/>
			<line class="st3" x1="652.7" y1="357.2" x2="652.7" y2="298.2"/>
			<line class="st4" x1="652.7" y1="394.6" x2="652.7" y2="357.2"/>
			<line class="st5" x1="652.7" y1="411.6" x2="652.7" y2="394.6"/>
			<line class="st3" x1="720.7" y1="227.3" x2="720.7" y2="85.5"/>
			<line class="st4" x1="720.7" y1="321.8" x2="720.7" y2="227.3"/>
			<line class="st5" x1="720.7" y1="369.1" x2="720.7" y2="321.8"/>
			<line class="st6" x1="720.7" y1="392.7" x2="720.7" y2="369.1"/>
			<line class="st3" x1="788.7" y1="180" x2="788.7" y2="132.8"/>
			<line class="st4" x1="788.7" y1="359.6" x2="788.7" y2="180"/>
			<line class="st5" x1="788.7" y1="391.3" x2="788.7" y2="359.6"/>
			<line class="st6" x1="788.7" y1="402.1" x2="788.7" y2="391.3"/>
			<line class="st3" x1="856.7" y1="321.8" x2="856.7" y2="274.5"/>
			<line class="st4" x1="856.7" y1="369.1" x2="856.7" y2="321.8"/>
			<line class="st5" x1="856.7" y1="392.7" x2="856.7" y2="369.1"/>
			<line class="st6" x1="856.7" y1="406.9" x2="856.7" y2="392.7"/>
			<line class="st3" x1="924.7" y1="357.2" x2="924.7" y2="321.8"/>
			<line class="st4" x1="924.7" y1="392.7" x2="924.7" y2="357.2"/>
			<line class="st3" x1="992.7" y1="310" x2="992.7" y2="274.5"/>
			<line class="st4" x1="992.7" y1="344.2" x2="992.7" y2="310"/>
			<line class="st5" x1="992.7" y1="360.2" x2="992.7" y2="344.2"/>
			<line class="st6" x1="992.7" y1="392.7" x2="992.7" y2="360.2"/>
			<line class="st4" x1="1060.7" y1="312.3" x2="1060.7" y2="298.2"/>
			<line class="st5" x1="1060.7" y1="321.8" x2="1060.7" y2="312.3"/>
			<line class="st3" x1="1128.7" y1="268.6" x2="1128.7" y2="180"/>
			<line class="st4" x1="1128.7" y1="310" x2="1128.7" y2="268.6"/>
			<line class="st5" x1="1128.7" y1="331.2" x2="1128.7" y2="310"/>
			<line class="st6" x1="1128.7" y1="359.6" x2="1128.7" y2="331.2"/>
			<g>
				<g>
					<g>
						<g>
							<line class="st7" x1="383.5" y1="253.7" x2="377.9" y2="248.1"/>
							<line class="st7" x1="383.5" y1="248.1" x2="377.9" y2="253.7"/>
						</g>
					</g>
				</g>
			</g>
			<g>
				<g>
					<g>
						<g>
							<line class="st7" x1="383.5" y1="253.7" x2="377.9" y2="248.1"/>
							<line class="st7" x1="383.5" y1="248.1" x2="377.9" y2="253.7"/>
						</g>
					</g>
				</g>
			</g>
			<g>
				<g>
					<g>
						<g>
							<line class="st7" x1="383.5" y1="230.1" x2="377.9" y2="224.5"/>
							<line class="st7" x1="383.5" y1="224.5" x2="377.9" y2="230.1"/>
						</g>
					</g>
				</g>
			</g>
			<g>
				<g>
					<g>
						<g>
							<line class="st7" x1="383.5" y1="182.8" x2="377.9" y2="177.2"/>
							<line class="st7" x1="383.5" y1="177.2" x2="377.9" y2="182.8"/>
						</g>
					</g>
				</g>
			</g>
			<g>
				<g>
					<g>
						<g>
							<line class="st7" x1="519.5" y1="182.8" x2="513.9" y2="177.2"/>
							<line class="st7" x1="519.5" y1="177.2" x2="513.9" y2="182.8"/>
						</g>
					</g>
				</g>
			</g>
			<g>
				<g>
					<g>
						<g>
							<line class="st7" x1="587.5" y1="206.4" x2="581.9" y2="200.8"/>
							<line class="st7" x1="587.5" y1="200.8" x2="581.9" y2="206.4"/>
						</g>
					</g>
				</g>
			</g>
			<g>
				<g>
					<g>
						<g>
							<line class="st7" x1="655.5" y1="230.1" x2="649.9" y2="224.5"/>
							<line class="st7" x1="655.5" y1="224.5" x2="649.9" y2="230.1"/>
						</g>
					</g>
				</g>
			</g>
			<g>
				<g>
					<g>
						<g>
							<line class="st7" x1="859.5" y1="182.8" x2="853.9" y2="177.2"/>
							<line class="st7" x1="859.5" y1="177.2" x2="853.9" y2="182.8"/>
						</g>
					</g>
				</g>
			</g>
			<g>
				<g>
					<g>
						<g>
							<line class="st7" x1="927.5" y1="301" x2="921.9" y2="295.4"/>
							<line class="st7" x1="927.5" y1="295.4" x2="921.9" y2="301"/>
						</g>
					</g>
				</g>
			</g>
			<g>
				<g>
					<g>
						<g>
							<line class="st7" x1="927.5" y1="182.8" x2="921.9" y2="177.2"/>
							<line class="st7" x1="927.5" y1="177.2" x2="921.9" y2="182.8"/>
						</g>
					</g>
				</g>
			</g>
			<g>
				<g>
					<g>
						<g>
							<line class="st7" x1="995.5" y1="182.8" x2="989.9" y2="177.2"/>
							<line class="st7" x1="995.5" y1="177.2" x2="989.9" y2="182.8"/>
						</g>
					</g>
				</g>
			</g>
			<g>
				<g>
					<g>
						<g>
							<line class="st7" x1="1063.5" y1="371.9" x2="1057.9" y2="366.3"/>
							<line class="st7" x1="1063.5" y1="366.3" x2="1057.9" y2="371.9"/>
						</g>
					</g>
				</g>
			</g>
			<g>
				<g>
					<g>
						<g>
							<line class="st7" x1="1063.5" y1="111.9" x2="1057.9" y2="106.3"/>
							<line class="st7" x1="1063.5" y1="106.3" x2="1057.9" y2="111.9"/>
						</g>
					</g>
				</g>
			</g>
			<g transform="translate(0,440)">
				<text transform="matrix(1 0 0 1 238.4857 55.4721)" class="st8 st1">25</text>
				<text transform="matrix(1 0 0 1 309.8226 55.4721)" class="st8 st1">5</text>
				<text transform="matrix(1 0 0 1 374.4857 55.4721)" class="st8 st1">28</text>
				<text transform="matrix(1 0 0 1 445.8226 55.4721)" class="st8 st1">3</text>
				<text transform="matrix(1 0 0 1 510.4857 55.4721)" class="st8 st1">13</text>
				<text transform="matrix(1 0 0 1 578.4857 55.4721)" class="st8 st1">21</text>
				<text transform="matrix(1 0 0 1 646.4857 55.4721)" class="st8 st1">17</text>
				<text transform="matrix(1 0 0 1 714.4857 55.4721)" class="st8 st1">21</text>
				<text transform="matrix(1 0 0 1 785.8226 55.4721)" class="st8 st1">5</text>
				<text transform="matrix(1 0 0 1 850.4857 55.4721)" class="st8 st1">23</text>
				<text transform="matrix(1 0 0 1 918.4856 55.4721)" class="st8 st1">12</text>
				<text transform="matrix(1 0 0 1 989.8225 55.4721)" class="st8 st1">8</text>
				<text transform="matrix(1 0 0 1 1057.8225 55.4721)" class="st8 st1">5</text>
				<text transform="matrix(1 0 0 1 1125.8225 55.4721)" class="st8 st1">4</text>
			</g>
			<g transform="translate(0,410)">
				<circle class="st9" cx="244.2" cy="55.5" r="13.9"/>
				<circle class="st9" cx="312.2" cy="55.5" r="3.8"/>
				<circle class="st9" cx="380.2" cy="55.5" r="15"/>
				<circle class="st9" cx="448.2" cy="55.5" r="2"/>
				<circle class="st9" cx="516.2" cy="55.5" r="8.8"/>
				<circle class="st9" cx="584.2" cy="55.5" r="12.4"/>
				<circle class="st9" cx="652.2" cy="55.5" r="10.7"/>
				<circle class="st9" cx="720.2" cy="55.5" r="12.4"/>
				<circle class="st9" cx="788.2" cy="55.5" r="3.8"/>
				<circle class="st9" cx="856.2" cy="55.5" r="13.2"/>
				<circle class="st9" cx="924.2" cy="55.5" r="8.3"/>
				<circle class="st9" cx="992.2" cy="55.5" r="6"/>
				<circle class="st9" cx="1060.2" cy="55.5" r="3.8"/>
				<circle class="st9" cx="1128.2" cy="55.5" r="3"/>
			</g>
			<g transform="translate(0,370)">
				<g transform="translate(8.5,0)">
					<text transform="matrix(1 0 0 1 225.8119 72.9921)" class="st10 st1">2000</text>
				</g>
				<g transform="translate(76.5,0)">
					<text transform="matrix(1 0 0 1 225.8119 72.9921)" class="st10 st1">2001</text>
				</g>
				<g transform="translate(144.5,0)">
					<text transform="matrix(1 0 0 1 225.8118 72.9921)" class="st10 st1">2002</text>
				</g>
				<g transform="translate(212.5,0)">
					<text transform="matrix(1 0 0 1 225.8118 72.9921)" class="st10 st1">2003</text>
				</g>
				<g transform="translate(280.5,0)">
					<text transform="matrix(1 0 0 1 225.8118 72.9921)" class="st10 st1">2004</text>
				</g>
				<g transform="translate(348.5,0)">
					<text transform="matrix(1 0 0 1 225.8119 72.9921)" class="st10 st1">2005</text>
				</g>
				<g transform="translate(416.5,0)">
					<text transform="matrix(1 0 0 1 225.8119 72.9921)" class="st10 st1">2006</text>
				</g>
				<g transform="translate(484.5,0)">
					<text transform="matrix(1 0 0 1 225.8119 72.9921)" class="st10 st1">2007</text>
				</g>
				<g transform="translate(552.5,0)">
					<text transform="matrix(1 0 0 1 225.8119 72.9921)" class="st10 st1">2008</text>
				</g>
				<g transform="translate(620.5,0)">
					<text transform="matrix(1 0 0 1 225.8118 72.9921)" class="st10 st1">2009</text>
				</g>
				<g transform="translate(688.5,0)">
					<text transform="matrix(1 0 0 1 225.8118 72.9921)" class="st10 st1">2010</text>
				</g>
				<g transform="translate(756.5,0)">
					<text transform="matrix(1 0 0 1 226.2571 72.9921)" class="st10 st1">2011</text>
				</g>
				<g transform="translate(824.5,0)">
					<text transform="matrix(1 0 0 1 225.8118 72.9921)" class="st10 st1">2012</text>
				</g>
				<g transform="translate(892.5,0)">
					<text transform="matrix(1 0 0 1 225.8118 72.9921)" class="st10 st1">2013</text>
				</g>
			</g>
			<line class="st11" x1="232.8" y1="369.1" x2="255.5" y2="369.1"/>
			<line class="st11" x1="301.3" y1="321.8" x2="324" y2="321.8"/>
			<line class="st11" x1="369.3" y1="384.4" x2="392" y2="384.4"/>
			<line class="st11" x1="437.3" y1="395" x2="460" y2="395"/>
			<line class="st11" x1="505.3" y1="392.7" x2="528" y2="392.7"/>
			<line class="st11" x1="573.3" y1="378.5" x2="596" y2="378.5"/>
			<line class="st11" x1="641.3" y1="395" x2="664" y2="395"/>
			<line class="st11" x1="709.3" y1="321.8" x2="732" y2="321.8"/>
			<line class="st11" x1="777.3" y1="359.6" x2="800" y2="359.6"/>
			<line class="st11" x1="845.3" y1="369.1" x2="868" y2="369.1"/>
			<line class="st11" x1="913.3" y1="392.7" x2="936" y2="392.7"/>
			<line class="st11" x1="981.3" y1="344.2" x2="1004" y2="344.2"/>
			<line class="st11" x1="1049.3" y1="312.3" x2="1072" y2="312.3"/>
			<line class="st11" x1="1117.3" y1="310" x2="1140" y2="310"/>
		</g>
	</g>
	<g id="mediane">
		<g id="mediane_1_">
			<g>
				<text transform="matrix(1 0 0 1 3.051758e-04 147.2156)" class="st12 st10 st13">outliers</text>
				<text transform="matrix(1 0 0 1 3.051758e-04 322.5171)" class="st12 st10 st13">25% of</text>
				<text transform="matrix(1 0 0 1 3.051758e-04 336.9171)" class="st12 st10 st13">reports</text>
				<text transform="matrix(1 0 0 1 1.220703e-04 381.3164)" class="st12 st10 st13">25% of</text>
				<text transform="matrix(1 0 0 1 1.220703e-04 395.7163)" class="st12 st10 st13">reports</text>
				<text transform="matrix(1 0 0 1 1.220703e-04 442.7118)" class="st12 st10 st13">year</text>
				<text transform="matrix(1 0 0 1 0 205.0164)" class="st12 st10 st13">25% of</text>
				<text transform="matrix(1 0 0 1 0 219.4165)" class="st12 st10 st13">reports</text>
				<text transform="matrix(1 0 0 1 -1.831055e-04 263.7668)" class="st12 st10 st13">25% of</text>
				<text transform="matrix(1 0 0 1 -1.831055e-04 278.1667)" class="st12 st10 st13">reports</text>
				<text transform="matrix(1 0 0 1 3.051758e-04 96.9529)" class="st12 st8 st13">LEGEND</text>
				<text transform="matrix(1 0 0 1 0 300.3522)" class="st12 st10 st13">median</text>
				<g>
					<text transform="matrix(1 0 0 1 -1.220703e-04 481.5553)" class="st12 st10 st13">n° of</text>
					<text transform="matrix(1 0 0 1 -1.220703e-04 495.9553)" class="st12 st10 st13">reports</text>
				</g>
				<circle class="st14" cx="100.3" cy="464.7" r="5.6"/>
				<text transform="matrix(1 0 0 1 91.0204 442.169)" class="st12 st10 st1">2000</text>
				<line class="st15" x1="100.3" y1="238.4" x2="100.3" y2="179.6"/>
				<line class="st15" x1="100.3" y1="238.4" x2="100.3" y2="179.6"/>
				<line class="st16" x1="100.3" y1="297.1" x2="100.3" y2="238.4"/>
				<line class="st15" x1="100.3" y1="238.4" x2="100.3" y2="179.6"/>
				<line class="st17" x1="100.3" y1="355.9" x2="100.3" y2="297.1"/>
				<line class="st18" x1="100.3" y1="414.7" x2="100.3" y2="355.9"/>
				<line class="st19" x1="88.3" y1="297.1" x2="112.3" y2="297.1"/>
				<text transform="matrix(1 0 0 1 97.7964 496.1699)" class="st12 st8 st1">4</text>
				<line class="st19" x1="102.3" y1="146.8" x2="98.3" y2="142.8"/>
				<line class="st19" x1="102.3" y1="142.8" x2="98.3" y2="146.8"/>
				<g>
					<g>
						<line class="st19" x1="73.8" y1="144.8" x2="53.6" y2="144.8"/>
						<g>
							<polygon class="st12" points="72.1,142.7 71.8,143.1 73.6,144.8 71.8,146.4 72.1,146.8 74.3,144.8 							"/>
						</g>
					</g>
				</g>
				<g>
					<g>
						<line class="st19" x1="73.8" y1="209" x2="53.6" y2="209"/>
						<g>
							<polygon class="st12" points="72.1,206.9 71.8,207.3 73.6,209 71.8,210.6 72.1,211 74.3,209 							"/>
						</g>
					</g>
				</g>
				<g>
					<g>
						<line class="st19" x1="73.8" y1="268.5" x2="53.6" y2="268.5"/>
						<g>
							<polygon class="st12" points="72.1,266.5 71.8,266.8 73.6,268.5 71.8,270.2 72.1,270.6 74.3,268.5 							"/>
						</g>
					</g>
				</g>
				<g>
					<g>
						<line class="st19" x1="73.8" y1="297.1" x2="53.6" y2="297.1"/>
						<g>
							<polygon class="st12" points="72.1,295 71.8,295.4 73.6,297.1 71.8,298.7 72.1,299.1 74.3,297.1 							"/>
						</g>
					</g>
				</g>
				<g>
					<g>
						<line class="st19" x1="73.8" y1="326.5" x2="53.6" y2="326.5"/>
						<g>
							<polygon class="st12" points="72.1,324.4 71.8,324.8 73.6,326.5 71.8,328.1 72.1,328.5 74.3,326.5 							"/>
						</g>
					</g>
				</g>
				<g>
					<g>
						<line class="st19" x1="73.8" y1="385.3" x2="53.6" y2="385.3"/>
						<g>
							<polygon class="st12" points="72.1,383.2 71.8,383.6 73.6,385.3 71.8,386.9 72.1,387.3 74.3,385.3 							"/>
						</g>
					</g>
				</g>
				<g>
					<g>
						<line class="st19" x1="73.8" y1="439.5" x2="53.6" y2="439.5"/>
						<g>
							<polygon class="st12" points="72.1,437.4 71.8,437.8 73.6,439.5 71.8,441.1 72.1,441.5 74.3,439.5 							"/>
						</g>
					</g>
				</g>
				<g>
					<g>
						<line class="st19" x1="73.8" y1="464.7" x2="53.6" y2="464.7"/>
						<g>
							<polygon class="st12" points="72.1,462.6 71.8,463 73.6,464.7 71.8,466.3 72.1,466.7 74.3,464.7 							"/>
						</g>
					</g>
				</g>
				<g>
					<g>
						<line class="st19" x1="73.8" y1="492.2" x2="53.6" y2="492.2"/>
						<g>
							<polygon class="st12" points="72.1,490.2 71.8,490.6 73.6,492.2 71.8,493.9 72.1,494.3 74.3,492.2 							"/>
						</g>
					</g>
				</g>
				<polyline class="st19" points="91,456.9 86.3,456.9 86.3,472.4 91,472.4 				"/>
			</g>
		</g>
	</g>
	<g>
		<g>
			<g>
				<line class="st19" x1="151.5" y1="413" x2="151.5" y2="103.1"/>
				<g>
					<polygon class="st12" points="153.5,104.8 153.2,105.1 151.5,103.3 149.8,105.1 149.5,104.8 151.5,102.6 					"/>
				</g>
			</g>
		</g>
		<g>
			<rect x="123.3" y="230.6" class="st20" width="60.7" height="39.7"/>
			<g>
				<text transform="matrix(1 0 0 1 135 244.8614)" class="st12 st10 st13">dosage</text>
				<text transform="matrix(1 0 0 1 135 259.2614)" class="st12 st10 st13">(grams)</text>
			</g>
		</g>
	</g>
</g>
</svg>
