<?xml version="1.0" encoding="utf-8"?>
<!-- Generator: Adobe Illustrator 19.1.0, SVG Export Plug-In . SVG Version: 6.00 Build 0)  -->
<svg version="1.1" xmlns="http://www.w3.org/2000/svg" xmlns:xlink="http://www.w3.org/1999/xlink" x="0px" y="0px"
	 viewBox="132 170.9 1140 500" style="enable-background:new 132 170.9 1140 500;" xml:space="preserve">
<style type="text/css">
	.st0{opacity:3.000000e-02;}
	.st1{opacity:6.000000e-02;}
	.st2{opacity:9.000000e-02;}
	.st3{opacity:0.15;}
	.st4{opacity:0.21;}
	.st5{opacity:0.24;}
	.st6{opacity:0.27;}
	.st7{opacity:0.3;}
	.st8{opacity:0.33;}
	.st9{opacity:0.18;}
	.st10{opacity:0.12;}
	.st11{fill:none;stroke:#373737;stroke-linejoin:round;}
	.st12{font-family:'SourceSansPro-Regular';}
	.st13{font-size:10px;}
	.st14{font-family:'SourceSansPro-Bold';}
	.st15{fill:none;stroke:#3CEEED;stroke-miterlimit:10;}
	.st16{font-family:'SourceSansPro-Light';}
	.st17{fill:none;stroke:#3CEEED;stroke-width:10;stroke-miterlimit:10;}
	.st18{opacity:0.7;fill:none;stroke:#3CEEED;stroke-width:10;stroke-miterlimit:10;}
	.st19{opacity:0.5;fill:none;stroke:#3CEEED;stroke-width:10;stroke-miterlimit:10;}
	.st20{opacity:0.3;fill:none;stroke:#3CEEED;stroke-width:10;stroke-miterlimit:10;}
	.st21{fill:#FFFFFF;stroke:#000000;stroke-miterlimit:10;}
	.st22{fill:#373737;}
	.st23{font-size:12px;}
	.st24{enable-background:new    ;}
	.st25{fill:none;stroke:#373737;stroke-width:0.9854;}
	.st26{fill:none;stroke:#373737;stroke-width:10;stroke-miterlimit:10;}
	.st27{opacity:0.8;fill:none;stroke:#373737;stroke-width:10;stroke-miterlimit:10;enable-background:new    ;}
	.st28{opacity:0.5;fill:none;stroke:#373737;stroke-width:10;stroke-miterlimit:10;enable-background:new    ;}
	.st29{opacity:0.3;fill:none;stroke:#373737;stroke-width:10;stroke-miterlimit:10;enable-background:new    ;}
	.st30{fill:none;stroke:#373737;stroke-width:0.5;stroke-linejoin:round;}
</style>
<g id="livelli">
</g>
<g id="Layer_1">
</g>
<g id="outliers">
</g>
<g id="number">
</g>
<g id="roba_di_lato">
</g>
<g id="roba_sotto">
</g>
<g id="boxplot">
</g>
<g id="median">
	<g>
		<rect x="361.7" y="533.5" class="st0" width="900" height="27.4"/>
		<rect x="361.7" y="504.7" class="st1" width="900" height="28.8"/>
		<rect x="361.7" y="475.9" class="st2" width="900" height="28.8"/>
		<rect x="361.7" y="418.3" class="st3" width="900" height="28.8"/>
		<rect x="361.7" y="360.7" class="st4" width="900" height="28.8"/>
		<polyline class="st5" points="361.7,331.9 1261.7,331.9 1261.7,360.7 361.7,360.7 		"/>
		<rect x="361.7" y="303" class="st6" width="900" height="28.9"/>
		<rect x="361.7" y="274.2" class="st7" width="900" height="28.9"/>
		<rect x="361.7" y="245.3" class="st8" width="900" height="28.9"/>
		<rect x="361.7" y="389.5" class="st9" width="900" height="28.8"/>
		<rect x="361.7" y="447.1" class="st10" width="900" height="28.8"/>
		<g>
			<g>
				<g>
					<g>
						<g>
							<line class="st11" x1="446.8" y1="492.5" x2="441.2" y2="486.9"/>
							<line class="st11" x1="446.8" y1="486.9" x2="441.2" y2="492.5"/>
						</g>
					</g>
				</g>
			</g>
		</g>
		<g>
			<g>
				<g>
					<g>
						<g>
							<line class="st11" x1="594.8" y1="233.7" x2="589.2" y2="228.1"/>
							<line class="st11" x1="594.8" y1="228.1" x2="589.2" y2="233.7"/>
						</g>
					</g>
				</g>
			</g>
		</g>
		<g>
			<g>
				<g>
					<g>
						<g>
							<line class="st11" x1="668.8" y1="305.6" x2="663.2" y2="300"/>
							<line class="st11" x1="668.8" y1="300" x2="663.2" y2="305.6"/>
						</g>
					</g>
				</g>
			</g>
		</g>
		<g>
			<g>
				<g>
					<g>
						<g>
							<line class="st11" x1="668.8" y1="276.8" x2="663.2" y2="271.2"/>
							<line class="st11" x1="668.8" y1="271.2" x2="663.2" y2="276.8"/>
						</g>
					</g>
				</g>
			</g>
		</g>
		<g>
			<g>
				<g>
					<g>
						<g>
							<line class="st11" x1="742.8" y1="348.7" x2="737.2" y2="343.1"/>
							<line class="st11" x1="742.8" y1="343.1" x2="737.2" y2="348.7"/>
						</g>
					</g>
				</g>
			</g>
		</g>
		<g>
			<g>
				<g>
					<g>
						<g>
							<line class="st11" x1="742.8" y1="276.8" x2="737.2" y2="271.2"/>
							<line class="st11" x1="742.8" y1="271.2" x2="737.2" y2="276.8"/>
						</g>
					</g>
				</g>
			</g>
		</g>
		<g>
			<g>
				<g>
					<g>
						<g>
							<line class="st11" x1="816.8" y1="348.7" x2="811.2" y2="343.1"/>
							<line class="st11" x1="816.8" y1="343.1" x2="811.2" y2="348.7"/>
						</g>
					</g>
				</g>
			</g>
		</g>
		<g>
			<g>
				<g>
					<g>
						<g>
							<line class="st11" x1="816.8" y1="276.8" x2="811.2" y2="271.2"/>
							<line class="st11" x1="816.8" y1="271.2" x2="811.2" y2="276.8"/>
						</g>
					</g>
				</g>
			</g>
		</g>
		<g>
			<g>
				<g>
					<g>
						<g>
							<line class="st11" x1="964.8" y1="420.6" x2="959.2" y2="415"/>
							<line class="st11" x1="964.8" y1="415" x2="959.2" y2="420.6"/>
						</g>
					</g>
				</g>
			</g>
		</g>
		<g>
			<g>
				<g>
					<g>
						<g>
							<line class="st11" x1="1038.8" y1="521.3" x2="1033.2" y2="515.7"/>
							<line class="st11" x1="1038.8" y1="515.7" x2="1033.2" y2="521.3"/>
						</g>
					</g>
				</g>
			</g>
		</g>
		<g>
			<g>
				<g>
					<g>
						<g>
							<line class="st11" x1="1038.8" y1="420.6" x2="1033.2" y2="415"/>
							<line class="st11" x1="1038.8" y1="415" x2="1033.2" y2="420.6"/>
						</g>
					</g>
				</g>
			</g>
		</g>
		<g transform="translate(0,0)">
			<g transform="translate(0,331.96078431372547)">
				<text transform="matrix(1 0 0 1 347.8386 204.73)" class="st12 st13">2</text>
				<text transform="matrix(1 0 0 1 347.8386 230.7302)" class="st12 st13">0</text>
			</g>
			<g transform="translate(0,303.202614379085)">
				<text transform="matrix(1 0 0 1 347.8386 204.73)" class="st12 st13">4</text>
			</g>
			<g transform="translate(0,274.4444444444444)">
				<text transform="matrix(1 0 0 1 347.8386 204.73)" class="st12 st13">6</text>
			</g>
			<g transform="translate(0,245.6862745098039)">
				<text transform="matrix(1 0 0 1 347.8386 204.73)" class="st12 st13">8</text>
			</g>
			<g transform="translate(0,216.92810457516342)">
				<text transform="matrix(1 0 0 1 341.1648 204.73)" class="st12 st13">10</text>
			</g>
			<g transform="translate(0,188.16993464052288)">
				<text transform="matrix(1 0 0 1 341.1648 204.73)" class="st12 st13">12</text>
			</g>
			<g transform="translate(0,159.41176470588238)">
				<text transform="matrix(1 0 0 1 341.1648 204.73)" class="st12 st13">14</text>
			</g>
			<g transform="translate(0,130.6535947712418)">
				<text transform="matrix(1 0 0 1 341.1648 204.73)" class="st12 st13">16</text>
			</g>
			<g transform="translate(0,101.89542483660132)">
				<text transform="matrix(1 0 0 1 341.1648 204.73)" class="st12 st13">18</text>
			</g>
			<g transform="translate(0,73.13725490196077)">
				<text transform="matrix(1 0 0 1 341.1648 204.73)" class="st12 st13">20</text>
			</g>
			<g transform="translate(0,44.37908496732027)">
				<text transform="matrix(1 0 0 1 341.1648 204.73)" class="st12 st13">22</text>
			</g>
		</g>
		<g transform="translate(0,440)">
			<text transform="matrix(1 0 0 1 367.1755 200.89)" class="st14 st13">2</text>
			<text transform="matrix(1 0 0 1 441.1755 200.89)" class="st14 st13">4</text>
			<text transform="matrix(1 0 0 1 511.8386 200.89)" class="st14 st13">23</text>
			<text transform="matrix(1 0 0 1 585.8386 200.89)" class="st14 st13">19</text>
			<text transform="matrix(1 0 0 1 659.8386 200.89)" class="st14 st13">27</text>
			<text transform="matrix(1 0 0 1 733.8386 200.89)" class="st14 st13">34</text>
			<text transform="matrix(1 0 0 1 807.8386 200.89)" class="st14 st13">22</text>
			<text transform="matrix(1 0 0 1 885.1755 200.89)" class="st14 st13">8</text>
			<text transform="matrix(1 0 0 1 956.2839 200.89)" class="st14 st13">11</text>
			<text transform="matrix(1 0 0 1 1033.1755 200.89)" class="st14 st13">8</text>
			<text transform="matrix(1 0 0 1 1107.1755 200.89)" class="st14 st13">3</text>
			<text transform="matrix(1 0 0 1 1181.1755 200.89)" class="st14 st13">2</text>
			<text transform="matrix(1 0 0 1 1251.8386 200.89)" class="st14 st13">32</text>
		</g>
		<g transform="translate(0,410)">
			<circle class="st15" cx="369.5" cy="200.9" r="2"/>
			<circle class="st15" cx="443.5" cy="200.9" r="3.7"/>
			<circle class="st15" cx="517.5" cy="200.9" r="12"/>
			<circle class="st15" cx="591.5" cy="200.9" r="10.7"/>
			<circle class="st15" cx="665.5" cy="200.9" r="13.1"/>
			<circle class="st15" cx="739.5" cy="200.9" r="15"/>
			<circle class="st15" cx="813.5" cy="200.9" r="11.6"/>
			<circle class="st15" cx="887.5" cy="200.9" r="6.2"/>
			<circle class="st15" cx="961.5" cy="200.9" r="7.6"/>
			<circle class="st15" cx="1035.5" cy="200.9" r="6.2"/>
			<circle class="st15" cx="1109.5" cy="200.9" r="2.9"/>
			<circle class="st15" cx="1183.5" cy="200.9" r="2"/>
			<circle class="st15" cx="1257.5" cy="200.9" r="14.5"/>
		</g>
		<g transform="translate(0,370)">
			<g transform="translate(5.5,0)">
				<text transform="matrix(1 0 0 1 355.1648 218.41)" class="st16 st13">2002</text>
			</g>
			<g transform="translate(79.5,0)">
				<text transform="matrix(1 0 0 1 355.1648 218.41)" class="st16 st13">2003</text>
			</g>
			<g transform="translate(153.5,0)">
				<text transform="matrix(1 0 0 1 355.1648 218.41)" class="st16 st13">2004</text>
			</g>
			<g transform="translate(227.5,0)">
				<text transform="matrix(1 0 0 1 355.1648 218.41)" class="st16 st13">2005</text>
			</g>
			<g transform="translate(301.5,0)">
				<text transform="matrix(1 0 0 1 355.1648 218.41)" class="st16 st13">2006</text>
			</g>
			<g transform="translate(375.5,0)">
				<text transform="matrix(1 0 0 1 355.1648 218.41)" class="st16 st13">2007</text>
			</g>
			<g transform="translate(449.5,0)">
				<text transform="matrix(1 0 0 1 355.1648 218.41)" class="st16 st13">2008</text>
			</g>
			<g transform="translate(523.5,0)">
				<text transform="matrix(1 0 0 1 355.1648 218.41)" class="st16 st13">2009</text>
			</g>
			<g transform="translate(597.5,0)">
				<text transform="matrix(1 0 0 1 355.1648 218.41)" class="st16 st13">2010</text>
			</g>
			<g transform="translate(671.5,0)">
				<text transform="matrix(1 0 0 1 355.6101 218.41)" class="st16 st13">2011</text>
			</g>
			<g transform="translate(745.5,0)">
				<text transform="matrix(1 0 0 1 355.1648 218.41)" class="st16 st13">2012</text>
			</g>
			<g transform="translate(819.5,0)">
				<text transform="matrix(1 0 0 1 355.1648 218.41)" class="st16 st13">2013</text>
			</g>
			<g transform="translate(893.5,0)">
				<text transform="matrix(1 0 0 1 355.1648 218.41)" class="st16 st13">2014</text>
			</g>
		</g>
		<line class="st17" x1="370" y1="436" x2="370" y2="404.9"/>
		<line class="st18" x1="370" y1="467.2" x2="370" y2="436"/>
		<line class="st19" x1="370" y1="498.4" x2="370" y2="467.2"/>
		<line class="st20" x1="370" y1="529.5" x2="370" y2="498.4"/>
		<line class="st18" x1="444" y1="553" x2="444" y2="537.2"/>
		<line class="st19" x1="444" y1="556.9" x2="444" y2="553"/>
		<line class="st20" x1="444" y1="560.2" x2="444" y2="556.9"/>
		<line class="st17" x1="518" y1="417.8" x2="518" y2="345.9"/>
		<line class="st18" x1="518" y1="475.3" x2="518" y2="417.8"/>
		<line class="st19" x1="518" y1="509.1" x2="518" y2="475.3"/>
		<line class="st20" x1="518" y1="556.9" x2="518" y2="509.1"/>
		<line class="st17" x1="592" y1="407" x2="592" y2="274"/>
		<line class="st18" x1="592" y1="475.3" x2="592" y2="407"/>
		<line class="st19" x1="592" y1="496.9" x2="592" y2="475.3"/>
		<line class="st20" x1="592" y1="540" x2="592" y2="496.9"/>
		<line class="st17" x1="666" y1="453.8" x2="666" y2="345.9"/>
		<line class="st18" x1="666" y1="518.5" x2="666" y2="453.8"/>
		<line class="st19" x1="666" y1="532.9" x2="666" y2="518.5"/>
		<line class="st20" x1="666" y1="554.4" x2="666" y2="532.9"/>
		<line class="st17" x1="740" y1="450.2" x2="740" y2="389.1"/>
		<line class="st18" x1="740" y1="504.1" x2="740" y2="450.2"/>
		<line class="st19" x1="740" y1="518.5" x2="740" y2="504.1"/>
		<line class="st20" x1="740" y1="550.8" x2="740" y2="518.5"/>
		<line class="st17" x1="814" y1="473.5" x2="814" y2="417.8"/>
		<line class="st18" x1="814" y1="518.5" x2="814" y2="473.5"/>
		<line class="st19" x1="814" y1="537.7" x2="814" y2="518.5"/>
		<line class="st20" x1="814" y1="554.4" x2="814" y2="537.7"/>
		<line class="st17" x1="888" y1="410.6" x2="888" y2="374.7"/>
		<line class="st18" x1="888" y1="475.3" x2="888" y2="410.6"/>
		<line class="st19" x1="888" y1="504.1" x2="888" y2="475.3"/>
		<line class="st20" x1="888" y1="532.9" x2="888" y2="504.1"/>
		<line class="st17" x1="962" y1="489.7" x2="962" y2="461"/>
		<line class="st18" x1="962" y1="518.5" x2="962" y2="489.7"/>
		<line class="st19" x1="962" y1="532.9" x2="962" y2="518.5"/>
		<line class="st20" x1="962" y1="554.4" x2="962" y2="532.9"/>
		<line class="st17" x1="1036" y1="457.4" x2="1036" y2="446.6"/>
		<line class="st18" x1="1036" y1="461" x2="1036" y2="457.4"/>
		<line class="st19" x1="1036" y1="477.1" x2="1036" y2="461"/>
		<line class="st20" x1="1036" y1="504.1" x2="1036" y2="477.1"/>
		<line class="st17" x1="1110" y1="432.2" x2="1110" y2="389.1"/>
		<line class="st18" x1="1110" y1="475.3" x2="1110" y2="432.2"/>
		<line class="st19" x1="1110" y1="516.7" x2="1110" y2="475.3"/>
		<line class="st20" x1="1110" y1="558" x2="1110" y2="516.7"/>
		<line class="st17" x1="1258" y1="413.5" x2="1258" y2="274"/>
		<line class="st18" x1="1258" y1="500.5" x2="1258" y2="413.5"/>
		<line class="st19" x1="1258" y1="512.4" x2="1258" y2="500.5"/>
		<line class="st20" x1="1258" y1="553" x2="1258" y2="512.4"/>
		<line class="st21" x1="358.7" y1="467.2" x2="381.4" y2="467.2"/>
		<line class="st21" x1="432.7" y1="553" x2="455.4" y2="553"/>
		<line class="st21" x1="506.7" y1="475.3" x2="529.4" y2="475.3"/>
		<line class="st21" x1="580.7" y1="475.3" x2="603.4" y2="475.3"/>
		<line class="st21" x1="654.7" y1="518.5" x2="677.4" y2="518.5"/>
		<line class="st21" x1="728.7" y1="504.1" x2="751.4" y2="504.1"/>
		<line class="st21" x1="802.7" y1="518.5" x2="825.4" y2="518.5"/>
		<line class="st21" x1="876.7" y1="475.3" x2="899.4" y2="475.3"/>
		<line class="st21" x1="950.7" y1="518.5" x2="973.4" y2="518.5"/>
		<line class="st21" x1="1024.7" y1="461" x2="1047.4" y2="461"/>
		<line class="st21" x1="1098.7" y1="475.3" x2="1121.4" y2="475.3"/>
		<line class="st21" x1="1246.7" y1="500.5" x2="1269.4" y2="500.5"/>
	</g>
	<g>
		<text transform="matrix(1 0 0 1 136.7 291.5166)" class="st22 st16 st23">outliers</text>
		<text transform="matrix(1 0 0 1 136.7 466.818)" class="st24"><tspan x="0" y="0" class="st22 st16 st23">25% of</tspan><tspan x="0" y="14.4" class="st22 st16 st23">reports</tspan></text>
		<text transform="matrix(1 0 0 1 136.6998 525.6174)" class="st24"><tspan x="0" y="0" class="st22 st16 st23">25% of</tspan><tspan x="0" y="14.4" class="st22 st16 st23">reports</tspan></text>
		<text transform="matrix(1 0 0 1 136.6998 587.0127)" class="st22 st16 st23">year</text>
		<text transform="matrix(1 0 0 1 136.6997 349.3174)" class="st24"><tspan x="0" y="0" class="st22 st16 st23">25% of</tspan><tspan x="0" y="14.4" class="st22 st16 st23">reports</tspan></text>
		<text transform="matrix(1 0 0 1 136.6995 408.0677)" class="st24"><tspan x="0" y="0" class="st22 st16 st23">25% of</tspan><tspan x="0" y="14.4" class="st22 st16 st23">reports</tspan></text>
		<text transform="matrix(1 0 0 1 136.7 241.2538)" class="st22 st14 st23">LEGEND</text>
		<text transform="matrix(1 0 0 1 136.6997 444.6531)" class="st22 st16 st23">median</text>
		<g>
			<text transform="matrix(1 0 0 1 140.1996 625.8562)" class="st24"><tspan x="0" y="0" class="st22 st16 st23">n° of</tspan><tspan x="0" y="14.4" class="st22 st16 st23">reports</tspan></text>
		</g>
		<circle class="st25" cx="237" cy="609" r="5.6"/>
		<text transform="matrix(1 0 0 1 227.7201 586.4699)" class="st22 st16 st13">2000</text>
		<line class="st26" x1="237" y1="382.7" x2="237" y2="323.9"/>
		<line class="st26" x1="237" y1="382.7" x2="237" y2="323.9"/>
		<line class="st27" x1="237" y1="441.4" x2="237" y2="382.7"/>
		<line class="st26" x1="237" y1="382.7" x2="237" y2="323.9"/>
		<line class="st28" x1="237" y1="500.2" x2="237" y2="441.4"/>
		<line class="st29" x1="237" y1="559" x2="237" y2="500.2"/>
		<line class="st30" x1="225" y1="441.4" x2="249" y2="441.4"/>
		<text transform="matrix(1 0 0 1 234.4961 640.4708)" class="st22 st14 st13">4</text>
		<line class="st30" x1="239" y1="291.1" x2="235" y2="287.1"/>
		<line class="st30" x1="239" y1="287.1" x2="235" y2="291.1"/>
		<g>
			<g>
				<line class="st30" x1="210.5" y1="289.1" x2="190.3" y2="289.1"/>
				<g>
					<polygon class="st22" points="208.8,287 208.5,287.4 210.3,289.1 208.5,290.7 208.8,291.1 211,289.1 					"/>
				</g>
			</g>
		</g>
		<g>
			<g>
				<line class="st30" x1="210.5" y1="353.3" x2="190.3" y2="353.3"/>
				<g>
					<polygon class="st22" points="208.8,351.2 208.5,351.6 210.3,353.3 208.5,354.9 208.8,355.3 211,353.3 					"/>
				</g>
			</g>
		</g>
		<g>
			<g>
				<line class="st30" x1="210.5" y1="412.8" x2="190.3" y2="412.8"/>
				<g>
					<polygon class="st22" points="208.8,410.8 208.5,411.1 210.3,412.8 208.5,414.5 208.8,414.9 211,412.8 					"/>
				</g>
			</g>
		</g>
		<g>
			<g>
				<line class="st30" x1="210.5" y1="441.4" x2="190.3" y2="441.4"/>
				<g>
					<polygon class="st22" points="208.8,439.3 208.5,439.7 210.3,441.4 208.5,443 208.8,443.4 211,441.4 					"/>
				</g>
			</g>
		</g>
		<g>
			<g>
				<line class="st30" x1="210.5" y1="470.8" x2="190.3" y2="470.8"/>
				<g>
					<polygon class="st22" points="208.8,468.7 208.5,469.1 210.3,470.8 208.5,472.4 208.8,472.8 211,470.8 					"/>
				</g>
			</g>
		</g>
		<g>
			<g>
				<line class="st30" x1="210.5" y1="529.6" x2="190.3" y2="529.6"/>
				<g>
					<polygon class="st22" points="208.8,527.5 208.5,527.9 210.3,529.6 208.5,531.2 208.8,531.6 211,529.6 					"/>
				</g>
			</g>
		</g>
		<g>
			<g>
				<line class="st30" x1="210.5" y1="583.8" x2="190.3" y2="583.8"/>
				<g>
					<polygon class="st22" points="208.8,581.7 208.5,582.1 210.3,583.8 208.5,585.4 208.8,585.8 211,583.8 					"/>
				</g>
			</g>
		</g>
		<g>
			<g>
				<line class="st30" x1="210.5" y1="609" x2="190.3" y2="609"/>
				<g>
					<polygon class="st22" points="208.8,606.9 208.5,607.3 210.3,609 208.5,610.6 208.8,611 211,609 					"/>
				</g>
			</g>
		</g>
		<g>
			<g>
				<line class="st30" x1="210.5" y1="636.5" x2="190.3" y2="636.5"/>
				<g>
					<polygon class="st22" points="208.8,634.5 208.5,634.9 210.3,636.5 208.5,638.2 208.8,638.6 211,636.5 					"/>
				</g>
			</g>
		</g>
		<polyline class="st30" points="227.7,601.2 223,601.2 223,616.7 227.7,616.7 		"/>
	</g>
</g>
</svg>
