<?xml version="1.0" encoding="utf-8"?>
<!-- Generator: Adobe Illustrator 19.2.1, SVG Export Plug-In . SVG Version: 6.00 Build 0)  -->
<svg version="1.1" id="Layer_1" xmlns="http://www.w3.org/2000/svg" xmlns:xlink="http://www.w3.org/1999/xlink" x="0px" y="0px"
	 viewBox="0 0 1140 500" style="enable-background:new 0 0 1140 500;" xml:space="preserve">
<style type="text/css">
	.st0{fill:#F4F4F4;stroke:#FDFDFD;stroke-miterlimit:10;}
	.st1{fill:none;stroke:#373737;stroke-linejoin:round;}
	.st2{font-family:'SourceSansPro-Regular';}
	.st3{font-size:10px;}
	.st4{font-family:'SourceSansPro-Bold';}
	.st5{fill:none;stroke:#3CEEED;stroke-miterlimit:10;}
	.st6{font-family:'SourceSansPro-Light';}
	.st7{fill:none;stroke:#3CEEED;stroke-width:10;stroke-miterlimit:10;}
	.st8{opacity:0.7;fill:none;stroke:#3CEEED;stroke-width:10;stroke-miterlimit:10;enable-background:new    ;}
	.st9{opacity:0.5;fill:none;stroke:#3CEEED;stroke-width:10;stroke-miterlimit:10;enable-background:new    ;}
	.st10{opacity:0.3;fill:none;stroke:#3CEEED;stroke-width:10;stroke-miterlimit:10;enable-background:new    ;}
	.st11{fill:none;stroke:#000000;stroke-miterlimit:10;}
	.st12{fill:#373737;}
	.st13{font-size:12px;}
	.st14{fill:none;stroke:#373737;stroke-width:0.9854;}
	.st15{fill:none;stroke:#373737;stroke-width:10;stroke-miterlimit:10;}
	.st16{opacity:0.8;fill:none;stroke:#373737;stroke-width:10;stroke-miterlimit:10;enable-background:new    ;}
	.st17{opacity:0.5;fill:none;stroke:#373737;stroke-width:10;stroke-miterlimit:10;enable-background:new    ;}
	.st18{opacity:0.3;fill:none;stroke:#373737;stroke-width:10;stroke-miterlimit:10;enable-background:new    ;}
	.st19{fill:none;stroke:#373737;stroke-width:0.5;stroke-linejoin:round;}
	.st20{fill:#FFFFFF;}
</style>
<g id="livelli">
</g>
<g id="Layer_1_1_">
</g>
<g id="outliers">
</g>
<g id="number">
</g>
<g id="roba_di_lato">
</g>
<g id="roba_sotto">
</g>
<g id="boxplot">
</g>
<g>
	<g id="median">
		<g>
			<rect x="229.7" y="388.1" class="st0" width="900" height="27.4"/>
			<rect x="229.7" y="359.3" class="st0" width="900" height="28.8"/>
			<rect x="229.7" y="330.5" class="st0" width="900" height="28.8"/>
			<rect x="229.7" y="272.9" class="st0" width="900" height="28.8"/>
			<rect x="229.7" y="215.3" class="st0" width="900" height="28.8"/>
			<polyline class="st0" points="229.7,186.5 1129.7,186.5 1129.7,215.3 229.7,215.3 			"/>
			<rect x="229.7" y="157.6" class="st0" width="900" height="28.9"/>
			<rect x="229.7" y="128.8" class="st0" width="900" height="28.9"/>
			<rect x="229.7" y="99.9" class="st0" width="900" height="28.9"/>
			<rect x="229.7" y="244.1" class="st0" width="900" height="28.8"/>
			<rect x="229.7" y="301.7" class="st0" width="900" height="28.8"/>
			<g>
				<g>
					<g>
						<g>
							<g>
								<line class="st1" x1="314.8" y1="347.1" x2="309.2" y2="341.5"/>
								<line class="st1" x1="314.8" y1="341.5" x2="309.2" y2="347.1"/>
							</g>
						</g>
					</g>
				</g>
			</g>
			<g>
				<g>
					<g>
						<g>
							<g>
								<line class="st1" x1="462.8" y1="88.3" x2="457.2" y2="82.7"/>
								<line class="st1" x1="462.8" y1="82.7" x2="457.2" y2="88.3"/>
							</g>
						</g>
					</g>
				</g>
			</g>
			<g>
				<g>
					<g>
						<g>
							<g>
								<line class="st1" x1="536.8" y1="160.2" x2="531.2" y2="154.6"/>
								<line class="st1" x1="536.8" y1="154.6" x2="531.2" y2="160.2"/>
							</g>
						</g>
					</g>
				</g>
			</g>
			<g>
				<g>
					<g>
						<g>
							<g>
								<line class="st1" x1="536.8" y1="131.4" x2="531.2" y2="125.8"/>
								<line class="st1" x1="536.8" y1="125.8" x2="531.2" y2="131.4"/>
							</g>
						</g>
					</g>
				</g>
			</g>
			<g>
				<g>
					<g>
						<g>
							<g>
								<line class="st1" x1="610.8" y1="203.3" x2="605.2" y2="197.7"/>
								<line class="st1" x1="610.8" y1="197.7" x2="605.2" y2="203.3"/>
							</g>
						</g>
					</g>
				</g>
			</g>
			<g>
				<g>
					<g>
						<g>
							<g>
								<line class="st1" x1="610.8" y1="131.4" x2="605.2" y2="125.8"/>
								<line class="st1" x1="610.8" y1="125.8" x2="605.2" y2="131.4"/>
							</g>
						</g>
					</g>
				</g>
			</g>
			<g>
				<g>
					<g>
						<g>
							<g>
								<line class="st1" x1="684.8" y1="203.3" x2="679.2" y2="197.7"/>
								<line class="st1" x1="684.8" y1="197.7" x2="679.2" y2="203.3"/>
							</g>
						</g>
					</g>
				</g>
			</g>
			<g>
				<g>
					<g>
						<g>
							<g>
								<line class="st1" x1="684.8" y1="131.4" x2="679.2" y2="125.8"/>
								<line class="st1" x1="684.8" y1="125.8" x2="679.2" y2="131.4"/>
							</g>
						</g>
					</g>
				</g>
			</g>
			<g>
				<g>
					<g>
						<g>
							<g>
								<line class="st1" x1="832.8" y1="275.2" x2="827.2" y2="269.6"/>
								<line class="st1" x1="832.8" y1="269.6" x2="827.2" y2="275.2"/>
							</g>
						</g>
					</g>
				</g>
			</g>
			<g>
				<g>
					<g>
						<g>
							<g>
								<line class="st1" x1="906.8" y1="375.9" x2="901.2" y2="370.3"/>
								<line class="st1" x1="906.8" y1="370.3" x2="901.2" y2="375.9"/>
							</g>
						</g>
					</g>
				</g>
			</g>
			<g>
				<g>
					<g>
						<g>
							<g>
								<line class="st1" x1="906.8" y1="275.2" x2="901.2" y2="269.6"/>
								<line class="st1" x1="906.8" y1="269.6" x2="901.2" y2="275.2"/>
							</g>
						</g>
					</g>
				</g>
			</g>
			<g transform="translate(0,0)">
				<g transform="translate(0,331.96078431372547)">
					<text transform="matrix(1 0 0 1 215.8386 59.3121)" class="st2 st3">2</text>
					<text transform="matrix(1 0 0 1 215.8386 85.3123)" class="st2 st3">0</text>
				</g>
				<g transform="translate(0,303.202614379085)">
					<text transform="matrix(1 0 0 1 215.8386 59.312)" class="st2 st3">4</text>
				</g>
				<g transform="translate(0,274.4444444444444)">
					<text transform="matrix(1 0 0 1 215.8386 59.3121)" class="st2 st3">6</text>
				</g>
				<g transform="translate(0,245.6862745098039)">
					<text transform="matrix(1 0 0 1 215.8386 59.3121)" class="st2 st3">8</text>
				</g>
				<g transform="translate(0,216.92810457516342)">
					<text transform="matrix(1 0 0 1 209.1648 59.3121)" class="st2 st3">10</text>
				</g>
				<g transform="translate(0,188.16993464052288)">
					<text transform="matrix(1 0 0 1 209.1648 59.3121)" class="st2 st3">12</text>
				</g>
				<g transform="translate(0,159.41176470588238)">
					<text transform="matrix(1 0 0 1 209.1648 59.3121)" class="st2 st3">14</text>
				</g>
				<g transform="translate(0,130.6535947712418)">
					<text transform="matrix(1 0 0 1 209.1648 59.312)" class="st2 st3">16</text>
				</g>
				<g transform="translate(0,101.89542483660132)">
					<text transform="matrix(1 0 0 1 209.1648 59.3121)" class="st2 st3">18</text>
				</g>
				<g transform="translate(0,73.13725490196077)">
					<text transform="matrix(1 0 0 1 209.1648 59.3121)" class="st2 st3">20</text>
				</g>
				<g transform="translate(0,44.37908496732027)">
					<text transform="matrix(1 0 0 1 209.1648 59.3121)" class="st2 st3">22</text>
				</g>
			</g>
			<g transform="translate(0,440)">
				<text transform="matrix(1 0 0 1 235.1755 55.4721)" class="st4 st3">2</text>
				<text transform="matrix(1 0 0 1 309.1755 55.4721)" class="st4 st3">4</text>
				<text transform="matrix(1 0 0 1 379.8386 55.4721)" class="st4 st3">23</text>
				<text transform="matrix(1 0 0 1 453.8386 55.4721)" class="st4 st3">19</text>
				<text transform="matrix(1 0 0 1 527.8386 55.4721)" class="st4 st3">27</text>
				<text transform="matrix(1 0 0 1 601.8386 55.4721)" class="st4 st3">34</text>
				<text transform="matrix(1 0 0 1 675.8386 55.4721)" class="st4 st3">22</text>
				<text transform="matrix(1 0 0 1 753.1755 55.4721)" class="st4 st3">8</text>
				<text transform="matrix(1 0 0 1 824.2839 55.4721)" class="st4 st3">11</text>
				<text transform="matrix(1 0 0 1 901.1755 55.4721)" class="st4 st3">8</text>
				<text transform="matrix(1 0 0 1 975.1755 55.4721)" class="st4 st3">3</text>
				<text transform="matrix(1 0 0 1 1049.1755 55.4721)" class="st4 st3">2</text>
				<text transform="matrix(1 0 0 1 1119.8386 55.4721)" class="st4 st3">32</text>
			</g>
			<g transform="translate(0,410)">
				<circle class="st5" cx="237.5" cy="55.5" r="2"/>
				<circle class="st5" cx="311.5" cy="55.5" r="3.7"/>
				<circle class="st5" cx="385.5" cy="55.5" r="12"/>
				<circle class="st5" cx="459.5" cy="55.5" r="10.7"/>
				<circle class="st5" cx="533.5" cy="55.5" r="13.1"/>
				<circle class="st5" cx="607.5" cy="55.5" r="15"/>
				<circle class="st5" cx="681.5" cy="55.5" r="11.6"/>
				<circle class="st5" cx="755.5" cy="55.5" r="6.2"/>
				<circle class="st5" cx="829.5" cy="55.5" r="7.6"/>
				<circle class="st5" cx="903.5" cy="55.5" r="6.2"/>
				<circle class="st5" cx="977.5" cy="55.5" r="2.9"/>
				<circle class="st5" cx="1051.5" cy="55.5" r="2"/>
				<circle class="st5" cx="1125.5" cy="55.5" r="14.5"/>
			</g>
			<g transform="translate(0,370)">
				<g transform="translate(5.5,0)">
					<text transform="matrix(1 0 0 1 223.1648 72.9921)" class="st6 st3">2002</text>
				</g>
				<g transform="translate(79.5,0)">
					<text transform="matrix(1 0 0 1 223.1648 72.9921)" class="st6 st3">2003</text>
				</g>
				<g transform="translate(153.5,0)">
					<text transform="matrix(1 0 0 1 223.1648 72.9921)" class="st6 st3">2004</text>
				</g>
				<g transform="translate(227.5,0)">
					<text transform="matrix(1 0 0 1 223.1648 72.9921)" class="st6 st3">2005</text>
				</g>
				<g transform="translate(301.5,0)">
					<text transform="matrix(1 0 0 1 223.1648 72.9921)" class="st6 st3">2006</text>
				</g>
				<g transform="translate(375.5,0)">
					<text transform="matrix(1 0 0 1 223.1648 72.9921)" class="st6 st3">2007</text>
				</g>
				<g transform="translate(449.5,0)">
					<text transform="matrix(1 0 0 1 223.1648 72.9921)" class="st6 st3">2008</text>
				</g>
				<g transform="translate(523.5,0)">
					<text transform="matrix(1 0 0 1 223.1648 72.9921)" class="st6 st3">2009</text>
				</g>
				<g transform="translate(597.5,0)">
					<text transform="matrix(1 0 0 1 223.1648 72.9921)" class="st6 st3">2010</text>
				</g>
				<g transform="translate(671.5,0)">
					<text transform="matrix(1 0 0 1 223.6101 72.9921)" class="st6 st3">2011</text>
				</g>
				<g transform="translate(745.5,0)">
					<text transform="matrix(1 0 0 1 223.1648 72.9921)" class="st6 st3">2012</text>
				</g>
				<g transform="translate(819.5,0)">
					<text transform="matrix(1 0 0 1 222.7985 72.9921)" class="st6 st3">2013</text>
				</g>
				<g transform="translate(893.5,0)">
					<text transform="matrix(1 0 0 1 223.1648 72.9921)" class="st6 st3">2014</text>
				</g>
			</g>
			<line class="st7" x1="238" y1="290.6" x2="238" y2="259.5"/>
			<line class="st8" x1="238" y1="321.8" x2="238" y2="290.6"/>
			<line class="st9" x1="238" y1="353" x2="238" y2="321.8"/>
			<line class="st10" x1="238" y1="384.1" x2="238" y2="353"/>
			<line class="st8" x1="312" y1="407.6" x2="312" y2="391.8"/>
			<line class="st9" x1="312" y1="411.5" x2="312" y2="407.6"/>
			<line class="st10" x1="312" y1="414.8" x2="312" y2="411.5"/>
			<line class="st7" x1="386" y1="272.4" x2="386" y2="200.5"/>
			<line class="st8" x1="386" y1="329.9" x2="386" y2="272.4"/>
			<line class="st9" x1="386" y1="363.7" x2="386" y2="329.9"/>
			<line class="st10" x1="386" y1="411.5" x2="386" y2="363.7"/>
			<line class="st7" x1="460" y1="261.6" x2="460" y2="128.6"/>
			<line class="st8" x1="460" y1="329.9" x2="460" y2="261.6"/>
			<line class="st9" x1="460" y1="351.5" x2="460" y2="329.9"/>
			<line class="st10" x1="460" y1="394.6" x2="460" y2="351.5"/>
			<line class="st7" x1="534" y1="308.4" x2="534" y2="200.5"/>
			<line class="st8" x1="534" y1="373.1" x2="534" y2="308.4"/>
			<line class="st9" x1="534" y1="387.5" x2="534" y2="373.1"/>
			<line class="st10" x1="534" y1="409" x2="534" y2="387.5"/>
			<line class="st7" x1="608" y1="304.8" x2="608" y2="243.7"/>
			<line class="st8" x1="608" y1="358.7" x2="608" y2="304.8"/>
			<line class="st9" x1="608" y1="373.1" x2="608" y2="358.7"/>
			<line class="st10" x1="608" y1="405.4" x2="608" y2="373.1"/>
			<line class="st7" x1="682" y1="328.1" x2="682" y2="272.4"/>
			<line class="st8" x1="682" y1="373.1" x2="682" y2="328.1"/>
			<line class="st9" x1="682" y1="392.3" x2="682" y2="373.1"/>
			<line class="st10" x1="682" y1="409" x2="682" y2="392.3"/>
			<line class="st7" x1="756" y1="265.2" x2="756" y2="229.3"/>
			<line class="st8" x1="756" y1="329.9" x2="756" y2="265.2"/>
			<line class="st9" x1="756" y1="358.7" x2="756" y2="329.9"/>
			<line class="st10" x1="756" y1="387.5" x2="756" y2="358.7"/>
			<line class="st7" x1="830" y1="344.3" x2="830" y2="315.6"/>
			<line class="st8" x1="830" y1="373.1" x2="830" y2="344.3"/>
			<line class="st9" x1="830" y1="387.5" x2="830" y2="373.1"/>
			<line class="st10" x1="830" y1="409" x2="830" y2="387.5"/>
			<line class="st7" x1="904" y1="312" x2="904" y2="301.2"/>
			<line class="st8" x1="904" y1="315.6" x2="904" y2="312"/>
			<line class="st9" x1="904" y1="331.7" x2="904" y2="315.6"/>
			<line class="st10" x1="904" y1="358.7" x2="904" y2="331.7"/>
			<line class="st7" x1="978" y1="286.8" x2="978" y2="243.7"/>
			<line class="st8" x1="978" y1="329.9" x2="978" y2="286.8"/>
			<line class="st9" x1="978" y1="371.3" x2="978" y2="329.9"/>
			<line class="st10" x1="978" y1="412.6" x2="978" y2="371.3"/>
			<line class="st7" x1="1126" y1="268.1" x2="1126" y2="128.6"/>
			<line class="st8" x1="1126" y1="355.1" x2="1126" y2="268.1"/>
			<line class="st9" x1="1126" y1="367" x2="1126" y2="355.1"/>
			<line class="st10" x1="1126" y1="407.6" x2="1126" y2="367"/>
			<line class="st11" x1="226.7" y1="321.8" x2="249.4" y2="321.8"/>
			<line class="st11" x1="300.7" y1="407.6" x2="323.4" y2="407.6"/>
			<line class="st11" x1="374.7" y1="329.9" x2="397.4" y2="329.9"/>
			<line class="st11" x1="448.7" y1="329.9" x2="471.4" y2="329.9"/>
			<line class="st11" x1="522.7" y1="373.1" x2="545.4" y2="373.1"/>
			<line class="st11" x1="596.7" y1="358.7" x2="619.4" y2="358.7"/>
			<line class="st11" x1="670.7" y1="373.1" x2="693.4" y2="373.1"/>
			<line class="st11" x1="744.7" y1="329.9" x2="767.4" y2="329.9"/>
			<line class="st11" x1="818.7" y1="373.1" x2="841.4" y2="373.1"/>
			<line class="st11" x1="892.7" y1="315.6" x2="915.4" y2="315.6"/>
			<line class="st11" x1="966.7" y1="329.9" x2="989.4" y2="329.9"/>
			<line class="st11" x1="1114.7" y1="355.1" x2="1137.4" y2="355.1"/>
		</g>
		<g id="mediane">
			<g>
				<text transform="matrix(1 0 0 1 3.051758e-04 147.2156)" class="st12 st6 st13">outliers</text>
				<text transform="matrix(1 0 0 1 3.051758e-04 322.5171)" class="st12 st6 st13">25% of</text>
				<text transform="matrix(1 0 0 1 3.051758e-04 336.9171)" class="st12 st6 st13">reports</text>
				<text transform="matrix(1 0 0 1 1.220703e-04 381.3164)" class="st12 st6 st13">25% of</text>
				<text transform="matrix(1 0 0 1 1.220703e-04 395.7163)" class="st12 st6 st13">reports</text>
				<text transform="matrix(1 0 0 1 1.220703e-04 442.7118)" class="st12 st6 st13">year</text>
				<text transform="matrix(1 0 0 1 0 205.0164)" class="st12 st6 st13">25% of</text>
				<text transform="matrix(1 0 0 1 0 219.4165)" class="st12 st6 st13">reports</text>
				<text transform="matrix(1 0 0 1 -1.831055e-04 263.7668)" class="st12 st6 st13">25% of</text>
				<text transform="matrix(1 0 0 1 -1.831055e-04 278.1667)" class="st12 st6 st13">reports</text>
				<text transform="matrix(1 0 0 1 3.051758e-04 96.9529)" class="st12 st4 st13">LEGEND</text>
				<text transform="matrix(1 0 0 1 0 300.3522)" class="st12 st6 st13">median</text>
				<g>
					<text transform="matrix(1 0 0 1 -1.220703e-04 481.5553)" class="st12 st6 st13">n° of</text>
					<text transform="matrix(1 0 0 1 -1.220703e-04 495.9553)" class="st12 st6 st13">reports</text>
				</g>
				<circle class="st14" cx="100.3" cy="464.7" r="5.6"/>
				<text transform="matrix(1 0 0 1 91.0204 442.169)" class="st12 st6 st3">2000</text>
				<line class="st15" x1="100.3" y1="238.4" x2="100.3" y2="179.6"/>
				<line class="st15" x1="100.3" y1="238.4" x2="100.3" y2="179.6"/>
				<line class="st16" x1="100.3" y1="297.1" x2="100.3" y2="238.4"/>
				<line class="st15" x1="100.3" y1="238.4" x2="100.3" y2="179.6"/>
				<line class="st17" x1="100.3" y1="355.9" x2="100.3" y2="297.1"/>
				<line class="st18" x1="100.3" y1="414.7" x2="100.3" y2="355.9"/>
				<line class="st19" x1="88.3" y1="297.1" x2="112.3" y2="297.1"/>
				<text transform="matrix(1 0 0 1 97.7964 496.1699)" class="st12 st4 st3">4</text>
				<line class="st19" x1="102.3" y1="146.8" x2="98.3" y2="142.8"/>
				<line class="st19" x1="102.3" y1="142.8" x2="98.3" y2="146.8"/>
				<g>
					<g>
						<line class="st19" x1="73.8" y1="144.8" x2="53.6" y2="144.8"/>
						<g>
							<polygon class="st12" points="72.1,142.7 71.8,143.1 73.6,144.8 71.8,146.4 72.1,146.8 74.3,144.8 							"/>
						</g>
					</g>
				</g>
				<g>
					<g>
						<line class="st19" x1="73.8" y1="209" x2="53.6" y2="209"/>
						<g>
							<polygon class="st12" points="72.1,206.9 71.8,207.3 73.6,209 71.8,210.6 72.1,211 74.3,209 							"/>
						</g>
					</g>
				</g>
				<g>
					<g>
						<line class="st19" x1="73.8" y1="268.5" x2="53.6" y2="268.5"/>
						<g>
							<polygon class="st12" points="72.1,266.5 71.8,266.8 73.6,268.5 71.8,270.2 72.1,270.6 74.3,268.5 							"/>
						</g>
					</g>
				</g>
				<g>
					<g>
						<line class="st19" x1="73.8" y1="297.1" x2="53.6" y2="297.1"/>
						<g>
							<polygon class="st12" points="72.1,295 71.8,295.4 73.6,297.1 71.8,298.7 72.1,299.1 74.3,297.1 							"/>
						</g>
					</g>
				</g>
				<g>
					<g>
						<line class="st19" x1="73.8" y1="326.5" x2="53.6" y2="326.5"/>
						<g>
							<polygon class="st12" points="72.1,324.4 71.8,324.8 73.6,326.5 71.8,328.1 72.1,328.5 74.3,326.5 							"/>
						</g>
					</g>
				</g>
				<g>
					<g>
						<line class="st19" x1="73.8" y1="385.3" x2="53.6" y2="385.3"/>
						<g>
							<polygon class="st12" points="72.1,383.2 71.8,383.6 73.6,385.3 71.8,386.9 72.1,387.3 74.3,385.3 							"/>
						</g>
					</g>
				</g>
				<g>
					<g>
						<line class="st19" x1="73.8" y1="439.5" x2="53.6" y2="439.5"/>
						<g>
							<polygon class="st12" points="72.1,437.4 71.8,437.8 73.6,439.5 71.8,441.1 72.1,441.5 74.3,439.5 							"/>
						</g>
					</g>
				</g>
				<g>
					<g>
						<line class="st19" x1="73.8" y1="464.7" x2="53.6" y2="464.7"/>
						<g>
							<polygon class="st12" points="72.1,462.6 71.8,463 73.6,464.7 71.8,466.3 72.1,466.7 74.3,464.7 							"/>
						</g>
					</g>
				</g>
				<g>
					<g>
						<line class="st19" x1="73.8" y1="492.2" x2="53.6" y2="492.2"/>
						<g>
							<polygon class="st12" points="72.1,490.2 71.8,490.6 73.6,492.2 71.8,493.9 72.1,494.3 74.3,492.2 							"/>
						</g>
					</g>
				</g>
				<polyline class="st19" points="91,456.9 86.3,456.9 86.3,472.4 91,472.4 				"/>
			</g>
		</g>
		<line class="st11" x1="1040.5" y1="412.6" x2="1063.2" y2="412.6"/>
	</g>
	<g>
		<g>
			<g>
				<line class="st19" x1="151.5" y1="413" x2="151.5" y2="103.1"/>
				<g>
					<polygon class="st12" points="153.5,104.8 153.2,105.1 151.5,103.3 149.8,105.1 149.5,104.8 151.5,102.6 					"/>
				</g>
			</g>
		</g>
		<g>
			<rect x="123.3" y="230.6" class="st20" width="60.7" height="39.7"/>
			<g>
				<text transform="matrix(1 0 0 1 135 244.8614)" class="st12 st6 st13">dosage</text>
				<text transform="matrix(1 0 0 1 135 259.2614)" class="st12 st6 st13">(grams)</text>
			</g>
		</g>
	</g>
</g>
</svg>
