<?xml version="1.0" encoding="utf-8"?>
<!-- Generator: Adobe Illustrator 19.1.0, SVG Export Plug-In . SVG Version: 6.00 Build 0)  -->
<svg version="1.1" xmlns="http://www.w3.org/2000/svg" xmlns:xlink="http://www.w3.org/1999/xlink" x="0px" y="0px"
	 viewBox="132 170.9 1140 500" enable-background="new 132 170.9 1140 500" xml:space="preserve">
<defs>
  <style type="text/css">@import url(https://fonts.googleapis.com/css?family=Crimson+Text);</style>
  <style type="text/css">@import url(https://fonts.googleapis.com/css?family=Source+Sans+Pro:300,400,700);</style>
</defs>
	 
<g id="livelli">
</g>
<g id="roba_sotto">
</g>
<g id="Layer_1">
</g>
<g id="outliers">
</g>
<g id="boxplot">
</g>
<g id="numeri">
</g>
<g id="lato">
</g>
<g id="median">
	<g>
		<rect x="366.7" y="520.6" fill="#F4F4F4" stroke="#FDFDFD" stroke-miterlimit="10" width="900" height="40.3"/>
		<rect x="366.7" y="479.4" fill="#F4F4F4" stroke="#FDFDFD" stroke-miterlimit="10" width="900" height="41.2"/>
		<rect x="366.7" y="437.7" fill="#F4F4F4" stroke="#FDFDFD" stroke-miterlimit="10" width="900" height="41.7"/>
		<rect x="366.7" y="396.3" fill="#F4F4F4" stroke="#FDFDFD" stroke-miterlimit="10" width="900" height="41.4"/>
		<rect x="366.7" y="354.9" fill="#F4F4F4" stroke="#FDFDFD" stroke-miterlimit="10" width="900" height="41.4"/>
		<rect x="366.7" y="313.5" fill="#F4F4F4" stroke="#FDFDFD" stroke-miterlimit="10" width="900" height="41.4"/>
		<rect x="366.7" y="272.1" fill="#F4F4F4" stroke="#FDFDFD" stroke-miterlimit="10" width="900" height="41.4"/>
		<rect x="366.7" y="230.9" fill="#F4F4F4" stroke="#FDFDFD" stroke-miterlimit="10" width="900" height="41.4"/>
		<g transform="translate(0,440)">
			<text transform="matrix(1 0 0 1 373.9857 200.89)" font-family="'Source Sans Pro', sans-serif" font-weight="700"  font-size="10px">28</text>
			<text transform="matrix(1 0 0 1 436.9857 200.89)" font-family="'Source Sans Pro', sans-serif" font-weight="700"  font-size="10px">20</text>
			<text transform="matrix(1 0 0 1 503.3226 200.89)" font-family="'Source Sans Pro', sans-serif" font-weight="700"  font-size="10px">8</text>
			<text transform="matrix(1 0 0 1 562.9857 200.89)" font-family="'Source Sans Pro', sans-serif" font-weight="700"  font-size="10px">15</text>
			<text transform="matrix(1 0 0 1 625.9857 200.89)" font-family="'Source Sans Pro', sans-serif" font-weight="700"  font-size="10px">17</text>
			<text transform="matrix(1 0 0 1 688.9857 200.89)" font-family="'Source Sans Pro', sans-serif" font-weight="700"  font-size="10px">14</text>
			<text transform="matrix(1 0 0 1 755.3226 200.89)" font-family="'Source Sans Pro', sans-serif" font-weight="700"  font-size="10px">8</text>
			<text transform="matrix(1 0 0 1 814.9857 200.89)" font-family="'Source Sans Pro', sans-serif" font-weight="700"  font-size="10px">23</text>
			<text transform="matrix(1 0 0 1 877.9857 200.89)" font-family="'Source Sans Pro', sans-serif" font-weight="700"  font-size="10px">16</text>
			<text transform="matrix(1 0 0 1 940.9857 200.89)" font-family="'Source Sans Pro', sans-serif" font-weight="700"  font-size="10px">18</text>
			<text transform="matrix(1 0 0 1 1003.9857 200.89)" font-family="'Source Sans Pro', sans-serif" font-weight="700"  font-size="10px">10</text>
			<text transform="matrix(1 0 0 1 1066.9856 200.89)" font-family="'Source Sans Pro', sans-serif" font-weight="700"  font-size="10px">16</text>
			<text transform="matrix(1 0 0 1 1129.9856 200.89)" font-family="'Source Sans Pro', sans-serif" font-weight="700"  font-size="10px">27</text>
			<text transform="matrix(1 0 0 1 1192.9856 200.89)" font-family="'Source Sans Pro', sans-serif" font-weight="700"  font-size="10px">26</text>
			<text transform="matrix(1 0 0 1 1259.3225 200.89)" font-family="'Source Sans Pro', sans-serif" font-weight="700"  font-size="10px">5</text>
		</g>
		<g transform="translate(0,410)">
			<circle fill="none" stroke="#A478D6" stroke-miterlimit="10" cx="379.7" cy="200.9" r="15"/>
			<circle fill="none" stroke="#A478D6" stroke-miterlimit="10" cx="442.7" cy="200.9" r="11.5"/>
			<circle fill="none" stroke="#A478D6" stroke-miterlimit="10" cx="505.7" cy="200.9" r="4.5"/>
			<circle fill="none" stroke="#A478D6" stroke-miterlimit="10" cx="568.7" cy="200.9" r="9"/>
			<circle fill="none" stroke="#A478D6" stroke-miterlimit="10" cx="631.7" cy="200.9" r="10"/>
			<circle fill="none" stroke="#A478D6" stroke-miterlimit="10" cx="694.7" cy="200.9" r="8.4"/>
			<circle fill="none" stroke="#A478D6" stroke-miterlimit="10" cx="757.7" cy="200.9" r="4.5"/>
			<circle fill="none" stroke="#A478D6" stroke-miterlimit="10" cx="820.7" cy="200.9" r="12.9"/>
			<circle fill="none" stroke="#A478D6" stroke-miterlimit="10" cx="883.7" cy="200.9" r="9.5"/>
			<circle fill="none" stroke="#A478D6" stroke-miterlimit="10" cx="946.7" cy="200.9" r="10.5"/>
			<circle fill="none" stroke="#A478D6" stroke-miterlimit="10" cx="1009.7" cy="200.9" r="5.9"/>
			<circle fill="none" stroke="#A478D6" stroke-miterlimit="10" cx="1072.7" cy="200.9" r="9.5"/>
			<circle fill="none" stroke="#A478D6" stroke-miterlimit="10" cx="1135.7" cy="200.9" r="14.6"/>
			<circle fill="none" stroke="#A478D6" stroke-miterlimit="10" cx="1198.7" cy="200.9" r="14.2"/>
			<circle fill="none" stroke="#A478D6" stroke-miterlimit="10" cx="1261.7" cy="200.9" r="2"/>
		</g>
		<g transform="translate(0,370)">
			<g transform="translate(9,0)">
				<text transform="matrix(1 0 0 1 360.3119 218.41)" font-family="'Source Sans Pro', sans-serif" font-weight="300"  font-size="10px">2000</text>
			</g>
			<g transform="translate(72,0)">
				<text transform="matrix(1 0 0 1 360.3119 218.41)" font-family="'Source Sans Pro', sans-serif" font-weight="300"  font-size="10px">2001</text>
			</g>
			<g transform="translate(135,0)">
				<text transform="matrix(1 0 0 1 360.3118 218.41)" font-family="'Source Sans Pro', sans-serif" font-weight="300"  font-size="10px">2002</text>
			</g>
			<g transform="translate(198,0)">
				<text transform="matrix(1 0 0 1 360.3118 218.41)" font-family="'Source Sans Pro', sans-serif" font-weight="300"  font-size="10px">2003</text>
			</g>
			<g transform="translate(261,0)">
				<text transform="matrix(1 0 0 1 360.3118 218.41)" font-family="'Source Sans Pro', sans-serif" font-weight="300"  font-size="10px">2004</text>
			</g>
			<g transform="translate(324,0)">
				<text transform="matrix(1 0 0 1 360.3119 218.41)" font-family="'Source Sans Pro', sans-serif" font-weight="300"  font-size="10px">2005</text>
			</g>
			<g transform="translate(387,0)">
				<text transform="matrix(1 0 0 1 360.3119 218.41)" font-family="'Source Sans Pro', sans-serif" font-weight="300"  font-size="10px">2006</text>
			</g>
			<g transform="translate(450,0)">
				<text transform="matrix(1 0 0 1 360.3119 218.41)" font-family="'Source Sans Pro', sans-serif" font-weight="300"  font-size="10px">2007</text>
			</g>
			<g transform="translate(513,0)">
				<text transform="matrix(1 0 0 1 360.3119 218.41)" font-family="'Source Sans Pro', sans-serif" font-weight="300"  font-size="10px">2008</text>
			</g>
			<g transform="translate(576,0)">
				<text transform="matrix(1 0 0 1 360.3118 218.41)" font-family="'Source Sans Pro', sans-serif" font-weight="300"  font-size="10px">2009</text>
			</g>
			<g transform="translate(639,0)">
				<text transform="matrix(1 0 0 1 360.3118 218.41)" font-family="'Source Sans Pro', sans-serif" font-weight="300"  font-size="10px">2010</text>
			</g>
			<g transform="translate(702,0)">
				<text transform="matrix(1 0 0 1 360.7571 218.41)" font-family="'Source Sans Pro', sans-serif" font-weight="300"  font-size="10px">2011</text>
			</g>
			<g transform="translate(765,0)">
				<text transform="matrix(1 0 0 1 360.3118 218.41)" font-family="'Source Sans Pro', sans-serif" font-weight="300"  font-size="10px">2012</text>
			</g>
			<g transform="translate(828,0)">
				<text transform="matrix(1 0 0 1 360.3118 218.41)" font-family="'Source Sans Pro', sans-serif" font-weight="300"  font-size="10px">2013</text>
			</g>
			<g transform="translate(891,0)">
				<text transform="matrix(1 0 0 1 360.3118 218.41)" font-family="'Source Sans Pro', sans-serif" font-weight="300"  font-size="10px">2014</text>
			</g>
		</g>
		<g>
			<g>
				<g>
					<g>
						<g>
							<line fill="none" stroke="#373737" stroke-linejoin="round" x1="381.5" y1="275.5" x2="375.9" y2="269.9"/>
							<line fill="none" stroke="#373737" stroke-linejoin="round" x1="381.5" y1="269.9" x2="375.9" y2="275.5"/>
						</g>
					</g>
				</g>
			</g>
		</g>
		<g>
			<g>
				<g>
					<g>
						<g>
							<line fill="none" stroke="#373737" stroke-linejoin="round" x1="507.5" y1="505.2" x2="501.9" y2="499.6"/>
							<line fill="none" stroke="#373737" stroke-linejoin="round" x1="507.5" y1="499.6" x2="501.9" y2="505.2"/>
						</g>
					</g>
				</g>
			</g>
		</g>
		<g>
			<g>
				<g>
					<g>
						<g>
							<line fill="none" stroke="#373737" stroke-linejoin="round" x1="507.5" y1="463.4" x2="501.9" y2="457.8"/>
							<line fill="none" stroke="#373737" stroke-linejoin="round" x1="507.5" y1="457.8" x2="501.9" y2="463.4"/>
						</g>
					</g>
				</g>
			</g>
		</g>
		<g>
			<g>
				<g>
					<g>
						<g>
							<line fill="none" stroke="#373737" stroke-linejoin="round" x1="507.5" y1="442.6" x2="501.9" y2="437"/>
							<line fill="none" stroke="#373737" stroke-linejoin="round" x1="507.5" y1="437" x2="501.9" y2="442.6"/>
						</g>
					</g>
				</g>
			</g>
		</g>
		<g>
			<g>
				<g>
					<g>
						<g>
							<line fill="none" stroke="#373737" stroke-linejoin="round" x1="759.5" y1="292.2" x2="753.9" y2="286.6"/>
							<line fill="none" stroke="#373737" stroke-linejoin="round" x1="759.5" y1="286.6" x2="753.9" y2="292.2"/>
						</g>
					</g>
				</g>
			</g>
		</g>
		<g>
			<g>
				<g>
					<g>
						<g>
							<line fill="none" stroke="#373737" stroke-linejoin="round" x1="822.5" y1="317.2" x2="816.9" y2="311.6"/>
							<line fill="none" stroke="#373737" stroke-linejoin="round" x1="822.5" y1="311.6" x2="816.9" y2="317.2"/>
						</g>
					</g>
				</g>
			</g>
		</g>
		<g>
			<g>
				<g>
					<g>
						<g>
							<line fill="none" stroke="#373737" stroke-linejoin="round" x1="885.5" y1="442.6" x2="879.9" y2="437"/>
							<line fill="none" stroke="#373737" stroke-linejoin="round" x1="885.5" y1="437" x2="879.9" y2="442.6"/>
						</g>
					</g>
				</g>
			</g>
		</g>
		<g>
			<g>
				<g>
					<g>
						<g>
							<line fill="none" stroke="#373737" stroke-linejoin="round" x1="885.5" y1="421.7" x2="879.9" y2="416.1"/>
							<line fill="none" stroke="#373737" stroke-linejoin="round" x1="885.5" y1="416.1" x2="879.9" y2="421.7"/>
						</g>
					</g>
				</g>
			</g>
		</g>
		<g>
			<g>
				<g>
					<g>
						<g>
							<line fill="none" stroke="#373737" stroke-linejoin="round" x1="885.5" y1="233.7" x2="879.9" y2="228.1"/>
							<line fill="none" stroke="#373737" stroke-linejoin="round" x1="885.5" y1="228.1" x2="879.9" y2="233.7"/>
						</g>
					</g>
				</g>
			</g>
		</g>
		<g>
			<g>
				<g>
					<g>
						<g>
							<line fill="none" stroke="#373737" stroke-linejoin="round" x1="948.5" y1="400.8" x2="942.9" y2="395.2"/>
							<line fill="none" stroke="#373737" stroke-linejoin="round" x1="948.5" y1="395.2" x2="942.9" y2="400.8"/>
						</g>
					</g>
				</g>
			</g>
		</g>
		<g>
			<g>
				<g>
					<g>
						<g>
							<line fill="none" stroke="#373737" stroke-linejoin="round" x1="1137.5" y1="350.7" x2="1131.9" y2="345.1"/>
							<line fill="none" stroke="#373737" stroke-linejoin="round" x1="1137.5" y1="345.1" x2="1131.9" y2="350.7"/>
						</g>
					</g>
				</g>
			</g>
		</g>
		<g>
			<g>
				<g>
					<g>
						<g>
							<line fill="none" stroke="#373737" stroke-linejoin="round" x1="1137.5" y1="317.2" x2="1131.9" y2="311.6"/>
							<line fill="none" stroke="#373737" stroke-linejoin="round" x1="1137.5" y1="311.6" x2="1131.9" y2="317.2"/>
						</g>
					</g>
				</g>
			</g>
		</g>
		<g>
			<g>
				<g>
					<g>
						<g>
							<line fill="none" stroke="#373737" stroke-linejoin="round" x1="1137.5" y1="317.2" x2="1131.9" y2="311.6"/>
							<line fill="none" stroke="#373737" stroke-linejoin="round" x1="1137.5" y1="311.6" x2="1131.9" y2="317.2"/>
						</g>
					</g>
				</g>
			</g>
		</g>
		<line fill="none" stroke="#A478D6" stroke-width="10" stroke-miterlimit="10" x1="378.7" y1="459.6" x2="378.7" y2="414.7"/>
		
			<line opacity="0.8" fill="none" stroke="#A478D6" stroke-width="10" stroke-miterlimit="10" x1="378.7" y1="483.6" x2="378.7" y2="459.6"/>
		
			<line opacity="0.5" fill="none" stroke="#A478D6" stroke-width="10" stroke-miterlimit="10" x1="378.7" y1="522.9" x2="378.7" y2="483.6"/>
		
			<line opacity="0.3" fill="none" stroke="#A478D6" stroke-width="10" stroke-miterlimit="10" x1="378.7" y1="544.2" x2="378.7" y2="522.9"/>
		<line fill="none" stroke="#A478D6" stroke-width="10" stroke-miterlimit="10" x1="441.7" y1="459.6" x2="441.7" y2="398"/>
		
			<line opacity="0.8" fill="none" stroke="#A478D6" stroke-width="10" stroke-miterlimit="10" x1="441.7" y1="481.5" x2="441.7" y2="459.6"/>
		
			<line opacity="0.5" fill="none" stroke="#A478D6" stroke-width="10" stroke-miterlimit="10" x1="441.7" y1="523.3" x2="441.7" y2="481.5"/>
		
			<line opacity="0.3" fill="none" stroke="#A478D6" stroke-width="10" stroke-miterlimit="10" x1="441.7" y1="548.4" x2="441.7" y2="523.3"/>
		<line fill="none" stroke="#A478D6" stroke-width="10" stroke-miterlimit="10" x1="567.7" y1="464.8" x2="567.7" y2="460.6"/>
		
			<line opacity="0.8" fill="none" stroke="#A478D6" stroke-width="10" stroke-miterlimit="10" x1="567.7" y1="473.2" x2="567.7" y2="464.8"/>
		
			<line opacity="0.5" fill="none" stroke="#A478D6" stroke-width="10" stroke-miterlimit="10" x1="567.7" y1="511.8" x2="567.7" y2="473.2"/>
		
			<line opacity="0.3" fill="none" stroke="#A478D6" stroke-width="10" stroke-miterlimit="10" x1="567.7" y1="544.2" x2="567.7" y2="511.8"/>
		<line fill="none" stroke="#A478D6" stroke-width="10" stroke-miterlimit="10" x1="630.7" y1="460.6" x2="630.7" y2="398"/>
		
			<line opacity="0.8" fill="none" stroke="#A478D6" stroke-width="10" stroke-miterlimit="10" x1="630.7" y1="481.5" x2="630.7" y2="460.6"/>
		
			<line opacity="0.5" fill="none" stroke="#A478D6" stroke-width="10" stroke-miterlimit="10" x1="630.7" y1="523.3" x2="630.7" y2="481.5"/>
		
			<line opacity="0.3" fill="none" stroke="#A478D6" stroke-width="10" stroke-miterlimit="10" x1="630.7" y1="548.4" x2="630.7" y2="523.3"/>
		<line fill="none" stroke="#A478D6" stroke-width="10" stroke-miterlimit="10" x1="693.7" y1="324.9" x2="693.7" y2="286.9"/>
		
			<line opacity="0.8" fill="none" stroke="#A478D6" stroke-width="10" stroke-miterlimit="10" x1="693.7" y1="481.5" x2="693.7" y2="324.9"/>
		
			<line opacity="0.5" fill="none" stroke="#A478D6" stroke-width="10" stroke-miterlimit="10" x1="693.7" y1="511.8" x2="693.7" y2="481.5"/>
		
			<line opacity="0.3" fill="none" stroke="#A478D6" stroke-width="10" stroke-miterlimit="10" x1="693.7" y1="559.2" x2="693.7" y2="511.8"/>
		
			<line opacity="0.8" fill="none" stroke="#A478D6" stroke-width="10" stroke-miterlimit="10" x1="756.7" y1="464.8" x2="756.7" y2="398"/>
		
			<line opacity="0.5" fill="none" stroke="#A478D6" stroke-width="10" stroke-miterlimit="10" x1="756.7" y1="470.2" x2="756.7" y2="464.8"/>
		
			<line opacity="0.3" fill="none" stroke="#A478D6" stroke-width="10" stroke-miterlimit="10" x1="756.7" y1="514.9" x2="756.7" y2="470.2"/>
		<line fill="none" stroke="#A478D6" stroke-width="10" stroke-miterlimit="10" x1="819.7" y1="439.8" x2="819.7" y2="356.2"/>
		
			<line opacity="0.8" fill="none" stroke="#A478D6" stroke-width="10" stroke-miterlimit="10" x1="819.7" y1="481.5" x2="819.7" y2="439.8"/>
		
			<line opacity="0.5" fill="none" stroke="#A478D6" stroke-width="10" stroke-miterlimit="10" x1="819.7" y1="510.8" x2="819.7" y2="481.5"/>
		
			<line opacity="0.3" fill="none" stroke="#A478D6" stroke-width="10" stroke-miterlimit="10" x1="819.7" y1="548.4" x2="819.7" y2="510.8"/>
		
			<line opacity="0.5" fill="none" stroke="#A478D6" stroke-width="10" stroke-miterlimit="10" x1="882.7" y1="500.3" x2="882.7" y2="481.5"/>
		
			<line opacity="0.3" fill="none" stroke="#A478D6" stroke-width="10" stroke-miterlimit="10" x1="882.7" y1="523.3" x2="882.7" y2="500.3"/>
		<line fill="none" stroke="#A478D6" stroke-width="10" stroke-miterlimit="10" x1="945.7" y1="481.5" x2="945.7" y2="459.4"/>
		
			<line opacity="0.8" fill="none" stroke="#A478D6" stroke-width="10" stroke-miterlimit="10" x1="945.7" y1="498.2" x2="945.7" y2="481.5"/>
		
			<line opacity="0.5" fill="none" stroke="#A478D6" stroke-width="10" stroke-miterlimit="10" x1="945.7" y1="523.3" x2="945.7" y2="498.2"/>
		
			<line opacity="0.3" fill="none" stroke="#A478D6" stroke-width="10" stroke-miterlimit="10" x1="945.7" y1="540" x2="945.7" y2="523.3"/>
		<line fill="none" stroke="#A478D6" stroke-width="10" stroke-miterlimit="10" x1="1008.7" y1="398" x2="1008.7" y2="272.7"/>
		
			<line opacity="0.8" fill="none" stroke="#A478D6" stroke-width="10" stroke-miterlimit="10" x1="1008.7" y1="459.4" x2="1008.7" y2="398"/>
		
			<line opacity="0.5" fill="none" stroke="#A478D6" stroke-width="10" stroke-miterlimit="10" x1="1008.7" y1="481.5" x2="1008.7" y2="459.4"/>
		
			<line opacity="0.3" fill="none" stroke="#A478D6" stroke-width="10" stroke-miterlimit="10" x1="1008.7" y1="527.5" x2="1008.7" y2="481.5"/>
		<line fill="none" stroke="#A478D6" stroke-width="10" stroke-miterlimit="10" x1="1071.7" y1="398" x2="1071.7" y2="230.9"/>
		
			<line opacity="0.8" fill="none" stroke="#A478D6" stroke-width="10" stroke-miterlimit="10" x1="1071.7" y1="481.5" x2="1071.7" y2="398"/>
		
			<line opacity="0.5" fill="none" stroke="#A478D6" stroke-width="10" stroke-miterlimit="10" x1="1071.7" y1="509.7" x2="1071.7" y2="481.5"/>
		
			<line opacity="0.3" fill="none" stroke="#A478D6" stroke-width="10" stroke-miterlimit="10" x1="1071.7" y1="560.9" x2="1071.7" y2="509.7"/>
		<line fill="none" stroke="#A478D6" stroke-width="10" stroke-miterlimit="10" x1="1134.7" y1="439.8" x2="1134.7" y2="398"/>
		
			<line opacity="0.8" fill="none" stroke="#A478D6" stroke-width="10" stroke-miterlimit="10" x1="1134.7" y1="460.6" x2="1134.7" y2="439.8"/>
		
			<line opacity="0.5" fill="none" stroke="#A478D6" stroke-width="10" stroke-miterlimit="10" x1="1134.7" y1="481.5" x2="1134.7" y2="460.6"/>
		
			<line opacity="0.3" fill="none" stroke="#A478D6" stroke-width="10" stroke-miterlimit="10" x1="1134.7" y1="531.6" x2="1134.7" y2="481.5"/>
		<line fill="none" stroke="#A478D6" stroke-width="10" stroke-miterlimit="10" x1="1197.7" y1="398" x2="1197.7" y2="314.4"/>
		
			<line opacity="0.8" fill="none" stroke="#A478D6" stroke-width="10" stroke-miterlimit="10" x1="1197.7" y1="460.6" x2="1197.7" y2="398"/>
		
			<line opacity="0.5" fill="none" stroke="#A478D6" stroke-width="10" stroke-miterlimit="10" x1="1197.7" y1="502.4" x2="1197.7" y2="460.6"/>
		
			<line opacity="0.3" fill="none" stroke="#A478D6" stroke-width="10" stroke-miterlimit="10" x1="1197.7" y1="548.4" x2="1197.7" y2="502.4"/>
		<line fill="none" stroke="#A478D6" stroke-width="10" stroke-miterlimit="10" x1="1260.7" y1="464.8" x2="1260.7" y2="460.6"/>
		
			<line opacity="0.8" fill="none" stroke="#A478D6" stroke-width="10" stroke-miterlimit="10" x1="1260.7" y1="473.2" x2="1260.7" y2="464.8"/>
		
			<line opacity="0.5" fill="none" stroke="#A478D6" stroke-width="10" stroke-miterlimit="10" x1="1260.7" y1="531.6" x2="1260.7" y2="473.2"/>
		
			<line opacity="0.3" fill="none" stroke="#A478D6" stroke-width="10" stroke-miterlimit="10" x1="1260.7" y1="553.4" x2="1260.7" y2="531.6"/>
		
			<line opacity="0.8" fill="none" stroke="#A478D6" stroke-width="10" stroke-miterlimit="10" x1="504.7" y1="481.5" x2="504.7" y2="476.3"/>
		<g transform="translate(0,0)">
			<g transform="translate(0,322.4050632911392)">
				<text transform="matrix(1 0 0 1 339.304 204.73)" font-family="'Source Sans Pro', sans-serif" font-weight="400"  font-size="10px">0.05</text>
				<text transform="matrix(1 0 0 1 339.304 240.48)" font-family="'Source Sans Pro', sans-serif" font-weight="400"  font-size="10px">0.00</text>
			</g>
			<g transform="translate(0,280.6329113924051)">
				<text transform="matrix(1 0 0 1 339.304 204.73)" font-family="'Source Sans Pro', sans-serif" font-weight="400"  font-size="10px">0.10</text>
			</g>
			<g transform="translate(0,238.8607594936709)">
				<text transform="matrix(1 0 0 1 339.304 204.73)" font-family="'Source Sans Pro', sans-serif" font-weight="400"  font-size="10px">0.15</text>
			</g>
			<g transform="translate(0,197.08860759493672)">
				<text transform="matrix(1 0 0 1 339.304 204.73)" font-family="'Source Sans Pro', sans-serif" font-weight="400"  font-size="10px">0.20</text>
			</g>
			<g transform="translate(0,155.31645569620255)">
				<text transform="matrix(1 0 0 1 339.304 204.73)" font-family="'Source Sans Pro', sans-serif" font-weight="400"  font-size="10px">0.25</text>
			</g>
			<g transform="translate(0,113.54430379746839)">
				<text transform="matrix(1 0 0 1 339.304 204.73)" font-family="'Source Sans Pro', sans-serif" font-weight="400"  font-size="10px">0.30</text>
			</g>
			<g transform="translate(0,71.77215189873422)">
				<text transform="matrix(1 0 0 1 339.304 204.73)" font-family="'Source Sans Pro', sans-serif" font-weight="400"  font-size="10px">0.35</text>
			</g>
			<g transform="translate(0,30)">
				<text transform="matrix(1 0 0 1 339.304 204.73)" font-family="'Source Sans Pro', sans-serif" font-weight="400"  font-size="10px">0.40</text>
			</g>
		</g>
		<line fill="#FFFFFF" stroke="#000000" stroke-miterlimit="10" x1="1249.3" y1="473.2" x2="1272" y2="473.2"/>
		<line fill="#FFFFFF" stroke="#000000" stroke-miterlimit="10" x1="1186.3" y1="460.6" x2="1209" y2="460.6"/>
		<line fill="#FFFFFF" stroke="#000000" stroke-miterlimit="10" x1="1123.3" y1="460.6" x2="1146" y2="460.6"/>
		<line fill="#FFFFFF" stroke="#000000" stroke-miterlimit="10" x1="1060.3" y1="481.5" x2="1083" y2="481.5"/>
		<line fill="#FFFFFF" stroke="#000000" stroke-miterlimit="10" x1="997.3" y1="459.4" x2="1020" y2="459.4"/>
		<line fill="#FFFFFF" stroke="#000000" stroke-miterlimit="10" x1="934.3" y1="498.2" x2="957" y2="498.2"/>
		<line fill="#FFFFFF" stroke="#000000" stroke-miterlimit="10" x1="871.3" y1="481.5" x2="894" y2="481.5"/>
		<line fill="#FFFFFF" stroke="#000000" stroke-miterlimit="10" x1="808.3" y1="481.5" x2="831" y2="481.5"/>
		<line fill="#FFFFFF" stroke="#000000" stroke-miterlimit="10" x1="745.3" y1="464.8" x2="768" y2="464.8"/>
		<line fill="#FFFFFF" stroke="#000000" stroke-miterlimit="10" x1="682.3" y1="481.5" x2="705" y2="481.5"/>
		<line fill="#FFFFFF" stroke="#000000" stroke-miterlimit="10" x1="619.3" y1="481.5" x2="642" y2="481.5"/>
		<line fill="#FFFFFF" stroke="#000000" stroke-miterlimit="10" x1="556.3" y1="473.2" x2="579" y2="473.2"/>
		<line fill="#FFFFFF" stroke="#000000" stroke-miterlimit="10" x1="493.3" y1="478.9" x2="516" y2="478.9"/>
		<line fill="#FFFFFF" stroke="#000000" stroke-miterlimit="10" x1="430.3" y1="481.5" x2="453" y2="481.5"/>
		<line fill="#FFFFFF" stroke="#000000" stroke-miterlimit="10" x1="367.3" y1="483.6" x2="390" y2="483.6"/>
	</g>
	<g id="mediane">
		<g>
			<text transform="matrix(1 0 0 1 132.0003 292.6335)" fill="#373737" font-family="'Source Sans Pro', sans-serif" font-weight="300"  font-size="12px">outliers</text>
			<text transform="matrix(1 0 0 1 132.0003 467.935)" fill="#373737" font-family="'Source Sans Pro', sans-serif" font-weight="300"  font-size="12px">25% of</text>
			<text transform="matrix(1 0 0 1 132.0003 482.335)" fill="#373737" font-family="'Source Sans Pro', sans-serif" font-weight="300"  font-size="12px">reports</text>
			<text transform="matrix(1 0 0 1 132.0001 526.7344)" fill="#373737" font-family="'Source Sans Pro', sans-serif" font-weight="300"  font-size="12px">25% of</text>
			<text transform="matrix(1 0 0 1 132.0001 541.1343)" fill="#373737" font-family="'Source Sans Pro', sans-serif" font-weight="300"  font-size="12px">reports</text>
			<text transform="matrix(1 0 0 1 132.0001 588.1297)" fill="#373737" font-family="'Source Sans Pro', sans-serif" font-weight="300"  font-size="12px">year</text>
			<text transform="matrix(1 0 0 1 132 350.4344)" fill="#373737" font-family="'Source Sans Pro', sans-serif" font-weight="300"  font-size="12px">25% of</text>
			<text transform="matrix(1 0 0 1 132 364.8344)" fill="#373737" font-family="'Source Sans Pro', sans-serif" font-weight="300"  font-size="12px">reports</text>
			<text transform="matrix(1 0 0 1 131.9998 409.1847)" fill="#373737" font-family="'Source Sans Pro', sans-serif" font-weight="300"  font-size="12px">25% of</text>
			<text transform="matrix(1 0 0 1 131.9998 423.5847)" fill="#373737" font-family="'Source Sans Pro', sans-serif" font-weight="300"  font-size="12px">reports</text>
			<text transform="matrix(1 0 0 1 132.0003 242.3708)" fill="#373737" font-family="'Source Sans Pro', sans-serif" font-weight="700"  font-size="12px">LEGEND</text>
			<text transform="matrix(1 0 0 1 132 445.7701)" fill="#373737" font-family="'Source Sans Pro', sans-serif" font-weight="300"  font-size="12px">median</text>
			<g>
				<text transform="matrix(1 0 0 1 131.9999 626.9732)" fill="#373737" font-family="'Source Sans Pro', sans-serif" font-weight="300"  font-size="12px">n° of</text>
				<text transform="matrix(1 0 0 1 131.9999 641.3732)" fill="#373737" font-family="'Source Sans Pro', sans-serif" font-weight="300"  font-size="12px">reports</text>
			</g>
			<circle fill="none" stroke="#373737" stroke-width="0.9854" cx="232.3" cy="610.1" r="5.6"/>
			<text transform="matrix(1 0 0 1 223.0204 587.5869)" fill="#373737" font-family="'Source Sans Pro', sans-serif" font-weight="300"  font-size="10px">2000</text>
			<line fill="none" stroke="#373737" stroke-width="10" stroke-miterlimit="10" x1="232.3" y1="383.8" x2="232.3" y2="325"/>
			<line fill="none" stroke="#373737" stroke-width="10" stroke-miterlimit="10" x1="232.3" y1="383.8" x2="232.3" y2="325"/>
			
				<line opacity="0.8" fill="none" stroke="#373737" stroke-width="10" stroke-miterlimit="10" enable-background="new    " x1="232.3" y1="442.5" x2="232.3" y2="383.8"/>
			<line fill="none" stroke="#373737" stroke-width="10" stroke-miterlimit="10" x1="232.3" y1="383.8" x2="232.3" y2="325"/>
			
				<line opacity="0.5" fill="none" stroke="#373737" stroke-width="10" stroke-miterlimit="10" enable-background="new    " x1="232.3" y1="501.3" x2="232.3" y2="442.5"/>
			
				<line opacity="0.3" fill="none" stroke="#373737" stroke-width="10" stroke-miterlimit="10" enable-background="new    " x1="232.3" y1="560.1" x2="232.3" y2="501.3"/>
			<line fill="none" stroke="#373737" stroke-width="0.5" stroke-linejoin="round" x1="220.3" y1="442.5" x2="244.3" y2="442.5"/>
			<text transform="matrix(1 0 0 1 229.7964 641.5878)" fill="#373737" font-family="'Source Sans Pro', sans-serif" font-weight="700"  font-size="10px">4</text>
			<line fill="none" stroke="#373737" stroke-width="0.5" stroke-linejoin="round" x1="234.3" y1="292.2" x2="230.3" y2="288.2"/>
			<line fill="none" stroke="#373737" stroke-width="0.5" stroke-linejoin="round" x1="234.3" y1="288.2" x2="230.3" y2="292.2"/>
			<g>
				<g>
					<line fill="none" stroke="#373737" stroke-width="0.5" stroke-linejoin="round" x1="205.8" y1="290.2" x2="185.6" y2="290.2"/>
					<g>
						<polygon fill="#373737" points="204.1,288.1 203.8,288.5 205.6,290.2 203.8,291.8 204.1,292.2 206.3,290.2 						"/>
					</g>
				</g>
			</g>
			<g>
				<g>
					<line fill="none" stroke="#373737" stroke-width="0.5" stroke-linejoin="round" x1="205.8" y1="354.4" x2="185.6" y2="354.4"/>
					<g>
						<polygon fill="#373737" points="204.1,352.3 203.8,352.7 205.6,354.4 203.8,356 204.1,356.4 206.3,354.4 						"/>
					</g>
				</g>
			</g>
			<g>
				<g>
					<line fill="none" stroke="#373737" stroke-width="0.5" stroke-linejoin="round" x1="205.8" y1="413.9" x2="185.6" y2="413.9"/>
					<g>
						<polygon fill="#373737" points="204.1,411.9 203.8,412.2 205.6,413.9 203.8,415.6 204.1,416 206.3,413.9 						"/>
					</g>
				</g>
			</g>
			<g>
				<g>
					<line fill="none" stroke="#373737" stroke-width="0.5" stroke-linejoin="round" x1="205.8" y1="442.5" x2="185.6" y2="442.5"/>
					<g>
						<polygon fill="#373737" points="204.1,440.4 203.8,440.8 205.6,442.5 203.8,444.1 204.1,444.5 206.3,442.5 						"/>
					</g>
				</g>
			</g>
			<g>
				<g>
					<line fill="none" stroke="#373737" stroke-width="0.5" stroke-linejoin="round" x1="205.8" y1="471.9" x2="185.6" y2="471.9"/>
					<g>
						<polygon fill="#373737" points="204.1,469.8 203.8,470.2 205.6,471.9 203.8,473.5 204.1,473.9 206.3,471.9 						"/>
					</g>
				</g>
			</g>
			<g>
				<g>
					<line fill="none" stroke="#373737" stroke-width="0.5" stroke-linejoin="round" x1="205.8" y1="530.7" x2="185.6" y2="530.7"/>
					<g>
						<polygon fill="#373737" points="204.1,528.6 203.8,529 205.6,530.7 203.8,532.3 204.1,532.7 206.3,530.7 						"/>
					</g>
				</g>
			</g>
			<g>
				<g>
					<line fill="none" stroke="#373737" stroke-width="0.5" stroke-linejoin="round" x1="205.8" y1="584.9" x2="185.6" y2="584.9"/>
					<g>
						<polygon fill="#373737" points="204.1,582.8 203.8,583.2 205.6,584.9 203.8,586.5 204.1,586.9 206.3,584.9 						"/>
					</g>
				</g>
			</g>
			<g>
				<g>
					<line fill="none" stroke="#373737" stroke-width="0.5" stroke-linejoin="round" x1="205.8" y1="610.1" x2="185.6" y2="610.1"/>
					<g>
						<polygon fill="#373737" points="204.1,608 203.8,608.4 205.6,610.1 203.8,611.7 204.1,612.1 206.3,610.1 						"/>
					</g>
				</g>
			</g>
			<g>
				<g>
					<line fill="none" stroke="#373737" stroke-width="0.5" stroke-linejoin="round" x1="205.8" y1="637.6" x2="185.6" y2="637.6"/>
					<g>
						<polygon fill="#373737" points="204.1,635.6 203.8,636 205.6,637.6 203.8,639.3 204.1,639.7 206.3,637.6 						"/>
					</g>
				</g>
			</g>
			<polyline fill="none" stroke="#373737" stroke-width="0.5" stroke-linejoin="round" points="223,602.3 218.3,602.3 218.3,617.8 
				223,617.8 			"/>
		</g>
	</g>
</g>
</svg>
