<?xml version="1.0" encoding="utf-8"?>
<!-- Generator: Adobe Illustrator 19.1.0, SVG Export Plug-In . SVG Version: 6.00 Build 0)  -->
<svg version="1.1" xmlns="http://www.w3.org/2000/svg" xmlns:xlink="http://www.w3.org/1999/xlink" x="0px" y="0px"
	 viewBox="132 170.9 1140 500" style="enable-background:new 132 170.9 1140 500;" xml:space="preserve">
<style type="text/css">
	.st0{opacity:3.000000e-02;}
	.st1{opacity:7.500000e-02;}
	.st2{opacity:0.11;}
	.st3{opacity:0.14;}
	.st4{opacity:0.18;}
	.st5{opacity:0.22;}
	.st6{opacity:0.26;}
	.st7{opacity:0.3;}
	.st8{font-family:'SourceSansPro-Bold';}
	.st9{font-size:10px;}
	.st10{fill:none;stroke:#A478D6;stroke-miterlimit:10;}
	.st11{font-family:'SourceSansPro-Light';}
	.st12{fill:none;stroke:#373737;stroke-linejoin:round;}
	.st13{fill:none;stroke:#A478D6;stroke-width:10;stroke-miterlimit:10;}
	.st14{opacity:0.8;fill:none;stroke:#A478D6;stroke-width:10;stroke-miterlimit:10;}
	.st15{opacity:0.5;fill:none;stroke:#A478D6;stroke-width:10;stroke-miterlimit:10;}
	.st16{opacity:0.3;fill:none;stroke:#A478D6;stroke-width:10;stroke-miterlimit:10;}
	.st17{font-family:'SourceSansPro-Regular';}
	.st18{fill:#FFFFFF;stroke:#000000;stroke-miterlimit:10;}
	.st19{fill:#373737;}
	.st20{font-size:12px;}
	.st21{enable-background:new    ;}
	.st22{fill:none;stroke:#373737;stroke-width:0.9854;}
	.st23{fill:none;stroke:#373737;stroke-width:10;stroke-miterlimit:10;}
	.st24{opacity:0.8;fill:none;stroke:#373737;stroke-width:10;stroke-miterlimit:10;enable-background:new    ;}
	.st25{opacity:0.5;fill:none;stroke:#373737;stroke-width:10;stroke-miterlimit:10;enable-background:new    ;}
	.st26{opacity:0.3;fill:none;stroke:#373737;stroke-width:10;stroke-miterlimit:10;enable-background:new    ;}
	.st27{fill:none;stroke:#373737;stroke-width:0.5;stroke-linejoin:round;}
</style>
<g id="livelli">
</g>
<g id="roba_sotto">
</g>
<g id="Layer_1">
</g>
<g id="outliers">
</g>
<g id="boxplot">
</g>
<g id="numeri">
</g>
<g id="lato">
</g>
<g id="median">
	<g>
		<rect x="366.7" y="520.6" class="st0" width="900" height="40.3"/>
		<rect x="366.7" y="479.4" class="st1" width="900" height="41.2"/>
		<rect x="366.7" y="437.7" class="st2" width="900" height="41.7"/>
		<rect x="366.7" y="396.3" class="st3" width="900" height="41.4"/>
		<rect x="366.7" y="354.9" class="st4" width="900" height="41.4"/>
		<rect x="366.7" y="313.5" class="st5" width="900" height="41.4"/>
		<rect x="366.7" y="272.1" class="st6" width="900" height="41.4"/>
		<rect x="366.7" y="230.9" class="st7" width="900" height="41.4"/>
		<g transform="translate(0,440)">
			<text transform="matrix(1 0 0 1 373.9857 200.89)" class="st8 st9">28</text>
			<text transform="matrix(1 0 0 1 436.9857 200.89)" class="st8 st9">20</text>
			<text transform="matrix(1 0 0 1 503.3226 200.89)" class="st8 st9">8</text>
			<text transform="matrix(1 0 0 1 562.9857 200.89)" class="st8 st9">15</text>
			<text transform="matrix(1 0 0 1 625.9857 200.89)" class="st8 st9">17</text>
			<text transform="matrix(1 0 0 1 688.9857 200.89)" class="st8 st9">14</text>
			<text transform="matrix(1 0 0 1 755.3226 200.89)" class="st8 st9">8</text>
			<text transform="matrix(1 0 0 1 814.9857 200.89)" class="st8 st9">23</text>
			<text transform="matrix(1 0 0 1 877.9857 200.89)" class="st8 st9">16</text>
			<text transform="matrix(1 0 0 1 940.9857 200.89)" class="st8 st9">18</text>
			<text transform="matrix(1 0 0 1 1003.9857 200.89)" class="st8 st9">10</text>
			<text transform="matrix(1 0 0 1 1066.9856 200.89)" class="st8 st9">16</text>
			<text transform="matrix(1 0 0 1 1129.9856 200.89)" class="st8 st9">27</text>
			<text transform="matrix(1 0 0 1 1192.9856 200.89)" class="st8 st9">26</text>
			<text transform="matrix(1 0 0 1 1259.3225 200.89)" class="st8 st9">5</text>
		</g>
		<g transform="translate(0,410)">
			<circle class="st10" cx="379.7" cy="200.9" r="15"/>
			<circle class="st10" cx="442.7" cy="200.9" r="11.5"/>
			<circle class="st10" cx="505.7" cy="200.9" r="4.5"/>
			<circle class="st10" cx="568.7" cy="200.9" r="9"/>
			<circle class="st10" cx="631.7" cy="200.9" r="10"/>
			<circle class="st10" cx="694.7" cy="200.9" r="8.4"/>
			<circle class="st10" cx="757.7" cy="200.9" r="4.5"/>
			<circle class="st10" cx="820.7" cy="200.9" r="12.9"/>
			<circle class="st10" cx="883.7" cy="200.9" r="9.5"/>
			<circle class="st10" cx="946.7" cy="200.9" r="10.5"/>
			<circle class="st10" cx="1009.7" cy="200.9" r="5.9"/>
			<circle class="st10" cx="1072.7" cy="200.9" r="9.5"/>
			<circle class="st10" cx="1135.7" cy="200.9" r="14.6"/>
			<circle class="st10" cx="1198.7" cy="200.9" r="14.2"/>
			<circle class="st10" cx="1261.7" cy="200.9" r="2"/>
		</g>
		<g transform="translate(0,370)">
			<g transform="translate(9,0)">
				<text transform="matrix(1 0 0 1 360.3119 218.41)" class="st11 st9">2000</text>
			</g>
			<g transform="translate(72,0)">
				<text transform="matrix(1 0 0 1 360.3119 218.41)" class="st11 st9">2001</text>
			</g>
			<g transform="translate(135,0)">
				<text transform="matrix(1 0 0 1 360.3118 218.41)" class="st11 st9">2002</text>
			</g>
			<g transform="translate(198,0)">
				<text transform="matrix(1 0 0 1 360.3118 218.41)" class="st11 st9">2003</text>
			</g>
			<g transform="translate(261,0)">
				<text transform="matrix(1 0 0 1 360.3118 218.41)" class="st11 st9">2004</text>
			</g>
			<g transform="translate(324,0)">
				<text transform="matrix(1 0 0 1 360.3119 218.41)" class="st11 st9">2005</text>
			</g>
			<g transform="translate(387,0)">
				<text transform="matrix(1 0 0 1 360.3119 218.41)" class="st11 st9">2006</text>
			</g>
			<g transform="translate(450,0)">
				<text transform="matrix(1 0 0 1 360.3119 218.41)" class="st11 st9">2007</text>
			</g>
			<g transform="translate(513,0)">
				<text transform="matrix(1 0 0 1 360.3119 218.41)" class="st11 st9">2008</text>
			</g>
			<g transform="translate(576,0)">
				<text transform="matrix(1 0 0 1 360.3118 218.41)" class="st11 st9">2009</text>
			</g>
			<g transform="translate(639,0)">
				<text transform="matrix(1 0 0 1 360.3118 218.41)" class="st11 st9">2010</text>
			</g>
			<g transform="translate(702,0)">
				<text transform="matrix(1 0 0 1 360.7571 218.41)" class="st11 st9">2011</text>
			</g>
			<g transform="translate(765,0)">
				<text transform="matrix(1 0 0 1 360.3118 218.41)" class="st11 st9">2012</text>
			</g>
			<g transform="translate(828,0)">
				<text transform="matrix(1 0 0 1 360.3118 218.41)" class="st11 st9">2013</text>
			</g>
			<g transform="translate(891,0)">
				<text transform="matrix(1 0 0 1 360.3118 218.41)" class="st11 st9">2014</text>
			</g>
		</g>
		<g>
			<g>
				<g>
					<g>
						<g>
							<line class="st12" x1="381.5" y1="275.5" x2="375.9" y2="269.9"/>
							<line class="st12" x1="381.5" y1="269.9" x2="375.9" y2="275.5"/>
						</g>
					</g>
				</g>
			</g>
		</g>
		<g>
			<g>
				<g>
					<g>
						<g>
							<line class="st12" x1="507.5" y1="505.2" x2="501.9" y2="499.6"/>
							<line class="st12" x1="507.5" y1="499.6" x2="501.9" y2="505.2"/>
						</g>
					</g>
				</g>
			</g>
		</g>
		<g>
			<g>
				<g>
					<g>
						<g>
							<line class="st12" x1="507.5" y1="463.4" x2="501.9" y2="457.8"/>
							<line class="st12" x1="507.5" y1="457.8" x2="501.9" y2="463.4"/>
						</g>
					</g>
				</g>
			</g>
		</g>
		<g>
			<g>
				<g>
					<g>
						<g>
							<line class="st12" x1="507.5" y1="442.6" x2="501.9" y2="437"/>
							<line class="st12" x1="507.5" y1="437" x2="501.9" y2="442.6"/>
						</g>
					</g>
				</g>
			</g>
		</g>
		<g>
			<g>
				<g>
					<g>
						<g>
							<line class="st12" x1="759.5" y1="292.2" x2="753.9" y2="286.6"/>
							<line class="st12" x1="759.5" y1="286.6" x2="753.9" y2="292.2"/>
						</g>
					</g>
				</g>
			</g>
		</g>
		<g>
			<g>
				<g>
					<g>
						<g>
							<line class="st12" x1="822.5" y1="317.2" x2="816.9" y2="311.6"/>
							<line class="st12" x1="822.5" y1="311.6" x2="816.9" y2="317.2"/>
						</g>
					</g>
				</g>
			</g>
		</g>
		<g>
			<g>
				<g>
					<g>
						<g>
							<line class="st12" x1="885.5" y1="442.6" x2="879.9" y2="437"/>
							<line class="st12" x1="885.5" y1="437" x2="879.9" y2="442.6"/>
						</g>
					</g>
				</g>
			</g>
		</g>
		<g>
			<g>
				<g>
					<g>
						<g>
							<line class="st12" x1="885.5" y1="421.7" x2="879.9" y2="416.1"/>
							<line class="st12" x1="885.5" y1="416.1" x2="879.9" y2="421.7"/>
						</g>
					</g>
				</g>
			</g>
		</g>
		<g>
			<g>
				<g>
					<g>
						<g>
							<line class="st12" x1="885.5" y1="233.7" x2="879.9" y2="228.1"/>
							<line class="st12" x1="885.5" y1="228.1" x2="879.9" y2="233.7"/>
						</g>
					</g>
				</g>
			</g>
		</g>
		<g>
			<g>
				<g>
					<g>
						<g>
							<line class="st12" x1="948.5" y1="400.8" x2="942.9" y2="395.2"/>
							<line class="st12" x1="948.5" y1="395.2" x2="942.9" y2="400.8"/>
						</g>
					</g>
				</g>
			</g>
		</g>
		<g>
			<g>
				<g>
					<g>
						<g>
							<line class="st12" x1="1137.5" y1="350.7" x2="1131.9" y2="345.1"/>
							<line class="st12" x1="1137.5" y1="345.1" x2="1131.9" y2="350.7"/>
						</g>
					</g>
				</g>
			</g>
		</g>
		<g>
			<g>
				<g>
					<g>
						<g>
							<line class="st12" x1="1137.5" y1="317.2" x2="1131.9" y2="311.6"/>
							<line class="st12" x1="1137.5" y1="311.6" x2="1131.9" y2="317.2"/>
						</g>
					</g>
				</g>
			</g>
		</g>
		<g>
			<g>
				<g>
					<g>
						<g>
							<line class="st12" x1="1137.5" y1="317.2" x2="1131.9" y2="311.6"/>
							<line class="st12" x1="1137.5" y1="311.6" x2="1131.9" y2="317.2"/>
						</g>
					</g>
				</g>
			</g>
		</g>
		<line class="st13" x1="378.7" y1="459.6" x2="378.7" y2="414.7"/>
		<line class="st14" x1="378.7" y1="483.6" x2="378.7" y2="459.6"/>
		<line class="st15" x1="378.7" y1="522.9" x2="378.7" y2="483.6"/>
		<line class="st16" x1="378.7" y1="544.2" x2="378.7" y2="522.9"/>
		<line class="st13" x1="441.7" y1="459.6" x2="441.7" y2="398"/>
		<line class="st14" x1="441.7" y1="481.5" x2="441.7" y2="459.6"/>
		<line class="st15" x1="441.7" y1="523.3" x2="441.7" y2="481.5"/>
		<line class="st16" x1="441.7" y1="548.4" x2="441.7" y2="523.3"/>
		<line class="st13" x1="567.7" y1="464.8" x2="567.7" y2="460.6"/>
		<line class="st14" x1="567.7" y1="473.2" x2="567.7" y2="464.8"/>
		<line class="st15" x1="567.7" y1="511.8" x2="567.7" y2="473.2"/>
		<line class="st16" x1="567.7" y1="544.2" x2="567.7" y2="511.8"/>
		<line class="st13" x1="630.7" y1="460.6" x2="630.7" y2="398"/>
		<line class="st14" x1="630.7" y1="481.5" x2="630.7" y2="460.6"/>
		<line class="st15" x1="630.7" y1="523.3" x2="630.7" y2="481.5"/>
		<line class="st16" x1="630.7" y1="548.4" x2="630.7" y2="523.3"/>
		<line class="st13" x1="693.7" y1="324.9" x2="693.7" y2="286.9"/>
		<line class="st14" x1="693.7" y1="481.5" x2="693.7" y2="324.9"/>
		<line class="st15" x1="693.7" y1="511.8" x2="693.7" y2="481.5"/>
		<line class="st16" x1="693.7" y1="559.2" x2="693.7" y2="511.8"/>
		<line class="st14" x1="756.7" y1="464.8" x2="756.7" y2="398"/>
		<line class="st15" x1="756.7" y1="470.2" x2="756.7" y2="464.8"/>
		<line class="st16" x1="756.7" y1="514.9" x2="756.7" y2="470.2"/>
		<line class="st13" x1="819.7" y1="439.8" x2="819.7" y2="356.2"/>
		<line class="st14" x1="819.7" y1="481.5" x2="819.7" y2="439.8"/>
		<line class="st15" x1="819.7" y1="510.8" x2="819.7" y2="481.5"/>
		<line class="st16" x1="819.7" y1="548.4" x2="819.7" y2="510.8"/>
		<line class="st15" x1="882.7" y1="500.3" x2="882.7" y2="481.5"/>
		<line class="st16" x1="882.7" y1="523.3" x2="882.7" y2="500.3"/>
		<line class="st13" x1="945.7" y1="481.5" x2="945.7" y2="459.4"/>
		<line class="st14" x1="945.7" y1="498.2" x2="945.7" y2="481.5"/>
		<line class="st15" x1="945.7" y1="523.3" x2="945.7" y2="498.2"/>
		<line class="st16" x1="945.7" y1="540" x2="945.7" y2="523.3"/>
		<line class="st13" x1="1008.7" y1="398" x2="1008.7" y2="272.7"/>
		<line class="st14" x1="1008.7" y1="459.4" x2="1008.7" y2="398"/>
		<line class="st15" x1="1008.7" y1="481.5" x2="1008.7" y2="459.4"/>
		<line class="st16" x1="1008.7" y1="527.5" x2="1008.7" y2="481.5"/>
		<line class="st13" x1="1071.7" y1="398" x2="1071.7" y2="230.9"/>
		<line class="st14" x1="1071.7" y1="481.5" x2="1071.7" y2="398"/>
		<line class="st15" x1="1071.7" y1="509.7" x2="1071.7" y2="481.5"/>
		<line class="st16" x1="1071.7" y1="560.9" x2="1071.7" y2="509.7"/>
		<line class="st13" x1="1134.7" y1="439.8" x2="1134.7" y2="398"/>
		<line class="st14" x1="1134.7" y1="460.6" x2="1134.7" y2="439.8"/>
		<line class="st15" x1="1134.7" y1="481.5" x2="1134.7" y2="460.6"/>
		<line class="st16" x1="1134.7" y1="531.6" x2="1134.7" y2="481.5"/>
		<line class="st13" x1="1197.7" y1="398" x2="1197.7" y2="314.4"/>
		<line class="st14" x1="1197.7" y1="460.6" x2="1197.7" y2="398"/>
		<line class="st15" x1="1197.7" y1="502.4" x2="1197.7" y2="460.6"/>
		<line class="st16" x1="1197.7" y1="548.4" x2="1197.7" y2="502.4"/>
		<line class="st13" x1="1260.7" y1="464.8" x2="1260.7" y2="460.6"/>
		<line class="st14" x1="1260.7" y1="473.2" x2="1260.7" y2="464.8"/>
		<line class="st15" x1="1260.7" y1="531.6" x2="1260.7" y2="473.2"/>
		<line class="st16" x1="1260.7" y1="553.4" x2="1260.7" y2="531.6"/>
		<line class="st14" x1="504.7" y1="481.5" x2="504.7" y2="476.3"/>
		<g transform="translate(0,0)">
			<g transform="translate(0,322.4050632911392)">
				<text transform="matrix(1 0 0 1 339.304 204.73)" class="st17 st9">0.05</text>
				<text transform="matrix(1 0 0 1 339.304 240.48)" class="st17 st9">0.00</text>
			</g>
			<g transform="translate(0,280.6329113924051)">
				<text transform="matrix(1 0 0 1 339.304 204.73)" class="st17 st9">0.10</text>
			</g>
			<g transform="translate(0,238.8607594936709)">
				<text transform="matrix(1 0 0 1 339.304 204.73)" class="st17 st9">0.15</text>
			</g>
			<g transform="translate(0,197.08860759493672)">
				<text transform="matrix(1 0 0 1 339.304 204.73)" class="st17 st9">0.20</text>
			</g>
			<g transform="translate(0,155.31645569620255)">
				<text transform="matrix(1 0 0 1 339.304 204.73)" class="st17 st9">0.25</text>
			</g>
			<g transform="translate(0,113.54430379746839)">
				<text transform="matrix(1 0 0 1 339.304 204.73)" class="st17 st9">0.30</text>
			</g>
			<g transform="translate(0,71.77215189873422)">
				<text transform="matrix(1 0 0 1 339.304 204.73)" class="st17 st9">0.35</text>
			</g>
			<g transform="translate(0,30)">
				<text transform="matrix(1 0 0 1 339.304 204.73)" class="st17 st9">0.40</text>
			</g>
		</g>
		<line class="st18" x1="1249.3" y1="473.2" x2="1272" y2="473.2"/>
		<line class="st18" x1="1186.3" y1="460.6" x2="1209" y2="460.6"/>
		<line class="st18" x1="1123.3" y1="460.6" x2="1146" y2="460.6"/>
		<line class="st18" x1="1060.3" y1="481.5" x2="1083" y2="481.5"/>
		<line class="st18" x1="997.3" y1="459.4" x2="1020" y2="459.4"/>
		<line class="st18" x1="934.3" y1="498.2" x2="957" y2="498.2"/>
		<line class="st18" x1="871.3" y1="481.5" x2="894" y2="481.5"/>
		<line class="st18" x1="808.3" y1="481.5" x2="831" y2="481.5"/>
		<line class="st18" x1="745.3" y1="464.8" x2="768" y2="464.8"/>
		<line class="st18" x1="682.3" y1="481.5" x2="705" y2="481.5"/>
		<line class="st18" x1="619.3" y1="481.5" x2="642" y2="481.5"/>
		<line class="st18" x1="556.3" y1="473.2" x2="579" y2="473.2"/>
		<line class="st18" x1="493.3" y1="478.9" x2="516" y2="478.9"/>
		<line class="st18" x1="430.3" y1="481.5" x2="453" y2="481.5"/>
		<line class="st18" x1="367.3" y1="483.6" x2="390" y2="483.6"/>
	</g>
	<g>
		<text transform="matrix(1 0 0 1 136.7 291.5166)" class="st19 st11 st20">outliers</text>
		<text transform="matrix(1 0 0 1 136.7 466.818)" class="st21"><tspan x="0" y="0" class="st19 st11 st20">25% of</tspan><tspan x="0" y="14.4" class="st19 st11 st20">reports</tspan></text>
		<text transform="matrix(1 0 0 1 136.6998 525.6174)" class="st21"><tspan x="0" y="0" class="st19 st11 st20">25% of</tspan><tspan x="0" y="14.4" class="st19 st11 st20">reports</tspan></text>
		<text transform="matrix(1 0 0 1 136.6998 587.0127)" class="st19 st11 st20">year</text>
		<text transform="matrix(1 0 0 1 136.6997 349.3174)" class="st21"><tspan x="0" y="0" class="st19 st11 st20">25% of</tspan><tspan x="0" y="14.4" class="st19 st11 st20">reports</tspan></text>
		<text transform="matrix(1 0 0 1 136.6995 408.0677)" class="st21"><tspan x="0" y="0" class="st19 st11 st20">25% of</tspan><tspan x="0" y="14.4" class="st19 st11 st20">reports</tspan></text>
		<text transform="matrix(1 0 0 1 136.7 241.2538)" class="st19 st8 st20">LEGEND</text>
		<text transform="matrix(1 0 0 1 136.6997 444.6531)" class="st19 st11 st20">median</text>
		<g>
			<text transform="matrix(1 0 0 1 140.1996 625.8562)" class="st21"><tspan x="0" y="0" class="st19 st11 st20">n° of</tspan><tspan x="0" y="14.4" class="st19 st11 st20">reports</tspan></text>
		</g>
		<circle class="st22" cx="237" cy="609" r="5.6"/>
		<text transform="matrix(1 0 0 1 227.7201 586.4699)" class="st19 st11 st9">2000</text>
		<line class="st23" x1="237" y1="382.7" x2="237" y2="323.9"/>
		<line class="st23" x1="237" y1="382.7" x2="237" y2="323.9"/>
		<line class="st24" x1="237" y1="441.4" x2="237" y2="382.7"/>
		<line class="st23" x1="237" y1="382.7" x2="237" y2="323.9"/>
		<line class="st25" x1="237" y1="500.2" x2="237" y2="441.4"/>
		<line class="st26" x1="237" y1="559" x2="237" y2="500.2"/>
		<line class="st27" x1="225" y1="441.4" x2="249" y2="441.4"/>
		<text transform="matrix(1 0 0 1 234.4961 640.4708)" class="st19 st8 st9">4</text>
		<line class="st27" x1="239" y1="291.1" x2="235" y2="287.1"/>
		<line class="st27" x1="239" y1="287.1" x2="235" y2="291.1"/>
		<g>
			<g>
				<line class="st27" x1="210.5" y1="289.1" x2="190.3" y2="289.1"/>
				<g>
					<polygon class="st19" points="208.8,287 208.5,287.4 210.3,289.1 208.5,290.7 208.8,291.1 211,289.1 					"/>
				</g>
			</g>
		</g>
		<g>
			<g>
				<line class="st27" x1="210.5" y1="353.3" x2="190.3" y2="353.3"/>
				<g>
					<polygon class="st19" points="208.8,351.2 208.5,351.6 210.3,353.3 208.5,354.9 208.8,355.3 211,353.3 					"/>
				</g>
			</g>
		</g>
		<g>
			<g>
				<line class="st27" x1="210.5" y1="412.8" x2="190.3" y2="412.8"/>
				<g>
					<polygon class="st19" points="208.8,410.8 208.5,411.1 210.3,412.8 208.5,414.5 208.8,414.9 211,412.8 					"/>
				</g>
			</g>
		</g>
		<g>
			<g>
				<line class="st27" x1="210.5" y1="441.4" x2="190.3" y2="441.4"/>
				<g>
					<polygon class="st19" points="208.8,439.3 208.5,439.7 210.3,441.4 208.5,443 208.8,443.4 211,441.4 					"/>
				</g>
			</g>
		</g>
		<g>
			<g>
				<line class="st27" x1="210.5" y1="470.8" x2="190.3" y2="470.8"/>
				<g>
					<polygon class="st19" points="208.8,468.7 208.5,469.1 210.3,470.8 208.5,472.4 208.8,472.8 211,470.8 					"/>
				</g>
			</g>
		</g>
		<g>
			<g>
				<line class="st27" x1="210.5" y1="529.6" x2="190.3" y2="529.6"/>
				<g>
					<polygon class="st19" points="208.8,527.5 208.5,527.9 210.3,529.6 208.5,531.2 208.8,531.6 211,529.6 					"/>
				</g>
			</g>
		</g>
		<g>
			<g>
				<line class="st27" x1="210.5" y1="583.8" x2="190.3" y2="583.8"/>
				<g>
					<polygon class="st19" points="208.8,581.7 208.5,582.1 210.3,583.8 208.5,585.4 208.8,585.8 211,583.8 					"/>
				</g>
			</g>
		</g>
		<g>
			<g>
				<line class="st27" x1="210.5" y1="609" x2="190.3" y2="609"/>
				<g>
					<polygon class="st19" points="208.8,606.9 208.5,607.3 210.3,609 208.5,610.6 208.8,611 211,609 					"/>
				</g>
			</g>
		</g>
		<g>
			<g>
				<line class="st27" x1="210.5" y1="636.5" x2="190.3" y2="636.5"/>
				<g>
					<polygon class="st19" points="208.8,634.5 208.5,634.9 210.3,636.5 208.5,638.2 208.8,638.6 211,636.5 					"/>
				</g>
			</g>
		</g>
		<polyline class="st27" points="227.7,601.2 223,601.2 223,616.7 227.7,616.7 		"/>
	</g>
</g>
</svg>
