<?xml version="1.0" encoding="utf-8"?>
<!-- Generator: Adobe Illustrator 19.2.1, SVG Export Plug-In . SVG Version: 6.00 Build 0)  -->
<svg version="1.1" id="Layer_1" xmlns="http://www.w3.org/2000/svg" xmlns:xlink="http://www.w3.org/1999/xlink" x="0px" y="0px"
	 viewBox="0 0 1140 500" style="enable-background:new 0 0 1140 500;" xml:space="preserve">
<style type="text/css">
	.st0{fill:#F4F4F4;stroke:#FDFDFD;stroke-miterlimit:10;}
	.st1{font-family:'SourceSansPro-Regular';}
	.st2{font-size:10px;}
	.st3{font-family:'SourceSansPro-Bold';}
	.st4{fill:none;stroke:#30D49D;stroke-miterlimit:10;}
	.st5{font-family:'SourceSansPro-Light';}
	.st6{fill:none;stroke:#373737;stroke-linejoin:round;}
	.st7{opacity:0.7;fill:none;stroke:#30D49D;stroke-width:10;stroke-miterlimit:10;enable-background:new    ;}
	.st8{opacity:0.5;fill:none;stroke:#30D49D;stroke-width:10;stroke-miterlimit:10;enable-background:new    ;}
	.st9{fill:none;stroke:#30D49D;stroke-width:10;stroke-miterlimit:10;}
	.st10{opacity:0.3;fill:none;stroke:#30D49D;stroke-width:10;stroke-miterlimit:10;enable-background:new    ;}
	.st11{fill:none;stroke:#000000;stroke-miterlimit:10;}
	.st12{fill:#373737;}
	.st13{font-size:12px;}
	.st14{fill:none;stroke:#373737;stroke-width:0.9854;}
	.st15{fill:none;stroke:#373737;stroke-width:10;stroke-miterlimit:10;}
	.st16{opacity:0.8;fill:none;stroke:#373737;stroke-width:10;stroke-miterlimit:10;enable-background:new    ;}
	.st17{opacity:0.5;fill:none;stroke:#373737;stroke-width:10;stroke-miterlimit:10;enable-background:new    ;}
	.st18{opacity:0.3;fill:none;stroke:#373737;stroke-width:10;stroke-miterlimit:10;enable-background:new    ;}
	.st19{fill:none;stroke:#373737;stroke-width:0.5;stroke-linejoin:round;}
	.st20{fill:#FFFFFF;}
</style>
<g id="livelli">
</g>
<g id="Layer_1_1_">
</g>
<g id="numeri">
</g>
<g id="roba_di_lato">
</g>
<g id="roba_sotto">
</g>
<g id="outliers">
</g>
<g id="boxplot">
</g>
<g>
	<g id="median">
		<g>
			<rect x="233.2" y="370.7" class="st0" width="900" height="44.8"/>
			<rect x="233.2" y="325" class="st0" width="900" height="45.7"/>
			<rect x="233.2" y="278.7" class="st0" width="900" height="46.3"/>
			<rect x="233.2" y="232.7" class="st0" width="900" height="45.9"/>
			<rect x="233.2" y="186.8" class="st0" width="900" height="45.9"/>
			<rect x="233.2" y="140.8" class="st0" width="900" height="45.9"/>
			<rect x="233.2" y="94.9" class="st0" width="900" height="45.9"/>
			<g transform="translate(0,0)">
				<g transform="translate(0,318.169014084507)">
					<text transform="matrix(1 0 0 1 217.4857 59.3121)" class="st1 st2">1</text>
				</g>
				<g transform="translate(0,271.6901408450704)">
					<text transform="matrix(1 0 0 1 217.4857 59.312)" class="st1 st2">2</text>
				</g>
				<g transform="translate(0,225.21126760563385)">
					<text transform="matrix(1 0 0 1 217.4857 59.312)" class="st1 st2">3</text>
				</g>
				<g transform="translate(0,178.73239436619718)">
					<text transform="matrix(1 0 0 1 217.4857 59.312)" class="st1 st2">4</text>
				</g>
				<g transform="translate(0,132.25352112676057)">
					<text transform="matrix(1 0 0 1 217.4857 59.3121)" class="st1 st2">5</text>
				</g>
				<g transform="translate(0,85.77464788732394)">
					<text transform="matrix(1 0 0 1 217.4857 59.312)" class="st1 st2">6</text>
				</g>
				<g transform="translate(0,39.29577464788735)">
					<text transform="matrix(1 0 0 1 217.4857 59.3121)" class="st1 st2">7</text>
				</g>
			</g>
			<g transform="translate(0,0)">
				<g transform="translate(0,318.169014084507)">
					<text transform="matrix(1 0 0 1 217.4857 59.3121)" class="st1 st2">1</text>
					<text transform="matrix(1 0 0 1 217.4857 100.1029)" class="st1 st2">0</text>
				</g>
				<g transform="translate(0,271.6901408450704)">
					<text transform="matrix(1 0 0 1 217.4857 59.312)" class="st1 st2">2</text>
				</g>
				<g transform="translate(0,225.21126760563385)">
					<text transform="matrix(1 0 0 1 217.4857 59.312)" class="st1 st2">3</text>
				</g>
				<g transform="translate(0,178.73239436619718)">
					<text transform="matrix(1 0 0 1 217.4857 59.312)" class="st1 st2">4</text>
				</g>
				<g transform="translate(0,132.25352112676057)">
					<text transform="matrix(1 0 0 1 217.4857 59.3121)" class="st1 st2">5</text>
				</g>
				<g transform="translate(0,85.77464788732394)">
					<text transform="matrix(1 0 0 1 217.4857 59.312)" class="st1 st2">6</text>
				</g>
				<g transform="translate(0,39.29577464788735)">
					<text transform="matrix(1 0 0 1 217.4857 59.3121)" class="st1 st2">7</text>
				</g>
			</g>
			<g transform="translate(0,440)">
				<text transform="matrix(1 0 0 1 241.8226 55.4721)" class="st3 st2">4</text>
				<text transform="matrix(1 0 0 1 309.8226 55.4721)" class="st3 st2">3</text>
				<text transform="matrix(1 0 0 1 377.8226 55.4721)" class="st3 st2">8</text>
				<text transform="matrix(1 0 0 1 445.8226 55.4721)" class="st3 st2">7</text>
				<text transform="matrix(1 0 0 1 513.8226 55.4721)" class="st3 st2">4</text>
				<text transform="matrix(1 0 0 1 578.931 55.4721)" class="st3 st2">11</text>
				<text transform="matrix(1 0 0 1 649.8226 55.4721)" class="st3 st2">9</text>
				<text transform="matrix(1 0 0 1 717.8226 55.4721)" class="st3 st2">9</text>
				<text transform="matrix(1 0 0 1 785.8226 55.4721)" class="st3 st2">9</text>
				<text transform="matrix(1 0 0 1 853.8226 55.4721)" class="st3 st2">4</text>
				<text transform="matrix(1 0 0 1 921.8225 55.4721)" class="st3 st2">8</text>
				<text transform="matrix(1 0 0 1 986.4856 55.4721)" class="st3 st2">20</text>
				<text transform="matrix(1 0 0 1 1057.8225 55.4721)" class="st3 st2">3</text>
				<text transform="matrix(1 0 0 1 1125.8225 55.4721)" class="st3 st2">3</text>
			</g>
			<g transform="translate(0,410)">
				<circle class="st4" cx="245.2" cy="55.5" r="3.3"/>
				<circle class="st4" cx="313.2" cy="55.5" r="2"/>
				<circle class="st4" cx="381.2" cy="55.5" r="7.2"/>
				<circle class="st4" cx="449.2" cy="55.5" r="6.3"/>
				<circle class="st4" cx="517.2" cy="55.5" r="3.3"/>
				<circle class="st4" cx="585.2" cy="55.5" r="9.5"/>
				<circle class="st4" cx="653.2" cy="55.5" r="8"/>
				<circle class="st4" cx="721.2" cy="55.5" r="8"/>
				<circle class="st4" cx="789.2" cy="55.5" r="8"/>
				<circle class="st4" cx="857.2" cy="55.5" r="3.3"/>
				<circle class="st4" cx="925.2" cy="55.5" r="7.2"/>
				<circle class="st4" cx="993.2" cy="55.5" r="15"/>
				<circle class="st4" cx="1061.2" cy="55.5" r="2"/>
				<circle class="st4" cx="1129.2" cy="55.5" r="2"/>
			</g>
			<g transform="translate(0,370)">
				<g transform="translate(8.5,0)">
					<text transform="matrix(1 0 0 1 226.8119 72.9921)" class="st5 st2">2001</text>
				</g>
				<g transform="translate(76.5,0)">
					<text transform="matrix(1 0 0 1 226.8119 72.9921)" class="st5 st2">2002</text>
				</g>
				<g transform="translate(144.5,0)">
					<text transform="matrix(1 0 0 1 226.8118 72.9921)" class="st5 st2">2003</text>
				</g>
				<g transform="translate(212.5,0)">
					<text transform="matrix(1 0 0 1 226.8118 72.9921)" class="st5 st2">2004</text>
				</g>
				<g transform="translate(280.5,0)">
					<text transform="matrix(1 0 0 1 226.8118 72.9921)" class="st5 st2">2005</text>
				</g>
				<g transform="translate(348.5,0)">
					<text transform="matrix(1 0 0 1 226.8119 72.9921)" class="st5 st2">2006</text>
				</g>
				<g transform="translate(416.5,0)">
					<text transform="matrix(1 0 0 1 226.8119 72.9921)" class="st5 st2">2007</text>
				</g>
				<g transform="translate(484.5,0)">
					<text transform="matrix(1 0 0 1 226.8119 72.9921)" class="st5 st2">2008</text>
				</g>
				<g transform="translate(552.5,0)">
					<text transform="matrix(1 0 0 1 226.8119 72.9921)" class="st5 st2">2009</text>
				</g>
				<g transform="translate(620.5,0)">
					<text transform="matrix(1 0 0 1 226.8118 72.9921)" class="st5 st2">2010</text>
				</g>
				<g transform="translate(688.5,0)">
					<text transform="matrix(1 0 0 1 227.2571 72.9921)" class="st5 st2">2011</text>
				</g>
				<g transform="translate(756.5,0)">
					<text transform="matrix(1 0 0 1 226.8118 72.9921)" class="st5 st2">2012</text>
				</g>
				<g transform="translate(824.5,0)">
					<text transform="matrix(1 0 0 1 226.8118 72.9921)" class="st5 st2">2013</text>
				</g>
				<g transform="translate(892.5,0)">
					<text transform="matrix(1 0 0 1 226.8118 72.9921)" class="st5 st2">2014</text>
				</g>
			</g>
			<g>
				<g>
					<g>
						<g>
							<g>
								<g>
									<line class="st6" x1="383.5" y1="237" x2="377.9" y2="231.4"/>
									<line class="st6" x1="383.5" y1="231.4" x2="377.9" y2="237"/>
								</g>
							</g>
						</g>
					</g>
				</g>
			</g>
			<g>
				<g>
					<g>
						<g>
							<g>
								<g>
									<line class="st6" x1="451.5" y1="199.8" x2="445.9" y2="194.2"/>
									<line class="st6" x1="451.5" y1="194.2" x2="445.9" y2="199.8"/>
								</g>
							</g>
						</g>
					</g>
				</g>
			</g>
			<g>
				<g>
					<g>
						<g>
							<g>
								<g>
									<line class="st6" x1="519.5" y1="162.7" x2="513.9" y2="157.1"/>
									<line class="st6" x1="519.5" y1="157.1" x2="513.9" y2="162.7"/>
								</g>
							</g>
						</g>
					</g>
				</g>
			</g>
			<g>
				<g>
					<g>
						<g>
							<g>
								<g>
									<line class="st6" x1="587.5" y1="88.3" x2="581.9" y2="82.7"/>
									<line class="st6" x1="587.5" y1="82.7" x2="581.9" y2="88.3"/>
								</g>
							</g>
						</g>
					</g>
				</g>
			</g>
			<g>
				<g>
					<g>
						<g>
							<g>
								<g>
									<line class="st6" x1="655.5" y1="199.8" x2="649.9" y2="194.2"/>
									<line class="st6" x1="655.5" y1="194.2" x2="649.9" y2="199.8"/>
								</g>
							</g>
						</g>
					</g>
				</g>
			</g>
			<g>
				<g>
					<g>
						<g>
							<g>
								<g>
									<line class="st6" x1="655.5" y1="190.5" x2="649.9" y2="184.9"/>
									<line class="st6" x1="655.5" y1="184.9" x2="649.9" y2="190.5"/>
								</g>
							</g>
						</g>
					</g>
				</g>
			</g>
			<g>
				<g>
					<g>
						<g>
							<g>
								<g>
									<line class="st6" x1="723.5" y1="418.3" x2="717.9" y2="412.7"/>
									<line class="st6" x1="723.5" y1="412.7" x2="717.9" y2="418.3"/>
								</g>
							</g>
						</g>
					</g>
				</g>
			</g>
			<g>
				<g>
					<g>
						<g>
							<g>
								<g>
									<line class="st6" x1="723.5" y1="385.8" x2="717.9" y2="380.2"/>
									<line class="st6" x1="723.5" y1="380.2" x2="717.9" y2="385.8"/>
								</g>
							</g>
						</g>
					</g>
				</g>
			</g>
			<g>
				<g>
					<g>
						<g>
							<g>
								<g>
									<line class="st6" x1="723.5" y1="199.8" x2="717.9" y2="194.2"/>
									<line class="st6" x1="723.5" y1="194.2" x2="717.9" y2="199.8"/>
								</g>
							</g>
						</g>
					</g>
				</g>
			</g>
			<g>
				<g>
					<g>
						<g>
							<g>
								<g>
									<line class="st6" x1="791.5" y1="213.8" x2="785.9" y2="208.2"/>
									<line class="st6" x1="791.5" y1="208.2" x2="785.9" y2="213.8"/>
								</g>
							</g>
						</g>
					</g>
				</g>
			</g>
			<g>
				<g>
					<g>
						<g>
							<g>
								<g>
									<line class="st6" x1="927.5" y1="88.3" x2="921.9" y2="82.7"/>
									<line class="st6" x1="927.5" y1="82.7" x2="921.9" y2="88.3"/>
								</g>
							</g>
						</g>
					</g>
				</g>
			</g>
			<line class="st7" x1="244.7" y1="345.8" x2="244.7" y2="308.6"/>
			<line class="st8" x1="244.7" y1="383" x2="244.7" y2="345.8"/>
			<line class="st9" x1="312.7" y1="299.3" x2="312.7" y2="252.8"/>
			<line class="st7" x1="312.7" y1="345.8" x2="312.7" y2="299.3"/>
			<line class="st9" x1="380.7" y1="331.8" x2="380.7" y2="290"/>
			<line class="st7" x1="380.7" y1="364.4" x2="380.7" y2="331.8"/>
			<line class="st8" x1="380.7" y1="383" x2="380.7" y2="364.4"/>
			<line class="st7" x1="448.7" y1="327.2" x2="448.7" y2="308.6"/>
			<line class="st8" x1="448.7" y1="355.1" x2="448.7" y2="327.2"/>
			<line class="st10" x1="448.7" y1="383" x2="448.7" y2="355.1"/>
			<line class="st7" x1="516.7" y1="327.2" x2="516.7" y2="285.3"/>
			<line class="st8" x1="516.7" y1="339.4" x2="516.7" y2="327.2"/>
			<line class="st10" x1="516.7" y1="376" x2="516.7" y2="339.4"/>
			<line class="st9" x1="584.7" y1="345.8" x2="584.7" y2="308.6"/>
			<line class="st7" x1="584.7" y1="364.4" x2="584.7" y2="345.8"/>
			<line class="st8" x1="584.7" y1="380.6" x2="584.7" y2="364.4"/>
			<line class="st10" x1="584.7" y1="401.5" x2="584.7" y2="380.6"/>
			<line class="st7" x1="652.7" y1="308.6" x2="652.7" y2="271.4"/>
			<line class="st8" x1="652.7" y1="315.6" x2="652.7" y2="308.6"/>
			<line class="st10" x1="652.7" y1="373.7" x2="652.7" y2="315.6"/>
			<line class="st8" x1="720.7" y1="280.7" x2="720.7" y2="308.6"/>
			<line class="st9" x1="788.7" y1="303.9" x2="788.7" y2="290"/>
			<line class="st8" x1="788.7" y1="349.3" x2="788.7" y2="303.9"/>
			<line class="st8" x1="788.7" y1="383" x2="788.7" y2="349.3"/>
			<line class="st9" x1="856.7" y1="292.3" x2="856.7" y2="187.7"/>
			<line class="st7" x1="856.7" y1="366.1" x2="856.7" y2="292.3"/>
			<line class="st8" x1="856.7" y1="406.2" x2="856.7" y2="366.1"/>
			<line class="st9" x1="924.7" y1="312.4" x2="924.7" y2="211"/>
			<line class="st7" x1="924.7" y1="372.5" x2="924.7" y2="312.4"/>
			<line class="st8" x1="924.7" y1="383" x2="924.7" y2="372.5"/>
			<line class="st9" x1="992.7" y1="300.5" x2="992.7" y2="187.7"/>
			<line class="st7" x1="992.7" y1="336.5" x2="992.7" y2="300.5"/>
			<line class="st8" x1="992.7" y1="383" x2="992.7" y2="336.5"/>
			<line class="st8" x1="992.7" y1="396.9" x2="992.7" y2="383"/>
			<line class="st9" x1="1060.7" y1="252.8" x2="1060.7" y2="234.2"/>
			<line class="st7" x1="1060.7" y1="271.4" x2="1060.7" y2="252.8"/>
			<line class="st8" x1="1060.7" y1="334.2" x2="1060.7" y2="271.4"/>
			<line class="st8" x1="1060.7" y1="396.9" x2="1060.7" y2="334.2"/>
			<line class="st9" x1="1128.7" y1="290" x2="1128.7" y2="234.2"/>
			<line class="st7" x1="1128.7" y1="345.8" x2="1128.7" y2="290"/>
			<line class="st8" x1="1128.7" y1="359.7" x2="1128.7" y2="345.8"/>
			<line class="st8" x1="1128.7" y1="373.7" x2="1128.7" y2="359.7"/>
			<line class="st11" x1="233.3" y1="345.8" x2="256" y2="345.8"/>
			<line class="st11" x1="301.3" y1="345.8" x2="324" y2="345.8"/>
			<line class="st11" x1="369.3" y1="364.4" x2="392" y2="364.4"/>
			<line class="st11" x1="437.3" y1="327.2" x2="460" y2="327.2"/>
			<line class="st11" x1="505.3" y1="327.2" x2="528" y2="327.2"/>
			<line class="st11" x1="573.3" y1="364.4" x2="596" y2="364.4"/>
			<line class="st11" x1="641.3" y1="308.6" x2="664" y2="308.6"/>
			<line class="st11" x1="845.3" y1="366.1" x2="868" y2="366.1"/>
			<line class="st11" x1="913.3" y1="372.5" x2="936" y2="372.5"/>
			<line class="st11" x1="981.3" y1="336.9" x2="1004" y2="336.9"/>
			<line class="st11" x1="1049.3" y1="271.4" x2="1072" y2="271.4"/>
			<line class="st11" x1="1117.3" y1="345.8" x2="1140" y2="345.8"/>
		</g>
		<g id="mediane">
			<g>
				<text transform="matrix(1 0 0 1 3.051758e-04 147.2156)" class="st12 st5 st13">outliers</text>
				<text transform="matrix(1 0 0 1 3.051758e-04 322.5171)" class="st12 st5 st13">25% of</text>
				<text transform="matrix(1 0 0 1 3.051758e-04 336.9171)" class="st12 st5 st13">reports</text>
				<text transform="matrix(1 0 0 1 1.220703e-04 381.3164)" class="st12 st5 st13">25% of</text>
				<text transform="matrix(1 0 0 1 1.220703e-04 395.7163)" class="st12 st5 st13">reports</text>
				<text transform="matrix(1 0 0 1 1.220703e-04 442.7118)" class="st12 st5 st13">year</text>
				<text transform="matrix(1 0 0 1 0 205.0164)" class="st12 st5 st13">25% of</text>
				<text transform="matrix(1 0 0 1 0 219.4165)" class="st12 st5 st13">reports</text>
				<text transform="matrix(1 0 0 1 -1.831055e-04 263.7668)" class="st12 st5 st13">25% of</text>
				<text transform="matrix(1 0 0 1 -1.831055e-04 278.1667)" class="st12 st5 st13">reports</text>
				<text transform="matrix(1 0 0 1 3.051758e-04 96.9529)" class="st12 st3 st13">LEGEND</text>
				<text transform="matrix(1 0 0 1 0 300.3522)" class="st12 st5 st13">median</text>
				<g>
					<text transform="matrix(1 0 0 1 -1.220703e-04 481.5553)" class="st12 st5 st13">n° of</text>
					<text transform="matrix(1 0 0 1 -1.220703e-04 495.9553)" class="st12 st5 st13">reports</text>
				</g>
				<circle class="st14" cx="100.3" cy="464.7" r="5.6"/>
				<text transform="matrix(1 0 0 1 91.0204 442.169)" class="st12 st5 st2">2000</text>
				<line class="st15" x1="100.3" y1="238.4" x2="100.3" y2="179.6"/>
				<line class="st15" x1="100.3" y1="238.4" x2="100.3" y2="179.6"/>
				<line class="st16" x1="100.3" y1="297.1" x2="100.3" y2="238.4"/>
				<line class="st15" x1="100.3" y1="238.4" x2="100.3" y2="179.6"/>
				<line class="st17" x1="100.3" y1="355.9" x2="100.3" y2="297.1"/>
				<line class="st18" x1="100.3" y1="414.7" x2="100.3" y2="355.9"/>
				<line class="st19" x1="88.3" y1="297.1" x2="112.3" y2="297.1"/>
				<text transform="matrix(1 0 0 1 97.7964 496.1699)" class="st12 st3 st2">4</text>
				<line class="st19" x1="102.3" y1="146.8" x2="98.3" y2="142.8"/>
				<line class="st19" x1="102.3" y1="142.8" x2="98.3" y2="146.8"/>
				<g>
					<g>
						<line class="st19" x1="73.8" y1="144.8" x2="53.6" y2="144.8"/>
						<g>
							<polygon class="st12" points="72.1,142.7 71.8,143.1 73.6,144.8 71.8,146.4 72.1,146.8 74.3,144.8 							"/>
						</g>
					</g>
				</g>
				<g>
					<g>
						<line class="st19" x1="73.8" y1="209" x2="53.6" y2="209"/>
						<g>
							<polygon class="st12" points="72.1,206.9 71.8,207.3 73.6,209 71.8,210.6 72.1,211 74.3,209 							"/>
						</g>
					</g>
				</g>
				<g>
					<g>
						<line class="st19" x1="73.8" y1="268.5" x2="53.6" y2="268.5"/>
						<g>
							<polygon class="st12" points="72.1,266.5 71.8,266.8 73.6,268.5 71.8,270.2 72.1,270.6 74.3,268.5 							"/>
						</g>
					</g>
				</g>
				<g>
					<g>
						<line class="st19" x1="73.8" y1="297.1" x2="53.6" y2="297.1"/>
						<g>
							<polygon class="st12" points="72.1,295 71.8,295.4 73.6,297.1 71.8,298.7 72.1,299.1 74.3,297.1 							"/>
						</g>
					</g>
				</g>
				<g>
					<g>
						<line class="st19" x1="73.8" y1="326.5" x2="53.6" y2="326.5"/>
						<g>
							<polygon class="st12" points="72.1,324.4 71.8,324.8 73.6,326.5 71.8,328.1 72.1,328.5 74.3,326.5 							"/>
						</g>
					</g>
				</g>
				<g>
					<g>
						<line class="st19" x1="73.8" y1="385.3" x2="53.6" y2="385.3"/>
						<g>
							<polygon class="st12" points="72.1,383.2 71.8,383.6 73.6,385.3 71.8,386.9 72.1,387.3 74.3,385.3 							"/>
						</g>
					</g>
				</g>
				<g>
					<g>
						<line class="st19" x1="73.8" y1="439.5" x2="53.6" y2="439.5"/>
						<g>
							<polygon class="st12" points="72.1,437.4 71.8,437.8 73.6,439.5 71.8,441.1 72.1,441.5 74.3,439.5 							"/>
						</g>
					</g>
				</g>
				<g>
					<g>
						<line class="st19" x1="73.8" y1="464.7" x2="53.6" y2="464.7"/>
						<g>
							<polygon class="st12" points="72.1,462.6 71.8,463 73.6,464.7 71.8,466.3 72.1,466.7 74.3,464.7 							"/>
						</g>
					</g>
				</g>
				<g>
					<g>
						<line class="st19" x1="73.8" y1="492.2" x2="53.6" y2="492.2"/>
						<g>
							<polygon class="st12" points="72.1,490.2 71.8,490.6 73.6,492.2 71.8,493.9 72.1,494.3 74.3,492.2 							"/>
						</g>
					</g>
				</g>
				<polyline class="st19" points="91,456.9 86.3,456.9 86.3,472.4 91,472.4 				"/>
			</g>
		</g>
	</g>
	<g>
		<g>
			<g>
				<line class="st19" x1="151.5" y1="413" x2="151.5" y2="103.1"/>
				<g>
					<polygon class="st12" points="153.5,104.8 153.2,105.1 151.5,103.3 149.8,105.1 149.5,104.8 151.5,102.6 					"/>
				</g>
			</g>
		</g>
		<g>
			<rect x="123.3" y="230.6" class="st20" width="60.7" height="39.7"/>
			<g>
				<text transform="matrix(1 0 0 1 135 244.8614)" class="st12 st5 st13">dosage</text>
				<text transform="matrix(1 0 0 1 135 259.2614)" class="st12 st5 st13">(grams)</text>
			</g>
		</g>
	</g>
</g>
</svg>
