<?xml version="1.0" encoding="utf-8"?>
<!-- Generator: Adobe Illustrator 19.1.0, SVG Export Plug-In . SVG Version: 6.00 Build 0)  -->
<svg version="1.1" xmlns="http://www.w3.org/2000/svg" xmlns:xlink="http://www.w3.org/1999/xlink" x="0px" y="0px"
	 viewBox="132 170.9 1140 500" enable-background="new 132 170.9 1140 500" xml:space="preserve">
<defs>
  <style type="text/css">@import url(https://fonts.googleapis.com/css?family=Crimson+Text);</style>
  <style type="text/css">@import url(https://fonts.googleapis.com/css?family=Source+Sans+Pro:300,400,700);</style>
</defs>
	 
<g id="livelli">
</g>
<g id="Layer_1">
</g>
<g id="numeri">
</g>
<g id="roba_di_lato">
</g>
<g id="roba_sotto">
</g>
<g id="outliers">
</g>
<g id="boxplot">
</g>
<g id="median">
	<g>
		<rect x="365.2" y="516.1" fill="#F4F4F4" stroke="#FDFDFD" stroke-miterlimit="10" width="900" height="44.8"/>
		<rect x="365.2" y="470.4" fill="#F4F4F4" stroke="#FDFDFD" stroke-miterlimit="10" width="900" height="45.7"/>
		<rect x="365.2" y="424.1" fill="#F4F4F4" stroke="#FDFDFD" stroke-miterlimit="10" width="900" height="46.3"/>
		<rect x="365.2" y="378.1" fill="#F4F4F4" stroke="#FDFDFD" stroke-miterlimit="10" width="900" height="45.9"/>
		<rect x="365.2" y="332.2" fill="#F4F4F4" stroke="#FDFDFD" stroke-miterlimit="10" width="900" height="45.9"/>
		<rect x="365.2" y="286.2" fill="#F4F4F4" stroke="#FDFDFD" stroke-miterlimit="10" width="900" height="45.9"/>
		<rect x="365.2" y="240.3" fill="#F4F4F4" stroke="#FDFDFD" stroke-miterlimit="10" width="900" height="45.9"/>
		<g transform="translate(0,0)">
			<g transform="translate(0,318.169014084507)">
				<text transform="matrix(1 0 0 1 349.4857 204.73)" font-family="'Source Sans Pro', sans-serif" font-weight="400"  font-size="10px">1</text>
			</g>
			<g transform="translate(0,271.6901408450704)">
				<text transform="matrix(1 0 0 1 349.4857 204.73)" font-family="'Source Sans Pro', sans-serif" font-weight="400"  font-size="10px">2</text>
			</g>
			<g transform="translate(0,225.21126760563385)">
				<text transform="matrix(1 0 0 1 349.4857 204.73)" font-family="'Source Sans Pro', sans-serif" font-weight="400"  font-size="10px">3</text>
			</g>
			<g transform="translate(0,178.73239436619718)">
				<text transform="matrix(1 0 0 1 349.4857 204.73)" font-family="'Source Sans Pro', sans-serif" font-weight="400"  font-size="10px">4</text>
			</g>
			<g transform="translate(0,132.25352112676057)">
				<text transform="matrix(1 0 0 1 349.4857 204.73)" font-family="'Source Sans Pro', sans-serif" font-weight="400"  font-size="10px">5</text>
			</g>
			<g transform="translate(0,85.77464788732394)">
				<text transform="matrix(1 0 0 1 349.4857 204.73)" font-family="'Source Sans Pro', sans-serif" font-weight="400"  font-size="10px">6</text>
			</g>
			<g transform="translate(0,39.29577464788735)">
				<text transform="matrix(1 0 0 1 349.4857 204.73)" font-family="'Source Sans Pro', sans-serif" font-weight="400"  font-size="10px">7</text>
			</g>
		</g>
		<g transform="translate(0,0)">
			<g transform="translate(0,318.169014084507)">
				<text transform="matrix(1 0 0 1 349.4857 204.73)" font-family="'Source Sans Pro', sans-serif" font-weight="400"  font-size="10px">1</text>
				<text transform="matrix(1 0 0 1 349.4857 245.5208)" font-family="'Source Sans Pro', sans-serif" font-weight="400"  font-size="10px">0</text>
			</g>
			<g transform="translate(0,271.6901408450704)">
				<text transform="matrix(1 0 0 1 349.4857 204.73)" font-family="'Source Sans Pro', sans-serif" font-weight="400"  font-size="10px">2</text>
			</g>
			<g transform="translate(0,225.21126760563385)">
				<text transform="matrix(1 0 0 1 349.4857 204.73)" font-family="'Source Sans Pro', sans-serif" font-weight="400"  font-size="10px">3</text>
			</g>
			<g transform="translate(0,178.73239436619718)">
				<text transform="matrix(1 0 0 1 349.4857 204.73)" font-family="'Source Sans Pro', sans-serif" font-weight="400"  font-size="10px">4</text>
			</g>
			<g transform="translate(0,132.25352112676057)">
				<text transform="matrix(1 0 0 1 349.4857 204.73)" font-family="'Source Sans Pro', sans-serif" font-weight="400"  font-size="10px">5</text>
			</g>
			<g transform="translate(0,85.77464788732394)">
				<text transform="matrix(1 0 0 1 349.4857 204.73)" font-family="'Source Sans Pro', sans-serif" font-weight="400"  font-size="10px">6</text>
			</g>
			<g transform="translate(0,39.29577464788735)">
				<text transform="matrix(1 0 0 1 349.4857 204.73)" font-family="'Source Sans Pro', sans-serif" font-weight="400"  font-size="10px">7</text>
			</g>
		</g>
		<g transform="translate(0,440)">
			<text transform="matrix(1 0 0 1 373.8226 200.89)" font-family="'Source Sans Pro', sans-serif" font-weight="700"  font-size="10px">4</text>
			<text transform="matrix(1 0 0 1 441.8226 200.89)" font-family="'Source Sans Pro', sans-serif" font-weight="700"  font-size="10px">3</text>
			<text transform="matrix(1 0 0 1 509.8226 200.89)" font-family="'Source Sans Pro', sans-serif" font-weight="700"  font-size="10px">8</text>
			<text transform="matrix(1 0 0 1 577.8226 200.89)" font-family="'Source Sans Pro', sans-serif" font-weight="700"  font-size="10px">7</text>
			<text transform="matrix(1 0 0 1 645.8226 200.89)" font-family="'Source Sans Pro', sans-serif" font-weight="700"  font-size="10px">4</text>
			<text transform="matrix(1 0 0 1 710.931 200.89)" font-family="'Source Sans Pro', sans-serif" font-weight="700"  font-size="10px">11</text>
			<text transform="matrix(1 0 0 1 781.8226 200.89)" font-family="'Source Sans Pro', sans-serif" font-weight="700"  font-size="10px">9</text>
			<text transform="matrix(1 0 0 1 849.8226 200.89)" font-family="'Source Sans Pro', sans-serif" font-weight="700"  font-size="10px">9</text>
			<text transform="matrix(1 0 0 1 917.8226 200.89)" font-family="'Source Sans Pro', sans-serif" font-weight="700"  font-size="10px">9</text>
			<text transform="matrix(1 0 0 1 985.8226 200.89)" font-family="'Source Sans Pro', sans-serif" font-weight="700"  font-size="10px">4</text>
			<text transform="matrix(1 0 0 1 1053.8225 200.89)" font-family="'Source Sans Pro', sans-serif" font-weight="700"  font-size="10px">8</text>
			<text transform="matrix(1 0 0 1 1118.4856 200.89)" font-family="'Source Sans Pro', sans-serif" font-weight="700"  font-size="10px">20</text>
			<text transform="matrix(1 0 0 1 1189.8225 200.89)" font-family="'Source Sans Pro', sans-serif" font-weight="700"  font-size="10px">3</text>
			<text transform="matrix(1 0 0 1 1257.8225 200.89)" font-family="'Source Sans Pro', sans-serif" font-weight="700"  font-size="10px">3</text>
		</g>
		<g transform="translate(0,410)">
			<circle fill="none" stroke="#30D49D" stroke-miterlimit="10" cx="377.2" cy="200.9" r="3.3"/>
			<circle fill="none" stroke="#30D49D" stroke-miterlimit="10" cx="445.2" cy="200.9" r="2"/>
			<circle fill="none" stroke="#30D49D" stroke-miterlimit="10" cx="513.2" cy="200.9" r="7.2"/>
			<circle fill="none" stroke="#30D49D" stroke-miterlimit="10" cx="581.2" cy="200.9" r="6.3"/>
			<circle fill="none" stroke="#30D49D" stroke-miterlimit="10" cx="649.2" cy="200.9" r="3.3"/>
			<circle fill="none" stroke="#30D49D" stroke-miterlimit="10" cx="717.2" cy="200.9" r="9.5"/>
			<circle fill="none" stroke="#30D49D" stroke-miterlimit="10" cx="785.2" cy="200.9" r="8"/>
			<circle fill="none" stroke="#30D49D" stroke-miterlimit="10" cx="853.2" cy="200.9" r="8"/>
			<circle fill="none" stroke="#30D49D" stroke-miterlimit="10" cx="921.2" cy="200.9" r="8"/>
			<circle fill="none" stroke="#30D49D" stroke-miterlimit="10" cx="989.2" cy="200.9" r="3.3"/>
			<circle fill="none" stroke="#30D49D" stroke-miterlimit="10" cx="1057.2" cy="200.9" r="7.2"/>
			<circle fill="none" stroke="#30D49D" stroke-miterlimit="10" cx="1125.2" cy="200.9" r="15"/>
			<circle fill="none" stroke="#30D49D" stroke-miterlimit="10" cx="1193.2" cy="200.9" r="2"/>
			<circle fill="none" stroke="#30D49D" stroke-miterlimit="10" cx="1261.2" cy="200.9" r="2"/>
		</g>
		<g transform="translate(0,370)">
			<g transform="translate(8.5,0)">
				<text transform="matrix(1 0 0 1 358.8119 218.41)" font-family="'Source Sans Pro', sans-serif" font-weight="300"  font-size="10px">2001</text>
			</g>
			<g transform="translate(76.5,0)">
				<text transform="matrix(1 0 0 1 358.8119 218.41)" font-family="'Source Sans Pro', sans-serif" font-weight="300"  font-size="10px">2002</text>
			</g>
			<g transform="translate(144.5,0)">
				<text transform="matrix(1 0 0 1 358.8118 218.41)" font-family="'Source Sans Pro', sans-serif" font-weight="300"  font-size="10px">2003</text>
			</g>
			<g transform="translate(212.5,0)">
				<text transform="matrix(1 0 0 1 358.8118 218.41)" font-family="'Source Sans Pro', sans-serif" font-weight="300"  font-size="10px">2004</text>
			</g>
			<g transform="translate(280.5,0)">
				<text transform="matrix(1 0 0 1 358.8118 218.41)" font-family="'Source Sans Pro', sans-serif" font-weight="300"  font-size="10px">2005</text>
			</g>
			<g transform="translate(348.5,0)">
				<text transform="matrix(1 0 0 1 358.8119 218.41)" font-family="'Source Sans Pro', sans-serif" font-weight="300"  font-size="10px">2006</text>
			</g>
			<g transform="translate(416.5,0)">
				<text transform="matrix(1 0 0 1 358.8119 218.41)" font-family="'Source Sans Pro', sans-serif" font-weight="300"  font-size="10px">2007</text>
			</g>
			<g transform="translate(484.5,0)">
				<text transform="matrix(1 0 0 1 358.8119 218.41)" font-family="'Source Sans Pro', sans-serif" font-weight="300"  font-size="10px">2008</text>
			</g>
			<g transform="translate(552.5,0)">
				<text transform="matrix(1 0 0 1 358.8119 218.41)" font-family="'Source Sans Pro', sans-serif" font-weight="300"  font-size="10px">2009</text>
			</g>
			<g transform="translate(620.5,0)">
				<text transform="matrix(1 0 0 1 358.8118 218.41)" font-family="'Source Sans Pro', sans-serif" font-weight="300"  font-size="10px">2010</text>
			</g>
			<g transform="translate(688.5,0)">
				<text transform="matrix(1 0 0 1 359.2571 218.41)" font-family="'Source Sans Pro', sans-serif" font-weight="300"  font-size="10px">2011</text>
			</g>
			<g transform="translate(756.5,0)">
				<text transform="matrix(1 0 0 1 358.8118 218.41)" font-family="'Source Sans Pro', sans-serif" font-weight="300"  font-size="10px">2012</text>
			</g>
			<g transform="translate(824.5,0)">
				<text transform="matrix(1 0 0 1 358.8118 218.41)" font-family="'Source Sans Pro', sans-serif" font-weight="300"  font-size="10px">2013</text>
			</g>
			<g transform="translate(892.5,0)">
				<text transform="matrix(1 0 0 1 358.8118 218.41)" font-family="'Source Sans Pro', sans-serif" font-weight="300"  font-size="10px">2014</text>
			</g>
		</g>
		<g>
			<g>
				<g>
					<g>
						<g>
							<g>
								<line fill="none" stroke="#373737" stroke-linejoin="round" x1="515.5" y1="382.4" x2="509.9" y2="376.8"/>
								<line fill="none" stroke="#373737" stroke-linejoin="round" x1="515.5" y1="376.8" x2="509.9" y2="382.4"/>
							</g>
						</g>
					</g>
				</g>
			</g>
		</g>
		<g>
			<g>
				<g>
					<g>
						<g>
							<g>
								<line fill="none" stroke="#373737" stroke-linejoin="round" x1="583.5" y1="345.2" x2="577.9" y2="339.6"/>
								<line fill="none" stroke="#373737" stroke-linejoin="round" x1="583.5" y1="339.6" x2="577.9" y2="345.2"/>
							</g>
						</g>
					</g>
				</g>
			</g>
		</g>
		<g>
			<g>
				<g>
					<g>
						<g>
							<g>
								<line fill="none" stroke="#373737" stroke-linejoin="round" x1="651.5" y1="308.1" x2="645.9" y2="302.5"/>
								<line fill="none" stroke="#373737" stroke-linejoin="round" x1="651.5" y1="302.5" x2="645.9" y2="308.1"/>
							</g>
						</g>
					</g>
				</g>
			</g>
		</g>
		<g>
			<g>
				<g>
					<g>
						<g>
							<g>
								<line fill="none" stroke="#373737" stroke-linejoin="round" x1="719.5" y1="233.7" x2="713.9" y2="228.1"/>
								<line fill="none" stroke="#373737" stroke-linejoin="round" x1="719.5" y1="228.1" x2="713.9" y2="233.7"/>
							</g>
						</g>
					</g>
				</g>
			</g>
		</g>
		<g>
			<g>
				<g>
					<g>
						<g>
							<g>
								<line fill="none" stroke="#373737" stroke-linejoin="round" x1="787.5" y1="345.2" x2="781.9" y2="339.6"/>
								<line fill="none" stroke="#373737" stroke-linejoin="round" x1="787.5" y1="339.6" x2="781.9" y2="345.2"/>
							</g>
						</g>
					</g>
				</g>
			</g>
		</g>
		<g>
			<g>
				<g>
					<g>
						<g>
							<g>
								<line fill="none" stroke="#373737" stroke-linejoin="round" x1="787.5" y1="335.9" x2="781.9" y2="330.3"/>
								<line fill="none" stroke="#373737" stroke-linejoin="round" x1="787.5" y1="330.3" x2="781.9" y2="335.9"/>
							</g>
						</g>
					</g>
				</g>
			</g>
		</g>
		<g>
			<g>
				<g>
					<g>
						<g>
							<g>
								<line fill="none" stroke="#373737" stroke-linejoin="round" x1="855.5" y1="563.7" x2="849.9" y2="558.1"/>
								<line fill="none" stroke="#373737" stroke-linejoin="round" x1="855.5" y1="558.1" x2="849.9" y2="563.7"/>
							</g>
						</g>
					</g>
				</g>
			</g>
		</g>
		<g>
			<g>
				<g>
					<g>
						<g>
							<g>
								<line fill="none" stroke="#373737" stroke-linejoin="round" x1="855.5" y1="531.2" x2="849.9" y2="525.6"/>
								<line fill="none" stroke="#373737" stroke-linejoin="round" x1="855.5" y1="525.6" x2="849.9" y2="531.2"/>
							</g>
						</g>
					</g>
				</g>
			</g>
		</g>
		<g>
			<g>
				<g>
					<g>
						<g>
							<g>
								<line fill="none" stroke="#373737" stroke-linejoin="round" x1="855.5" y1="345.2" x2="849.9" y2="339.6"/>
								<line fill="none" stroke="#373737" stroke-linejoin="round" x1="855.5" y1="339.6" x2="849.9" y2="345.2"/>
							</g>
						</g>
					</g>
				</g>
			</g>
		</g>
		<g>
			<g>
				<g>
					<g>
						<g>
							<g>
								<line fill="none" stroke="#373737" stroke-linejoin="round" x1="923.5" y1="359.2" x2="917.9" y2="353.6"/>
								<line fill="none" stroke="#373737" stroke-linejoin="round" x1="923.5" y1="353.6" x2="917.9" y2="359.2"/>
							</g>
						</g>
					</g>
				</g>
			</g>
		</g>
		<g>
			<g>
				<g>
					<g>
						<g>
							<g>
								<line fill="none" stroke="#373737" stroke-linejoin="round" x1="1059.5" y1="233.7" x2="1053.9" y2="228.1"/>
								<line fill="none" stroke="#373737" stroke-linejoin="round" x1="1059.5" y1="228.1" x2="1053.9" y2="233.7"/>
							</g>
						</g>
					</g>
				</g>
			</g>
		</g>
		
			<line opacity="0.7" fill="none" stroke="#30D49D" stroke-width="10" stroke-miterlimit="10" x1="376.7" y1="491.2" x2="376.7" y2="454"/>
		
			<line opacity="0.5" fill="none" stroke="#30D49D" stroke-width="10" stroke-miterlimit="10" x1="376.7" y1="528.4" x2="376.7" y2="491.2"/>
		<line fill="none" stroke="#30D49D" stroke-width="10" stroke-miterlimit="10" x1="444.7" y1="444.7" x2="444.7" y2="398.2"/>
		
			<line opacity="0.7" fill="none" stroke="#30D49D" stroke-width="10" stroke-miterlimit="10" x1="444.7" y1="491.2" x2="444.7" y2="444.7"/>
		<line fill="none" stroke="#30D49D" stroke-width="10" stroke-miterlimit="10" x1="512.7" y1="477.2" x2="512.7" y2="435.4"/>
		
			<line opacity="0.7" fill="none" stroke="#30D49D" stroke-width="10" stroke-miterlimit="10" x1="512.7" y1="509.8" x2="512.7" y2="477.2"/>
		
			<line opacity="0.5" fill="none" stroke="#30D49D" stroke-width="10" stroke-miterlimit="10" x1="512.7" y1="528.4" x2="512.7" y2="509.8"/>
		
			<line opacity="0.7" fill="none" stroke="#30D49D" stroke-width="10" stroke-miterlimit="10" x1="580.7" y1="472.6" x2="580.7" y2="454"/>
		
			<line opacity="0.5" fill="none" stroke="#30D49D" stroke-width="10" stroke-miterlimit="10" x1="580.7" y1="500.5" x2="580.7" y2="472.6"/>
		
			<line opacity="0.3" fill="none" stroke="#30D49D" stroke-width="10" stroke-miterlimit="10" x1="580.7" y1="528.4" x2="580.7" y2="500.5"/>
		
			<line opacity="0.7" fill="none" stroke="#30D49D" stroke-width="10" stroke-miterlimit="10" x1="648.7" y1="472.6" x2="648.7" y2="430.7"/>
		
			<line opacity="0.5" fill="none" stroke="#30D49D" stroke-width="10" stroke-miterlimit="10" x1="648.7" y1="484.8" x2="648.7" y2="472.6"/>
		
			<line opacity="0.3" fill="none" stroke="#30D49D" stroke-width="10" stroke-miterlimit="10" x1="648.7" y1="521.4" x2="648.7" y2="484.8"/>
		<line fill="none" stroke="#30D49D" stroke-width="10" stroke-miterlimit="10" x1="716.7" y1="491.2" x2="716.7" y2="454"/>
		
			<line opacity="0.7" fill="none" stroke="#30D49D" stroke-width="10" stroke-miterlimit="10" x1="716.7" y1="509.8" x2="716.7" y2="491.2"/>
		
			<line opacity="0.5" fill="none" stroke="#30D49D" stroke-width="10" stroke-miterlimit="10" x1="716.7" y1="526" x2="716.7" y2="509.8"/>
		
			<line opacity="0.3" fill="none" stroke="#30D49D" stroke-width="10" stroke-miterlimit="10" x1="716.7" y1="546.9" x2="716.7" y2="526"/>
		
			<line opacity="0.7" fill="none" stroke="#30D49D" stroke-width="10" stroke-miterlimit="10" x1="784.7" y1="454" x2="784.7" y2="416.8"/>
		
			<line opacity="0.5" fill="none" stroke="#30D49D" stroke-width="10" stroke-miterlimit="10" x1="784.7" y1="461" x2="784.7" y2="454"/>
		
			<line opacity="0.3" fill="none" stroke="#30D49D" stroke-width="10" stroke-miterlimit="10" x1="784.7" y1="519.1" x2="784.7" y2="461"/>
		
			<line opacity="0.5" fill="none" stroke="#30D49D" stroke-width="10" stroke-miterlimit="10" x1="852.7" y1="426.1" x2="852.7" y2="454"/>
		<line fill="none" stroke="#30D49D" stroke-width="10" stroke-miterlimit="10" x1="920.7" y1="449.3" x2="920.7" y2="435.4"/>
		
			<line opacity="0.5" fill="none" stroke="#30D49D" stroke-width="10" stroke-miterlimit="10" x1="920.7" y1="494.7" x2="920.7" y2="449.3"/>
		
			<line opacity="0.5" fill="none" stroke="#30D49D" stroke-width="10" stroke-miterlimit="10" x1="920.7" y1="528.4" x2="920.7" y2="494.7"/>
		<line fill="none" stroke="#30D49D" stroke-width="10" stroke-miterlimit="10" x1="988.7" y1="437.7" x2="988.7" y2="333.1"/>
		
			<line opacity="0.7" fill="none" stroke="#30D49D" stroke-width="10" stroke-miterlimit="10" x1="988.7" y1="511.5" x2="988.7" y2="437.7"/>
		
			<line opacity="0.5" fill="none" stroke="#30D49D" stroke-width="10" stroke-miterlimit="10" x1="988.7" y1="551.6" x2="988.7" y2="511.5"/>
		<line fill="none" stroke="#30D49D" stroke-width="10" stroke-miterlimit="10" x1="1056.7" y1="457.8" x2="1056.7" y2="356.4"/>
		
			<line opacity="0.7" fill="none" stroke="#30D49D" stroke-width="10" stroke-miterlimit="10" x1="1056.7" y1="517.9" x2="1056.7" y2="457.8"/>
		
			<line opacity="0.5" fill="none" stroke="#30D49D" stroke-width="10" stroke-miterlimit="10" x1="1056.7" y1="528.4" x2="1056.7" y2="517.9"/>
		<line fill="none" stroke="#30D49D" stroke-width="10" stroke-miterlimit="10" x1="1124.7" y1="445.9" x2="1124.7" y2="333.1"/>
		
			<line opacity="0.7" fill="none" stroke="#30D49D" stroke-width="10" stroke-miterlimit="10" x1="1124.7" y1="481.9" x2="1124.7" y2="445.9"/>
		
			<line opacity="0.5" fill="none" stroke="#30D49D" stroke-width="10" stroke-miterlimit="10" x1="1124.7" y1="528.4" x2="1124.7" y2="481.9"/>
		
			<line opacity="0.5" fill="none" stroke="#30D49D" stroke-width="10" stroke-miterlimit="10" x1="1124.7" y1="542.3" x2="1124.7" y2="528.4"/>
		<line fill="none" stroke="#30D49D" stroke-width="10" stroke-miterlimit="10" x1="1192.7" y1="398.2" x2="1192.7" y2="379.6"/>
		
			<line opacity="0.7" fill="none" stroke="#30D49D" stroke-width="10" stroke-miterlimit="10" x1="1192.7" y1="416.8" x2="1192.7" y2="398.2"/>
		
			<line opacity="0.5" fill="none" stroke="#30D49D" stroke-width="10" stroke-miterlimit="10" x1="1192.7" y1="479.6" x2="1192.7" y2="416.8"/>
		
			<line opacity="0.5" fill="none" stroke="#30D49D" stroke-width="10" stroke-miterlimit="10" x1="1192.7" y1="542.3" x2="1192.7" y2="479.6"/>
		<line fill="none" stroke="#30D49D" stroke-width="10" stroke-miterlimit="10" x1="1260.7" y1="435.4" x2="1260.7" y2="379.6"/>
		
			<line opacity="0.7" fill="none" stroke="#30D49D" stroke-width="10" stroke-miterlimit="10" x1="1260.7" y1="491.2" x2="1260.7" y2="435.4"/>
		
			<line opacity="0.5" fill="none" stroke="#30D49D" stroke-width="10" stroke-miterlimit="10" x1="1260.7" y1="505.1" x2="1260.7" y2="491.2"/>
		
			<line opacity="0.5" fill="none" stroke="#30D49D" stroke-width="10" stroke-miterlimit="10" x1="1260.7" y1="519.1" x2="1260.7" y2="505.1"/>
		<line fill="#FFFFFF" stroke="#000000" stroke-miterlimit="10" x1="365.3" y1="491.2" x2="388" y2="491.2"/>
		<line fill="#FFFFFF" stroke="#000000" stroke-miterlimit="10" x1="433.3" y1="491.2" x2="456" y2="491.2"/>
		<line fill="#FFFFFF" stroke="#000000" stroke-miterlimit="10" x1="501.3" y1="509.8" x2="524" y2="509.8"/>
		<line fill="#FFFFFF" stroke="#000000" stroke-miterlimit="10" x1="569.3" y1="472.6" x2="592" y2="472.6"/>
		<line fill="#FFFFFF" stroke="#000000" stroke-miterlimit="10" x1="637.3" y1="472.6" x2="660" y2="472.6"/>
		<line fill="#FFFFFF" stroke="#000000" stroke-miterlimit="10" x1="705.3" y1="509.8" x2="728" y2="509.8"/>
		<line fill="#FFFFFF" stroke="#000000" stroke-miterlimit="10" x1="773.3" y1="454" x2="796" y2="454"/>
		<line fill="#FFFFFF" stroke="#000000" stroke-miterlimit="10" x1="977.3" y1="511.5" x2="1000" y2="511.5"/>
		<line fill="#FFFFFF" stroke="#000000" stroke-miterlimit="10" x1="1045.3" y1="517.9" x2="1068" y2="517.9"/>
		<line fill="#FFFFFF" stroke="#000000" stroke-miterlimit="10" x1="1113.3" y1="482.3" x2="1136" y2="482.3"/>
		<line fill="#FFFFFF" stroke="#000000" stroke-miterlimit="10" x1="1181.3" y1="416.8" x2="1204" y2="416.8"/>
		<line fill="#FFFFFF" stroke="#000000" stroke-miterlimit="10" x1="1249.3" y1="491.2" x2="1272" y2="491.2"/>
	</g>
	<g id="mediane">
		<g>
			<text transform="matrix(1 0 0 1 132.0003 292.6335)" fill="#373737" font-family="'Source Sans Pro', sans-serif" font-weight="300"  font-size="12px">outliers</text>
			<text transform="matrix(1 0 0 1 132.0003 467.935)" fill="#373737" font-family="'Source Sans Pro', sans-serif" font-weight="300"  font-size="12px">25% of</text>
			<text transform="matrix(1 0 0 1 132.0003 482.335)" fill="#373737" font-family="'Source Sans Pro', sans-serif" font-weight="300"  font-size="12px">reports</text>
			<text transform="matrix(1 0 0 1 132.0001 526.7344)" fill="#373737" font-family="'Source Sans Pro', sans-serif" font-weight="300"  font-size="12px">25% of</text>
			<text transform="matrix(1 0 0 1 132.0001 541.1343)" fill="#373737" font-family="'Source Sans Pro', sans-serif" font-weight="300"  font-size="12px">reports</text>
			<text transform="matrix(1 0 0 1 132.0001 588.1297)" fill="#373737" font-family="'Source Sans Pro', sans-serif" font-weight="300"  font-size="12px">year</text>
			<text transform="matrix(1 0 0 1 132 350.4344)" fill="#373737" font-family="'Source Sans Pro', sans-serif" font-weight="300"  font-size="12px">25% of</text>
			<text transform="matrix(1 0 0 1 132 364.8344)" fill="#373737" font-family="'Source Sans Pro', sans-serif" font-weight="300"  font-size="12px">reports</text>
			<text transform="matrix(1 0 0 1 131.9998 409.1847)" fill="#373737" font-family="'Source Sans Pro', sans-serif" font-weight="300"  font-size="12px">25% of</text>
			<text transform="matrix(1 0 0 1 131.9998 423.5847)" fill="#373737" font-family="'Source Sans Pro', sans-serif" font-weight="300"  font-size="12px">reports</text>
			<text transform="matrix(1 0 0 1 132.0003 242.3708)" fill="#373737" font-family="'Source Sans Pro', sans-serif" font-weight="700"  font-size="12px">LEGEND</text>
			<text transform="matrix(1 0 0 1 132 445.7701)" fill="#373737" font-family="'Source Sans Pro', sans-serif" font-weight="300"  font-size="12px">median</text>
			<g>
				<text transform="matrix(1 0 0 1 131.9999 626.9732)" fill="#373737" font-family="'Source Sans Pro', sans-serif" font-weight="300"  font-size="12px">n° of</text>
				<text transform="matrix(1 0 0 1 131.9999 641.3732)" fill="#373737" font-family="'Source Sans Pro', sans-serif" font-weight="300"  font-size="12px">reports</text>
			</g>
			<circle fill="none" stroke="#373737" stroke-width="0.9854" cx="232.3" cy="610.1" r="5.6"/>
			<text transform="matrix(1 0 0 1 223.0204 587.5869)" fill="#373737" font-family="'Source Sans Pro', sans-serif" font-weight="300"  font-size="10px">2000</text>
			<line fill="none" stroke="#373737" stroke-width="10" stroke-miterlimit="10" x1="232.3" y1="383.8" x2="232.3" y2="325"/>
			<line fill="none" stroke="#373737" stroke-width="10" stroke-miterlimit="10" x1="232.3" y1="383.8" x2="232.3" y2="325"/>
			
				<line opacity="0.8" fill="none" stroke="#373737" stroke-width="10" stroke-miterlimit="10" enable-background="new    " x1="232.3" y1="442.5" x2="232.3" y2="383.8"/>
			<line fill="none" stroke="#373737" stroke-width="10" stroke-miterlimit="10" x1="232.3" y1="383.8" x2="232.3" y2="325"/>
			
				<line opacity="0.5" fill="none" stroke="#373737" stroke-width="10" stroke-miterlimit="10" enable-background="new    " x1="232.3" y1="501.3" x2="232.3" y2="442.5"/>
			
				<line opacity="0.3" fill="none" stroke="#373737" stroke-width="10" stroke-miterlimit="10" enable-background="new    " x1="232.3" y1="560.1" x2="232.3" y2="501.3"/>
			<line fill="none" stroke="#373737" stroke-width="0.5" stroke-linejoin="round" x1="220.3" y1="442.5" x2="244.3" y2="442.5"/>
			<text transform="matrix(1 0 0 1 229.7964 641.5878)" fill="#373737" font-family="'Source Sans Pro', sans-serif" font-weight="700"  font-size="10px">4</text>
			<line fill="none" stroke="#373737" stroke-width="0.5" stroke-linejoin="round" x1="234.3" y1="292.2" x2="230.3" y2="288.2"/>
			<line fill="none" stroke="#373737" stroke-width="0.5" stroke-linejoin="round" x1="234.3" y1="288.2" x2="230.3" y2="292.2"/>
			<g>
				<g>
					<line fill="none" stroke="#373737" stroke-width="0.5" stroke-linejoin="round" x1="205.8" y1="290.2" x2="185.6" y2="290.2"/>
					<g>
						<polygon fill="#373737" points="204.1,288.1 203.8,288.5 205.6,290.2 203.8,291.8 204.1,292.2 206.3,290.2 						"/>
					</g>
				</g>
			</g>
			<g>
				<g>
					<line fill="none" stroke="#373737" stroke-width="0.5" stroke-linejoin="round" x1="205.8" y1="354.4" x2="185.6" y2="354.4"/>
					<g>
						<polygon fill="#373737" points="204.1,352.3 203.8,352.7 205.6,354.4 203.8,356 204.1,356.4 206.3,354.4 						"/>
					</g>
				</g>
			</g>
			<g>
				<g>
					<line fill="none" stroke="#373737" stroke-width="0.5" stroke-linejoin="round" x1="205.8" y1="413.9" x2="185.6" y2="413.9"/>
					<g>
						<polygon fill="#373737" points="204.1,411.9 203.8,412.2 205.6,413.9 203.8,415.6 204.1,416 206.3,413.9 						"/>
					</g>
				</g>
			</g>
			<g>
				<g>
					<line fill="none" stroke="#373737" stroke-width="0.5" stroke-linejoin="round" x1="205.8" y1="442.5" x2="185.6" y2="442.5"/>
					<g>
						<polygon fill="#373737" points="204.1,440.4 203.8,440.8 205.6,442.5 203.8,444.1 204.1,444.5 206.3,442.5 						"/>
					</g>
				</g>
			</g>
			<g>
				<g>
					<line fill="none" stroke="#373737" stroke-width="0.5" stroke-linejoin="round" x1="205.8" y1="471.9" x2="185.6" y2="471.9"/>
					<g>
						<polygon fill="#373737" points="204.1,469.8 203.8,470.2 205.6,471.9 203.8,473.5 204.1,473.9 206.3,471.9 						"/>
					</g>
				</g>
			</g>
			<g>
				<g>
					<line fill="none" stroke="#373737" stroke-width="0.5" stroke-linejoin="round" x1="205.8" y1="530.7" x2="185.6" y2="530.7"/>
					<g>
						<polygon fill="#373737" points="204.1,528.6 203.8,529 205.6,530.7 203.8,532.3 204.1,532.7 206.3,530.7 						"/>
					</g>
				</g>
			</g>
			<g>
				<g>
					<line fill="none" stroke="#373737" stroke-width="0.5" stroke-linejoin="round" x1="205.8" y1="584.9" x2="185.6" y2="584.9"/>
					<g>
						<polygon fill="#373737" points="204.1,582.8 203.8,583.2 205.6,584.9 203.8,586.5 204.1,586.9 206.3,584.9 						"/>
					</g>
				</g>
			</g>
			<g>
				<g>
					<line fill="none" stroke="#373737" stroke-width="0.5" stroke-linejoin="round" x1="205.8" y1="610.1" x2="185.6" y2="610.1"/>
					<g>
						<polygon fill="#373737" points="204.1,608 203.8,608.4 205.6,610.1 203.8,611.7 204.1,612.1 206.3,610.1 						"/>
					</g>
				</g>
			</g>
			<g>
				<g>
					<line fill="none" stroke="#373737" stroke-width="0.5" stroke-linejoin="round" x1="205.8" y1="637.6" x2="185.6" y2="637.6"/>
					<g>
						<polygon fill="#373737" points="204.1,635.6 203.8,636 205.6,637.6 203.8,639.3 204.1,639.7 206.3,637.6 						"/>
					</g>
				</g>
			</g>
			<polyline fill="none" stroke="#373737" stroke-width="0.5" stroke-linejoin="round" points="223,602.3 218.3,602.3 218.3,617.8 
				223,617.8 			"/>
		</g>
	</g>
</g>
</svg>
