<?xml version="1.0" encoding="UTF-8" standalone="no"?>
<svg
   xmlns:dc="http://purl.org/dc/elements/1.1/"
   xmlns:cc="http://creativecommons.org/ns#"
   xmlns:rdf="http://www.w3.org/1999/02/22-rdf-syntax-ns#"
   xmlns:svg="http://www.w3.org/2000/svg"
   xmlns="http://www.w3.org/2000/svg"
   viewBox="0 0 187.86223 103.24723"
   height="103.24723"
   width="187.86223"
   xml:space="preserve"
   version="1.1"
   id="svg2"><metadata
     id="metadata8"><rdf:RDF><cc:Work
         rdf:about=""><dc:format>image/svg+xml</dc:format><dc:type
           rdf:resource="http://purl.org/dc/dcmitype/StillImage" /><dc:title></dc:title></cc:Work></rdf:RDF></metadata><defs
     id="defs6"><clipPath
       id="clipPath16"
       clipPathUnits="userSpaceOnUse"><path
         id="path18"
         d="m 0,841.89 595.28,0 L 595.28,0 0,0 0,841.89 Z" /></clipPath></defs><g
     transform="matrix(1.3333333,0,0,-1.3333333,-116.0855,1002.1587)"
     id="g10"><g
       id="g12"><g
         clip-path="url(#clipPath16)"
         id="g14"><g
           transform="translate(120.2051,701.3711)"
           id="g20"><path
             id="path22"
             style="fill:#4b4b4d;fill-opacity:1;fill-rule:nonzero;stroke:none"
             d="M 0,0 C 0,3.754 3.132,6.75 6.859,6.777 8.478,6.777 9.99,6.184 11.152,5.293 11.771,4.807 11.88,3.889 11.447,3.295 10.908,2.646 10.042,2.539 9.423,3.025 8.72,3.537 7.857,3.889 6.859,3.889 4.669,3.889 2.863,2.08 2.863,0 c 0,-2.079 1.806,-3.861 3.996,-3.861 0.971,0 1.861,0.351 2.564,0.864 0.594,0.459 1.485,0.351 2.024,-0.297 0.433,-0.594 0.324,-1.458 -0.295,-1.997 C 9.99,-6.129 8.478,-6.722 6.859,-6.722 3.132,-6.722 0,-3.698 0,0" /></g><g
           transform="translate(152.627,702.7207)"
           id="g24"><path
             id="path26"
             style="fill:#4b4b4d;fill-opacity:1;fill-rule:nonzero;stroke:none"
             d="M 0,0 7.641,0 C 7.372,1.082 5.995,2.674 3.645,2.863 1.352,2.754 0.217,1.107 0,0 m -2.941,-1.322 c 0.027,3.672 2.888,6.75 6.586,6.75 3.51,0 6.292,-2.619 6.507,-6.264 l 0,-0.135 c 0,-0.054 0,-0.189 -0.027,-0.244 -0.083,-0.646 -0.649,-1.079 -1.404,-1.079 l -8.584,0 c 0.134,-0.621 0.431,-1.323 0.918,-1.783 0.566,-0.648 1.646,-1.134 2.59,-1.215 0.972,-0.08 2.133,0.163 2.809,0.676 0.566,0.594 1.673,0.512 2.025,0.08 0.352,-0.377 0.621,-1.188 0,-1.754 -1.324,-1.215 -2.916,-1.781 -4.834,-1.781 -3.698,0.025 -6.559,3.077 -6.586,6.749" /></g><g
           transform="translate(194.4028,701.3711)"
           id="g28"><path
             id="path30"
             style="fill:#4b4b4d;fill-opacity:1;fill-rule:nonzero;stroke:none"
             d="m 0,0 c 0,3.754 3.133,6.75 6.857,6.777 1.621,0 3.132,-0.593 4.292,-1.484 C 11.771,4.807 11.878,3.889 11.446,3.295 10.907,2.646 10.042,2.539 9.421,3.025 8.72,3.537 7.856,3.889 6.857,3.889 4.67,3.889 2.863,2.08 2.863,0 c 0,-2.079 1.807,-3.861 3.994,-3.861 0.972,0 1.863,0.351 2.564,0.864 0.594,0.459 1.486,0.351 2.025,-0.297 0.432,-0.594 0.325,-1.458 -0.297,-1.997 C 9.989,-6.129 8.478,-6.722 6.857,-6.722 3.133,-6.722 0,-3.698 0,0" /></g><g
           transform="translate(219.0981,701.3711)"
           id="g32"><path
             id="path34"
             style="fill:#4b4b4d;fill-opacity:1;fill-rule:nonzero;stroke:none"
             d="m 0,0 c 0,1.135 -0.404,2.105 -1.053,2.781 -0.646,0.731 -1.566,1.108 -2.51,1.108 -0.972,0 -1.89,-0.377 -2.511,-1.108 C -6.721,2.105 -7.1,1.135 -7.1,0 c 0,-1.107 0.379,-2.079 1.026,-2.78 0.621,-0.676 1.539,-1.053 2.511,-1.053 0.944,0 1.864,0.377 2.51,1.053 C -0.404,-2.079 0,-1.107 0,0 m 2.863,0 0,-5.291 c 0,-0.784 -0.648,-1.431 -1.431,-1.431 -0.702,0 -1.243,0.512 -1.405,1.16 -1.025,-0.728 -2.24,-1.16 -3.59,-1.16 -1.835,0 -3.427,0.756 -4.588,1.97 -1.161,1.242 -1.836,2.917 -1.836,4.752 0,1.865 0.675,3.537 1.836,4.752 1.161,1.242 2.753,2.025 4.588,2.025 1.35,0 2.565,-0.459 3.59,-1.187 0.162,0.676 0.703,1.187 1.405,1.187 0.783,0 1.431,-0.648 1.431,-1.457 l 0,-5.32 z" /></g><g
           transform="translate(152.6289,685.3887)"
           id="g36"><path
             id="path38"
             style="fill:#4b4b4d;fill-opacity:1;fill-rule:nonzero;stroke:none"
             d="m 0,0 c 0,-1.16 0.35,-2.105 0.971,-2.861 0.675,-0.649 1.566,-1 2.593,-1 0.946,0 1.807,0.351 2.483,1 C 6.723,-2.105 7.1,-1.16 7.1,0 7.1,1.107 6.723,2.078 6.047,2.809 5.371,3.402 4.51,3.834 3.564,3.834 2.537,3.834 1.646,3.402 0.971,2.809 0.35,2.078 0,1.107 0,0 m -1.08,-4.752 c -1.16,1.188 -1.863,2.863 -1.863,4.752 0,1.838 0.703,3.43 1.863,4.727 1.215,1.266 2.781,2.049 4.644,2.049 1.782,0 3.401,-0.783 4.509,-2.049 C 9.288,3.43 9.96,1.838 9.96,0 9.96,-1.889 9.288,-3.564 8.073,-4.752 6.965,-6.021 5.346,-6.805 3.564,-6.805 c -1.863,0 -3.429,0.784 -4.644,2.053" /></g><g
           transform="translate(171.394,678.665)"
           id="g40"><path
             id="path42"
             style="fill:#4b4b4d;fill-opacity:1;fill-rule:nonzero;stroke:none"
             d="m 0,0 c -3.076,0 -5.613,2.538 -5.613,5.618 l 0,6.451 c 0,0.755 0.646,1.431 1.429,1.431 0.809,0 1.43,-0.676 1.43,-1.431 l 0,-6.451 c 0,-1.541 1.217,-2.756 2.754,-2.756 1.565,0 2.808,1.215 2.835,2.756 l 0,6.451 c 0,0.755 0.594,1.431 1.404,1.431 0.756,0 1.457,-0.676 1.457,-1.431 l 0,-6.451 C 5.696,2.538 3.104,0 0,0" /></g><g
           transform="translate(186.1606,689.1953)"
           id="g44"><path
             id="path46"
             style="fill:#4b4b4d;fill-opacity:1;fill-rule:nonzero;stroke:none"
             d="M 0,0 C 0.811,0 1.512,0.676 1.512,1.486 1.512,2.321 0.811,2.97 0,2.97 l -0.676,0 0,10.313 c 0,3.131 -2.51,5.67 -5.613,5.67 -1.701,0 -3.24,-0.701 -4.24,-1.863 -1.026,1.162 -2.537,1.863 -4.238,1.863 -1.025,0 -2.023,-0.297 -2.888,-0.81 -0.215,0.513 -0.729,0.81 -1.295,0.81 -0.783,0 -1.43,-0.621 -1.43,-1.457 l 0,-4.185 0,-0.028 0,-6.398 c 0,-0.703 0.512,-1.242 1.16,-1.406 0.08,0 0.162,-0.025 0.27,-0.025 0.566,0 1.107,0.377 1.349,0.863 l 0,0.135 c 0.055,0.055 0.055,0.108 0.08,0.162 l 0,0.082 c 0,0.054 0.03,0.135 0.03,0.189 l 0,6.398 c 0,1.539 1.24,2.781 2.724,2.781 1.511,0 2.753,-1.214 2.781,-2.699 l 0,-0.082 0,-6.398 c 0,-0.784 0.701,-1.431 1.457,-1.431 0.783,0 1.431,0.647 1.431,1.431 l 0,6.398 0,0.082 c 0.055,1.485 1.268,2.699 2.809,2.699 1.484,0 2.725,-1.242 2.725,-2.781 l 0,-10.313 -0.782,0 C -5.184,2.97 -5.832,2.321 -5.832,1.486 -5.832,0.676 -5.184,0 -4.346,0 l 0.782,0 0,-7.533 c 0,-1.647 1.242,-2.997 2.888,-2.997 0.838,0 1.487,0.649 1.487,1.485 0,0.837 -0.649,1.512 -1.487,1.512 L -0.676,0 0,0 Z" /></g><g
           transform="translate(191.4849,680.1777)"
           id="g48"><path
             id="path50"
             style="fill:#4b4b4d;fill-opacity:1;fill-rule:nonzero;stroke:none"
             d="m 0,0 c 0,-0.838 -0.676,-1.484 -1.512,-1.484 -0.676,0 -1.242,0.486 -1.431,1.105 -0.028,0.108 -0.055,0.243 -0.055,0.379 l 0,26.459 c 0,0.836 0.676,1.484 1.486,1.484 C -0.676,27.943 0,27.295 0,26.459 L 0,11.231 c 0.863,0.459 1.834,0.784 2.889,0.784 3.265,0 5.882,-2.673 5.882,-5.911 L 8.771,0 c 0,-0.838 -0.646,-1.484 -1.482,-1.484 -0.838,0 -1.486,0.646 -1.486,1.484 l 0,6.104 C 5.803,7.695 4.508,8.992 2.889,9.018 1.295,8.992 0.025,7.695 0,6.104 L 0,0 Z" /></g><g
           transform="translate(146.6313,691.0586)"
           id="g52"><path
             id="path54"
             style="fill:#4b4b4d;fill-opacity:1;fill-rule:nonzero;stroke:none"
             d="m 0,0 c -0.189,0.62 -0.756,1.106 -1.432,1.106 -0.836,0 -1.511,-0.648 -1.511,-1.485 l 0,-6.101 c -0.026,-1.594 -1.295,-2.889 -2.889,-2.916 -1.619,0.027 -2.914,1.322 -2.914,2.916 l 0,6.101 c 0,0.837 -0.648,1.485 -1.486,1.485 -0.836,0 -1.484,-0.648 -1.484,-1.485 l 0,-6.101 c 0,-3.241 2.619,-5.914 5.884,-5.914 0.999,0 1.92,0.296 2.748,0.716 0.01,0.002 0.021,0.006 0.037,0.01 0.002,0.004 0.002,0.007 0.004,0.01 0.033,0.017 0.068,0.031 0.1,0.049 l 0.052,-0.008 c -0.066,-0.024 -0.119,-0.039 -0.156,-0.051 -0.451,-1.373 -1.781,-2.372 -3.351,-2.398 -0.539,0 -1.053,0.134 -1.566,0.378 -0.647,0.35 -1.567,0.052 -1.916,-0.595 -0.325,-0.756 -0.055,-1.592 0.701,-1.916 0.81,-0.406 1.81,-0.676 2.781,-0.676 3.589,0 6.453,2.835 6.453,6.453 l 0,10.043 C 0.055,-0.242 0.025,-0.107 0,0" /></g><g
           transform="translate(191.4302,712.0898)"
           id="g56"><path
             id="path58"
             style="fill:#4b4b4d;fill-opacity:1;fill-rule:nonzero;stroke:none"
             d="m 0,0 c 0,-0.805 -0.654,-1.459 -1.457,-1.459 -0.807,0 -1.459,0.654 -1.459,1.459 0,0.805 0.652,1.458 1.459,1.458 C -0.654,1.458 0,0.805 0,0" /></g><g
           transform="translate(137.9111,696.1338)"
           id="g60"><path
             id="path62"
             style="fill:#4b4b4d;fill-opacity:1;fill-rule:nonzero;stroke:none"
             d="m 0,0 c 0,-0.838 -0.674,-1.484 -1.512,-1.484 -0.676,0 -1.242,0.486 -1.431,1.105 -0.026,0.108 -0.053,0.243 -0.053,0.379 l 0,15.929 c 0,0.836 0.674,1.485 1.484,1.485 0.838,0 1.512,-0.649 1.512,-1.485 l 0,-4.698 c 0.865,0.459 1.838,0.784 2.889,0.784 3.267,0 5.886,-2.674 5.886,-5.912 L 8.775,0 c 0,-0.838 -0.649,-1.484 -1.486,-1.484 -0.836,0 -1.485,0.646 -1.485,1.484 l 0,6.103 C 5.804,7.694 4.509,8.991 2.889,9.019 1.297,8.991 0.027,7.694 0,6.103 L 0,0 Z" /></g><g
           transform="translate(226.4468,713.5459)"
           id="g64"><path
             id="path66"
             style="fill:#4b4b4d;fill-opacity:1;fill-rule:nonzero;stroke:none"
             d="m 0,0 c 0.838,0 1.514,-0.676 1.514,-1.484 l 0,-15.929 c 0,-0.81 -0.676,-1.485 -1.514,-1.485 -0.809,0 -1.484,0.675 -1.484,1.485 l 0,15.929 C -1.484,-0.676 -0.809,0 0,0" /></g><g
           transform="translate(143.4233,729.7651)"
           id="g68"><path
             id="path70"
             style="fill:#48b6a9;fill-opacity:1;fill-rule:nonzero;stroke:none"
             d="m 0,0 c -0.758,-0.759 -2.888,-2.65 -4.607,-2.65 l -1.523,-0.003 -1.522,0 c -1.718,-0.002 -3.85,1.888 -4.606,2.642 -2.197,2.2 -5.758,2.199 -7.953,0.002 -2.197,-2.197 -2.199,-5.76 -0.002,-7.956 2.197,-2.196 5.759,-2.196 7.956,0.002 0.758,0.757 2.888,2.65 4.606,2.651 l 1.523,0.001 1.521,0.001 c 1.72,0 3.851,-1.886 4.608,-2.644 2.197,-2.196 5.758,-2.197 7.954,0 2.196,2.196 2.197,5.759 0.001,7.955 C 5.76,2.199 2.197,2.197 0,0" /></g><g
           transform="translate(108.9165,695.2422)"
           id="g72"><path
             id="path74"
             style="fill:#48b6a9;fill-opacity:1;fill-rule:nonzero;stroke:none"
             d="m 0,0 c 0.758,0.758 2.65,2.89 2.651,4.607 l 0.001,1.522 10e-4,1.523 c 10e-4,1.719 -1.889,3.85 -2.643,4.606 -2.198,2.197 -2.198,5.759 -0.001,7.954 2.196,2.197 5.757,2.198 7.954,0.002 2.198,-2.197 2.196,-5.759 -0.001,-7.956 C 7.205,11.5 5.312,9.369 5.311,7.648 L 5.31,6.129 5.308,4.607 c 0,-1.719 1.888,-3.852 2.645,-4.609 2.196,-2.196 2.197,-5.758 0,-7.953 C 5.756,-10.152 2.194,-10.154 -0.002,-7.957 -2.199,-5.76 -2.197,-2.197 0,0" /></g><g
           transform="translate(96.668,707.4902)"
           id="g76"><path
             id="path78"
             style="fill:#48b6a9;fill-opacity:1;fill-rule:nonzero;stroke:none"
             d="m 0,0 c 0.759,0.758 2.888,2.65 4.606,2.65 l 1.523,0.004 1.523,0 c 1.718,0.002 3.849,-1.888 4.606,-2.644 2.197,-2.198 5.756,-2.198 7.953,0 2.196,2.197 2.198,5.759 0.001,7.956 -2.197,2.196 -5.758,2.195 -7.955,-0.002 C 11.499,7.207 9.368,5.314 7.649,5.312 l -1.522,0 -1.522,0 C 2.888,5.311 0.756,7.198 -0.001,7.955 c -2.197,2.196 -5.757,2.198 -7.955,0 C -10.152,5.759 -10.154,2.197 -7.957,0 -5.758,-2.199 -2.198,-2.195 0,0" /></g><g
           transform="translate(148.2397,740.0645)"
           id="g80"><path
             id="path82"
             style="fill:#48b6a9;fill-opacity:1;fill-rule:nonzero;stroke:none"
             d="m 0,0 c -0.001,-3.733 -3.025,-6.756 -6.756,-6.757 -3.731,10e-4 -6.755,3.025 -6.754,6.756 0,3.73 3.024,6.755 6.754,6.755 C -3.024,6.753 -0.001,3.729 0,0" /></g><g
           transform="translate(131.1665,729.7544)"
           id="g84"><path
             id="path86"
             style="fill:#48b6a9;fill-opacity:1;fill-rule:nonzero;stroke:none"
             d="m 0,0 c -0.76,0.76 -2.651,2.891 -2.652,4.61 l -10e-4,1.523 -10e-4,0 -10e-4,1.521 c 0,1.719 1.887,3.851 2.644,4.607 2.197,2.197 2.198,5.758 0,7.955 -2.195,2.197 -5.758,2.199 -7.954,10e-4 -2.197,-2.197 -2.195,-5.76 0,-7.956 0.759,-0.759 2.652,-2.89 2.651,-4.608 L -5.312,6.131 -5.31,4.608 C -5.31,2.889 -7.198,0.758 -7.954,0 -10.152,-2.197 -10.153,-5.757 -7.956,-7.954 -5.759,-10.151 -2.197,-10.152 0,-7.955 2.197,-5.759 2.196,-2.196 0,0" /></g></g></g></g></svg>