<?xml version="1.0" encoding="utf-8"?>
<!-- Generator: Adobe Illustrator 19.1.0, SVG Export Plug-In . SVG Version: 6.00 Build 0)  -->
<svg version="1.1" id="Layer_1" xmlns="http://www.w3.org/2000/svg" xmlns:xlink="http://www.w3.org/1999/xlink" x="0px" y="0px"
	 viewBox="0 0 750 116" style="enable-background:new 0 0 750 116;" xml:space="preserve">
<style type="text/css">
	.st0{fill:#373737;}
	.st1{font-family:'CrimsonText-Roman';}
	.st2{font-size:15px;}
	.st3{fill:#A478D6;}
	.st4{font-family:'CrimsonText-Italic';}
	.st5{font-family:'SourceSansPro-Regular';}
	.st6{font-size:7.4353px;}
	.st7{font-size:18px;}
	.st8{opacity:0.2;fill:#373737;}
	.st9{fill:none;stroke:#373737;stroke-width:0.25;stroke-miterlimit:10;}
	.st10{font-size:9px;}
	.st11{fill:none;stroke:#000000;stroke-width:0.25;stroke-linejoin:round;stroke-miterlimit:10;}
	.st12{font-size:5.4075px;}
</style>
<text transform="matrix(1 0 0 1 514.0131 24.5839)"><tspan x="0" y="0" class="st0 st1 st2">Overall</tspan><tspan x="43.3" y="0" class="st3 st1 st2"> </tspan><tspan x="46.7" y="0" class="st0 st4 st2">sex distribution</tspan></text>
<text transform="matrix(1 0 0 1 0.3044 24.5839)"><tspan x="0" y="0" class="st0 st1 st2">Overall </tspan><tspan x="46.7" y="0" class="st0 st4 st2">weight distribution</tspan></text>
<text transform="matrix(1 0 0 1 257.1584 24.5839)"><tspan x="0" y="0" class="st0 st1 st2">Overall</tspan><tspan x="43.3" y="0" class="st3 st1 st2"> </tspan><tspan x="46.7" y="0" class="st0 st4 st2">age distribution</tspan></text>
<text transform="matrix(1 0 0 1 575.8295 84.0362)" class="st0 st5 st6">male 8348</text>
<g>
	<text transform="matrix(1 0 0 1 569.227 96.8974)" class="st0 st5 st6">female 1335</text>
</g>
<g>
	<g>
		<text transform="matrix(1 0 0 1 514.0129 89.5538)" class="st0 st5 st7">9683</text>
	</g>
	<g>
		<g>
			<g>
				<rect x="514" y="104.9" class="st0" width="41.8" height="4.1"/>
			</g>
		</g>
	</g>
	<rect x="555.8" y="104.9" class="st8" width="2.9" height="4.1"/>
</g>
<g>
	<line class="st9" x1="73.2" y1="100.5" x2="239.6" y2="100.5"/>
</g>
<g>
	<g>
		<text transform="matrix(1 0 0 1 72.1389 109.8066)" class="st0 st5 st10">1 </text>
	</g>
</g>
<g>
	<g>
		<text transform="matrix(1 0 0 1 145.1712 109.8066)" class="st0 st5 st10">86 </text>
	</g>
</g>
<g>
	<g>
		<text transform="matrix(1 0 0 1 228.7453 109.8066)" class="st0 st5 st10">188 </text>
	</g>
</g>
<g>
	<line class="st9" x1="323.9" y1="100.3" x2="496.2" y2="100.3"/>
</g>
<g>
	<g>
		<text transform="matrix(1 0 0 1 322.5921 109.8065)" class="st0 st5 st10">14 </text>
	</g>
</g>
<g>
	<g>
		<text transform="matrix(1 0 0 1 400.5842 109.8065)" class="st0 st5 st10">38 </text>
	</g>
</g>
<g>
	<g>
		<text transform="matrix(1 0 0 1 478.5774 109.8065)" class="st0 st5 st10">62 </text>
	</g>
</g>
<g>
	<g>
		<g>
			<text transform="matrix(1 0 0 1 0.4983 90.3577)" class="st0 st5 st7">9548</text>
		</g>
	</g>
	<rect x="41.4" y="105.2" class="st8" width="3.6" height="3.8"/>
	<rect x="0.3" y="105.2" class="st0" width="41.1" height="3.8"/>
</g>
<g>
	<g>
		<g>
			<text transform="matrix(1 0 0 1 257.2155 89.8984)" class="st0 st5 st7">969</text>
		</g>
	</g>
	<g>
		<g>
			<g>
				<g>
					<rect x="257.2" y="104.9" class="st0" width="4.2" height="4.1"/>
				</g>
			</g>
		</g>
	</g>
	<rect x="261.4" y="104.9" class="st8" width="40.1" height="4.1"/>
</g>
<g>
	<g>
		<g>
			<g>
				<path class="st0" d="M721.2,84.5h-105v-4.1h105V84.5z M632.8,97h-16.6v-4.1h16.6V97z"/>
			</g>
		</g>
	</g>
</g>
<g>
	<path class="st11" d="M69.6,61.3h1.8 M69.6,80.2h1.8 M69.6,98.8h1.8"/>
</g>
<g>
	<g>
		<text transform="matrix(1 0 0 1 63.7591 100.9989)" class="st0 st5 st12">0 </text>
	</g>
</g>
<g>
	<g>
		<text transform="matrix(1 0 0 1 57.7444 82.2167)" class="st0 st5 st12">500 </text>
	</g>
</g>
<g>
	<g>
		<text transform="matrix(1 0 0 1 54.7375 63.4355)" class="st0 st5 st12">1000 </text>
	</g>
</g>
<g>
	<g>
		<path class="st0" d="M238.8,97.6h0.7V98h-0.7V97.6z M234.7,97.6h0.7V98h-0.7V97.6z M232,97.6h0.7V98H232V97.6z M220.5,97.6h0.7V98
			h-0.7V97.6z M217.8,97.6h0.7V98h-0.7V97.6z M215.8,97.6h0.7V98h-0.7V97.6z M212.4,97.6h0.7V98h-0.7V97.6z M209.1,97.6h0.7V98h-0.7
			V97.6z M208.4,97.6h0.7V98h-0.7V97.6z M205,97.6h0.7V98H205V97.6z M201.6,97.6h0.7V98h-0.7V97.6z M200.9,97.6h0.7V98h-0.7V97.6z
			 M197.6,97.6h0.7V98h-0.7V97.6z M193.5,97.6h0.7V98h-0.7V97.6z M192.2,97.6h0.7V98h-0.7V97.6z M191.5,97.6h0.7V98h-0.7V97.6z
			 M190.1,97.6h0.7V98h-0.7V97.6z M188.1,97.6h0.7V98h-0.7V97.6z M187.4,97.6h0.7V98h-0.7V97.6z M186.7,97.6h0.7V98h-0.7V97.6z
			 M185.4,97.6h0.7V98h-0.7V97.6z M184.7,97.6h0.7V98h-0.7V97.6z M184,97.6h0.7V98H184V97.6z M181.3,96.9h0.7V98h-0.7V96.9z
			 M180.7,97.6h0.7V98h-0.7V97.6z M180,97.6h0.7V98H180V97.6z M178.6,97.6h0.7V98h-0.7V97.6z M178,96.9h0.7V98H178V96.9z
			 M177.3,97.6h0.7V98h-0.7V97.6z M176.6,97.6h0.7V98h-0.7V97.6z M175.3,97.6h0.7V98h-0.7V97.6z M174.6,97.6h0.7V98h-0.7V97.6z
			 M173.9,94.9h0.7V98h-0.7V94.9z M173.2,97.6h0.7V98h-0.7V97.6z M171.9,97.6h0.7V98h-0.7V97.6z M171.2,97.6h0.7V98h-0.7V97.6z
			 M170.5,95.6h0.7V98h-0.7V95.6z M169.8,97.6h0.7V98h-0.7V97.6z M168.5,96.9h0.7V98h-0.7V96.9z M167.1,97.6h0.7V98h-0.7V97.6z
			 M166.5,94.9h0.7V98h-0.7V94.9z M165.1,97.6h0.7V98h-0.7V97.6z M164.4,95.6h0.7V98h-0.7V95.6z M163.1,92.9h0.7V98h-0.7V92.9z
			 M161.7,97.6h0.7V98h-0.7V97.6z M161.1,96.9h0.7V98h-0.7V96.9z M160.4,97.6h0.7V98h-0.7V97.6z M159.7,97.6h0.7V98h-0.7V97.6z
			 M158.4,92.9h0.7V98h-0.7V92.9z M157.7,97.6h0.7V98h-0.7V97.6z M157,96.9h0.7V98H157V96.9z M156.3,97.6h0.7V98h-0.7V97.6z
			 M155,84.7h0.7V98H155V84.7z M154.3,96.2h0.7V98h-0.7V96.2z M153.6,97.6h0.7V98h-0.7V97.6z M152.9,94.2h0.7V98h-0.7V94.2z
			 M151.6,97.6h0.7V98h-0.7V97.6z M150.9,88.8h0.7V98h-0.7V88.8z M150.2,96.2h0.7V98h-0.7V96.2z M149.6,89.5h0.7V98h-0.7V89.5z
			 M148.2,96.9h0.7V98h-0.7V96.9z M147.5,82h0.7V98h-0.7V82z M146.9,97.6h0.7V98h-0.7V97.6z M146.2,94.9h0.7V98h-0.7V94.9z
			 M144.8,85.4h0.7V98h-0.7V85.4z M144.2,96.9h0.7V98h-0.7V96.9z M143.5,80.7h0.7V98h-0.7V80.7z M142.8,96.2h0.7V98h-0.7V96.2z
			 M141.5,80.7h0.7V98h-0.7V80.7z M140.8,96.9h0.7V98h-0.7V96.9z M140.1,76h0.7v22h-0.7V76z M139.4,96.2h0.7V98h-0.7V96.2z
			 M138.1,96.9h0.7V98h-0.7V96.9z M137.4,78h0.7v20h-0.7V78z M136.7,96.9h0.7V98h-0.7V96.9z M136,67.8h0.7V98H136V67.8z M134.7,96.2
			h0.7V98h-0.7V96.2z M134,82h0.7V98H134V82z M133.3,93.5h0.7V98h-0.7V93.5z M132.7,76h0.7v22h-0.7V76z M131.3,96.2h0.7V98h-0.7
			V96.2z M130.6,96.9h0.7V98h-0.7V96.9z M130,81.4h0.7V98H130V81.4z M129.3,94.2h0.7V98h-0.7V94.2z M127.9,81.4h0.7V98h-0.7V81.4z
			 M127.3,95.6h0.7V98h-0.7V95.6z M126.6,85.4h0.7V98h-0.7V85.4z M125.9,96.2h0.7V98h-0.7V96.2z M124.6,95.6h0.7V98h-0.7V95.6z
			 M123.9,86.1h0.7V98h-0.7V86.1z M123.2,96.9h0.7V98h-0.7V96.9z M122.5,92.9h0.7V98h-0.7V92.9z M121.2,96.9h0.7V98h-0.7V96.9z
			 M120.5,92.2h0.7V98h-0.7V92.2z M119.8,96.9h0.7V98h-0.7V96.9z M119.2,95.6h0.7V98h-0.7V95.6z M118.5,97.6h0.7V98h-0.7V97.6z
			 M117.1,97.6h0.7V98h-0.7V97.6z M116.4,96.2h0.7V98h-0.7V96.2z M115.8,97.6h0.7V98h-0.7V97.6z M115.1,96.9h0.7V98h-0.7V96.9z
			 M113.7,97.6h0.7V98h-0.7V97.6z M113.1,97.6h0.7V98h-0.7V97.6z M112.4,97.6h0.7V98h-0.7V97.6z M111.7,97.6h0.7V98h-0.7V97.6z
			 M109,97.6h0.7V98H109V97.6z M107,97.6h0.7V98H107V97.6z M105.6,97.6h0.7V98h-0.7V97.6z M105,97.6h0.7V98H105V97.6z M102.9,97.6
			h0.7V98h-0.7V97.6z M101.6,97.6h0.7V98h-0.7V97.6z M98.2,97.6h0.7V98h-0.7V97.6z M95.5,97.6h0.7V98h-0.7V97.6z M92.1,97.6h0.7V98
			h-0.7V97.6z M91.4,97.6h0.7V98h-0.7V97.6z M90.1,97.6h0.7V98h-0.7V97.6z M89.4,97.6h0.7V98h-0.7V97.6z M88.7,97.6h0.7V98h-0.7
			V97.6z M88.1,96.9h0.7V98h-0.7V96.9z M86.7,97.6h0.7V98h-0.7V97.6z M86,97.6h0.7V98H86V97.6z M85.4,97.6H86V98h-0.7V97.6z
			 M83.3,97.6H84V98h-0.7V97.6z M82.7,97.6h0.7V98h-0.7V97.6z M82,97.6h0.7V98H82V97.6z M79.9,97.6h0.7V98h-0.7V97.6z"/>
	</g>
</g>
<g>
	<path class="st0" d="M494.9,97.6h1.4V98h-1.4V97.6z M491.5,97.6h1.4V98h-1.4V97.6z M469.9,97.6h1.4V98h-1.4V97.6z M454,97.6h1.4V98
		H454V97.6z M450.9,97.6h1.4V98h-1.4V97.6z M447.6,97.6h1.4V98h-1.4V97.6z M444.9,97.6h1.4V98h-1.4V97.6z M438.1,97h1.4V98h-1.4V97z
		 M435.4,97.6h1.4V98h-1.4V97.6z M428.6,97.6h1.4V98h-1.4V97.6z M425.9,96.3h1.4V98h-1.4V96.3z M422.6,97h1.4V98h-1.4V97z
		 M419.5,96.3h1.4V98h-1.4V96.3z M416.5,97h1.4V98h-1.4V97z M413.1,96.3h1.4V98h-1.4V96.3z M410.4,97h1.4V98h-1.4V97z M407,96.3h1.4
		V98H407V96.3z M403.6,97h1.4V98h-1.4V97z M400.9,96.3h1.4V98h-1.4V96.3z M397.5,95.6h1.4V98h-1.4V95.6z M394.2,96.3h1.4V98h-1.4
		V96.3z M391.5,96.3h1.4V98h-1.4V96.3z M388.1,94.9h1.4V98h-1.4V94.9z M385,94.3h1.4V98H385V94.3z M382,91.6h1.4V98H382V91.6z
		 M378.6,94.9h1.4V98h-1.4V94.9z M375.6,92.9h1.4V98h-1.4V92.9z M372.5,91.6h1.4V98h-1.4V91.6z M369.2,88.9h1.4V98h-1.4V88.9z
		 M366.4,88.9h1.4V98h-1.4V88.9z M363.1,88.2h1.4V98h-1.4V88.2z M359.7,85.5h1.4V98h-1.4V85.5z M357,81.4h1.4V98H357V81.4z
		 M353.6,80.1h1.4v18h-1.4V80.1z M350.2,67.9h1.4V98h-1.4V67.9z M347.5,68.6h1.4V98h-1.4V68.6z M344.1,65.2h1.4V98h-1.4V65.2z
		 M341.1,84.8h1.4V98h-1.4V84.8z M338.1,91.6h1.4V98h-1.4V91.6z M334.7,94.3h1.4V98h-1.4V94.3z M331.6,95.6h1.4V98h-1.4V95.6z"/>
</g>
<g>
	<path class="st11" d="M322.6,61.3h1.4 M322.6,74.1h1.4 M322.6,86.3h1.4 M322.6,98.8h1.4"/>
</g>
<g>
	<g>
		<text transform="matrix(1 0 0 1 316.4368 100.997)" class="st0 st5 st12">0 </text>
	</g>
</g>
<g>
	<g>
		<text transform="matrix(1 0 0 1 313.429 88.4755)" class="st0 st5 st12">50 </text>
	</g>
</g>
<g>
	<g>
		<text transform="matrix(1 0 0 1 310.4222 75.955)" class="st0 st5 st12">100 </text>
	</g>
</g>
<g>
	<g>
		<text transform="matrix(1 0 0 1 310.4222 63.4336)" class="st0 st5 st12">150 </text>
	</g>
</g>
<g>
	<g>
		<text transform="matrix(1 0 0 1 614.807 109.8066)" class="st0 st5 st10">0 </text>
	</g>
</g>
<g>
	<g>
		<text transform="matrix(1 0 0 1 711.2797 109.8066)" class="st0 st5 st10">8000 </text>
	</g>
</g>
<text transform="matrix(1 0 0 1 469.36 -770.4443)"><tspan x="0" y="0" class="st0 st1 st2">Overall</tspan><tspan x="43.3" y="0" class="st3 st1 st2"> </tspan><tspan x="46.7" y="0" class="st0 st4 st2">sex distribution</tspan></text>
<g>
	<text transform="matrix(1 0 0 1 -290.64 -770.4443)"><tspan x="0" y="0" class="st0 st1 st2">Overall </tspan><tspan x="46.7" y="0" class="st0 st4 st2">weight distribution</tspan></text>
	<g>
		<g>
			<text transform="matrix(1 0 0 1 -290.3519 -709.623)" class="st0 st5 st7">9548</text>
		</g>
		<text transform="matrix(1 0 0 1 -290.3519 -661.458)"><tspan x="0" y="0" class="st0" style="font-family:'SourceSansPro-Light'; font-size:12px;">reports</tspan><tspan x="0" y="14" class="st0" style="font-family:'SourceSansPro-Light'; font-size:12px;">with </tspan><tspan x="26.4" y="14" class="st0 st5" style="font-size:12px;">weight</tspan></text>
	</g>
</g>
<text transform="matrix(1 0 0 1 89.36 -770.4443)"><tspan x="0" y="0" class="st0 st1 st2">Overall</tspan><tspan x="43.3" y="0" class="st3 st1 st2"> </tspan><tspan x="46.7" y="0" class="st0 st4 st2">age distribution</tspan></text>
<g>
	<text transform="matrix(1 0 0 1 89.445 -710.623)" class="st0 st5 st7">969</text>
	<g>
		<text transform="matrix(1 0 0 1 89.445 -661.458)"><tspan x="0" y="0" class="st0" style="font-family:'SourceSansPro-Light'; font-size:12px;">reports</tspan><tspan x="0" y="14" class="st0" style="font-family:'SourceSansPro-Light'; font-size:12px;">with </tspan><tspan x="26.4" y="14" class="st0 st5" style="font-size:12px;">age</tspan></text>
	</g>
</g>
<g>
	<text transform="matrix(1 0 0 1 469.36 -710.623)" class="st0 st5 st7">9683</text>
</g>
<g>
	<text transform="matrix(1 0 0 1 469.36 -661.458)"><tspan x="0" y="0" class="st0" style="font-family:'SourceSansPro-Light'; font-size:12px;">reports</tspan><tspan x="0" y="14" class="st0" style="font-family:'SourceSansPro-Light'; font-size:12px;">with</tspan><tspan x="23.4" y="14" class="st0 st5" style="font-size:12px;"> sex</tspan></text>
</g>
<text transform="matrix(1 0 0 1 560.8141 -682.4893)" class="st0 st5" style="font-size:11px;">male 8348</text>
<g>
	<text transform="matrix(1 0 0 1 551.0465 -663.4619)" class="st0 st5" style="font-size:11px;">female 1335</text>
</g>
<g>
	<g>
		<g>
			<rect x="469.4" y="-687.9" class="st0" width="61.8" height="6"/>
		</g>
	</g>
</g>
<rect x="531.2" y="-687.9" class="st8" width="4.3" height="6"/>
<g>
	<line class="st9" x1="-182.8" y1="-658.1" x2="63.4" y2="-658.1"/>
</g>
<g>
	<g>
		<text transform="matrix(1 0 0 1 -184.3651 -647.3223)" class="st0 st5" style="font-size:8px;">1 </text>
	</g>
</g>
<g>
	<g>
		<text transform="matrix(1 0 0 1 -164.4129 -647.3223)" class="st0 st5" style="font-size:8px;">18 </text>
	</g>
</g>
<g>
	<g>
		<text transform="matrix(1 0 0 1 -142.787 -647.3223)" class="st0 st5" style="font-size:8px;">35 </text>
	</g>
</g>
<g>
	<g>
		<text transform="matrix(1 0 0 1 -120.3651 -647.3223)" class="st0 st5" style="font-size:8px;">52 </text>
	</g>
</g>
<g>
	<g>
		<text transform="matrix(1 0 0 1 -98.3417 -647.3223)" class="st0 st5" style="font-size:8px;">69 </text>
	</g>
</g>
<g>
	<g>
		<text transform="matrix(1 0 0 1 -76.3177 -647.3223)" class="st0 st5" style="font-size:8px;">86 </text>
	</g>
</g>
<g>
	<g>
		<text transform="matrix(1 0 0 1 -56.6307 -647.3223)" class="st0 st5" style="font-size:8px;">103 </text>
	</g>
</g>
<g>
	<g>
		<text transform="matrix(1 0 0 1 -34.6068 -647.3223)" class="st0 st5" style="font-size:8px;">120 </text>
	</g>
</g>
<g>
	<g>
		<text transform="matrix(1 0 0 1 -12.5829 -647.3223)" class="st0 st5" style="font-size:8px;">137 </text>
	</g>
</g>
<g>
	<g>
		<text transform="matrix(1 0 0 1 9.4406 -647.3223)" class="st0 st5" style="font-size:8px;">154 </text>
	</g>
</g>
<g>
	<g>
		<text transform="matrix(1 0 0 1 31.4645 -647.3223)" class="st0 st5" style="font-size:8px;">171 </text>
	</g>
</g>
<g>
	<g>
		<text transform="matrix(1 0 0 1 53.4884 -647.3223)" class="st0 st5" style="font-size:8px;">188 </text>
	</g>
</g>
<g>
	<line class="st9" x1="188.1" y1="-658.5" x2="443" y2="-658.5"/>
</g>
<g>
	<g>
		<text transform="matrix(1 0 0 1 186.1647 -647.6533)" class="st0 st5" style="font-size:8px;">14 </text>
	</g>
</g>
<g>
	<g>
		<text transform="matrix(1 0 0 1 224.6266 -647.6533)" class="st0 st5" style="font-size:8px;">22 </text>
	</g>
</g>
<g>
	<g>
		<text transform="matrix(1 0 0 1 263.0885 -647.6533)" class="st0 st5" style="font-size:8px;">30 </text>
	</g>
</g>
<g>
	<g>
		<text transform="matrix(1 0 0 1 301.5504 -647.6533)" class="st0 st5" style="font-size:8px;">38 </text>
	</g>
</g>
<g>
	<g>
		<text transform="matrix(1 0 0 1 340.0118 -647.6533)" class="st0 st5" style="font-size:8px;">46 </text>
	</g>
</g>
<g>
	<g>
		<text transform="matrix(1 0 0 1 378.4738 -647.6533)" class="st0 st5" style="font-size:8px;">54 </text>
	</g>
</g>
<g>
	<g>
		<text transform="matrix(1 0 0 1 416.9357 -647.6533)" class="st0 st5" style="font-size:8px;">62 </text>
	</g>
</g>
<rect x="-229.8" y="-687.7" class="st8" width="5.3" height="5.6"/>
<rect x="-290.6" y="-687.7" class="st0" width="60.9" height="5.6"/>
<g>
	<g>
		<g>
			<g>
				<rect x="89.4" y="-688.4" class="st0" width="6.1" height="6"/>
			</g>
		</g>
	</g>
</g>
<rect x="95.6" y="-688.4" class="st8" width="59.4" height="6"/>
<g>
	<g>
		<g>
			<g>
				<path class="st0" d="M775.9-681.9H620.5v-6h155.4V-681.9z M645-663.4h-24.5v-6H645V-663.4z"/>
			</g>
		</g>
	</g>
</g>
<g>
	<path class="st11" d="M-188.1-716.2h2.7 M-188.1-688.2h2.7 M-188.1-660.6h2.7"/>
</g>
<g>
	<g>
		<text transform="matrix(1 0 0 1 -196.7616 -657.3936)" class="st0 st5" style="font-size:8px;">0 </text>
	</g>
</g>
<g>
	<g>
		<text transform="matrix(1 0 0 1 -205.66 -685.1807)" class="st0 st5" style="font-size:8px;">500 </text>
	</g>
</g>
<g>
	<g>
		<text transform="matrix(1 0 0 1 -210.1092 -712.9668)" class="st0 st5" style="font-size:8px;">1000 </text>
	</g>
</g>
<g>
	<g>
		<path class="st0" d="M62.2-662.4h1v0.6h-1V-662.4z M56.2-662.4h1v0.6h-1V-662.4z M52.2-662.4h1v0.6h-1V-662.4z M35.2-662.4h1v0.6
			h-1V-662.4z M31.2-662.4h1v0.6h-1V-662.4z M28.2-662.4h1v0.6h-1V-662.4z M23.2-662.4h1v0.6h-1V-662.4z M18.2-662.4h1v0.6h-1
			V-662.4z M17.2-662.4h1v0.6h-1V-662.4z M12.2-662.4h1v0.6h-1V-662.4z M7.2-662.4h1v0.6h-1V-662.4z M6.2-662.4h1v0.6h-1V-662.4z
			 M1.2-662.4h1v0.6h-1V-662.4z M-4.8-662.4h1v0.6h-1V-662.4z M-6.8-662.4h1v0.6h-1V-662.4z M-7.8-662.4h1v0.6h-1V-662.4z
			 M-9.8-662.4h1v0.6h-1V-662.4z M-12.8-662.4h1v0.6h-1V-662.4z M-13.8-662.4h1v0.6h-1V-662.4z M-14.8-662.4h1v0.6h-1V-662.4z
			 M-16.8-662.4h1v0.6h-1V-662.4z M-17.8-662.4h1v0.6h-1V-662.4z M-18.8-662.4h1v0.6h-1V-662.4z M-22.8-663.4h1v1.6h-1V-663.4z
			 M-23.8-662.4h1v0.6h-1V-662.4z M-24.8-662.4h1v0.6h-1V-662.4z M-26.8-662.4h1v0.6h-1V-662.4z M-27.8-663.4h1v1.6h-1V-663.4z
			 M-28.8-662.4h1v0.6h-1V-662.4z M-29.8-662.4h1v0.6h-1V-662.4z M-31.8-662.4h1v0.6h-1V-662.4z M-32.8-662.4h1v0.6h-1V-662.4z
			 M-33.8-666.4h1v4.6h-1V-666.4z M-34.8-662.4h1v0.6h-1V-662.4z M-36.8-662.4h1v0.6h-1V-662.4z M-37.8-662.4h1v0.6h-1V-662.4z
			 M-38.8-665.4h1v3.6h-1V-665.4z M-39.8-662.4h1v0.6h-1V-662.4z M-41.8-663.4h1v1.6h-1V-663.4z M-43.8-662.4h1v0.6h-1V-662.4z
			 M-44.8-666.4h1v4.6h-1V-666.4z M-46.8-662.4h1v0.6h-1V-662.4z M-47.8-665.4h1v3.6h-1V-665.4z M-49.8-669.4h1v7.6h-1V-669.4z
			 M-51.8-662.4h1v0.6h-1V-662.4z M-52.8-663.4h1v1.6h-1V-663.4z M-53.8-662.4h1v0.6h-1V-662.4z M-54.8-662.4h1v0.6h-1V-662.4z
			 M-56.8-669.4h1v7.6h-1V-669.4z M-57.8-662.4h1v0.6h-1V-662.4z M-58.8-663.4h1v1.6h-1V-663.4z M-59.8-662.4h1v0.6h-1V-662.4z
			 M-61.8-681.4h1v19.6h-1V-681.4z M-62.8-664.4h1v2.6h-1V-664.4z M-63.8-662.4h1v0.6h-1V-662.4z M-64.8-667.4h1v5.6h-1V-667.4z
			 M-66.8-662.4h1v0.6h-1V-662.4z M-67.8-675.4h1v13.6h-1V-675.4z M-68.8-664.4h1v2.6h-1V-664.4z M-69.8-674.4h1v12.6h-1V-674.4z
			 M-71.8-663.4h1v1.6h-1V-663.4z M-72.8-685.4h1v23.6h-1V-685.4z M-73.8-662.4h1v0.6h-1V-662.4z M-74.8-666.4h1v4.6h-1V-666.4z
			 M-76.8-680.4h1v18.6h-1V-680.4z M-77.8-663.4h1v1.6h-1V-663.4z M-78.8-687.4h1v25.6h-1V-687.4z M-79.8-664.4h1v2.6h-1V-664.4z
			 M-81.8-687.4h1v25.6h-1V-687.4z M-82.8-663.4h1v1.6h-1V-663.4z M-83.8-694.4h1v32.6h-1V-694.4z M-84.8-664.4h1v2.6h-1V-664.4z
			 M-86.8-663.4h1v1.6h-1V-663.4z M-87.8-691.4h1v29.6h-1V-691.4z M-88.8-663.4h1v1.6h-1V-663.4z M-89.8-706.4h1v44.6h-1V-706.4z
			 M-91.8-664.4h1v2.6h-1V-664.4z M-92.8-685.4h1v23.6h-1V-685.4z M-93.8-668.4h1v6.6h-1V-668.4z M-94.8-694.4h1v32.6h-1V-694.4z
			 M-96.8-664.4h1v2.6h-1V-664.4z M-97.8-663.4h1v1.6h-1V-663.4z M-98.8-686.4h1v24.6h-1V-686.4z M-99.8-667.4h1v5.6h-1V-667.4z
			 M-101.8-686.4h1v24.6h-1V-686.4z M-102.8-665.4h1v3.6h-1V-665.4z M-103.8-680.4h1v18.6h-1V-680.4z M-104.8-664.4h1v2.6h-1V-664.4
			z M-106.8-665.4h1v3.6h-1V-665.4z M-107.8-679.4h1v17.6h-1V-679.4z M-108.8-663.4h1v1.6h-1V-663.4z M-109.8-669.4h1v7.6h-1V-669.4
			z M-111.8-663.4h1v1.6h-1V-663.4z M-112.8-670.4h1v8.6h-1V-670.4z M-113.8-663.4h1v1.6h-1V-663.4z M-114.8-665.4h1v3.6h-1V-665.4z
			 M-115.8-662.4h1v0.6h-1V-662.4z M-117.8-662.4h1v0.6h-1V-662.4z M-118.8-664.4h1v2.6h-1V-664.4z M-119.8-662.4h1v0.6h-1V-662.4z
			 M-120.8-663.4h1v1.6h-1V-663.4z M-122.8-662.4h1v0.6h-1V-662.4z M-123.8-662.4h1v0.6h-1V-662.4z M-124.8-662.4h1v0.6h-1V-662.4z
			 M-125.8-662.4h1v0.6h-1V-662.4z M-129.8-662.4h1v0.6h-1V-662.4z M-132.8-662.4h1v0.6h-1V-662.4z M-134.8-662.4h1v0.6h-1V-662.4z
			 M-135.8-662.4h1v0.6h-1V-662.4z M-138.8-662.4h1v0.6h-1V-662.4z M-140.8-662.4h1v0.6h-1V-662.4z M-145.8-662.4h1v0.6h-1V-662.4z
			 M-149.8-662.4h1v0.6h-1V-662.4z M-154.8-662.4h1v0.6h-1V-662.4z M-155.8-662.4h1v0.6h-1V-662.4z M-157.8-662.4h1v0.6h-1V-662.4z
			 M-158.8-662.4h1v0.6h-1V-662.4z M-159.8-662.4h1v0.6h-1V-662.4z M-160.8-663.4h1v1.6h-1V-663.4z M-162.8-662.4h1v0.6h-1V-662.4z
			 M-163.8-662.4h1v0.6h-1V-662.4z M-164.8-662.4h1v0.6h-1V-662.4z M-167.8-662.4h1v0.6h-1V-662.4z M-168.8-662.4h1v0.6h-1V-662.4z
			 M-169.8-662.4h1v0.6h-1V-662.4z M-172.8-662.4h1v0.6h-1V-662.4z"/>
	</g>
</g>
<g>
	<path class="st0" d="M441-662.4h2v0.6h-2V-662.4z M436-662.4h2v0.6h-2V-662.4z M404-662.4h2v0.6h-2V-662.4z M380.5-662.4h2v0.6h-2
		V-662.4z M376-662.4h2v0.6h-2V-662.4z M371-662.4h2v0.6h-2V-662.4z M367-662.4h2v0.6h-2V-662.4z M357-663.4h2v1.6h-2V-663.4z
		 M353-662.4h2v0.6h-2V-662.4z M343-662.4h2v0.6h-2V-662.4z M339-664.4h2v2.6h-2V-664.4z M334-663.4h2v1.6h-2V-663.4z M329.5-664.4
		h2v2.6h-2V-664.4z M325-663.4h2v1.6h-2V-663.4z M320-664.4h2v2.6h-2V-664.4z M316-663.4h2v1.6h-2V-663.4z M311-664.4h2v2.6h-2
		V-664.4z M306-663.4h2v1.6h-2V-663.4z M302-664.4h2v2.6h-2V-664.4z M297-665.4h2v3.6h-2V-665.4z M292-664.4h2v2.6h-2V-664.4z
		 M288-664.4h2v2.6h-2V-664.4z M283-666.4h2v4.6h-2V-666.4z M278.5-667.4h2v5.6h-2V-667.4z M274-671.4h2v9.6h-2V-671.4z M269-666.4
		h2v4.6h-2V-666.4z M264.5-669.4h2v7.6h-2V-669.4z M260-671.4h2v9.6h-2V-671.4z M255-675.4h2v13.6h-2V-675.4z M251-675.4h2v13.6h-2
		V-675.4z M246-676.4h2v14.6h-2V-676.4z M241-680.4h2v18.6h-2V-680.4z M237-686.4h2v24.6h-2V-686.4z M232-688.4h2v26.6h-2V-688.4z
		 M227-706.4h2v44.6h-2V-706.4z M223-705.4h2v43.6h-2V-705.4z M218-710.4h2v48.6h-2V-710.4z M213.5-681.4h2v19.6h-2V-681.4z
		 M209-671.4h2v9.6h-2V-671.4z M204-667.4h2v5.6h-2V-667.4z M199.5-665.4h2v3.6h-2V-665.4z"/>
</g>
<g>
	<path class="st11" d="M186.2-716.2h2 M186.2-697.2h2 M186.2-679.2h2 M186.2-660.6h2"/>
</g>
<g>
	<g>
		<text transform="matrix(1 0 0 1 177.0587 -657.3965)" class="st0 st5" style="font-size:8px;">0 </text>
	</g>
</g>
<g>
	<g>
		<text transform="matrix(1 0 0 1 172.6095 -675.9209)" class="st0 st5" style="font-size:8px;">50 </text>
	</g>
</g>
<g>
	<g>
		<text transform="matrix(1 0 0 1 168.1603 -694.4453)" class="st0 st5" style="font-size:8px;">100 </text>
	</g>
</g>
<g>
	<g>
		<text transform="matrix(1 0 0 1 168.1603 -712.9697)" class="st0 st5" style="font-size:8px;">150 </text>
	</g>
</g>
<g>
	<g>
		<text transform="matrix(1 0 0 1 618.4781 -647.3223)" class="st0 st5" style="font-size:8px;">0 </text>
	</g>
</g>
<g>
	<g>
		<text transform="matrix(1 0 0 1 649.6588 -647.3223)" class="st0 st5" style="font-size:8px;">2000 </text>
	</g>
</g>
<g>
	<g>
		<text transform="matrix(1 0 0 1 686.8405 -647.3223)" class="st0 st5" style="font-size:8px;">4000 </text>
	</g>
</g>
<g>
	<g>
		<text transform="matrix(1 0 0 1 724.0221 -647.3223)" class="st0 st5" style="font-size:8px;">6000 </text>
	</g>
</g>
<g>
	<g>
		<text transform="matrix(1 0 0 1 761.2037 -647.3223)" class="st0 st5" style="font-size:8px;">8000 </text>
	</g>
</g>
<g>
	<g>
		<text transform="matrix(1 0 0 1 796.3854 -647.3223)" class="st0 st5" style="font-size:8px;">10000 </text>
	</g>
</g>
</svg>
